<?xml version="1.0" standalone="no"?>
<!DOCTYPE svg PUBLIC "-//W3C//DTD SVG 1.1//EN" "http://www.w3.org/Graphics/SVG/1.1/DTD/svg11.dtd" >
<svg xmlns="http://www.w3.org/2000/svg" xmlns:xlink="http://www.w3.org/1999/xlink" version="1.1">
<metadata>
Created by FontForge 20170731 at Thu Jun 29 23:46:34 2017
 By ,,,
Copyright (c) 2017 by Alexander Slobzheninov. All rights reserved.
</metadata>
<defs>
<font id="FivoSans-Heavy" horiz-adv-x="600" >
  <font-face 
    font-family="Fivo Sans Heavy"
    font-weight="900"
    font-stretch="normal"
    units-per-em="1000"
    panose-1="0 0 0 0 0 0 0 0 0 0"
    ascent="800"
    descent="-200"
    x-height="500"
    cap-height="700"
    bbox="-80 -252 1290 960"
    underline-thickness="50"
    underline-position="-225"
    unicode-range="U+000D-E133"
  />
<missing-glyph horiz-adv-x="200" 
 />
    <glyph glyph-name=".notdef" horiz-adv-x="200" 
 />
    <glyph glyph-name=".null" horiz-adv-x="0" 
 />
    <glyph glyph-name="nonmarkingreturn" horiz-adv-x="333" 
 />
    <glyph glyph-name="NULL" horiz-adv-x="740" 
d="M60 700h620v-700h-620v700zM230 550v-400h280v400h-280z" />
    <glyph glyph-name="NULL" horiz-adv-x="740" 
d="M60 700h620v-700h-620v700zM230 550v-400h280v400h-280z" />
    <glyph glyph-name="CR" unicode="&#xd;" horiz-adv-x="250" 
 />
    <glyph glyph-name="space" unicode=" " horiz-adv-x="300" 
 />
    <glyph glyph-name="exclam" unicode="!" horiz-adv-x="300" 
d="M150 180q53 0 76.5 -22.5t23.5 -72.5t-24 -72.5t-76 -22.5q-53 0 -76.5 22.5t-23.5 72.5t23.5 72.5t76.5 22.5zM55 700h190v-190l-40 -250h-110l-40 250v190z" />
    <glyph glyph-name="quotedbl" unicode="&#x22;" horiz-adv-x="440" 
d="M190 700v-140l-20 -240h-120l-20 240v140h160zM410 700v-140l-20 -240h-120l-20 240v140h160z" />
    <glyph glyph-name="numbersign" unicode="#" horiz-adv-x="710" 
d="M30 170v120h141l13 90h-124v120h141l29 200h130l-29 -200h90l29 200h130l-29 -200h129v-120h-146l-13 -90h129v-120h-146l-24 -170h-130l24 170h-90l-24 -170h-130l24 170h-124zM391 290l13 90h-90l-13 -90h90z" />
    <glyph glyph-name="dollar" unicode="$" horiz-adv-x="660" 
d="M330 590q-52 0 -76 -16.5t-24 -53.5q0 -25 29.5 -42t74 -26t96.5 -26t96.5 -39t74 -67.5t29.5 -108.5q0 -107 -55 -161.5t-175 -65.5v-83h-140v83q-120 10 -175 62.5t-55 154.5h180q0 -47 28.5 -68.5t91.5 -21.5q58 0 84 16.5t26 53.5q0 38 -41 61t-100 37.5t-118 34
t-100 64t-41 113.5q0 106 52.5 160.5t167.5 65.5v83h140v-83q115 -11 167.5 -63.5t52.5 -153.5h-180q0 47 -26 68.5t-84 21.5z" />
    <glyph glyph-name="percent" unicode="%" horiz-adv-x="900" 
d="M200 710q94 0 137 -47.5t43 -152.5t-43 -152.5t-137 -47.5t-137 47.5t-43 152.5t43 152.5t137 47.5zM200 410q26 0 38 24t12 76t-12 76t-38 24t-38 -24t-12 -76t12 -76t38 -24zM310 -30h-160l440 760h160zM700 390q94 0 137 -47.5t43 -152.5t-43 -152.5t-137 -47.5
t-137 47.5t-43 152.5t43 152.5t137 47.5zM700 90q26 0 38 24t12 76t-12 76t-38 24t-38 -24t-12 -76t12 -76t38 -24z" />
    <glyph glyph-name="ampersand" unicode="&#x26;" horiz-adv-x="799" 
d="M30 180q0 127 151 212q-63 77 -63 137q0 100 54.5 145t175.5 45q116 0 168 -38t52 -122q0 -60 -40.5 -101t-114.5 -83l116 -113q11 36 19 88h140q-12 -116 -49 -193l160 -157h-229l-36 36q-87 -56 -234 -56q-142 0 -206 47.5t-64 152.5zM432 136l-159 159
q-56 -43 -56 -94q0 -47 23.5 -68.5t76.5 -21.5q69 0 115 25zM325 464v-1q45 23 68.5 43.5t23.5 44.5q0 31 -16.5 45.5t-53.5 14.5t-53.5 -14.5t-16.5 -45.5q0 -35 48 -87z" />
    <glyph glyph-name="quotesingle" unicode="'" horiz-adv-x="200" 
d="M180 700v-140l-20 -240h-120l-20 240v140h160z" />
    <glyph glyph-name="parenleft" unicode="(" horiz-adv-x="300" 
d="M160 -200q-130 217 -130 460q0 40 3 78.5t10 72.5t14 62.5t18 57t18.5 47.5t20 42t18 33t16.5 27.5t12 19.5h140q-17 -29 -25 -42.5t-29.5 -61t-33 -89t-22 -109t-10.5 -138.5q0 -260 120 -460h-140z" />
    <glyph glyph-name="parenright" unicode=")" horiz-adv-x="300" 
d="M140 -200h-140q120 200 120 460q0 87 -13 163t-37.5 135.5t-36.5 82.5t-33 59h140q1 -2 12 -19.5t16.5 -27.5t18 -33t20 -42t18.5 -47.5t18 -57t14 -62.5t10 -72.5t3 -78.5q0 -243 -130 -460z" />
    <glyph glyph-name="asterisk" unicode="*" horiz-adv-x="340" 
d="M228 629l52 30l40 -69l-52 -30l-36 -10l35 -11l53 -30l-40 -69l-52 30l-27 26l9 -36v-60h-80v60l9 36l-27 -26l-52 -30l-40 69l52 30l36 11l-36 10l-52 30l40 69l52 -30l27 -26l-9 37v60h80v-60l-9 -37z" />
    <glyph glyph-name="plus" unicode="+" horiz-adv-x="580" 
d="M550 320v-130h-190v-190h-140v190h-190v130h190v180h140v-180h190z" />
    <glyph glyph-name="comma" unicode="," horiz-adv-x="240" 
d="M110 180q58 0 84 -35.5t26 -114.5q0 -116 -45 -168t-145 -52v80q42 0 61 24t19 76q-47 0 -68.5 22.5t-21.5 72.5t21.5 72.5t68.5 22.5z" />
    <glyph glyph-name="hyphen" unicode="-" horiz-adv-x="390" 
d="M360 200h-330v130h330v-130z" />
    <glyph glyph-name="period" unicode="." horiz-adv-x="240" 
d="M120 180q52 0 76 -22.5t24 -72.5t-24 -72.5t-76 -22.5q-53 0 -76.5 22.5t-23.5 72.5t24 72.5t76 22.5z" />
    <glyph glyph-name="slash" unicode="/" horiz-adv-x="400" 
d="M240 700h160l-240 -700h-160z" />
    <glyph glyph-name="zero" unicode="0" horiz-adv-x="720" 
d="M360 720q173 0 251.5 -88t78.5 -282t-78.5 -282t-251.5 -88t-251.5 88t-78.5 282q0 195 78.5 282.5t251.5 87.5zM360 110q74 0 107 57t33 183t-33 183t-107 57t-107 -57t-33 -183t33 -183t107 -57z" />
    <glyph glyph-name="one" unicode="1" horiz-adv-x="370" 
d="M10 570v130h300v-700h-180v570h-120z" />
    <glyph glyph-name="two" unicode="2" horiz-adv-x="590" 
d="M280 130h270v-130h-520v110q51 46 115.5 99.5t100 83t70.5 65t49.5 66.5t14.5 66q0 52 -19 76t-61 24t-61 -28.5t-19 -91.5h-180q0 131 62 190.5t198 59.5t198 -54.5t62 -175.5q0 -24 -5.5 -47t-12 -41t-24.5 -41.5t-29.5 -38t-41.5 -43t-46.5 -43t-58 -51t-62.5 -55.5z
" />
    <glyph glyph-name="three" unicode="3" horiz-adv-x="640" 
d="M310 300h-50v120h50q58 0 84 19t26 61q0 47 -24 68.5t-76 21.5t-76 -26t-24 -84h-160q0 126 62 183t198 57t198 -50t62 -160q0 -36 -10.5 -64t-25 -41.5t-29 -22t-25.5 -10.5l-10 -2q5 -1 14 -3t31.5 -13t39.5 -27t31 -47t14 -70q0 -121 -69 -175.5t-221 -54.5t-221 59.5
t-69 190.5h170q0 -63 28.5 -91.5t91.5 -28.5q58 0 84 24t26 76q0 47 -28.5 68.5t-91.5 21.5z" />
    <glyph glyph-name="four" unicode="4" horiz-adv-x="630" 
d="M340 700h200v-410h70v-130h-70v-160h-180v160h-340v150zM177 290h183v226z" />
    <glyph glyph-name="five" unicode="5" horiz-adv-x="620" 
d="M250 570l-19 -108q45 18 109 18q131 0 190.5 -59.5t59.5 -190.5t-71 -190.5t-229 -59.5q-128 0 -190 52t-70 168h160q8 -47 34 -68.5t76 -21.5q58 0 84 28.5t26 91.5t-26 91.5t-84 28.5q-45 0 -68.5 -14t-31.5 -46h-150l70 410h420v-130h-290z" />
    <glyph glyph-name="six" unicode="6" horiz-adv-x="630" 
d="M30 340q0 200 69 290t221 90q116 0 177.5 -47.5t82.5 -152.5h-170q-10 42 -31.5 61t-58.5 19q-58 0 -84 -43t-26 -137q1 2 3 6.5t13 14.5t26.5 18t46 14.5t69.5 6.5q117 0 174.5 -60t57.5 -187q0 -133 -66.5 -193t-213.5 -60q-152 0 -221 85.5t-69 274.5zM320 350
q-52 0 -76 -28.5t-24 -91.5t24 -91.5t76 -28.5t76 28.5t24 91.5t-24 91.5t-76 28.5z" />
    <glyph glyph-name="seven" unicode="7" horiz-adv-x="570" 
d="M540 700v-110l-300 -590h-190l300 570h-320v130h510z" />
    <glyph glyph-name="eight" unicode="8" horiz-adv-x="660" 
d="M600 510q0 -99 -70 -141q100 -45 100 -169q0 -116 -71.5 -168t-228.5 -52q-158 0 -229 52t-71 168q0 124 100 169q-70 42 -70 141q0 110 64 160t206 50t206 -50t64 -160zM330 110q63 0 91.5 23t28.5 72q0 51 -28.5 73t-91.5 22t-91.5 -22t-28.5 -73q0 -49 28.5 -72
t91.5 -23zM330 590q-52 0 -76 -20.5t-24 -64.5q0 -45 23.5 -65t76.5 -20t76.5 20t23.5 65q0 44 -24 64.5t-76 20.5z" />
    <glyph glyph-name="nine" unicode="9" horiz-adv-x="630" 
d="M600 360q0 -200 -69 -290t-221 -90q-115 0 -177 47.5t-83 152.5h170q10 -42 31.5 -61t58.5 -19q58 0 84 43t26 137q-1 -2 -3 -6.5t-13 -14.5t-26.5 -18t-46 -14.5t-69.5 -6.5q-117 0 -174.5 60t-57.5 190q0 131 66.5 190.5t213.5 59.5q152 0 221 -85.5t69 -274.5z
M310 350q52 0 76 28.5t24 91.5t-24 91.5t-76 28.5t-76 -28.5t-24 -91.5t24 -91.5t76 -28.5z" />
    <glyph glyph-name="colon" unicode=":" horiz-adv-x="300" 
d="M150 181q52 0 76 -22.5t24 -72.5t-24 -72.5t-76 -22.5q-53 0 -76.5 22.5t-23.5 72.5t24 72.5t76 22.5zM150 500q52 0 76 -22.5t24 -72.5t-24 -72.5t-76 -22.5q-53 0 -76.5 22.5t-23.5 72.5t24 72.5t76 22.5z" />
    <glyph glyph-name="semicolon" unicode=";" horiz-adv-x="240" 
d="M120 500q52 0 76 -22.5t24 -72.5t-24 -72.5t-76 -22.5q-53 0 -76.5 22.5t-23.5 72.5t24 72.5t76 22.5zM110 180q58 0 84 -35.5t26 -114.5q0 -116 -45 -168t-145 -52v80q42 0 61 24t19 76q-47 0 -68.5 22.5t-21.5 72.5t21.5 72.5t68.5 22.5z" />
    <glyph glyph-name="less" unicode="&#x3c;" horiz-adv-x="440" 
d="M20 340l400 160v-160l-225 -90l225 -90v-160l-400 160v180z" />
    <glyph glyph-name="equal" unicode="=" horiz-adv-x="640" 
d="M620 230v-130h-600v130h600zM620 430v-130h-600v130h600z" />
    <glyph glyph-name="greater" unicode="&#x3e;" horiz-adv-x="440" 
d="M420 340v-180l-400 -160v160l225 90l-225 90v160z" />
    <glyph glyph-name="question" unicode="?" horiz-adv-x="560" 
d="M265 180q53 0 76.5 -22.5t23.5 -72.5t-24 -72.5t-76 -22.5q-53 0 -76.5 22.5t-23.5 72.5t23.5 72.5t76.5 22.5zM190 260q0 58 16.5 97t40 57.5t47 32.5t40 33.5t16.5 49.5q0 32 -19 46t-61 14t-61 -24t-19 -76h-170q0 121 62 175.5t198 54.5t198 -45t62 -145
q0 -50 -20.5 -83t-50 -50t-59 -32.5t-50 -41t-20.5 -63.5h-150z" />
    <glyph glyph-name="at" unicode="@" horiz-adv-x="910" 
d="M536 419l24 41h100v-270q0 -70 40 -70q26 0 38 31t12 99q0 158 -69 229t-221 71q-158 0 -229 -71t-71 -229q0 -152 59.5 -221t190.5 -69q45 0 83.5 11t54 21t22.5 18v-120q-11 -12 -56 -26t-104 -14q-200 0 -290 94.5t-90 305.5q0 215 102 312.5t328 97.5
q220 0 320 -97.5t100 -312.5q0 -119 -44.5 -174.5t-135.5 -55.5q-113 0 -154 61q-45 -41 -137 -41q-99 0 -144 50t-45 160q0 116 45 168t145 52q73 0 126 -51zM440 140q42 0 61 26t19 84t-19 84t-61 26t-61 -26t-19 -84t19 -84t61 -26z" />
    <glyph glyph-name="A" unicode="A" horiz-adv-x="700" 
d="M700 0h-211l-34 130h-219l-36 -130h-200l220 700h280zM349 533l-77 -273h149z" />
    <glyph glyph-name="B" unicode="B" horiz-adv-x="690" 
d="M550 370q4 -2 11.5 -5t26.5 -16.5t33.5 -30t26.5 -45.5t12 -63q0 -110 -67 -160t-213 -50h-320v700h310q136 0 198 -45t62 -145q0 -31 -8 -56.5t-20 -40.5t-24 -25t-20 -14zM350 130q52 0 76 19t24 61q0 47 -24 68.5t-76 21.5h-90v-170h90zM260 570v-150h80q42 0 61 19
t19 61q0 37 -19 53.5t-61 16.5h-80z" />
    <glyph glyph-name="C" unicode="C" horiz-adv-x="770" 
d="M540 240h200q-29 -137 -110 -198.5t-230 -61.5q-194 0 -282 88t-88 282t88 282t282 88q159 0 240 -62t100 -198h-200q-11 58 -44.5 84t-95.5 26q-84 0 -122 -52t-38 -168q0 -115 38 -167.5t122 -52.5q62 0 95.5 26t44.5 84z" />
    <glyph glyph-name="D" unicode="D" horiz-adv-x="740" 
d="M710 350q0 -184 -85.5 -267t-274.5 -83h-290v700h290q189 0 274.5 -83t85.5 -267zM340 560h-80v-420h80q84 0 122 50t38 160t-38 160t-122 50z" />
    <glyph glyph-name="E" unicode="E" 
d="M580 560h-320v-130h280v-140h-280v-150h320v-140h-520v700h520v-140z" />
    <glyph glyph-name="F" unicode="F" horiz-adv-x="590" 
d="M580 560h-320v-130h280v-140h-280v-290h-200v700h520v-140z" />
    <glyph glyph-name="G" unicode="G" horiz-adv-x="780" 
d="M400 280v130h350v-60q0 -194 -83 -282t-267 -88q-194 0 -282 88t-88 282t88 282t282 88q153 0 233.5 -57t106.5 -183h-190q-12 47 -47.5 68.5t-102.5 21.5q-84 0 -122 -52t-38 -168q0 -115 38 -167.5t122 -52.5t122 35.5t38 114.5h-160z" />
    <glyph glyph-name="H" unicode="H" horiz-adv-x="740" 
d="M480 700h200v-700h-200v300h-220v-300h-200v700h200v-250h220v250z" />
    <glyph glyph-name="I" unicode="I" horiz-adv-x="320" 
d="M60 700h200v-700h-200v700z" />
    <glyph glyph-name="J" unicode="J" horiz-adv-x="570" 
d="M0 210v40h190v-40q0 -42 14 -61t46 -19t46 19t14 61v490h200v-490q0 -117 -62.5 -173.5t-197.5 -56.5q-130 0 -190 56.5t-60 173.5z" />
    <glyph glyph-name="K" unicode="K" horiz-adv-x="730" 
d="M260 700v-255l210 255h240l-280 -340l300 -360h-240l-230 276v-276h-200v700h200z" />
    <glyph glyph-name="L" unicode="L" horiz-adv-x="570" 
d="M540 150v-150h-480v700h200v-550h280z" />
    <glyph glyph-name="M" unicode="M" horiz-adv-x="920" 
d="M250 457v-457h-190v700h270l135 -430l135 430h260v-700h-190v457l-150 -457h-120z" />
    <glyph glyph-name="N" unicode="N" horiz-adv-x="760" 
d="M510 700h190v-700h-230l-220 450v-450h-190v700h230l220 -450v450z" />
    <glyph glyph-name="O" unicode="O" horiz-adv-x="800" 
d="M400 720q194 0 282 -88t88 -282t-88 -282t-282 -88t-282 88t-88 282t88 282t282 88zM400 130q84 0 122 52.5t38 167.5q0 116 -38 168t-122 52t-122 -52t-38 -168q0 -115 38 -167.5t122 -52.5z" />
    <glyph glyph-name="P" unicode="P" horiz-adv-x="680" 
d="M660 470q0 -99 -69.5 -164.5t-210.5 -65.5h-120v-240h-200v700h320q141 0 210.5 -65.5t69.5 -164.5zM460 470q0 39 -23.5 64.5t-66.5 25.5h-110v-180h110q43 0 66.5 25.5t23.5 64.5z" />
    <glyph glyph-name="Q" unicode="Q" horiz-adv-x="800" 
d="M30 350q0 194 88 282t282 88t282 -88t88 -282q0 -209 -102 -296l102 -124h-180l-52 64q-56 -14 -138 -14q-194 0 -282 88t-88 282zM400 570q-84 0 -122 -52t-38 -168q0 -115 38 -167.5t122 -52.5t122 52.5t38 167.5q0 116 -38 168t-122 52z" />
    <glyph glyph-name="R" unicode="R" horiz-adv-x="720" 
d="M342 250h-82v-250h-200v700h330q141 0 210.5 -65.5t69.5 -164.5q0 -152 -138 -200l158 -270h-210zM260 380h120q43 0 66.5 25.5t23.5 64.5t-23.5 64.5t-66.5 25.5h-120v-180z" />
    <glyph glyph-name="S" unicode="S" horiz-adv-x="660" 
d="M230 520q0 -25 29.5 -42.5t74 -26.5t96.5 -26t96.5 -39t74 -67.5t29.5 -108.5q0 -121 -71 -175.5t-229 -54.5t-229 52t-71 168h180q0 -47 28.5 -68.5t91.5 -21.5q58 0 84 16.5t26 53.5q0 38 -41 61t-100 37.5t-118 34t-100 64t-41 113.5q0 121 69 175.5t221 54.5t221 -52
t69 -168h-180q0 47 -26 68.5t-84 21.5q-52 0 -76 -16.5t-24 -53.5z" />
    <glyph glyph-name="T" unicode="T" horiz-adv-x="640" 
d="M620 700v-150h-200v-550h-200v550h-200v150h600z" />
    <glyph glyph-name="U" unicode="U" horiz-adv-x="740" 
d="M60 260v440h200v-440q0 -68 26 -99t84 -31t84 31t26 99v440h200v-440q0 -147 -73.5 -213.5t-236.5 -66.5t-236.5 66.5t-73.5 213.5z" />
    <glyph glyph-name="V" unicode="V" horiz-adv-x="690" 
d="M200 0l-200 700h200l145 -562l145 562h200l-200 -700h-290z" />
    <glyph glyph-name="W" unicode="W" horiz-adv-x="1020" 
d="M391 700h238l83 -495l98 495h200l-160 -700h-260l-87 487l-73 -487h-260l-160 700h200l98 -495z" />
    <glyph glyph-name="X" unicode="X" horiz-adv-x="700" 
d="M230 700l122 -218l128 218h210l-210 -340l220 -360h-220l-132 237l-138 -237h-210l210 360l-200 340h220z" />
    <glyph glyph-name="Y" unicode="Y" horiz-adv-x="680" 
d="M440 260v-260h-190v260l-250 440h220l125 -250l125 250h210z" />
    <glyph glyph-name="Z" unicode="Z" horiz-adv-x="640" 
d="M260 140h350v-140h-580v120l340 440h-330v140h560v-120z" />
    <glyph glyph-name="bracketleft" unicode="[" horiz-adv-x="320" 
d="M320 700v-130h-110v-640h110v-130h-260v900h260z" />
    <glyph glyph-name="backslash" unicode="\" horiz-adv-x="400" 
d="M160 700l240 -700h-160l-240 700h160z" />
    <glyph glyph-name="bracketright" unicode="]" horiz-adv-x="320" 
d="M0 700h260v-900h-260v130h110v640h-110v130z" />
    <glyph glyph-name="asciicircum" unicode="^" horiz-adv-x="500" 
d="M340 670l140 -350h-140l-90 225l-90 -225h-140l140 350h180z" />
    <glyph glyph-name="underscore" unicode="_" horiz-adv-x="520" 
d="M520 0v-130h-520v130h520z" />
    <glyph glyph-name="grave" unicode="`" horiz-adv-x="310" 
d="M200 700l90 -150h-140l-130 150h180z" />
    <glyph glyph-name="a" unicode="a" horiz-adv-x="560" 
d="M20 150q0 89 59.5 129.5t190.5 40.5h70v20q0 37 -15.5 53.5t-49.5 16.5t-49.5 -14t-15.5 -46h-170q0 84 57 122t183 38t183 -45t57 -145v-320h-140l-21 36q-47 -46 -149 -46q-100 0 -145 38t-45 122zM340 220h-50q-48 0 -69 -13t-21 -47q0 -28 14 -39t46 -11
q42 0 61 21.5t19 68.5v20z" />
    <glyph glyph-name="b" unicode="b" horiz-adv-x="609" 
d="M369 -10l1 -1q-108 0 -157 49l-23 -38h-140v700h180v-227q50 37 139 37q115 0 167.5 -62t52.5 -198t-52.5 -198t-167.5 -62zM321 118q47 0 68.5 31t21.5 99t-21.5 99t-68.5 31t-68.5 -31t-21.5 -99t21.5 -99t68.5 -31z" />
    <glyph glyph-name="c" unicode="c" horiz-adv-x="580" 
d="M380 190h180q-10 -105 -72 -152.5t-188 -47.5q-147 0 -213.5 62t-66.5 198t66.5 198t213.5 62q126 0 188 -47.5t72 -152.5h-180q-11 70 -80 70q-52 0 -76 -31t-24 -99t24 -99t76 -31q35 0 54 16.5t26 53.5z" />
    <glyph glyph-name="d" unicode="d" horiz-adv-x="609" 
d="M244 -10l1 1q-115 0 -167.5 61.5t-52.5 198.5t52.5 198.5t167.5 61.5q89 0 139 -37v227h180v-700h-140l-23 38q-49 -49 -157 -49zM294 120q47 0 68.5 31t21.5 99t-21.5 99t-68.5 31t-68.5 -31t-21.5 -99t21.5 -99t68.5 -31z" />
    <glyph glyph-name="e" unicode="e" horiz-adv-x="580" 
d="M200 200q0 -52 21.5 -76t68.5 -24q67 0 80 60h170q-16 -89 -75 -129.5t-175 -40.5q-142 0 -206 61.5t-64 198.5q0 136 64 198t206 62t206 -62t64 -198v-50h-360zM290 400q-47 0 -68.5 -24t-21.5 -76h180q0 52 -21.5 76t-68.5 24z" />
    <glyph glyph-name="f" unicode="f" horiz-adv-x="420" 
d="M300 570q-30 0 -30 -30v-40h140v-110h-140v-390h-180v390h-80v110h80v40q0 75 42.5 117.5t117.5 42.5h160v-130h-110z" />
    <glyph glyph-name="g" unicode="g" horiz-adv-x="609" 
d="M239 510v1q104 0 157 -49l23 38h140v-449q0 -137 -64 -199t-206 -62q-118 0 -177.5 40.5t-72.5 129.5h170q11 -60 70 -60q52 0 76 29t24 91v7q-50 -37 -139 -37q-116 0 -168 62t-52 198q0 137 52 198.5t167 61.5zM289 381q-47 0 -68.5 -30.5t-21.5 -98.5t21.5 -99.5
t68.5 -31.5t68.5 31.5t21.5 99.5t-21.5 98.5t-68.5 30.5z" />
    <glyph glyph-name="h" unicode="h" horiz-adv-x="590" 
d="M50 0v700h180v-218q44 28 120 28q105 0 152.5 -57t47.5 -183v-270h-180v270q0 58 -16.5 84t-53.5 26t-53.5 -26t-16.5 -84v-270h-180z" />
    <glyph glyph-name="i" unicode="i" horiz-adv-x="300" 
d="M240 0h-180v500h180v-500zM150 730q52 0 76 -21.5t24 -68.5t-24 -68.5t-76 -21.5t-76 21.5t-24 68.5t24 68.5t76 21.5z" />
    <glyph glyph-name="j" unicode="j" horiz-adv-x="290" 
d="M10 -50q22 0 36 14t14 36v500h180v-520q0 -75 -42.5 -117.5t-117.5 -42.5h-160v130h90zM150 730q52 0 76 -21.5t24 -68.5t-24 -68.5t-76 -21.5t-76 21.5t-24 68.5t24 68.5t76 21.5z" />
    <glyph glyph-name="k" unicode="k" horiz-adv-x="610" 
d="M230 201v-201h-180v700h180v-380l150 180h210l-200 -240l220 -260h-210z" />
    <glyph glyph-name="l" unicode="l" horiz-adv-x="280" 
d="M230 700v-700h-180v700h180z" />
    <glyph glyph-name="m" unicode="m" horiz-adv-x="870" 
d="M230 270v-270h-180v500h140l28 -50q41 60 132 60q99 0 141 -63q45 63 149 63q100 0 145 -57t45 -183v-270h-180v270q0 58 -14.5 84t-45.5 26q-32 0 -46 -26t-14 -84v-270h-180v270q0 58 -14 84t-46 26t-46 -26t-14 -84z" />
    <glyph glyph-name="n" unicode="n" horiz-adv-x="590" 
d="M190 500l20 -34q47 44 140 44q105 0 152.5 -57t47.5 -183v-270h-180v270q0 58 -16.5 84t-53.5 26t-53.5 -26t-16.5 -84v-270h-180v500h140z" />
    <glyph glyph-name="o" unicode="o" 
d="M300 510q147 0 213.5 -62t66.5 -198t-66.5 -198t-213.5 -62t-213.5 62t-66.5 198t66.5 198t213.5 62zM200 250q0 -68 24 -99t76 -31t76 31t24 99t-24 99t-76 31t-76 -31t-24 -99z" />
    <glyph glyph-name="p" unicode="p" horiz-adv-x="609" 
d="M369 510l-1 -1q116 0 168 -61.5t52 -198.5t-52 -198.5t-168 -61.5q-89 0 -139 37v-227h-180v700h140l23 -38q49 49 157 49zM319 380q-47 0 -68.5 -31t-21.5 -99t21.5 -99t68.5 -31t68.5 31t21.5 99t-21.5 99t-68.5 31z" />
    <glyph glyph-name="q" unicode="q" horiz-adv-x="609" 
d="M244 510l-1 1q108 0 157 -49l23 38h140v-700h-180v227q-50 -37 -139 -37q-116 0 -168 62t-52 198t52 198t168 62zM292 382q-47 0 -68.5 -31t-21.5 -99t21.5 -99t68.5 -31t68.5 31t21.5 99t-21.5 99t-68.5 31z" />
    <glyph glyph-name="r" unicode="r" horiz-adv-x="419" 
d="M329 360h-1q-52 0 -75.5 -26t-23.5 -84v-250h-180v500h140l24 -43q47 53 116 53h80v-150h-80z" />
    <glyph glyph-name="s" unicode="s" horiz-adv-x="510" 
d="M190 369q0 -16 16.5 -26t43 -15.5t58.5 -11t64 -15.5t58.5 -25.5t43 -45t16.5 -70.5q0 -89 -58.5 -129.5t-187.5 -40.5q-118 0 -171 38t-53 122h170q0 -32 14 -46t46 -14t46 12t14 38q0 21 -21.5 33t-53.5 16.5t-70 14t-70 23t-53.5 45t-21.5 78.5q0 84 54.5 122
t175.5 38q116 0 168 -35.5t52 -114.5h-160q0 26 -14 38t-46 12q-60 0 -60 -41z" />
    <glyph glyph-name="t" unicode="t" horiz-adv-x="450" 
d="M280 180q0 -22 14 -36t36 -14h90v-130h-160q-75 0 -117.5 42.5t-42.5 117.5v230h-80v110h80v130h180v-130h140v-110h-140v-210z" />
    <glyph glyph-name="u" unicode="u" horiz-adv-x="590" 
d="M400 0l-20 34q-47 -44 -140 -44q-105 0 -152.5 57t-47.5 183v270h180v-270q0 -58 16.5 -84t53.5 -26t53.5 26t16.5 84v270h180v-500h-140z" />
    <glyph glyph-name="v" unicode="v" horiz-adv-x="550" 
d="M410 0h-270l-140 500h190l89 -372l81 372h190z" />
    <glyph glyph-name="w" unicode="w" horiz-adv-x="870" 
d="M370 0h-220l-140 500h180l78 -350l62 350h220l54 -344l76 344h180l-140 -500h-220l-65 366z" />
    <glyph glyph-name="x" unicode="x" horiz-adv-x="540" 
d="M270 149l-80 -149h-190l160 260l-150 240h190l70 -129l70 129h190l-150 -240l160 -260h-190z" />
    <glyph glyph-name="y" unicode="y" horiz-adv-x="540" 
d="M281 222l89 278h170l-170 -490q-41 -119 -76 -154.5t-104 -35.5h-120v110h70q14 0 21 1.5t16.5 7.5t17 21t15.5 40l4 13l-214 487h170z" />
    <glyph glyph-name="z" unicode="z" horiz-adv-x="500" 
d="M230 120h250v-120h-460v100l240 280h-230v120h440v-100z" />
    <glyph glyph-name="braceleft" unicode="{" horiz-adv-x="390" 
d="M250 -20q0 -26 12 -38t38 -12h90v-130h-130q-84 0 -122 38t-38 122v180q0 32 -16.5 46t-53.5 14v110q37 0 53.5 14t16.5 46v170q0 84 38 122t122 38h130v-130h-90q-26 0 -38 -12t-12 -38v-150q0 -88 -52 -115q52 -27 52 -115v-160z" />
    <glyph glyph-name="bar" unicode="|" horiz-adv-x="270" 
d="M60 700h150v-900h-150v900z" />
    <glyph glyph-name="braceright" unicode="}" horiz-adv-x="390" 
d="M140 -20v160q0 88 52 115q-52 27 -52 115v150q0 26 -12 38t-38 12h-90v130h130q84 0 122 -38t38 -122v-170q0 -32 16.5 -46t53.5 -14v-110q-37 0 -53.5 -14t-16.5 -46v-180q0 -84 -38 -122t-122 -38h-130v130h90q26 0 38 12t12 38z" />
    <glyph glyph-name="asciitilde" unicode="~" horiz-adv-x="660" 
d="M30 200v120q41 41 86.5 53.5t88.5 2.5t88 -29t89 -39t85 -31.5t84 -2t79 45.5v-120q-41 -41 -86.5 -53.5t-88.5 -2.5t-88 29t-89 39t-85 31.5t-84 2t-79 -45.5z" />
    <glyph glyph-name="space_" unicode="&#xa0;" horiz-adv-x="300" 
 />
    <glyph glyph-name="exclamdown" unicode="&#xa1;" horiz-adv-x="300" 
d="M250 -200h-190v190l40 250h110l40 -250v-190zM150 320q-53 0 -76.5 22.5t-23.5 72.5t23.5 72.5t76.5 22.5q52 0 76 -22.5t24 -72.5t-23.5 -72.5t-76.5 -22.5z" />
    <glyph glyph-name="cent" unicode="&#xa2;" horiz-adv-x="580" 
d="M380 190v-2h180q-9 -89 -54.5 -136.5t-135.5 -59.5v-94h-140v94q-109 13 -159.5 75t-50.5 182t50.5 182t159.5 75v84h140v-84q90 -12 135.5 -59.5t54.5 -136.5h-180q-11 70 -80 70q-52 0 -76 -31t-24 -99t24 -99t76 -31q35 0 54 16.5t26 53.5z" />
    <glyph glyph-name="sterling" unicode="&#xa3;" horiz-adv-x="661" 
d="M510 290h-220q-1 -58 -25 -94t-74 -56h440v-140h-600v160q76 30 79 130h-80v130h80v80q-1 115 58.5 167.5t191.5 52.5q126 0 183 -52t57 -168h-170q0 52 -16.5 76t-53.5 24t-53.5 -24t-16.5 -76v-80h220v-130z" />
    <glyph glyph-name="currency" unicode="&#xa4;" horiz-adv-x="640" 
d="M320 510q77 0 132 -18l68 67l89 -90l-51 -51q41 -60 41 -169t-41 -169l51 -52l-90 -89l-67 67q-54 -16 -133 -16q-76 0 -133 17l-67 -67l-90 89l52 52q-41 60 -41 169t41 169l-51 51l90 90l67 -67q57 17 133 17zM218 250q0 -68 24 -99t76 -31t76 31t24 99t-24 99t-76 31
t-76 -31t-24 -99z" />
    <glyph glyph-name="yen" unicode="&#xa5;" horiz-adv-x="700" 
d="M650 100h-200v-100h-190v100h-210v120h210v40l-23 40h-187v120h119l-159 280h220l125 -250l125 250h210l-153 -280h113v-120h-178l-22 -40v-40h200v-120z" />
    <glyph glyph-name="section" unicode="&#xa7;" horiz-adv-x="640" 
d="M250 530q0 -22 20 -36.5t51.5 -23.5t70 -17.5t77 -22.5t70 -34.5t51.5 -57.5t20 -88q0 -110 -77 -154q27 -40 27 -96q0 -116 -61.5 -168t-198.5 -52q-121 0 -175.5 52t-54.5 168h150q0 -47 19 -68.5t61 -21.5t61 14t19 46q0 30 -26 48.5t-65 26t-84 20.5t-84 29.5
t-65 56.5t-26 99q0 111 85 152q-35 43 -35 108q0 110 57 160t183 50q121 0 175.5 -52t54.5 -168h-150q0 47 -19 68.5t-61 21.5q-37 0 -53.5 -14t-16.5 -46zM440 230q0 17 -10 29.5t-32 21.5t-42.5 15t-55 15t-55.5 16q-45 -12 -45 -56q0 -18 12 -30.5t35 -21t47 -14.5
t59 -14t59 -16q28 16 28 55z" />
    <glyph glyph-name="dieresis" unicode="&#xa8;" horiz-adv-x="480" 
d="M120 750q52 0 76 -22.5t24 -72.5t-24 -72.5t-76 -22.5q-53 0 -76.5 22.5t-23.5 72.5t24 72.5t76 22.5zM360 750q52 0 76 -22.5t24 -72.5t-24 -72.5t-76 -22.5q-53 0 -76.5 22.5t-23.5 72.5t24 72.5t76 22.5z" />
    <glyph glyph-name="copyright" unicode="&#xa9;" horiz-adv-x="840" 
d="M420 720q205 0 297.5 -88t92.5 -282t-92.5 -282t-297.5 -88t-297.5 88t-92.5 282t92.5 282t297.5 88zM420 90q142 0 206 62t64 198t-64 198t-206 62t-206 -62t-64 -198t64 -198t206 -62zM490 310h140q-10 -84 -60 -122t-150 -38q-110 0 -160 47.5t-50 152.5t50 152.5
t160 47.5q100 0 149.5 -38t59.5 -122h-139q-8 32 -24.5 46t-45.5 14q-37 0 -53.5 -24t-16.5 -76t16.5 -76t53.5 -24q54 0 70 60z" />
    <glyph glyph-name="guillemotleft" unicode="&#xab;" horiz-adv-x="570" 
d="M150 450h170l-120 -190l120 -200h-170l-130 200zM380 450h170l-120 -190l120 -200h-170l-130 200z" />
    <glyph glyph-name="logicalnot" unicode="&#xac;" horiz-adv-x="590" 
d="M550 330v-260h-140v130h-380v130h520z" />
    <glyph glyph-name="registered" unicode="&#xae;" horiz-adv-x="840" 
d="M420 720q205 0 297.5 -88t92.5 -282t-92.5 -282t-297.5 -88t-297.5 88t-92.5 282t92.5 282t297.5 88zM420 90q142 0 206 62t64 198t-64 198t-206 62t-206 -62t-64 -198t64 -198t206 -62zM523 300l87 -130h-120l-72 120h-48v-120h-109l-1 360h180q84 0 122 -28.5t38 -91.5
q0 -87 -77 -110zM370 450v-80h70q50 0 50 40t-50 40h-70z" />
    <glyph glyph-name="macron" unicode="&#xaf;" horiz-adv-x="400" 
d="M30 600v100h340v-100h-340z" />
    <glyph glyph-name="degree" unicode="&#xb0;" horiz-adv-x="420" 
d="M20 520q0 100 45 145t145 45t145 -45t45 -145t-45 -145t-145 -45t-145 45t-45 145zM130 520q0 -47 19 -68.5t61 -21.5t61 21.5t19 68.5t-19 68.5t-61 21.5t-61 -21.5t-19 -68.5z" />
    <glyph glyph-name="plusminus" unicode="&#xb1;" horiz-adv-x="580" 
d="M30 0v130h520v-130h-520zM550 410v-130h-190v-100h-140v100h-190v130h190v90h140v-90h190z" />
    <glyph glyph-name="acute" unicode="&#xb4;" horiz-adv-x="310" 
d="M20 550l90 150h180l-130 -150h-140z" />
    <glyph glyph-name="paragraph" unicode="&#xb6;" horiz-adv-x="760" 
d="M660 570v-770h-150v770h-120v-770h-150v500q-110 0 -160 47.5t-50 152.5t59.5 152.5t190.5 47.5h470v-130h-90z" />
    <glyph glyph-name="periodcentered" unicode="&#xb7;" horiz-adv-x="240" 
d="M120 350q52 0 76 -22.5t24 -72.5t-24 -72.5t-76 -22.5q-53 0 -76.5 22.5t-23.5 72.5t24 72.5t76 22.5z" />
    <glyph glyph-name="cedilla" unicode="&#xb8;" horiz-adv-x="250" 
d="M70 40h91l-21 -90l10 -2.5t21.5 -9t27.5 -16.5t21.5 -25.5t9.5 -36.5q0 -52 -56 -81t-154 -29v70q80 0 80 40q0 30 -70 30z" />
    <glyph glyph-name="guillemotright" unicode="&#xbb;" horiz-adv-x="570" 
d="M20 450h170l130 -190l-130 -200h-170l120 200zM250 450h170l130 -190l-130 -200h-170l120 200z" />
    <glyph glyph-name="questiondown" unicode="&#xbf;" horiz-adv-x="560" 
d="M370 240q0 -58 -16.5 -97t-40 -57.5t-47 -32.5t-40 -33.5t-16.5 -49.5q0 -32 19 -46t61 -14t61 24t19 76h170q0 -121 -62 -175.5t-198 -54.5t-198 45t-62 145q0 50 20.5 83t50 50t59 32.5t50 41t20.5 63.5h150zM295 320q-53 0 -76.5 22.5t-23.5 72.5t24 72.5t76 22.5
q53 0 76.5 -22.5t23.5 -72.5t-23.5 -72.5t-76.5 -22.5z" />
    <glyph glyph-name="Agrave" unicode="&#xc0;" horiz-adv-x="700" 
d="M490 0h-1l-34 130h-219l-36 -130h-200l220 700h280l200 -700h-210zM349 533l-77 -273h149zM439 750h-130l-130 120h160z" />
    <glyph glyph-name="Aacute" unicode="&#xc1;" horiz-adv-x="700" 
d="M490 0h-1l-34 130h-219l-36 -130h-200l220 700h280l200 -700h-210zM349 533l-77 -273h149zM279 750l90 120h170l-120 -120h-140z" />
    <glyph glyph-name="Acircumflex" unicode="&#xc2;" horiz-adv-x="700" 
d="M490 0h-1l-34 130h-219l-36 -130h-200l220 700h280l200 -700h-210zM349 533l-77 -273h149zM529 750h-120l-50 50l-50 -50h-120l80 120h180z" />
    <glyph glyph-name="Atilde" unicode="&#xc3;" horiz-adv-x="700" 
d="M490 0h-1l-34 130h-219l-36 -130h-200l220 700h280l200 -700h-210zM349 533l-77 -273h149zM190 760q0 51 31.5 80.5t78.5 29.5q51 0 88.5 -20t51.5 -20q8 0 14 6t6 14h70q0 -51 -31.5 -80.5t-78.5 -29.5q-51 0 -88.5 20t-51.5 20q-8 0 -14 -6t-6 -14h-70z" />
    <glyph glyph-name="Adieresis" unicode="&#xc4;" horiz-adv-x="700" 
d="M490 0h-1l-34 130h-219l-36 -130h-200l220 700h280l200 -700h-210zM349 533l-77 -273h149zM229 890q53 0 76.5 -19t23.5 -61t-23.5 -61t-76.5 -19t-76.5 19t-23.5 61t23.5 61t76.5 19zM489 890q53 0 76.5 -19t23.5 -61t-23.5 -61t-76.5 -19q-52 0 -76 19t-24 61t24 61
t76 19z" />
    <glyph glyph-name="Aring" unicode="&#xc5;" horiz-adv-x="700" 
d="M490 0h-1l-34 130h-219l-36 -130h-200l220 700h280l200 -700h-210zM349 533l-77 -273h149zM359 950q68 0 99 -26t31 -84t-31 -84t-99 -26t-99 26t-31 84t31 84t99 26zM359 800q40 0 40 40t-40 40t-40 -40t40 -40z" />
    <glyph glyph-name="AE" unicode="&#xc6;" horiz-adv-x="950" 
d="M930 560h-290v-130h250v-140h-250v-150h290v-140h-470v130h-200l-60 -130h-200l340 700h590v-140zM460 562l-140 -302h140v302z" />
    <glyph glyph-name="Ccedilla" unicode="&#xc7;" horiz-adv-x="770" 
d="M320 -110l24 90q-164 12 -239 100.5t-75 268.5q0 194 88 282t282 88q159 0 240 -61.5t100 -198.5h-200q-11 58 -44.5 84t-95.5 26q-84 0 -122 -52.5t-38 -167.5t38 -167.5t122 -52.5q62 0 95.5 26t44.5 84h200q-27 -128 -99.5 -189.5t-203.5 -68.5l-7 -31l10 -2.5
t21.5 -9t27.5 -16.5t21.5 -25.5t9.5 -36.5q0 -52 -56 -81t-154 -29v70q80 0 80 40q0 30 -70 30z" />
    <glyph glyph-name="Egrave" unicode="&#xc8;" 
d="M580 560h-320v-130h280v-140h-280v-150h320v-140h-520v700h520v-140zM300 870l100 -120h-130l-130 120h160z" />
    <glyph glyph-name="Eacute" unicode="&#xc9;" 
d="M580 560h-320v-130h280v-140h-280v-150h320v-140h-520v700h520v-140zM240 750l90 120h170l-120 -120h-140z" />
    <glyph glyph-name="Ecircumflex" unicode="&#xca;" 
d="M580 560h-320v-130h280v-140h-280v-150h320v-140h-520v700h520v-140zM490 750h-120l-50 50l-50 -50h-120l80 120h180z" />
    <glyph glyph-name="Edieresis" unicode="&#xcb;" 
d="M580 560h-320v-130h280v-140h-280v-150h320v-140h-520v700h520v-140zM190 890q52 0 76 -19t24 -61t-24 -61t-76 -19t-76 19t-24 61t24 61t76 19zM450 890q52 0 76 -19t24 -61t-24 -61t-76 -19t-76 19t-24 61t24 61t76 19z" />
    <glyph glyph-name="Igrave" unicode="&#xcc;" horiz-adv-x="330" 
d="M70 700h200v-700h-200v700zM150 870l100 -120h-130l-130 120h160z" />
    <glyph glyph-name="Iacute" unicode="&#xcd;" horiz-adv-x="320" 
d="M60 700h200v-700h-200v700zM80 750l90 120h170l-120 -120h-140z" />
    <glyph glyph-name="Icircumflex" unicode="&#xce;" horiz-adv-x="340" 
d="M70 700h200v-700h-200v700zM340 750h-120l-50 50l-50 -50h-120l80 120h180z" />
    <glyph glyph-name="Idieresis" unicode="&#xcf;" horiz-adv-x="340" 
d="M70 700h200v-700h-200v700zM40 890q52 0 76 -19t24 -61t-24 -61t-76 -19t-76 19t-24 61t24 61t76 19zM300 890q52 0 76 -19t24 -61t-24 -61t-76 -19t-76 19t-24 61t24 61t76 19z" />
    <glyph glyph-name="Ntilde" unicode="&#xd1;" horiz-adv-x="760" 
d="M510 700h190v-700h-230l-220 450v-450h-190v700h230l220 -450v450zM210 760q0 51 31.5 80.5t78.5 29.5q51 0 88.5 -20t51.5 -20q8 0 14 6t6 14h70q0 -51 -31.5 -80.5t-78.5 -29.5q-51 0 -88.5 20t-51.5 20q-8 0 -14 -6t-6 -14h-70z" />
    <glyph glyph-name="Ograve" unicode="&#xd2;" horiz-adv-x="800" 
d="M400 720q194 0 282 -88t88 -282t-88 -282t-282 -88t-282 88t-88 282t88 282t282 88zM400 130q84 0 122 52.5t38 167.5q0 116 -38 168t-122 52t-122 -52t-38 -168q0 -115 38 -167.5t122 -52.5zM381 870l100 -120h-130l-130 120h160z" />
    <glyph glyph-name="Oacute" unicode="&#xd3;" horiz-adv-x="800" 
d="M400 720q194 0 282 -88t88 -282t-88 -282t-282 -88t-282 88t-88 282t88 282t282 88zM400 130q84 0 122 52.5t38 167.5q0 116 -38 168t-122 52t-122 -52t-38 -168q0 -115 38 -167.5t122 -52.5zM320 750l90 120h170l-120 -120h-140z" />
    <glyph glyph-name="Ocircumflex" unicode="&#xd4;" horiz-adv-x="800" 
d="M400 720q194 0 282 -88t88 -282t-88 -282t-282 -88t-282 88t-88 282t88 282t282 88zM400 130q84 0 122 52.5t38 167.5q0 116 -38 168t-122 52t-122 -52t-38 -168q0 -115 38 -167.5t122 -52.5zM570 750h-120l-50 50l-50 -50h-120l80 120h180z" />
    <glyph glyph-name="Otilde" unicode="&#xd5;" horiz-adv-x="800" 
d="M400 720q194 0 282 -88t88 -282t-88 -282t-282 -88t-282 88t-88 282t88 282t282 88zM400 130q84 0 122 52.5t38 167.5q0 116 -38 168t-122 52t-122 -52t-38 -168q0 -115 38 -167.5t122 -52.5zM230 760q0 51 31.5 80.5t78.5 29.5q51 0 88.5 -20t51.5 -20q8 0 14 6t6 14h70
q0 -51 -31.5 -80.5t-78.5 -29.5q-51 0 -88.5 20t-51.5 20q-8 0 -14 -6t-6 -14h-70z" />
    <glyph glyph-name="Odieresis" unicode="&#xd6;" horiz-adv-x="800" 
d="M400 720q194 0 282 -88t88 -282t-88 -282t-282 -88t-282 88t-88 282t88 282t282 88zM400 130q84 0 122 52.5t38 167.5q0 116 -38 168t-122 52t-122 -52t-38 -168q0 -115 38 -167.5t122 -52.5zM270 890q52 0 76 -19t24 -61t-24 -61t-76 -19t-76 19t-24 61t24 61t76 19z
M530 890q52 0 76 -19t24 -61t-24 -61t-76 -19t-76 19t-24 61t24 61t76 19z" />
    <glyph glyph-name="multiply" unicode="&#xd7;" horiz-adv-x="560" 
d="M430 0l-150 150l-150 -150l-100 100l150 150l-150 150l100 100l150 -150l150 150l100 -100l-150 -150l150 -150z" />
    <glyph glyph-name="Oslash" unicode="&#xd8;" horiz-adv-x="800" 
d="M30 350q0 194 88 282t282 88q36 0 68 -3l22 63h120l-30 -86q98 -34 144 -118t46 -226q0 -194 -88 -282t-282 -88q-36 0 -68 3l-22 -63h-120l30 86q-98 34 -144 118t-46 226zM240 350q0 -115 38 -167.5t122 -52.5t122 52.5t38 167.5q0 116 -38 168t-122 52t-122 -52
t-38 -168z" />
    <glyph glyph-name="Ugrave" unicode="&#xd9;" horiz-adv-x="740" 
d="M60 260v440h200v-440q0 -68 26 -99t84 -31t84 31t26 99v440h200v-440q0 -147 -73.5 -213.5t-236.5 -66.5t-236.5 66.5t-73.5 213.5zM341 870l100 -120h-130l-130 120h160z" />
    <glyph glyph-name="Uacute" unicode="&#xda;" horiz-adv-x="740" 
d="M60 260v440h200v-440q0 -68 26 -99t84 -31t84 31t26 99v440h200v-440q0 -147 -73.5 -213.5t-236.5 -66.5t-236.5 66.5t-73.5 213.5zM290 750l90 120h170l-120 -120h-140z" />
    <glyph glyph-name="Ucircumflex" unicode="&#xdb;" horiz-adv-x="740" 
d="M60 260v440h200v-440q0 -68 26 -99t84 -31t84 31t26 99v440h200v-440q0 -147 -73.5 -213.5t-236.5 -66.5t-236.5 66.5t-73.5 213.5zM540 750h-120l-50 50l-50 -50h-120l80 120h180z" />
    <glyph glyph-name="Udieresis" unicode="&#xdc;" horiz-adv-x="740" 
d="M60 260v440h200v-440q0 -68 26 -99t84 -31t84 31t26 99v440h200v-440q0 -147 -73.5 -213.5t-236.5 -66.5t-236.5 66.5t-73.5 213.5zM240 890q52 0 76 -19t24 -61t-24 -61t-76 -19t-76 19t-24 61t24 61t76 19zM500 890q52 0 76 -19t24 -61t-24 -61t-76 -19t-76 19t-24 61
t24 61t76 19z" />
    <glyph glyph-name="Yacute" unicode="&#xdd;" horiz-adv-x="680" 
d="M440 260v-260h-190v260l-250 440h220l125 -250l125 250h210zM270 750l90 120h170l-120 -120h-140z" />
    <glyph glyph-name="germandbls" unicode="&#xdf;" horiz-adv-x="680" 
d="M340 720q146 0 213 -46t67 -144q0 -51 -21 -83.5t-69 -56.5q63 -26 91.5 -68.5t28.5 -111.5q0 -110 -52 -160t-168 -50q-27 0 -54.5 5t-41.5 10l-14 5v120q30 -10 60 -10q47 0 68.5 21.5t21.5 68.5q0 52 -31 76t-99 24v120q58 0 84 16.5t26 53.5q0 42 -24 61t-76 19
q-110 0 -110 -100v-490h-180v470q0 250 280 250z" />
    <glyph glyph-name="agrave" unicode="&#xe0;" horiz-adv-x="560" 
d="M20 150q0 89 59.5 129.5t190.5 40.5h70v20q0 37 -15.5 53.5t-49.5 16.5t-49.5 -14t-15.5 -46h-170q0 84 57 122t183 38t183 -45t57 -145v-320h-140l-21 36q-47 -46 -149 -46q-100 0 -145 38t-45 122zM340 220h-50q-48 0 -69 -13t-21 -47q0 -28 14 -39t46 -11
q42 0 61 21.5t19 68.5v20zM270 700l90 -150h-140l-130 150h180z" />
    <glyph glyph-name="aacute" unicode="&#xe1;" horiz-adv-x="560" 
d="M210 -10q-100 0 -145 38t-45 122q0 89 59.5 129.5t190.5 40.5h70v20q0 37 -15.5 53.5t-49.5 16.5t-49.5 -14t-15.5 -46h-170q0 84 57 122t183 38t183 -45t57 -145v-320h-140l-21 36q-47 -46 -149 -46zM340 220h-50q-48 0 -69 -13t-21 -47q0 -28 14 -39t46 -11
q42 0 61 21.5t19 68.5v20zM190 550l90 150h180l-130 -150h-140z" />
    <glyph glyph-name="acircumflex" unicode="&#xe2;" horiz-adv-x="560" 
d="M210 -10q-100 0 -145 38t-45 122q0 89 59.5 129.5t190.5 40.5h70v20q0 37 -15.5 53.5t-49.5 16.5t-49.5 -14t-15.5 -46h-170q0 84 57 122t183 38t183 -45t57 -145v-320h-140l-21 36q-47 -46 -149 -46zM340 220h-50q-48 0 -69 -13t-21 -47q0 -28 14 -39t46 -11
q42 0 61 21.5t19 68.5v20zM370 700l80 -150h-110l-60 70l-60 -70h-110l80 150h180z" />
    <glyph glyph-name="atilde" unicode="&#xe3;" horiz-adv-x="540" 
d="M210 -10q-100 0 -145 38t-45 122q0 89 59.5 129.5t190.5 40.5h70v20q0 37 -15.5 53.5t-49.5 16.5t-49.5 -14t-15.5 -46h-170q0 84 57 122t183 38t183 -45t57 -145v-320h-140l-21 36q-47 -46 -149 -46zM340 220h-50q-48 0 -69 -13t-21 -47q0 -28 14 -39t46 -11
q42 0 61 21.5t19 68.5v20zM190 580h-80q0 53 32.5 91.5t77.5 38.5q31 0 54 -11t33.5 -24t22 -24t20.5 -11q20 0 20 30h80q0 -53 -32.5 -91.5t-77.5 -38.5q-31 0 -54 11t-33.5 24t-22 24t-20.5 11q-20 0 -20 -30z" />
    <glyph glyph-name="adieresis" unicode="&#xe4;" horiz-adv-x="560" 
d="M210 -10q-100 0 -145 38t-45 122q0 89 59.5 129.5t190.5 40.5h70v20q0 37 -15.5 53.5t-49.5 16.5t-49.5 -14t-15.5 -46h-170q0 84 57 122t183 38t183 -45t57 -145v-320h-140l-21 36q-47 -46 -149 -46zM340 220h-50q-48 0 -69 -13t-21 -47q0 -28 14 -39t46 -11
q42 0 61 21.5t19 68.5v20zM160 750q52 0 76 -22.5t24 -72.5t-24 -72.5t-76 -22.5q-53 0 -76.5 22.5t-23.5 72.5t24 72.5t76 22.5zM400 750q52 0 76 -22.5t24 -72.5t-24 -72.5t-76 -22.5q-53 0 -76.5 22.5t-23.5 72.5t24 72.5t76 22.5z" />
    <glyph glyph-name="aring" unicode="&#xe5;" horiz-adv-x="560" 
d="M210 -10q-100 0 -145 38t-45 122q0 89 59.5 129.5t190.5 40.5h70v20q0 37 -15.5 53.5t-49.5 16.5t-49.5 -14t-15.5 -46h-170q0 84 57 122t183 38t183 -45t57 -145v-320h-140l-21 36q-47 -46 -149 -46zM340 220h-50q-48 0 -69 -13t-21 -47q0 -28 14 -39t46 -11
q42 0 61 21.5t19 68.5v20zM280 750q68 0 99 -26t31 -84t-31 -84t-99 -26t-99 26t-31 84t31 84t99 26zM280 600q40 0 40 40t-40 40t-40 -40t40 -40z" />
    <glyph glyph-name="ae" unicode="&#xe6;" horiz-adv-x="900" 
d="M880 201h-360q0 -53 21.5 -76.5t69.5 -23.5q66 0 80 60h170q-16 -89 -75.5 -129.5t-174.5 -40.5q-150 0 -196 107q-40 -107 -205 -107q-100 0 -145 38t-45 122q0 89 59.5 129.5t190.5 40.5h70v20q0 31 -16.5 45.5t-53.5 14.5q-32 0 -46 -12t-14 -38h-170q0 84 57 122
t183 38q120 0 166 -58q52 58 165 58q142 0 205.5 -61.5t63.5 -198.5v-50zM340 202v20h-49q-47 0 -68.5 -14t-21.5 -46q0 -26 14.5 -38t45.5 -12q42 -1 60.5 20.5t18.5 69.5zM612 402q-48 0 -69.5 -23.5t-21.5 -76.5h180q0 53 -21 76.5t-68 23.5z" />
    <glyph glyph-name="ccedilla" unicode="&#xe7;" horiz-adv-x="580" 
d="M246 -9v1q-118 10 -172 72.5t-54 185.5q0 136 66.5 198t213.5 62q126 0 188 -47.5t72 -152.5h-180q-11 70 -80 70q-52 0 -76 -31t-24 -99t24 -99t76 -31q35 0 54 16.5t26 53.5h180q-10 -96 -62.5 -143.5t-158.5 -54.5l-10 -41l10 -2.5t21.5 -9t27.5 -16.5t21.5 -25.5
t9.5 -36.5q0 -52 -56 -81t-154 -29v70q80 0 80 40q0 30 -70 30z" />
    <glyph glyph-name="egrave" unicode="&#xe8;" horiz-adv-x="580" 
d="M200 200q0 -52 21.5 -76t68.5 -24q67 0 80 60h170q-16 -89 -75 -129.5t-175 -40.5q-142 0 -206 61.5t-64 198.5q0 136 64 198t206 62t206 -62t64 -198v-50h-360zM290 400q-47 0 -68.5 -24t-21.5 -76h180q0 52 -21.5 76t-68.5 24zM280 700l90 -150h-140l-130 150h180z" />
    <glyph glyph-name="eacute" unicode="&#xe9;" horiz-adv-x="580" 
d="M200 200q0 -52 21.5 -76t68.5 -24q67 0 80 60h170q-16 -89 -75 -129.5t-175 -40.5q-142 0 -206 61.5t-64 198.5q0 136 64 198t206 62t206 -62t64 -198v-50h-360zM290 400q-47 0 -68.5 -24t-21.5 -76h180q0 52 -21.5 76t-68.5 24zM210 550l90 150h180l-130 -150h-140z" />
    <glyph glyph-name="ecircumflex" unicode="&#xea;" horiz-adv-x="580" 
d="M200 200q0 -52 21.5 -76t68.5 -24q67 0 80 60h170q-16 -89 -75 -129.5t-175 -40.5q-142 0 -206 61.5t-64 198.5q0 136 64 198t206 62t206 -62t64 -198v-50h-360zM290 400q-47 0 -68.5 -24t-21.5 -76h180q0 52 -21.5 76t-68.5 24zM380 700l80 -150h-110l-60 70l-60 -70
h-110l80 150h180z" />
    <glyph glyph-name="edieresis" unicode="&#xeb;" horiz-adv-x="580" 
d="M200 200q0 -52 21.5 -76t68.5 -24q67 0 80 60h170q-16 -89 -75 -129.5t-175 -40.5q-142 0 -206 61.5t-64 198.5q0 136 64 198t206 62t206 -62t64 -198v-50h-360zM290 400q-47 0 -68.5 -24t-21.5 -76h180q0 52 -21.5 76t-68.5 24zM170 750q52 0 76 -22.5t24 -72.5
t-24 -72.5t-76 -22.5q-53 0 -76.5 22.5t-23.5 72.5t24 72.5t76 22.5zM410 750q52 0 76 -22.5t24 -72.5t-24 -72.5t-76 -22.5q-53 0 -76.5 22.5t-23.5 72.5t24 72.5t76 22.5z" />
    <glyph glyph-name="igrave" unicode="&#xec;" horiz-adv-x="280" 
d="M230 0h-180v500h180v-500zM130 700l90 -150h-140l-130 150h180z" />
    <glyph glyph-name="iacute" unicode="&#xed;" horiz-adv-x="270" 
d="M230 0h-180v500h180v-500zM50 550l90 150h180l-130 -150h-140z" />
    <glyph glyph-name="icircumflex" unicode="&#xee;" horiz-adv-x="280" 
d="M230 0h-180v500h180v-500zM230 700l80 -150h-110l-60 70l-60 -70h-110l80 150h180z" />
    <glyph glyph-name="idieresis" unicode="&#xef;" horiz-adv-x="280" 
d="M230 0h-180v500h180v-500zM20 750q52 0 76 -22.5t24 -72.5t-24 -72.5t-76 -22.5q-53 0 -76.5 22.5t-23.5 72.5t24 72.5t76 22.5zM260 750q52 0 76 -22.5t24 -72.5t-24 -72.5t-76 -22.5q-53 0 -76.5 22.5t-23.5 72.5t24 72.5t76 22.5z" />
    <glyph glyph-name="ntilde" unicode="&#xf1;" horiz-adv-x="590" 
d="M190 500l20 -34q47 44 140 44q105 0 152.5 -57t47.5 -183v-270h-180v270q0 58 -16.5 84t-53.5 26t-53.5 -26t-16.5 -84v-270h-180v500h140zM130 580q0 53 32.5 91.5t77.5 38.5q31 0 54 -11t33.5 -24t22 -24t20.5 -11q20 0 20 30h80q0 -53 -32.5 -91.5t-77.5 -38.5
q-31 0 -54 11t-33.5 24t-22 24t-20.5 11q-20 0 -20 -30h-80z" />
    <glyph glyph-name="ograve" unicode="&#xf2;" 
d="M300 510q147 0 213.5 -62t66.5 -198t-66.5 -198t-213.5 -62t-213.5 62t-66.5 198t66.5 198t213.5 62zM200 250q0 -68 24 -99t76 -31t76 31t24 99t-24 99t-76 31t-76 -31t-24 -99zM290 700l90 -150h-140l-130 150h180z" />
    <glyph glyph-name="oacute" unicode="&#xf3;" 
d="M300 510q147 0 213.5 -62t66.5 -198t-66.5 -198t-213.5 -62t-213.5 62t-66.5 198t66.5 198t213.5 62zM200 250q0 -68 24 -99t76 -31t76 31t24 99t-24 99t-76 31t-76 -31t-24 -99zM220 550l90 150h180l-130 -150h-140z" />
    <glyph glyph-name="ocircumflex" unicode="&#xf4;" 
d="M300 510q147 0 213.5 -62t66.5 -198t-66.5 -198t-213.5 -62t-213.5 62t-66.5 198t66.5 198t213.5 62zM200 250q0 -68 24 -99t76 -31t76 31t24 99t-24 99t-76 31t-76 -31t-24 -99zM390 700l80 -150h-110l-60 70l-60 -70h-110l80 150h180z" />
    <glyph glyph-name="otilde" unicode="&#xf5;" 
d="M300 510q147 0 213.5 -62t66.5 -198t-66.5 -198t-213.5 -62t-213.5 62t-66.5 198t66.5 198t213.5 62zM200 250q0 -68 24 -99t76 -31t76 31t24 99t-24 99t-76 31t-76 -31t-24 -99zM130 580q0 53 32.5 91.5t77.5 38.5q31 0 54 -11t33.5 -24t22 -24t20.5 -11q20 0 20 30h80
q0 -53 -32.5 -91.5t-77.5 -38.5q-31 0 -54 11t-33.5 24t-22 24t-20.5 11q-20 0 -20 -30h-80z" />
    <glyph glyph-name="odieresis" unicode="&#xf6;" 
d="M300 510q147 0 213.5 -62t66.5 -198t-66.5 -198t-213.5 -62t-213.5 62t-66.5 198t66.5 198t213.5 62zM200 250q0 -68 24 -99t76 -31t76 31t24 99t-24 99t-76 31t-76 -31t-24 -99zM180 750q52 0 76 -22.5t24 -72.5t-24 -72.5t-76 -22.5q-53 0 -76.5 22.5t-23.5 72.5
t24 72.5t76 22.5zM420 750q52 0 76 -22.5t24 -72.5t-24 -72.5t-76 -22.5q-53 0 -76.5 22.5t-23.5 72.5t24 72.5t76 22.5z" />
    <glyph glyph-name="divide" unicode="&#xf7;" horiz-adv-x="560" 
d="M540 200h-520v130h520v-130zM280 160q40 0 65 -23.5t25 -61.5t-25 -61.5t-65 -23.5t-65 23.5t-25 61.5t25 61.5t65 23.5zM281 540q41 0 65.5 -23.5t24.5 -61.5t-24.5 -61.5t-65.5 -23.5t-65.5 23.5t-24.5 61.5t24.5 61.5t65.5 23.5z" />
    <glyph glyph-name="oslash" unicode="&#xf8;" 
d="M20 250q0 136 66.5 198t213.5 62q17 0 49 -2l21 62h80l-26 -74q81 -22 118.5 -82.5t37.5 -163.5q0 -136 -66.5 -198t-213.5 -62q-19 0 -49 2l-21 -62h-80l25 75q-80 22 -117.5 82t-37.5 163zM300 380q-52 0 -76 -31t-24 -99t24 -99t76 -31t76 31t24 99t-24 99t-76 31z
" />
    <glyph glyph-name="ugrave" unicode="&#xf9;" horiz-adv-x="590" 
d="M400 0l-20 34q-47 -44 -140 -44q-105 0 -152.5 57t-47.5 183v270h180v-270q0 -58 16.5 -84t53.5 -26t53.5 26t16.5 84v270h180v-500h-140zM300 700l90 -150h-140l-130 150h180z" />
    <glyph glyph-name="uacute" unicode="&#xfa;" horiz-adv-x="590" 
d="M400 0l-20 34q-47 -44 -140 -44q-105 0 -152.5 57t-47.5 183v270h180v-270q0 -58 16.5 -84t53.5 -26t53.5 26t16.5 84v270h180v-500h-140zM190 550l90 150h180l-130 -150h-140z" />
    <glyph glyph-name="ucircumflex" unicode="&#xfb;" horiz-adv-x="590" 
d="M400 0l-20 34q-47 -44 -140 -44q-105 0 -152.5 57t-47.5 183v270h180v-270q0 -58 16.5 -84t53.5 -26t53.5 26t16.5 84v270h180v-500h-140zM380 700l80 -150h-110l-60 70l-60 -70h-110l80 150h180z" />
    <glyph glyph-name="udieresis" unicode="&#xfc;" horiz-adv-x="590" 
d="M400 0l-20 34q-47 -44 -140 -44q-105 0 -152.5 57t-47.5 183v270h180v-270q0 -58 16.5 -84t53.5 -26t53.5 26t16.5 84v270h180v-500h-140zM160 750q52 0 76 -22.5t24 -72.5t-24 -72.5t-76 -22.5q-53 0 -76.5 22.5t-23.5 72.5t24 72.5t76 22.5zM400 750q52 0 76 -22.5
t24 -72.5t-24 -72.5t-76 -22.5q-53 0 -76.5 22.5t-23.5 72.5t24 72.5t76 22.5z" />
    <glyph glyph-name="yacute" unicode="&#xfd;" horiz-adv-x="540" 
d="M281 222l89 278h170l-170 -490q-41 -119 -76 -154.5t-104 -35.5h-120v110h70q14 0 21 1.5t16.5 7.5t17 21t15.5 40l4 13l-214 487h170zM210 550l90 150h180l-130 -150h-140z" />
    <glyph glyph-name="ydieresis" unicode="&#xff;" horiz-adv-x="540" 
d="M281 222l89 278h170l-170 -490q-41 -119 -76 -154.5t-104 -35.5h-120v110h70q14 0 21 1.5t16.5 7.5t17 21t15.5 40l4 13l-214 487h170zM160 750q52 0 76 -22.5t24 -72.5t-24 -72.5t-76 -22.5q-53 0 -76.5 22.5t-23.5 72.5t24 72.5t76 22.5zM400 750q52 0 76 -22.5
t24 -72.5t-24 -72.5t-76 -22.5q-53 0 -76.5 22.5t-23.5 72.5t24 72.5t76 22.5z" />
    <glyph glyph-name="Amacron" unicode="&#x100;" horiz-adv-x="700" 
d="M490 0h-1l-34 130h-219l-36 -130h-200l220 700h280l200 -700h-210zM349 533l-77 -273h149zM189 850h340v-100h-340v100z" />
    <glyph glyph-name="amacron" unicode="&#x101;" horiz-adv-x="560" 
d="M210 -10q-100 0 -145 38t-45 122q0 89 59.5 129.5t190.5 40.5h70v20q0 37 -15.5 53.5t-49.5 16.5t-49.5 -14t-15.5 -46h-170q0 84 57 122t183 38t183 -45t57 -145v-320h-140l-21 36q-47 -46 -149 -46zM340 220h-50q-48 0 -69 -13t-21 -47q0 -28 14 -39t46 -11
q42 0 61 21.5t19 68.5v20zM110 580v100h340v-100h-340z" />
    <glyph glyph-name="Abreve" unicode="&#x102;" horiz-adv-x="700" 
d="M490 0h-1l-34 130h-219l-36 -130h-200l220 700h280l200 -700h-210zM349 533l-77 -273h149zM529 870q0 -63 -40.5 -91.5t-129.5 -28.5t-129.5 28.5t-40.5 91.5h130q0 -40 40 -40t40 40h130z" />
    <glyph glyph-name="abreve" unicode="&#x103;" horiz-adv-x="560" 
d="M210 -10q-100 0 -145 38t-45 122q0 89 59.5 129.5t190.5 40.5h70v20q0 37 -15.5 53.5t-49.5 16.5t-49.5 -14t-15.5 -46h-170q0 84 57 122t183 38t183 -45t57 -145v-320h-140l-21 36q-47 -46 -149 -46zM340 220h-50q-48 0 -69 -13t-21 -47q0 -28 14 -39t46 -11
q42 0 61 21.5t19 68.5v20zM330 700h120q0 -79 -40.5 -114.5t-129.5 -35.5t-129.5 35.5t-40.5 114.5h120q0 -32 12 -46t38 -14t38 14t12 46z" />
    <glyph glyph-name="Aogonek" unicode="&#x104;" horiz-adv-x="700" 
d="M691 -90q-1 -1 -2 -1v-139q-30 -20 -70 -20q-44 0 -73.5 26t-37.5 63.5t6 82t51 78.5h-75l-34 130h-219l-36 -130h-200l220 700h280l200 -700h-44q-33 -33 -37 -65.5t32 -34.5q18 0 36 9v1h3l1 1zM349 534l-77 -273h149z" />
    <glyph glyph-name="aogonek" unicode="&#x105;" horiz-adv-x="560" 
d="M360 36q-47 -46 -150 -46q-100 0 -145 38t-45 122q0 89 59.5 129.5t190.5 40.5h70v20q0 37 -15.5 53.5t-49.5 16.5t-49.5 -14t-15.5 -46h-170q0 84 57 122t183 38t183 -45t57 -145v-320h-60q-33 -33 -37 -65.5t32 -34.5q8 0 18 2.5t16 5.5l6 2v-140q-30 -20 -70 -20
q-60 0 -91.5 44t-20 105.5t63.5 106.5zM340 220h-50q-48 0 -69 -13t-21 -47q0 -28 14 -39t46 -11q42 0 61 21.5t19 68.5v20z" />
    <glyph glyph-name="Cacute" unicode="&#x106;" horiz-adv-x="770" 
d="M540 240h200q-29 -137 -110 -198.5t-230 -61.5q-194 0 -282 88t-88 282t88 282t282 88q159 0 240 -62t100 -198h-200q-11 58 -44.5 84t-95.5 26q-84 0 -122 -52t-38 -168q0 -115 38 -167.5t122 -52.5q62 0 95.5 26t44.5 84zM320 750l90 120h170l-120 -120h-140z" />
    <glyph glyph-name="cacute" unicode="&#x107;" horiz-adv-x="580" 
d="M380 190h180q-10 -105 -72 -152.5t-188 -47.5q-147 0 -213.5 62t-66.5 198t66.5 198t213.5 62q126 0 188 -47.5t72 -152.5h-180q-11 70 -80 70q-52 0 -76 -31t-24 -99t24 -99t76 -31q35 0 54 16.5t26 53.5zM220 550l90 150h180l-130 -150h-140z" />
    <glyph glyph-name="Ccircumflex" unicode="&#x108;" horiz-adv-x="770" 
d="M540 240h200q-29 -137 -110 -198.5t-230 -61.5q-194 0 -282 88t-88 282t88 282t282 88q159 0 240 -62t100 -198h-200q-11 58 -44.5 84t-95.5 26q-84 0 -122 -52t-38 -168q0 -115 38 -167.5t122 -52.5q62 0 95.5 26t44.5 84zM570 750h-120l-50 50l-50 -50h-120l80 120h180
z" />
    <glyph glyph-name="ccircumflex" unicode="&#x109;" horiz-adv-x="580" 
d="M380 190h180q-10 -105 -72 -152.5t-188 -47.5q-147 0 -213.5 62t-66.5 198t66.5 198t213.5 62q126 0 188 -47.5t72 -152.5h-180q-11 70 -80 70q-52 0 -76 -31t-24 -99t24 -99t76 -31q35 0 54 16.5t26 53.5zM390 700l80 -150h-110l-60 70l-60 -70h-110l80 150h180z" />
    <glyph glyph-name="Cdotaccent" unicode="&#x10a;" horiz-adv-x="770" 
d="M540 240h200q-29 -137 -110 -198.5t-230 -61.5q-194 0 -282 88t-88 282t88 282t282 88q159 0 240 -62t100 -198h-200q-11 58 -44.5 84t-95.5 26q-84 0 -122 -52t-38 -168q0 -115 38 -167.5t122 -52.5q62 0 95.5 26t44.5 84zM399 900q53 0 76.5 -19t23.5 -61t-23.5 -61
t-76.5 -19t-76.5 19t-23.5 61t23.5 61t76.5 19z" />
    <glyph glyph-name="cdotaccent" unicode="&#x10b;" horiz-adv-x="580" 
d="M380 190h180q-10 -105 -72 -152.5t-188 -47.5q-147 0 -213.5 62t-66.5 198t66.5 198t213.5 62q126 0 188 -47.5t72 -152.5h-180q-11 70 -80 70q-52 0 -76 -31t-24 -99t24 -99t76 -31q35 0 54 16.5t26 53.5zM299 750q53 0 76.5 -21.5t23.5 -68.5t-23.5 -68.5t-76.5 -21.5
t-76.5 21.5t-23.5 68.5t23.5 68.5t76.5 21.5z" />
    <glyph glyph-name="Ccaron" unicode="&#x10c;" horiz-adv-x="770" 
d="M540 240h200q-29 -137 -110 -198.5t-230 -61.5q-194 0 -282 88t-88 282t88 282t282 88q159 0 240 -62t100 -198h-200q-11 58 -44.5 84t-95.5 26q-84 0 -122 -52t-38 -168q0 -115 38 -167.5t122 -52.5q62 0 95.5 26t44.5 84zM560 870l-80 -120h-180l-80 120h120l50 -50
l50 50h120z" />
    <glyph glyph-name="ccaron" unicode="&#x10d;" horiz-adv-x="580" 
d="M380 190h180q-10 -105 -72 -152.5t-188 -47.5q-147 0 -213.5 62t-66.5 198t66.5 198t213.5 62q126 0 188 -47.5t72 -152.5h-180q-11 70 -80 70q-52 0 -76 -31t-24 -99t24 -99t76 -31q35 0 54 16.5t26 53.5zM470 700l-80 -150h-180l-80 150h110l60 -70l60 70h110z" />
    <glyph glyph-name="Dcaron" unicode="&#x10e;" horiz-adv-x="740" 
d="M710 350q0 -184 -85.5 -267t-274.5 -83h-290v700h290q189 0 274.5 -83t85.5 -267zM340 560h-80v-420h80q84 0 122 50t38 160t-38 160t-122 50zM500 870l-80 -120h-180l-80 120h120l50 -50l50 50h120z" />
    <glyph glyph-name="dcaron" unicode="&#x10f;" horiz-adv-x="739" 
d="M244 -10l1 1q-115 0 -167.5 61.5t-52.5 198.5t52.5 198.5t167.5 61.5q89 0 139 -37v227h180v-700h-140l-23 38q-49 -49 -157 -49zM294 120q47 0 68.5 31t21.5 99t-21.5 99t-68.5 31t-68.5 -31t-21.5 -99t21.5 -99t68.5 -31zM649 710q37 0 53.5 -21.5t16.5 -68.5
q0 -63 -31 -91.5t-99 -28.5v60q50 0 50 40q-31 0 -45.5 12t-14.5 38q0 32 16.5 46t53.5 14z" />
    <glyph glyph-name="Dcroat" unicode="&#x110;" horiz-adv-x="770" 
d="M740 350q0 -184 -85.5 -267t-274.5 -83h-290v320h-90v120h90v260h290q189 0 274.5 -83t85.5 -267zM370 560h-80v-120h132v-120h-132v-180h80q84 0 122 50t38 160t-38 160t-122 50z" />
    <glyph glyph-name="dcroat" unicode="&#x111;" horiz-adv-x="630" 
d="M380 473v77h-180v80h180v70h180v-70h70v-80h-70v-550h-140l-22 40q-53 -50 -158 -50q-116 0 -168 62t-52 198t52 198t168 62q90 0 140 -37zM290 120q47 0 68.5 31t21.5 99t-21.5 99t-68.5 31t-68.5 -31t-21.5 -99t21.5 -99t68.5 -31z" />
    <glyph glyph-name="Emacron" unicode="&#x112;" 
d="M580 560h-320v-130h280v-140h-280v-150h320v-140h-520v700h520v-140zM149 750v100h340v-100h-340z" />
    <glyph glyph-name="emacron" unicode="&#x113;" horiz-adv-x="580" 
d="M200 200q0 -52 21.5 -76t68.5 -24q67 0 80 60h170q-16 -89 -75 -129.5t-175 -40.5q-142 0 -206 61.5t-64 198.5q0 136 64 198t206 62t206 -62t64 -198v-50h-360zM290 400q-47 0 -68.5 -24t-21.5 -76h180q0 52 -21.5 76t-68.5 24zM119 580v100h340v-100h-340z" />
    <glyph glyph-name="Ebreve" unicode="&#x114;" 
d="M580 560h-320v-130h280v-140h-280v-150h320v-140h-520v700h520v-140zM490 870q0 -63 -40.5 -91.5t-129.5 -28.5t-129.5 28.5t-40.5 91.5h130q0 -40 40 -40t40 40h130z" />
    <glyph glyph-name="ebreve" unicode="&#x115;" horiz-adv-x="580" 
d="M200 200q0 -52 21.5 -76t68.5 -24q67 0 80 60h170q-16 -89 -75 -129.5t-175 -40.5q-142 0 -206 61.5t-64 198.5q0 136 64 198t206 62t206 -62t64 -198v-50h-360zM290 400q-47 0 -68.5 -24t-21.5 -76h180q0 52 -21.5 76t-68.5 24zM340 700h120q0 -79 -40.5 -114.5
t-129.5 -35.5t-129.5 35.5t-40.5 114.5h120q0 -32 12 -46t38 -14t38 14t12 46z" />
    <glyph glyph-name="Edotaccent" unicode="&#x116;" 
d="M580 560h-320v-130h280v-140h-280v-150h320v-140h-520v700h520v-140zM320 900q52 0 76 -19t24 -61t-24 -61t-76 -19t-76 19t-24 61t24 61t76 19z" />
    <glyph glyph-name="edotaccent" unicode="&#x117;" horiz-adv-x="580" 
d="M200 200q0 -52 21.5 -76t68.5 -24q67 0 80 60h170q-16 -89 -75 -129.5t-175 -40.5q-142 0 -206 61.5t-64 198.5q0 136 64 198t206 62t206 -62t64 -198v-50h-360zM290 400q-47 0 -68.5 -24t-21.5 -76h180q0 52 -21.5 76t-68.5 24zM290 750q52 0 76 -21.5t24 -68.5
t-24 -68.5t-76 -21.5t-76 21.5t-24 68.5t24 68.5t76 21.5z" />
    <glyph glyph-name="Eogonek" unicode="&#x118;" 
d="M558 -90q-1 0 -2 -1v-139q-30 -20 -70 -20q-58 0 -89.5 42.5t-22.5 102.5t58 105h-372v700h520v-140h-320v-130h280v-140h-280v-150h320v-140h-57q-33 -33 -37 -65.5t32 -34.5q11 0 38 9v1h2z" />
    <glyph glyph-name="eogonek" unicode="&#x119;" horiz-adv-x="580" 
d="M454 -90l1 -2v-140q-30 -20 -70 -20q-57 0 -88 40t-25 97.5t49 103.5h-30q-142 0 -206 61.5t-64 198.5t64 198.5t206 61.5t206 -61.5t64 -198.5v-50h-360q0 -52 21.5 -76t68.5 -24q67 0 80 60h170q-19 -107 -104 -145q-45 -34 -54 -75q-4 -37 31 -39q8 0 18 2.5t16 5.5z
M290 400q-47 0 -68.5 -24t-21.5 -76h180q0 52 -21.5 76t-68.5 24z" />
    <glyph glyph-name="Ecaron" unicode="&#x11a;" 
d="M580 560h-320v-130h280v-140h-280v-150h320v-140h-520v700h520v-140zM480 870l-80 -120h-180l-80 120h120l50 -50l50 50h120z" />
    <glyph glyph-name="ecaron" unicode="&#x11b;" horiz-adv-x="580" 
d="M200 200q0 -52 21.5 -76t68.5 -24q67 0 80 60h170q-16 -89 -75 -129.5t-175 -40.5q-142 0 -206 61.5t-64 198.5q0 136 64 198t206 62t206 -62t64 -198v-50h-360zM290 400q-47 0 -68.5 -24t-21.5 -76h180q0 52 -21.5 76t-68.5 24zM460 700l-80 -150h-180l-80 150h110
l60 -70l60 70h110z" />
    <glyph glyph-name="Gbreve" unicode="&#x11e;" horiz-adv-x="780" 
d="M400 280v130h350v-60q0 -194 -83 -282t-267 -88q-194 0 -282 88t-88 282t88 282t282 88q153 0 233.5 -57t106.5 -183h-190q-12 47 -47.5 68.5t-102.5 21.5q-84 0 -122 -52t-38 -168q0 -115 38 -167.5t122 -52.5t122 35.5t38 114.5h-160zM570 870q0 -63 -40.5 -91.5
t-129.5 -28.5t-129.5 28.5t-40.5 91.5h130q0 -40 40 -40t40 40h130z" />
    <glyph glyph-name="gbreve" unicode="&#x11f;" horiz-adv-x="609" 
d="M239 510v1q104 0 157 -49l23 38h140v-449q0 -137 -64 -199t-206 -62q-118 0 -177.5 40.5t-72.5 129.5h170q11 -60 70 -60q52 0 76 29t24 91v7q-50 -37 -139 -37q-116 0 -168 62t-52 198q0 137 52 198.5t167 61.5zM289 381q-47 0 -68.5 -30.5t-21.5 -98.5t21.5 -99.5
t68.5 -31.5t68.5 31.5t21.5 99.5t-21.5 98.5t-68.5 30.5zM339 700h120q0 -79 -40.5 -114.5t-129.5 -35.5t-129.5 35.5t-40.5 114.5h120q0 -32 12 -46t38 -14t38 14t12 46z" />
    <glyph glyph-name="Gdotaccent" unicode="&#x120;" horiz-adv-x="780" 
d="M400 280v130h350v-60q0 -194 -83 -282t-267 -88q-194 0 -282 88t-88 282t88 282t282 88q153 0 233.5 -57t106.5 -183h-190q-12 47 -47.5 68.5t-102.5 21.5q-84 0 -122 -52t-38 -168q0 -115 38 -167.5t122 -52.5t122 35.5t38 114.5h-160zM399 900q53 0 76.5 -19t23.5 -61
t-23.5 -61t-76.5 -19t-76.5 19t-23.5 61t23.5 61t76.5 19z" />
    <glyph glyph-name="gdotaccent" unicode="&#x121;" horiz-adv-x="609" 
d="M239 510v1q104 0 157 -49l23 38h140v-449q0 -137 -64 -199t-206 -62q-118 0 -177.5 40.5t-72.5 129.5h170q11 -60 70 -60q52 0 76 29t24 91v7q-50 -37 -139 -37q-116 0 -168 62t-52 198q0 137 52 198.5t167 61.5zM289 381q-47 0 -68.5 -30.5t-21.5 -98.5t21.5 -99.5
t68.5 -31.5t68.5 31.5t21.5 99.5t-21.5 98.5t-68.5 30.5zM289 750q53 0 76.5 -21.5t23.5 -68.5t-23.5 -68.5t-76.5 -21.5t-76.5 21.5t-23.5 68.5t23.5 68.5t76.5 21.5z" />
    <glyph glyph-name="Gcedilla" unicode="&#x122;" horiz-adv-x="780" 
d="M400 280v130h350v-60q0 -194 -83 -282t-267 -88q-194 0 -282 88t-88 282t88 282t282 88q153 0 233.5 -57t106.5 -183h-190q-12 47 -47.5 68.5t-102.5 21.5q-84 0 -122 -52t-38 -168q0 -115 38 -167.5t122 -52.5t122 35.5t38 114.5h-160zM400 -40q37 0 53.5 -21.5
t16.5 -68.5q0 -63 -31 -91.5t-99 -28.5v60q50 0 50 40q-32 0 -46 12t-14 38q0 32 16.5 46t53.5 14z" />
    <glyph glyph-name="gcedilla" unicode="&#x123;" horiz-adv-x="609" 
d="M239 510v1q104 0 157 -49l23 38h140v-449q0 -137 -64 -199t-206 -62q-118 0 -177.5 40.5t-72.5 129.5h170q11 -60 70 -60q52 0 76 29t24 91v7q-50 -37 -139 -37q-116 0 -168 62t-52 198q0 137 52 198.5t167 61.5zM289 381q-47 0 -68.5 -30.5t-21.5 -98.5t21.5 -99.5
t68.5 -31.5t68.5 31.5t21.5 99.5t-21.5 98.5t-68.5 30.5zM309 540q-37 0 -53.5 21.5t-16.5 68.5q0 63 31 91.5t99 28.5v-60q-50 0 -50 -40q32 0 46 -12t14 -38q0 -32 -16.5 -46t-53.5 -14z" />
    <glyph glyph-name="Itilde" unicode="&#x128;" horiz-adv-x="340" 
d="M70 700h200v-700h-200v700zM0 760q0 51 31.5 80.5t78.5 29.5q51 0 88.5 -20t51.5 -20q8 0 14 6t6 14h70q0 -51 -31.5 -80.5t-78.5 -29.5q-51 0 -88.5 20t-51.5 20q-8 0 -14 -6t-6 -14h-70z" />
    <glyph glyph-name="itilde" unicode="&#x129;" horiz-adv-x="280" 
d="M230 0h-180v500h180v-500zM-30 580q0 53 32.5 91.5t77.5 38.5q31 0 54 -11t33.5 -24t22 -24t20.5 -11q20 0 20 30h80q0 -53 -32.5 -91.5t-77.5 -38.5q-31 0 -54 11t-33.5 24t-22 24t-20.5 11q-20 0 -20 -30h-80z" />
    <glyph glyph-name="Imacron" unicode="&#x12a;" horiz-adv-x="340" 
d="M70 700h200v-700h-200v700zM0 750v100h340v-100h-340z" />
    <glyph glyph-name="imacron" unicode="&#x12b;" horiz-adv-x="280" 
d="M230 0h-180v500h180v-500zM-30 580v100h340v-100h-340z" />
    <glyph glyph-name="Iogonek" unicode="&#x12e;" horiz-adv-x="320" 
d="M260 -90q-1 0 -2 -1v-139q-30 -20 -70 -20q-58 0 -89.5 42.5t-22.5 102.5t58 105h-74v700h200v-700h-35q-33 -33 -37 -65.5t32 -34.5q11 0 38 9v1h2z" />
    <glyph glyph-name="iogonek" unicode="&#x12f;" horiz-adv-x="300" 
d="M242 -90q-1 0 -2 -1v-139q-30 -20 -70 -20q-58 0 -89.5 42.5t-22.5 102.5t58 105h-55v500h180v-500h-34q-33 -33 -37 -65.5t32 -34.5q11 0 38 9v1h2zM150 730q52 0 76 -21.5t24 -68.5t-24 -68.5t-76 -21.5t-76 21.5t-24 68.5t24 68.5t76 21.5z" />
    <glyph glyph-name="Idotaccent" unicode="&#x130;" horiz-adv-x="320" 
d="M60 700h200v-700h-200v700zM160 900q52 0 76 -19t24 -61t-24 -61t-76 -19t-76 19t-24 61t24 61t76 19z" />
    <glyph glyph-name="dotlessi" unicode="&#x131;" horiz-adv-x="280" 
d="M230 0h-180v500h180v-500z" />
    <glyph glyph-name="IJ" unicode="&#x132;" horiz-adv-x="910" 
d="M60 700h200v-700h-200v700zM350 210v40h190v-40q0 -42 14 -61t46 -19t46 19t14 61v490h200v-490q0 -116 -61.5 -168t-198.5 -52q-131 0 -190.5 52t-59.5 168z" />
    <glyph glyph-name="ij" unicode="&#x133;" 
d="M240 0h-180v500h180v-500zM320 -50q22 0 36 14t14 36v500h180v-520q0 -75 -42.5 -117.5t-117.5 -42.5h-160v130h90zM150 730q52 0 76 -21.5t24 -68.5t-24 -68.5t-76 -21.5t-76 21.5t-24 68.5t24 68.5t76 21.5zM460 730q52 0 76 -21.5t24 -68.5t-24 -68.5t-76 -21.5
t-76 21.5t-24 68.5t24 68.5t76 21.5z" />
    <glyph glyph-name="Kcedilla" unicode="&#x136;" horiz-adv-x="730" 
d="M260 700v-255l210 255h240l-280 -340l300 -360h-240l-230 276v-276h-200v700h200zM350 -40q37 0 53.5 -21.5t16.5 -68.5q0 -63 -31 -91.5t-99 -28.5v60q50 0 50 40q-31 0 -45.5 12t-14.5 38q0 32 16.5 46t53.5 14z" />
    <glyph glyph-name="kcedilla" unicode="&#x137;" horiz-adv-x="610" 
d="M230 201v-201h-180v700h180v-380l150 180h210l-200 -240l220 -260h-210zM300 -40q37 0 53.5 -21.5t16.5 -68.5q0 -63 -31 -91.5t-99 -28.5v60q50 0 50 40q-32 0 -46 12t-14 38q0 32 16.5 46t53.5 14z" />
    <glyph glyph-name="Lacute" unicode="&#x139;" horiz-adv-x="570" 
d="M540 150v-150h-480v700h200v-550h280zM90 750l90 120h170l-120 -120h-140z" />
    <glyph glyph-name="lacute" unicode="&#x13a;" horiz-adv-x="280" 
d="M230 700v-700h-180v700h180zM70 750l90 120h170l-120 -120h-140z" />
    <glyph glyph-name="Lcedilla" unicode="&#x13b;" horiz-adv-x="570" 
d="M540 150v-150h-480v700h200v-550h280zM300 -40q37 0 53.5 -21.5t16.5 -68.5q0 -63 -31 -91.5t-99 -28.5v60q50 0 50 40q-32 0 -46 12t-14 38q0 32 16.5 46t53.5 14z" />
    <glyph glyph-name="lcedilla" unicode="&#x13c;" horiz-adv-x="280" 
d="M230 700v-700h-180v700h180zM140 -40q37 0 53.5 -21.5t16.5 -68.5q0 -63 -31 -91.5t-99 -28.5v60q50 0 50 40q-32 0 -46 12t-14 38q0 32 16.5 46t53.5 14z" />
    <glyph glyph-name="Lcaron" unicode="&#x13d;" horiz-adv-x="570" 
d="M540 150v-150h-480v700h200v-550h280zM370 710q37 0 53.5 -21.5t16.5 -68.5q0 -63 -31 -91.5t-99 -28.5v60q50 0 50 40q-32 0 -46 12t-14 38q0 32 16.5 46t53.5 14z" />
    <glyph glyph-name="lcaron" unicode="&#x13e;" horiz-adv-x="430" 
d="M230 700v-700h-180v700h180zM340 709q37 0 53.5 -21.5t16.5 -68.5q0 -63 -31 -91.5t-99 -28.5v60q50 0 50 40q-32 0 -46 12t-14 38q0 31 16.5 45.5t53.5 14.5z" />
    <glyph glyph-name="Lslash" unicode="&#x141;" 
d="M570 150v-150h-480v303l-90 -53v130l90 53v267h200v-150l170 100v-130l-170 -100v-270h280z" />
    <glyph glyph-name="lslash" unicode="&#x142;" horiz-adv-x="400" 
d="M290 700v-4v-162l90 53v-130l-90 -52v-407h-180v303l-90 -52v130l90 53v268h180z" />
    <glyph glyph-name="Nacute" unicode="&#x143;" horiz-adv-x="760" 
d="M510 700h190v-700h-230l-220 450v-450h-190v700h230l220 -450v450zM300 750l90 120h170l-120 -120h-140z" />
    <glyph glyph-name="nacute" unicode="&#x144;" horiz-adv-x="590" 
d="M190 500l20 -34q47 44 140 44q105 0 152.5 -57t47.5 -183v-270h-180v270q0 58 -16.5 84t-53.5 26t-53.5 -26t-16.5 -84v-270h-180v500h140zM220 550l90 150h180l-130 -150h-140z" />
    <glyph glyph-name="Ncedilla" unicode="&#x145;" horiz-adv-x="760" 
d="M510 700h190v-700h-230l-220 450v-450h-190v700h230l220 -450v450zM380 -40q37 0 53.5 -21.5t16.5 -68.5q0 -63 -31 -91.5t-99 -28.5v60q50 0 50 40q-31 0 -45.5 12t-14.5 38q0 32 16.5 46t53.5 14z" />
    <glyph glyph-name="ncedilla" unicode="&#x146;" horiz-adv-x="590" 
d="M190 500l20 -34q47 44 140 44q105 0 152.5 -57t47.5 -183v-270h-180v270q0 58 -16.5 84t-53.5 26t-53.5 -26t-16.5 -84v-270h-180v500h140zM299 -40q37 0 53.5 -21.5t16.5 -68.5q0 -63 -31 -91.5t-99 -28.5v60q50 0 50 40q-31 0 -45.5 12t-14.5 38q0 32 16.5 46t53.5 14z
" />
    <glyph glyph-name="Ncaron" unicode="&#x147;" horiz-adv-x="760" 
d="M510 700h190v-700h-230l-220 450v-450h-190v700h230l220 -450v450zM540 870l-80 -120h-180l-80 120h120l50 -50l50 50h120z" />
    <glyph glyph-name="ncaron" unicode="&#x148;" horiz-adv-x="590" 
d="M190 500l20 -34q47 44 140 44q105 0 152.5 -57t47.5 -183v-270h-180v270q0 58 -16.5 84t-53.5 26t-53.5 -26t-16.5 -84v-270h-180v500h140zM470 700l-80 -150h-180l-80 150h110l60 -70l60 70h110z" />
    <glyph glyph-name="Omacron" unicode="&#x14c;" horiz-adv-x="800" 
d="M400 720q194 0 282 -88t88 -282t-88 -282t-282 -88t-282 88t-88 282t88 282t282 88zM400 130q84 0 122 52.5t38 167.5q0 116 -38 168t-122 52t-122 -52t-38 -168q0 -115 38 -167.5t122 -52.5zM229 750v100h340v-100h-340z" />
    <glyph glyph-name="omacron" unicode="&#x14d;" 
d="M300 510q147 0 213.5 -62t66.5 -198t-66.5 -198t-213.5 -62t-213.5 62t-66.5 198t66.5 198t213.5 62zM200 250q0 -68 24 -99t76 -31t76 31t24 99t-24 99t-76 31t-76 -31t-24 -99zM129 550v100h340v-100h-340z" />
    <glyph glyph-name="Obreve" unicode="&#x14e;" horiz-adv-x="800" 
d="M400 720q194 0 282 -88t88 -282t-88 -282t-282 -88t-282 88t-88 282t88 282t282 88zM400 130q84 0 122 52.5t38 167.5q0 116 -38 168t-122 52t-122 -52t-38 -168q0 -115 38 -167.5t122 -52.5zM570 870q0 -63 -40.5 -91.5t-129.5 -28.5t-129.5 28.5t-40.5 91.5h130
q0 -40 40 -40t40 40h130z" />
    <glyph glyph-name="obreve" unicode="&#x14f;" 
d="M300 510q147 0 213.5 -62t66.5 -198t-66.5 -198t-213.5 -62t-213.5 62t-66.5 198t66.5 198t213.5 62zM200 250q0 -68 24 -99t76 -31t76 31t24 99t-24 99t-76 31t-76 -31t-24 -99zM350 700h120q0 -79 -40.5 -114.5t-129.5 -35.5t-129.5 35.5t-40.5 114.5h120q0 -32 12 -46
t38 -14t38 14t12 46z" />
    <glyph glyph-name="Ohungarumlaut" unicode="&#x150;" horiz-adv-x="800" 
d="M400 720q194 0 282 -88t88 -282t-88 -282t-282 -88t-282 88t-88 282t88 282t282 88zM400 130q84 0 122 52.5t38 167.5q0 116 -38 168t-122 52t-122 -52t-38 -168q0 -115 38 -167.5t122 -52.5zM220 750l80 150h170l-120 -150h-130zM450 750l80 150h170l-120 -150h-130z
" />
    <glyph glyph-name="ohungarumlaut" unicode="&#x151;" horiz-adv-x="620" 
d="M300 510q147 0 213.5 -62t66.5 -198t-66.5 -198t-213.5 -62t-213.5 62t-66.5 198t66.5 198t213.5 62zM200 250q0 -68 24 -99t76 -31t76 31t24 99t-24 99t-76 31t-76 -31t-24 -99zM120 550l80 150h170l-120 -150h-130zM350 550l80 150h170l-120 -150h-130z" />
    <glyph glyph-name="OE" unicode="&#x152;" horiz-adv-x="1080" 
d="M1060 560h-300v-130h260v-140h-260v-150h300v-140h-480v60q-64 -80 -218 -80q-171 0 -251.5 88.5t-80.5 281.5t80.5 281.5t251.5 88.5q154 0 218 -80v60h480v-140zM400 130q84 0 122 52.5t38 167.5q0 116 -38 168t-122 52t-122 -52t-38 -168q0 -115 38 -167.5t122 -52.5z
" />
    <glyph glyph-name="oe" unicode="&#x153;" horiz-adv-x="941" 
d="M560 200q0 -53 21.5 -76.5t69.5 -23.5q29 0 51.5 16.5t28.5 43.5h170q-14 -76 -83 -123t-167 -47q-100 0 -164 50q-57 -50 -187 -50q-147 0 -213.5 62t-66.5 198t66.5 198t213.5 62q130 0 187 -50q64 50 164 50q122 0 196 -71t74 -189v-50h-361zM201 250q0 -68 23.5 -99
t76.5 -31t76.5 31t23.5 99t-23.5 99t-76.5 31t-76.5 -31t-23.5 -99zM651 400q-48 0 -69.5 -23.5t-21.5 -76.5h181q0 45 -24.5 72.5t-65.5 27.5z" />
    <glyph glyph-name="Racute" unicode="&#x154;" horiz-adv-x="720" 
d="M342 250h-82v-250h-200v700h330q141 0 210.5 -65.5t69.5 -164.5q0 -152 -138 -200l158 -270h-210zM260 380h120q43 0 66.5 25.5t23.5 64.5t-23.5 64.5t-66.5 25.5h-120v-180zM250 750l90 120h170l-120 -120h-140z" />
    <glyph glyph-name="racute" unicode="&#x155;" horiz-adv-x="430" 
d="M329 360h-1q-52 0 -75.5 -26t-23.5 -84v-250h-180v500h140l24 -43q47 53 116 53h80v-150h-80zM150 550l90 150h180l-130 -150h-140z" />
    <glyph glyph-name="Rcedilla" unicode="&#x156;" horiz-adv-x="720" 
d="M342 250h-82v-250h-200v700h330q141 0 210.5 -65.5t69.5 -164.5q0 -152 -138 -200l158 -270h-210zM260 380h120q43 0 66.5 25.5t23.5 64.5t-23.5 64.5t-66.5 25.5h-120v-180zM360 -40q37 0 53.5 -21.5t16.5 -68.5q0 -63 -31 -91.5t-99 -28.5v60q50 0 50 40q-32 0 -46 12
t-14 38q0 32 16.5 46t53.5 14z" />
    <glyph glyph-name="rcedilla" unicode="&#x157;" horiz-adv-x="419" 
d="M329 360h-1q-52 0 -75.5 -26t-23.5 -84v-250h-180v500h140l24 -43q47 53 116 53h80v-150h-80zM140 -40q37 0 53.5 -21.5t16.5 -68.5q0 -63 -31 -91.5t-99 -28.5v60q50 0 50 40q-32 0 -46 12t-14 38q0 32 16.5 46t53.5 14z" />
    <glyph glyph-name="Rcaron" unicode="&#x158;" horiz-adv-x="720" 
d="M333 250h-73v-250h-200v700h330q141 0 210.5 -65.5t69.5 -164.5q0 -157 -146 -202l166 -268h-210zM260 380h130q80 0 80 90t-80 90h-130v-180zM490 870l-80 -120h-180l-80 120h120l50 -50l50 50h120z" />
    <glyph glyph-name="rcaron" unicode="&#x159;" horiz-adv-x="419" 
d="M329 360h-1q-52 0 -75.5 -26t-23.5 -84v-250h-180v500h140l24 -43q47 53 116 53h80v-150h-80zM400 700l-80 -150h-180l-80 150h110l60 -70l60 70h110z" />
    <glyph glyph-name="Sacute" unicode="&#x15a;" horiz-adv-x="660" 
d="M230 520q0 -25 29.5 -42.5t74 -26.5t96.5 -26t96.5 -39t74 -67.5t29.5 -108.5q0 -121 -71 -175.5t-229 -54.5t-229 52t-71 168h180q0 -47 28.5 -68.5t91.5 -21.5q58 0 84 16.5t26 53.5q0 38 -41 61t-100 37.5t-118 34t-100 64t-41 113.5q0 121 69 175.5t221 54.5t221 -52
t69 -168h-180q0 47 -26 68.5t-84 21.5q-52 0 -76 -16.5t-24 -53.5zM250 750l90 120h170l-120 -120h-140z" />
    <glyph glyph-name="sacute" unicode="&#x15b;" horiz-adv-x="510" 
d="M190 369q0 -16 16.5 -26t43 -15.5t58.5 -11t64 -15.5t58.5 -25.5t43 -45t16.5 -70.5q0 -89 -58.5 -129.5t-187.5 -40.5q-118 0 -171 38t-53 122h170q0 -32 14 -46t46 -14t46 12t14 38q0 21 -21.5 33t-53.5 16.5t-70 14t-70 23t-53.5 45t-21.5 78.5q0 84 54.5 122
t175.5 38q116 0 168 -35.5t52 -114.5h-160q0 26 -14 38t-46 12q-60 0 -60 -41zM170 550l90 150h180l-130 -150h-140z" />
    <glyph glyph-name="Scircumflex" unicode="&#x15c;" horiz-adv-x="660" 
d="M230 520q0 -25 29.5 -42.5t74 -26.5t96.5 -26t96.5 -39t74 -67.5t29.5 -108.5q0 -121 -71 -175.5t-229 -54.5t-229 52t-71 168h180q0 -47 28.5 -68.5t91.5 -21.5q58 0 84 16.5t26 53.5q0 38 -41 61t-100 37.5t-118 34t-100 64t-41 113.5q0 121 69 175.5t221 54.5t221 -52
t69 -168h-180q0 47 -26 68.5t-84 21.5q-52 0 -76 -16.5t-24 -53.5zM500 750h-120l-50 50l-50 -50h-120l80 120h180z" />
    <glyph glyph-name="scircumflex" unicode="&#x15d;" horiz-adv-x="510" 
d="M190 369q0 -16 16.5 -26t43 -15.5t58.5 -11t64 -15.5t58.5 -25.5t43 -45t16.5 -70.5q0 -89 -58.5 -129.5t-187.5 -40.5q-118 0 -171 38t-53 122h170q0 -32 14 -46t46 -14t46 12t14 38q0 21 -21.5 33t-53.5 16.5t-70 14t-70 23t-53.5 45t-21.5 78.5q0 84 54.5 122
t175.5 38q116 0 168 -35.5t52 -114.5h-160q0 26 -14 38t-46 12q-60 0 -60 -41zM340 700l80 -150h-110l-60 70l-60 -70h-110l80 150h180z" />
    <glyph glyph-name="Scedilla" unicode="&#x15e;" horiz-adv-x="660" 
d="M275 -18h-1q-127 8 -185.5 60.5t-58.5 157.5h180q0 -47 28.5 -68.5t91.5 -21.5q58 0 84 16.5t26 53.5q0 38 -41 61t-100 37.5t-118 34t-100 64t-41 113.5q0 121 69 175.5t221 54.5t221 -52t69 -168h-180q0 47 -26 68.5t-84 21.5q-52 0 -76 -16.5t-24 -53.5
q0 -25 29.5 -42.5t74 -26.5t96.5 -26t96.5 -39t74 -67.5t29.5 -108.5q0 -113 -62.5 -168t-199.5 -61l-7 -31l10 -2.5t21.5 -9t27.5 -16.5t21.5 -25.5t9.5 -36.5q0 -52 -56 -81t-154 -29v70q80 0 80 40q0 30 -70 30z" />
    <glyph glyph-name="scedilla" unicode="&#x15f;" horiz-adv-x="510" 
d="M196 -8h2q-93 7 -135.5 45t-42.5 113h170q0 -32 14 -46t46 -14t46 12t14 38q0 21 -21.5 33t-53.5 16.5t-70 14t-70 23t-53.5 45t-21.5 78.5q0 84 54.5 122t175.5 38q116 0 168 -35.5t52 -114.5h-160q0 26 -14 38t-46 12q-60 0 -60 -41q0 -16 16.5 -26t43 -15.5t58.5 -11
t64 -15.5t58.5 -25.5t43 -45t16.5 -70.5q0 -81 -48 -121.5t-153 -47.5l-10 -41l10 -2.5t21.5 -9t27.5 -16.5t21.5 -25.5t9.5 -36.5q0 -52 -56 -81t-154 -29v70q80 0 80 40q0 30 -70 30z" />
    <glyph glyph-name="Scaron" unicode="&#x160;" horiz-adv-x="660" 
d="M230 520q0 -25 29.5 -42.5t74 -26.5t96.5 -26t96.5 -39t74 -67.5t29.5 -108.5q0 -121 -71 -175.5t-229 -54.5t-229 52t-71 168h180q0 -47 28.5 -68.5t91.5 -21.5q58 0 84 16.5t26 53.5q0 38 -41 61t-100 37.5t-118 34t-100 64t-41 113.5q0 121 69 175.5t221 54.5t221 -52
t69 -168h-180q0 47 -26 68.5t-84 21.5q-52 0 -76 -16.5t-24 -53.5zM490 870l-80 -120h-180l-80 120h120l50 -50l50 50h120z" />
    <glyph glyph-name="scaron" unicode="&#x161;" horiz-adv-x="510" 
d="M190 369q0 -16 16.5 -26t43 -15.5t58.5 -11t64 -15.5t58.5 -25.5t43 -45t16.5 -70.5q0 -89 -58.5 -129.5t-187.5 -40.5q-118 0 -171 38t-53 122h170q0 -32 14 -46t46 -14t46 12t14 38q0 21 -21.5 33t-53.5 16.5t-70 14t-70 23t-53.5 45t-21.5 78.5q0 84 54.5 122
t175.5 38q116 0 168 -35.5t52 -114.5h-160q0 26 -14 38t-46 12q-60 0 -60 -41zM420 700l-80 -150h-180l-80 150h110l60 -70l60 70h110z" />
    <glyph glyph-name="Tcedilla" unicode="&#x162;" horiz-adv-x="640" 
d="M269 0h-49v550h-200v150h600v-150h-200v-550h-58l-12 -50l10 -2.5t21.5 -9t27.5 -16.5t21.5 -25.5t9.5 -36.5q0 -52 -56 -81t-154 -29v70q80 0 80 40q0 30 -70 30z" />
    <glyph glyph-name="tcedilla" unicode="&#x163;" horiz-adv-x="450" 
d="M211 6q-53 13 -82 53t-29 101v230h-80v110h80v130h180v-130h140v-110h-140v-210q0 -22 14 -36t36 -14h90v-130h-118l-12 -50l10 -2.5t21.5 -9t27.5 -16.5t21.5 -25.5t9.5 -36.5q0 -52 -56 -81t-154 -29v70q80 0 80 40q0 30 -70 30z" />
    <glyph glyph-name="Tcaron" unicode="&#x164;" horiz-adv-x="640" 
d="M620 700v-150h-200v-550h-200v550h-200v150h600zM480 870l-80 -120h-180l-80 120h120l50 -50l50 50h120z" />
    <glyph glyph-name="tcaron" unicode="&#x165;" horiz-adv-x="449" 
d="M280 180q0 -22 14 -36t36 -14h90v-130h-160q-75 0 -117.5 42.5t-42.5 117.5v230h-80v110h80v130h180v-130h140v-110h-140v-210zM379 730q37 0 53.5 -21.5t16.5 -68.5q0 -63 -31 -91.5t-99 -28.5v60q50 0 50 40q-31 0 -45.5 12t-14.5 38q0 32 16.5 46t53.5 14z" />
    <glyph glyph-name="Utilde" unicode="&#x168;" horiz-adv-x="740" 
d="M60 260v440h200v-440q0 -68 26 -99t84 -31t84 31t26 99v440h200v-440q0 -147 -73.5 -213.5t-236.5 -66.5t-236.5 66.5t-73.5 213.5zM200 760q0 51 31.5 80.5t78.5 29.5q51 0 88.5 -20t51.5 -20q8 0 14 6t6 14h70q0 -51 -31.5 -80.5t-78.5 -29.5q-51 0 -88.5 20t-51.5 20
q-8 0 -14 -6t-6 -14h-70z" />
    <glyph glyph-name="utilde" unicode="&#x169;" horiz-adv-x="590" 
d="M400 0l-20 34q-47 -44 -140 -44q-105 0 -152.5 57t-47.5 183v270h180v-270q0 -58 16.5 -84t53.5 -26t53.5 26t16.5 84v270h180v-500h-140zM120 600q0 53 32.5 91.5t77.5 38.5q31 0 54 -11t33.5 -24t22 -24t20.5 -11q20 0 20 30h80q0 -53 -32.5 -91.5t-77.5 -38.5
q-31 0 -54 11t-33.5 24t-22 24t-20.5 11q-20 0 -20 -30h-80z" />
    <glyph glyph-name="Umacron" unicode="&#x16a;" horiz-adv-x="740" 
d="M60 260v440h200v-440q0 -68 26 -99t84 -31t84 31t26 99v440h200v-440q0 -147 -73.5 -213.5t-236.5 -66.5t-236.5 66.5t-73.5 213.5zM199 750v100h340v-100h-340z" />
    <glyph glyph-name="umacron" unicode="&#x16b;" horiz-adv-x="590" 
d="M400 0l-20 34q-47 -44 -140 -44q-105 0 -152.5 57t-47.5 183v270h180v-270q0 -58 16.5 -84t53.5 -26t53.5 26t16.5 84v270h180v-500h-140zM120 580v100h340v-100h-340z" />
    <glyph glyph-name="Ubreve" unicode="&#x16c;" horiz-adv-x="740" 
d="M60 260v440h200v-440q0 -68 26 -99t84 -31t84 31t26 99v440h200v-440q0 -147 -73.5 -213.5t-236.5 -66.5t-236.5 66.5t-73.5 213.5zM540 870q0 -63 -40.5 -91.5t-129.5 -28.5t-129.5 28.5t-40.5 91.5h130q0 -40 40 -40t40 40h130z" />
    <glyph glyph-name="ubreve" unicode="&#x16d;" horiz-adv-x="590" 
d="M400 0l-20 34q-47 -44 -140 -44q-105 0 -152.5 57t-47.5 183v270h180v-270q0 -58 16.5 -84t53.5 -26t53.5 26t16.5 84v270h180v-500h-140zM330 700h120q0 -79 -40.5 -114.5t-129.5 -35.5t-129.5 35.5t-40.5 114.5h120q0 -32 12 -46t38 -14t38 14t12 46z" />
    <glyph glyph-name="Uring" unicode="&#x16e;" horiz-adv-x="740" 
d="M60 260v440h200v-440q0 -68 26 -99t84 -31t84 31t26 99v440h200v-440q0 -147 -73.5 -213.5t-236.5 -66.5t-236.5 66.5t-73.5 213.5zM370 910q68 0 99 -26t31 -84t-31 -84t-99 -26t-99 26t-31 84t31 84t99 26zM370 760q40 0 40 40t-40 40t-40 -40t40 -40z" />
    <glyph glyph-name="uring" unicode="&#x16f;" horiz-adv-x="590" 
d="M400 0l-20 34q-47 -44 -140 -44q-105 0 -152.5 57t-47.5 183v270h180v-270q0 -58 16.5 -84t53.5 -26t53.5 26t16.5 84v270h180v-500h-140zM290 750q68 0 99 -26t31 -84t-31 -84t-99 -26t-99 26t-31 84t31 84t99 26zM290 600q40 0 40 40t-40 40t-40 -40t40 -40z" />
    <glyph glyph-name="Uhungarumlaut" unicode="&#x170;" horiz-adv-x="740" 
d="M60 260v440h200v-440q0 -68 26 -99t84 -31t84 31t26 99v440h200v-440q0 -147 -73.5 -213.5t-236.5 -66.5t-236.5 66.5t-73.5 213.5zM170 750l80 150h170l-120 -150h-130zM400 750l80 150h170l-120 -150h-130z" />
    <glyph glyph-name="uhungarumlaut" unicode="&#x171;" 
d="M400 0l-20 34q-47 -44 -140 -44q-105 0 -152.5 57t-47.5 183v270h180v-270q0 -58 16.5 -84t53.5 -26t53.5 26t16.5 84v270h180v-500h-140zM170 700h170l-120 -150h-130zM400 700h170l-120 -150h-130z" />
    <glyph glyph-name="Uogonek" unicode="&#x172;" horiz-adv-x="740" 
d="M549 -90h-1v-139q-30 -20 -70 -20q-55 0 -86 37.5t-27.5 92.5t41.5 101q-12 -1 -36 -1q-163 0 -236.5 66.5t-73.5 213.5v440h200v-440q0 -68 26 -99t84 -31t84 31t26 99v440h200v-440q0 -111 -41 -175t-128 -89q-20 -21 -29.5 -43.5t-3 -38t30.5 -15.5q19 0 39 10v1z" />
    <glyph glyph-name="uogonek" unicode="&#x173;" horiz-adv-x="590" 
d="M480 0h-1q-33 -33 -37 -65.5t32 -34.5q8 0 18 2.5t16 5.5l6 2v-140q-30 -20 -70 -20q-60 0 -91.5 44t-20 105.5t63.5 106.5l-16 28q-47 -44 -140 -44q-105 0 -152.5 57t-47.5 183v270h180v-270q0 -58 16.5 -84t53.5 -26t53.5 26t16.5 84v270h180v-500h-60z" />
    <glyph glyph-name="Wcircumflex" unicode="&#x174;" horiz-adv-x="1020" 
d="M391 700h238l83 -495l98 495h200l-160 -700h-260l-87 487l-73 -487h-260l-160 700h200l98 -495zM674 750h-120l-50 50l-50 -50h-120l80 120h180z" />
    <glyph glyph-name="wcircumflex" unicode="&#x175;" horiz-adv-x="870" 
d="M151 0h-1l-140 500h180l78 -350l62 350h220l54 -344l76 344h180l-140 -500h-220l-65 366l-65 -366h-219zM595 550h-110l-60 70l-60 -70h-110l80 150h180z" />
    <glyph glyph-name="Ycircumflex" unicode="&#x176;" horiz-adv-x="680" 
d="M440 260v-260h-190v260l-250 440h220l125 -250l125 250h210zM520 750h-120l-50 50l-50 -50h-120l80 120h180z" />
    <glyph glyph-name="ycircumflex" unicode="&#x177;" horiz-adv-x="540" 
d="M281 222l89 278h170l-170 -490q-41 -119 -76 -154.5t-104 -35.5h-120v110h70q14 0 21 1.5t16.5 7.5t17 21t15.5 40l4 13l-214 487h170zM450 550h-110l-60 70l-60 -70h-110l80 150h180z" />
    <glyph glyph-name="Ydieresis" unicode="&#x178;" horiz-adv-x="680" 
d="M440 260v-260h-190v260l-250 440h220l125 -250l125 250h210zM220 890q52 0 76 -19t24 -61t-24 -61t-76 -19t-76 19t-24 61t24 61t76 19zM480 890q52 0 76 -19t24 -61t-24 -61t-76 -19t-76 19t-24 61t24 61t76 19z" />
    <glyph glyph-name="Zacute" unicode="&#x179;" horiz-adv-x="640" 
d="M260 140h350v-140h-580v120l340 440h-330v140h560v-120zM230 750l90 120h170l-120 -120h-140z" />
    <glyph glyph-name="zacute" unicode="&#x17a;" horiz-adv-x="500" 
d="M230 120h250v-120h-460v100l240 280h-230v120h440v-100zM170 550l90 150h180l-130 -150h-140z" />
    <glyph glyph-name="Zdotaccent" unicode="&#x17b;" horiz-adv-x="640" 
d="M260 140h350v-140h-580v120l340 440h-330v140h560v-120zM319 900q53 0 76.5 -19t23.5 -61t-23.5 -61t-76.5 -19t-76.5 19t-23.5 61t23.5 61t76.5 19z" />
    <glyph glyph-name="zdotaccent" unicode="&#x17c;" horiz-adv-x="500" 
d="M230 120h250v-120h-460v100l240 280h-230v120h440v-100zM249 750q53 0 76.5 -21.5t23.5 -68.5t-23.5 -68.5t-76.5 -21.5t-76.5 21.5t-23.5 68.5t23.5 68.5t76.5 21.5z" />
    <glyph glyph-name="Zcaron" unicode="&#x17d;" horiz-adv-x="640" 
d="M260 140h350v-140h-580v120l340 440h-330v140h560v-120zM480 870l-80 -120h-180l-80 120h120l50 -50l50 50h120z" />
    <glyph glyph-name="zcaron" unicode="&#x17e;" horiz-adv-x="500" 
d="M230 120h250v-120h-460v100l240 280h-230v120h440v-100zM420 700l-80 -150h-180l-80 150h110l60 -70l60 70h110z" />
    <glyph glyph-name="Aacutering" unicode="&#x1fa;" horiz-adv-x="700" 
d="M490 0h-1l-33 130h-221l-35 -130h-200l220 700h280l200 -700h-210zM350 550l-81 -290h153zM418 900q60 -21 60 -80q0 -44 -34.5 -67t-95.5 -23t-95.5 23t-34.5 67q0 42 30.5 65t85.5 25l34 50h110zM348 790q50 0 50 30t-50 30t-50 -30t50 -30z" />
    <glyph glyph-name="aacutering" unicode="&#x1fb;" horiz-adv-x="560" 
d="M20 150q0 89 59.5 129.5t190.5 40.5h70v20q0 37 -15.5 53.5t-49.5 16.5t-49.5 -14t-15.5 -46h-170q0 84 57 122t183 38t183 -45t57 -145v-320h-140l-21 36q-47 -46 -149 -46q-100 0 -145 38t-45 122zM340 220h-50q-48 0 -69 -13t-21 -47q0 -28 14 -39t46 -11
q42 0 61 21.5t19 68.5v20zM378 701l-1 -1q33 -27 33 -70q0 -45 -35 -72.5t-95 -27.5t-95 27.5t-35 72.5t35 72.5t95 27.5h15l45 50h130zM280 600q40 0 40 30t-40 30t-40 -30t40 -30z" />
    <glyph glyph-name="AEacute" unicode="&#x1fc;" horiz-adv-x="950" 
d="M930 560h-290v-130h250v-140h-250v-150h290v-140h-470v130h-200l-60 -130h-200l340 700h590v-140zM460 562l-140 -302h140v302zM470 750l90 120h170l-120 -120h-140z" />
    <glyph glyph-name="aeacute" unicode="&#x1fd;" horiz-adv-x="900" 
d="M880 201h-360q0 -53 21.5 -76.5t69.5 -23.5q66 0 80 60h170q-16 -89 -75.5 -129.5t-174.5 -40.5q-150 0 -196 107q-40 -107 -205 -107q-100 0 -145 38t-45 122q0 89 59.5 129.5t190.5 40.5h70v20q0 31 -16.5 45.5t-53.5 14.5q-32 0 -46 -12t-14 -38h-170q0 84 57 122
t183 38q120 0 166 -58q52 58 165 58q142 0 205.5 -61.5t63.5 -198.5v-50zM340 202v20h-49q-47 0 -68.5 -14t-21.5 -46q0 -26 14.5 -38t45.5 -12q42 -1 60.5 20.5t18.5 69.5zM612 402q-48 0 -69.5 -23.5t-21.5 -76.5h180q0 53 -21 76.5t-68 23.5zM371 549l90 150h180
l-130 -150h-140z" />
    <glyph glyph-name="Oslashacute" unicode="&#x1fe;" horiz-adv-x="800" 
d="M30 350q0 194 88 282t282 88q36 0 68 -3l22 63h120l-30 -86q98 -34 144 -118t46 -226q0 -194 -88 -282t-282 -88q-36 0 -68 3l-22 -63h-120l30 86q-98 34 -144 118t-46 226zM240 350q0 -115 38 -167.5t122 -52.5t122 52.5t38 167.5q0 116 -38 168t-122 52t-122 -52
t-38 -168zM290 750l90 120h170l-120 -120h-140z" />
    <glyph glyph-name="oslashacute" unicode="&#x1ff;" 
d="M20 250q0 136 66.5 198t213.5 62q17 0 49 -2l21 62h80l-26 -74q81 -22 118.5 -82.5t37.5 -163.5q0 -136 -66.5 -198t-213.5 -62q-19 0 -49 2l-21 -62h-80l25 75q-80 22 -117.5 82t-37.5 163zM300 380q-52 0 -76 -31t-24 -99t24 -99t76 -31t76 31t24 99t-24 99t-76 31z
M180 550l90 150h180l-130 -150h-140z" />
    <glyph glyph-name="Scommaaccent" unicode="&#x218;" horiz-adv-x="660" 
d="M230 520q0 -25 29.5 -42.5t74 -26.5t96.5 -26t96.5 -39t74 -67.5t29.5 -108.5q0 -121 -71 -175.5t-229 -54.5t-229 52t-71 168h180q0 -47 28.5 -68.5t91.5 -21.5q58 0 84 16.5t26 53.5q0 38 -41 61t-100 37.5t-118 34t-100 64t-41 113.5q0 121 69 175.5t221 54.5t221 -52
t69 -168h-180q0 47 -26 68.5t-84 21.5q-52 0 -76 -16.5t-24 -53.5zM330 -40q37 0 53.5 -21.5t16.5 -68.5q0 -63 -31 -91.5t-99 -28.5v60q50 0 50 40q-32 0 -46 12t-14 38q0 32 16.5 46t53.5 14z" />
    <glyph glyph-name="scommaaccent" unicode="&#x219;" horiz-adv-x="510" 
d="M190 369q0 -16 16.5 -26t43 -15.5t58.5 -11t64 -15.5t58.5 -25.5t43 -45t16.5 -70.5q0 -89 -58.5 -129.5t-187.5 -40.5q-118 0 -171 38t-53 122h170q0 -32 14 -46t46 -14t46 12t14 38q0 21 -21.5 33t-53.5 16.5t-70 14t-70 23t-53.5 45t-21.5 78.5q0 84 54.5 122
t175.5 38q116 0 168 -35.5t52 -114.5h-160q0 26 -14 38t-46 12q-60 0 -60 -41zM250 -40q37 0 53.5 -21.5t16.5 -68.5q0 -63 -31 -91.5t-99 -28.5v60q50 0 50 40q-32 0 -46 12t-14 38q0 32 16.5 46t53.5 14z" />
    <glyph glyph-name="uni021A" unicode="&#x21a;" horiz-adv-x="640" 
d="M620 700v-150h-200v-550h-200v550h-200v150h600zM320 -40q37 0 53.5 -21.5t16.5 -68.5q0 -63 -31 -91.5t-99 -28.5v60q50 0 50 40q-32 0 -46 12t-14 38q0 32 16.5 46t53.5 14z" />
    <glyph glyph-name="uni021B" unicode="&#x21b;" horiz-adv-x="450" 
d="M280 180q0 -22 14 -36t36 -14h90v-130h-160q-75 0 -117.5 42.5t-42.5 117.5v230h-80v110h80v130h180v-130h140v-110h-140v-210zM240 -40q37 0 53.5 -21.5t16.5 -68.5q0 -63 -31 -91.5t-99 -28.5v60q50 0 50 40q-32 0 -46 12t-14 38q0 32 16.5 46t53.5 14z" />
    <glyph glyph-name="circumflex" unicode="&#x2c6;" horiz-adv-x="380" 
d="M280 700l80 -150h-110l-60 70l-60 -70h-110l80 150h180z" />
    <glyph glyph-name="caron" unicode="&#x2c7;" horiz-adv-x="380" 
d="M360 700l-80 -150h-180l-80 150h110l60 -70l60 70h110z" />
    <glyph glyph-name="breve" unicode="&#x2d8;" horiz-adv-x="380" 
d="M240 700h120q0 -79 -40.5 -114.5t-129.5 -35.5t-129.5 35.5t-40.5 114.5h120q0 -32 12 -46t38 -14t38 14t12 46z" />
    <glyph glyph-name="dotaccent" unicode="&#x2d9;" horiz-adv-x="240" 
d="M120 750q52 0 76 -21.5t24 -68.5t-24 -68.5t-76 -21.5t-76 21.5t-24 68.5t24 68.5t76 21.5z" />
    <glyph glyph-name="ring" unicode="&#x2da;" horiz-adv-x="300" 
d="M150 730q68 0 99 -26t31 -84t-31 -84t-99 -26t-99 26t-31 84t31 84t99 26zM150 580q40 0 40 40t-40 40t-40 -40t40 -40z" />
    <glyph glyph-name="ogonek" unicode="&#x2db;" horiz-adv-x="224" 
d="M204 -90v-140q-30 -20 -70 -20q-47 0 -77 30t-36 71t15 89t68 80h90q-47 -31 -60 -75q-5 -40 30 -45q8 0 18 2.5t16 5.5z" />
    <glyph glyph-name="tilde" unicode="&#x2dc;" horiz-adv-x="380" 
d="M20 600q0 53 32.5 91.5t77.5 38.5q31 0 54 -11t33.5 -24t22 -24t20.5 -11q20 0 20 30h80q0 -53 -32.5 -91.5t-77.5 -38.5q-31 0 -54 11t-33.5 24t-22 24t-20.5 11q-20 0 -20 -30h-80z" />
    <glyph glyph-name="hungarumlaut" unicode="&#x2dd;" horiz-adv-x="520" 
d="M20 550l80 150h170l-120 -150h-130zM250 550l80 150h170l-120 -150h-130z" />
    <glyph glyph-name="Wgrave" unicode="&#x1e80;" horiz-adv-x="1020" 
d="M391 700h238l83 -495l98 495h200l-160 -700h-260l-87 487l-73 -487h-260l-160 700h200l98 -495zM459 870l100 -120h-130l-130 120h160z" />
    <glyph glyph-name="wgrave" unicode="&#x1e81;" horiz-adv-x="870" 
d="M151 0h-1l-140 500h180l78 -350l62 350h220l54 -344l76 344h180l-140 -500h-220l-65 366l-65 -366h-219zM505 550h-140l-130 150h180z" />
    <glyph glyph-name="Wacute" unicode="&#x1e82;" horiz-adv-x="1020" 
d="M391 700h238l83 -495l98 495h200l-160 -700h-260l-87 487l-73 -487h-260l-160 700h200l98 -495zM424 750l90 120h170l-120 -120h-140z" />
    <glyph glyph-name="wacute" unicode="&#x1e83;" horiz-adv-x="870" 
d="M151 0h-1l-140 500h180l78 -350l62 350h220l54 -344l76 344h180l-140 -500h-220l-65 366l-65 -366h-219zM335 550l90 150h180l-130 -150h-140z" />
    <glyph glyph-name="Wdieresis" unicode="&#x1e84;" horiz-adv-x="1020" 
d="M391 700h238l83 -495l98 495h200l-160 -700h-260l-87 487l-73 -487h-260l-160 700h200l98 -495zM374 890q53 0 76.5 -19t23.5 -61t-23.5 -61t-76.5 -19q-52 0 -76 19t-24 61t24 61t76 19zM634 890q52 0 76 -19t24 -61t-24 -61t-76 -19t-76 19t-24 61t24 61t76 19z" />
    <glyph glyph-name="wdieresis" unicode="&#x1e85;" horiz-adv-x="870" 
d="M151 0h-1l-140 500h180l78 -350l62 350h220l54 -344l76 344h180l-140 -500h-220l-65 366l-65 -366h-219zM305 750q52 0 76 -22.5t24 -72.5t-24 -72.5t-76 -22.5q-53 0 -76.5 22.5t-23.5 72.5t24 72.5t76 22.5zM545 750q52 0 76 -22.5t24 -72.5t-24 -72.5t-76 -22.5
q-53 0 -76.5 22.5t-23.5 72.5t24 72.5t76 22.5z" />
    <glyph glyph-name="uni1E9E" unicode="&#x1e9e;" horiz-adv-x="680" 
d="M340 720q146 0 213 -46t67 -144q0 -51 -21 -83.5t-69 -56.5q63 -26 91.5 -68.5t28.5 -111.5q0 -110 -52 -160t-168 -50q-27 0 -54.5 5t-41.5 10l-14 5v120q30 -10 60 -10q47 0 68.5 21.5t21.5 68.5q0 52 -31 76t-99 24v120q58 0 84 16.5t26 53.5q0 42 -24 61t-76 19
q-110 0 -110 -100v-490h-180v470q0 250 280 250z" />
    <glyph glyph-name="Ygrave" unicode="&#x1ef2;" horiz-adv-x="680" 
d="M440 260v-260h-190v260l-250 440h220l125 -250l125 250h210zM430 750h-130l-130 120h160z" />
    <glyph glyph-name="ygrave" unicode="&#x1ef3;" horiz-adv-x="540" 
d="M281 222l89 278h170l-170 -490q-41 -119 -76 -154.5t-104 -35.5h-120v110h70q14 0 21 1.5t16.5 7.5t17 21t15.5 40l4 13l-214 487h170zM360 550h-140l-130 150h180z" />
    <glyph glyph-name="endash" unicode="&#x2013;" horiz-adv-x="560" 
d="M540 330v-130h-520v130h520z" />
    <glyph glyph-name="emdash" unicode="&#x2014;" horiz-adv-x="780" 
d="M760 330v-130h-740v130h740z" />
    <glyph glyph-name="quoteleft" unicode="&#x2018;" horiz-adv-x="240" 
d="M130 330q-58 0 -84 35.5t-26 114.5q0 116 45 168t145 52v-80q-42 0 -61 -24t-19 -76q47 0 68.5 -22.5t21.5 -72.5t-21.5 -72.5t-68.5 -22.5z" />
    <glyph glyph-name="quoteright" unicode="&#x2019;" horiz-adv-x="240" 
d="M110 710q58 0 84 -35.5t26 -114.5q0 -116 -45 -168t-145 -52v80q42 0 61 24t19 76q-47 0 -68.5 22.5t-21.5 72.5t21.5 72.5t68.5 22.5z" />
    <glyph glyph-name="quotesinglbase" unicode="&#x201a;" horiz-adv-x="240" 
d="M110 180q58 0 84 -35.5t26 -114.5q0 -116 -45 -168t-145 -52v80q42 0 61 24t19 76q-47 0 -68.5 22.5t-21.5 72.5t21.5 72.5t68.5 22.5z" />
    <glyph glyph-name="quotedblleft" unicode="&#x201c;" horiz-adv-x="500" 
d="M130 330q-58 0 -84 35.5t-26 114.5q0 116 45 168t145 52v-80q-42 0 -61 -24t-19 -76q47 0 68.5 -22.5t21.5 -72.5t-21.5 -72.5t-68.5 -22.5zM390 330q-58 0 -84 35.5t-26 114.5q0 116 45 168t145 52v-80q-42 0 -61 -24t-19 -76q47 0 68.5 -22.5t21.5 -72.5t-21.5 -72.5
t-68.5 -22.5z" />
    <glyph glyph-name="quotedblright" unicode="&#x201d;" horiz-adv-x="500" 
d="M110 710q58 0 84 -35.5t26 -114.5q0 -116 -45 -168t-145 -52v80q42 0 61 24t19 76q-47 0 -68.5 22.5t-21.5 72.5t21.5 72.5t68.5 22.5zM370 710q58 0 84 -35.5t26 -114.5q0 -116 -45 -168t-145 -52v80q42 0 61 24t19 76q-47 0 -68.5 22.5t-21.5 72.5t21.5 72.5t68.5 22.5
z" />
    <glyph glyph-name="quotedblbase" unicode="&#x201e;" horiz-adv-x="500" 
d="M110 180q58 0 84 -35.5t26 -114.5q0 -116 -45 -168t-145 -52v80q42 0 61 24t19 76q-47 0 -68.5 22.5t-21.5 72.5t21.5 72.5t68.5 22.5zM370 180q58 0 84 -35.5t26 -114.5q0 -116 -45 -168t-145 -52v80q42 0 61 24t19 76q-47 0 -68.5 22.5t-21.5 72.5t21.5 72.5t68.5 22.5
z" />
    <glyph glyph-name="ellipsis" unicode="&#x2026;" horiz-adv-x="859" 
d="M120 180q52 0 76 -22.5t24 -72.5t-24 -72.5t-76 -22.5q-53 0 -76.5 22.5t-23.5 72.5t24 72.5t76 22.5zM429 180q52 0 76 -22.5t24 -72.5t-24 -72.5t-76 -22.5q-53 0 -76.5 22.5t-23.5 72.5t24 72.5t76 22.5zM739 180q52 0 76 -22.5t24 -72.5t-24 -72.5t-76 -22.5
q-53 0 -76.5 22.5t-23.5 72.5t24 72.5t76 22.5z" />
    <glyph glyph-name="perthousand" unicode="&#x2030;" horiz-adv-x="1310" 
d="M700 390q94 0 137 -47.5t43 -152.5t-43 -152.5t-137 -47.5t-137 47.5t-43 152.5t43 152.5t137 47.5zM700 90q26 0 38 24t12 76t-12 76t-38 24t-38 -24t-12 -76t12 -76t38 -24zM1110 390q94 0 137 -47.5t43 -152.5t-43 -152.5t-137 -47.5t-137 47.5t-43 152.5t43 152.5
t137 47.5zM1110 90q26 0 38 24t12 76t-12 76t-38 24t-38 -24t-12 -76t12 -76t38 -24zM200 710q94 0 137 -47.5t43 -152.5t-43 -152.5t-137 -47.5t-137 47.5t-43 152.5t43 152.5t137 47.5zM200 410q26 0 38 24t12 76t-12 76t-38 24t-38 -24t-12 -76t12 -76t38 -24zM310 -30
h-160l440 760h160z" />
    <glyph glyph-name="guilsinglleft" unicode="&#x2039;" horiz-adv-x="340" 
d="M150 450h170l-120 -190l120 -200h-170l-130 200z" />
    <glyph glyph-name="guilsinglright" unicode="&#x203a;" horiz-adv-x="340" 
d="M190 450l130 -190l-130 -200h-170l120 200l-120 190h170z" />
    <glyph glyph-name="lira" unicode="&#x20a4;" horiz-adv-x="689" 
d="M649 140v-140h-599v160q52 20 70 70h-70v90h80v30h-80v90h80v60q-1 116 58.5 168t191.5 52q126 0 183 -52t57 -168h-170q0 52 -16.5 76t-53.5 24t-53.5 -24t-16.5 -76v-60h220v-90h-220v-30h220v-90h-230q-20 -62 -91 -90h440z" />
    <glyph glyph-name="Euro" unicode="&#x20ac;" horiz-adv-x="830" 
d="M600 240v-2h200q-29 -137 -110 -198.5t-230 -61.5q-165 0 -252.5 62.5t-109.5 197.5h-88v90h80v21v21h-80v90h88q22 135 109.5 197.5t252.5 62.5q159 0 239.5 -62t100.5 -198h-200q-11 58 -44.5 84t-95.5 26q-118 0 -147 -110h208v-90h-220v-20v-20h180v-90h-168
q29 -110 147 -110q62 0 95.5 26t44.5 84z" />
    <glyph glyph-name="trademark" unicode="&#x2122;" horiz-adv-x="1270" 
d="M470 700v-140h-140v-360h-170v360h-140v140h450zM700 489v-289h-170v500h230l115 -319l115 319h220v-500h-170v289l-110 -289h-120z" />
    <glyph glyph-name="minus" unicode="&#x2212;" horiz-adv-x="390" 
d="M360 200h-330v130h330v-130z" />
    <glyph glyph-name="approxequal" unicode="&#x2248;" horiz-adv-x="660" 
d="M30 110v120q41 41 86.5 53.5t88.5 2.5t88 -29t89 -39t85 -31.5t84 -2t79 45.5v-120q-41 -41 -86.5 -53.5t-88.5 -2.5t-88 29t-89 39t-85 31.5t-84 2t-79 -45.5zM30 310v120q41 41 86.5 53.5t88.5 2.5t88 -29t89 -39t85 -31.5t84 -2t79 45.5v-120q-41 -41 -86.5 -53.5
t-88.5 -2.5t-88 29t-89 39t-85 31.5t-84 2t-79 -45.5z" />
    <glyph glyph-name="notequal" unicode="&#x2260;" horiz-adv-x="640" 
d="M180 0l36 100h-196v130h243l25 70h-268v130h315l25 70h100l-25 -70h185v-130h-232l-25 -70h257v-130h-304l-36 -100h-100z" />
    <glyph glyph-name="lessequal" unicode="&#x2264;" horiz-adv-x="440" 
d="M20 0v140h400v-140h-400zM20 540l400 160v-160l-225 -90l225 -90v-160l-400 160v180z" />
    <glyph glyph-name="greaterequal" unicode="&#x2265;" horiz-adv-x="440" 
d="M20 0v140h400v-140h-400zM20 700l400 -160v-180l-400 -160v160l225 90l-225 90v160z" />
    <glyph glyph-name="uniE132" unicode="&#xe132;" horiz-adv-x="570" 
d="M230 0h-180v500h180v-500zM300 -50q22 0 36 14t14 36v500h180v-520q0 -75 -42.5 -117.5t-117.5 -42.5h-160v130h90zM50 550l90 150h180l-130 -150h-140zM350 550l90 150h180l-130 -150h-140z" />
    <glyph glyph-name="uniE133" unicode="&#xe133;" horiz-adv-x="920" 
d="M60 700h200v-700h-200v700zM350 210v40h190v-40q0 -42 14 -61t46 -19t46 19t14 61v490h200v-490q0 -117 -62.5 -173.5t-197.5 -56.5q-130 0 -190 56.5t-60 173.5zM80 750l90 120h170l-120 -120h-140zM680 750l90 120h170l-120 -120h-140z" />
    <glyph glyph-name="a.alt1" horiz-adv-x="611" 
d="M398 460l23 40h140v-500h-140l-23 40q-53 -50 -158 -50q-116 0 -168 62t-52 198t52 198t168 62q105 0 158 -50zM291 120q47 0 68.5 31t21.5 99t-21.5 99t-68.5 31t-68.5 -31t-21.5 -99t21.5 -99t68.5 -31z" />
    <glyph glyph-name="aacute.alt1" horiz-adv-x="611" 
d="M398 460l23 40h140v-500h-140l-23 40q-53 -50 -158 -50q-116 0 -168 62t-52 198t52 198t168 62q105 0 158 -50zM291 120q47 0 68.5 31t21.5 99t-21.5 99t-68.5 31t-68.5 -31t-21.5 -99t21.5 -99t68.5 -31zM211 550l90 150h180l-130 -150h-140z" />
    <glyph glyph-name="aacutering.alt1" horiz-adv-x="611" 
d="M398 460l23 40h140v-500h-140l-23 40q-53 -50 -158 -50q-116 0 -168 62t-52 198t52 198t168 62q105 0 158 -50zM291 120q47 0 68.5 31t21.5 99t-21.5 99t-68.5 31t-68.5 -31t-21.5 -99t21.5 -99t68.5 -31zM311 730l-1 -1h15l46 50h130l-93 -79q33 -27 33 -70
q0 -45 -35 -72.5t-95 -27.5t-95 27.5t-35 72.5t35 72.5t95 27.5zM310 599q40 0 40 30t-40 30t-40 -30t40 -30z" />
    <glyph glyph-name="abreve.alt1" horiz-adv-x="611" 
d="M398 460l23 40h140v-500h-140l-23 40q-53 -50 -158 -50q-116 0 -168 62t-52 198t52 198t168 62q105 0 158 -50zM291 120q47 0 68.5 31t21.5 99t-21.5 99t-68.5 31t-68.5 -31t-21.5 -99t21.5 -99t68.5 -31zM361 700h120q0 -79 -40.5 -114.5t-129.5 -35.5t-129.5 35.5
t-40.5 114.5h120q0 -32 12 -46t38 -14t38 14t12 46z" />
    <glyph glyph-name="acircumflex.alt1" horiz-adv-x="611" 
d="M398 460l23 40h140v-500h-140l-23 40q-53 -50 -158 -50q-116 0 -168 62t-52 198t52 198t168 62q105 0 158 -50zM291 120q47 0 68.5 31t21.5 99t-21.5 99t-68.5 31t-68.5 -31t-21.5 -99t21.5 -99t68.5 -31zM401 700l80 -150h-110l-60 70l-60 -70h-110l80 150h180z" />
    <glyph glyph-name="acute.case" horiz-adv-x="300" 
d="M20 550l90 120h170l-120 -120h-140z" />
    <glyph glyph-name="adieresis.alt1" horiz-adv-x="561" 
d="M398 460l23 40h140v-500h-140l-23 40q-53 -50 -158 -50q-116 0 -168 62t-52 198t52 198t168 62q105 0 158 -50zM291 120q47 0 68.5 31t21.5 99t-21.5 99t-68.5 31t-68.5 -31t-21.5 -99t21.5 -99t68.5 -31zM191 750q52 0 76 -22.5t24 -72.5t-24 -72.5t-76 -22.5
q-53 0 -76.5 22.5t-23.5 72.5t24 72.5t76 22.5zM431 750q52 0 76 -22.5t24 -72.5t-24 -72.5t-76 -22.5q-53 0 -76.5 22.5t-23.5 72.5t24 72.5t76 22.5z" />
    <glyph glyph-name="agrave.alt1" horiz-adv-x="611" 
d="M398 460l23 40h140v-500h-140l-23 40q-53 -50 -158 -50q-116 0 -168 62t-52 198t52 198t168 62q105 0 158 -50zM291 120q47 0 68.5 31t21.5 99t-21.5 99t-68.5 31t-68.5 -31t-21.5 -99t21.5 -99t68.5 -31zM271 700l90 -150h-140l-130 150h180z" />
    <glyph glyph-name="amacron.alt1" horiz-adv-x="611" 
d="M398 460l23 40h140v-500h-140l-23 40q-53 -50 -158 -50q-116 0 -168 62t-52 198t52 198t168 62q105 0 158 -50zM291 120q47 0 68.5 31t21.5 99t-21.5 99t-68.5 31t-68.5 -31t-21.5 -99t21.5 -99t68.5 -31zM140 580v100h340v-100h-340z" />
    <glyph glyph-name="aogonek.alt1" horiz-adv-x="611" 
d="M537 -90v-1h-2v-139q-30 -20 -70 -20q-60 0 -91.5 44t-20 105.5t63.5 106.5l-19 34q-53 -50 -158 -50q-116 0 -168 62t-52 198t52 198t168 62q105 0 158 -50l23 40h140v-500h-60q-33 -33 -37 -65.5t32 -34.5q12 0 39 9v1h2zM291 119q47 0 68.5 31t21.5 99t-21.5 99
t-68.5 31t-68.5 -31t-21.5 -99t21.5 -99t68.5 -31z" />
    <glyph glyph-name="aring.alt1" horiz-adv-x="611" 
d="M398 460l23 40h140v-500h-140l-23 40q-53 -50 -158 -50q-116 0 -168 62t-52 198t52 198t168 62q105 0 158 -50zM291 120q47 0 68.5 31t21.5 99t-21.5 99t-68.5 31t-68.5 -31t-21.5 -99t21.5 -99t68.5 -31zM311 750q68 0 99 -26t31 -84t-31 -84t-99 -26t-99 26t-31 84
t31 84t99 26zM311 600q40 0 40 40t-40 40t-40 -40t40 -40z" />
    <glyph glyph-name="atilde.alt1" horiz-adv-x="611" 
d="M398 460l23 40h140v-500h-140l-23 40q-53 -50 -158 -50q-116 0 -168 62t-52 198t52 198t168 62q105 0 158 -50zM291 120q47 0 68.5 31t21.5 99t-21.5 99t-68.5 31t-68.5 -31t-21.5 -99t21.5 -99t68.5 -31zM141 580q0 53 32.5 91.5t77.5 38.5q31 0 54 -11t33.5 -24t22 -24
t20.5 -11q20 0 20 30h80q0 -53 -32.5 -91.5t-77.5 -38.5q-31 0 -54 11t-33.5 24t-22 24t-20.5 11q-20 0 -20 -30h-80z" />
    <glyph glyph-name="breve.case" horiz-adv-x="380" 
d="M360 670q0 -63 -40.5 -91.5t-129.5 -28.5t-129.5 28.5t-40.5 91.5h130q0 -40 40 -40t40 40h130z" />
    <glyph glyph-name="caron.case" horiz-adv-x="380" 
d="M360 670l-80 -120h-180l-80 120h120l50 -50l50 50h120z" />
    <glyph glyph-name="circumflex.case" horiz-adv-x="380" 
d="M360 550h-120l-50 50l-50 -50h-120l80 120h180z" />
    <glyph glyph-name="commaaccent" horiz-adv-x="180" 
d="M90 -40q37 0 53.5 -21.5t16.5 -68.5q0 -63 -31 -91.5t-99 -28.5v60q50 0 50 40q-32 0 -46 12t-14 38q0 32 16.5 46t53.5 14z" />
    <glyph glyph-name="dieresis.case" horiz-adv-x="499" 
d="M120 720q52 0 76 -19t24 -61t-24 -61t-76 -19t-76 19t-24 61t24 61t76 19zM379 720q53 0 76.5 -19t23.5 -61t-23.5 -61t-76.5 -19q-52 0 -76 19t-24 61t24 61t76 19z" />
    <glyph glyph-name="dotaccent.case" horiz-adv-x="240" 
d="M120 710q52 0 76 -19t24 -61t-24 -61t-76 -19t-76 19t-24 61t24 61t76 19z" />
    <glyph glyph-name="grave.case" horiz-adv-x="300" 
d="M180 670l100 -120h-130l-130 120h160z" />
    <glyph glyph-name="hungarumlaut.case" horiz-adv-x="500" 
d="M20 550l80 120h160l-110 -120h-130zM240 550l80 120h160l-110 -120h-130z" />
    <glyph glyph-name="tilde.case" horiz-adv-x="380" 
d="M20 580q0 51 31.5 80.5t78.5 29.5q51 0 88.5 -20t51.5 -20q8 0 14 6t6 14h70q0 -51 -31.5 -80.5t-78.5 -29.5q-51 0 -88.5 20t-51.5 20q-8 0 -14 -6t-6 -14h-70z" />
    </font>
</defs>
</svg>
