<?xml version="1.0" standalone="no"?>
<!DOCTYPE svg PUBLIC "-//W3C//DTD SVG 1.1//EN" "http://www.w3.org/Graphics/SVG/1.1/DTD/svg11.dtd" >
<svg xmlns="http://www.w3.org/2000/svg" xmlns:xlink="http://www.w3.org/1999/xlink" version="1.1">
<metadata>
Created by FontForge 20170731 at Thu Jun 29 23:42:19 2017
 By ,,,
Copyright (c) 2017 by Alexander Slobzheninov. All rights reserved.
</metadata>
<defs>
<font id="FivoSans-HeavyOblique" horiz-adv-x="600" >
  <font-face 
    font-family="Fivo Sans Heavy"
    font-weight="900"
    font-style="oblique"
    font-stretch="normal"
    units-per-em="1000"
    panose-1="0 0 0 0 0 0 0 0 0 0"
    ascent="800"
    descent="-200"
    x-height="500"
    cap-height="700"
    bbox="-105 -252 1320.66 960"
    underline-thickness="50"
    underline-position="-225"
    unicode-range="U+000D-E133"
  />
<missing-glyph horiz-adv-x="200" 
 />
    <glyph glyph-name=".notdef" horiz-adv-x="200" 
 />
    <glyph glyph-name=".null" horiz-adv-x="0" 
 />
    <glyph glyph-name="nonmarkingreturn" horiz-adv-x="333" 
 />
    <glyph glyph-name="NULL" horiz-adv-x="740" 
d="M158 700h620l-98 -700h-620zM307 550l-56 -400h280l56 400h-280z" />
    <glyph glyph-name="NULL" horiz-adv-x="740" 
d="M158 700h620l-98 -700h-620zM307 550l-56 -400h280l56 400h-280z" />
    <glyph glyph-name="CR" unicode="&#xd;" horiz-adv-x="250" 
 />
    <glyph glyph-name="space" unicode=" " horiz-adv-x="300" 
 />
    <glyph glyph-name="exclam" unicode="!" horiz-adv-x="300" 
d="M175 180q53 0 73.5 -22.5t13.5 -72.5t-34 -72.5t-79 -22.5q-53 0 -73.5 22.5t-13.5 72.5q5 34 18.5 54.5t36.5 30.5t58 10zM153 700h190l-26 -190l-75 -250h-110l-5 250z" />
    <glyph glyph-name="quotedbl" unicode="&#x22;" horiz-adv-x="440" 
d="M288 700l-19 -140l-54 -240h-120l14 240l19 140h160zM508 700l-19 -140l-54 -240h-120l14 240l19 140h160z" />
    <glyph glyph-name="numbersign" unicode="#" horiz-adv-x="710" 
d="M54 170l17 120h141l25 90h-124l17 120h141l57 200h130l-57 -200h90l57 200h130l-57 -200h129l-17 -120h-146l-25 -90h129l-17 -120h-146l-48 -170h-130l48 170h-90l-48 -170h-130l48 170h-124zM432 290l25 90h-90l-25 -90h90z" />
    <glyph glyph-name="dollar" unicode="$" horiz-adv-x="660" 
d="M413 590q-53 0 -79 -16.5t-31 -53.5q-3 -19 12.5 -33.5t42.5 -23t61.5 -18.5t70.5 -19.5t69.5 -27t58.5 -40.5t36.5 -61t5.5 -86q-15 -107 -78 -161.5t-184 -65.5l-12 -83h-140l12 83q-119 10 -166.5 62.5t-33.5 154.5h180q-6 -47 19.5 -68.5t88.5 -21.5q57 0 85.5 16.5
t33.5 53.5q4 25 -10.5 43.5t-41.5 29t-61 21.5t-70.5 20t-70 25t-59 36.5t-37.5 55t-6 79.5q15 106 75.5 160.5t176.5 65.5l11 83h140l-11 -83q113 -11 158.5 -63.5t30.5 -153.5h-180q7 47 -16 68.5t-81 21.5z" />
    <glyph glyph-name="percent" unicode="%" horiz-adv-x="900" 
d="M299.5 710q94.5 0 130.5 -47.5t21.5 -152.5t-64 -152.5t-144 -47.5t-130.5 47.5t-21.5 152.5t64 152.5t144 47.5zM258 410q26 0 41 24t22.5 76.5t-1 76t-35 23.5t-41.5 -24t-22 -76q-5 -35 -3 -57t11.5 -32.5t27.5 -10.5zM306 -30h-160l547 760h160zM754.5 390
q94.5 0 130.5 -47.5t21.5 -152.5t-64 -152.5t-144 -47.5t-130.5 47.5t-21.5 152.5t64 152.5t144 47.5zM713 90q26 0 41 24t23 76q5 35 2.5 57t-12 32.5t-27 10.5t-30 -10.5t-20.5 -32.5t-13 -57t-3 -57t11.5 -32.5t27.5 -10.5z" />
    <glyph glyph-name="ampersand" unicode="&#x26;" horiz-adv-x="799" 
d="M55 180q10 71 58 122t123 90q-52 77 -44 137q14 100 75 145t182 45q116 0 162.5 -38t35.5 -122q-5 -32 -21 -59t-43 -50t-53 -39t-64 -36l100 -113q16 36 31 88h140q-28 -116 -76 -193l138 -157h-229l-31 36q-95 -56 -242 -56q-142 0 -199 47.5t-43 152.5zM451 136
l-137 159q-62 -43 -69 -94q-6 -47 14.5 -68.5t73.5 -21.5q69 0 118 25zM390 464v-1q32 15 52 27t35 28t17 33q5 32 -9.5 46t-51.5 14q-19 0 -32.5 -3.5t-23 -11t-15 -18.5t-8.5 -27q-5 -35 36 -87z" />
    <glyph glyph-name="quotesingle" unicode="'" horiz-adv-x="200" 
d="M278 700l-19 -140l-54 -240h-120l14 240l19 140h160z" />
    <glyph glyph-name="parenleft" unicode="(" horiz-adv-x="300" 
d="M132 -200q-11 23 -16 35.5t-18.5 49t-20.5 71.5t-14 83t-6 104.5t10 116.5q5 40 13.5 78.5t20.5 72.5t22.5 62.5t25.5 57t25.5 47.5t26 42t22.5 33t20.5 27.5t14.5 19.5h140q-21 -29 -30.5 -42.5t-38 -61t-45.5 -89t-37 -109t-30 -138.5q-37 -260 55 -460h-140z" />
    <glyph glyph-name="parenright" unicode=")" horiz-adv-x="300" 
d="M112 -200h-140q148 200 185 460q6 45 8.5 87.5t-0.5 80.5t-5 67t-11 61t-12.5 48t-14.5 42.5t-12.5 29.5t-11.5 24h140q1 -2 9.5 -19.5t13 -27.5t13.5 -33t14 -42t12 -47.5t10 -57t5 -62.5t-0.5 -72.5t-7.5 -78.5q-10 -71 -31.5 -140t-41 -114.5t-49 -95t-41.5 -66
t-32 -44.5z" />
    <glyph glyph-name="asterisk" unicode="*" horiz-adv-x="340" 
d="M316 629l57 30l30 -69l-56 -30l-38 -10l34 -11l49 -30l-50 -69l-48 30l-23 26l4 -36l-9 -60h-80l9 60l14 36l-31 -26l-56 -30l-30 69l56 30l37 11l-34 10l-48 30l50 69l47 -30l24 -26l-4 37l8 60h80l-8 -60l-14 -37z" />
    <glyph glyph-name="plus" unicode="+" horiz-adv-x="580" 
d="M595 320l-18 -130h-190l-27 -190h-140l27 190h-190l18 130h190l25 180h140l-25 -180h190z" />
    <glyph glyph-name="comma" unicode="," horiz-adv-x="240" 
d="M135 180q58 0 79 -35.5t10 -114.5q-16 -115 -68.5 -167.5t-152.5 -52.5l12 80q42 0 64 24t30 76q-48 0 -66 22.5t-11 72.5q5 33 17 54t33.5 31t52.5 10z" />
    <glyph glyph-name="hyphen" unicode="-" horiz-adv-x="390" 
d="M388 200h-330l18 130h330z" />
    <glyph glyph-name="period" unicode="." horiz-adv-x="240" 
d="M145.5 180q52.5 0 73 -22.5t13.5 -72.5q-5 -33 -18 -54t-36.5 -31t-58.5 -10q-53 0 -73.5 22.5t-13.5 72.5t34 72.5t79.5 22.5z" />
    <glyph glyph-name="slash" unicode="/" horiz-adv-x="400" 
d="M338 700h160l-338 -700h-160z" />
    <glyph glyph-name="zero" unicode="0" horiz-adv-x="720" 
d="M461 720q173 0 239 -88t39 -282t-118 -282t-264 -88t-239 88t-39 282q28 195 118.5 282.5t263.5 87.5zM375 110q74 0 115 57t59 183t-7.5 183t-99 57t-114.5 -57t-59 -183q-8 -63 -6.5 -108.5t14.5 -74.5t37 -43t61 -14z" />
    <glyph glyph-name="one" unicode="1" horiz-adv-x="370" 
d="M90 570l18 130h300l-98 -700h-180l80 570h-120z" />
    <glyph glyph-name="two" unicode="2" horiz-adv-x="590" 
d="M298 130h270l-18 -130h-520l15 110q58 46 130 99.5t111.5 83t79.5 65t59 66.5t24 66q7 53 -8.5 76.5t-57.5 23.5t-65 -28.5t-32 -91.5h-180q19 131 89 190.5t206.5 59.5t190.5 -54.5t37 -175.5q-3 -19 -9 -37.5t-13 -34t-20 -33.5t-24 -31.5t-31 -32.5t-35 -32t-42 -35.5
t-46 -37t-53.5 -41.5z" />
    <glyph glyph-name="three" unicode="3" horiz-adv-x="640" 
d="M352 300h-50l17 120h50q39 0 64 8.5t39 26t18 45.5q7 47 -14 68.5t-73.5 21.5t-79.5 -26t-36 -84h-160q18 126 88 183t206.5 57t191 -50t39.5 -160q-5 -36 -19.5 -64t-31 -41.5t-32.5 -22t-26 -10.5l-11 -2q5 -1 13.5 -3t29.5 -13t36 -27t24.5 -47t4.5 -70
q-17 -121 -94 -175.5t-229 -54.5t-212.5 59.5t-42.5 190.5h170q-9 -63 15.5 -91.5t87.5 -28.5q58 0 87.5 24t37.5 76q6 47 -19.5 68.5t-88.5 21.5z" />
    <glyph glyph-name="four" unicode="4" horiz-adv-x="630" 
d="M438 700h200l-57 -410h70l-19 -130h-70l-22 -160h-180l22 160h-340l22 150zM218 290h183l32 226z" />
    <glyph glyph-name="five" unicode="5" horiz-adv-x="620" 
d="M330 570l-34 -108q47 18 111 18q88 0 139.5 -26t70 -81t5.5 -143q-18 -131 -97.5 -190.5t-237.5 -59.5q-128 0 -182.5 52t-46.5 168h160q1 -32 11.5 -51.5t31.5 -29t54 -9.5q58 0 88 28.5t39 91.5t-13 91.5t-80 28.5q-45 0 -70.5 -14t-37.5 -46h-150l127 410h420
l-18 -130h-290z" />
    <glyph glyph-name="six" unicode="6" horiz-adv-x="630" 
d="M78 340q28 199 109.5 289.5t233.5 90.5q116 0 171 -47.5t61 -152.5h-170q-3 28 -12 45.5t-25.5 26t-41.5 8.5q-57 0 -89.5 -42.5t-45.5 -137.5q1 2 4 6.5t15 14.5t29 18t48.5 14.5t69.5 6.5q117 0 166.5 -60t31.5 -187q-19 -133 -94 -193t-222 -60q-152 0 -209 85.5
t-30 274.5zM369 350q-35 0 -58.5 -12.5t-38 -39t-20.5 -68.5q-9 -63 11 -91.5t72.5 -28.5t80 28.5t36.5 91.5t-10.5 91.5t-72.5 28.5z" />
    <glyph glyph-name="seven" unicode="7" horiz-adv-x="570" 
d="M638 700l-15 -110l-383 -590h-190l380 570h-320l18 130h510z" />
    <glyph glyph-name="eight" unicode="8" horiz-adv-x="660" 
d="M672 510q-14 -99 -90 -141q94 -45 76 -169q-16 -115 -94.5 -167.5t-236 -52.5t-221.5 52t-48 168q18 124 124 169q-64 42 -50 141q15 110 86 160t213 50t199 -50t42 -160zM345.5 110q62.5 0 94.5 23t39 72q7 51 -18 73t-88.5 22t-95 -22t-38.5 -73q-7 -49 18.5 -72
t88 -23zM413 590q-26 0 -46 -5t-33.5 -15.5t-21.5 -26.5t-11 -38q-6 -45 14.5 -65t73.5 -20t79.5 20t32.5 65q6 44 -15 64.5t-73 20.5z" />
    <glyph glyph-name="nine" unicode="9" horiz-adv-x="630" 
d="M651 360q-28 -200 -110 -290t-234 -90q-115 0 -170 47.5t-62 152.5h170q3 -28 12.5 -45.5t25.5 -26t41 -8.5q58 0 90 42.5t45 137.5q-1 -2 -3.5 -6.5t-15 -14.5t-29 -18t-48 -14.5t-70.5 -6.5q-117 0 -166 60t-31 190q19 131 93.5 190.5t221.5 59.5q152 0 209 -85.5
t31 -274.5zM359 350q53 0 80.5 28.5t36.5 91.5t-11 91.5t-72.5 28.5t-80 -28.5t-36.5 -91.5q-4 -32 -1.5 -54.5t12.5 -37t28 -21.5t44 -7z" />
    <glyph glyph-name="colon" unicode=":" horiz-adv-x="300" 
d="M175.5 181q52.5 0 73 -22.5t13.5 -72.5t-34 -72.5t-79 -22.5q-53 0 -73.5 22.5t-13.5 72.5t34 72.5t79.5 22.5zM220.5 500q52.5 0 73 -22.5t13.5 -72.5t-34 -72.5t-79 -22.5q-53 0 -73.5 22.5t-13.5 72.5t34 72.5t79.5 22.5z" />
    <glyph glyph-name="semicolon" unicode=";" horiz-adv-x="240" 
d="M190.5 500q52.5 0 73 -22.5t13.5 -72.5t-34 -72.5t-79 -22.5q-53 0 -73.5 22.5t-13.5 72.5t34 72.5t79.5 22.5zM135 180q58 0 79 -35.5t10 -114.5q-16 -115 -68.5 -167.5t-152.5 -52.5l12 80q42 0 64 24t30 76q-48 0 -66 22.5t-11 72.5q5 33 17 54t33.5 31t52.5 10z" />
    <glyph glyph-name="less" unicode="&#x3c;" horiz-adv-x="440" 
d="M68 340l422 160l-22 -160l-238 -90l212 -90l-22 -160l-378 160z" />
    <glyph glyph-name="equal" unicode="=" horiz-adv-x="640" 
d="M652 230l-18 -130h-600l18 130h600zM680 430l-18 -130h-600l18 130h600z" />
    <glyph glyph-name="greater" unicode="&#x3e;" horiz-adv-x="440" 
d="M468 340l-26 -180l-422 -160l22 160l238 90l-212 90l22 160z" />
    <glyph glyph-name="question" unicode="?" horiz-adv-x="560" 
d="M290 180q53 0 73.5 -22.5t13.5 -72.5t-34 -72.5t-79 -22.5q-53 0 -73.5 22.5t-13.5 72.5q5 34 18.5 54.5t36.5 30.5t58 10zM227 260q6 49 23 85t37.5 54t43.5 33.5t42 25.5t33.5 28.5t17.5 43.5q5 32 -12 46t-59 14t-64.5 -24t-29.5 -76h-170q17 121 86.5 175.5t206 54.5
t192 -45t40.5 -145q-5 -42 -24.5 -72.5t-43.5 -46.5t-52.5 -31t-52.5 -27.5t-42 -36t-22 -56.5h-150z" />
    <glyph glyph-name="at" unicode="@" horiz-adv-x="910" 
d="M595 419l30 41h100l-38 -270q-5 -37 2 -53.5t28 -16.5q26 0 42.5 31t25.5 99q22 158 -36.5 229t-211.5 71q-157 0 -238.5 -71.5t-103.5 -228.5q-21 -152 28.5 -221t180.5 -69q46 0 85.5 11t56.5 21t25 18l-16 -120q-13 -12 -60 -26t-106 -14q-200 0 -276.5 94.5
t-47.5 305.5q30 215 146 312.5t342 97.5q220 0 306 -97.5t56 -312.5q-17 -119 -69.5 -174.5t-142.5 -55.5q-114 0 -146 61q-51 -41 -142 -41q-99 0 -137 50t-23 160q7 46 19 82t30 62t43 43t57 25t72 8q74 0 119 -51zM460 140q21 0 37 6.5t27.5 20t19 34t11.5 49.5
q8 58 -7 84t-57 26q-29 0 -48 -11.5t-30.5 -35.5t-17.5 -63q-8 -58 7.5 -84t57.5 -26z" />
    <glyph glyph-name="A" unicode="A" horiz-adv-x="700" 
d="M700 0h-211l-16 130h-219l-54 -130h-200l318 700h280zM424 533l-115 -273h149z" />
    <glyph glyph-name="B" unicode="B" horiz-adv-x="690" 
d="M602 370q4 -2 11 -5t24 -16.5t29.5 -30t20 -45.5t3.5 -63q-16 -110 -90 -160t-220 -50h-320l98 700h310q137 0 192.5 -45t41.5 -145q-5 -31 -16.5 -56.5t-25.5 -40.5t-27 -25t-22 -14zM368 130q35 0 58.5 8.5t36.5 26t17 45.5q6 47 -14.5 68.5t-73.5 21.5h-90l-24 -170
h90zM340 570l-21 -150h80q28 0 47 8.5t29.5 26t14.5 45.5q5 37 -11.5 53.5t-58.5 16.5h-80z" />
    <glyph glyph-name="C" unicode="C" horiz-adv-x="770" 
d="M574 240h200q-49 -137 -138.5 -198.5t-238.5 -61.5q-194 0 -269.5 88t-48.5 282t127.5 282t294.5 88q159 0 231 -62t73 -198h-200q-3 58 -33 84t-92 26q-84 0 -129.5 -52.5t-61.5 -168t14.5 -167.5t114.5 -52q63 0 99.5 26t56.5 84z" />
    <glyph glyph-name="D" unicode="D" horiz-adv-x="740" 
d="M759 350q-26 -184 -123 -267t-286 -83h-290l98 700h290q189 0 263 -83t48 -267zM419 560h-80l-59 -420h80q84 0 129 50t60.5 160t-15.5 160t-115 50z" />
    <glyph glyph-name="E" unicode="E" 
d="M659 560h-320l-19 -130h280l-19 -140h-280l-21 -150h320l-20 -140h-520l98 700h520z" />
    <glyph glyph-name="F" unicode="F" horiz-adv-x="590" 
d="M659 560h-320l-19 -130h280l-19 -140h-280l-41 -290h-200l98 700h520z" />
    <glyph glyph-name="G" unicode="G" horiz-adv-x="780" 
d="M439 280l19 130h350l-9 -60q-27 -194 -122.5 -282t-279.5 -88q-194 0 -269.5 88t-48 282t127.5 282t294 88q153 0 226 -57t80 -183h-190q-5 47 -37.5 68.5t-99.5 21.5q-84 0 -129.5 -52.5t-61.5 -168t14.5 -167.5t114.5 -52t127 35.5t54 114.5h-160z" />
    <glyph glyph-name="H" unicode="H" horiz-adv-x="740" 
d="M578 700h200l-98 -700h-200l42 300h-220l-42 -300h-200l98 700h200l-35 -250h220z" />
    <glyph glyph-name="I" unicode="I" horiz-adv-x="320" 
d="M158 700h200l-98 -700h-200z" />
    <glyph glyph-name="J" unicode="J" horiz-adv-x="570" 
d="M30 210l5 40h190l-5 -40q-6 -42 5.5 -61t43 -19t48.5 19t23 61l68 490h200l-68 -490q-17 -117 -87.5 -173.5t-205.5 -56.5q-130 0 -182 56.5t-35 173.5z" />
    <glyph glyph-name="K" unicode="K" horiz-adv-x="730" 
d="M358 700l-35 -255l245 255h240l-327 -340l249 -360h-240l-191 276l-39 -276h-200l98 700h200z" />
    <glyph glyph-name="L" unicode="L" horiz-adv-x="570" 
d="M561 150l-21 -150h-480l98 700h200l-77 -550h280z" />
    <glyph glyph-name="M" unicode="M" horiz-adv-x="920" 
d="M314 457l-64 -457h-190l98 700h270l75 -430l195 430h260l-98 -700h-190l64 457l-214 -457h-120z" />
    <glyph glyph-name="N" unicode="N" horiz-adv-x="760" 
d="M608 700h190l-98 -700h-230l-157 450l-63 -450h-190l98 700h230l157 -450z" />
    <glyph glyph-name="O" unicode="O" horiz-adv-x="800" 
d="M501 720q194 0 269.5 -88t48.5 -282t-127.5 -282t-294.5 -88t-269.5 88t-48.5 282t127.5 282t294.5 88zM418 130q43 0 74.5 12.5t55 39.5t38.5 68.5t23 99.5q12 77 1.5 125.5t-42.5 71.5t-88 23q-84 0 -129.5 -52.5t-61.5 -168t14.5 -167.5t114.5 -52z" />
    <glyph glyph-name="P" unicode="P" horiz-adv-x="680" 
d="M726.5 470q-6.5 -47 -28.5 -87t-59 -72.5t-95 -51.5t-130 -19h-120l-34 -240h-200l98 700h320q73 0 125.5 -19t80.5 -51.5t38.5 -72.5t4 -87zM526 470q4 26 -3 46t-26 32t-48 12h-110l-26 -180h110q44 0 71 25.5t32 64.5z" />
    <glyph glyph-name="Q" unicode="Q" horiz-adv-x="800" 
d="M79 350q27 194 127.5 282t294.5 88t269.5 -88t48.5 -282q-29 -209 -143 -296l84 -124h-180l-43 64q-58 -14 -140 -14q-194 0 -269.5 88t-48.5 282zM480 570q-84 0 -129.5 -52.5t-61.5 -168t14.5 -167.5t114.5 -52q43 0 74.5 12.5t55 39.5t38.5 68.5t23 99.5
q12 77 1.5 125.5t-42.5 71.5t-88 23z" />
    <glyph glyph-name="R" unicode="R" horiz-adv-x="720" 
d="M377 250h-82l-35 -250h-200l98 700h330q73 0 125.5 -19t80.5 -51.5t38.5 -72.5t3.5 -87q-21 -152 -166 -200l120 -270h-210zM313 380h120q44 0 71 25.5t32.5 64.5t-14.5 64.5t-63 25.5h-120z" />
    <glyph glyph-name="S" unicode="S" horiz-adv-x="660" 
d="M303 520q-3 -19 12.5 -33.5t42.5 -23t61.5 -18.5t70.5 -19.5t69.5 -27.5t58.5 -41t36.5 -61t5.5 -86q-17 -121 -96 -175.5t-236.5 -54.5t-221.5 52t-48 168h180q-7 -47 18.5 -68.5t88.5 -21.5q58 0 86.5 16.5t33.5 53.5q4 25 -10.5 43.5t-41.5 29t-61 21.5t-70.5 20
t-70 25t-59 36.5t-37.5 55t-6 79.5q17 121 93.5 175.5t228.5 54.5t214 -52t45 -168h-180q7 47 -16 68.5t-81 21.5q-35 0 -58 -7.5t-35.5 -22.5t-16.5 -40z" />
    <glyph glyph-name="T" unicode="T" horiz-adv-x="640" 
d="M718 700l-21 -150h-200l-77 -550h-200l77 550h-200l21 150h600z" />
    <glyph glyph-name="U" unicode="U" horiz-adv-x="740" 
d="M97 260l61 440h200l-61 -440q-10 -68 12 -99t79.5 -31t88 31t40.5 99l61 440h200l-61 -440q-14 -99 -55 -160t-113.5 -90.5t-181.5 -29.5q-163 0 -227 66.5t-43 213.5z" />
    <glyph glyph-name="V" unicode="V" horiz-adv-x="690" 
d="M200 0l-102 700h200l66 -562l224 562h200l-298 -700h-290z" />
    <glyph glyph-name="W" unicode="W" horiz-adv-x="1020" 
d="M489 700h238l14 -495l167 495h200l-258 -700h-260l-19 487l-141 -487h-260l-62 700h200l29 -495z" />
    <glyph glyph-name="X" unicode="X" horiz-adv-x="700" 
d="M328 700l92 -218l158 218h210l-257 -340l169 -360h-220l-99 237l-171 -237h-210l261 360l-153 340h220z" />
    <glyph glyph-name="Y" unicode="Y" horiz-adv-x="680" 
d="M477 260l-37 -260h-190l37 260l-189 440h220l90 -250l160 250h210z" />
    <glyph glyph-name="Z" unicode="Z" horiz-adv-x="640" 
d="M280 140h350l-20 -140h-580l17 120l402 440h-330l19 140h560l-16 -120z" />
    <glyph glyph-name="bracketleft" unicode="[" horiz-adv-x="320" 
d="M418 700l-18 -130h-110l-90 -640h110l-18 -130h-260l126 900h260z" />
    <glyph glyph-name="backslash" unicode="\" horiz-adv-x="400" 
d="M258 700l142 -700h-160l-142 700h160z" />
    <glyph glyph-name="bracketright" unicode="]" horiz-adv-x="320" 
d="M98 700h260l-126 -900h-260l18 130h110l90 640h-110z" />
    <glyph glyph-name="asciicircum" unicode="^" horiz-adv-x="500" 
d="M434 670l91 -350h-140l-58 225l-122 -225h-140l189 350h180z" />
    <glyph glyph-name="underscore" unicode="_" horiz-adv-x="520" 
d="M520 0l-18 -130h-520l18 130h520z" />
    <glyph glyph-name="grave" unicode="`" horiz-adv-x="310" 
d="M298 700l69 -150h-140l-109 150h180z" />
    <glyph glyph-name="a" unicode="a" horiz-adv-x="560" 
d="M41 150q8 60 39.5 97t89 55t145.5 18h70l3 20q5 37 -8.5 53.5t-46.5 16.5q-35 0 -52 -14t-22 -46h-170q12 84 74.5 122t188.5 38t176.5 -45t36.5 -145l-45 -320h-140l-16 36q-54 -46 -155 -46q-100 0 -140 38t-28 122zM371 220h-50q-49 0 -71.5 -13t-27.5 -47
q-2 -14 0.5 -23.5t9 -15.5t17 -8.5t26.5 -2.5q42 0 64 21.5t29 68.5z" />
    <glyph glyph-name="b" unicode="b" horiz-adv-x="609" 
d="M368 -10v-1q-108 0 -150 49l-28 -38h-140l98 700h180l-32 -227q55 37 145 37q115 0 158.5 -62t24.5 -198.5t-80 -198t-176 -61.5zM337.5 118q47.5 0 73 31t35 99t-7.5 99t-64 31t-73 -31t-35.5 -99t7.5 -99t64.5 -31z" />
    <glyph glyph-name="c" unicode="c" horiz-adv-x="580" 
d="M407 190h180q-26 -105 -94 -152.5t-194 -47.5q-147 0 -205 62t-39 198.5t94.5 198t222.5 61.5q126 0 181 -47.5t51 -152.5h-180q-1 37 -18 53.5t-53 16.5q-52 0 -80 -31t-38 -99q-7 -45 0 -74t27 -42.5t55 -13.5t56.5 16.5t33.5 53.5z" />
    <glyph glyph-name="d" unicode="d" horiz-adv-x="609" 
d="M243 -10l1 1q-116 0 -159.5 62t-24.5 198.5t80 198t177 61.5q89 0 134 -37l32 227h180l-99 -700h-140l-18 38q-55 -49 -163 -49zM311 120q47 0 73 31t35.5 99t-7.5 99t-65 31q-31 0 -53 -13.5t-35 -42t-20 -74.5q-9 -68 8 -99t64 -31z" />
    <glyph glyph-name="e" unicode="e" horiz-adv-x="580" 
d="M228 200q-5 -35 1.5 -57t24.5 -32.5t50 -10.5q35 0 56 14.5t32 45.5h170q-28 -89 -93 -129.5t-180 -40.5q-142 0 -197.5 62t-36.5 198.5t92 198t214.5 61.5t197 -62t36.5 -198l-7 -50h-360zM346 400q-47 0 -71.5 -24t-32.5 -76h180q8 53 -10.5 76.5t-65.5 23.5z" />
    <glyph glyph-name="f" unicode="f" horiz-adv-x="420" 
d="M380 570q-30 0 -34 -30l-6 -40h140l-15 -110h-140l-55 -390h-180l55 390h-80l15 110h80l6 40q10 75 58.5 117.5t123.5 42.5h160l-18 -130h-110z" />
    <glyph glyph-name="g" unicode="g" horiz-adv-x="609" 
d="M311 510v1q103 0 150 -49l28 38h140l-63 -449q-19 -137 -92 -199t-214 -62q-118 0 -172 40.5t-55 129.5h170q2 -32 16.5 -46t45.5 -14q52 0 80 29t37 91l1 7q-56 -37 -144 -37q-116 0 -159.5 62t-24.5 198.5t79.5 198t176.5 61.5zM342.5 381q-47.5 0 -73 -30.5
t-35.5 -98.5q-6 -45 -0.5 -74.5t23 -43t49.5 -13.5q47 0 73 31.5t35 99.5q10 68 -7 98.5t-64.5 30.5z" />
    <glyph glyph-name="h" unicode="h" horiz-adv-x="590" 
d="M50 0l98 700h180l-30 -218q48 28 124 28q105 0 144.5 -57t21.5 -183l-38 -270h-180l38 270q8 58 -5 84t-49.5 26t-57 -26t-28.5 -84l-38 -270h-180z" />
    <glyph glyph-name="i" unicode="i" horiz-adv-x="300" 
d="M240 0h-180l70 500h180zM253 730q52 0 73 -21.5t14 -68.5q-3 -24 -11.5 -41t-22 -28t-33 -16t-46.5 -5q-52 0 -73 21.5t-14 68.5q3 24 11.5 41t22 28t33 16t46.5 5z" />
    <glyph glyph-name="j" unicode="j" horiz-adv-x="290" 
d="M3 -50q22 0 38 13.5t19 36.5l70 500h180l-73 -520q-10 -75 -58.5 -117.5t-123.5 -42.5h-160l18 130h90zM253 730q52 0 73 -21.5t14 -68.5q-3 -24 -11.5 -41t-22 -28t-33 -16t-46.5 -5q-52 0 -73 21.5t-14 68.5q3 24 11.5 41t22 28t33 16t46.5 5z" />
    <glyph glyph-name="k" unicode="k" horiz-adv-x="610" 
d="M258 201l-28 -201h-180l98 700h180l-53 -380l175 180h210l-233 -240l183 -260h-210z" />
    <glyph glyph-name="l" unicode="l" horiz-adv-x="280" 
d="M328 700l-98 -700h-180l98 700h180z" />
    <glyph glyph-name="m" unicode="m" horiz-adv-x="870" 
d="M268 270l-38 -270h-180l70 500h140l21 -50q50 60 141 60q98 0 132 -63q54 63 158 63q99 0 136.5 -57t19.5 -183l-38 -270h-180l38 270q8 58 -2.5 84t-42 26t-49.5 -26t-26 -84l-38 -270h-180l38 270q8 58 -2.5 84t-42 26t-49.5 -26t-26 -84z" />
    <glyph glyph-name="n" unicode="n" horiz-adv-x="590" 
d="M260 500l15 -34q54 44 147 44q105 0 144.5 -57t21.5 -183l-38 -270h-180l38 270q8 58 -5 84t-49.5 26t-57 -26t-28.5 -84l-38 -270h-180l70 500h140z" />
    <glyph glyph-name="o" unicode="o" 
d="M372 510q147 0 204.5 -62t38.5 -198.5t-94 -198t-222 -61.5t-205 62t-39 198.5t94.5 198t222.5 61.5zM235.5 250q-9.5 -68 9.5 -99t71.5 -31t81 31t37.5 99q7 45 0 74t-26.5 42.5t-55.5 13.5q-52 0 -80 -31t-37.5 -99z" />
    <glyph glyph-name="p" unicode="p" horiz-adv-x="609" 
d="M441 510l-1 -1q77 0 121.5 -27t59.5 -84t2 -149q-19 -137 -80 -198.5t-177 -61.5q-89 0 -133 37l-32 -227h-180l98 700h140l18 -38q56 49 164 49zM372 380q-31 0 -53 -13.5t-35 -42t-20 -74.5q-9 -68 8 -99t64 -31t73 31t35.5 99t-7.5 99t-65 31z" />
    <glyph glyph-name="q" unicode="q" horiz-adv-x="609" 
d="M316 510l-1 1q108 0 150 -49l28 38h140l-98 -700h-180l32 227q-55 -37 -144 -37q-116 0 -159.5 62t-24.5 198.5t80 198t177 61.5zM345.5 382q-47.5 0 -73 -31t-35 -99t7.5 -99t64 -31q32 0 53.5 13.5t35 42t19.5 74.5q10 68 -7 99t-64.5 31z" />
    <glyph glyph-name="r" unicode="r" horiz-adv-x="419" 
d="M380 360h-1q-26 0 -45.5 -6.5t-34 -20t-23 -34t-12.5 -49.5l-35 -250h-180l70 500h140l18 -43q55 53 124 53h80l-21 -150h-80z" />
    <glyph glyph-name="s" unicode="s" horiz-adv-x="510" 
d="M242 369q-2 -16 13 -26t40.5 -15.5t57 -11t62 -15.5t54.5 -25.5t36.5 -45t6.5 -70.5q-12 -89 -76 -129.5t-193 -40.5q-118 0 -166 38t-36 122h170q-2 -16 0 -27t8 -18.5t17 -11t27 -3.5q31 0 47 12t20 38q2 18 -12.5 29t-39 17t-55 11t-60 14.5t-53 24.5t-35.5 44t-6 70
q12 84 72 122t181 38q115 0 162.5 -35.5t36.5 -114.5h-160q3 26 -9.5 38t-44 12t-47 -9.5t-18.5 -31.5z" />
    <glyph glyph-name="t" unicode="t" horiz-adv-x="450" 
d="M305 180q-3 -22 9 -36t34 -14h90l-18 -130h-160q-75 0 -111.5 42.5t-26.5 117.5l33 230h-80l15 110h80l19 130h180l-19 -130h140l-15 -110h-140z" />
    <glyph glyph-name="u" unicode="u" horiz-adv-x="590" 
d="M400 0l-15 34q-53 -44 -146 -44q-105 0 -144.5 57t-22.5 183l38 270h180l-38 -270q-5 -38 -1 -62.5t17.5 -36t38.5 -11.5q37 0 57 26t28 84l38 270h180l-70 -500h-140z" />
    <glyph glyph-name="v" unicode="v" horiz-adv-x="550" 
d="M410 0h-270l-70 500h190l37 -372l133 372h190z" />
    <glyph glyph-name="w" unicode="w" horiz-adv-x="870" 
d="M370 0h-220l-70 500h180l29 -350l111 350h220l6 -344l124 344h180l-210 -500h-220l-14 366z" />
    <glyph glyph-name="x" unicode="x" horiz-adv-x="540" 
d="M291 149l-101 -149h-190l197 260l-117 240h190l52 -129l88 129h190l-183 -240l123 -260h-190z" />
    <glyph glyph-name="y" unicode="y" horiz-adv-x="540" 
d="M312 222l128 278h170l-239 -490q-40 -82 -69.5 -121.5t-59.5 -54t-77 -14.5h-120l15 110h70q14 0 21.5 1.5t17.5 7.5t19.5 21t21.5 40l6 13l-146 487h170z" />
    <glyph glyph-name="z" unicode="z" horiz-adv-x="500" 
d="M247 120h250l-17 -120h-460l14 100l279 280h-230l17 120h440l-14 -100z" />
    <glyph glyph-name="braceleft" unicode="{" horiz-adv-x="390" 
d="M247 -20q-3 -26 7 -38t36 -12h90l-18 -130h-130q-84 0 -116.5 38t-21.5 122l26 180q3 21 -2.5 34t-20 19.5t-39.5 6.5l16 110q36 0 55 14.5t23 45.5l24 170q8 56 29.5 91.5t59 52t93.5 16.5h130l-18 -130h-90q-26 0 -39.5 -12t-17.5 -38l-21 -150q-12 -88 -68 -115
q48 -27 36 -115z" />
    <glyph glyph-name="bar" unicode="|" horiz-adv-x="270" 
d="M158 700h150l-126 -900h-150z" />
    <glyph glyph-name="braceright" unicode="}" horiz-adv-x="390" 
d="M137 -20l23 160q12 88 68 115q-48 27 -36 115l21 150q4 26 -6.5 38t-36.5 12h-90l18 130h130q84 0 117 -38t21 -122l-24 -170q-4 -32 10.5 -46t51.5 -14l-16 -110q-25 0 -41 -6.5t-25 -19.5t-12 -34l-26 -180q-8 -56 -29.5 -91.5t-59 -52t-93.5 -16.5h-130l18 130h90
q26 0 40 12t17 38z" />
    <glyph glyph-name="asciitilde" unicode="~" horiz-adv-x="660" 
d="M58 200l17 120q46 41 94 53.5t89.5 2.5t83.5 -29t83 -39t81 -31.5t83.5 -2t85.5 45.5l-17 -120q-46 -41 -93.5 -53.5t-89.5 -2.5t-84 29t-83 39t-80.5 31.5t-83.5 2t-86 -45.5z" />
    <glyph glyph-name="space_" unicode="&#xa0;" horiz-adv-x="300" 
 />
    <glyph glyph-name="exclamdown" unicode="&#xa1;" horiz-adv-x="300" 
d="M222 -200h-190l27 190l75 250h110l5 -250zM195 320q-53 0 -73.5 22.5t-13.5 72.5q5 34 18.5 54.5t36.5 30.5t59 10q52 0 72.5 -22.5t13.5 -72.5t-33.5 -72.5t-79.5 -22.5z" />
    <glyph glyph-name="cent" unicode="&#xa2;" horiz-adv-x="580" 
d="M407 190l-1 -2h180q-21 -90 -73.5 -137t-143.5 -59l-13 -94h-140l13 94q-107 13 -149 75t-25 182t76 182t170 75l12 84h140l-12 -84q88 -12 127 -59.5t36 -136.5h-180q-1 37 -18 53.5t-53 16.5q-52 0 -80 -31t-37.5 -99t9.5 -99t72 -31q35 0 56.5 16.5t33.5 53.5z" />
    <glyph glyph-name="sterling" unicode="&#xa3;" horiz-adv-x="661" 
d="M551 290h-220q-10 -58 -38.5 -94t-81.5 -56h440l-20 -140h-600l22 160q43 16 66 47t32 83h-80l18 130h80l11 80q16 115 82.5 167.5t198.5 52.5q126 0 175.5 -52t33.5 -168h-170q5 35 1 57t-18 32.5t-39 10.5q-36 0 -56 -24t-28 -76l-11 -80h220z" />
    <glyph glyph-name="currency" unicode="&#xa4;" horiz-adv-x="640" 
d="M391 510q77 0 130 -18l78 67l76 -90l-58 -51q32 -60 17 -169t-65 -169l44 -52l-103 -89l-57 67q-56 -16 -135 -16q-76 0 -131 17l-76 -67l-78 89l59 52q-32 60 -17 169t65 169l-44 51l103 90l57 -67q60 17 135 17zM253.5 250q-9.5 -68 9.5 -99t71.5 -31t81 31t37.5 99
q7 45 0 74t-26.5 42.5t-55.5 13.5q-52 0 -80 -31t-37.5 -99z" />
    <glyph glyph-name="yen" unicode="&#xa5;" horiz-adv-x="700" 
d="M664 100h-200l-14 -100h-190l14 100h-210l17 120h210l6 40l-18 40h-187l17 120h119l-120 280h220l90 -250l160 250h210l-192 -280h113l-17 -120h-178l-27 -40l-6 -40h200z" />
    <glyph glyph-name="section" unicode="&#xa7;" horiz-adv-x="640" 
d="M324 530q-3 -22 15 -36.5t48.5 -23.5t67.5 -17.5t73.5 -22.5t65.5 -34.5t43.5 -57.5t7.5 -88q-15 -110 -99 -154q22 -40 14 -96q-16 -115 -85 -167.5t-206 -52.5q-121 0 -168 52t-31 168h150q-7 -47 9 -68.5t58 -21.5t63 14.5t26 45.5q3 26 -13.5 43t-46.5 26t-66 16.5
t-71.5 20t-64 31.5t-42.5 55.5t-7 87.5q16 111 107 152q-29 43 -20 108q15 110 79 160t190 50q121 0 168.5 -52t30.5 -168h-150q5 32 -0.5 51.5t-22 29t-44.5 9.5q-37 0 -55.5 -14.5t-23.5 -45.5zM472 230q2 12 -2 22t-14.5 17.5t-22.5 13.5t-30 11.5t-34.5 10t-39 11
t-38.5 11.5q-47 -12 -53 -56q-2 -18 8 -30.5t32 -21t45 -14.5t57 -14t57 -16q30 16 35 55z" />
    <glyph glyph-name="dieresis" unicode="&#xa8;" horiz-adv-x="480" 
d="M225.5 750q35.5 0 56 -10t28 -31t2.5 -54q-7 -50 -34 -72.5t-79 -22.5q-53 0 -73.5 22.5t-13.5 72.5q5 33 18 54t36.5 31t59 10zM465 750q36 0 56.5 -10t28 -31t2.5 -54q-7 -50 -34 -72.5t-79 -22.5q-53 0 -73.5 22.5t-13.5 72.5t34 72.5t79 22.5z" />
    <glyph glyph-name="copyright" unicode="&#xa9;" horiz-adv-x="840" 
d="M521 720q205 0 285 -88t53 -282t-132 -282t-310 -88t-285 88t-53 282t132 282t310 88zM432.5 90q141.5 0 214.5 61.5t92 198t-36.5 198.5t-197 62t-214.5 -61.5t-92 -198t36.5 -198.5t197 -62zM534 310h140q-23 -84 -78 -122t-155 -38q-110 0 -153.5 47.5t-28.5 152.5
t71.5 152.5t166.5 47.5q100 0 144.5 -38t42.5 -122h-139q-3 21 -10 34t-19.5 19.5t-32.5 6.5q-24 0 -41 -10.5t-27.5 -32.5t-15.5 -57t-0.5 -57t18 -32.5t38.5 -10.5q19 0 33.5 6.5t25.5 19.5t20 34z" />
    <glyph glyph-name="guillemotleft" unicode="&#xab;" horiz-adv-x="570" 
d="M213 450h170l-146 -190l91 -200h-170l-101 200zM443 450h170l-146 -190l91 -200h-170l-101 200z" />
    <glyph glyph-name="logicalnot" unicode="&#xac;" horiz-adv-x="590" 
d="M596 330l-36 -260h-140l18 130h-380l18 130h520z" />
    <glyph glyph-name="registered" unicode="&#xae;" horiz-adv-x="840" 
d="M521 720q205 0 285 -88t53 -282t-132 -282t-310 -88t-285 88t-53 282t132 282t310 88zM432.5 90q141.5 0 214.5 61.5t92 198t-36.5 198.5t-197 62t-214.5 -61.5t-92 -198t36.5 -198.5t197 -62zM565 300l69 -130h-120l-55 120h-48l-17 -120h-109l49 360h180
q84 0 118 -28.5t26 -91.5q-13 -87 -93 -110zM433 450l-11 -80h70q50 0 56 40q3 21 -8 30.5t-37 9.5h-70z" />
    <glyph glyph-name="macron" unicode="&#xaf;" horiz-adv-x="400" 
d="M114 600l14 100h340l-14 -100h-340z" />
    <glyph glyph-name="degree" unicode="&#xb0;" horiz-adv-x="420" 
d="M93 520q14 100 65.5 145t151.5 45q67 0 105.5 -20t52.5 -61.5t5 -108.5q-14 -100 -65.5 -145t-151 -45t-138.5 45t-25 145zM203 520q-7 -47 9 -68.5t58 -21.5t64 21.5t29 68.5q5 32 -1 51.5t-22 29t-44 9.5q-42 0 -64 -21.5t-29 -68.5z" />
    <glyph glyph-name="plusminus" unicode="&#xb1;" horiz-adv-x="580" 
d="M30 0l18 130h520l-18 -130h-520zM608 410l-19 -130h-190l-14 -100h-140l14 100h-190l19 130h190l12 90h140l-12 -90h190z" />
    <glyph glyph-name="acute" unicode="&#xb4;" horiz-adv-x="310" 
d="M97 550l111 150h180l-151 -150h-140z" />
    <glyph glyph-name="paragraph" unicode="&#xb6;" horiz-adv-x="760" 
d="M740 570l-108 -770h-150l108 770h-120l-108 -770h-150l70 500q-110 0 -153 47.5t-28.5 152.5t80.5 152.5t197 47.5h470l-18 -130h-90z" />
    <glyph glyph-name="periodcentered" unicode="&#xb7;" horiz-adv-x="240" 
d="M169.5 350q52.5 0 73 -22.5t13.5 -72.5t-34 -72.5t-80 -22.5q-52 0 -72.5 22.5t-13.5 72.5t34 72.5t79.5 22.5z" />
    <glyph glyph-name="cedilla" unicode="&#xb8;" horiz-adv-x="250" 
d="M76 40h91l-34 -90q4 -1 9.5 -2.5t20 -9t25 -16.5t18 -25.5t4.5 -36.5q-7 -52 -67 -81t-158 -29l10 70q80 0 85 40q2 15 -16 22.5t-49 7.5z" />
    <glyph glyph-name="guillemotright" unicode="&#xbb;" horiz-adv-x="570" 
d="M83 450h170l104 -190l-159 -200h-170l149 200zM313 450h170l104 -190l-159 -200h-170l149 200z" />
    <glyph glyph-name="questiondown" unicode="&#xbf;" horiz-adv-x="560" 
d="M404 240q-7 -49 -24 -85t-37.5 -54t-43 -33.5t-42 -25.5t-34 -28.5t-17.5 -43.5q-5 -32 12 -46t59 -14t64.5 24t29.5 76h170q-5 -40 -16.5 -72.5t-28.5 -58.5t-40.5 -44.5t-54.5 -30.5t-68.5 -18t-83.5 -6q-136 0 -191.5 45t-41.5 145q6 42 25 72.5t43.5 46.5t52.5 31
t52 27.5t42 36t23 56.5h150zM340 320q-53 0 -73.5 22.5t-13.5 72.5t34 72.5t80 22.5q52 0 72.5 -22.5t13.5 -72.5t-33.5 -72.5t-79.5 -22.5z" />
    <glyph glyph-name="Agrave" unicode="&#xc0;" horiz-adv-x="700" 
d="M490 0h-1l-16 130h-219l-54 -130h-200l318 700h280l102 -700h-210zM424 533l-115 -273h149zM544 750h-130l-113 120h160z" />
    <glyph glyph-name="Aacute" unicode="&#xc1;" horiz-adv-x="700" 
d="M490 0h-1l-16 130h-219l-54 -130h-200l318 700h280l102 -700h-210zM424 533l-115 -273h149zM384 750l107 120h170l-137 -120h-140z" />
    <glyph glyph-name="Acircumflex" unicode="&#xc2;" horiz-adv-x="700" 
d="M490 0h-1l-16 130h-219l-54 -130h-200l318 700h280l102 -700h-210zM424 533l-115 -273h149zM634 750h-120l-43 50l-57 -50h-120l97 120h180z" />
    <glyph glyph-name="Atilde" unicode="&#xc3;" horiz-adv-x="700" 
d="M490 0h-1l-16 130h-219l-54 -130h-200l318 700h280l102 -700h-210zM424 533l-115 -273h149zM297 760q5 34 23.5 59.5t45 38t57 12.5t53 -6t33 -14t23 -14t25.5 -6q7 0 14 6.5t8 13.5h70q-4 -34 -23 -59.5t-45.5 -38t-57 -12.5t-53 6t-32.5 14t-23 14t-25 6q-8 0 -15 -6
t-8 -14h-70z" />
    <glyph glyph-name="Adieresis" unicode="&#xc4;" horiz-adv-x="700" 
d="M490 0h-1l-16 130h-219l-54 -130h-200l318 700h280l102 -700h-210zM424 533l-115 -273h149zM354.5 890q52.5 0 73.5 -19t15 -61t-32.5 -61t-79 -19t-73.5 19t-15 61t32.5 61t79 19zM614.5 890q52.5 0 73.5 -19t15 -61t-32.5 -61t-79 -19t-73.5 19t-15 61t32.5 61t79 19z
" />
    <glyph glyph-name="Aring" unicode="&#xc5;" horiz-adv-x="700" 
d="M490 0h-1l-16 130h-219l-54 -130h-200l318 700h280l102 -700h-210zM424 533l-115 -273h149zM492.5 950q68.5 0 95.5 -26t19 -84q-5 -39 -22 -63t-47.5 -35.5t-75.5 -11.5q-69 0 -96 26t-19 84t42.5 84t103 26zM471 800q40 0 46 40q1 10 0 18t-5 12.5t-11.5 7t-17.5 2.5
q-40 0 -46 -40q-3 -21 5 -30.5t29 -9.5z" />
    <glyph glyph-name="AE" unicode="&#xc6;" horiz-adv-x="950" 
d="M1009 560h-290l-19 -130h250l-19 -140h-250l-21 -150h290l-20 -140h-470l18 130h-200l-78 -130h-200l438 700h590zM539 562l-182 -302h140z" />
    <glyph glyph-name="Ccedilla" unicode="&#xc7;" horiz-adv-x="770" 
d="M305 -110l36 90q-162 12 -224.5 100.5t-37.5 268.5q27 194 127.5 282t294.5 88q80 0 137 -15t94 -47t54.5 -80.5t17.5 -117.5h-200q-2 39 -15.5 63t-40 35.5t-68.5 11.5q-84 0 -129.5 -52.5t-61.5 -168t14.5 -167.5t114.5 -52q62 0 99 26t57 84h200
q-45 -128 -126.5 -189.5t-213.5 -68.5l-11 -31q4 -1 9.5 -2.5t20 -9t25 -16.5t18 -25.5t4.5 -36.5q-7 -52 -67 -81t-158 -29l10 70q80 0 85 40q2 15 -16 22.5t-49 7.5z" />
    <glyph glyph-name="Egrave" unicode="&#xc8;" 
d="M659 560h-320l-19 -130h280l-19 -140h-280l-21 -150h320l-20 -140h-520l98 700h520zM422 870l83 -120h-130l-113 120h160z" />
    <glyph glyph-name="Eacute" unicode="&#xc9;" 
d="M659 560h-320l-19 -130h280l-19 -140h-280l-21 -150h320l-20 -140h-520l98 700h520zM345 750l107 120h170l-137 -120h-140z" />
    <glyph glyph-name="Ecircumflex" unicode="&#xca;" 
d="M659 560h-320l-19 -130h280l-19 -140h-280l-21 -150h320l-20 -140h-520l98 700h520zM595 750h-120l-43 50l-57 -50h-120l97 120h180z" />
    <glyph glyph-name="Edieresis" unicode="&#xcb;" 
d="M659 560h-320l-19 -130h280l-19 -140h-280l-21 -150h320l-20 -140h-520l98 700h520zM315.5 890q52.5 0 73.5 -19t15 -61t-32.5 -61t-79 -19t-73.5 19t-15 61t32.5 61t79 19zM575.5 890q52.5 0 73.5 -19t15 -61t-32.5 -61t-79 -19t-73.5 19t-15 61t32.5 61t79 19z" />
    <glyph glyph-name="Igrave" unicode="&#xcc;" horiz-adv-x="330" 
d="M168 700h200l-98 -700h-200zM272 870l83 -120h-130l-113 120h160z" />
    <glyph glyph-name="Iacute" unicode="&#xcd;" horiz-adv-x="320" 
d="M158 700h200l-98 -700h-200zM185 750l107 120h170l-137 -120h-140z" />
    <glyph glyph-name="Icircumflex" unicode="&#xce;" horiz-adv-x="340" 
d="M168 700h200l-98 -700h-200zM445 750h-120l-43 50l-57 -50h-120l97 120h180z" />
    <glyph glyph-name="Idieresis" unicode="&#xcf;" horiz-adv-x="340" 
d="M168 700h200l-98 -700h-200zM165.5 890q52.5 0 73.5 -19t15 -61t-32.5 -61t-79 -19t-73.5 19t-15 61t32.5 61t79 19zM425.5 890q52.5 0 73.5 -19t15 -61t-32.5 -61t-79 -19t-73.5 19t-15 61t32.5 61t79 19z" />
    <glyph glyph-name="Ntilde" unicode="&#xd1;" horiz-adv-x="760" 
d="M608 700h190l-98 -700h-230l-157 450l-63 -450h-190l98 700h230l157 -450zM317 760q5 34 23.5 59.5t45 38t57 12.5t53 -6t33 -14t23 -14t25.5 -6q7 0 14 6.5t8 13.5h70q-4 -34 -23 -59.5t-45.5 -38t-57 -12.5t-53 6t-32.5 14t-23 14t-25 6q-8 0 -15 -6t-8 -14h-70z" />
    <glyph glyph-name="Ograve" unicode="&#xd2;" horiz-adv-x="800" 
d="M501 720q194 0 269.5 -88t48.5 -282t-127.5 -282t-294.5 -88t-269.5 88t-48.5 282t127.5 282t294.5 88zM418 130q43 0 74.5 12.5t55 39.5t38.5 68.5t23 99.5q12 77 1.5 125.5t-42.5 71.5t-88 23q-84 0 -129.5 -52.5t-61.5 -168t14.5 -167.5t114.5 -52zM503 870l83 -120
h-130l-113 120h160z" />
    <glyph glyph-name="Oacute" unicode="&#xd3;" horiz-adv-x="800" 
d="M501 720q194 0 269.5 -88t48.5 -282t-127.5 -282t-294.5 -88t-269.5 88t-48.5 282t127.5 282t294.5 88zM418 130q43 0 74.5 12.5t55 39.5t38.5 68.5t23 99.5q12 77 1.5 125.5t-42.5 71.5t-88 23q-84 0 -129.5 -52.5t-61.5 -168t14.5 -167.5t114.5 -52zM425 750l107 120
h170l-137 -120h-140z" />
    <glyph glyph-name="Ocircumflex" unicode="&#xd4;" horiz-adv-x="800" 
d="M501 720q194 0 269.5 -88t48.5 -282t-127.5 -282t-294.5 -88t-269.5 88t-48.5 282t127.5 282t294.5 88zM418 130q43 0 74.5 12.5t55 39.5t38.5 68.5t23 99.5q12 77 1.5 125.5t-42.5 71.5t-88 23q-84 0 -129.5 -52.5t-61.5 -168t14.5 -167.5t114.5 -52zM675 750h-120
l-43 50l-57 -50h-120l97 120h180z" />
    <glyph glyph-name="Otilde" unicode="&#xd5;" horiz-adv-x="800" 
d="M501 720q194 0 269.5 -88t48.5 -282t-127.5 -282t-294.5 -88t-269.5 88t-48.5 282t127.5 282t294.5 88zM418 130q43 0 74.5 12.5t55 39.5t38.5 68.5t23 99.5q12 77 1.5 125.5t-42.5 71.5t-88 23q-84 0 -129.5 -52.5t-61.5 -168t14.5 -167.5t114.5 -52zM337 760
q7 51 42.5 80.5t82.5 29.5q31 0 53.5 -6t33 -14t23 -14t25.5 -6q7 0 14 6.5t8 13.5h70q-4 -34 -23 -59.5t-45.5 -38t-57 -12.5t-53 6t-32.5 14t-23 14t-25 6q-8 0 -15 -6t-8 -14h-70z" />
    <glyph glyph-name="Odieresis" unicode="&#xd6;" horiz-adv-x="800" 
d="M501 720q194 0 269.5 -88t48.5 -282t-127.5 -282t-294.5 -88t-269.5 88t-48.5 282t127.5 282t294.5 88zM418 130q43 0 74.5 12.5t55 39.5t38.5 68.5t23 99.5q12 77 1.5 125.5t-42.5 71.5t-88 23q-84 0 -129.5 -52.5t-61.5 -168t14.5 -167.5t114.5 -52zM395.5 890
q52.5 0 73.5 -19t15 -61t-32.5 -61t-79 -19t-73.5 19t-15 61t32.5 61t79 19zM655.5 890q52.5 0 73.5 -19t15 -61t-32.5 -61t-79 -19t-73.5 19t-15 61t32.5 61t79 19z" />
    <glyph glyph-name="multiply" unicode="&#xd7;" horiz-adv-x="560" 
d="M430 0l-129 150l-171 -150l-86 100l171 150l-129 150l114 100l129 -150l171 150l86 -100l-171 -150l129 -150z" />
    <glyph glyph-name="Oslash" unicode="&#xd8;" horiz-adv-x="800" 
d="M79 350q27 194 127.5 282t294.5 88q37 0 68 -3l31 63h120l-42 -86q93 -34 127 -118t14 -226q-27 -194 -127.5 -282t-294.5 -88q-36 0 -67 3l-31 -63h-120l42 86q-93 34 -127.5 118t-14.5 226zM289 349.5q-16 -115.5 14.5 -167.5t114.5 -52q43 0 74.5 12.5t55 39.5
t38.5 68.5t23 99.5q12 77 1.5 125.5t-42.5 71.5t-88 23q-84 0 -129.5 -52.5t-61.5 -168z" />
    <glyph glyph-name="Ugrave" unicode="&#xd9;" horiz-adv-x="740" 
d="M97 260l61 440h200l-61 -440q-10 -68 12 -99t79.5 -31t88 31t40.5 99l61 440h200l-61 -440q-14 -99 -55 -160t-113.5 -90.5t-181.5 -29.5q-163 0 -227 66.5t-43 213.5zM463 870l83 -120h-130l-113 120h160z" />
    <glyph glyph-name="Uacute" unicode="&#xda;" horiz-adv-x="740" 
d="M97 260l61 440h200l-61 -440q-10 -68 12 -99t79.5 -31t88 31t40.5 99l61 440h200l-61 -440q-14 -99 -55 -160t-113.5 -90.5t-181.5 -29.5q-163 0 -227 66.5t-43 213.5zM395 750l107 120h170l-137 -120h-140z" />
    <glyph glyph-name="Ucircumflex" unicode="&#xdb;" horiz-adv-x="740" 
d="M97 260l61 440h200l-61 -440q-10 -68 12 -99t79.5 -31t88 31t40.5 99l61 440h200l-61 -440q-14 -99 -55 -160t-113.5 -90.5t-181.5 -29.5q-163 0 -227 66.5t-43 213.5zM645 750h-120l-43 50l-57 -50h-120l97 120h180z" />
    <glyph glyph-name="Udieresis" unicode="&#xdc;" horiz-adv-x="740" 
d="M97 260l61 440h200l-61 -440q-10 -68 12 -99t79.5 -31t88 31t40.5 99l61 440h200l-61 -440q-14 -99 -55 -160t-113.5 -90.5t-181.5 -29.5q-163 0 -227 66.5t-43 213.5zM365.5 890q52.5 0 73.5 -19t15 -61t-32.5 -61t-79 -19t-73.5 19t-15 61t32.5 61t79 19zM625.5 890
q52.5 0 73.5 -19t15 -61t-32.5 -61t-79 -19t-73.5 19t-15 61t32.5 61t79 19z" />
    <glyph glyph-name="Yacute" unicode="&#xdd;" horiz-adv-x="680" 
d="M477 260l-37 -260h-190l37 260l-189 440h220l90 -250l160 250h210zM375 750l107 120h170l-137 -120h-140z" />
    <glyph glyph-name="germandbls" unicode="&#xdf;" horiz-adv-x="680" 
d="M441 720q146 0 206.5 -46t47.5 -144q-5 -35 -18.5 -60.5t-35.5 -44.5t-56 -35q40 -17 62.5 -41.5t30.5 -58.5t2 -80q-16 -110 -75 -160t-175 -50q-27 0 -53.5 5t-40.5 10l-13 5l17 120q28 -10 58 -10q48 0 72 21.5t31 68.5q5 35 -5.5 57t-37.5 32.5t-73 10.5l17 120
q58 0 86.5 16.5t33.5 53.5q4 28 -4 45.5t-29 26t-56 8.5q-110 0 -124 -100l-69 -490h-180l66 470q35 250 315 250z" />
    <glyph glyph-name="agrave" unicode="&#xe0;" horiz-adv-x="560" 
d="M41 150q8 60 39.5 97t89 55t145.5 18h70l3 20q5 37 -8.5 53.5t-46.5 16.5q-35 0 -52 -14t-22 -46h-170q12 84 74.5 122t188.5 38t176.5 -45t36.5 -145l-45 -320h-140l-16 36q-54 -46 -155 -46q-100 0 -140 38t-28 122zM371 220h-50q-49 0 -71.5 -13t-27.5 -47
q-2 -14 0.5 -23.5t9 -15.5t17 -8.5t26.5 -2.5q42 0 64 21.5t29 68.5zM368 700l69 -150h-140l-109 150h180z" />
    <glyph glyph-name="aacute" unicode="&#xe1;" horiz-adv-x="560" 
d="M209 -10q-100 0 -140 38t-28 122q8 60 39.5 97t89 55t145.5 18h70l3 20q5 37 -8.5 53.5t-46.5 16.5q-35 0 -52 -14t-22 -46h-170q12 84 74.5 122t188.5 38t176.5 -45t36.5 -145l-45 -320h-140l-16 36q-54 -46 -155 -46zM371 220h-50q-49 0 -71.5 -13t-27.5 -47
q-2 -14 0.5 -23.5t9 -15.5t17 -8.5t26.5 -2.5q42 0 64 21.5t29 68.5zM267 550l111 150h180l-151 -150h-140z" />
    <glyph glyph-name="acircumflex" unicode="&#xe2;" horiz-adv-x="560" 
d="M209 -10q-100 0 -140 38t-28 122q8 60 39.5 97t89 55t145.5 18h70l3 20q5 37 -8.5 53.5t-46.5 16.5q-35 0 -52 -14t-22 -46h-170q12 84 74.5 122t188.5 38t176.5 -45t36.5 -145l-45 -320h-140l-16 36q-54 -46 -155 -46zM371 220h-50q-49 0 -71.5 -13t-27.5 -47
q-2 -14 0.5 -23.5t9 -15.5t17 -8.5t26.5 -2.5q42 0 64 21.5t29 68.5zM468 700l59 -150h-110l-50 70l-70 -70h-110l101 150h180z" />
    <glyph glyph-name="atilde" unicode="&#xe3;" horiz-adv-x="540" 
d="M209 -10q-100 0 -140 38t-28 122q8 60 39.5 97t89 55t145.5 18h70l3 20q5 37 -8.5 53.5t-46.5 16.5q-35 0 -52 -14t-22 -46h-170q12 84 74.5 122t188.5 38t176.5 -45t36.5 -145l-45 -320h-140l-16 36q-54 -46 -155 -46zM371 220h-50q-49 0 -71.5 -13t-27.5 -47
q-2 -14 0.5 -23.5t9 -15.5t17 -8.5t26.5 -2.5q42 0 64 21.5t29 68.5zM272 580h-80q7 53 45 91.5t83 38.5q30 0 52 -11t30.5 -24t18.5 -24t19 -11q8 0 15 8t9 22h80q-3 -26 -15.5 -50t-29.5 -41.5t-39 -28t-44 -10.5q-31 0 -52.5 11t-30.5 24t-18.5 24t-18.5 11
q-8 0 -15.5 -8t-8.5 -22z" />
    <glyph glyph-name="adieresis" unicode="&#xe4;" horiz-adv-x="560" 
d="M209 -10q-100 0 -140 38t-28 122q8 60 39.5 97t89 55t145.5 18h70l3 20q5 37 -8.5 53.5t-46.5 16.5q-35 0 -52 -14t-22 -46h-170q12 84 74.5 122t188.5 38t176.5 -45t36.5 -145l-45 -320h-140l-16 36q-54 -46 -155 -46zM371 220h-50q-49 0 -71.5 -13t-27.5 -47
q-2 -14 0.5 -23.5t9 -15.5t17 -8.5t26.5 -2.5q42 0 64 21.5t29 68.5zM265.5 750q35.5 0 56 -10t28 -31t2.5 -54q-7 -50 -34 -72.5t-79 -22.5q-53 0 -73.5 22.5t-13.5 72.5q5 33 18 54t36.5 31t59 10zM505 750q36 0 56.5 -10t28 -31t2.5 -54q-7 -50 -34 -72.5t-79 -22.5
q-53 0 -73.5 22.5t-13.5 72.5t34 72.5t79 22.5z" />
    <glyph glyph-name="aring" unicode="&#xe5;" horiz-adv-x="560" 
d="M209 -10q-100 0 -140 38t-28 122q8 60 39.5 97t89 55t145.5 18h70l3 20q5 37 -8.5 53.5t-46.5 16.5q-35 0 -52 -14t-22 -46h-170q12 84 74.5 122t188.5 38t176.5 -45t36.5 -145l-45 -320h-140l-16 36q-54 -46 -155 -46zM371 220h-50q-49 0 -71.5 -13t-27.5 -47
q-2 -14 0.5 -23.5t9 -15.5t17 -8.5t26.5 -2.5q42 0 64 21.5t29 68.5zM385.5 750q68.5 0 95.5 -26t19 -84q-5 -39 -22 -63t-47.5 -35.5t-76.5 -11.5q-68 0 -95 26t-19 84t42.5 84t103 26zM364 600q40 0 46 40q3 21 -5 30.5t-29 9.5q-40 0 -46 -40q-3 -21 5 -30.5t29 -9.5z
" />
    <glyph glyph-name="ae" unicode="&#xe6;" horiz-adv-x="900" 
d="M908 201h-360q-7 -53 11 -76.5t66 -23.5q23 0 40 6.5t29 19.5t20 34h170q-29 -89 -94 -129.5t-180 -40.5q-76 0 -120.5 26t-60.5 81q-19 -37 -49.5 -60.5t-72.5 -35t-98 -11.5q-100 0 -140 38t-28 122q9 60 40 97t88.5 55t145.5 18h70l3 20q4 32 -10.5 46t-51.5 14
q-21 0 -35 -5t-21.5 -16t-10.5 -29h-170q12 84 74.5 122t188.5 38q119 0 158 -58q60 58 173 58q141 0 196 -61.5t36 -198.5zM368 202l3 20h-49q-47 0 -70.5 -14.5t-27.5 -45.5q-3 -18 2 -29t17.5 -16t33.5 -5q42 -1 63.5 20.5t27.5 69.5zM669 402q-48 0 -73 -23.5t-33 -76.5
h180q8 53 -9.5 76.5t-64.5 23.5z" />
    <glyph glyph-name="ccedilla" unicode="&#xe7;" horiz-adv-x="580" 
d="M245 -9v1q-116 10 -161.5 72.5t-28.5 185.5q19 137 94.5 198.5t222.5 61.5q126 0 181 -47.5t51 -152.5h-180q-1 37 -18 53.5t-53 16.5q-52 0 -80 -31t-37.5 -99t9.5 -99t72 -31q35 0 56.5 16.5t33.5 53.5h180q-12 -48 -32 -83.5t-51 -60t-72 -38t-94 -16.5l-16 -41
q4 -1 9.5 -2.5t20 -9t25 -16.5t18 -25.5t4.5 -36.5q-7 -52 -67 -81t-158 -29l10 70q80 0 85 40q2 10 -6.5 16.5t-23.5 10t-35 3.5z" />
    <glyph glyph-name="egrave" unicode="&#xe8;" horiz-adv-x="580" 
d="M228 200q-5 -35 1.5 -57t24.5 -32.5t50 -10.5q35 0 56 14.5t32 45.5h170q-28 -89 -93 -129.5t-180 -40.5q-142 0 -197.5 62t-36.5 198.5t92 198t214.5 61.5t197 -62t36.5 -198l-7 -50h-360zM346 400q-47 0 -71.5 -24t-32.5 -76h180q8 53 -10.5 76.5t-65.5 23.5zM378 700
l69 -150h-140l-109 150h180z" />
    <glyph glyph-name="eacute" unicode="&#xe9;" horiz-adv-x="580" 
d="M228 200q-5 -35 1.5 -57t24.5 -32.5t50 -10.5q35 0 56 14.5t32 45.5h170q-28 -89 -93 -129.5t-180 -40.5q-142 0 -197.5 62t-36.5 198.5t92 198t214.5 61.5t197 -62t36.5 -198l-7 -50h-360zM346 400q-47 0 -71.5 -24t-32.5 -76h180q8 53 -10.5 76.5t-65.5 23.5zM287 550
l111 150h180l-151 -150h-140z" />
    <glyph glyph-name="ecircumflex" unicode="&#xea;" horiz-adv-x="580" 
d="M228 200q-5 -35 1.5 -57t24.5 -32.5t50 -10.5q35 0 56 14.5t32 45.5h170q-28 -89 -93 -129.5t-180 -40.5q-142 0 -197.5 62t-36.5 198.5t92 198t214.5 61.5t197 -62t36.5 -198l-7 -50h-360zM346 400q-47 0 -71.5 -24t-32.5 -76h180q8 53 -10.5 76.5t-65.5 23.5zM478 700
l59 -150h-110l-50 70l-70 -70h-110l101 150h180z" />
    <glyph glyph-name="edieresis" unicode="&#xeb;" horiz-adv-x="580" 
d="M228 200q-5 -35 1.5 -57t24.5 -32.5t50 -10.5q35 0 56 14.5t32 45.5h170q-28 -89 -93 -129.5t-180 -40.5q-142 0 -197.5 62t-36.5 198.5t92 198t214.5 61.5t197 -62t36.5 -198l-7 -50h-360zM346 400q-47 0 -71.5 -24t-32.5 -76h180q8 53 -10.5 76.5t-65.5 23.5z
M275.5 750q35.5 0 56 -10t28 -31t2.5 -54q-7 -50 -34 -72.5t-79 -22.5q-53 0 -73.5 22.5t-13.5 72.5q5 33 18 54t36.5 31t59 10zM515 750q36 0 56.5 -10t28 -31t2.5 -54q-7 -50 -34 -72.5t-79 -22.5q-53 0 -73.5 22.5t-13.5 72.5t34 72.5t79 22.5z" />
    <glyph glyph-name="igrave" unicode="&#xec;" horiz-adv-x="280" 
d="M230 0h-180l70 500h180zM228 700l69 -150h-140l-109 150h180z" />
    <glyph glyph-name="iacute" unicode="&#xed;" horiz-adv-x="270" 
d="M230 0h-180l70 500h180zM127 550l111 150h180l-151 -150h-140z" />
    <glyph glyph-name="icircumflex" unicode="&#xee;" horiz-adv-x="280" 
d="M230 0h-180l70 500h180zM328 700l59 -150h-110l-50 70l-70 -70h-110l101 150h180z" />
    <glyph glyph-name="idieresis" unicode="&#xef;" horiz-adv-x="280" 
d="M230 0h-180l70 500h180zM125 750q53 0 73.5 -22.5t13.5 -72.5q-3 -25 -11.5 -43t-22.5 -29.5t-33.5 -17t-45.5 -5.5q-53 0 -73.5 22.5t-13.5 72.5q5 33 18 54t36.5 31t58.5 10zM365 750q36 0 56.5 -10t28 -31t2.5 -54q-7 -50 -34 -72.5t-79 -22.5q-53 0 -73.5 22.5
t-13.5 72.5t34 72.5t79 22.5z" />
    <glyph glyph-name="ntilde" unicode="&#xf1;" horiz-adv-x="590" 
d="M260 500l15 -34q54 44 147 44q105 0 144.5 -57t21.5 -183l-38 -270h-180l38 270q8 58 -5 84t-49.5 26t-57 -26t-28.5 -84l-38 -270h-180l70 500h140zM212 580q7 53 45 91.5t83 38.5q30 0 52 -11t30.5 -24t18.5 -24t19 -11q8 0 15 8t9 22h80q-7 -53 -45 -91.5t-83 -38.5
q-31 0 -52.5 11t-30.5 24t-18.5 24t-18.5 11q-8 0 -15 -8t-9 -22h-80z" />
    <glyph glyph-name="ograve" unicode="&#xf2;" 
d="M372 510q147 0 204.5 -62t38.5 -198.5t-94 -198t-222 -61.5t-205 62t-39 198.5t94.5 198t222.5 61.5zM235.5 250q-9.5 -68 9.5 -99t71.5 -31t81 31t37.5 99q7 45 0 74t-26.5 42.5t-55.5 13.5q-52 0 -80 -31t-37.5 -99zM388 700l69 -150h-140l-109 150h180z" />
    <glyph glyph-name="oacute" unicode="&#xf3;" 
d="M372 510q147 0 204.5 -62t38.5 -198.5t-94 -198t-222 -61.5t-205 62t-39 198.5t94.5 198t222.5 61.5zM235.5 250q-9.5 -68 9.5 -99t71.5 -31t81 31t37.5 99q7 45 0 74t-26.5 42.5t-55.5 13.5q-52 0 -80 -31t-37.5 -99zM297 550l111 150h180l-151 -150h-140z" />
    <glyph glyph-name="ocircumflex" unicode="&#xf4;" 
d="M372 510q147 0 204.5 -62t38.5 -198.5t-94 -198t-222 -61.5t-205 62t-39 198.5t94.5 198t222.5 61.5zM235.5 250q-9.5 -68 9.5 -99t71.5 -31t81 31t37.5 99q7 45 0 74t-26.5 42.5t-55.5 13.5q-52 0 -80 -31t-37.5 -99zM488 700l59 -150h-110l-50 70l-70 -70h-110l101 150
h180z" />
    <glyph glyph-name="otilde" unicode="&#xf5;" 
d="M372 510q147 0 204.5 -62t38.5 -198.5t-94 -198t-222 -61.5t-205 62t-39 198.5t94.5 198t222.5 61.5zM235.5 250q-9.5 -68 9.5 -99t71.5 -31t81 31t37.5 99q7 45 0 74t-26.5 42.5t-55.5 13.5q-52 0 -80 -31t-37.5 -99zM212 580q7 53 45 91.5t83 38.5q30 0 52 -11
t30.5 -24t18.5 -24t19 -11q8 0 15 8t9 22h80q-7 -53 -45 -91.5t-83 -38.5q-31 0 -52.5 11t-30.5 24t-18.5 24t-18.5 11q-8 0 -15 -8t-9 -22h-80z" />
    <glyph glyph-name="odieresis" unicode="&#xf6;" 
d="M372 510q147 0 204.5 -62t38.5 -198.5t-94 -198t-222 -61.5t-205 62t-39 198.5t94.5 198t222.5 61.5zM235.5 250q-9.5 -68 9.5 -99t71.5 -31t81 31t37.5 99q7 45 0 74t-26.5 42.5t-55.5 13.5q-52 0 -80 -31t-37.5 -99zM285.5 750q35.5 0 56 -10t28 -31t2.5 -54
q-7 -50 -34 -72.5t-79 -22.5q-53 0 -73.5 22.5t-13.5 72.5q5 33 18 54t36.5 31t59 10zM525.5 750q52.5 0 73 -22.5t13.5 -72.5q-3 -25 -11.5 -43t-22.5 -29.5t-33.5 -17t-45.5 -5.5q-53 0 -73.5 22.5t-13.5 72.5t34 72.5t79.5 22.5z" />
    <glyph glyph-name="divide" unicode="&#xf7;" horiz-adv-x="560" 
d="M568 200h-520l18 130h520zM302.5 160q40.5 0 62 -23.5t16 -61.5t-33.5 -61.5t-68.5 -23.5t-62 23.5t-16 61.5t33.5 61.5t68.5 23.5zM356.5 540q40.5 0 62 -23.5t16.5 -61.5t-33 -61.5t-68.5 -23.5t-62 23.5t-16.5 61.5t33 61.5t68.5 23.5z" />
    <glyph glyph-name="oslash" unicode="&#xf8;" 
d="M55 250q19 137 94.5 198.5t222.5 61.5q17 0 48 -2l30 62h80l-36 -74q77 -22 106.5 -82.5t14.5 -163.5q-19 -137 -94 -198.5t-222 -61.5q-19 0 -49 2l-30 -62h-80l36 75q-77 22 -106 82t-15 163zM353 380q-52 0 -80 -31t-37.5 -99t9.5 -99t71.5 -31t81 31t37.5 99
q7 45 0 74t-26.5 42.5t-55.5 13.5z" />
    <glyph glyph-name="ugrave" unicode="&#xf9;" horiz-adv-x="590" 
d="M400 0l-15 34q-53 -44 -146 -44q-105 0 -144.5 57t-22.5 183l38 270h180l-38 -270q-5 -38 -1 -62.5t17.5 -36t38.5 -11.5q37 0 57 26t28 84l38 270h180l-70 -500h-140zM398 700l69 -150h-140l-109 150h180z" />
    <glyph glyph-name="uacute" unicode="&#xfa;" horiz-adv-x="590" 
d="M400 0l-15 34q-53 -44 -146 -44q-105 0 -144.5 57t-22.5 183l38 270h180l-38 -270q-5 -38 -1 -62.5t17.5 -36t38.5 -11.5q37 0 57 26t28 84l38 270h180l-70 -500h-140zM267 550l111 150h180l-151 -150h-140z" />
    <glyph glyph-name="ucircumflex" unicode="&#xfb;" horiz-adv-x="590" 
d="M400 0l-15 34q-53 -44 -146 -44q-105 0 -144.5 57t-22.5 183l38 270h180l-38 -270q-5 -38 -1 -62.5t17.5 -36t38.5 -11.5q37 0 57 26t28 84l38 270h180l-70 -500h-140zM478 700l59 -150h-110l-50 70l-70 -70h-110l101 150h180z" />
    <glyph glyph-name="udieresis" unicode="&#xfc;" horiz-adv-x="590" 
d="M400 0l-15 34q-53 -44 -146 -44q-105 0 -144.5 57t-22.5 183l38 270h180l-38 -270q-5 -38 -1 -62.5t17.5 -36t38.5 -11.5q37 0 57 26t28 84l38 270h180l-70 -500h-140zM265.5 750q35.5 0 56 -10t28 -31t2.5 -54q-7 -50 -34 -72.5t-79 -22.5q-53 0 -73.5 22.5t-13.5 72.5
q5 33 18 54t36.5 31t59 10zM505 750q36 0 56.5 -10t28 -31t2.5 -54q-7 -50 -34 -72.5t-79 -22.5q-53 0 -73.5 22.5t-13.5 72.5t34 72.5t79 22.5z" />
    <glyph glyph-name="yacute" unicode="&#xfd;" horiz-adv-x="540" 
d="M312 222l128 278h170l-239 -490q-40 -82 -69.5 -121.5t-59.5 -54t-77 -14.5h-120l15 110h70q14 0 21.5 1.5t17.5 7.5t19.5 21t21.5 40l6 13l-146 487h170zM287 550l111 150h180l-151 -150h-140z" />
    <glyph glyph-name="ydieresis" unicode="&#xff;" horiz-adv-x="540" 
d="M312 222l128 278h170l-239 -490q-40 -82 -69.5 -121.5t-59.5 -54t-77 -14.5h-120l15 110h70q14 0 21.5 1.5t17.5 7.5t19.5 21t21.5 40l6 13l-146 487h170zM265.5 750q35.5 0 56 -10t28 -31t2.5 -54q-7 -50 -34 -72.5t-79 -22.5q-53 0 -73.5 22.5t-13.5 72.5q5 33 18 54
t36.5 31t59 10zM505 750q36 0 56.5 -10t28 -31t2.5 -54q-7 -50 -34 -72.5t-79 -22.5q-53 0 -73.5 22.5t-13.5 72.5t34 72.5t79 22.5z" />
    <glyph glyph-name="Amacron" unicode="&#x100;" horiz-adv-x="700" 
d="M490 0h-1l-16 130h-219l-54 -130h-200l318 700h280l102 -700h-210zM424 533l-115 -273h149zM308 850h340l-14 -100h-340z" />
    <glyph glyph-name="amacron" unicode="&#x101;" horiz-adv-x="560" 
d="M209 -10q-100 0 -140 38t-28 122q8 60 39.5 97t89 55t145.5 18h70l3 20q5 37 -8.5 53.5t-46.5 16.5q-35 0 -52 -14t-22 -46h-170q12 84 74.5 122t188.5 38t176.5 -45t36.5 -145l-45 -320h-140l-16 36q-54 -46 -155 -46zM371 220h-50q-49 0 -71.5 -13t-27.5 -47
q-2 -14 0.5 -23.5t9 -15.5t17 -8.5t26.5 -2.5q42 0 64 21.5t29 68.5zM192 580l14 100h340l-14 -100h-340z" />
    <glyph glyph-name="Abreve" unicode="&#x102;" horiz-adv-x="700" 
d="M490 0h-1l-16 130h-219l-54 -130h-200l318 700h280l102 -700h-210zM424 533l-115 -273h149zM651 870q-9 -63 -53 -91.5t-133.5 -28.5t-126 28.5t-27.5 91.5h130q-2 -14 1 -23t11.5 -13t22.5 -4q40 0 45 40h130z" />
    <glyph glyph-name="abreve" unicode="&#x103;" horiz-adv-x="560" 
d="M209 -10q-100 0 -140 38t-28 122q8 60 39.5 97t89 55t145.5 18h70l3 20q5 37 -8.5 53.5t-46.5 16.5q-35 0 -52 -14t-22 -46h-170q12 84 74.5 122t188.5 38t176.5 -45t36.5 -145l-45 -320h-140l-16 36q-54 -46 -155 -46zM371 220h-50q-49 0 -71.5 -13t-27.5 -47
q-2 -14 0.5 -23.5t9 -15.5t17 -8.5t26.5 -2.5q42 0 64 21.5t29 68.5zM428 700h120q-7 -53 -29.5 -86t-62 -48.5t-99.5 -15.5q-89 0 -124.5 35.5t-24.5 114.5h120q-3 -21 0.5 -34t13.5 -19.5t28 -6.5t29.5 6.5t18.5 19.5t10 34z" />
    <glyph glyph-name="Aogonek" unicode="&#x104;" horiz-adv-x="700" 
d="M678 -90q-1 -1 -2 -1l-19 -139q-33 -20 -73 -20q-44 0 -69.5 26t-28.5 63.5t17.5 82t61.5 78.5h-75l-16 130h-219l-54 -130h-200l318 700h280l102 -700h-44q-46 -40 -48 -75q-2 -25 29 -25q18 0 37 9v1h3l1 1zM424 534l-115 -273h149z" />
    <glyph glyph-name="aogonek" unicode="&#x105;" horiz-adv-x="560" 
d="M365 36q-54 -46 -156 -46q-100 0 -140 38t-28 122q8 60 39.5 97t89 55t145.5 18h70l3 20q5 37 -8.5 53.5t-46.5 16.5q-35 0 -52 -14t-22 -46h-170q12 84 74.5 122t188.5 38t176.5 -45t36.5 -145l-45 -320h-60q-46 -40 -48 -75q-2 -25 29 -25q8 0 18.5 2.5t16.5 5.5l6 2
l-19 -140q-33 -20 -73 -20q-45 0 -71 27t-28 66t20.5 84t66.5 79zM371 220h-50q-49 0 -71.5 -13t-27.5 -47q-2 -19 3 -30t17 -15.5t33 -4.5q42 0 64 21.5t29 68.5z" />
    <glyph glyph-name="Cacute" unicode="&#x106;" horiz-adv-x="770" 
d="M574 240h200q-49 -137 -138.5 -198.5t-238.5 -61.5q-194 0 -269.5 88t-48.5 282t127.5 282t294.5 88q159 0 231 -62t73 -198h-200q-3 58 -33 84t-92 26q-84 0 -129.5 -52.5t-61.5 -168t14.5 -167.5t114.5 -52q63 0 99.5 26t56.5 84zM425 750l107 120h170l-137 -120h-140z
" />
    <glyph glyph-name="cacute" unicode="&#x107;" horiz-adv-x="580" 
d="M407 190h180q-26 -105 -94 -152.5t-194 -47.5q-147 0 -205 62t-39 198.5t94.5 198t222.5 61.5q126 0 181 -47.5t51 -152.5h-180q-1 37 -18 53.5t-53 16.5q-52 0 -80 -31t-38 -99q-7 -45 0 -74t27 -42.5t55 -13.5t56.5 16.5t33.5 53.5zM297 550l111 150h180l-151 -150
h-140z" />
    <glyph glyph-name="Ccircumflex" unicode="&#x108;" horiz-adv-x="770" 
d="M574 240h200q-49 -137 -138.5 -198.5t-238.5 -61.5q-194 0 -269.5 88t-48.5 282t127.5 282t294.5 88q159 0 231 -62t73 -198h-200q-3 58 -33 84t-92 26q-84 0 -129.5 -52.5t-61.5 -168t14.5 -167.5t114.5 -52q63 0 99.5 26t56.5 84zM675 750h-120l-43 50l-57 -50h-120
l97 120h180z" />
    <glyph glyph-name="ccircumflex" unicode="&#x109;" horiz-adv-x="580" 
d="M407 190h180q-26 -105 -94 -152.5t-194 -47.5q-147 0 -205 62t-39 198.5t94.5 198t222.5 61.5q126 0 181 -47.5t51 -152.5h-180q-1 37 -18 53.5t-53 16.5q-52 0 -80 -31t-38 -99q-7 -45 0 -74t27 -42.5t55 -13.5t56.5 16.5t33.5 53.5zM488 700l59 -150h-110l-50 70
l-70 -70h-110l101 150h180z" />
    <glyph glyph-name="Cdotaccent" unicode="&#x10a;" horiz-adv-x="770" 
d="M574 240h200q-49 -137 -138.5 -198.5t-238.5 -61.5q-194 0 -269.5 88t-48.5 282t127.5 282t294.5 88q159 0 231 -62t73 -198h-200q-3 58 -33 84t-92 26q-84 0 -129.5 -52.5t-61.5 -168t14.5 -167.5t114.5 -52q63 0 99.5 26t56.5 84zM525.5 900q52.5 0 73.5 -19t15 -61
t-32 -61t-78.5 -19t-74 19t-15.5 61t32.5 61t79 19z" />
    <glyph glyph-name="cdotaccent" unicode="&#x10b;" horiz-adv-x="580" 
d="M407 190h180q-26 -105 -94 -152.5t-194 -47.5q-147 0 -205 62t-39 198.5t94.5 198t222.5 61.5q126 0 181 -47.5t51 -152.5h-180q-1 37 -18 53.5t-53 16.5q-52 0 -80 -31t-38 -99q-7 -45 0 -74t27 -42.5t55 -13.5t56.5 16.5t33.5 53.5zM404 750q53 0 73.5 -21.5t14 -68.5
t-33 -68.5t-79 -21.5t-73.5 21.5t-14 68.5q3 24 11 41t22 28t33.5 16t45.5 5z" />
    <glyph glyph-name="Ccaron" unicode="&#x10c;" horiz-adv-x="770" 
d="M574 240h200q-49 -137 -138.5 -198.5t-238.5 -61.5q-194 0 -269.5 88t-48.5 282t127.5 282t294.5 88q159 0 231 -62t73 -198h-200q-3 58 -33 84t-92 26q-84 0 -129.5 -52.5t-61.5 -168t14.5 -167.5t114.5 -52q63 0 99.5 26t56.5 84zM682 870l-97 -120h-180l-63 120h120
l43 -50l57 50h120z" />
    <glyph glyph-name="ccaron" unicode="&#x10d;" horiz-adv-x="580" 
d="M407 190h180q-26 -105 -94 -152.5t-194 -47.5q-147 0 -205 62t-39 198.5t94.5 198t222.5 61.5q126 0 181 -47.5t51 -152.5h-180q-1 37 -18 53.5t-53 16.5q-52 0 -80 -31t-38 -99q-7 -45 0 -74t27 -42.5t55 -13.5t56.5 16.5t33.5 53.5zM568 700l-101 -150h-180l-59 150
h110l51 -70l69 70h110z" />
    <glyph glyph-name="Dcaron" unicode="&#x10e;" horiz-adv-x="740" 
d="M759 350q-26 -184 -123 -267t-286 -83h-290l98 700h290q189 0 263 -83t48 -267zM419 560h-80l-59 -420h80q84 0 129 50t60.5 160t-15.5 160t-115 50zM622 870l-97 -120h-180l-63 120h120l43 -50l57 50h120z" />
    <glyph glyph-name="dcaron" unicode="&#x10f;" horiz-adv-x="739" 
d="M243 -10l1 1q-116 0 -159.5 62t-24.5 198.5t80 198t177 61.5q89 0 134 -37l32 227h180l-99 -700h-140l-18 38q-55 -49 -163 -49zM311 120q47 0 73 31t35.5 99t-7.5 99t-65 31q-31 0 -53 -13.5t-35 -42t-20 -74.5q-9 -68 8 -99t64 -31zM749 710q37 0 50.5 -21.5t6.5 -68.5
q-9 -63 -43.5 -91.5t-103.5 -28.5l9 60q50 0 55 40q-21 0 -33.5 5t-17 16t-2.5 29q5 31 23.5 45.5t55.5 14.5z" />
    <glyph glyph-name="Dcroat" unicode="&#x110;" horiz-adv-x="770" 
d="M789 350q-26 -184 -123 -267t-286 -83h-290l45 320h-90l17 120h90l36 260h290q189 0 263 -83t48 -267zM449 560h-80l-17 -120h132l-17 -120h-132l-25 -180h80q56 0 94 22t61.5 68t33.5 120q16 110 -15 160t-115 50z" />
    <glyph glyph-name="dcroat" unicode="&#x111;" horiz-adv-x="630" 
d="M446 473l11 77h-180l12 80h180l9 70h180l-9 -70h70l-12 -80h-70l-77 -550h-140l-16 40q-60 -50 -165 -50q-116 0 -159.5 62t-24.5 198.5t80 198t177 61.5q89 0 134 -37zM307 120q32 0 53.5 13.5t35 42t19.5 74.5q10 68 -7 99t-64.5 31t-73 -31t-35 -99t7.5 -99t64 -31z
" />
    <glyph glyph-name="Emacron" unicode="&#x112;" 
d="M659 560h-320l-19 -130h280l-19 -140h-280l-21 -150h320l-20 -140h-520l98 700h520zM254 750l14 100h340l-14 -100h-340z" />
    <glyph glyph-name="emacron" unicode="&#x113;" horiz-adv-x="580" 
d="M228 200q-5 -35 1.5 -57t24.5 -32.5t50 -10.5q35 0 56 14.5t32 45.5h170q-28 -89 -93 -129.5t-180 -40.5q-142 0 -197.5 62t-36.5 198.5t92 198t214.5 61.5t197 -62t36.5 -198l-7 -50h-360zM346 400q-47 0 -71.5 -24t-32.5 -76h180q8 53 -10.5 76.5t-65.5 23.5zM201 580
l14 100h340l-14 -100h-340z" />
    <glyph glyph-name="Ebreve" unicode="&#x114;" 
d="M659 560h-320l-19 -130h280l-19 -140h-280l-21 -150h320l-20 -140h-520l98 700h520zM612 870q-9 -63 -53 -91.5t-133.5 -28.5t-126 28.5t-27.5 91.5h130q-3 -21 5.5 -30.5t29.5 -9.5q40 0 45 40h130z" />
    <glyph glyph-name="ebreve" unicode="&#x115;" horiz-adv-x="580" 
d="M228 200q-5 -35 1.5 -57t24.5 -32.5t50 -10.5q35 0 56 14.5t32 45.5h170q-28 -89 -93 -129.5t-180 -40.5q-142 0 -197.5 62t-36.5 198.5t92 198t214.5 61.5t197 -62t36.5 -198l-7 -50h-360zM346 400q-47 0 -71.5 -24t-32.5 -76h180q8 53 -10.5 76.5t-65.5 23.5zM438 700
h120q-5 -40 -19 -68t-37.5 -46.5t-56.5 -27t-78 -8.5q-89 0 -124.5 35.5t-24.5 114.5h120q-4 -32 6 -46t36 -14q18 0 29.5 6.5t18.5 19.5t10 34z" />
    <glyph glyph-name="Edotaccent" unicode="&#x116;" 
d="M659 560h-320l-19 -130h280l-19 -140h-280l-21 -150h320l-20 -140h-520l98 700h520zM446.5 900q52.5 0 73.5 -19t15 -61t-32 -61t-78.5 -19t-74 19t-15.5 61t32.5 61t79 19z" />
    <glyph glyph-name="edotaccent" unicode="&#x117;" horiz-adv-x="580" 
d="M228 200q-5 -35 1.5 -57t24.5 -32.5t50 -10.5q35 0 56 14.5t32 45.5h170q-28 -89 -93 -129.5t-180 -40.5q-142 0 -197.5 62t-36.5 198.5t92 198t214.5 61.5t197 -62t36.5 -198l-7 -50h-360zM346 400q-47 0 -71.5 -24t-32.5 -76h180q8 53 -10.5 76.5t-65.5 23.5zM395 750
q53 0 73.5 -21.5t14 -68.5t-33 -68.5t-79 -21.5t-73.5 21.5t-14 68.5q3 24 11 41t22 28t33.5 16t45.5 5z" />
    <glyph glyph-name="Eogonek" unicode="&#x118;" 
d="M545 -90q-1 0 -2 -1l-19 -139q-33 -20 -73 -20q-44 0 -69.5 26t-28.5 63.5t17.5 82t61.5 78.5h-372l98 700h520l-19 -140h-320l-19 -130h280l-19 -140h-280l-21 -150h320l-20 -140h-57q-46 -40 -48 -75q-2 -25 29 -25q11 0 39 9v1h2z" />
    <glyph glyph-name="eogonek" unicode="&#x119;" horiz-adv-x="580" 
d="M441 -90l1 -2l-20 -140q-32 -20 -72 -20q-57 0 -83 40t-11.5 97.5t63.5 103.5h-30q-141 0 -196.5 62t-36.5 198.5t92 198t214.5 61.5t197 -62t36.5 -198l-7 -50h-360q-5 -35 1.5 -57t24.5 -32.5t50 -10.5q35 0 56 14.5t32 45.5h170q-34 -107 -124 -145q-50 -34 -65 -75
q-9 -37 26 -39q8 0 18.5 2.5t16.5 5.5zM346 400q-47 0 -71.5 -24t-32.5 -76h180q8 53 -10.5 76.5t-65.5 23.5z" />
    <glyph glyph-name="Ecaron" unicode="&#x11a;" 
d="M659 560h-320l-19 -130h280l-19 -140h-280l-21 -150h320l-20 -140h-520l98 700h520zM602 870l-97 -120h-180l-63 120h120l43 -50l57 50h120z" />
    <glyph glyph-name="ecaron" unicode="&#x11b;" horiz-adv-x="580" 
d="M228 200q-5 -35 1.5 -57t24.5 -32.5t50 -10.5q35 0 56 14.5t32 45.5h170q-28 -89 -93 -129.5t-180 -40.5q-142 0 -197.5 62t-36.5 198.5t92 198t214.5 61.5t197 -62t36.5 -198l-7 -50h-360zM346 400q-47 0 -71.5 -24t-32.5 -76h180q8 53 -10.5 76.5t-65.5 23.5zM558 700
l-101 -150h-180l-59 150h110l51 -70l69 70h110z" />
    <glyph glyph-name="Gbreve" unicode="&#x11e;" horiz-adv-x="780" 
d="M439 280l19 130h350l-9 -60q-27 -194 -122.5 -282t-279.5 -88q-194 0 -269.5 88t-48 282t127.5 282t294 88q153 0 226 -57t80 -183h-190q-5 47 -37.5 68.5t-99.5 21.5q-84 0 -129.5 -52.5t-61.5 -168t14.5 -167.5t114.5 -52t127 35.5t54 114.5h-160zM692 870
q-9 -63 -53 -91.5t-133.5 -28.5t-126 28.5t-27.5 91.5h130q-3 -21 5.5 -30.5t29.5 -9.5q40 0 45 40h130z" />
    <glyph glyph-name="gbreve" unicode="&#x11f;" horiz-adv-x="609" 
d="M311 510v1q103 0 150 -49l28 38h140l-63 -449q-19 -137 -92 -199t-214 -62q-118 0 -172 40.5t-55 129.5h170q2 -32 16.5 -46t45.5 -14q52 0 80 29t37 91l1 7q-56 -37 -144 -37q-116 0 -159.5 62t-24.5 198.5t79.5 198t176.5 61.5zM342.5 381q-47.5 0 -73 -30.5
t-35.5 -98.5q-6 -45 -0.5 -74.5t23 -43t49.5 -13.5q47 0 73 31.5t35 99.5q10 68 -7 98.5t-64.5 30.5zM437 700h120q-7 -53 -29.5 -86t-62 -48.5t-99.5 -15.5q-89 0 -124.5 35.5t-24.5 114.5h120q-4 -32 6 -46t36 -14q18 0 29.5 6.5t18.5 19.5t10 34z" />
    <glyph glyph-name="Gdotaccent" unicode="&#x120;" horiz-adv-x="780" 
d="M439 280l19 130h350l-9 -60q-27 -194 -122.5 -282t-279.5 -88q-194 0 -269.5 88t-48 282t127.5 282t294 88q153 0 226 -57t80 -183h-190q-5 47 -37.5 68.5t-99.5 21.5q-84 0 -129.5 -52.5t-61.5 -168t14.5 -167.5t114.5 -52t127 35.5t54 114.5h-160zM525.5 900
q52.5 0 73.5 -19t15 -61t-32 -61t-78.5 -19t-74 19t-15.5 61t32.5 61t79 19z" />
    <glyph glyph-name="gdotaccent" unicode="&#x121;" horiz-adv-x="609" 
d="M311 510v1q103 0 150 -49l28 38h140l-63 -449q-19 -137 -92 -199t-214 -62q-118 0 -172 40.5t-55 129.5h170q2 -32 16.5 -46t45.5 -14q52 0 80 29t37 91l1 7q-56 -37 -144 -37q-116 0 -159.5 62t-24.5 198.5t79.5 198t176.5 61.5zM342.5 381q-47.5 0 -73 -30.5
t-35.5 -98.5q-6 -45 -0.5 -74.5t23 -43t49.5 -13.5q47 0 73 31.5t35 99.5q10 68 -7 98.5t-64.5 30.5zM394 750q53 0 73.5 -21.5t14.5 -68.5q-4 -24 -12 -41t-21.5 -28t-33 -16t-46.5 -5q-52 0 -73 21.5t-14 68.5q3 24 11 41t22 28t33.5 16t45.5 5z" />
    <glyph glyph-name="Gcedilla" unicode="&#x122;" horiz-adv-x="780" 
d="M439 280l19 130h350l-9 -60q-27 -194 -122.5 -282t-279.5 -88q-194 0 -269.5 88t-48 282t127.5 282t294 88q153 0 226 -57t80 -183h-190q-5 47 -37.5 68.5t-99.5 21.5q-84 0 -129.5 -52.5t-61.5 -168t14.5 -167.5t114.5 -52t127 35.5t54 114.5h-160zM394.5 -40
q36.5 0 50 -21.5t7.5 -68.5q-9 -63 -44 -91.5t-103 -28.5l8 60q50 0 56 40q-32 0 -44.5 12t-8.5 38q4 31 23 45.5t55.5 14.5z" />
    <glyph glyph-name="gcedilla" unicode="&#x123;" horiz-adv-x="609" 
d="M311 510v1q103 0 150 -49l28 38h140l-63 -449q-19 -137 -92 -199t-214 -62q-118 0 -172 40.5t-55 129.5h170q2 -32 16.5 -46t45.5 -14q52 0 80 29t37 91l1 7q-56 -37 -144 -37q-116 0 -159.5 62t-24.5 198.5t79.5 198t176.5 61.5zM342.5 381q-47.5 0 -73 -30.5
t-35.5 -98.5q-6 -45 -0.5 -74.5t23 -43t49.5 -13.5q47 0 73 31.5t35 99.5q10 68 -7 98.5t-64.5 30.5zM385 540q-37 0 -50.5 21.5t-6.5 68.5q6 42 23 68.5t47.5 39t75.5 12.5l-8 -60q-50 0 -56 -40q32 0 44.5 -12t8.5 -38q-4 -31 -22.5 -45.5t-55.5 -14.5z" />
    <glyph glyph-name="Itilde" unicode="&#x128;" horiz-adv-x="340" 
d="M168 700h200l-98 -700h-200zM107 760q7 51 42.5 80.5t82.5 29.5q31 0 53.5 -6t33 -14t23 -14t25.5 -6q7 0 14 6.5t8 13.5h70q-4 -34 -23 -59.5t-45.5 -38t-57 -12.5t-53 6t-32.5 14t-23 14t-25 6q-8 0 -15 -6t-8 -14h-70z" />
    <glyph glyph-name="itilde" unicode="&#x129;" horiz-adv-x="280" 
d="M230 0h-180l70 500h180zM52 580q7 53 45 91.5t83 38.5q30 0 52 -11t30.5 -24t18.5 -24t19 -11q8 0 15 8t9 22h80q-3 -26 -15.5 -50t-29.5 -41.5t-39 -28t-44 -10.5q-31 0 -52.5 11t-30.5 24t-18.5 24t-18.5 11q-5 0 -10 -3t-9 -10t-5 -17h-80z" />
    <glyph glyph-name="Imacron" unicode="&#x12a;" horiz-adv-x="340" 
d="M168 700h200l-98 -700h-200zM105 750l14 100h340l-14 -100h-340z" />
    <glyph glyph-name="imacron" unicode="&#x12b;" horiz-adv-x="280" 
d="M230 0h-180l70 500h180zM52 580l14 100h340l-14 -100h-340z" />
    <glyph glyph-name="Iogonek" unicode="&#x12e;" horiz-adv-x="320" 
d="M247 -90q-1 0 -2 -1l-19 -139q-33 -20 -73 -20q-44 0 -69.5 26t-28.5 63.5t17.5 82t61.5 78.5h-74l98 700h200l-98 -700h-35q-46 -40 -48 -75q-2 -25 29 -25q11 0 39 9v1h2z" />
    <glyph glyph-name="iogonek" unicode="&#x12f;" horiz-adv-x="300" 
d="M229 -90q-1 0 -2 -1l-19 -139q-33 -20 -73 -20q-44 0 -69.5 26t-28.5 63.5t17.5 82t61.5 78.5h-55l70 500h180l-70 -500h-34q-46 -40 -48 -75q-2 -25 29 -25q11 0 39 9v1h2zM253 730q52 0 73 -21.5t14 -68.5q-3 -24 -11.5 -41t-22 -28t-33 -16t-46.5 -5q-52 0 -73 21.5
t-14 68.5q3 24 11.5 41t22 28t33 16t46.5 5z" />
    <glyph glyph-name="Idotaccent" unicode="&#x130;" horiz-adv-x="320" 
d="M158 700h200l-98 -700h-200zM286.5 900q52.5 0 73.5 -19t15 -61t-32 -61t-78.5 -19t-74 19t-15.5 61t32.5 61t79 19z" />
    <glyph glyph-name="dotlessi" unicode="&#x131;" horiz-adv-x="280" 
d="M230 0h-180l70 500h180z" />
    <glyph glyph-name="IJ" unicode="&#x132;" horiz-adv-x="910" 
d="M158 700h200l-98 -700h-200zM380 210l5 40h190l-5 -40q-6 -42 5.5 -61t43 -19t48.5 19t23 61l68 490h200l-68 -490q-17 -115 -86 -167.5t-205 -52.5q-132 0 -184 52t-35 168z" />
    <glyph glyph-name="ij" unicode="&#x133;" 
d="M240 0h-180l70 500h180zM313 -50q22 0 38 13.5t19 36.5l70 500h180l-73 -520q-10 -75 -58.5 -117.5t-123.5 -42.5h-160l18 130h90zM253 730q52 0 73 -21.5t14 -68.5q-3 -24 -11.5 -41t-22 -28t-33 -16t-46.5 -5q-52 0 -73 21.5t-14 68.5q3 24 11.5 41t22 28t33 16t46.5 5
zM563 730q52 0 73 -21.5t14 -68.5t-33.5 -68.5t-79 -21.5t-73.5 21.5t-14 68.5q3 24 11.5 41t22 28t33 16t46.5 5z" />
    <glyph glyph-name="Kcedilla" unicode="&#x136;" horiz-adv-x="730" 
d="M358 700l-35 -255l245 255h240l-327 -340l249 -360h-240l-191 276l-39 -276h-200l98 700h200zM344.5 -40q36.5 0 50 -21.5t7.5 -68.5q-9 -63 -44 -91.5t-103 -28.5l8 60q50 0 56 40q-32 0 -44.5 12t-8.5 38q4 31 23 45.5t55.5 14.5z" />
    <glyph glyph-name="kcedilla" unicode="&#x137;" horiz-adv-x="610" 
d="M258 201l-28 -201h-180l98 700h180l-53 -380l175 180h210l-233 -240l183 -260h-210zM294 -40q37 0 50.5 -21.5t7.5 -68.5q-6 -42 -23.5 -68.5t-47.5 -39t-76 -12.5l8 60q50 0 56 40q-32 0 -44.5 12t-8.5 38q3 21 12 34t25.5 19.5t40.5 6.5z" />
    <glyph glyph-name="Lacute" unicode="&#x139;" horiz-adv-x="570" 
d="M561 150l-21 -150h-480l98 700h200l-77 -550h280zM195 750l107 120h170l-137 -120h-140z" />
    <glyph glyph-name="lacute" unicode="&#x13a;" horiz-adv-x="280" 
d="M328 700l-98 -700h-180l98 700h180zM175 750l107 120h170l-137 -120h-140z" />
    <glyph glyph-name="Lcedilla" unicode="&#x13b;" horiz-adv-x="570" 
d="M561 150l-21 -150h-480l98 700h200l-77 -550h280zM294 -40q37 0 50.5 -21.5t7.5 -68.5q-9 -63 -44 -91.5t-103 -28.5l8 60q50 0 56 40q-32 0 -44.5 12t-8.5 38q3 21 12 34t25.5 19.5t40.5 6.5z" />
    <glyph glyph-name="lcedilla" unicode="&#x13c;" horiz-adv-x="280" 
d="M328 700l-98 -700h-180l98 700h180zM134 -40q37 0 50.5 -21.5t7.5 -68.5q-9 -63 -44 -91.5t-103 -28.5l8 60q50 0 56 40q-32 0 -44.5 12t-8.5 38q3 21 12 34t25.5 19.5t40.5 6.5z" />
    <glyph glyph-name="Lcaron" unicode="&#x13d;" horiz-adv-x="570" 
d="M561 150l-21 -150h-480l98 700h200l-77 -550h280zM470 710q37 0 50.5 -21.5t6.5 -68.5q-9 -63 -43.5 -91.5t-103.5 -28.5l9 60q50 0 55 40q-21 0 -33.5 5t-17 16t-2.5 29q5 31 23.5 45.5t55.5 14.5z" />
    <glyph glyph-name="lcaron" unicode="&#x13e;" horiz-adv-x="430" 
d="M328 700l-98 -700h-180l98 700h180zM439.5 709q36.5 0 50.5 -21.5t7 -68.5q-9 -63 -44 -91.5t-103 -28.5l9 60q50 0 55 40q-31 0 -43.5 12t-9.5 38q5 31 23.5 45.5t55 14.5z" />
    <glyph glyph-name="Lslash" unicode="&#x141;" 
d="M591 150l-21 -150h-480l43 303l-98 -53l18 130l98 53l37 267h200l-21 -150l184 100l-18 -130l-184 -100l-38 -270h280z" />
    <glyph glyph-name="lslash" unicode="&#x142;" horiz-adv-x="400" 
d="M388 700v-4l-23 -162l97 53l-18 -130l-97 -52l-57 -407h-180l42 303l-97 -52l18 130l98 53l37 268h180z" />
    <glyph glyph-name="Nacute" unicode="&#x143;" horiz-adv-x="760" 
d="M608 700h190l-98 -700h-230l-157 450l-63 -450h-190l98 700h230l157 -450zM405 750l107 120h170l-137 -120h-140z" />
    <glyph glyph-name="nacute" unicode="&#x144;" horiz-adv-x="590" 
d="M260 500l15 -34q54 44 147 44q105 0 144.5 -57t21.5 -183l-38 -270h-180l38 270q8 58 -5 84t-49.5 26t-57 -26t-28.5 -84l-38 -270h-180l70 500h140zM297 550l111 150h180l-151 -150h-140z" />
    <glyph glyph-name="Ncedilla" unicode="&#x145;" horiz-adv-x="760" 
d="M608 700h190l-98 -700h-230l-157 450l-63 -450h-190l98 700h230l157 -450zM374.5 -40q36.5 0 50 -21.5t7.5 -68.5q-9 -63 -44 -91.5t-103 -28.5l8 60q50 0 56 40q-32 0 -44.5 12t-8.5 38q4 31 23 45.5t55.5 14.5z" />
    <glyph glyph-name="ncedilla" unicode="&#x146;" horiz-adv-x="590" 
d="M260 500l15 -34q54 44 147 44q105 0 144.5 -57t21.5 -183l-38 -270h-180l38 270q8 58 -5 84t-49.5 26t-57 -26t-28.5 -84l-38 -270h-180l70 500h140zM293 -40q37 0 50.5 -21.5t7.5 -68.5q-9 -63 -44 -91.5t-103 -28.5l8 60q50 0 56 40q-32 0 -44.5 12t-8.5 38q3 21 12 34
t25.5 19.5t40.5 6.5z" />
    <glyph glyph-name="Ncaron" unicode="&#x147;" horiz-adv-x="760" 
d="M608 700h190l-98 -700h-230l-157 450l-63 -450h-190l98 700h230l157 -450zM662 870l-97 -120h-180l-63 120h120l43 -50l57 50h120z" />
    <glyph glyph-name="ncaron" unicode="&#x148;" horiz-adv-x="590" 
d="M260 500l15 -34q54 44 147 44q105 0 144.5 -57t21.5 -183l-38 -270h-180l38 270q8 58 -5 84t-49.5 26t-57 -26t-28.5 -84l-38 -270h-180l70 500h140zM568 700l-101 -150h-180l-59 150h110l51 -70l69 70h110z" />
    <glyph glyph-name="Omacron" unicode="&#x14c;" horiz-adv-x="800" 
d="M501 720q194 0 269.5 -88t48.5 -282t-127.5 -282t-294.5 -88t-269.5 88t-48.5 282t127.5 282t294.5 88zM418 130q43 0 74.5 12.5t55 39.5t38.5 68.5t23 99.5q12 77 1.5 125.5t-42.5 71.5t-88 23q-84 0 -129.5 -52.5t-61.5 -168t14.5 -167.5t114.5 -52zM334 750l14 100
h340l-14 -100h-340z" />
    <glyph glyph-name="omacron" unicode="&#x14d;" 
d="M372 510q147 0 204.5 -62t38.5 -198.5t-94 -198t-222 -61.5t-205 62t-39 198.5t94.5 198t222.5 61.5zM235.5 250q-9.5 -68 9.5 -99t71.5 -31t81 31t37.5 99q7 45 0 74t-26.5 42.5t-55.5 13.5q-52 0 -80 -31t-37.5 -99zM206 550l14 100h340l-14 -100h-340z" />
    <glyph glyph-name="Obreve" unicode="&#x14e;" horiz-adv-x="800" 
d="M501 720q194 0 269.5 -88t48.5 -282t-127.5 -282t-294.5 -88t-269.5 88t-48.5 282t127.5 282t294.5 88zM418 130q43 0 74.5 12.5t55 39.5t38.5 68.5t23 99.5q12 77 1.5 125.5t-42.5 71.5t-88 23q-84 0 -129.5 -52.5t-61.5 -168t14.5 -167.5t114.5 -52zM692 870
q-9 -63 -53 -91.5t-133.5 -28.5t-126 28.5t-27.5 91.5h130q-3 -21 5.5 -30.5t29.5 -9.5q40 0 45 40h130z" />
    <glyph glyph-name="obreve" unicode="&#x14f;" 
d="M372 510q147 0 204.5 -62t38.5 -198.5t-94 -198t-222 -61.5t-205 62t-39 198.5t94.5 198t222.5 61.5zM235.5 250q-9.5 -68 9.5 -99t71.5 -31t81 31t37.5 99q7 45 0 74t-26.5 42.5t-55.5 13.5q-52 0 -80 -31t-37.5 -99zM448 700h120q-5 -40 -19 -68t-37.5 -46.5t-56.5 -27
t-78 -8.5q-89 0 -124.5 35.5t-24.5 114.5h120q-3 -21 0.5 -34t13.5 -19.5t28 -6.5t29.5 6.5t18.5 19.5t10 34z" />
    <glyph glyph-name="Ohungarumlaut" unicode="&#x150;" horiz-adv-x="800" 
d="M501 720q194 0 269.5 -88t48.5 -282t-127.5 -282t-294.5 -88t-269.5 88t-48.5 282t127.5 282t294.5 88zM418 130q43 0 74.5 12.5t55 39.5t38.5 68.5t23 99.5q12 77 1.5 125.5t-42.5 71.5t-88 23q-84 0 -129.5 -52.5t-61.5 -168t14.5 -167.5t114.5 -52zM325 750l101 150
h170l-141 -150h-130zM555 750l101 150h170l-141 -150h-130z" />
    <glyph glyph-name="ohungarumlaut" unicode="&#x151;" horiz-adv-x="620" 
d="M372 510q147 0 204.5 -62t38.5 -198.5t-94 -198t-222 -61.5t-205 62t-39 198.5t94.5 198t222.5 61.5zM235.5 250q-9.5 -68 9.5 -99t71.5 -31t81 31t37.5 99q7 45 0 74t-26.5 42.5t-55.5 13.5q-52 0 -80 -31t-37.5 -99zM197 550l101 150h170l-141 -150h-130zM427 550
l101 150h170l-141 -150h-130z" />
    <glyph glyph-name="OE" unicode="&#x152;" horiz-adv-x="1080" 
d="M1139 560h-300l-19 -130h260l-19 -140h-260l-21 -150h300l-20 -140h-480l8 60q-39 -41 -93.5 -60.5t-135.5 -19.5q-171 0 -239 88.5t-41 281.5t120 281.5t264 88.5q81 0 130.5 -19.5t76.5 -60.5l8 60h480zM418 130q43 0 74.5 12.5t55 39.5t38.5 68.5t23 99.5
q12 77 1.5 125.5t-42.5 71.5t-88 23q-84 0 -129.5 -52.5t-61.5 -168t14.5 -167.5t114.5 -52z" />
    <glyph glyph-name="oe" unicode="&#x153;" horiz-adv-x="941" 
d="M588 200q-3 -26 -1 -45t11.5 -31t26 -18t40.5 -6q29 0 54 16.5t34 43.5h170q-24 -76 -99.5 -123t-173.5 -47q-100 0 -157 50q-65 -50 -194 -50q-147 0 -205 62t-39 198.5t94.5 198t222.5 61.5q129 0 180 -50q71 50 171 50q122 0 186 -71t47 -189l-7 -50h-361zM236 250
q-7 -45 0 -74t27 -42.5t55 -13.5t59 13.5t38.5 42t20.5 74.5q7 45 0.5 74t-26.5 42.5t-56 13.5q-52 0 -80 -31t-38 -99zM707 400q-48 0 -72.5 -23.5t-32.5 -76.5h181q7 45 -14 72.5t-62 27.5z" />
    <glyph glyph-name="Racute" unicode="&#x154;" horiz-adv-x="720" 
d="M377 250h-82l-35 -250h-200l98 700h330q73 0 125.5 -19t80.5 -51.5t38.5 -72.5t3.5 -87q-21 -152 -166 -200l120 -270h-210zM313 380h120q44 0 71 25.5t32.5 64.5t-14.5 64.5t-63 25.5h-120zM355 750l107 120h170l-137 -120h-140z" />
    <glyph glyph-name="racute" unicode="&#x155;" horiz-adv-x="430" 
d="M380 360h-1q-26 0 -45.5 -6.5t-34 -20t-23 -34t-12.5 -49.5l-35 -250h-180l70 500h140l18 -43q55 53 124 53h80l-21 -150h-80zM227 550l111 150h180l-151 -150h-140z" />
    <glyph glyph-name="Rcedilla" unicode="&#x156;" horiz-adv-x="720" 
d="M377 250h-82l-35 -250h-200l98 700h330q73 0 125.5 -19t80.5 -51.5t38.5 -72.5t3.5 -87q-21 -152 -166 -200l120 -270h-210zM313 380h120q44 0 71 25.5t32.5 64.5t-14.5 64.5t-63 25.5h-120zM354.5 -40q36.5 0 50 -21.5t7.5 -68.5q-9 -63 -44 -91.5t-103 -28.5l8 60
q50 0 56 40q-32 0 -44.5 12t-8.5 38q4 31 23 45.5t55.5 14.5z" />
    <glyph glyph-name="rcedilla" unicode="&#x157;" horiz-adv-x="419" 
d="M380 360h-1q-26 0 -45.5 -6.5t-34 -20t-23 -34t-12.5 -49.5l-35 -250h-180l70 500h140l18 -43q55 53 124 53h80l-21 -150h-80zM134 -40q37 0 50.5 -21.5t7.5 -68.5q-9 -63 -44 -91.5t-103 -28.5l8 60q50 0 56 40q-32 0 -44.5 12t-8.5 38q3 21 12 34t25.5 19.5t40.5 6.5z
" />
    <glyph glyph-name="Rcaron" unicode="&#x158;" horiz-adv-x="720" 
d="M368 250h-73l-35 -250h-200l98 700h330q73 0 125.5 -19t80.5 -51.5t38.5 -72.5t3.5 -87q-22 -157 -174 -202l128 -268h-210zM313 380h130q80 0 93 90t-67 90h-130zM612 870l-97 -120h-180l-63 120h120l43 -50l57 50h120z" />
    <glyph glyph-name="rcaron" unicode="&#x159;" horiz-adv-x="419" 
d="M380 360h-1q-26 0 -45.5 -6.5t-34 -20t-23 -34t-12.5 -49.5l-35 -250h-180l70 500h140l18 -43q55 53 124 53h80l-21 -150h-80zM498 700l-101 -150h-180l-59 150h110l51 -70l69 70h110z" />
    <glyph glyph-name="Sacute" unicode="&#x15a;" horiz-adv-x="660" 
d="M303 520q-3 -19 12.5 -33.5t42.5 -23t61.5 -18.5t70.5 -19.5t69.5 -27.5t58.5 -41t36.5 -61t5.5 -86q-17 -121 -96 -175.5t-236.5 -54.5t-221.5 52t-48 168h180q-7 -47 18.5 -68.5t88.5 -21.5q58 0 86.5 16.5t33.5 53.5q4 25 -10.5 43.5t-41.5 29t-61 21.5t-70.5 20
t-70 25t-59 36.5t-37.5 55t-6 79.5q17 121 93.5 175.5t228.5 54.5t214 -52t45 -168h-180q7 47 -16 68.5t-81 21.5q-35 0 -58 -7.5t-35.5 -22.5t-16.5 -40zM355 750l107 120h170l-137 -120h-140z" />
    <glyph glyph-name="sacute" unicode="&#x15b;" horiz-adv-x="510" 
d="M242 369q-2 -16 13 -26t40.5 -15.5t57 -11t62 -15.5t54.5 -25.5t36.5 -45t6.5 -70.5q-12 -89 -76 -129.5t-193 -40.5q-118 0 -166 38t-36 122h170q-2 -16 0 -27t8 -18.5t17 -11t27 -3.5q31 0 47 12t20 38q2 18 -12.5 29t-39 17t-55 11t-60 14.5t-53 24.5t-35.5 44t-6 70
q12 84 72 122t181 38q115 0 162.5 -35.5t36.5 -114.5h-160q3 26 -9.5 38t-44 12t-47 -9.5t-18.5 -31.5zM247 550l111 150h180l-151 -150h-140z" />
    <glyph glyph-name="Scircumflex" unicode="&#x15c;" horiz-adv-x="660" 
d="M303 520q-3 -19 12.5 -33.5t42.5 -23t61.5 -18.5t70.5 -19.5t69.5 -27.5t58.5 -41t36.5 -61t5.5 -86q-17 -121 -96 -175.5t-236.5 -54.5t-221.5 52t-48 168h180q-7 -47 18.5 -68.5t88.5 -21.5q58 0 86.5 16.5t33.5 53.5q4 25 -10.5 43.5t-41.5 29t-61 21.5t-70.5 20
t-70 25t-59 36.5t-37.5 55t-6 79.5q17 121 93.5 175.5t228.5 54.5t214 -52t45 -168h-180q7 47 -16 68.5t-81 21.5q-35 0 -58 -7.5t-35.5 -22.5t-16.5 -40zM605 750h-120l-43 50l-57 -50h-120l97 120h180z" />
    <glyph glyph-name="scircumflex" unicode="&#x15d;" horiz-adv-x="510" 
d="M242 369q-2 -16 13 -26t40.5 -15.5t57 -11t62 -15.5t54.5 -25.5t36.5 -45t6.5 -70.5q-12 -89 -76 -129.5t-193 -40.5q-118 0 -166 38t-36 122h170q-2 -16 0 -27t8 -18.5t17 -11t27 -3.5q31 0 47 12t20 38q2 18 -12.5 29t-39 17t-55 11t-60 14.5t-53 24.5t-35.5 44t-6 70
q12 84 72 122t181 38q115 0 162.5 -35.5t36.5 -114.5h-160q3 26 -9.5 38t-44 12t-47 -9.5t-18.5 -31.5zM438 700l59 -150h-110l-50 70l-70 -70h-110l101 150h180z" />
    <glyph glyph-name="Scedilla" unicode="&#x15e;" horiz-adv-x="660" 
d="M272 -18h-1q-126 8 -177 60.5t-36 157.5h180q-7 -47 18.5 -68.5t88.5 -21.5q58 0 86.5 16.5t33.5 53.5q4 25 -10.5 43.5t-41.5 29t-61.5 21.5t-70.5 20t-69.5 25t-59 36.5t-37.5 55t-6 79.5q17 121 93.5 175.5t228.5 54.5t214 -52t45 -168h-180q5 32 -4 51.5t-31.5 29
t-61.5 9.5q-35 0 -58 -7.5t-35.5 -22.5t-16.5 -40q-3 -19 12.5 -33.5t42.5 -23t61.5 -18.5t70.5 -19.5t69.5 -27.5t58.5 -41t36.5 -61t5.5 -86q-16 -113 -86.5 -168t-208.5 -61l-11 -31q4 -1 9.5 -2.5t20 -9t25 -16.5t18 -25.5t4.5 -36.5q-7 -52 -67 -81t-158 -29l10 70
q80 0 85 40q2 15 -16 22.5t-49 7.5z" />
    <glyph glyph-name="scedilla" unicode="&#x15f;" horiz-adv-x="510" 
d="M195 -8h2q-92 7 -129.5 45t-26.5 113h170q-2 -16 -0.5 -27t8 -18.5t17.5 -11t27 -3.5q31 0 47 12t20 38q2 18 -12.5 29t-39 17t-55 11t-60 14.5t-53 24.5t-35.5 44t-6 70q12 84 72 122t181 38q115 0 162.5 -35.5t36.5 -114.5h-160q3 26 -9.5 38t-44 12t-47 -9.5
t-18.5 -31.5q-2 -16 13 -26t40.5 -15.5t57 -11t62 -15.5t54.5 -25.5t36.5 -45t6.5 -70.5q-11 -81 -65 -121.5t-159 -47.5l-16 -41q4 -1 9.5 -2.5t20 -9t25 -16.5t18 -25.5t4.5 -36.5q-7 -52 -67 -81t-158 -29l10 70q80 0 85 40q2 10 -6.5 16.5t-23.5 10t-35 3.5z" />
    <glyph glyph-name="Scaron" unicode="&#x160;" horiz-adv-x="660" 
d="M303 520q-3 -19 12.5 -33.5t42.5 -23t61.5 -18.5t70.5 -19.5t69.5 -27.5t58.5 -41t36.5 -61t5.5 -86q-17 -121 -96 -175.5t-236.5 -54.5t-221.5 52t-48 168h180q-7 -47 18.5 -68.5t88.5 -21.5q58 0 86.5 16.5t33.5 53.5q4 25 -10.5 43.5t-41.5 29t-61 21.5t-70.5 20
t-70 25t-59 36.5t-37.5 55t-6 79.5q17 121 93.5 175.5t228.5 54.5t214 -52t45 -168h-180q7 47 -16 68.5t-81 21.5q-35 0 -58 -7.5t-35.5 -22.5t-16.5 -40zM612 870l-97 -120h-180l-63 120h120l43 -50l57 50h120z" />
    <glyph glyph-name="scaron" unicode="&#x161;" horiz-adv-x="510" 
d="M242 369q-2 -16 13 -26t40.5 -15.5t57 -11t62 -15.5t54.5 -25.5t36.5 -45t6.5 -70.5q-12 -89 -76 -129.5t-193 -40.5q-118 0 -166 38t-36 122h170q-2 -16 0 -27t8 -18.5t17 -11t27 -3.5q31 0 47 12t20 38q2 18 -12.5 29t-39 17t-55 11t-60 14.5t-53 24.5t-35.5 44t-6 70
q12 84 72 122t181 38q115 0 162.5 -35.5t36.5 -114.5h-160q3 26 -9.5 38t-44 12t-47 -9.5t-18.5 -31.5zM518 700l-101 -150h-180l-59 150h110l51 -70l69 70h110z" />
    <glyph glyph-name="Tcedilla" unicode="&#x162;" horiz-adv-x="640" 
d="M269 0h-49l77 550h-200l21 150h600l-21 -150h-200l-77 -550h-58l-19 -50q4 -1 9.5 -2.5t20 -9t25 -16.5t18 -25.5t4.5 -36.5q-7 -52 -67 -81t-158 -29l10 70q80 0 85 40q2 15 -16 22.5t-49 7.5z" />
    <glyph glyph-name="tcedilla" unicode="&#x163;" horiz-adv-x="450" 
d="M212 6q-51 13 -74.5 53t-15.5 101l33 230h-80l15 110h80l19 130h180l-19 -130h140l-15 -110h-140l-30 -210q-3 -22 9 -36t34 -14h90l-18 -130h-118l-19 -50q4 -1 9.5 -2.5t20 -9t25 -16.5t18 -25.5t4.5 -36.5q-7 -52 -67 -81t-158 -29l10 70q80 0 85 40q2 10 -6.5 16.5
t-23.5 10t-35 3.5z" />
    <glyph glyph-name="Tcaron" unicode="&#x164;" horiz-adv-x="640" 
d="M718 700l-21 -150h-200l-77 -550h-200l77 550h-200l21 150h600zM602 870l-97 -120h-180l-63 120h120l43 -50l57 50h120z" />
    <glyph glyph-name="tcaron" unicode="&#x165;" horiz-adv-x="449" 
d="M305 180q-3 -22 9 -36t34 -14h90l-18 -130h-160q-75 0 -111.5 42.5t-26.5 117.5l33 230h-80l15 110h80l19 130h180l-19 -130h140l-15 -110h-140zM481.5 730q36.5 0 50.5 -21.5t7 -68.5q-9 -63 -44 -91.5t-103 -28.5l9 60q50 0 55 40q-21 0 -33.5 5t-17 16t-2.5 29
q5 31 23.5 45.5t55 14.5z" />
    <glyph glyph-name="Utilde" unicode="&#x168;" horiz-adv-x="740" 
d="M97 260l61 440h200l-61 -440q-10 -68 12 -99t79.5 -31t88 31t40.5 99l61 440h200l-61 -440q-14 -99 -55 -160t-113.5 -90.5t-181.5 -29.5q-163 0 -227 66.5t-43 213.5zM307 760q5 34 23.5 59.5t45 38t57 12.5t53 -6t33 -14t23 -14t25.5 -6q7 0 14 6.5t8 13.5h70
q-4 -34 -23 -59.5t-45.5 -38t-57 -12.5t-53 6t-32.5 14t-23 14t-25 6q-8 0 -15 -6t-8 -14h-70z" />
    <glyph glyph-name="utilde" unicode="&#x169;" horiz-adv-x="590" 
d="M400 0l-15 34q-53 -44 -146 -44q-105 0 -144.5 57t-22.5 183l38 270h180l-38 -270q-5 -38 -1 -62.5t17.5 -36t38.5 -11.5q37 0 57 26t28 84l38 270h180l-70 -500h-140zM204 600q8 53 46 91.5t83 38.5q30 0 52 -11t30.5 -24t18 -24t19.5 -11q8 0 15 8t9 22h80
q-7 -53 -45 -91.5t-83 -38.5q-31 0 -52.5 11t-30.5 24t-18.5 24t-18.5 11t-16 -8t-9 -22h-80z" />
    <glyph glyph-name="Umacron" unicode="&#x16a;" horiz-adv-x="740" 
d="M97 260l61 440h200l-61 -440q-10 -68 12 -99t79.5 -31t88 31t40.5 99l61 440h200l-61 -440q-14 -99 -55 -160t-113.5 -90.5t-181.5 -29.5q-163 0 -227 66.5t-43 213.5zM304 750l14 100h340l-14 -100h-340z" />
    <glyph glyph-name="umacron" unicode="&#x16b;" horiz-adv-x="590" 
d="M400 0l-15 34q-53 -44 -146 -44q-105 0 -144.5 57t-22.5 183l38 270h180l-38 -270q-5 -38 -1 -62.5t17.5 -36t38.5 -11.5q37 0 57 26t28 84l38 270h180l-70 -500h-140zM202 580l14 100h340l-14 -100h-340z" />
    <glyph glyph-name="Ubreve" unicode="&#x16c;" horiz-adv-x="740" 
d="M97 260l61 440h200l-61 -440q-10 -68 12 -99t79.5 -31t88 31t40.5 99l61 440h200l-61 -440q-14 -99 -55 -160t-113.5 -90.5t-181.5 -29.5q-163 0 -227 66.5t-43 213.5zM662 870q-9 -63 -53 -91.5t-133.5 -28.5t-126 28.5t-27.5 91.5h130q-3 -21 5.5 -30.5t29.5 -9.5
q40 0 45 40h130z" />
    <glyph glyph-name="ubreve" unicode="&#x16d;" horiz-adv-x="590" 
d="M400 0l-15 34q-53 -44 -146 -44q-105 0 -144.5 57t-22.5 183l38 270h180l-38 -270q-5 -38 -1 -62.5t17.5 -36t38.5 -11.5q37 0 57 26t28 84l38 270h180l-70 -500h-140zM428 700h120q-7 -53 -29.5 -86t-62 -48.5t-99.5 -15.5q-89 0 -124.5 35.5t-24.5 114.5h120
q-4 -32 6 -46t36 -14q18 0 29.5 6.5t18.5 19.5t10 34z" />
    <glyph glyph-name="Uring" unicode="&#x16e;" horiz-adv-x="740" 
d="M97 260l61 440h200l-61 -440q-10 -68 12 -99t79.5 -31t88 31t40.5 99l61 440h200l-61 -440q-14 -99 -55 -160t-113.5 -90.5t-181.5 -29.5q-163 0 -227 66.5t-43 213.5zM498 910q68 0 95.5 -26t18.5 -84q-5 -39 -22 -63t-47 -35.5t-76 -11.5q-68 0 -95.5 26t-19 84t43 84
t102.5 26zM477 760q40 0 45 40q3 21 -5 30.5t-29 9.5q-40 0 -46 -40q-2 -14 1 -23t11.5 -13t22.5 -4z" />
    <glyph glyph-name="uring" unicode="&#x16f;" horiz-adv-x="590" 
d="M400 0l-15 34q-53 -44 -146 -44q-105 0 -144.5 57t-22.5 183l38 270h180l-38 -270q-5 -38 -1 -62.5t17.5 -36t38.5 -11.5q37 0 57 26t28 84l38 270h180l-70 -500h-140zM395.5 750q68.5 0 95.5 -26t19 -84q-5 -39 -22 -63t-47.5 -35.5t-76.5 -11.5q-68 0 -95 26t-19 84
t42.5 84t103 26zM374 600q40 0 46 40q3 21 -5 30.5t-29 9.5q-40 0 -46 -40q-3 -21 5 -30.5t29 -9.5z" />
    <glyph glyph-name="Uhungarumlaut" unicode="&#x170;" horiz-adv-x="740" 
d="M97 260l61 440h200l-61 -440q-10 -68 12 -99t79.5 -31t88 31t40.5 99l61 440h200l-61 -440q-14 -99 -55 -160t-113.5 -90.5t-181.5 -29.5q-163 0 -227 66.5t-43 213.5zM275 750l101 150h170l-141 -150h-130zM505 750l101 150h170l-141 -150h-130z" />
    <glyph glyph-name="uhungarumlaut" unicode="&#x171;" 
d="M400 0l-15 34q-53 -44 -146 -44q-105 0 -144.5 57t-22.5 183l38 270h180l-38 -270q-5 -38 -1 -62.5t17.5 -36t38.5 -11.5q37 0 57 26t28 84l38 270h180l-70 -500h-140zM268 700h170l-141 -150h-130zM498 700h170l-141 -150h-130z" />
    <glyph glyph-name="Uogonek" unicode="&#x172;" horiz-adv-x="740" 
d="M536 -90h-1l-19 -139q-33 -20 -73 -20q-55 0 -80.5 37.5t-14.5 92.5t55 101q-12 -1 -36 -1q-162 0 -226.5 66.5t-43.5 213.5l62 440h200l-62 -440q-7 -46 0.5 -74.5t30 -42t60.5 -13.5q58 0 88.5 31t40.5 99l62 440h200l-62 -440q-16 -111 -66 -175t-140 -89
q-46 -42 -45 -75q2 -21 29 -22q19 0 40 10l1 1v-1z" />
    <glyph glyph-name="uogonek" unicode="&#x173;" horiz-adv-x="590" 
d="M480 0h-1q-46 -40 -48 -75q-2 -25 29 -25q8 0 18.5 2.5t16.5 5.5l6 2l-19 -140q-33 -20 -73 -20q-45 0 -71 27t-28 66t20.5 84t66.5 79l-12 28q-53 -44 -146 -44q-105 0 -144.5 57t-22.5 183l38 270h180l-38 -270q-5 -38 -1 -62.5t17.5 -36t38.5 -11.5q37 0 57 26t28 84
l38 270h180l-70 -500h-60z" />
    <glyph glyph-name="Wcircumflex" unicode="&#x174;" horiz-adv-x="1020" 
d="M489 700h238l14 -495l167 495h200l-258 -700h-260l-19 487l-141 -487h-260l-62 700h200l29 -495zM779 750h-120l-43 50l-57 -50h-120l97 120h180z" />
    <glyph glyph-name="wcircumflex" unicode="&#x175;" horiz-adv-x="870" 
d="M151 0h-1l-70 500h180l29 -350l111 350h220l6 -344l124 344h180l-210 -500h-220l-14 366l-116 -366h-219zM672 550h-110l-50 70l-70 -70h-110l101 150h180z" />
    <glyph glyph-name="Ycircumflex" unicode="&#x176;" horiz-adv-x="680" 
d="M477 260l-37 -260h-190l37 260l-189 440h220l90 -250l160 250h210zM625 750h-120l-43 50l-57 -50h-120l97 120h180z" />
    <glyph glyph-name="ycircumflex" unicode="&#x177;" horiz-adv-x="540" 
d="M312 222l128 278h170l-239 -490q-40 -82 -69.5 -121.5t-59.5 -54t-77 -14.5h-120l15 110h70q14 0 21.5 1.5t17.5 7.5t19.5 21t21.5 40l6 13l-146 487h170zM527 550h-110l-50 70l-70 -70h-110l101 150h180z" />
    <glyph glyph-name="Ydieresis" unicode="&#x178;" horiz-adv-x="680" 
d="M477 260l-37 -260h-190l37 260l-189 440h220l90 -250l160 250h210zM345.5 890q52.5 0 73.5 -19t15 -61t-32.5 -61t-79 -19t-73.5 19t-15 61t32.5 61t79 19zM605.5 890q52.5 0 73.5 -19t15 -61t-32.5 -61t-79 -19t-73.5 19t-15 61t32.5 61t79 19z" />
    <glyph glyph-name="Zacute" unicode="&#x179;" horiz-adv-x="640" 
d="M280 140h350l-20 -140h-580l17 120l402 440h-330l19 140h560l-16 -120zM335 750l107 120h170l-137 -120h-140z" />
    <glyph glyph-name="zacute" unicode="&#x17a;" horiz-adv-x="500" 
d="M247 120h250l-17 -120h-460l14 100l279 280h-230l17 120h440l-14 -100zM247 550l111 150h180l-151 -150h-140z" />
    <glyph glyph-name="Zdotaccent" unicode="&#x17b;" horiz-adv-x="640" 
d="M280 140h350l-20 -140h-580l17 120l402 440h-330l19 140h560l-16 -120zM445.5 900q52.5 0 73.5 -19t15 -61t-32 -61t-78.5 -19t-74 19t-15.5 61t32.5 61t79 19z" />
    <glyph glyph-name="zdotaccent" unicode="&#x17c;" horiz-adv-x="500" 
d="M247 120h250l-17 -120h-460l14 100l279 280h-230l17 120h440l-14 -100zM354 750q53 0 73.5 -21.5t14 -68.5t-33 -68.5t-79 -21.5t-73.5 21.5t-14 68.5q3 24 11 41t22 28t33.5 16t45.5 5z" />
    <glyph glyph-name="Zcaron" unicode="&#x17d;" horiz-adv-x="640" 
d="M280 140h350l-20 -140h-580l17 120l402 440h-330l19 140h560l-16 -120zM602 870l-97 -120h-180l-63 120h120l43 -50l57 50h120z" />
    <glyph glyph-name="zcaron" unicode="&#x17e;" horiz-adv-x="500" 
d="M247 120h250l-17 -120h-460l14 100l279 280h-230l17 120h440l-14 -100zM518 700l-101 -150h-180l-59 150h110l51 -70l69 70h110z" />
    <glyph glyph-name="Aacutering" unicode="&#x1fa;" horiz-adv-x="700" 
d="M490 0h-1l-15 130h-221l-53 -130h-200l318 700h280l102 -700h-210zM427 550l-121 -290h153zM544 900q58 -21 49 -80q-6 -44 -43.5 -67t-99 -23t-92.5 23t-25 67q6 42 40 65t89 25l41 50h110zM459 790q50 0 54 30q2 15 -10 22.5t-36 7.5q-50 0 -54 -30q-2 -15 10.5 -22.5
t35.5 -7.5z" />
    <glyph glyph-name="aacutering" unicode="&#x1fb;" horiz-adv-x="560" 
d="M41 150q8 60 39.5 97t89 55t145.5 18h70l3 20q5 37 -8.5 53.5t-46.5 16.5q-35 0 -52 -14t-22 -46h-170q12 84 74.5 122t188.5 38t176.5 -45t36.5 -145l-45 -320h-140l-16 36q-54 -46 -155 -46q-100 0 -140 38t-28 122zM371 220h-50q-49 0 -71.5 -13t-27.5 -47
q-2 -14 0.5 -23.5t9 -15.5t17 -8.5t26.5 -2.5q42 0 64 21.5t29 68.5zM477 701l-2 -1q30 -27 24 -70q-5 -30 -23.5 -52.5t-50 -35t-71.5 -12.5q-59 0 -90.5 27.5t-25 72.5t45.5 72.5t99 27.5h15l52 50h130zM364 600q40 0 45 30q2 16 -6 23t-30 7q-40 0 -44 -30
q-2 -10 1 -16.5t11.5 -10t22.5 -3.5z" />
    <glyph glyph-name="AEacute" unicode="&#x1fc;" horiz-adv-x="950" 
d="M1009 560h-290l-19 -130h250l-19 -140h-250l-21 -150h290l-20 -140h-470l18 130h-200l-78 -130h-200l438 700h590zM539 562l-182 -302h140zM575 750l107 120h170l-137 -120h-140z" />
    <glyph glyph-name="aeacute" unicode="&#x1fd;" horiz-adv-x="900" 
d="M908 201h-360q-7 -53 11 -76.5t66 -23.5q23 0 40 6.5t29 19.5t20 34h170q-29 -89 -94 -129.5t-180 -40.5q-76 0 -120.5 26t-60.5 81q-19 -37 -49.5 -60.5t-72.5 -35t-98 -11.5q-100 0 -140 38t-28 122q9 60 40 97t88.5 55t145.5 18h70l3 20q4 32 -10.5 46t-51.5 14
q-21 0 -35 -5t-21.5 -16t-10.5 -29h-170q12 84 74.5 122t188.5 38q119 0 158 -58q60 58 173 58q141 0 196 -61.5t36 -198.5zM368 202l3 20h-49q-47 0 -70.5 -14.5t-27.5 -45.5q-3 -18 2 -29t17.5 -16t33.5 -5q42 -1 63.5 20.5t27.5 69.5zM669 402q-48 0 -73 -23.5t-33 -76.5
h180q8 53 -9.5 76.5t-64.5 23.5zM448 549l111 150h180l-151 -150h-140z" />
    <glyph glyph-name="Oslashacute" unicode="&#x1fe;" horiz-adv-x="800" 
d="M79 350q27 194 127.5 282t294.5 88q37 0 68 -3l31 63h120l-42 -86q93 -34 127 -118t14 -226q-27 -194 -127.5 -282t-294.5 -88q-36 0 -67 3l-31 -63h-120l42 86q-93 34 -127.5 118t-14.5 226zM289 349.5q-16 -115.5 14.5 -167.5t114.5 -52q43 0 74.5 12.5t55 39.5
t38.5 68.5t23 99.5q12 77 1.5 125.5t-42.5 71.5t-88 23q-84 0 -129.5 -52.5t-61.5 -168zM395 750l107 120h170l-137 -120h-140z" />
    <glyph glyph-name="oslashacute" unicode="&#x1ff;" 
d="M55 250q19 137 94.5 198.5t222.5 61.5q17 0 48 -2l30 62h80l-36 -74q77 -22 106.5 -82.5t14.5 -163.5q-19 -137 -94 -198.5t-222 -61.5q-19 0 -49 2l-30 -62h-80l36 75q-77 22 -106 82t-15 163zM353 380q-52 0 -80 -31t-37.5 -99t9.5 -99t71.5 -31t81 31t37.5 99
q7 45 0 74t-26.5 42.5t-55.5 13.5zM257 550l111 150h180l-151 -150h-140z" />
    <glyph glyph-name="Scommaaccent" unicode="&#x218;" horiz-adv-x="660" 
d="M303 520q-3 -19 12.5 -33.5t42.5 -23t61.5 -18.5t70.5 -19.5t69.5 -27.5t58.5 -41t36.5 -61t5.5 -86q-17 -121 -96 -175.5t-236.5 -54.5t-221.5 52t-48 168h180q-7 -47 18.5 -68.5t88.5 -21.5q58 0 86.5 16.5t33.5 53.5q4 25 -10.5 43.5t-41.5 29t-61 21.5t-70.5 20
t-70 25t-59 36.5t-37.5 55t-6 79.5q17 121 93.5 175.5t228.5 54.5t214 -52t45 -168h-180q7 47 -16 68.5t-81 21.5q-35 0 -58 -7.5t-35.5 -22.5t-16.5 -40zM324.5 -40q36.5 0 50 -21.5t7.5 -68.5q-9 -63 -44 -91.5t-103 -28.5l8 60q50 0 56 40q-32 0 -44.5 12t-8.5 38
q4 31 23 45.5t55.5 14.5z" />
    <glyph glyph-name="scommaaccent" unicode="&#x219;" horiz-adv-x="510" 
d="M242 369q-2 -16 13 -26t40.5 -15.5t57 -11t62 -15.5t54.5 -25.5t36.5 -45t6.5 -70.5q-12 -89 -76 -129.5t-193 -40.5q-118 0 -166 38t-36 122h170q-2 -16 0 -27t8 -18.5t17 -11t27 -3.5q31 0 47 12t20 38q2 18 -12.5 29t-39 17t-55 11t-60 14.5t-53 24.5t-35.5 44t-6 70
q12 84 72 122t181 38q115 0 162.5 -35.5t36.5 -114.5h-160q3 26 -9.5 38t-44 12t-47 -9.5t-18.5 -31.5zM244 -40q37 0 50.5 -21.5t7.5 -68.5q-9 -63 -44 -91.5t-103 -28.5l8 60q50 0 56 40q-32 0 -44.5 12t-8.5 38q3 21 12 34t25.5 19.5t40.5 6.5z" />
    <glyph glyph-name="uni021A" unicode="&#x21a;" horiz-adv-x="640" 
d="M718 700l-21 -150h-200l-77 -550h-200l77 550h-200l21 150h600zM314 -40q37 0 50.5 -21.5t7.5 -68.5q-9 -63 -44 -91.5t-103 -28.5l8 60q50 0 56 40q-32 0 -44.5 12t-8.5 38q3 21 12 34t25.5 19.5t40.5 6.5z" />
    <glyph glyph-name="uni021B" unicode="&#x21b;" horiz-adv-x="450" 
d="M305 180q-3 -22 9 -36t34 -14h90l-18 -130h-160q-75 0 -111.5 42.5t-26.5 117.5l33 230h-80l15 110h80l19 130h180l-19 -130h140l-15 -110h-140zM234 -40q37 0 50.5 -21.5t7.5 -68.5q-9 -63 -44 -91.5t-103 -28.5l8 60q50 0 56 40q-32 0 -44.5 12t-8.5 38q2 16 7.5 27
t15.5 18.5t23.5 11t31.5 3.5z" />
    <glyph glyph-name="circumflex" unicode="&#x2c6;" horiz-adv-x="380" 
d="M378 700l59 -150h-110l-50 70l-70 -70h-110l101 150h180z" />
    <glyph glyph-name="caron" unicode="&#x2c7;" horiz-adv-x="380" 
d="M458 700l-101 -150h-180l-59 150h110l51 -70l69 70h110z" />
    <glyph glyph-name="breve" unicode="&#x2d8;" horiz-adv-x="380" 
d="M338 700h120q-7 -53 -29.5 -86t-62 -48.5t-99.5 -15.5q-89 0 -124.5 35.5t-24.5 114.5h120q-3 -21 0.5 -34t13.5 -19.5t28 -6.5t29.5 6.5t18.5 19.5t10 34z" />
    <glyph glyph-name="dotaccent" unicode="&#x2d9;" horiz-adv-x="240" 
d="M225 750q53 0 73.5 -21.5t14 -68.5t-33 -68.5t-79 -21.5t-73.5 21.5t-14 68.5q3 24 11 41t22 28t33.5 16t45.5 5z" />
    <glyph glyph-name="ring" unicode="&#x2da;" horiz-adv-x="300" 
d="M252.5 730q68.5 0 95.5 -26t19 -84t-42.5 -84t-103 -26t-95.5 26t-19 84t42.5 84t103 26zM232 580q40 0 45 40q3 21 -5 30.5t-29 9.5q-40 0 -46 -40q-2 -14 1 -23t11 -13t23 -4z" />
    <glyph glyph-name="ogonek" unicode="&#x2db;" horiz-adv-x="224" 
d="M191 -90l-19 -140q-33 -20 -73 -20q-38 0 -63 19t-31.5 50t0.5 66.5t34 72t68 62.5h90q-51 -31 -71 -75q-10 -40 24 -45q8 0 18.5 2.5t16.5 5.5z" />
    <glyph glyph-name="tilde" unicode="&#x2dc;" horiz-adv-x="380" 
d="M104 600q8 53 46 91.5t83 38.5q30 0 52 -11t30.5 -24t18 -24t19.5 -11q8 0 15 8t9 22h80q-7 -53 -45 -91.5t-83 -38.5q-31 0 -52.5 11t-30.5 24t-18.5 24t-18.5 11q-6 0 -10.5 -3t-8.5 -10t-6 -17h-80z" />
    <glyph glyph-name="hungarumlaut" unicode="&#x2dd;" horiz-adv-x="520" 
d="M97 550l101 150h170l-141 -150h-130zM327 550l101 150h170l-141 -150h-130z" />
    <glyph glyph-name="Wgrave" unicode="&#x1e80;" horiz-adv-x="1020" 
d="M489 700h238l14 -495l167 495h200l-258 -700h-260l-19 487l-141 -487h-260l-62 700h200l29 -495zM581 870l83 -120h-130l-113 120h160z" />
    <glyph glyph-name="wgrave" unicode="&#x1e81;" horiz-adv-x="870" 
d="M151 0h-1l-70 500h180l29 -350l111 350h220l6 -344l124 344h180l-210 -500h-220l-14 366l-116 -366h-219zM582 550h-140l-109 150h180z" />
    <glyph glyph-name="Wacute" unicode="&#x1e82;" horiz-adv-x="1020" 
d="M489 700h238l14 -495l167 495h200l-258 -700h-260l-19 487l-141 -487h-260l-62 700h200l29 -495zM529 750l107 120h170l-137 -120h-140z" />
    <glyph glyph-name="wacute" unicode="&#x1e83;" horiz-adv-x="870" 
d="M151 0h-1l-70 500h180l29 -350l111 350h220l6 -344l124 344h180l-210 -500h-220l-14 366l-116 -366h-219zM412 550l111 150h180l-151 -150h-140z" />
    <glyph glyph-name="Wdieresis" unicode="&#x1e84;" horiz-adv-x="1020" 
d="M489 700h238l14 -495l167 495h200l-258 -700h-260l-19 487l-141 -487h-260l-62 700h200l29 -495zM499.5 890q52.5 0 73.5 -19t15 -61t-32.5 -61t-79 -19t-73.5 19t-15 61t32.5 61t79 19zM759.5 890q52.5 0 73.5 -19t15 -61t-32.5 -61t-79 -19t-73.5 19t-15 61t32.5 61
t79 19z" />
    <glyph glyph-name="wdieresis" unicode="&#x1e85;" horiz-adv-x="870" 
d="M151 0h-1l-70 500h180l29 -350l111 350h220l6 -344l124 344h180l-210 -500h-220l-14 366l-116 -366h-219zM410 750q36 0 56.5 -10t28 -31t2.5 -54q-7 -50 -34 -72.5t-79 -22.5q-53 0 -73.5 22.5t-13.5 72.5t34 72.5t79 22.5zM650.5 750q52.5 0 73 -22.5t13.5 -72.5
q-3 -20 -8.5 -35.5t-15 -26.5t-22.5 -18.5t-29.5 -11t-37.5 -3.5q-53 0 -73.5 22.5t-13.5 72.5t34 72.5t79.5 22.5z" />
    <glyph glyph-name="uni1E9E" unicode="&#x1e9e;" horiz-adv-x="680" 
d="M441 720q146 0 206.5 -46t47.5 -144q-5 -35 -18.5 -60.5t-35.5 -44.5t-56 -35q40 -17 62.5 -41.5t30.5 -58.5t2 -80q-16 -110 -75 -160t-175 -50q-27 0 -53.5 5t-40.5 10l-13 5l17 120q28 -10 58 -10q48 0 72 21.5t31 68.5q5 35 -5.5 57t-37.5 32.5t-73 10.5l17 120
q58 0 86.5 16.5t33.5 53.5q4 28 -4 45.5t-29 26t-56 8.5q-110 0 -124 -100l-69 -490h-180l66 470q35 250 315 250z" />
    <glyph glyph-name="Ygrave" unicode="&#x1ef2;" horiz-adv-x="680" 
d="M477 260l-37 -260h-190l37 260l-189 440h220l90 -250l160 250h210zM535 750h-130l-113 120h160z" />
    <glyph glyph-name="ygrave" unicode="&#x1ef3;" horiz-adv-x="540" 
d="M312 222l128 278h170l-239 -490q-40 -82 -69.5 -121.5t-59.5 -54t-77 -14.5h-120l15 110h70q14 0 21.5 1.5t17.5 7.5t19.5 21t21.5 40l6 13l-146 487h170zM437 550h-140l-109 150h180z" />
    <glyph glyph-name="endash" unicode="&#x2013;" horiz-adv-x="560" 
d="M586 330l-18 -130h-520l18 130h520z" />
    <glyph glyph-name="emdash" unicode="&#x2014;" horiz-adv-x="780" 
d="M806 330l-18 -130h-740l18 130h740z" />
    <glyph glyph-name="quoteleft" unicode="&#x2018;" horiz-adv-x="240" 
d="M176 330q-57 0 -78.5 35.5t-10.5 114.5q17 115 69.5 167.5t151.5 52.5l-11 -80q-42 0 -64.5 -24t-29.5 -76q47 0 65.5 -22.5t11.5 -72.5t-31.5 -72.5t-72.5 -22.5z" />
    <glyph glyph-name="quoteright" unicode="&#x2019;" horiz-adv-x="240" 
d="M210 710q58 0 79 -35.5t10 -114.5q-17 -115 -69 -167.5t-152 -52.5l11 80q42 0 64.5 24t29.5 76q-47 0 -65.5 22.5t-11.5 72.5t32 72.5t72 22.5z" />
    <glyph glyph-name="quotesinglbase" unicode="&#x201a;" horiz-adv-x="240" 
d="M135 180q58 0 79 -35.5t10 -114.5q-16 -115 -68.5 -167.5t-152.5 -52.5l12 80q42 0 64 24t30 76q-48 0 -66 22.5t-11 72.5q5 33 17 54t33.5 31t52.5 10z" />
    <glyph glyph-name="quotedblleft" unicode="&#x201c;" horiz-adv-x="500" 
d="M176 330q-57 0 -78.5 35.5t-10.5 114.5q17 115 69.5 167.5t151.5 52.5l-11 -80q-42 0 -64.5 -24t-29.5 -76q47 0 65.5 -22.5t11.5 -72.5t-31.5 -72.5t-72.5 -22.5zM436 330q-57 0 -78.5 35.5t-9.5 114.5q16 115 68.5 167.5t151.5 52.5l-11 -80q-42 0 -64 -24t-30 -76
q32 0 50 -10t24.5 -30.5t2.5 -54.5q-7 -50 -31.5 -72.5t-72.5 -22.5z" />
    <glyph glyph-name="quotedblright" unicode="&#x201d;" horiz-adv-x="500" 
d="M210 710q58 0 79 -35.5t10 -114.5q-17 -115 -69 -167.5t-152 -52.5l11 80q42 0 64.5 24t29.5 76q-47 0 -65.5 22.5t-11.5 72.5t32 72.5t72 22.5zM470 710q58 0 79 -35.5t10 -114.5q-17 -115 -69.5 -167.5t-151.5 -52.5l11 80q42 0 64.5 24t29.5 76q-47 0 -65.5 22.5
t-11.5 72.5q5 33 17.5 54t33.5 31t53 10z" />
    <glyph glyph-name="quotedblbase" unicode="&#x201e;" horiz-adv-x="500" 
d="M135 180q58 0 79 -35.5t10 -114.5q-16 -115 -68.5 -167.5t-152.5 -52.5l12 80q42 0 64 24t30 76q-48 0 -66 22.5t-11 72.5q5 33 17 54t33.5 31t52.5 10zM395 180q58 0 79 -35.5t10 -114.5q-16 -115 -68.5 -167.5t-152.5 -52.5l11 80q42 0 64.5 24t30.5 76q-48 0 -66 22.5
t-11 72.5t31.5 72.5t71.5 22.5z" />
    <glyph glyph-name="ellipsis" unicode="&#x2026;" horiz-adv-x="859" 
d="M145.5 180q52.5 0 73 -22.5t13.5 -72.5q-5 -33 -18 -54t-36.5 -31t-58.5 -10q-53 0 -73.5 22.5t-13.5 72.5t34 72.5t79.5 22.5zM454.5 180q52.5 0 73 -22.5t13.5 -72.5t-34 -72.5t-79 -22.5q-53 0 -73.5 22.5t-13.5 72.5t34 72.5t79.5 22.5zM764.5 180q52.5 0 73 -22.5
t13.5 -72.5q-5 -33 -18 -54t-36.5 -31t-58.5 -10q-53 0 -73.5 22.5t-13.5 72.5t34 72.5t79.5 22.5z" />
    <glyph glyph-name="perthousand" unicode="&#x2030;" horiz-adv-x="1310" 
d="M754.5 390q94.5 0 130.5 -47.5t21.5 -152.5t-64 -152.5t-144 -47.5t-130.5 47.5t-21.5 152.5t64 152.5t144 47.5zM713 90q26 0 41 24t23 76q5 35 2.5 57t-12 32.5t-27 10.5t-30 -10.5t-20.5 -32.5t-13 -57t-3 -57t11.5 -32.5t27.5 -10.5zM1165 390q94 0 130 -47.5
t21.5 -152.5t-64 -152.5t-144 -47.5t-130.5 47.5t-21 152.5q7 53 22.5 90.5t41 62t61 36t83.5 11.5zM1123 90q26 0 41 24t22.5 76.5t-1 76t-34.5 23.5t-41.5 -24t-22.5 -76q-5 -35 -3 -57t11.5 -32.5t27.5 -10.5zM299.5 710q94.5 0 130.5 -47.5t21.5 -152.5t-64 -152.5
t-144 -47.5t-130.5 47.5t-21.5 152.5t64 152.5t144 47.5zM258 410q26 0 41 24t23 76q5 35 2.5 57t-12 32.5t-26.5 10.5q-27 0 -42 -24t-22 -76q-5 -35 -3 -57t11.5 -32.5t27.5 -10.5zM306 -30h-160l547 760h160z" />
    <glyph glyph-name="guilsinglleft" unicode="&#x2039;" horiz-adv-x="340" 
d="M213 450h170l-146 -190l91 -200h-170l-101 200z" />
    <glyph glyph-name="guilsinglright" unicode="&#x203a;" horiz-adv-x="340" 
d="M253 450l104 -190l-159 -200h-170l149 200l-94 190h170z" />
    <glyph glyph-name="lira" unicode="&#x20a4;" horiz-adv-x="689" 
d="M669 140l-20 -140h-599l22 160q56 20 80 70h-70l13 90h80l4 30h-80l13 90h80l8 60q16 115 82.5 167.5t198.5 52.5q126 0 176 -52t33 -168h-170q8 53 -5.5 76.5t-50.5 23.5q-24 0 -41 -10.5t-27.5 -32.5t-15.5 -57l-8 -60h220l-13 -90h-220l-4 -30h220l-13 -90h-230
q-29 -62 -103 -90h440z" />
    <glyph glyph-name="Euro" unicode="&#x20ac;" horiz-adv-x="830" 
d="M634 240l-1 -2h200q-48 -137 -137.5 -198.5t-238.5 -61.5q-110 0 -181 27.5t-106.5 84.5t-38.5 148h-88l13 90h80l3 21l3 21h-80l13 90h88q41 135 137 197.5t261 62.5q159 0 231 -62t73 -198h-200q-3 58 -33 84t-92 26q-40 0 -71 -11.5t-53.5 -36t-37.5 -62.5h208
l-13 -90h-220l-3 -20l-3 -20h180l-12 -90h-168q7 -57 39 -83.5t92 -26.5q63 0 99.5 26t56.5 84z" />
    <glyph glyph-name="trademark" unicode="&#x2122;" horiz-adv-x="1270" 
d="M568 700l-19 -140h-140l-51 -360h-170l51 360h-140l19 140h450zM769 489l-41 -289h-170l70 500h230l71 -319l159 319h220l-70 -500h-170l41 289l-151 -289h-120z" />
    <glyph glyph-name="minus" unicode="&#x2212;" horiz-adv-x="390" 
d="M388 200h-330l18 130h330z" />
    <glyph glyph-name="approxequal" unicode="&#x2248;" horiz-adv-x="660" 
d="M45 110l17 120q47 41 94.5 53.5t89 2.5t83.5 -29t83 -39t81 -31.5t84 -2t85 45.5l-17 -120q-46 -41 -93.5 -53.5t-89 -2.5t-83.5 29t-83.5 39t-81 31.5t-83.5 2t-86 -45.5zM74 310l16 120q47 41 94.5 53.5t89 2.5t83.5 -29t83 -39t81 -31.5t84 -2t85 45.5l-16 -120
q-47 -41 -94.5 -53.5t-89 -2.5t-83.5 29t-83 39t-81 31.5t-84 2t-85 -45.5z" />
    <glyph glyph-name="notequal" unicode="&#x2260;" horiz-adv-x="640" 
d="M180 0l50 100h-196l18 130h243l35 70h-268l18 130h315l35 70h100l-35 -70h185l-18 -130h-232l-35 -70h257l-18 -130h-304l-50 -100h-100z" />
    <glyph glyph-name="lessequal" unicode="&#x2264;" horiz-adv-x="440" 
d="M20 0l20 140h400l-20 -140h-400zM96 540l422 160l-22 -160l-238 -90l213 -90l-23 -160l-377 160z" />
    <glyph glyph-name="greaterequal" unicode="&#x2265;" horiz-adv-x="440" 
d="M20 0l20 140h400l-20 -140h-400zM118 700l378 -160l-25 -180l-423 -160l23 160l237 90l-212 90z" />
    <glyph glyph-name="uniE132" unicode="&#xe132;" horiz-adv-x="570" 
d="M230 0h-180l70 500h180zM293 -50q22 0 38 13.5t19 36.5l70 500h180l-73 -520q-10 -75 -58.5 -117.5t-123.5 -42.5h-160l18 130h90zM127 550l111 150h180l-151 -150h-140zM427 550l111 150h180l-151 -150h-140z" />
    <glyph glyph-name="uniE133" unicode="&#xe133;" horiz-adv-x="920" 
d="M158 700h200l-98 -700h-200zM380 210l5 40h190l-5 -40q-6 -42 5.5 -61t43 -19t48.5 19t23 61l68 490h200l-68 -490q-17 -117 -87.5 -173.5t-205.5 -56.5q-130 0 -182 56.5t-35 173.5zM185 750l107 120h170l-137 -120h-140zM785 750l107 120h170l-137 -120h-140z" />
    <glyph glyph-name="a.alt1" horiz-adv-x="611" 
d="M463 460l28 40h140l-70 -500h-140l-17 40q-60 -50 -165 -50q-116 0 -159.5 62t-24.5 198.5t80 198t177 61.5q105 0 151 -50zM308 120q47 0 73 31t35.5 99t-7.5 99t-64.5 31t-73 -31t-35 -99t7.5 -99t64 -31z" />
    <glyph glyph-name="aacute.alt1" horiz-adv-x="611" 
d="M463 460l28 40h140l-70 -500h-140l-17 40q-60 -50 -165 -50q-116 0 -159.5 62t-24.5 198.5t80 198t177 61.5q105 0 151 -50zM308 120q47 0 73 31t35.5 99t-7.5 99t-64.5 31t-73 -31t-35 -99t7.5 -99t64 -31zM288 550l111 150h180l-151 -150h-140z" />
    <glyph glyph-name="aacutering.alt1" horiz-adv-x="611" 
d="M463 460l28 40h140l-70 -500h-140l-17 40q-60 -50 -165 -50q-116 0 -159.5 62t-24.5 198.5t80 198t177 61.5q105 0 151 -50zM308 120q47 0 73 31t35.5 99t-7.5 99t-64.5 31t-73 -31t-35 -99t7.5 -99t64 -31zM414 730l-2 -1h15l53 50h130l-104 -79q30 -27 24 -70
q-5 -30 -23.5 -52.5t-50 -35t-70.5 -12.5q-60 0 -91.5 27.5t-25 72.5t45.5 72.5t99 27.5zM394 599q40 0 44 30q3 16 -5 23t-30 7q-40 0 -45 -30q-1 -10 2 -16.5t11 -10t23 -3.5z" />
    <glyph glyph-name="abreve.alt1" horiz-adv-x="611" 
d="M463 460l28 40h140l-70 -500h-140l-17 40q-60 -50 -165 -50q-116 0 -159.5 62t-24.5 198.5t80 198t177 61.5q105 0 151 -50zM308 120q47 0 73 31t35.5 99t-7.5 99t-64.5 31t-73 -31t-35 -99t7.5 -99t64 -31zM459 700h120q-7 -53 -29.5 -86t-62 -48.5t-99.5 -15.5
q-89 0 -124.5 35.5t-24.5 114.5h120q-3 -21 0.5 -34t13.5 -19.5t28 -6.5t29.5 6.5t18.5 19.5t10 34z" />
    <glyph glyph-name="acircumflex.alt1" horiz-adv-x="611" 
d="M463 460l28 40h140l-70 -500h-140l-17 40q-60 -50 -165 -50q-116 0 -159.5 62t-24.5 198.5t80 198t177 61.5q105 0 151 -50zM308 120q47 0 73 31t35.5 99t-7.5 99t-64.5 31t-73 -31t-35 -99t7.5 -99t64 -31zM499 700l59 -150h-110l-50 70l-70 -70h-110l101 150h180z" />
    <glyph glyph-name="acute.case" horiz-adv-x="300" 
d="M97 550l107 120h170l-137 -120h-140z" />
    <glyph glyph-name="adieresis.alt1" horiz-adv-x="561" 
d="M463 460l28 40h140l-70 -500h-140l-17 40q-60 -50 -165 -50q-116 0 -159.5 62t-24.5 198.5t80 198t177 61.5q105 0 151 -50zM308 120q47 0 73 31t35.5 99t-7.5 99t-64.5 31t-73 -31t-35 -99t7.5 -99t64 -31zM296.5 750q35.5 0 56 -10t28 -31t2.5 -54q-7 -50 -34 -72.5
t-79 -22.5q-53 0 -73.5 22.5t-13.5 72.5q5 33 18 54t36.5 31t59 10zM536.5 750q52.5 0 73 -22.5t13.5 -72.5q-3 -25 -11.5 -43t-22.5 -29.5t-33.5 -17t-45.5 -5.5q-53 0 -73.5 22.5t-13.5 72.5t34 72.5t79.5 22.5z" />
    <glyph glyph-name="agrave.alt1" horiz-adv-x="611" 
d="M463 460l28 40h140l-70 -500h-140l-17 40q-60 -50 -165 -50q-116 0 -159.5 62t-24.5 198.5t80 198t177 61.5q105 0 151 -50zM308 120q47 0 73 31t35.5 99t-7.5 99t-64.5 31t-73 -31t-35 -99t7.5 -99t64 -31zM369 700l69 -150h-140l-109 150h180z" />
    <glyph glyph-name="amacron.alt1" horiz-adv-x="611" 
d="M463 460l28 40h140l-70 -500h-140l-17 40q-60 -50 -165 -50q-116 0 -159.5 62t-24.5 198.5t80 198t177 61.5q105 0 151 -50zM308 120q47 0 73 31t35.5 99t-7.5 99t-64.5 31t-73 -31t-35 -99t7.5 -99t64 -31zM222 580l14 100h340l-14 -100h-340z" />
    <glyph glyph-name="aogonek.alt1" horiz-adv-x="611" 
d="M524 -90v-1h-2l-19 -139q-33 -20 -73 -20q-45 0 -71 27t-28 66t20.5 84t66.5 79l-14 34q-60 -50 -165 -50q-116 0 -159.5 62t-24.5 198.5t80 198t177 61.5q105 0 151 -50l28 40h140l-70 -500h-60q-46 -40 -48 -75q-2 -25 29 -25q12 0 40 9v1h2zM308 119q31 0 53 13.5
t35.5 42t19.5 74.5q10 68 -7 99t-64.5 31t-73 -31t-35.5 -99t7 -99t65 -31z" />
    <glyph glyph-name="aring.alt1" horiz-adv-x="611" 
d="M463 460l28 40h140l-70 -500h-140l-17 40q-60 -50 -165 -50q-116 0 -159.5 62t-24.5 198.5t80 198t177 61.5q105 0 151 -50zM308 120q47 0 73 31t35.5 99t-7.5 99t-64.5 31t-73 -31t-35 -99t7.5 -99t64 -31zM416.5 750q68.5 0 95.5 -26t19 -84q-5 -39 -22 -63
t-47.5 -35.5t-75.5 -11.5q-69 0 -96 26t-19 84t42.5 84t103 26zM395 600q40 0 46 40q3 21 -5 30.5t-29 9.5q-40 0 -46 -40q-2 -14 1 -23t11 -13t22 -4z" />
    <glyph glyph-name="atilde.alt1" horiz-adv-x="611" 
d="M463 460l28 40h140l-70 -500h-140l-17 40q-60 -50 -165 -50q-116 0 -159.5 62t-24.5 198.5t80 198t177 61.5q105 0 151 -50zM308 120q47 0 73 31t35.5 99t-7.5 99t-64.5 31t-73 -31t-35 -99t7.5 -99t64 -31zM223 580q7 53 45 91.5t83 38.5q25 0 43.5 -7t29 -17.5t18 -21
t14.5 -17.5t15 -7t15 8t9 22h80q-7 -53 -45 -91.5t-83 -38.5q-31 0 -52.5 11t-30.5 24t-18.5 24t-18.5 11q-8 0 -15 -8t-9 -22h-80z" />
    <glyph glyph-name="breve.case" horiz-adv-x="380" 
d="M454 670q-9 -63 -53 -91.5t-133.5 -28.5t-126 28.5t-27.5 91.5h130q-2 -14 1 -23t11 -13t23 -4q40 0 45 40h130z" />
    <glyph glyph-name="caron.case" horiz-adv-x="380" 
d="M454 670l-97 -120h-180l-63 120h120l43 -50l57 50h120z" />
    <glyph glyph-name="circumflex.case" horiz-adv-x="380" 
d="M437 550h-120l-43 50l-57 -50h-120l97 120h180z" />
    <glyph glyph-name="commaaccent" horiz-adv-x="180" 
d="M84 -40q37 0 50.5 -21.5t7.5 -68.5q-9 -63 -44 -91.5t-103 -28.5l8 60q50 0 56 40q-32 0 -44.5 12t-8.5 38q3 21 12 34t25.5 19.5t40.5 6.5z" />
    <glyph glyph-name="dieresis.case" horiz-adv-x="499" 
d="M221.5 720q52.5 0 73.5 -19t15 -61t-32.5 -61t-79 -19t-73.5 19t-15 61t32.5 61t79 19zM480.5 720q52.5 0 73.5 -19t15 -61t-32.5 -61t-79 -19t-73.5 19t-15 61t32.5 61t79 19z" />
    <glyph glyph-name="dotaccent.case" horiz-adv-x="240" 
d="M219.5 710q52.5 0 73.5 -19t15.5 -61t-32 -61t-79 -19t-73.5 19t-15.5 61t32 61t79 19z" />
    <glyph glyph-name="grave.case" horiz-adv-x="300" 
d="M274 670l83 -120h-130l-113 120h160z" />
    <glyph glyph-name="hungarumlaut.case" horiz-adv-x="500" 
d="M97 550l97 120h160l-127 -120h-130zM317 550l97 120h160l-127 -120h-130z" />
    <glyph glyph-name="tilde.case" horiz-adv-x="380" 
d="M102 580q7 51 42.5 80.5t82.5 29.5q30 0 53 -6t33 -14t23 -14t25 -6q8 0 15 6.5t8 13.5h70q-5 -34 -23.5 -59.5t-45 -38t-57 -12.5t-53 6t-33 14t-23 14t-25.5 6q-7 0 -14 -6t-8 -14h-70z" />
    </font>
</defs>
</svg>
