<?xml version="1.0" standalone="no"?>
<!DOCTYPE svg PUBLIC "-//W3C//DTD SVG 1.1//EN" "http://www.w3.org/Graphics/SVG/1.1/DTD/svg11.dtd" >
<svg xmlns="http://www.w3.org/2000/svg" xmlns:xlink="http://www.w3.org/1999/xlink" version="1.1">
<metadata>
Created by FontForge 20170731 at Fri Jun 30 01:56:22 2017
 By ,,,
Copyright (c) 2017 by Alexander Slobzheninov. All rights reserved.
</metadata>
<defs>
<font id="FivoSans-Oblique" horiz-adv-x="565" >
  <font-face 
    font-family="Fivo Sans"
    font-weight="400"
    font-style="oblique"
    font-stretch="normal"
    units-per-em="1000"
    panose-1="0 0 0 0 0 0 0 0 0 0"
    ascent="800"
    descent="-200"
    x-height="500"
    cap-height="700"
    bbox="-75 -251 1232 960"
    underline-thickness="50"
    underline-position="875"
    unicode-range="U+000D-E133"
  />
<missing-glyph horiz-adv-x="200" 
 />
    <glyph glyph-name=".notdef" horiz-adv-x="200" 
 />
    <glyph glyph-name=".null" horiz-adv-x="0" 
 />
    <glyph glyph-name="nonmarkingreturn" horiz-adv-x="333" 
 />
    <glyph glyph-name="NULL" horiz-adv-x="795" 
d="M198 700h595l-98 -700h-595zM265 624l-77 -548h441l77 548h-441z" />
    <glyph glyph-name="NULL" horiz-adv-x="795" 
d="M198 700h595l-98 -700h-595zM265 624l-77 -548h441l77 548h-441z" />
    <glyph glyph-name="CR" unicode="&#xd;" horiz-adv-x="250" 
 />
    <glyph glyph-name="space" unicode=" " horiz-adv-x="300" 
 />
    <glyph glyph-name="exclam" unicode="!" horiz-adv-x="273" 
d="M151 106q30 0 41.5 -14t7.5 -44q-8 -58 -65 -58q-30 0 -41 14t-7 44t19.5 44t44.5 14zM192 700h84l-26 -190l-52 -261h-54l22 261z" />
    <glyph glyph-name="quotedbl" unicode="&#x22;" horiz-adv-x="318" 
d="M221 700l-19 -140l-31 -171h-58l16 171l19 140h73zM366 700l-19 -140l-31 -171h-58l17 171l19 140h72z" />
    <glyph glyph-name="numbersign" unicode="#" horiz-adv-x="770" 
d="M411 0l58 204h-152l-58 -204h-62l58 204h-166l9 63h175l41 147h-166l9 63h175l63 223h62l-63 -223h152l63 223h62l-63 -223h169l-9 -63h-178l-41 -147h169l-9 -63h-178l-58 -204h-62zM528 414h-152l-41 -147h152z" />
    <glyph glyph-name="dollar" unicode="$" horiz-adv-x="645" 
d="M276 -100l11 81q-119 6 -166.5 58.5t-32.5 160.5h81q-11 -82 26 -117.5t135 -35.5q95 0 140.5 31t55.5 102q6 40 -14 67t-56 41t-80.5 24.5t-88.5 23t-79.5 31t-54.5 54t-12 86.5q15 104 75 155t175 57l11 81h65l-11 -81q114 -6 159 -58.5t30 -160.5h-80q12 81 -23.5 117
t-126.5 36t-134.5 -31t-53.5 -102q-4 -32 11 -54.5t43.5 -34.5t66 -23.5t76.5 -19t76 -23t64.5 -35t41 -55t6.5 -82.5q-10 -70 -40.5 -115.5t-84 -69t-135.5 -27.5l-11 -81h-65z" />
    <glyph glyph-name="percent" unicode="%" horiz-adv-x="861" 
d="M311 710q85 0 117 -46t17.5 -148t-59.5 -148.5t-130 -46.5q-84 0 -116 46.5t-17.5 148.5t59.5 148t129 46zM264 376q54 0 81.5 32.5t38.5 107.5q10 74 -8.5 107t-71.5 33q-54 0 -81.5 -32.5t-37.5 -107.5q-11 -75 7.5 -107.5t71.5 -32.5zM243 -30h-74l547 760h74z
M704 390q85 0 117 -46t17.5 -148t-59.5 -148.5t-129.5 -46.5t-116.5 46.5t-17 148.5q9 68 32 110.5t61 63t95 20.5zM657 56q53 0 81 32.5t39 107.5q10 74 -9 107t-72 33t-81 -33t-38 -107q-11 -75 8 -107.5t72 -32.5z" />
    <glyph glyph-name="ampersand" unicode="&#x26;" horiz-adv-x="780" 
d="M750 0h-102l-86 93q-119 -113 -272 -113q-112 0 -165 53.5t-40 143.5q5 38 23.5 71t49.5 59.5t62 46.5t73 41q-74 93 -64 170q12 80 68 117.5t146 37.5q93 0 133 -37.5t30 -109.5q-5 -31 -22 -57.5t-48 -50t-58.5 -39.5t-70.5 -38l165 -189q50 70 69 152h66
q-25 -114 -92 -202zM310 47h-1q56 0 110.5 24.5t100.5 67.5l-187 209q-34 -18 -58.5 -34t-48 -36.5t-37.5 -44t-17 -50.5q-5 -32 4 -58t28.5 -43t46.5 -26t58 -9h1zM367 430q33 16 51.5 25t43 24t38 27t24 28t13.5 33q4 33 -8 54.5t-35.5 30.5t-56.5 9q-52 0 -89.5 -24.5
t-44.5 -75.5q-7 -50 64 -131z" />
    <glyph glyph-name="quotesingle" unicode="'" horiz-adv-x="173" 
d="M221 700l-19 -140l-31 -171h-58l16 171l19 140h73z" />
    <glyph glyph-name="parenleft" unicode="(" horiz-adv-x="285" 
d="M161 -200q-2 9 -11.5 34t-19 52t-19.5 69t-16 85.5t-6.5 102t8.5 117.5q12 86 41.5 167.5t55.5 126.5t58 92t35 54h66q-3 -7 -34.5 -54t-57 -91.5t-54.5 -126.5t-41 -168q-8 -51 -9 -101t3 -91t10.5 -77.5t15.5 -67.5t16.5 -53.5t15 -42t9.5 -27.5h-66z" />
    <glyph glyph-name="parenright" unicode=")" horiz-adv-x="285" 
d="M69 -200h-67q2 3 35 56.5t58.5 100t55 132t42.5 171.5q8 59 8 116t-6.5 98.5t-16.5 81t-19.5 64t-18.5 48t-12 32.5h67q3 -9 12.5 -32.5t19 -48t20 -64.5t16 -81t7 -98t-7.5 -116q-13 -86 -43 -171.5t-55.5 -132.5t-59 -99.5t-35.5 -56.5z" />
    <glyph glyph-name="asterisk" unicode="*" horiz-adv-x="381" 
d="M225 400l9 60l9 40l3 19l-18 -10l-36 -24l-57 -30l-16 39l57 31l39 16l15 8l-14 9l-33 17l-48 30l26 39l48 -30l30 -23l16 -10l2 19l2 40l8 60h43l-8 -60l-10 -40l-2 -19l18 10l36 24l56 29l16 -39l-56 -30l-38 -16l-18 -9l15 -9l34 -17l47 -30l-26 -39l-48 30l-30 23
l-15 10l-3 -18l-1 -40l-9 -60h-43z" />
    <glyph glyph-name="plus" unicode="+" horiz-adv-x="620" 
d="M611 291l-10 -67h-228l-31 -224h-65l31 224h-227l10 67h227l29 209h65l-29 -209h228z" />
    <glyph glyph-name="comma" unicode="," horiz-adv-x="212" 
d="M117 106q31 0 42 -23.5t4 -76.5q-11 -75 -40 -110t-83 -35l7 45q25 0 38.5 20t20.5 64q-29 0 -40.5 13t-9.5 41q3 32 17.5 47t43.5 15z" />
    <glyph glyph-name="hyphen" unicode="-" horiz-adv-x="430" 
d="M413 234h-330l9 67h330z" />
    <glyph glyph-name="period" unicode="." horiz-adv-x="213" 
d="M121 106q30 0 41.5 -14t7.5 -44q-8 -58 -65 -58q-30 0 -41.5 13.5t-6.5 44.5q4 30 19.5 44t44.5 14z" />
    <glyph glyph-name="slash" unicode="/" horiz-adv-x="373" 
d="M367 700l74 -1l-338 -700l-73 1z" />
    <glyph glyph-name="zero" unicode="0" horiz-adv-x="693" 
d="M448 720q150 0 205.5 -88t28.5 -282t-107.5 -282t-230.5 -88q-151 0 -206.5 88t-28.5 282t107.5 282t231.5 88zM354 47q106 0 164 71.5t80.5 231.5t-15.5 231.5t-144 71.5q-107 0 -165 -71.5t-80.5 -231.5t15 -231.5t145.5 -71.5z" />
    <glyph glyph-name="one" unicode="1" horiz-adv-x="351" 
d="M139 633l9 67h201l-98 -700h-81l89 633h-120z" />
    <glyph glyph-name="two" unicode="2" horiz-adv-x="592" 
d="M179 67h362l-9 -67h-482l7 53q50 38 115 85t109 78t93 69.5t79 69.5t52 69t27 77q12 81 -20.5 116.5t-118.5 35.5t-129.5 -43t-57.5 -140h-80q19 131 84 190.5t192 59.5t177 -52t33 -167q-5 -41 -27 -81t-50 -72t-74 -71t-84 -66.5t-98.5 -70.5t-99.5 -73z" />
    <glyph glyph-name="three" unicode="3" horiz-adv-x="640" 
d="M352 334h-31l9 63h31q90 0 135 30t54 96q10 70 -23 100t-120 30t-130.5 -40.5t-56.5 -132.5h-73q18 126 82 183t187 57q124 0 173 -46t35 -147q-6 -43 -24.5 -74.5t-38 -46.5t-44 -24t-36.5 -10.5t-21 -1.5q10 0 24 -2t41 -12t46 -27t31 -52.5t5 -83.5
q-16 -112 -85.5 -162.5t-209.5 -50.5q-139 0 -193.5 59.5t-36.5 190.5h77q-13 -97 25 -140t138 -43q99 0 146.5 34t58.5 112q11 74 -30.5 107.5t-144.5 33.5z" />
    <glyph glyph-name="four" unicode="4" horiz-adv-x="657" 
d="M511 700h93l-61 -439h70l-10 -67h-70l-27 -194h-80l27 194h-377l12 82zM159 261h304l50 360z" />
    <glyph glyph-name="five" unicode="5" horiz-adv-x="630" 
d="M300 633l-1 -1l-61 -196q59 44 162 44q125 0 173 -59.5t29.5 -190.5t-89.5 -190.5t-209 -59.5q-121 0 -172.5 52t-43.5 168h73q-2 -54 13.5 -87.5t50.5 -49.5t93 -16q94 0 142.5 43t62 140t-21 140t-126.5 43q-74 0 -115 -25.5t-63 -86.5h-69l122 399h368l-9 -67h-309z
" />
    <glyph glyph-name="six" unicode="6" horiz-adv-x="640" 
d="M108 340q28 199 103.5 289.5t214.5 90.5q103 0 152 -47.5t55 -152.5h-76q-8 74 -40 105.5t-100 31.5q-100 0 -152.5 -71t-75.5 -235q1 5 3.5 14t17 31t35 39t62 31t93.5 14q130 0 180.5 -59.5t32 -190.5t-87.5 -190.5t-203 -59.5q-102 0 -154.5 38t-65 118t5.5 204z
M383 413q-91 0 -138.5 -43.5t-61 -139.5t21.5 -139.5t127 -43.5q93 0 140 43t60 140q14 97 -21 140t-128 43z" />
    <glyph glyph-name="seven" unicode="7" horiz-adv-x="544" 
d="M595 647l-391 -647h-85l386 633h-366l9 67h454z" />
    <glyph glyph-name="eight" unicode="8" horiz-adv-x="670" 
d="M236 370q-88 40 -72 157q14 101 79 147t193 46q129 0 180.5 -46t37.5 -147q-16 -118 -115 -157q61 -20 84.5 -64t13.5 -116q-16 -110 -88 -159.5t-217 -49.5q-144 0 -202.5 50t-42.5 159q10 72 46.5 116t102.5 64zM342.5 47q103.5 0 154 34t61.5 110q7 51 -8.5 82.5
t-56 46t-110.5 14.5q-104 0 -153.5 -33.5t-60.5 -110t29.5 -110t144 -33.5zM427 653q-90 0 -133.5 -30t-52.5 -98q-10 -69 25 -98.5t125 -29.5q60 0 99 13t60 41t28 74q9 68 -26 98t-125 30z" />
    <glyph glyph-name="nine" unicode="9" horiz-adv-x="640" 
d="M631 360q-28 -200 -103.5 -290t-215.5 -90q-102 0 -151 47.5t-56 152.5h77q7 -73 39.5 -105t99.5 -32q100 0 153 71.5t76 234.5q-1 -5 -3.5 -14t-17 -31t-35 -39t-61.5 -31t-94 -14q-130 0 -180.5 59.5t-32.5 190.5t87.5 190.5t202.5 59.5q102 0 155 -38t65.5 -118
t-5.5 -204zM355 287q92 0 140 43.5t61 139.5q14 96 -21.5 139.5t-127.5 43.5q-63 0 -103.5 -19t-64 -58.5t-32.5 -105.5q-14 -97 21 -140t127 -43z" />
    <glyph glyph-name="colon" unicode=":" horiz-adv-x="213" 
d="M122 106q29 0 40.5 -14t7.5 -44t-20 -44t-45 -14q-30 0 -41 14t-7 44t19.5 44t45.5 14zM178 506q20 0 31.5 -6t15.5 -19t1 -33q-4 -30 -19.5 -44t-45.5 -14q-29 0 -40.5 14t-7.5 44t19.5 44t45.5 14z" />
    <glyph glyph-name="semicolon" unicode=";" horiz-adv-x="213" 
d="M178 506q20 0 31.5 -6t15.5 -19t1 -33q-4 -30 -19.5 -44t-45.5 -14q-29 0 -40.5 14t-7.5 44t19.5 44t45.5 14zM118 106q31 0 42 -23.5t4 -76.5q-11 -75 -41 -110t-83 -35l7 45q25 0 39 20t21 64q-30 0 -42 13t-8 41q5 32 19.5 47t41.5 15z" />
    <glyph glyph-name="less" unicode="&#x3c;" horiz-adv-x="500" 
d="M92 296l428 204l-11 -82l-353 -168l306 -168l-12 -82l-371 204z" />
    <glyph glyph-name="equal" unicode="=" horiz-adv-x="650" 
d="M629 207l-9 -67h-550l9 67h550zM655 390l-10 -67h-550l10 67h550z" />
    <glyph glyph-name="greater" unicode="&#x3e;" horiz-adv-x="500" 
d="M120 500l372 -204l-13 -92l-429 -204l12 82l352 168l-305 168z" />
    <glyph glyph-name="question" unicode="?" horiz-adv-x="533" 
d="M276 106q29 0 40.5 -14t7.5 -44t-19.5 -44t-44.5 -14q-30 0 -41.5 14t-7.5 44t19.5 44t45.5 14zM252 231q7 47 25 81.5t40.5 53.5t48.5 37t48 32t38.5 38.5t20.5 56.5q10 64 -18.5 93.5t-99.5 29.5q-72 0 -109.5 -38.5t-49.5 -124.5h-77q8 61 26.5 104t49 71.5t73 41.5
t99.5 13q77 0 121.5 -20t61.5 -61.5t8 -108.5q-6 -42 -25 -73.5t-43 -48t-51.5 -34.5t-51 -33t-42 -43.5t-24.5 -66.5h-69z" />
    <glyph glyph-name="at" unicode="@" horiz-adv-x="846" 
d="M674 460l-38 -270q-9 -61 0 -88.5t36 -27.5q33 0 53.5 42t33.5 134q17 119 -3 192t-78.5 107.5t-161.5 34.5q-166 0 -250 -78.5t-109 -255.5q-24 -170 30 -247t199 -77q91 0 167 48l-9 -65q-70 -42 -166 -42q-177 0 -244 91t-39 292q29 207 131 300t298 93
q185 0 255.5 -93.5t41.5 -299.5q-17 -120 -55 -175t-101 -55q-86 0 -97 83q-49 -63 -152 -63q-97 0 -133.5 50t-21.5 160q16 116 67 168t148 52q95 0 131 -67l18 57h49zM434 94q66 0 100.5 36.5t45.5 119.5q12 86 -11.5 123.5t-89.5 37.5q-69 0 -104.5 -37.5t-47.5 -123.5
q-5 -42 -2.5 -71.5t16 -48t36 -27.5t57.5 -9z" />
    <glyph glyph-name="A" unicode="A" horiz-adv-x="693" 
d="M561 0l-35 170h-313l-84 -170h-89l348 700h121l144 -700h-92zM433 618l-188 -381h266z" />
    <glyph glyph-name="B" unicode="B" horiz-adv-x="685" 
d="M530 370q6 0 15.5 -2t33.5 -12.5t41 -27t28 -50.5t5 -79q-15 -104 -81 -151.5t-196 -47.5h-276l98 700h273q117 0 163.5 -42.5t33.5 -136.5q-5 -39 -21.5 -68.5t-35.5 -44.5t-37.5 -24.5t-31.5 -11.5zM374 67q90 0 133.5 30.5t53.5 101.5t-25.5 103t-123.5 32h-177
l-38 -267h177zM277 633l-33 -236h173q75 0 112.5 28.5t46.5 91.5q8 62 -21 89t-105 27h-173z" />
    <glyph glyph-name="C" unicode="C" horiz-adv-x="755" 
d="M639 229h88q-55 -131 -136 -190t-208 -59q-170 0 -235.5 88t-38.5 282t117.5 282t260.5 88q139 0 203.5 -59t70.5 -190h-88q-9 94 -54 133.5t-143 39.5q-122 0 -187.5 -69.5t-87.5 -224.5q-22 -156 24 -225t169 -69q88 0 144.5 39.5t100.5 133.5z" />
    <glyph glyph-name="D" unicode="D" horiz-adv-x="723" 
d="M712 350q-26 -184 -114 -267t-258 -83h-240l98 700h240q170 0 235 -83t39 -267zM424 629h-148l-78 -558h148q124 0 188.5 65.5t85.5 213.5q21 147 -25 213t-171 66z" />
    <glyph glyph-name="E" unicode="E" horiz-adv-x="620" 
d="M658 629h-382l-32 -228h342l-10 -71h-342l-36 -259h382l-10 -71h-470l98 700h470z" />
    <glyph glyph-name="F" unicode="F" horiz-adv-x="610" 
d="M658 629h-382l-32 -228h342l-10 -71h-342l-46 -330h-88l98 700h470z" />
    <glyph glyph-name="G" unicode="G" horiz-adv-x="765" 
d="M438 320l9 67h312l-5 -37q-27 -194 -113.5 -282t-250.5 -88q-175 0 -241.5 88t-39.5 282t118.5 282t266.5 88q134 0 197.5 -57t70.5 -183h-84q-8 87 -53.5 125.5t-140.5 38.5q-129 0 -195 -69t-88 -225t25 -225t175 -69q121 0 183 62t82 202h-228z" />
    <glyph glyph-name="H" unicode="H" horiz-adv-x="745" 
d="M655 700h88l-98 -700h-88l47 334h-369l-47 -334h-88l98 700h88l-40 -290h369z" />
    <glyph glyph-name="I" unicode="I" horiz-adv-x="288" 
d="M198 700h88l-98 -700h-88z" />
    <glyph glyph-name="J" unicode="J" horiz-adv-x="569" 
d="M80 210l3 23h85l-3 -23q-12 -82 13 -118t93 -36t103 36t47 118l68 490h88l-68 -490q-17 -118 -76 -172t-172 -54q-112 0 -155 53.5t-26 172.5z" />
    <glyph glyph-name="K" unicode="K" horiz-adv-x="654" 
d="M286 700l-43 -306l340 306h109l-377 -340l299 -360h-109l-271 326l-46 -326h-88l98 700h88z" />
    <glyph glyph-name="L" unicode="L" horiz-adv-x="580" 
d="M541 76l-11 -76h-430l98 700h88l-87 -624h342z" />
    <glyph glyph-name="M" unicode="M" horiz-adv-x="913" 
d="M100 0l98 700h120l158 -569l318 569h117l-98 -700h-84l82 580l-326 -580h-58l-161 580l-82 -580h-84z" />
    <glyph glyph-name="N" unicode="N" horiz-adv-x="753" 
d="M667 700h84l-98 -700h-106l-281 581l-82 -581h-84l98 700h105l283 -581z" />
    <glyph glyph-name="O" unicode="O" horiz-adv-x="785" 
d="M494 720q175 0 241.5 -88t39 -282t-118.5 -282t-266 -88t-241.5 88t-39.5 282t118.5 282t266.5 88zM483.5 644q-127.5 0 -194 -69t-88.5 -225t25 -225t174.5 -69t194 69t88.5 225t-25 225t-174.5 69z" />
    <glyph glyph-name="P" unicode="P" horiz-adv-x="675" 
d="M693 481q-31 -218 -273 -218h-195l-37 -263h-88l98 700h283q242 0 212 -219zM605 481q10 76 -22.5 112t-115.5 36h-191l-41 -295h191q83 0 125.5 36t53.5 111z" />
    <glyph glyph-name="Q" unicode="Q" horiz-adv-x="785" 
d="M494 720q175 0 241.5 -87.5t38.5 -281.5q-30 -215 -140 -301l81 -119h-84l-57 83q-76 -34 -184 -34q-175 0 -241.5 88t-39.5 282t118.5 282t266.5 88zM483.5 645q-127.5 0 -194.5 -69t-89 -225t25 -225t175 -69q76 0 128 23l-130 191h84l105 -153q73 68 96 233
q22 156 -25 225t-174.5 69z" />
    <glyph glyph-name="R" unicode="R" horiz-adv-x="703" 
d="M549 0l-108 266h-216l-37 -267h-88l98 700h299q242 0 211 -219q-24 -171 -180 -204l115 -276h-94zM235 334h207q82 0 125 36t54 111q10 76 -22.5 112t-115.5 36h-207z" />
    <glyph glyph-name="S" unicode="S" horiz-adv-x="645" 
d="M227 520q-4 -32 11 -54.5t43.5 -34.5t66 -23.5t76.5 -19t76 -23t64.5 -35t41 -55t6.5 -82.5q-16 -112 -85 -162.5t-207 -50.5t-193 52.5t-39 167.5h81q-11 -82 26 -117.5t135 -35.5q95 0 140.5 31t55.5 102q6 40 -14 67t-56 41t-80.5 24.5t-88.5 23t-79.5 31t-54.5 54
t-12 86.5q16 112 83 162.5t200 50.5t185.5 -52t35.5 -168h-80q12 81 -23.5 117t-126.5 36t-134.5 -31t-53.5 -102z" />
    <glyph glyph-name="T" unicode="T" horiz-adv-x="625" 
d="M673 700l-10 -76h-219l-88 -624h-88l88 624h-218l10 76h525z" />
    <glyph glyph-name="U" unicode="U" horiz-adv-x="725" 
d="M126 254l62 446h88l-62 -446q-15 -105 22 -151.5t135 -46.5q97 0 147 46.5t65 151.5l62 446h88l-62 -446q-21 -144 -94.5 -209t-216.5 -65t-199 65t-35 209z" />
    <glyph glyph-name="V" unicode="V" horiz-adv-x="689" 
d="M227 700l127 -638l305 638h88l-340 -700h-124l-145 700h89z" />
    <glyph glyph-name="W" unicode="W" horiz-adv-x="1012" 
d="M551 700h106l63 -618l252 618h88l-293 -700h-113l-65 618l-231 -618h-113l-97 700h88l80 -618z" />
    <glyph glyph-name="X" unicode="X" horiz-adv-x="668" 
d="M246 700l149 -290l226 290h95l-270 -340l182 -360h-98l-150 310l-246 -310h-94l285 360l-177 340h98z" />
    <glyph glyph-name="Y" unicode="Y" horiz-adv-x="649" 
d="M409 283h-1l-40 -283h-84l40 283l-186 417h98l142 -336l236 336h93z" />
    <glyph glyph-name="Z" unicode="Z" horiz-adv-x="630" 
d="M165 71h425l-10 -71h-530l8 58l494 571h-404l10 71h510l-8 -58z" />
    <glyph glyph-name="bracketleft" unicode="[" horiz-adv-x="309" 
d="M198 700h179l-9 -67h-110l-108 -766h110l-9 -67h-179z" />
    <glyph glyph-name="backslash" unicode="\" horiz-adv-x="373" 
d="M128 699l73 1l142 -700l-74 -1z" />
    <glyph glyph-name="bracketright" unicode="]" horiz-adv-x="309" 
d="M128 700h179l-126 -900h-179l9 67h110l108 766h-110z" />
    <glyph glyph-name="asciicircum" unicode="^" horiz-adv-x="484" 
d="M379 670l100 -350h-66l-85 295l-167 -295h-66l198 350h86z" />
    <glyph glyph-name="underscore" unicode="_" horiz-adv-x="520" 
d="M520 0l-9 -67h-520l9 67h520z" />
    <glyph glyph-name="grave" unicode="`" horiz-adv-x="295" 
d="M232 700l90 -150h-69l-105 150h84z" />
    <glyph glyph-name="a" unicode="a" horiz-adv-x="545" 
d="M410 0l-2 59q-55 -69 -175 -69q-97 0 -135.5 36.5t-27.5 117.5q13 89 72 129.5t177 40.5h120l4 26q8 61 -17.5 88.5t-90.5 27.5q-66 0 -98.5 -25t-40.5 -81h-77q8 56 34.5 91.5t73 52t118.5 16.5q105 0 147.5 -42.5t29.5 -136.5l-47 -331h-65zM432 260h-118
q-78 0 -116.5 -26.5t-46.5 -84.5q-7 -52 18 -74t91 -22q73 0 112.5 34t49.5 107z" />
    <glyph glyph-name="b" unicode="b" horiz-adv-x="595" 
d="M580 250q-19 -137 -78 -199t-172 -62q-125 0 -163 79l-22 -68h-65l98 700h80l-37 -263q60 73 182 73q75 0 118 -27t57.5 -84t1.5 -149zM322 56q53 0 89.5 20t58 62.5t31.5 110.5q14 101 -15.5 147t-109.5 46t-123 -46t-57 -147t16 -147t110 -46z" />
    <glyph glyph-name="c" unicode="c" 
d="M459 173h80q-26 -96 -85 -139.5t-162 -43.5q-128 0 -177 62t-30 198t85.5 198t194.5 62q103 0 150 -43.5t46 -139.5h-80q-4 61 -33.5 88.5t-92.5 27.5q-85 0 -130.5 -46t-59.5 -147t18.5 -147t117.5 -46q62 0 99.5 27.5t58.5 88.5z" />
    <glyph glyph-name="d" unicode="d" horiz-adv-x="595" 
d="M262 -10q-113 0 -154.5 62t-22.5 199t78.5 198.5t172.5 61.5q121 0 161 -73l37 263h80l-99 -700h-65l-2 68q-61 -79 -186 -79zM291 58q53 0 89.5 20t58.5 62.5t31 110.5q14 101 -15.5 147t-109.5 46q-53 0 -89.5 -20t-58.5 -62.5t-32 -110.5q-14 -101 16 -147t110 -46z
" />
    <glyph glyph-name="e" unicode="e" 
d="M160 206q-5 -82 25.5 -119.5t104.5 -37.5q39 0 66.5 10t47.5 31.5t36 58.5h76q-30 -83 -85.5 -121t-148.5 -38q-123 0 -169.5 62t-27.5 198q19 137 83 198.5t187 61.5q121 0 167.5 -64.5t26.5 -206.5l-5 -33h-384zM472 260q9 69 -1 110.5t-40.5 61t-85.5 19.5
q-53 0 -89.5 -19.5t-58.5 -61.5t-31 -110h306z" />
    <glyph glyph-name="f" unicode="f" horiz-adv-x="405" 
d="M382 633q-80 0 -90 -70l-9 -63h152l-8 -59h-152l-62 -441h-81l62 441h-92l8 59h92l9 63q9 64 50.5 100.5t110.5 36.5h91l-9 -67h-72z" />
    <glyph glyph-name="g" unicode="g" horiz-adv-x="595" 
d="M263 -10q-113 0 -155 61.5t-23 197.5q19 137 78.5 199t172.5 62q126 0 164 -81l20 71h65l-63 -450q-19 -137 -83 -198.5t-186 -61.5q-97 0 -142 38t-48 121h77q4 -54 31.5 -77t86.5 -23q82 0 125 44t57 144l4 26q-60 -73 -181 -73zM291 56q81 0 123 45t56 148t-15 148
t-110 45q-82 0 -124 -45t-56 -148q-14 -102 15 -147.5t111 -45.5z" />
    <glyph glyph-name="h" unicode="h" horiz-adv-x="575" 
d="M80 0l98 700h80l-35 -254q55 64 167 64q98 0 134.5 -57t18.5 -183l-38 -270h-80l38 270q13 92 -10.5 132.5t-91.5 40.5q-50 0 -82.5 -18t-52 -55.5t-28.5 -99.5l-38 -270h-80z" />
    <glyph glyph-name="i" unicode="i" horiz-adv-x="253" 
d="M167 0h-81l70 500h81zM225 707q30 0 42 -13.5t7 -42.5q-4 -29 -19 -42t-45 -13q-29 0 -41 13t-8 42q3 20 11 32t21 18t32 6z" />
    <glyph glyph-name="j" unicode="j" horiz-adv-x="256" 
d="M-14 -113q30 0 51.5 10t33 27.5t14.5 41.5l75 534h80l-76 -543q-9 -64 -50 -100.5t-110 -36.5h-79l9 67h52zM229 707q30 0 41.5 -13.5t6.5 -42.5q-2 -14 -6.5 -24.5t-12.5 -17.5t-19 -10t-25 -3q-30 0 -42 13.5t-8 41.5q5 29 20 42.5t45 13.5z" />
    <glyph glyph-name="k" unicode="k" horiz-adv-x="533" 
d="M258 700l-58 -416l255 216h98l-283 -240l233 -260h-98l-212 236l-33 -236h-80l98 700h80z" />
    <glyph glyph-name="l" unicode="l" horiz-adv-x="240" 
d="M80 0l98 700h80l-98 -700h-80z" />
    <glyph glyph-name="m" unicode="m" horiz-adv-x="856" 
d="M346 443q-65 0 -100 -41t-48 -132l-38 -270h-80l70 500h65l2 -72q51 82 160 82q111 0 134 -96q53 96 176 96q90 0 122.5 -57t14.5 -183l-38 -270h-80l38 270q9 60 2.5 98.5t-28 56.5t-60.5 18q-64 0 -98.5 -40.5t-47.5 -132.5l-38 -270h-81l38 270q6 46 5 79t-11.5 54
t-29.5 30.5t-49 9.5z" />
    <glyph glyph-name="n" unicode="n" horiz-adv-x="575" 
d="M218 441q57 69 172 69q98 0 134.5 -57t18.5 -183l-38 -270h-80l38 270q13 92 -11 132.5t-91 40.5q-73 0 -111.5 -41t-51.5 -132l-38 -270h-80l70 500h65z" />
    <glyph glyph-name="o" unicode="o" horiz-adv-x="585" 
d="M365 510q127 0 175.5 -62t29.5 -198t-85.5 -198t-192.5 -62q-128 0 -177 62t-30 198t85.5 198t194.5 62zM165 250q-14 -102 18 -147.5t118 -45.5t130.5 45.5t58.5 147.5q15 103 -16.5 148t-118.5 45t-131 -45t-59 -148z" />
    <glyph glyph-name="p" unicode="p" horiz-adv-x="595" 
d="M218 431q60 79 185 79q112 0 154 -62t23 -199t-78.5 -198.5t-172.5 -61.5q-121 0 -160 73l-37 -263h-80l98 700h65zM375 442q-54 0 -90 -20t-58 -62.5t-32 -110.5q-14 -101 16 -147t110 -46q53 0 89.5 20t58 62.5t31.5 110.5q14 101 -15.5 147t-109.5 46z" />
    <glyph glyph-name="q" unicode="q" horiz-adv-x="595" 
d="M85 250q19 137 78.5 198.5t172.5 61.5q125 0 163 -78l21 68h65l-98 -700h-80l37 263q-60 -73 -181 -73q-113 0 -155 61.5t-23 198.5zM344 444q-80 0 -122.5 -46t-57 -147t15.5 -147t110 -46t122.5 46t56.5 147t-15.5 147t-109.5 46z" />
    <glyph glyph-name="r" unicode="r" horiz-adv-x="381" 
d="M347 434q-72 0 -104.5 -40.5t-47.5 -143.5l-35 -250h-80l70 500h65l4 -60q49 70 139 70h55l-11 -76h-55z" />
    <glyph glyph-name="s" unicode="s" horiz-adv-x="501" 
d="M186 375q-4 -26 11 -43t42 -25.5t60 -14.5t65.5 -15t59 -23t40 -42t7.5 -69q-7 -54 -33.5 -87.5t-73.5 -49.5t-118 -16q-104 0 -145.5 38t-29.5 122h77q-8 -56 17 -81t90 -25q44 0 72 9t43 29t20 52q3 25 -8 42.5t-32 26.5t-48 16t-56 12t-56 14.5t-47 23t-30 38.5t-5 60
q10 75 60.5 109t152.5 34q66 0 105.5 -15.5t54.5 -48.5t8 -86h-73q7 51 -17 73.5t-86 22.5t-91.5 -19t-35.5 -62z" />
    <glyph glyph-name="t" unicode="t" horiz-adv-x="403" 
d="M232 146q-6 -37 12.5 -58t62.5 -21h65l-9 -67h-91q-69 0 -100.5 36.5t-22.5 100.5l43 304h-80l8 59h80l17 119h81l-17 -119h152l-8 -59h-152z" />
    <glyph glyph-name="u" unicode="u" horiz-adv-x="575" 
d="M417 59q-56 -69 -171 -69q-99 0 -135 57t-19 183l38 270h80l-38 -270q-13 -92 11 -132.5t91 -40.5q49 0 82 18t53 56t28 99l38 270h80l-70 -500h-65z" />
    <glyph glyph-name="v" unicode="v" horiz-adv-x="541" 
d="M280 56l216 444h85l-252 -500h-117l-112 500h85z" />
    <glyph glyph-name="w" unicode="w" horiz-adv-x="849" 
d="M643 0h-96l-61 439l-185 -439h-97l-94 500h81l74 -434l182 434h97l58 -435l196 435h81z" />
    <glyph glyph-name="x" unicode="x" horiz-adv-x="513" 
d="M197 500l102 -195l156 195h88l-199 -240l139 -260h-88l-109 214l-169 -214h-87l213 260l-133 240h87z" />
    <glyph glyph-name="y" unicode="y" horiz-adv-x="525" 
d="M247 6l3 6l-150 488h78l119 -390l191 390h77l-259 -520q-42 -84 -87 -122t-102 -38h-55l8 59h52q34 0 64 30t61 97z" />
    <glyph glyph-name="z" unicode="z" horiz-adv-x="491" 
d="M147 63h313l-9 -63h-411l7 50l357 387h-293l9 63h391l-7 -50z" />
    <glyph glyph-name="braceleft" unicode="{" horiz-adv-x="369" 
d="M202 104l-23 -158q-5 -41 14 -60t67 -19h60l-9 -67h-55q-86 0 -121.5 27.5t-27.5 87.5l33 234q6 40 -5.5 58.5t-42.5 18.5l8 58q28 0 44.5 18t24.5 58l26 189q11 79 53.5 115t124.5 36h64l-9 -67h-60q-48 0 -72.5 -19t-30.5 -60l-21 -151q-9 -60 -27.5 -95t-50.5 -53
q28 -11 36.5 -47t-0.5 -104z" />
    <glyph glyph-name="bar" unicode="|" horiz-adv-x="269" 
d="M198 700h69l-126 -900h-69z" />
    <glyph glyph-name="braceright" unicode="}" horiz-adv-x="369" 
d="M199 104q9 68 27.5 104t50.5 47q-28 18 -36.5 53t0.5 95l21 151q6 41 -13.5 60t-67.5 19h-60l9 67h64q83 0 115 -36t21 -115l-26 -189q-3 -27 1.5 -43.5t15.5 -24.5t30 -8l-8 -58q-21 0 -35 -8t-22.5 -25t-12.5 -44l-33 -234q-8 -60 -51.5 -87.5t-129.5 -27.5h-55l9 67
h60q48 0 73 19t30 60z" />
    <glyph glyph-name="asciitilde" unicode="~" horiz-adv-x="700" 
d="M82 229l9 66q48 39 95.5 50t88.5 0t82.5 -31t81.5 -40t80 -31t84.5 1t87.5 51l-9 -66q-47 -40 -95 -51.5t-89.5 -1t-82.5 30.5t-81.5 40t-80 31.5t-84 0.5t-87.5 -50z" />
    <glyph glyph-name="space_" unicode="&#xa0;" horiz-adv-x="300" 
 />
    <glyph glyph-name="exclamdown" unicode="&#xa1;" horiz-adv-x="273" 
d="M159 -200h-85l27 190l51 261h54l-20 -261zM191 388q-30 0 -41.5 14t-6.5 44q4 31 19 44.5t45 13.5q19 0 31 -6t16 -19t2 -33q-5 -30 -20.5 -44t-44.5 -14z" />
    <glyph glyph-name="cent" unicode="&#xa2;" 
d="M247 -94l12 85q-109 7 -150.5 69t-23.5 190t77 190t170 69l11 81h65l-11 -81q86 -6 125 -49.5t39 -132.5h-80q-2 41 -16 66.5t-41 37.5t-69 12q-85 0 -130.5 -46t-59.5 -147t18.5 -147t117.5 -46q62 0 99.5 27.5t58.5 88.5h80q-24 -89 -76 -132.5t-139 -49.5l-12 -85h-65
z" />
    <glyph glyph-name="sterling" unicode="&#xa3;" horiz-adv-x="666" 
d="M626 71l-10 -70h-556l12 86q62 21 93 57.5t40 95.5l12 84h-111l9 67h111l15 109q17 115 74.5 167.5t169.5 52.5q71 0 112 -23t55.5 -71.5t3.5 -125.5h-76q12 84 -12.5 120.5t-91.5 36.5q-69 0 -106 -37.5t-49 -119.5l-15 -109h276l-9 -67h-276l-14 -94q-8 -57 -41 -95
t-97 -64h481z" />
    <glyph glyph-name="currency" unicode="&#xa4;" horiz-adv-x="606" 
d="M608 492l-54 -48q46 -61 27 -194t-81 -194l40 -48l-49 -46l-47 55q-57 -27 -142 -27t-136 27l-61 -55l-37 46l54 48q-46 61 -27 194t81 194l-40 48l50 46l46 -55q58 27 143 27t135 -27l62 55zM176 250q-14 -102 18 -147.5t118 -45.5t130.5 45.5t58.5 147.5q10 69 -1 111
t-43.5 62t-90.5 20q-87 0 -131 -45t-59 -148z" />
    <glyph glyph-name="yen" unicode="&#xa5;" horiz-adv-x="669" 
d="M419 283h-1l-13 -91h213l-9 -63h-213l-18 -129h-84l18 129h-216l9 63h216l13 91l-5 11h-210l9 63h173l-153 343h98l142 -336l236 336h93l-245 -343h170l-9 -63h-207z" />
    <glyph glyph-name="section" unicode="&#xa7;" horiz-adv-x="651" 
d="M411 653q-71 0 -105 -26t-42 -86q-4 -31 10 -54.5t40.5 -37t60.5 -26.5t70.5 -22.5t70.5 -25t60 -34.5t38.5 -51t6.5 -74q-15 -109 -98 -147q21 -38 14 -92q-15 -104 -74 -150.5t-176 -46.5q-115 0 -159 52t-28 168h69q-11 -81 18.5 -117t109.5 -36q75 0 112 27.5
t46 89.5q5 32 -9 56.5t-40.5 37.5t-60.5 25.5t-70.5 21.5t-70 23.5t-59 32.5t-38.5 49.5t-7 73.5q8 54 34.5 88t75.5 52q-34 43 -25 109q14 98 70 142.5t165 44.5q111 0 154 -52t26 -168h-69q12 82 -16 117.5t-104 35.5zM544 209q5 31 -12 54t-50 37t-69 25t-80.5 26
t-72.5 32q-38 -11 -57 -32t-24 -57q-4 -33 14.5 -56t54.5 -37t75.5 -24.5t84.5 -26.5t73 -35q54 25 63 94z" />
    <glyph glyph-name="dieresis" unicode="&#xa8;" horiz-adv-x="390" 
d="M208 727q30 0 41.5 -14t7.5 -44q-8 -58 -65 -58q-29 0 -40.5 14t-7.5 44q4 31 19.5 44.5t44.5 13.5zM386 727q29 0 40.5 -14t7.5 -44t-19.5 -44t-44.5 -14t-40.5 14t-7.5 44q4 31 19.5 44.5t44.5 13.5z" />
    <glyph glyph-name="copyright" unicode="&#xa9;" horiz-adv-x="875" 
d="M539 720q198 0 275 -88t50 -282t-129 -282t-300 -88t-275.5 88t-50 282t129.5 282t300 88zM443 39q168 0 254 73.5t109 237.5t-42 237.5t-233 73.5q-169 0 -255 -73.5t-109 -238.5q-23 -163 42.5 -236.5t233.5 -73.5zM515 550q93 0 134.5 -38t40.5 -122h-65
q-2 57 -29 81.5t-88 24.5q-74 0 -111.5 -34.5t-48.5 -111.5q-11 -76 17.5 -111t101.5 -35q41 0 69 11t47 34t31 61h65q-23 -84 -75 -122t-145 -38q-107 0 -149 47.5t-27 152.5t70.5 152.5t161.5 47.5z" />
    <glyph glyph-name="guillemotleft" unicode="&#xab;" horiz-adv-x="443" 
d="M235 450h78l-144 -190l89 -200h-78l-93 200zM378 450h78l-144 -190l89 -200h-78l-93 200z" />
    <glyph glyph-name="logicalnot" unicode="&#xac;" horiz-adv-x="630" 
d="M612 301l-27 -197h-66l18 130h-454l9 67h520z" />
    <glyph glyph-name="registered" unicode="&#xae;" horiz-adv-x="875" 
d="M539 720q198 0 275 -88t50 -282t-129 -282t-300 -88t-275.5 88t-50 282t129.5 282t300 88zM443.5 39q169.5 0 254.5 73t108 238q16 111 -7.5 179t-88.5 100t-179 32q-170 0 -255.5 -73t-108.5 -239q-23 -164 42 -237t234.5 -73zM567 307h-1h-1l72 -137h-60l-66 131h-126
l-18 -131h-53l50 360h174q75 0 104.5 -27t20.5 -87q-12 -90 -96 -109zM411 484l-19 -137h120q47 0 69 16t27 53q6 37 -12 52.5t-65 15.5h-120z" />
    <glyph glyph-name="macron" unicode="&#xaf;" horiz-adv-x="440" 
d="M136 611l8 55h340l-8 -55h-340z" />
    <glyph glyph-name="degree" unicode="&#xb0;" horiz-adv-x="480" 
d="M123 520q14 100 65 145t152 45q67 0 105.5 -20t52.5 -61.5t5 -108.5q-14 -100 -65.5 -145t-151 -45t-138.5 45t-25 145zM177 520q-7 -49 2.5 -78.5t37.5 -43.5t77 -14q73 0 109 31.5t46 104.5t-17 104.5t-100 31.5t-109 -31.5t-46 -104.5z" />
    <glyph glyph-name="plusminus" unicode="&#xb1;" horiz-adv-x="620" 
d="M50 0l9 67h520l-9 -67h-520zM619 347l-10 -67h-228l-23 -169h-65l23 169h-227l10 67h227l21 153h65l-21 -153h228z" />
    <glyph glyph-name="acute" unicode="&#xb4;" horiz-adv-x="295" 
d="M127 550l132 150h84l-147 -150h-69z" />
    <glyph glyph-name="paragraph" unicode="&#xb6;" horiz-adv-x="860" 
d="M767 633l-117 -833h-69l117 833h-257l-117 -833h-69l70 500q-117 0 -163 47.5t-31.5 152.5t80.5 152.5t197 47.5h470l-9 -67h-102z" />
    <glyph glyph-name="periodcentered" unicode="&#xb7;" horiz-adv-x="213" 
d="M150 316q30 0 41.5 -14t7.5 -44q-8 -58 -65 -58q-29 0 -40.5 14t-7.5 44t19.5 44t44.5 14z" />
    <glyph glyph-name="cedilla" unicode="&#xb8;" horiz-adv-x="297" 
d="M119 17h48l-30 -68q4 -1 10.5 -2t23.5 -7.5t29.5 -15.5t21 -26t5.5 -38q-7 -53 -61.5 -81.5t-150.5 -28.5l6 41q136 0 145 69q3 20 -14.5 32.5t-37.5 16.5t-41 4z" />
    <glyph glyph-name="guillemotright" unicode="&#xbb;" horiz-adv-x="449" 
d="M113 450h79l101 -190l-156 -200h-79l152 200zM255 450h79l102 -190l-157 -200h-79l153 200z" />
    <glyph glyph-name="questiondown" unicode="&#xbf;" horiz-adv-x="533" 
d="M351 269q-7 -47 -25 -81.5t-40.5 -53.5t-48.5 -37t-47.5 -32t-38.5 -38.5t-21 -56.5q-9 -64 19 -93.5t99.5 -29.5t109 39t49.5 124h77q-17 -121 -76 -175.5t-173 -54.5q-113 0 -158 45t-31 145q6 42 24.5 73.5t42.5 48t51.5 34.5t51.5 33t42 43.5t24 66.5h69zM333 388
q-30 0 -41.5 14t-7 44t20 44t44.5 14q15 0 25 -3.5t16 -10.5t8 -18t0 -26q-5 -30 -20.5 -44t-44.5 -14z" />
    <glyph glyph-name="Agrave" unicode="&#xc0;" horiz-adv-x="693" 
d="M561 0l-35 170h-313l-84 -170h-89l348 700h121l144 -700h-92zM433 618l-188 -381h266zM498 750h-66l-102 120h77z" />
    <glyph glyph-name="Aacute" unicode="&#xc1;" horiz-adv-x="693" 
d="M561 0l-35 170h-313l-84 -170h-89l348 700h121l144 -700h-92zM433 618l-188 -381h266zM401 750l121 120h81l-133 -120h-69z" />
    <glyph glyph-name="Acircumflex" unicode="&#xc2;" horiz-adv-x="693" 
d="M561 0l-35 170h-313l-84 -170h-89l348 700h121l144 -700h-92zM433 618l-188 -381h266zM588 750h-61l-67 79l-88 -79h-62l116 120h81z" />
    <glyph glyph-name="Atilde" unicode="&#xc3;" horiz-adv-x="693" 
d="M561 0l-35 170h-313l-84 -170h-89l348 700h121l144 -700h-92zM433 618l-188 -381h266zM294 760q7 51 34.5 77.5t64.5 26.5q26 0 47.5 -10.5t33.5 -23.5t28.5 -23.5t33.5 -10.5q12 0 21 5.5t16 18t9 30.5h39q-7 -50 -34.5 -77t-64.5 -27q-26 0 -47.5 10.5t-33.5 23.5
t-28.5 23.5t-34.5 10.5q-11 0 -20 -5.5t-16 -18t-9 -30.5h-39z" />
    <glyph glyph-name="Adieresis" unicode="&#xc4;" horiz-adv-x="693" 
d="M561 0l-35 170h-313l-84 -170h-89l348 700h121l144 -700h-92zM433 618l-188 -381h266zM371 850q30 0 41.5 -12.5t7.5 -39.5q-7 -51 -63 -51q-30 0 -42 12.5t-8 38.5q3 19 10.5 30t20.5 16.5t33 5.5zM556 850q30 0 41.5 -12.5t7.5 -39.5q-7 -51 -63 -51q-29 0 -41 12.5
t-8 38.5q4 28 18.5 40t44.5 12z" />
    <glyph glyph-name="Aring" unicode="&#xc5;" horiz-adv-x="693" 
d="M561 0l-35 170h-313l-84 -170h-89l348 700h121l144 -700h-92zM433 618l-188 -381h266zM473.5 921q58.5 0 82 -23t16 -75t-37.5 -75.5t-88.5 -23.5t-81.5 23.5t-15.5 75.5t37 75t88 23zM452 766q36 0 52 12.5t21 44.5q4 31 -9 44t-48.5 13t-52 -13t-20.5 -44q-5 -31 8 -44
t49 -13z" />
    <glyph glyph-name="AE" unicode="&#xc6;" horiz-adv-x="933" 
d="M971 629h-340l-32 -228h300l-10 -71h-300l-36 -259h340l-10 -71h-420l24 170h-244l-113 -170h-90l470 700h471zM553 637l-266 -400h209z" />
    <glyph glyph-name="Ccedilla" unicode="&#xc7;" horiz-adv-x="755" 
d="M355 -19h1q-154 7 -213.5 95t-33.5 274q27 194 117.5 282t260.5 88q139 0 203.5 -59t70.5 -190h-88q-9 94 -54 133.5t-143 39.5q-122 0 -187.5 -69.5t-87.5 -224.5q-22 -156 24 -225t169 -69q88 0 144.5 39.5t100.5 133.5h88q-35 -84 -80.5 -137.5t-105 -81t-138.5 -30.5
l-14 -31q4 -1 10.5 -2t23.5 -7.5t29.5 -15.5t21 -26t5.5 -38q-7 -53 -61.5 -81.5t-150.5 -28.5l6 41q136 0 145 69q2 15 -7 26t-25 16.5t-31.5 8t-29.5 2.5z" />
    <glyph glyph-name="Egrave" unicode="&#xc8;" horiz-adv-x="620" 
d="M658 629h-382l-32 -228h342l-10 -71h-342l-36 -259h382l-10 -71h-470l98 700h470zM489 750h-66l-102 120h77z" />
    <glyph glyph-name="Eacute" unicode="&#xc9;" horiz-adv-x="620" 
d="M658 629h-382l-32 -228h342l-10 -71h-342l-36 -259h382l-10 -71h-470l98 700h470zM391 750l122 120h80l-132 -120h-70z" />
    <glyph glyph-name="Ecircumflex" unicode="&#xca;" horiz-adv-x="620" 
d="M658 629h-382l-32 -228h342l-10 -71h-342l-36 -259h382l-10 -71h-470l98 700h470zM579 750h-62l-65 79l-89 -79h-62l116 120h80z" />
    <glyph glyph-name="Edieresis" unicode="&#xcb;" horiz-adv-x="620" 
d="M658 629h-382l-32 -228h342l-10 -71h-342l-36 -259h382l-10 -71h-470l98 700h470zM361.5 850q19.5 0 31.5 -5.5t16.5 -17t1.5 -29.5q-7 -51 -64 -51q-29 0 -41 12.5t-8 38.5q3 19 10.5 30t20.5 16.5t32.5 5.5zM546 850q20 0 32 -5.5t16.5 -17t1.5 -29.5q-4 -26 -19 -38.5
t-45 -12.5q-29 0 -41 12.5t-8 38.5q2 14 6.5 24t12.5 16t19 9t25 3z" />
    <glyph glyph-name="Igrave" unicode="&#xcc;" horiz-adv-x="286" 
d="M191 700h88l-98 -700h-88zM291 750h-66l-103 120h78z" />
    <glyph glyph-name="Iacute" unicode="&#xcd;" horiz-adv-x="295" 
d="M203 700h88l-98 -700h-88zM205 750l121 120h81l-132 -120h-70z" />
    <glyph glyph-name="Icircumflex" unicode="&#xce;" horiz-adv-x="298" 
d="M203 700h88l-98 -700h-88zM393 750h-62l-65 79l-90 -79h-61l116 120h80z" />
    <glyph glyph-name="Idieresis" unicode="&#xcf;" horiz-adv-x="305" 
d="M207 700h88l-98 -700h-88zM184.5 844q29.5 0 41.5 -12t8 -39q-7 -52 -64 -52q-29 0 -40.5 12.5t-8 39.5t18.5 39t44.5 12zM358 844q29 0 40.5 -12t8 -39t-19 -39.5t-44.5 -12.5t-40.5 12.5t-8.5 39.5q3 18 10.5 29t20.5 16.5t33 5.5z" />
    <glyph glyph-name="Ntilde" unicode="&#xd1;" horiz-adv-x="753" 
d="M667 700h84l-98 -700h-106l-281 581l-82 -581h-84l98 700h105l283 -581zM326 760q7 51 34.5 77.5t64.5 26.5q26 0 47.5 -10.5t33.5 -23.5t28.5 -23.5t33.5 -10.5q12 0 21 5.5t16 18t9 30.5h39q-7 -50 -34.5 -77t-64.5 -27q-26 0 -47.5 10.5t-33.5 23.5t-28.5 23.5
t-34.5 10.5q-11 0 -20 -5.5t-16 -18t-9 -30.5h-39z" />
    <glyph glyph-name="Ograve" unicode="&#xd2;" horiz-adv-x="785" 
d="M494 720q175 0 241.5 -88t39 -282t-118.5 -282t-266 -88t-241.5 88t-39.5 282t118.5 282t266.5 88zM483.5 644q-127.5 0 -194 -69t-88.5 -225t25 -225t174.5 -69t194 69t88.5 225t-25 225t-174.5 69zM547 750h-66l-103 120h78z" />
    <glyph glyph-name="Oacute" unicode="&#xd3;" horiz-adv-x="785" 
d="M494 720q175 0 241.5 -88t39 -282t-118.5 -282t-266 -88t-241.5 88t-39.5 282t118.5 282t266.5 88zM483.5 644q-127.5 0 -194 -69t-88.5 -225t25 -225t174.5 -69t194 69t88.5 225t-25 225t-174.5 69zM449 750l121 120h81l-132 -120h-70z" />
    <glyph glyph-name="Ocircumflex" unicode="&#xd4;" horiz-adv-x="785" 
d="M494 720q175 0 241.5 -88t39 -282t-118.5 -282t-266 -88t-241.5 88t-39.5 282t118.5 282t266.5 88zM483.5 644q-127.5 0 -194 -69t-88.5 -225t25 -225t174.5 -69t194 69t88.5 225t-25 225t-174.5 69zM637 750h-62l-65 79l-90 -79h-61l116 120h80z" />
    <glyph glyph-name="Otilde" unicode="&#xd5;" horiz-adv-x="785" 
d="M494 720q175 0 241.5 -88t39 -282t-118.5 -282t-266 -88t-241.5 88t-39.5 282t118.5 282t266.5 88zM483.5 644q-127.5 0 -194 -69t-88.5 -225t25 -225t174.5 -69t194 69t88.5 225t-25 225t-174.5 69zM342 760q5 34 20 58t35 35t44 11q27 0 48.5 -10.5t33 -23.5t28 -23.5
t34 -10.5t30 13.5t15.5 40.5h39q-7 -51 -34 -77.5t-65 -26.5q-26 0 -47.5 10.5t-33.5 23.5t-28.5 23.5t-33.5 10.5q-11 0 -20.5 -5.5t-16.5 -18t-9 -30.5h-39z" />
    <glyph glyph-name="Odieresis" unicode="&#xd6;" horiz-adv-x="785" 
d="M494 720q174 0 240.5 -88t39.5 -282t-118.5 -282t-265.5 -88q-175 0 -241.5 88t-39.5 282t118.5 282t266.5 88zM484 644q-129 0 -195 -69t-88 -225t25 -225t175 -69q127 0 193 69t88 225t-24.5 225t-173.5 69zM419 844q29 0 40.5 -12t8 -39t-19 -39.5t-44.5 -12.5
q-19 0 -31 5.5t-16.5 17t-2.5 29.5q4 27 19.5 39t45.5 12zM603.5 844q29.5 0 41.5 -12t8 -39q-7 -52 -64 -52q-29 0 -40.5 12.5t-8 39.5t18.5 39t44.5 12z" />
    <glyph glyph-name="multiply" unicode="&#xd7;" horiz-adv-x="546" 
d="M161 474l152 -176l202 177l40 -51l-199 -174l151 -174l-54 -51l-152 177l-200 -176l-40 51l199 175l-149 175z" />
    <glyph glyph-name="Oslash" unicode="&#xd8;" horiz-adv-x="785" 
d="M607 709l34 73h58l-42 -88q80 -35 108.5 -119t8.5 -224q-27 -194 -118 -282t-266 -88q-37 0 -78 5l-32 -65h-58l37 76q-99 29 -135 115t-15 239q28 194 119.5 282t265.5 88q63 0 113 -12zM570 634q-36 10 -86 10q-128 0 -194.5 -69t-88.5 -225q-16 -118 6.5 -185.5
t88.5 -92.5zM347 59q25 -3 54 -3q127 0 193.5 69t88.5 225q10 69 6.5 120.5t-21 87t-50.5 55.5z" />
    <glyph glyph-name="Ugrave" unicode="&#xd9;" horiz-adv-x="725" 
d="M126 254l62 446h88l-62 -446q-15 -105 22 -151.5t135 -46.5q97 0 147 46.5t65 151.5l62 446h88l-62 -446q-21 -144 -94.5 -209t-216.5 -65t-199 65t-35 209zM516 750h-65l-103 120h77z" />
    <glyph glyph-name="Uacute" unicode="&#xda;" horiz-adv-x="725" 
d="M126 254l62 446h88l-62 -446q-15 -105 22 -151.5t135 -46.5q97 0 147 46.5t65 151.5l62 446h88l-62 -446q-21 -144 -94.5 -209t-216.5 -65t-199 65t-35 209zM419 750l121 120h81l-133 -120h-69z" />
    <glyph glyph-name="Ucircumflex" unicode="&#xdb;" horiz-adv-x="725" 
d="M126 254l62 446h88l-62 -446q-15 -105 22 -151.5t135 -46.5q97 0 147 46.5t65 151.5l62 446h88l-62 -446q-21 -144 -94.5 -209t-216.5 -65t-199 65t-35 209zM606 750h-61l-65 79l-90 -79h-61l115 120h81z" />
    <glyph glyph-name="Udieresis" unicode="&#xdc;" horiz-adv-x="725" 
d="M126 254l62 446h88l-62 -446q-15 -105 21.5 -151.5t134.5 -46.5t148 46.5t65 151.5l62 446h88l-62 -446q-21 -144 -95 -209t-217 -65t-198.5 65t-34.5 209zM389 844q29 0 40.5 -12t8 -39t-19 -39.5t-44.5 -12.5q-20 0 -31.5 5.5t-16 17t-2.5 29.5q4 27 19.5 39t45.5 12z
M574 844q29 0 40.5 -12t8 -39t-19 -39.5t-44.5 -12.5t-40.5 12.5t-8 39.5t18.5 39t45 12z" />
    <glyph glyph-name="Yacute" unicode="&#xdd;" horiz-adv-x="649" 
d="M409 283h-1l-40 -283h-84l40 283l-186 417h98l142 -336l236 336h93zM378 750l121 120h81l-132 -120h-70z" />
    <glyph glyph-name="germandbls" unicode="&#xdf;" horiz-adv-x="628" 
d="M421 720q113 0 158.5 -45t31.5 -145q-9 -58 -51 -89.5t-119 -41.5q94 -11 131 -57.5t24 -137.5q-15 -107 -67 -155.5t-151 -48.5q-53 0 -100 20l9 63q46 -16 82 -16q67 0 102 34t45 108q5 32 1 56.5t-16 42.5t-33.5 29.5t-51.5 17t-70 5.5l9 69q90 0 131.5 25t50.5 85
q8 58 -20.5 86t-100.5 28q-54 0 -90.5 -17t-57.5 -52.5t-29 -92.5l-69 -491h-80l70 500q16 111 80 165.5t181 54.5z" />
    <glyph glyph-name="agrave" unicode="&#xe0;" horiz-adv-x="545" 
d="M410 0l-2 59q-55 -69 -175 -69q-97 0 -135.5 36.5t-27.5 117.5q13 89 72 129.5t177 40.5h120l4 26q8 61 -17.5 88.5t-90.5 27.5q-66 0 -98.5 -25t-40.5 -81h-77q8 56 34.5 91.5t73 52t118.5 16.5q105 0 147.5 -42.5t29.5 -136.5l-47 -331h-65zM432 260h-118
q-78 0 -116.5 -26.5t-46.5 -84.5q-7 -52 18 -74t91 -22q73 0 112.5 34t49.5 107zM307 700l90 -150h-69l-105 150h84z" />
    <glyph glyph-name="aacute" unicode="&#xe1;" horiz-adv-x="545" 
d="M410 0l-2 59q-55 -69 -175 -69q-97 0 -135.5 36.5t-27.5 117.5q13 89 72 129.5t177 40.5h120l4 26q8 61 -17.5 88.5t-90.5 27.5q-66 0 -98.5 -25t-40.5 -81h-77q8 56 34.5 91.5t73 52t118.5 16.5q105 0 147.5 -42.5t29.5 -136.5l-47 -331h-65zM432 260h-118
q-78 0 -116.5 -26.5t-46.5 -84.5q-7 -52 18 -74t91 -22q73 0 112.5 34t49.5 107zM428 700h84l-147 -150h-69z" />
    <glyph glyph-name="acircumflex" unicode="&#xe2;" horiz-adv-x="545" 
d="M410 0l-2 59q-55 -69 -175 -69q-97 0 -135.5 36.5t-27.5 117.5q13 89 72 129.5t177 40.5h120l4 26q8 61 -17.5 88.5t-90.5 27.5q-66 0 -98.5 -25t-40.5 -81h-77q8 56 34.5 91.5t73 52t118.5 16.5q105 0 147.5 -42.5t29.5 -136.5l-47 -331h-65zM432 260h-118
q-78 0 -116.5 -26.5t-46.5 -84.5q-7 -52 18 -74t91 -22q73 0 112.5 34t49.5 107zM410 700l71 -150h-56l-61 104l-92 -104h-56l113 150h81z" />
    <glyph glyph-name="atilde" unicode="&#xe3;" horiz-adv-x="545" 
d="M410 0l-2 59q-55 -69 -175 -69q-97 0 -135.5 36.5t-27.5 117.5q13 89 72 129.5t177 40.5h120l4 26q8 61 -17.5 88.5t-90.5 27.5q-66 0 -98.5 -25t-40.5 -81h-77q8 56 34.5 91.5t73 52t118.5 16.5q105 0 147.5 -42.5t29.5 -136.5l-47 -331h-65zM432 260h-118
q-78 0 -116.5 -26.5t-46.5 -84.5q-7 -52 18 -74t91 -22q73 0 112.5 34t49.5 107zM195 575q5 34 20 61.5t36.5 42t44.5 14.5q27 0 48 -14.5t32 -32t26 -32t30 -14.5q17 0 30 17.5t17 47.5h43q-7 -52 -36 -85.5t-65 -33.5q-27 0 -48 14.5t-32 32t-25.5 32t-30.5 14.5
q-11 0 -20.5 -7.5t-16.5 -22t-10 -34.5h-43z" />
    <glyph glyph-name="adieresis" unicode="&#xe4;" horiz-adv-x="545" 
d="M410 0l-2 59q-55 -69 -175 -69q-97 0 -135.5 36.5t-27.5 117.5q13 89 72 129.5t177 40.5h120l4 26q8 61 -17.5 88.5t-90.5 27.5q-66 0 -98.5 -25t-40.5 -81h-77q8 56 34.5 91.5t73 52t118.5 16.5q105 0 147.5 -42.5t29.5 -136.5l-47 -331h-65zM432 260h-118
q-78 0 -116.5 -26.5t-46.5 -84.5q-7 -52 18 -74t91 -22q73 0 112.5 34t49.5 107zM280 687q29 0 40.5 -14t7 -44t-20 -44t-44.5 -14q-30 0 -41.5 14t-7.5 44q5 31 20.5 44.5t45.5 13.5zM457 687q29 0 41 -14t7.5 -44t-20 -44t-45.5 -14q-29 0 -40.5 14t-7.5 44q5 31 20 44.5
t45 13.5z" />
    <glyph glyph-name="aring" unicode="&#xe5;" horiz-adv-x="545" 
d="M410 0l-2 59q-55 -69 -175 -69q-97 0 -135.5 36.5t-27.5 117.5q13 89 72 129.5t177 40.5h120l4 26q8 61 -17.5 88.5t-90.5 27.5q-66 0 -98.5 -25t-40.5 -81h-77q8 56 34.5 91.5t73 52t118.5 16.5q105 0 147.5 -42.5t29.5 -136.5l-47 -331h-65zM432 260h-118
q-78 0 -116.5 -26.5t-46.5 -84.5q-7 -52 18 -74t91 -22q73 0 112.5 34t49.5 107zM373 721q58 0 81.5 -23t16 -75t-37.5 -75.5t-88 -23.5t-81.5 23.5t-15.5 75.5q4 35 19 56.5t41 31.5t65 10zM352 566q23 0 38 5.5t23 18t11 33.5q4 31 -8.5 44t-47.5 13q-36 0 -52.5 -13
t-20.5 -44q-5 -32 8 -44.5t49 -12.5z" />
    <glyph glyph-name="ae" unicode="&#xe6;" horiz-adv-x="910" 
d="M505 206q-5 -82 25 -120t104 -38q58 0 92 22.5t58 77.5h77q-12 -34 -28 -59.5t-36 -44.5t-46 -31t-57 -18t-69 -6q-51 0 -87.5 13t-58.5 40t-30 69q-25 -63 -77.5 -92t-138.5 -29q-97 0 -135.5 36.5t-27.5 117.5q8 59 35.5 96t77.5 55.5t124 18.5h132l4 26
q5 39 -4.5 63.5t-35.5 36t-71 11.5q-66 0 -97 -23t-39 -78h-77q8 56 34.5 91.5t73 52t118.5 16.5q70 0 109.5 -22t50.5 -68q61 90 194 90q82 0 129 -28.5t63 -87.5t3 -155l-5 -33h-384zM432 260h-112q-82 0 -121.5 -26t-47.5 -85q-7 -50 19 -73t90 -23q75 0 113.5 32
t47.5 103zM816 259q15 102 -15 146.5t-112 44.5q-79 0 -121.5 -45t-57.5 -146h306z" />
    <glyph glyph-name="ccedilla" unicode="&#xe7;" 
d="M261 -9v1q-110 7 -152 68.5t-24 189.5q19 136 85.5 198t194.5 62q103 0 150 -43.5t46 -139.5h-80q-2 41 -16 66.5t-41 37.5t-69 12q-85 0 -130.5 -46t-59.5 -147t18.5 -147t117.5 -46q62 0 99.5 27.5t58.5 88.5h80q-12 -46 -31.5 -80t-48 -56.5t-65.5 -33.5t-85 -13
l-19 -41q4 -1 10.5 -2t23.5 -7.5t29.5 -15.5t21 -26t5.5 -38q-7 -53 -61.5 -81.5t-150.5 -28.5l6 41q136 0 145 69q3 20 -14.5 32.5t-38 16.5t-41.5 4z" />
    <glyph glyph-name="egrave" unicode="&#xe8;" 
d="M160 206q-5 -82 25.5 -119.5t104.5 -37.5q39 0 66.5 10t47.5 31.5t36 58.5h76q-30 -83 -85.5 -121t-148.5 -38q-123 0 -169.5 62t-27.5 198q19 137 83 198.5t187 61.5q121 0 167.5 -64.5t26.5 -206.5l-5 -33h-384zM346 451h-1q-53 0 -89.5 -19.5t-58.5 -61.5t-31 -110
h306q14 102 -15.5 146.5t-110.5 44.5zM407 550h-69l-105 150h84z" />
    <glyph glyph-name="eacute" unicode="&#xe9;" 
d="M160 206q-5 -82 25.5 -119.5t104.5 -37.5q39 0 66.5 10t47.5 31.5t36 58.5h76q-30 -83 -86 -121t-150 -38q-121 0 -167.5 62t-27.5 198.5t82.5 198t184.5 61.5q123 0 170 -64t27 -207l-5 -33h-384zM346 451h-1q-53 0 -89.5 -19.5t-58.5 -61.5t-31 -110h306
q14 102 -15.5 146.5t-110.5 44.5zM310 550l132 150h84l-147 -150h-69z" />
    <glyph glyph-name="ecircumflex" unicode="&#xea;" 
d="M160 206q-5 -82 25.5 -119.5t104.5 -37.5q39 0 66.5 10t47.5 31.5t36 58.5h76q-30 -83 -86 -121t-150 -38q-121 0 -167.5 62t-27.5 198.5t82.5 198t184.5 61.5q123 0 170 -64t27 -207l-5 -33h-384zM346 451h-1q-53 0 -89.5 -19.5t-58.5 -61.5t-31 -110h306
q14 102 -15.5 146.5t-110.5 44.5zM491 550h-56l-61 104l-92 -104h-56l113 150h81z" />
    <glyph glyph-name="edieresis" unicode="&#xeb;" 
d="M160 206q-5 -82 25.5 -119.5t104.5 -37.5q39 0 66.5 10t47.5 31.5t36 58.5h76q-30 -83 -86 -121t-150 -38q-121 0 -167.5 62t-27.5 198.5t82.5 198t184.5 61.5q123 0 170 -64t27 -207l-5 -33h-384zM346 451h-1q-53 0 -89.5 -19.5t-58.5 -61.5t-31 -110h306
q14 102 -15.5 146.5t-110.5 44.5zM289 687q29 0 41 -14t7.5 -44t-20 -44t-44.5 -14q-30 0 -41.5 14t-7.5 44q3 21 11 33.5t21 18.5t33 6zM467 687q29 0 41 -14t7.5 -44t-20 -44t-45.5 -14q-29 0 -40.5 14t-7.5 44q3 21 11 33.5t21 18.5t33 6z" />
    <glyph glyph-name="igrave" unicode="&#xec;" horiz-adv-x="245" 
d="M167 0h-81l70 500h81zM252 550h-69l-105 150h84z" />
    <glyph glyph-name="iacute" unicode="&#xed;" horiz-adv-x="245" 
d="M162 0h-80l70 500h80zM147 550l132 150h84l-147 -150h-69z" />
    <glyph glyph-name="icircumflex" unicode="&#xee;" horiz-adv-x="245" 
d="M163 0h-81l70 500h81zM332 550h-57l-61 104l-91 -104h-56l113 150h81z" />
    <glyph glyph-name="idieresis" unicode="&#xef;" horiz-adv-x="238" 
d="M160 0h-81l70 500h81zM131 670q29 0 40.5 -14t7.5 -44q-3 -20 -10.5 -33t-21 -19t-32.5 -6q-30 0 -41.5 14t-7.5 44q4 31 19.5 44.5t45.5 13.5zM296 670q29 0 40.5 -14t7.5 -44t-19.5 -44t-44.5 -14t-40.5 14t-7.5 44q2 16 6.5 26.5t12.5 17.5t19 10.5t26 3.5z" />
    <glyph glyph-name="ntilde" unicode="&#xf1;" horiz-adv-x="575" 
d="M218 441q57 69 172 69q98 0 134.5 -57t18.5 -183l-38 -270h-80l38 270q13 92 -11 132.5t-91 40.5q-73 0 -111.5 -41t-51.5 -132l-38 -270h-80l70 500h65zM216 575q3 26 13 48t23.5 37.5t30.5 24t34 8.5q27 0 48 -14.5t32 -32t26 -32t30 -14.5q17 0 30 17.5t17 47.5h43
q-7 -52 -36 -85.5t-65 -33.5q-27 0 -48 14.5t-32 32t-26 32t-30 14.5q-11 0 -20.5 -7.5t-16.5 -22t-10 -34.5h-43z" />
    <glyph glyph-name="ograve" unicode="&#xf2;" horiz-adv-x="585" 
d="M365 510q127 0 175.5 -62t29.5 -198t-85.5 -198t-192.5 -62q-128 0 -177 62t-30 198t85.5 198t194.5 62zM165 250q-14 -102 18 -147.5t118 -45.5t130.5 45.5t58.5 147.5q15 103 -16.5 148t-118.5 45t-131 -45t-59 -148zM418 550h-69l-105 150h84z" />
    <glyph glyph-name="oacute" unicode="&#xf3;" horiz-adv-x="585" 
d="M365 510q127 0 175.5 -62t29.5 -198t-85.5 -198t-192.5 -62q-128 0 -177 62t-30 198t85.5 198t194.5 62zM165 250q-14 -102 18 -147.5t118 -45.5t130.5 45.5t58.5 147.5q15 103 -16.5 148t-118.5 45t-131 -45t-59 -148zM321 550l132 150h84l-147 -150h-69z" />
    <glyph glyph-name="ocircumflex" unicode="&#xf4;" horiz-adv-x="585" 
d="M365 510q127 0 175.5 -62t29.5 -198t-85.5 -198t-192.5 -62q-128 0 -177 62t-30 198t85.5 198t194.5 62zM165 250q-14 -102 18 -147.5t118 -45.5t130.5 45.5t58.5 147.5q15 103 -16.5 148t-118.5 45t-131 -45t-59 -148zM502 550h-56l-61 104l-92 -104h-56l113 150h81z
" />
    <glyph glyph-name="otilde" unicode="&#xf5;" horiz-adv-x="585" 
d="M365 510q127 0 175.5 -62t29.5 -198t-85.5 -198t-192.5 -62q-128 0 -177 62t-30 198t85.5 198t194.5 62zM165 250q-14 -102 18 -147.5t118 -45.5t130.5 45.5t58.5 147.5q15 103 -16.5 148t-118.5 45t-131 -45t-59 -148zM216 575q3 26 13 48t23.5 37.5t30.5 24t34 8.5
q27 0 48 -14.5t32 -32t26 -32t30 -14.5q17 0 30 17.5t17 47.5h43q-7 -52 -36 -85.5t-65 -33.5q-27 0 -48 14.5t-32 32t-26 32t-30 14.5q-11 0 -20.5 -7.5t-16.5 -22t-10 -34.5h-43z" />
    <glyph glyph-name="odieresis" unicode="&#xf6;" horiz-adv-x="585" 
d="M365 510q127 0 175.5 -62t29.5 -198t-85.5 -198t-192.5 -62q-128 0 -177 62t-30 198t85.5 198t194.5 62zM165 250q-14 -102 18 -147.5t118 -45.5t130.5 45.5t58.5 147.5q15 103 -16.5 148t-118.5 45t-131 -45t-59 -148zM301 687q29 0 40.5 -14t7 -44t-20 -44t-44.5 -14
q-30 0 -41.5 14t-7.5 44q5 31 20.5 44.5t45.5 13.5zM478 687q29 0 41 -14t7.5 -44t-20 -44t-45.5 -14q-29 0 -40.5 14t-7.5 44q5 31 20 44.5t45 13.5z" />
    <glyph glyph-name="divide" unicode="&#xf7;" horiz-adv-x="620" 
d="M259 55q2 17 11 30.5t23.5 21t32.5 7.5q26 0 40 -16.5t10.5 -42.5t-22 -42.5t-45.5 -16.5q-26 0 -40 16.5t-10 42.5zM602 229h-520l10 67h520zM317 469q2 13 7.5 24t14.5 19t20.5 12.5t24.5 4.5q26 0 40.5 -17t10.5 -43t-22.5 -42.5t-44.5 -16.5q-18 0 -30 7.5t-17.5 21
t-3.5 30.5z" />
    <glyph glyph-name="oslash" unicode="&#xf8;" horiz-adv-x="584" 
d="M363 510q33 0 65 -5l31 65h43l-35 -74q67 -22 91.5 -82t9.5 -164q-19 -136 -85.5 -198t-192.5 -62q-33 0 -66 5l-31 -65h-43l36 74q-68 22 -92 82t-10 164q19 136 85.5 198t193.5 62zM353 443v1q-58 0 -96.5 -20t-61 -62t-32.5 -111q-10 -73 3 -116.5t51 -62.5l179 368
q-19 3 -43 3zM433 430l-177 -369q19 -3 43 -3q86 0 130.5 45.5t58.5 147.5q11 74 -2 117.5t-53 61.5z" />
    <glyph glyph-name="ugrave" unicode="&#xf9;" horiz-adv-x="575" 
d="M417 59q-56 -69 -171 -69q-99 0 -135 57t-19 183l38 270h80l-38 -270q-13 -92 11 -132.5t91 -40.5q49 0 82 18t53 56t28 99l38 270h80l-70 -500h-65zM332 700l90 -150h-69l-105 150h84z" />
    <glyph glyph-name="uacute" unicode="&#xfa;" horiz-adv-x="575" 
d="M417 59q-56 -69 -171 -69q-99 0 -135 57t-19 183l38 270h80l-38 -270q-13 -92 11 -132.5t91 -40.5q49 0 82 18t53 56t28 99l38 270h80l-70 -500h-65zM417 700h84l-148 -150h-69z" />
    <glyph glyph-name="ucircumflex" unicode="&#xfb;" horiz-adv-x="575" 
d="M417 59q-56 -69 -171 -69q-99 0 -135 57t-19 183l38 270h80l-38 -270q-13 -92 11 -132.5t91 -40.5q49 0 82 18t53 56t28 99l38 270h80l-70 -500h-65zM415 700l71 -150h-57l-61 104l-91 -104h-56l113 150h81z" />
    <glyph glyph-name="udieresis" unicode="&#xfc;" horiz-adv-x="575" 
d="M417 59q-56 -69 -171 -69q-99 0 -135 57t-19 183l38 270h80l-38 -270q-13 -92 11 -132.5t91 -40.5q49 0 82 18t53 56t28 99l38 270h80l-70 -500h-65zM287 687q29 0 40.5 -14t7 -44t-20 -44t-44.5 -14q-19 0 -31 6t-16 19t-2 33q5 31 20 44.5t46 13.5zM465 687
q29 0 40.5 -14t7 -44t-20 -44t-45.5 -14q-29 0 -40.5 14t-7.5 44q5 31 20 44.5t46 13.5z" />
    <glyph glyph-name="yacute" unicode="&#xfd;" horiz-adv-x="525" 
d="M247 6l3 6l-150 488h78l119 -390l191 390h77l-259 -520q-42 -84 -87 -122t-102 -38h-55l8 59h52q34 0 64 30t61 97zM298 550l132 150h84l-147 -150h-69z" />
    <glyph glyph-name="ydieresis" unicode="&#xff;" horiz-adv-x="525" 
d="M247 6l3 6l-150 488h78l119 -390l191 390h77l-259 -520q-42 -84 -87 -122t-102 -38h-55l8 59h52q34 0 64 30t61 97zM273.5 687q29.5 0 41.5 -14t7 -44q-8 -58 -65 -58q-29 0 -40.5 14t-7.5 44q5 31 20 44.5t44.5 13.5zM452 687q29 0 40.5 -14t7 -44t-20 -44t-44.5 -14
t-40.5 14t-7.5 44q5 31 20 44.5t45 13.5z" />
    <glyph glyph-name="Amacron" unicode="&#x100;" horiz-adv-x="693" 
d="M561 0l-35 170h-313l-84 -170h-89l348 700h121l144 -700h-92zM433 618l-188 -381h266zM289 821h340l-7 -54h-340z" />
    <glyph glyph-name="amacron" unicode="&#x101;" horiz-adv-x="545" 
d="M410 0l-2 59q-55 -69 -175 -69q-97 0 -135.5 36.5t-27.5 117.5q13 89 72 129.5t177 40.5h120l4 26q8 61 -17.5 88.5t-90.5 27.5q-66 0 -98.5 -25t-40.5 -81h-77q8 56 34.5 91.5t73 52t118.5 16.5q105 0 147.5 -42.5t29.5 -136.5l-47 -331h-65zM432 260h-118
q-78 0 -116.5 -26.5t-46.5 -84.5q-7 -52 18 -74t91 -22q73 0 112.5 34t49.5 107zM183 586l8 54h340l-8 -54h-340z" />
    <glyph glyph-name="Abreve" unicode="&#x102;" horiz-adv-x="693" 
d="M561 0l-35 170h-313l-84 -170h-89l348 700h121l144 -700h-92zM433 618l-188 -381h266zM624 870q-6 -42 -26 -68.5t-56.5 -39t-92.5 -12.5q-55 0 -87.5 12.5t-45.5 39t-7 68.5h61q-5 -39 15.5 -56.5t70.5 -17.5t75.5 17.5t30.5 56.5h62z" />
    <glyph glyph-name="abreve" unicode="&#x103;" horiz-adv-x="545" 
d="M410 0l-2 59q-55 -69 -175 -69q-97 0 -135.5 36.5t-27.5 117.5q13 89 72 129.5t177 40.5h120l4 26q8 61 -17.5 88.5t-90.5 27.5q-66 0 -98.5 -25t-40.5 -81h-77q8 56 34.5 91.5t73 52t118.5 16.5q105 0 147.5 -42.5t29.5 -136.5l-47 -331h-65zM432 260h-118
q-78 0 -116.5 -26.5t-46.5 -84.5q-7 -52 18 -74t91 -22q73 0 112.5 34t49.5 107zM469 700h58q-11 -79 -53 -114.5t-125 -35.5t-115.5 35.5t-21.5 114.5h58q-7 -53 13.5 -76.5t72.5 -23.5q36 0 59 10.5t36 32t18 57.5z" />
    <glyph glyph-name="Aogonek" unicode="&#x104;" horiz-adv-x="700" 
d="M578 0h-17l-35 170h-313l-84 -170h-89l348 700h121l144 -700h-29q-70 -45 -91 -104q-18 -51 19 -66q10 -4 25 -4q6 0 13 1t13 2.5t11.5 3.5t9.5 4t7.5 3.5t4.5 2.5l2 1l-10 -74q-33 -20 -73 -20q-60 0 -78.5 45t10 105t91.5 100zM433 618l-188 -381h266z" />
    <glyph glyph-name="aogonek" unicode="&#x105;" horiz-adv-x="559" 
d="M410 2l1 -1l-2 57q-55 -69 -176 -69q-96 0 -134.5 36.5t-27.5 117.5q13 89 72 129.5t177 40.5h120l4 26q8 61 -17.5 88.5t-90.5 27.5q-67 0 -99 -25t-40 -81h-77q8 56 34 91.5t73 52t119 16.5q105 0 147.5 -42.5t28.5 -136.5l-46 -331h-22q-70 -45 -91 -104
q-18 -51 19 -66q10 -4 24 -4q15 0 30.5 4.5t23.5 8.5l8 5l-10 -74q-33 -20 -73 -20q-61 0 -80 46t11 107t94 100zM432 260h-118q-78 0 -116.5 -26.5t-46.5 -84.5q-7 -52 18 -74t91 -22q73 0 112.5 34t49.5 107z" />
    <glyph glyph-name="Cacute" unicode="&#x106;" horiz-adv-x="755" 
d="M639 229h88q-55 -131 -136 -190t-208 -59q-170 0 -235.5 88t-38.5 282t117.5 282t260.5 88q139 0 203.5 -59t70.5 -190h-88q-9 94 -54 133.5t-143 39.5q-122 0 -187.5 -69.5t-87.5 -224.5q-22 -156 24 -225t169 -69q88 0 144.5 39.5t100.5 133.5zM449 750l121 120h81
l-132 -120h-70z" />
    <glyph glyph-name="cacute" unicode="&#x107;" 
d="M459 173h80q-26 -96 -85 -139.5t-162 -43.5q-128 0 -177 62t-30 198t85.5 198t194.5 62q103 0 150 -43.5t46 -139.5h-80q-4 61 -33.5 88.5t-92.5 27.5q-85 0 -130.5 -46t-59.5 -147t18.5 -147t117.5 -46q62 0 99.5 27.5t58.5 88.5zM321 550l132 150h84l-147 -150h-69z
" />
    <glyph glyph-name="Ccircumflex" unicode="&#x108;" horiz-adv-x="755" 
d="M639 229h88q-55 -131 -136 -190t-208 -59q-170 0 -235.5 88t-38.5 282t117.5 282t260.5 88q139 0 203.5 -59t70.5 -190h-88q-9 94 -54 133.5t-143 39.5q-122 0 -187.5 -69.5t-87.5 -224.5q-22 -156 24 -225t169 -69q88 0 144.5 39.5t100.5 133.5zM637 750h-62l-66 79
l-89 -79h-61l116 120h80z" />
    <glyph glyph-name="ccircumflex" unicode="&#x109;" 
d="M459 173h80q-26 -96 -85 -139.5t-162 -43.5q-128 0 -177 62t-30 198t85.5 198t194.5 62q103 0 150 -43.5t46 -139.5h-80q-4 61 -33.5 88.5t-92.5 27.5q-85 0 -130.5 -46t-59.5 -147t18.5 -147t117.5 -46q62 0 99.5 27.5t58.5 88.5zM502 550h-56l-61 104l-92 -104h-56
l113 150h81z" />
    <glyph glyph-name="Cdotaccent" unicode="&#x10a;" horiz-adv-x="755" 
d="M639 229h88q-55 -131 -136 -190t-208 -59q-170 0 -235.5 88t-38.5 282t117.5 282t260.5 88q139 0 203.5 -59t70.5 -190h-88q-9 94 -54 133.5t-143 39.5q-122 0 -187.5 -69.5t-87.5 -224.5q-22 -156 24 -225t169 -69q88 0 144.5 39.5t100.5 133.5zM513 854q29 0 41 -12
t8 -39t-19 -39.5t-44.5 -12.5t-41.5 12.5t-8 39.5t19 39t45 12z" />
    <glyph glyph-name="cdotaccent" unicode="&#x10b;" 
d="M459 173h80q-26 -96 -85 -139.5t-162 -43.5q-128 0 -177 62t-30 198t85.5 198t194.5 62q103 0 150 -43.5t46 -139.5h-80q-4 61 -33.5 88.5t-92.5 27.5q-85 0 -130.5 -46t-59.5 -147t18.5 -147t117.5 -46q62 0 99.5 27.5t58.5 88.5zM388 681q30 0 41.5 -13t7.5 -42
t-19.5 -42.5t-45.5 -13.5q-29 0 -40.5 13.5t-7.5 42.5t19 42t45 13z" />
    <glyph glyph-name="Ccaron" unicode="&#x10c;" horiz-adv-x="755" 
d="M639 229h88q-55 -131 -136 -190t-208 -59q-170 0 -235.5 88t-38.5 282t117.5 282t260.5 88q139 0 203.5 -59t70.5 -190h-88q-9 94 -54 133.5t-143 39.5q-122 0 -187.5 -69.5t-87.5 -224.5q-22 -156 24 -225t169 -69q88 0 144.5 39.5t100.5 133.5zM650 870l-116 -120h-80
l-82 120h62l66 -79l88 79h62z" />
    <glyph glyph-name="ccaron" unicode="&#x10d;" 
d="M459 173h80q-26 -96 -85 -139.5t-162 -43.5q-128 0 -177 62t-30 198t85.5 198t194.5 62q103 0 150 -43.5t46 -139.5h-80q-4 61 -33.5 88.5t-92.5 27.5q-85 0 -130.5 -46t-59.5 -147t18.5 -147t117.5 -46q62 0 99.5 27.5t58.5 88.5zM523 700l-113 -150h-81l-71 150h56
l62 -104l90 104h57z" />
    <glyph glyph-name="Dcaron" unicode="&#x10e;" horiz-adv-x="723" 
d="M712 350q-26 -184 -114 -267t-258 -83h-240l98 700h240q170 0 235 -83t39 -267zM424 629h-148l-78 -558h148q124 0 188.5 65.5t85.5 213.5q21 147 -25 213t-171 66zM587 870l-115 -120h-81l-82 120h62l66 -79l89 79h61z" />
    <glyph glyph-name="dcaron" unicode="&#x10f;" horiz-adv-x="681" 
d="M262 -10q-113 0 -154.5 62t-22.5 199t78.5 198.5t172.5 61.5q121 0 161 -73l37 263h80l-99 -700h-65l-2 68q-61 -79 -186 -79zM291 58q53 0 89.5 20t58.5 62.5t31 110.5q14 101 -15.5 147t-109.5 46q-53 0 -89.5 -20t-58.5 -62.5t-32 -110.5q-14 -101 16 -147t110 -46z
M706 705q23 0 31 -17.5t3 -56.5q-5 -33 -16.5 -54t-30.5 -31.5t-46 -10.5l5 36q36 0 44 53q-24 0 -34 8.5t-7 26.5q6 46 51 46z" />
    <glyph glyph-name="Dcroat" unicode="&#x110;" horiz-adv-x="753" 
d="M742 350q-26 -184 -114 -267t-258 -83h-240l51 366h-90l9 63h90l38 271h240q170 0 235 -83t39 -267zM454 629h-148l-28 -200h187l-9 -63h-187l-41 -295h148q124 0 188.5 65.5t85.5 213.5q21 147 -25 213t-171 66z" />
    <glyph glyph-name="dcroat" unicode="&#x111;" horiz-adv-x="635" 
d="M694 630l-7 -45h-89l-82 -584h-65l-2 68q-61 -79 -186 -79q-113 0 -155 61.5t-23 198.5t78.5 198.5t172.5 61.5q121 0 160 -73l21 147h-204l7 46h204l9 70h80l-9 -70h90zM291 57q53 0 89.5 20t58.5 62.5t31 110.5q14 101 -15.5 147t-109.5 46q-54 0 -90 -20t-58 -62.5
t-32 -110.5q-14 -101 16 -147t110 -46z" />
    <glyph glyph-name="Emacron" unicode="&#x112;" horiz-adv-x="620" 
d="M658 629h-382l-32 -228h342l-10 -71h-342l-36 -259h382l-10 -71h-470l98 700h470zM280 821h340l-7 -54h-340z" />
    <glyph glyph-name="emacron" unicode="&#x113;" 
d="M160 206q-5 -82 25.5 -119.5t104.5 -37.5q39 0 66.5 10t47.5 31.5t36 58.5h76q-30 -83 -86 -121t-150 -38q-121 0 -167.5 62t-27.5 198.5t82.5 198t184.5 61.5q123 0 170 -64t27 -207l-5 -33h-384zM346 451q-80 0 -123 -45t-57 -146h306q14 102 -15.5 146.5t-110.5 44.5z
M201 640h340l-8 -54h-340z" />
    <glyph glyph-name="Ebreve" unicode="&#x114;" horiz-adv-x="620" 
d="M658 629h-382l-32 -228h342l-10 -71h-342l-36 -259h382l-10 -71h-470l98 700h470zM615 870q-9 -63 -50.5 -91.5t-124 -28.5t-116.5 28.5t-25 91.5h62q-5 -39 15.5 -56.5t70.5 -17.5t75.5 17.5t30.5 56.5h62z" />
    <glyph glyph-name="ebreve" unicode="&#x115;" 
d="M160 206q-5 -82 25.5 -119.5t104.5 -37.5q39 0 66.5 10t47.5 31.5t36 58.5h76q-30 -83 -86 -121t-150 -38q-121 0 -167.5 62t-27.5 198.5t82.5 198t184.5 61.5q123 0 170 -64t27 -207l-5 -33h-384zM346 451q-80 0 -123 -45t-57 -146h306q14 102 -15.5 146.5t-110.5 44.5z
M537 700q-11 -79 -53 -114.5t-125 -35.5t-115.5 35.5t-21.5 114.5h58q-7 -53 13.5 -76.5t72.5 -23.5q36 0 59 10.5t36 32t18 57.5h58z" />
    <glyph glyph-name="Edotaccent" unicode="&#x116;" horiz-adv-x="620" 
d="M658 629h-382l-32 -228h342l-10 -71h-342l-36 -259h382l-10 -71h-470l98 700h470zM455 854q29 0 41 -12t8 -39t-19 -39.5t-44.5 -12.5t-41 12.5t-7.5 39.5t18.5 39t44.5 12z" />
    <glyph glyph-name="edotaccent" unicode="&#x117;" 
d="M160 206q-5 -82 25.5 -119.5t104.5 -37.5q39 0 66.5 10t47.5 31.5t36 58.5h76q-30 -83 -86 -121t-150 -38q-121 0 -167.5 62t-27.5 198.5t82.5 198t184.5 61.5q123 0 170 -64t27 -207l-5 -33h-384zM346 451h-1q-53 0 -89.5 -19.5t-58.5 -61.5t-31 -110h306
q14 102 -15.5 146.5t-110.5 44.5zM377 681q30 0 41.5 -13t7.5 -42t-19.5 -42.5t-45.5 -13.5q-29 0 -40.5 13.5t-7.5 42.5t19 42t45 13z" />
    <glyph glyph-name="Eogonek" unicode="&#x118;" horiz-adv-x="623" 
d="M570 0h-34q-69 -45 -90 -104q-19 -51 19 -66q10 -4 25 -4q14 0 29.5 4.5t23.5 9.5l8 4l-10 -74q-33 -20 -73 -20q-60 0 -79 45t10 105t92 100h-391l98 700h470l-10 -71h-382l-32 -228h342l-10 -71h-342l-36 -259h382z" />
    <glyph glyph-name="eogonek" unicode="&#x119;" 
d="M349 -4l1 1q-69 -46 -87 -104q-15 -50 23 -63q9 -3 22 -3q25 0 61 17l-10 -74q-33 -20 -74 -20q-35 0 -56.5 16.5t-26 43.5t3 58.5t31 64.5t57.5 58h-12q-123 0 -169.5 62t-27.5 198t82.5 198t184.5 62q124 0 170.5 -64t26.5 -207l-5 -33h-384q-5 -82 25.5 -119.5
t104.5 -37.5q39 0 66.5 10t47.5 31.5t36 58.5h76q-24 -67 -64 -104.5t-103 -49.5v0zM349 452q-81 0 -124 -45t-57 -146h306q14 102 -15.5 146.5t-109.5 44.5z" />
    <glyph glyph-name="Ecaron" unicode="&#x11a;" horiz-adv-x="620" 
d="M658 629h-382l-32 -228h342l-10 -71h-342l-36 -259h382l-10 -71h-470l98 700h470zM592 870l-115 -120h-81l-82 120h62l66 -79l89 79h61z" />
    <glyph glyph-name="ecaron" unicode="&#x11b;" 
d="M160 206q-5 -82 25.5 -119.5t104.5 -37.5q39 0 66.5 10t47.5 31.5t36 58.5h76q-30 -83 -86 -121t-150 -38q-121 0 -167.5 62t-27.5 198.5t82.5 198t184.5 61.5q123 0 170 -64t27 -207l-5 -33h-384zM472 260q9 69 -1 110.5t-40.5 61t-85.5 19.5q-53 0 -89.5 -19.5
t-58.5 -61.5t-31 -110h306zM512 700l-113 -150h-81l-71 150h56l63 -104l90 104h56z" />
    <glyph glyph-name="Gbreve" unicode="&#x11e;" horiz-adv-x="765" 
d="M438 320l9 67h312l-5 -37q-27 -194 -113.5 -282t-250.5 -88q-175 0 -241.5 88t-39.5 282t118.5 282t266.5 88q134 0 197.5 -57t70.5 -183h-84q-8 87 -53.5 125.5t-140.5 38.5q-129 0 -195 -69t-88 -225t25 -225t175 -69q121 0 183 62t82 202h-228zM672 870
q-9 -63 -50 -91.5t-124 -28.5t-116.5 28.5t-24.5 91.5h62q-5 -39 15.5 -56.5t70.5 -17.5t75.5 17.5t30.5 56.5h61z" />
    <glyph glyph-name="gbreve" unicode="&#x11f;" horiz-adv-x="595" 
d="M263 -10q-113 0 -155 61.5t-23 197.5q19 137 78.5 199t172.5 62q126 0 164 -81l20 71h65l-63 -450q-19 -137 -83 -198.5t-186 -61.5q-97 0 -142 38t-48 121h77q4 -54 31.5 -77t86.5 -23q82 0 125 44t57 144l4 26q-60 -73 -181 -73zM291 56q81 0 123 45t56 148t-15 148
t-110 45q-82 0 -124 -45t-56 -148q-14 -102 15 -147.5t111 -45.5zM557 700q-7 -53 -28 -86t-58 -48.5t-93 -15.5q-82 0 -114.5 35.5t-21.5 114.5h57q-7 -53 13.5 -76.5t72.5 -23.5q37 0 60 10.5t36 32t18 57.5h58z" />
    <glyph glyph-name="Gdotaccent" unicode="&#x120;" horiz-adv-x="765" 
d="M438 320l9 67h312l-5 -37q-27 -194 -113.5 -282t-250.5 -88q-175 0 -241.5 88t-39.5 282t118.5 282t266.5 88q134 0 197.5 -57t70.5 -183h-84q-8 87 -53.5 125.5t-140.5 38.5q-129 0 -195 -69t-88 -225t25 -225t175 -69q121 0 183 62t82 202h-228zM513 854q29 0 41 -12
t8 -39t-19 -39.5t-44.5 -12.5t-41.5 12.5t-8 39.5t19 39t45 12z" />
    <glyph glyph-name="gdotaccent" unicode="&#x121;" horiz-adv-x="590" 
d="M263 -10q-113 0 -155 61.5t-23 197.5q19 137 78.5 199t172.5 62q126 0 164 -81l20 71h65l-63 -450q-19 -137 -83 -198.5t-186 -61.5q-97 0 -142 38t-48 121h77q4 -54 31.5 -77t86.5 -23q82 0 125 44t57 144l4 26q-60 -73 -181 -73zM291 56q81 0 123 45t56 148t-15 148
t-110 45q-82 0 -124 -45t-56 -148q-14 -102 15 -147.5t111 -45.5zM401 669q30 0 41.5 -13.5t7.5 -42.5t-19.5 -42t-45.5 -13q-29 0 -40.5 13t-7.5 42t19.5 42.5t44.5 13.5z" />
    <glyph glyph-name="Gcedilla" unicode="&#x122;" horiz-adv-x="765" 
d="M438 320l9 67h312l-5 -37q-27 -194 -113.5 -282t-250.5 -88q-175 0 -241.5 88t-39.5 282t118.5 282t266.5 88q134 0 197.5 -57t70.5 -183h-84q-8 87 -54 125.5t-140 38.5q-129 0 -195 -69t-88 -225t25 -225t175 -69q121 0 183 62t82 202h-228zM385.5 -46q23.5 0 32 -17.5
t2.5 -56.5q-7 -50 -29 -73t-64 -23l5 36q19 0 29.5 12.5t14.5 40.5q-24 0 -33.5 10.5t-6.5 32.5q3 20 14.5 29t35 9z" />
    <glyph glyph-name="gcedilla" unicode="&#x123;" horiz-adv-x="595" 
d="M263 -10q-113 0 -155 61.5t-23 197.5q19 137 78.5 199t172.5 62q126 0 164 -81l20 71h65l-63 -450q-19 -137 -83 -198.5t-186 -61.5q-97 0 -142 38t-48 121h77q4 -54 31.5 -77t86.5 -23q82 0 125 44t57 144l4 26q-60 -73 -181 -73zM291 56q81 0 123 45t56 148t-15 148
t-110 45q-82 0 -124 -45t-56 -148q-14 -102 15 -147.5t111 -45.5zM368 556q-23 0 -31.5 17.5t-2.5 56.5q13 96 93 96l-5 -36q-36 0 -43 -53q23 0 33 -9.5t7 -31.5q-2 -14 -7.5 -22.5t-16 -13t-27.5 -4.5z" />
    <glyph glyph-name="Itilde" unicode="&#x128;" horiz-adv-x="295" 
d="M202 700h88l-98 -700h-88zM97 760q7 50 34.5 77t64.5 27q27 0 48.5 -10.5t33 -23.5t28 -23.5t34 -10.5t30.5 13.5t16 40.5h38q-4 -34 -19 -58t-35.5 -35t-44.5 -11q-26 0 -47.5 10.5t-33.5 23.5t-28.5 23.5t-33.5 10.5q-18 0 -30 -13.5t-16 -40.5h-39z" />
    <glyph glyph-name="itilde" unicode="&#x129;" horiz-adv-x="235" 
d="M157 0h-80l70 500h80zM41 575q7 52 36 85t65 33q26 0 47 -14.5t32 -32t26 -32t30 -14.5q18 0 31 17.5t17 47.5h43q-4 -34 -19.5 -61.5t-37 -42.5t-44.5 -15q-22 0 -39.5 9.5t-29 23t-21.5 27.5t-21.5 23.5t-24.5 9.5q-18 0 -31 -17t-17 -47h-42z" />
    <glyph glyph-name="Imacron" unicode="&#x12a;" horiz-adv-x="300" 
d="M204 700h88l-98 -700h-88zM95 816h340l-8 -55h-340z" />
    <glyph glyph-name="imacron" unicode="&#x12b;" horiz-adv-x="240" 
d="M160 0h-80l70 500h80zM40 640h340l-8 -54h-340z" />
    <glyph glyph-name="Iogonek" unicode="&#x12e;" horiz-adv-x="288" 
d="M190 0h-19q-69 -45 -90 -104q-19 -51 18 -66q10 -4 25 -4q14 0 29.5 4.5t24.5 9.5l8 4l-10 -74q-33 -20 -73 -20q-60 0 -79 45t10 105t92 100h-24l98 700h88z" />
    <glyph glyph-name="iogonek" unicode="&#x12f;" horiz-adv-x="238" 
d="M160 0h-19q-69 -45 -90 -104q-19 -51 18 -66q10 -4 25 -4q14 0 29.5 4.5t24.5 9.5l8 4l-10 -74q-33 -20 -73 -20q-60 0 -79 45t10 105t92 100h-16l70 500h80zM219 707q30 0 41.5 -13.5t7.5 -42.5q-3 -14 -7.5 -24.5t-12.5 -17.5t-19 -10t-25 -3q-29 0 -41 13t-7 42
q4 29 19 42.5t44 13.5z" />
    <glyph glyph-name="Idotaccent" unicode="&#x130;" horiz-adv-x="293" 
d="M200 700h88l-98 -700h-88zM266 854q30 0 42 -12t8 -39q-7 -52 -64 -52q-30 0 -41.5 12.5t-7.5 39.5t18.5 39t44.5 12z" />
    <glyph glyph-name="dotlessi" unicode="&#x131;" horiz-adv-x="240" 
d="M160 0h-80l70 500h80z" />
    <glyph glyph-name="IJ" unicode="&#x132;" horiz-adv-x="834" 
d="M198 700h88l-98 -700h-88zM345 210l3 23h84l-3 -23q-12 -82 13 -118t94 -36q68 0 103 36t47 118l68 490h88l-68 -490q-12 -79 -41.5 -129t-80 -73.5t-126.5 -23.5q-112 0 -155 53.5t-26 172.5z" />
    <glyph glyph-name="ij" unicode="&#x133;" horiz-adv-x="476" 
d="M167 0h-81l70 500h81zM206 -113q44 0 68.5 21t29.5 58l75 534h81l-76 -543q-9 -64 -50.5 -100.5t-110.5 -36.5h-79l9 67h53zM225 707q30 0 42 -13.5t7 -42.5q-4 -29 -19 -42t-45 -13q-29 0 -41 13t-8 42q3 20 10.5 32t21 18t32.5 6zM448 707q30 0 42 -13.5t7 -42.5
q-4 -29 -19 -42t-45 -13q-29 0 -41 13t-8 42q3 20 10.5 32t21 18t32.5 6z" />
    <glyph glyph-name="Kcedilla" unicode="&#x136;" horiz-adv-x="654" 
d="M286 700l-43 -306l340 306h109l-377 -340l299 -360h-109l-271 326l-46 -326h-88l98 700h88zM309 -46q23 0 31.5 -17.5t2.5 -56.5q-7 -50 -30 -73t-63 -23l5 36q36 0 43 53q-24 0 -33.5 8.5t-7.5 26.5q7 46 52 46z" />
    <glyph glyph-name="kcedilla" unicode="&#x137;" horiz-adv-x="533" 
d="M258 700l-58 -415l255 215h98l-283 -240l233 -260h-98l-212 235l-33 -235h-80l98 700h80zM255 -46q23 0 31.5 -17.5t2.5 -56.5q-7 -50 -30 -73t-63 -23l5 36q36 0 43 53q-24 0 -33.5 9t-7.5 29q7 43 52 43z" />
    <glyph glyph-name="Lacute" unicode="&#x139;" horiz-adv-x="581" 
d="M542 76l-11 -76h-430l98 700h88l-87 -624h342zM205 750l121 120h81l-133 -120h-69z" />
    <glyph glyph-name="lacute" unicode="&#x13a;" horiz-adv-x="246" 
d="M81 0l98 700h81l-98 -700h-81zM175 750l122 120h81l-133 -120h-70z" />
    <glyph glyph-name="Lcedilla" unicode="&#x13b;" horiz-adv-x="580" 
d="M541 76l-11 -76h-430l98 700h88l-87 -624h342zM302 -46h1q24 0 33 -17.5t3 -55.5q-7 -51 -29.5 -74t-63.5 -23l5 36q36 0 43 53q-17 0 -26 4t-12.5 12.5t-1.5 22.5q6 42 48 42z" />
    <glyph glyph-name="lcedilla" unicode="&#x13c;" horiz-adv-x="230" 
d="M74 0l98 700h80l-98 -700h-80zM106 -46h1q24 0 33 -17.5t3 -55.5q-7 -51 -29.5 -74t-63.5 -23l5 36q36 0 43 53q-17 0 -26 4t-12.5 12.5t-1.5 22.5q6 42 48 42z" />
    <glyph glyph-name="Lcaron" unicode="&#x13d;" horiz-adv-x="580" 
d="M541 76l-11 -76h-430l98 700h88l-87 -624h342zM377 710h1q16 0 25.5 -7.5t12 -24t-0.5 -41.5q-8 -51 -30.5 -74t-63.5 -23l5 36q36 0 43 53q-24 0 -33.5 9t-6.5 30q6 42 48 42z" />
    <glyph glyph-name="lcaron" unicode="&#x13e;" horiz-adv-x="325" 
d="M80 0l98 700h80l-98 -700h-80zM347 710h1q16 0 25.5 -7.5t12 -24t-0.5 -41.5q-8 -51 -30.5 -74t-63.5 -23l5 36q36 0 43 53q-24 0 -33.5 9t-6.5 30q6 42 48 42z" />
    <glyph glyph-name="Lslash" unicode="&#x141;" horiz-adv-x="596" 
d="M557 76l-11 -76h-430l43 309l-104 -59l10 69l104 59l45 322h88l-37 -267l266 151l-10 -70l-266 -151l-40 -287h342z" />
    <glyph glyph-name="lslash" unicode="&#x142;" horiz-adv-x="353" 
d="M84 310l9 70l105 60l36 260h80l-29 -210l104 60l-8 -69l-106 -61l-59 -420h-80l52 370z" />
    <glyph glyph-name="Nacute" unicode="&#x143;" horiz-adv-x="753" 
d="M667 700h84l-98 -700h-106l-281 581l-82 -581h-84l98 700h105l283 -581zM433 750l121 120h81l-133 -120h-69z" />
    <glyph glyph-name="nacute" unicode="&#x144;" horiz-adv-x="575" 
d="M218 441q57 69 172 69q98 0 134.5 -57t18.5 -183l-38 -270h-80l38 270q13 92 -11 132.5t-91 40.5q-73 0 -111.5 -41t-51.5 -132l-38 -270h-80l70 500h65zM453 700h84l-147 -150h-69z" />
    <glyph glyph-name="Ncedilla" unicode="&#x145;" horiz-adv-x="753" 
d="M666 700h85l-98 -700h-106l-281 581l-82 -581h-84l98 700h105l282 -581zM372 -46h1q24 0 33 -17.5t3 -55.5q-7 -51 -29.5 -74t-63.5 -23l5 36q36 0 43 53q-17 0 -26 4t-12.5 12.5t-1.5 22.5q6 42 48 42z" />
    <glyph glyph-name="ncedilla" unicode="&#x146;" horiz-adv-x="575" 
d="M218 441q57 69 172 69q98 0 134.5 -57t18.5 -183l-38 -270h-80l38 270q13 92 -11 132.5t-91 40.5q-73 0 -111.5 -41t-51.5 -132l-38 -270h-80l70 500h65zM286 -46h1q24 0 33 -17.5t3 -55.5q-7 -51 -29.5 -74t-63.5 -23l5 36q36 0 43 53q-17 0 -26 4t-12.5 12.5t-1.5 22.5
q6 42 48 42z" />
    <glyph glyph-name="Ncaron" unicode="&#x147;" horiz-adv-x="753" 
d="M667 700h84l-98 -700h-106l-281 581l-82 -581h-84l98 700h105l283 -581zM633 870l-115 -120h-81l-81 120h61l67 -79l88 79h61z" />
    <glyph glyph-name="ncaron" unicode="&#x148;" horiz-adv-x="575" 
d="M218 441q57 69 172 69q98 0 134.5 -57t18.5 -183l-38 -270h-80l38 270q13 92 -11 132.5t-91 40.5q-73 0 -111.5 -41t-51.5 -132l-38 -270h-80l70 500h65zM410 550h-81l-71 150h56l63 -104l90 104h56z" />
    <glyph glyph-name="Omacron" unicode="&#x14c;" horiz-adv-x="785" 
d="M494 720q175 0 241.5 -88t39 -282t-118.5 -282t-266 -88t-241.5 88t-39.5 282t118.5 282t266.5 88zM483.5 644q-127.5 0 -194 -69t-88.5 -225t25 -225t174.5 -69t194 69t88.5 225t-25 225t-174.5 69zM339 827h340l-7 -54h-340z" />
    <glyph glyph-name="omacron" unicode="&#x14d;" horiz-adv-x="585" 
d="M365 510q127 0 175.5 -62t29.5 -198t-85.5 -198t-192.5 -62q-128 0 -177 62t-30 198t85.5 198t194.5 62zM165 250q-14 -102 18 -147.5t118 -45.5t130.5 45.5t58.5 147.5q15 103 -16.5 148t-118.5 45t-131 -45t-59 -148zM210 627h340l-7 -54h-340z" />
    <glyph glyph-name="Obreve" unicode="&#x14e;" horiz-adv-x="785" 
d="M494 720q175 0 241.5 -88t39 -282t-118.5 -282t-266 -88t-241.5 88t-39.5 282t118.5 282t266.5 88zM483.5 644q-127.5 0 -194 -69t-88.5 -225t25 -225t174.5 -69t194 69t88.5 225t-25 225t-174.5 69zM672 870q-9 -63 -50 -91.5t-124 -28.5t-116.5 28.5t-24.5 91.5h62
q-5 -39 15.5 -56.5t70.5 -17.5t75.5 17.5t30.5 56.5h61z" />
    <glyph glyph-name="obreve" unicode="&#x14f;" horiz-adv-x="585" 
d="M365 510q127 0 175.5 -62t29.5 -198t-85.5 -198t-192.5 -62q-128 0 -177 62t-30 198t85.5 198t194.5 62zM165 250q-14 -102 18 -147.5t118 -45.5t130.5 45.5t58.5 147.5q15 103 -16.5 148t-118.5 45t-131 -45t-59 -148zM548 700q-11 -79 -53 -114.5t-125 -35.5
t-115.5 35.5t-21.5 114.5h58q-7 -53 13 -76.5t73 -23.5q27 0 46.5 5.5t33 18t22 31t11.5 45.5h58z" />
    <glyph glyph-name="Ohungarumlaut" unicode="&#x150;" horiz-adv-x="785" 
d="M494 720q175 0 241.5 -88t39 -282t-118.5 -282t-266 -88t-241.5 88t-39.5 282t118.5 282t266.5 88zM483.5 644q-127.5 0 -194 -69t-88.5 -225t25 -225t174.5 -69t194 69t88.5 225t-25 225t-174.5 69zM380 750l123 150h80l-138 -150h-65zM542 750l122 150h80l-138 -150
h-64z" />
    <glyph glyph-name="ohungarumlaut" unicode="&#x151;" horiz-adv-x="585" 
d="M365 510q127 0 175.5 -62t29.5 -198t-85.5 -198t-192.5 -62q-128 0 -177 62t-30 198t85.5 198t194.5 62zM165 250q-14 -102 18 -147.5t118 -45.5t130.5 45.5t58.5 147.5q15 103 -16.5 148t-118.5 45t-131 -45t-59 -148zM252 550l123 150h79l-138 -150h-64zM413 550
l123 150h80l-138 -150h-65z" />
    <glyph glyph-name="OE" unicode="&#x152;" horiz-adv-x="1147" 
d="M1184 629l1 -1h-374l-32 -228h334l-10 -71h-334l-36 -259h374l-10 -71h-455l16 118q-76 -126 -238 -136q-42 -2 -64 -1q-155 7 -214 95t-33 274q27 194 117 282t260 88q97 0 155.5 -33.5t81.5 -104.5l16 119h455zM483.5 644q-127.5 0 -194 -69t-88.5 -225t25 -225
t174.5 -69t194 69t88.5 225t-25 225t-174.5 69z" />
    <glyph glyph-name="oe" unicode="&#x153;" horiz-adv-x="964" 
d="M558 206l-1 -2q-3 -51 7.5 -84.5t41 -52.5t81.5 -19q56 0 91.5 24t58.5 76h77q-59 -159 -236 -159q-133 0 -175 91q-62 -91 -212 -91q-127 0 -176 62t-30 198t85.5 198t194.5 62q76 0 121.5 -22t64.5 -68q67 91 202 91q115 0 164 -68.5t31 -202.5l-5 -33h-385zM166 250
q-14 -102 18 -147.5t118 -45.5t130.5 45.5t58.5 147.5q15 103 -16.5 148t-118.5 45t-131 -45t-59 -148zM743 449q-56 0 -93.5 -23.5t-57.5 -64t-30 -103.5h306q10 66 -0.5 108t-41.5 62.5t-83 20.5z" />
    <glyph glyph-name="Racute" unicode="&#x154;" horiz-adv-x="703" 
d="M549 0l-108 266h-216l-37 -267h-88l98 700h299q242 0 211 -219q-24 -171 -180 -204l115 -276h-94zM235 334h207q82 0 125 36t54 111q10 76 -22.5 112t-115.5 36h-207zM389 749l121 120h81l-133 -120h-69z" />
    <glyph glyph-name="racute" unicode="&#x155;" horiz-adv-x="384" 
d="M347 434q-72 0 -104.5 -40.5t-47.5 -143.5l-35 -250h-80l70 500h65l4 -60q49 70 139 70h55l-11 -76h-55zM226 550l132 150h84l-147 -150h-69z" />
    <glyph glyph-name="Rcedilla" unicode="&#x156;" horiz-adv-x="703" 
d="M549 0l-108 266h-216l-37 -267h-88l98 700h299q242 0 211 -219q-24 -171 -180 -204l115 -276h-94zM235 334h207q82 0 125 36t54 111q10 76 -22.5 112t-115.5 36h-207zM342 -46h1q24 0 33 -17.5t3 -55.5q-5 -34 -16.5 -55.5t-30.5 -31.5t-46 -10l5 36q36 0 43 53
q-17 0 -26 4t-12.5 12.5t-1.5 22.5q6 42 48 42z" />
    <glyph glyph-name="rcedilla" unicode="&#x157;" horiz-adv-x="384" 
d="M350 434q-72 0 -104.5 -40.5t-47.5 -143.5l-35 -250h-80l70 500h65l4 -60q49 70 139 70h55l-11 -76h-55zM116 -46h1q24 0 33 -17.5t3 -55.5q-7 -51 -29.5 -74t-63.5 -23l5 36q36 0 43 53q-17 0 -26 4t-12.5 12.5t-1.5 22.5q6 42 48 42z" />
    <glyph glyph-name="Rcaron" unicode="&#x158;" horiz-adv-x="703" 
d="M550 0l-111 263h-214l-37 -264h-88l98 700h299q64 0 109 -18t68.5 -49t32 -69t1.5 -83q-10 -74 -56 -129.5t-127 -76.5l118 -274h-93zM235 334h211q80 0 123 42.5t52 104.5q9 66 -21.5 107t-112.5 41h-211zM590 869l-116 -120h-80l-82 120h61l67 -79l88 79h62z" />
    <glyph glyph-name="rcaron" unicode="&#x159;" horiz-adv-x="396" 
d="M362 434q-72 0 -104.5 -40.5t-47.5 -143.5l-35 -250h-80l70 500h65l4 -60q49 70 139 70h55l-11 -76h-55zM443 700l-113 -150h-80l-72 150h57l62 -104l90 104h56z" />
    <glyph glyph-name="Sacute" unicode="&#x15a;" horiz-adv-x="645" 
d="M227 520q-4 -32 11 -54.5t43.5 -34.5t66 -23.5t76.5 -19t76 -23t64.5 -35t41 -55t6.5 -82.5q-16 -112 -85 -162.5t-207 -50.5t-193 52.5t-39 167.5h81q-11 -82 26 -117.5t135 -35.5q95 0 140.5 31t55.5 102q6 40 -14 67t-56 41t-80.5 24.5t-88.5 23t-79.5 31t-54.5 54
t-12 86.5q16 112 83 162.5t200 50.5t185.5 -52t35.5 -168h-80q12 81 -23.5 117t-126.5 36t-134.5 -31t-53.5 -102zM379 750l121 120h81l-132 -120h-70z" />
    <glyph glyph-name="sacute" unicode="&#x15b;" horiz-adv-x="501" 
d="M186 375q-4 -26 11 -43t42 -25.5t60 -14.5t65.5 -15t59 -23t40 -42t7.5 -69q-7 -54 -33.5 -87.5t-73.5 -49.5t-118 -16q-104 0 -145.5 38t-29.5 122h77q-8 -56 17 -81t90 -25q44 0 72 9t43 29t20 52q3 25 -8 42.5t-32 26.5t-48 16t-56 12t-56 14.5t-47 23t-30 38.5t-5 60
q10 75 60.5 109t152.5 34q66 0 105.5 -15.5t54.5 -48.5t8 -86h-73q7 51 -17 73.5t-86 22.5t-91.5 -19t-35.5 -62zM277 550l132 150h84l-147 -150h-69z" />
    <glyph glyph-name="Scircumflex" unicode="&#x15c;" horiz-adv-x="645" 
d="M227 520q-4 -32 11 -54.5t43.5 -34.5t66 -23.5t76.5 -19t76 -23t64.5 -35t41 -55t6.5 -82.5q-16 -112 -85 -162.5t-207 -50.5t-193 52.5t-39 167.5h81q-11 -82 26 -117.5t135 -35.5q95 0 140.5 31t55.5 102q6 40 -14 67t-56 41t-80.5 24.5t-88.5 23t-79.5 31t-54.5 54
t-12 86.5q16 112 83 162.5t200 50.5t185.5 -52t35.5 -168h-80q12 81 -23.5 117t-126.5 36t-134.5 -31t-53.5 -102zM567 750h-62l-66 79l-89 -79h-61l116 120h80z" />
    <glyph glyph-name="scircumflex" unicode="&#x15d;" horiz-adv-x="501" 
d="M186 375q-4 -26 11 -43t42 -25.5t60 -14.5t65.5 -15t59 -23t40 -42t7.5 -69q-7 -54 -33.5 -87.5t-73.5 -49.5t-118 -16q-104 0 -145.5 38t-29.5 122h77q-8 -56 17 -81t90 -25q44 0 72 9t43 29t20 52q3 25 -8 42.5t-32 26.5t-48 16t-56 12t-56 14.5t-47 23t-30 38.5t-5 60
q10 75 60.5 109t152.5 34q66 0 105.5 -15.5t54.5 -48.5t8 -86h-73q7 51 -17 73.5t-86 22.5t-91.5 -19t-35.5 -62zM458 550h-56l-61 104l-91 -104h-57l114 150h80z" />
    <glyph glyph-name="Scedilla" unicode="&#x15e;" horiz-adv-x="645" 
d="M256 -87l30 67q-119 6 -166 58.5t-32 160.5h81q-12 -82 25.5 -117.5t134.5 -35.5q96 0 141.5 31t55.5 102q6 40 -14 67t-56 41t-80.5 24.5t-89 23t-79.5 31t-54 54t-12 86.5q16 112 83 162.5t200 50.5t185 -52t36 -168h-80q12 81 -23.5 117t-126.5 36t-134.5 -31
t-53.5 -102q-5 -32 10.5 -54.5t44 -34.5t66 -23.5t76.5 -19t75.5 -23t64 -35t41.5 -55t7 -82.5q-15 -109 -81.5 -160.5t-196.5 -51.5l-14 -31q4 -1 10.5 -2t23.5 -7.5t29.5 -15.5t21 -26t5.5 -38q-7 -53 -61.5 -81.5t-150.5 -28.5l6 41q136 0 145 69q2 15 -7 26t-25 16.5
t-31.5 8t-29.5 2.5z" />
    <glyph glyph-name="scedilla" unicode="&#x15f;" horiz-adv-x="501" 
d="M216 -10q-87 5 -121.5 43.5t-23.5 116.5h77q-8 -56 17 -81t90 -25q44 0 72 9t43 29t20 52q3 25 -8 42.5t-32 26.5t-48 16t-56 12t-56 14.5t-47 23t-30 38.5t-5 60q10 75 60.5 109t152.5 34q66 0 105.5 -15.5t54.5 -48.5t8 -86h-73q7 51 -17 73.5t-86 22.5t-91.5 -19
t-35.5 -62q-4 -26 11 -43t42 -25.5t60 -14.5t65.5 -15t59 -23t40 -42t7.5 -69q-11 -77 -60.5 -113.5t-146.5 -39.5l-19 -41q4 -1 10.5 -2t23.5 -7.5t29.5 -15.5t21 -26t5.5 -38q-7 -53 -61.5 -81.5t-150.5 -28.5l6 41q136 0 145 69q2 15 -7 26t-25 16.5t-31.5 8t-29.5 2.5z
" />
    <glyph glyph-name="Scaron" unicode="&#x160;" horiz-adv-x="645" 
d="M227 520q-4 -32 11 -54.5t43.5 -34.5t66 -23.5t76.5 -19t76 -23t64.5 -35t41 -55t6.5 -82.5q-16 -112 -85 -162.5t-207 -50.5t-193 52.5t-39 167.5h81q-11 -82 26 -117.5t135 -35.5q95 0 140.5 31t55.5 102q6 40 -14 67t-56 41t-80.5 24.5t-88.5 23t-79.5 31t-54.5 54
t-12 86.5q16 112 83 162.5t200 50.5t185.5 -52t35.5 -168h-80q12 81 -23.5 117t-126.5 36t-134.5 -31t-53.5 -102zM580 870l-116 -120h-80l-82 120h62l66 -79l88 79h62z" />
    <glyph glyph-name="scaron" unicode="&#x161;" horiz-adv-x="501" 
d="M186 375q-4 -26 11 -43t42 -25.5t60 -14.5t65.5 -15t59 -23t40 -42t7.5 -69q-7 -54 -33.5 -87.5t-73.5 -49.5t-118 -16q-104 0 -145.5 38t-29.5 122h77q-8 -56 17 -81t90 -25q44 0 72 9t43 29t20 52q3 25 -8 42.5t-32 26.5t-48 16t-56 12t-56 14.5t-47 23t-30 38.5t-5 60
q10 75 60.5 109t152.5 34q66 0 105.5 -15.5t54.5 -48.5t8 -86h-73q7 51 -17 73.5t-86 22.5t-91.5 -19t-35.5 -62zM479 700l-113 -150h-80l-72 150h56l63 -104l90 104h56z" />
    <glyph glyph-name="Tcedilla" unicode="&#x162;" horiz-adv-x="625" 
d="M286 0h-17l88 624h-219l10 76h525l-10 -76h-218l-88 -624h-24l-23 -51q4 -1 10.5 -2t23.5 -7.5t29.5 -15.5t21 -26t5.5 -38q-7 -53 -61 -81.5t-151 -28.5l6 41q136 0 145 69q3 20 -14.5 32.5t-37.5 16.5t-41 4z" />
    <glyph glyph-name="tcedilla" unicode="&#x163;" horiz-adv-x="403" 
d="M224 6h-1q-44 12 -62.5 46t-11.5 85l43 304h-80l8 59h80l17 119h81l-17 -119h152l-8 -59h-152l-41 -295q-6 -37 12.5 -58t62.5 -21h65l-9 -67h-91h-3l-24 -51q4 -1 10.5 -2t23.5 -7.5t29.5 -15.5t21 -26t5.5 -38q-7 -53 -61.5 -81.5t-150.5 -28.5l6 41q136 0 145 69
q3 20 -14.5 32.5t-37.5 16.5t-41 4z" />
    <glyph glyph-name="Tcaron" unicode="&#x164;" horiz-adv-x="625" 
d="M673 700l-10 -76h-218l-88 -624h-88l88 624h-219l10 76h525zM570 870l-116 -120h-80l-82 120h62l66 -79l88 79h62z" />
    <glyph glyph-name="tcaron" unicode="&#x165;" horiz-adv-x="403" 
d="M232 146q-6 -37 12.5 -58t62.5 -21h65l-9 -67h-91q-69 0 -100.5 36.5t-22.5 100.5l43 304h-80l8 59h80l17 119h81l-17 -119h152l-8 -59h-152zM390 711h1q25 0 33.5 -17.5t3.5 -55.5q-4 -25 -11.5 -43.5t-19 -30.5t-27.5 -17.5t-36 -5.5l5 36q36 0 44 53q-25 0 -34.5 9
t-6.5 30q6 42 48 42z" />
    <glyph glyph-name="Utilde" unicode="&#x168;" horiz-adv-x="725" 
d="M126 254l62 446h88l-62 -446q-15 -105 22 -151.5t135 -46.5q97 0 147 46.5t65 151.5l62 446h88l-62 -446q-21 -144 -94.5 -209t-216.5 -65t-199 65t-35 209zM312 760q7 50 34.5 77t64.5 27q27 0 48.5 -10.5t33 -23.5t28 -23.5t34 -10.5t30 13.5t15.5 40.5h39
q-7 -51 -34 -77.5t-65 -26.5q-26 0 -47.5 10.5t-33.5 23.5t-28.5 23.5t-33.5 10.5q-18 0 -30 -13.5t-16 -40.5h-39z" />
    <glyph glyph-name="utilde" unicode="&#x169;" horiz-adv-x="575" 
d="M417 59q-56 -69 -171 -69q-99 0 -135 57t-19 183l38 270h80l-38 -270q-13 -92 11 -132.5t91 -40.5q49 0 82 18t53 56t28 99l38 270h80l-70 -500h-65zM209 600q8 52 37 85.5t65 33.5q26 0 47 -14.5t32 -32t26 -32t31 -14.5q11 0 20.5 7.5t16.5 22t10 34.5h43
q-4 -26 -13.5 -48t-23 -37.5t-30.5 -24.5t-35 -9q-26 0 -47 14.5t-32 32t-26 32t-31 14.5q-17 0 -29.5 -17t-17.5 -47h-43z" />
    <glyph glyph-name="Umacron" unicode="&#x16a;" horiz-adv-x="725" 
d="M126 254l62 446h88l-62 -446q-15 -105 22 -151.5t135 -46.5q97 0 147 46.5t65 151.5l62 446h88l-62 -446q-21 -144 -94.5 -209t-216.5 -65t-199 65t-35 209zM307 821h340l-7 -54h-340z" />
    <glyph glyph-name="umacron" unicode="&#x16b;" horiz-adv-x="575" 
d="M417 59q-56 -69 -171 -69q-99 0 -135 57t-19 183l38 270h80l-38 -270q-13 -92 11 -132.5t91 -40.5q49 0 82 18t53 56t28 99l38 270h80l-70 -500h-65zM194 586l8 54h340l-8 -54h-340z" />
    <glyph glyph-name="Ubreve" unicode="&#x16c;" horiz-adv-x="725" 
d="M126 254l62 446h88l-62 -446q-15 -105 22 -151.5t135 -46.5q97 0 147 46.5t65 151.5l62 446h88l-62 -446q-21 -144 -94.5 -209t-216.5 -65t-199 65t-35 209zM642 870q-9 -63 -50 -91.5t-124 -28.5t-116.5 28.5t-24.5 91.5h62q-5 -39 15.5 -56.5t70.5 -17.5t75.5 17.5
t30.5 56.5h61z" />
    <glyph glyph-name="ubreve" unicode="&#x16d;" horiz-adv-x="575" 
d="M417 59q-56 -69 -171 -69q-99 0 -135 57t-19 183l38 270h80l-38 -270q-13 -92 11 -132.5t91 -40.5q49 0 82 18t53 56t28 99l38 270h80l-70 -500h-65zM470 700h58q-11 -79 -53 -114.5t-125 -35.5t-115.5 35.5t-21.5 114.5h58q-7 -53 13 -76.5t73 -23.5q36 0 59 10.5t36 32
t18 57.5z" />
    <glyph glyph-name="Uring" unicode="&#x16e;" horiz-adv-x="725" 
d="M126 254l62 446h88l-62 -446q-15 -105 22 -151.5t135 -46.5q97 0 147 46.5t65 151.5l62 446h88l-62 -446q-21 -144 -94.5 -209t-216.5 -65t-199 65t-35 209zM488 887q58 0 81 -23t16 -75t-37.5 -75.5t-88.5 -23.5t-81 23.5t-16 75.5q5 35 19.5 56.5t40.5 31.5t66 10z
M466 731q35 0 51 13t21 45q4 31 -8.5 44t-47.5 13q-36 0 -52.5 -13t-20.5 -44q-5 -32 8 -45t49 -13z" />
    <glyph glyph-name="uring" unicode="&#x16f;" horiz-adv-x="575" 
d="M417 59q-56 -69 -171 -69q-99 0 -135 57t-19 183l38 270h80l-38 -270q-13 -92 11 -132.5t91 -40.5q49 0 82 18t53 56t28 99l38 270h80l-70 -500h-65zM372.5 739q58.5 0 81.5 -23.5t16 -75.5t-37 -75.5t-88 -23.5t-81.5 23.5t-16.5 75.5t37 75.5t88.5 23.5zM351 583
q35 0 52 13t21 44t-9 44t-48 13t-52 -13t-21 -44q-3 -21 2 -33t18 -18t37 -6z" />
    <glyph glyph-name="Uhungarumlaut" unicode="&#x170;" horiz-adv-x="725" 
d="M126 254l62 446h88l-62 -446q-15 -105 22 -151.5t135 -46.5q97 0 147 46.5t65 151.5l62 446h88l-62 -446q-21 -144 -94.5 -209t-216.5 -65t-199 65t-35 209zM350 750l123 150h79l-138 -150h-64zM511 750l123 150h80l-138 -150h-65z" />
    <glyph glyph-name="uhungarumlaut" unicode="&#x171;" horiz-adv-x="575" 
d="M417 59q-56 -69 -171 -69q-99 0 -135 57t-19 183l38 270h80l-38 -270q-13 -92 11 -132.5t91 -40.5q49 0 82 18t53 56t28 99l38 270h80l-70 -500h-65zM351 700h80l-138 -150h-65zM512 700h80l-138 -150h-64z" />
    <glyph glyph-name="Uogonek" unicode="&#x172;" horiz-adv-x="725" 
d="M671 254q-11 -76 -36 -129t-66.5 -86t-100.5 -48q-66 -48 -81 -104q-13 -49 28 -59q8 -2 18 -2q14 0 29.5 4.5t24.5 9.5l8 4l-10 -74q-34 -20 -74 -20q-56 0 -76.5 39.5t1 95t73.5 97.5q-32 -2 -49 -2q-143 0 -199 65t-35 209l62 446h88l-62 -446q-15 -105 22 -151.5
t135 -46.5q97 0 147 46.5t65 151.5l62 446h88z" />
    <glyph glyph-name="uogonek" unicode="&#x173;" horiz-adv-x="589" 
d="M424 -1h-4l-3 59q-57 -69 -172 -69q-98 0 -134.5 57t-18.5 183l38 270h80l-38 -270q-13 -92 11 -132.5t91 -40.5q49 0 82 18t53 56t28 99l38 270h80l-69 -491h-1l-1 -8h-12q-70 -45 -91 -104q-18 -51 19 -66q10 -4 25 -4q14 0 29.5 4.5t23.5 9.5l8 4l-10 -74
q-33 -20 -73 -20q-60 0 -79 44.5t9.5 104.5t90.5 100z" />
    <glyph glyph-name="Wcircumflex" unicode="&#x174;" horiz-adv-x="1012" 
d="M551 700h106l63 -618l252 618h88l-293 -700h-113l-65 618l-231 -618h-113l-97 700h88l80 -618zM748 750h-61l-66 79l-89 -79h-62l116 120h80z" />
    <glyph glyph-name="wcircumflex" unicode="&#x175;" horiz-adv-x="849" 
d="M645 0h-97l-61 439l-185 -439h-97l-95 500h81l74 -434l183 434h97l57 -434l196 434h81zM637 550h-57l-61 104l-91 -104h-56l113 150h80z" />
    <glyph glyph-name="Ycircumflex" unicode="&#x176;" horiz-adv-x="649" 
d="M409 283h-1l-40 -283h-84l40 283l-186 417h98l142 -336l236 336h93zM566 750h-62l-66 79l-89 -79h-61l116 120h80z" />
    <glyph glyph-name="ycircumflex" unicode="&#x177;" horiz-adv-x="525" 
d="M247 6l3 6l-150 488h78l119 -390l191 390h77l-259 -520q-42 -84 -87 -122t-102 -38h-55l8 59h52q34 0 64 30t61 97zM476 550h-57l-61 104l-91 -104h-57l114 150h80z" />
    <glyph glyph-name="Ydieresis" unicode="&#x178;" horiz-adv-x="649" 
d="M409 283h-1l-40 -283h-84l40 283l-186 417h98l142 -336l236 336h93zM347.5 844q29.5 0 41.5 -12t8 -39q-7 -52 -64 -52q-29 0 -40.5 12.5t-8 39.5t18.5 39t44.5 12zM533 844q30 0 41.5 -12t8 -39t-19 -39.5t-45.5 -12.5q-29 0 -40.5 12.5t-8 39.5t18.5 39t45 12z" />
    <glyph glyph-name="Zacute" unicode="&#x179;" horiz-adv-x="630" 
d="M165 71h425l-10 -71h-530l8 58l494 571h-404l10 71h510l-8 -58zM367 750l121 120h81l-132 -120h-70z" />
    <glyph glyph-name="zacute" unicode="&#x17a;" horiz-adv-x="491" 
d="M147 63h313l-9 -63h-411l7 50l357 387h-293l9 63h391l-7 -50zM274 550l132 150h84l-147 -150h-69z" />
    <glyph glyph-name="Zdotaccent" unicode="&#x17b;" horiz-adv-x="630" 
d="M165 71h425l-10 -71h-530l8 58l494 571h-404l10 71h510l-8 -58zM435 854q29 0 41 -12t8 -39t-19 -39.5t-44 -12.5q-21 0 -32.5 5.5t-16 17t-1.5 29.5q4 27 19 39t45 12z" />
    <glyph glyph-name="zdotaccent" unicode="&#x17c;" horiz-adv-x="491" 
d="M147 63h313l-9 -63h-411l7 50l357 387h-293l9 63h391l-7 -50zM341 681q30 0 41.5 -13t7.5 -42t-19.5 -42.5t-45.5 -13.5q-29 0 -40.5 13.5t-7.5 42.5t19 42t45 13z" />
    <glyph glyph-name="Zcaron" unicode="&#x17d;" horiz-adv-x="630" 
d="M165 71h425l-10 -71h-530l8 58l494 571h-404l10 71h510l-8 -58zM572 870l-116 -120h-80l-82 120h62l66 -79l88 79h62z" />
    <glyph glyph-name="zcaron" unicode="&#x17e;" horiz-adv-x="491" 
d="M147 63h313l-9 -63h-411l7 50l357 387h-293l9 63h391l-7 -50zM476 700l-113 -150h-81l-71 150h56l63 -104l90 104h56z" />
    <glyph glyph-name="Aacutering" unicode="&#x1fa;" horiz-adv-x="693" 
d="M40 0l349 700h119l145 -700h-92l-33 170h-317l-82 -170h-89zM243 237h271l-78 400zM599 960l-78 -73q60 -18 52 -78q-6 -41 -39 -63t-84 -22q-52 0 -79 22t-21 63q5 40 38.5 62t84.5 22h3l65 67h58zM454 761q68 0 75 48q3 23 -13.5 35t-48.5 12q-69 0 -75 -47
q-4 -24 12.5 -36t49.5 -12z" />
    <glyph glyph-name="aacutering" unicode="&#x1fb;" horiz-adv-x="545" 
d="M410 0l-2 59q-55 -69 -175 -69q-97 0 -135.5 36.5t-27.5 117.5q13 89 72 129.5t177 40.5h120l4 26q8 61 -17.5 88.5t-90.5 27.5q-66 0 -98.5 -25t-40.5 -81h-77q8 56 34.5 91.5t73 52t118.5 16.5q105 0 147.5 -42.5t29.5 -136.5l-47 -331h-65zM432 260h-118
q-78 0 -116.5 -26.5t-46.5 -84.5q-7 -52 18 -74t91 -22q73 0 112.5 34t49.5 107zM455 791h65l-87 -78q47 -21 39 -83q-14 -96 -126 -94q-54 0 -79 24t-18 70q13 94 125 94h14zM353 577q36 0 52 12t20 41t-9 41t-48 12q-36 0 -52 -12t-20 -41q-3 -19 1.5 -30.5t18 -17
t37.5 -5.5z" />
    <glyph glyph-name="AEacute" unicode="&#x1fc;" horiz-adv-x="933" 
d="M971 629h-340l-32 -228h300l-10 -71h-300l-36 -259h340l-10 -71h-420l24 170h-244l-113 -170h-90l470 700h471zM553 637l-266 -400h209zM597 750l121 120h81l-133 -120h-69z" />
    <glyph glyph-name="aeacute" unicode="&#x1fd;" horiz-adv-x="930" 
d="M505 206q-5 -82 25 -120t104 -38q58 0 92 22.5t58 77.5h77q-12 -34 -28 -59.5t-36 -44.5t-46 -31t-57 -18t-69 -6q-51 0 -87.5 13t-58.5 40t-30 69q-25 -63 -77.5 -92t-138.5 -29q-97 0 -135.5 36.5t-27.5 117.5q8 59 35.5 96t77.5 55.5t124 18.5h132l4 26
q5 39 -4.5 63.5t-35.5 36t-71 11.5q-66 0 -97 -23t-39 -78h-77q8 56 34.5 91.5t73 52t118.5 16.5q70 0 109.5 -22t50.5 -68q61 90 194 90q82 0 129 -28.5t63 -87.5t3 -155l-5 -33h-384zM432 260h-112q-82 0 -121.5 -26t-47.5 -85q-7 -50 19 -73t90 -23q75 0 113.5 32
t47.5 103zM816 259q15 102 -15 146.5t-112 44.5q-79 0 -121.5 -45t-57.5 -146h306zM470 549l132 150h84l-147 -150h-69z" />
    <glyph glyph-name="Oslashacute" unicode="&#x1fe;" horiz-adv-x="785" 
d="M607 709l34 73h58l-42 -88q80 -35 108.5 -119t8.5 -224q-27 -194 -118 -282t-266 -88q-37 0 -78 5l-32 -65h-58l37 76q-99 29 -135 115t-15 239q28 194 119.5 282t265.5 88q63 0 113 -12zM570 634q-36 10 -86 10q-128 0 -194.5 -69t-88.5 -225q-16 -118 6.5 -185.5
t88.5 -92.5zM347 59q25 -3 54 -3q127 0 193.5 69t88.5 225q10 69 6.5 120.5t-21 87t-50.5 55.5zM438 752l121 120h81l-133 -120h-69z" />
    <glyph glyph-name="oslashacute" unicode="&#x1ff;" horiz-adv-x="584" 
d="M363 510q33 0 65 -5l31 65h43l-35 -74q67 -22 91.5 -82t9.5 -164q-19 -136 -85.5 -198t-192.5 -62q-33 0 -66 5l-31 -65h-43l36 74q-68 22 -92 82t-10 164q19 136 85.5 198t193.5 62zM353 443v1q-58 0 -96.5 -20t-61 -62t-32.5 -111q-10 -73 3 -116.5t51 -62.5l179 368
q-19 3 -43 3zM433 430l-177 -369q19 -3 43 -3q86 0 130.5 45.5t58.5 147.5q11 74 -2 117.5t-53 61.5zM305 551l133 150h84l-148 -150h-69z" />
    <glyph glyph-name="Scommaaccent" unicode="&#x218;" horiz-adv-x="645" 
d="M227 520q-4 -32 11 -54.5t43.5 -34.5t66 -23.5t76.5 -19t76 -23t64.5 -35t41 -55t6.5 -82.5q-16 -112 -85 -162.5t-207 -50.5t-193 52.5t-39 167.5h81q-11 -82 26 -117.5t135 -35.5q95 0 140.5 31t55.5 102q6 40 -14 67t-56 41t-80.5 24.5t-88.5 23t-79.5 31t-54.5 54
t-12 86.5q16 112 83 162.5t200 50.5t185.5 -52t35.5 -168h-80q12 81 -23.5 117t-126.5 36t-134.5 -31t-53.5 -102zM315 -46h1q24 0 33 -17.5t3 -55.5q-7 -51 -29.5 -74t-63.5 -23l5 36q36 0 43 53q-17 0 -26 4t-12.5 12.5t-1.5 22.5q6 42 48 42z" />
    <glyph glyph-name="scommaaccent" unicode="&#x219;" horiz-adv-x="501" 
d="M186 375q-4 -26 11 -43t42 -25.5t60 -14.5t65.5 -15t59 -23t40 -42t7.5 -69q-11 -80 -65 -116.5t-161 -36.5q-103 0 -144.5 38t-29.5 122h76q-8 -56 17 -81t91 -25q44 0 72 9t43 29t20 52q3 25 -8 42.5t-32 26.5t-48 16t-56 12t-56 14.5t-47 23t-30 38.5t-5 60
q10 75 60.5 109t152.5 34q99 0 138.5 -35.5t28.5 -114.5h-72q7 51 -17 73.5t-86 22.5t-91.5 -19t-35.5 -62zM242 -46h1q24 0 33 -17.5t3 -55.5q-7 -51 -29.5 -74t-63.5 -23l5 36q36 0 43 53q-17 0 -26 4t-12.5 12.5t-1.5 22.5q6 42 48 42z" />
    <glyph glyph-name="uni021A" unicode="&#x21a;" horiz-adv-x="625" 
d="M673 700l-10 -76h-218l-88 -624h-88l88 624h-219l10 76h525zM306 -46h1q24 0 33 -17.5t3 -55.5q-7 -51 -29.5 -74t-63.5 -23l5 36q36 0 43 53q-17 0 -26 4t-12.5 12.5t-1.5 22.5q6 42 48 42z" />
    <glyph glyph-name="uni021B" unicode="&#x21b;" horiz-adv-x="403" 
d="M232 146q-6 -37 12.5 -58t62.5 -21h65l-9 -67h-91q-69 0 -100.5 36.5t-22.5 100.5l43 304h-80l8 59h80l17 119h81l-17 -119h152l-8 -59h-152zM219 -46h1q24 0 33 -17.5t3 -55.5q-7 -51 -29.5 -74t-63.5 -23l5 36q36 0 43 53q-16 0 -25.5 4t-13 12.5t-1.5 22.5q6 42 48 42
z" />
    <glyph glyph-name="circumflex" unicode="&#x2c6;" horiz-adv-x="365" 
d="M321 700l71 -150h-56l-61 104l-92 -104h-56l113 150h81z" />
    <glyph glyph-name="caron" unicode="&#x2c7;" horiz-adv-x="365" 
d="M413 700l-113 -150h-81l-71 150h56l63 -104l90 104h56z" />
    <glyph glyph-name="breve" unicode="&#x2d8;" horiz-adv-x="415" 
d="M405 700v-1h57q-11 -79 -53.5 -114.5t-125.5 -35.5q-82 0 -114.5 35.5t-21.5 114.5h58q-7 -53 13 -76.5t72 -23.5q54 0 81 23.5t34 76.5h-1z" />
    <glyph glyph-name="dotaccent" unicode="&#x2d9;" horiz-adv-x="213" 
d="M207.5 721q29.5 0 41.5 -13.5t8 -41.5q-8 -56 -65 -56q-30 0 -41.5 13.5t-7 42.5t19.5 42t44.5 13z" />
    <glyph glyph-name="ring" unicode="&#x2da;" horiz-adv-x="323" 
d="M262.5 719q58.5 0 81.5 -23.5t16 -75.5t-37 -75.5t-88.5 -23.5t-81.5 23.5t-16 75.5t37 75.5t88.5 23.5zM240 563q36 0 52.5 13t20.5 44t-9 44t-48 13t-52 -13t-21 -44q-3 -21 2 -33t18 -18t37 -6z" />
    <glyph glyph-name="ogonek" unicode="&#x2db;" horiz-adv-x="268" 
d="M150 9h47q-74 -41 -102 -103q-24 -54 9 -73q12 -7 31 -7q14 0 29.5 4.5t23.5 9.5l8 4l-10 -74q-33 -20 -73 -20q-68 0 -83 57q-15 58 33 126q34 47 87 76z" />
    <glyph glyph-name="tilde" unicode="&#x2dc;" horiz-adv-x="415" 
d="M134 600q8 52 37 85.5t65 33.5q26 0 47 -14.5t32 -32t26 -32t31 -14.5q17 0 30 17t17 47h43q-7 -52 -36.5 -85.5t-65.5 -33.5q-21 0 -38.5 9.5t-29 23.5t-21.5 27.5t-22 23t-25 9.5q-17 0 -29.5 -17t-17.5 -47h-43z" />
    <glyph glyph-name="hungarumlaut" unicode="&#x2dd;" horiz-adv-x="443" 
d="M127 550l123 150h79l-137 -150h-65zM288 550l123 150h80l-138 -150h-65z" />
    <glyph glyph-name="Wgrave" unicode="&#x1e80;" horiz-adv-x="1012" 
d="M551 700h106l63 -618l252 618h88l-293 -700h-113l-65 618l-231 -618h-113l-97 700h88l80 -618zM658 750h-66l-102 120h77z" />
    <glyph glyph-name="wgrave" unicode="&#x1e81;" horiz-adv-x="849" 
d="M645 0h-97l-61 439l-185 -439h-97l-95 500h81l74 -434l183 434h97l57 -434l196 434h81zM553 550h-69l-105 150h84z" />
    <glyph glyph-name="Wacute" unicode="&#x1e82;" horiz-adv-x="1012" 
d="M551 700h106l63 -618l252 618h88l-293 -700h-113l-65 618l-231 -618h-113l-97 700h88l80 -618zM560 750l122 120h81l-133 -120h-70z" />
    <glyph glyph-name="wacute" unicode="&#x1e83;" horiz-adv-x="849" 
d="M645 0h-97l-61 439l-185 -439h-97l-95 500h81l74 -434l183 434h97l57 -434l196 434h81zM452 550l132 150h84l-147 -150h-69z" />
    <glyph glyph-name="Wdieresis" unicode="&#x1e84;" horiz-adv-x="1013" 
d="M552 700h106l62 -616l253 616h88l-293 -700h-113l-65 618l-231 -618h-113l-98 700h89l80 -618zM530.5 844q29.5 0 41.5 -12t8 -39q-7 -52 -64 -52q-29 0 -40.5 12.5t-8 39.5t18.5 39t44.5 12zM716 844q30 0 41.5 -12t8 -39t-19 -39.5t-45.5 -12.5q-29 0 -40.5 12.5
t-8 39.5t18.5 39t45 12z" />
    <glyph glyph-name="wdieresis" unicode="&#x1e85;" horiz-adv-x="850" 
d="M645 0h-97l-61 439l-185 -439h-97l-95 500h81l74 -433l183 433h97l58 -435l196 435h81zM429 687q29 0 41 -14t7 -44q-8 -58 -65 -58q-29 0 -40.5 14t-7.5 44q3 21 11 33.5t21 18.5t33 6zM606.5 687q29.5 0 41 -14t7 -44t-20 -44t-44.5 -14t-40.5 14t-7.5 44q5 31 20 44.5
t44.5 13.5z" />
    <glyph glyph-name="uni1E9E" unicode="&#x1e9e;" horiz-adv-x="608" 
d="M401 720q113 0 158.5 -45t31.5 -145q-9 -58 -51 -89.5t-119 -41.5q94 -11 131 -57.5t24 -137.5q-15 -107 -67 -155.5t-151 -48.5q-53 0 -100 20l9 63q46 -16 82 -16q67 0 102 34t45 108q6 40 -1 68.5t-28 47t-56 27t-85 8.5l9 69q90 0 131.5 25t50.5 85q5 38 -5 63
t-39 38t-77 13q-81 0 -123 -38.5t-54 -123.5l-69 -491h-80l70 500q16 111 80 165.5t181 54.5z" />
    <glyph glyph-name="Ygrave" unicode="&#x1ef2;" horiz-adv-x="649" 
d="M409 283h-1l-40 -283h-84l40 283l-186 417h98l142 -336l236 336h93zM476 750h-66l-103 120h78z" />
    <glyph glyph-name="ygrave" unicode="&#x1ef3;" horiz-adv-x="525" 
d="M247 6l3 6l-150 488h78l119 -390l191 390h77l-259 -520q-42 -84 -87 -122t-102 -38h-55l8 59h52q34 0 64 30t61 97zM392 550h-69l-105 150h84z" />
    <glyph glyph-name="endash" unicode="&#x2013;" horiz-adv-x="620" 
d="M612 301l-9 -67h-520l9 67h520z" />
    <glyph glyph-name="emdash" unicode="&#x2014;" horiz-adv-x="840" 
d="M832 301l-9 -67h-740l9 67h740z" />
    <glyph glyph-name="quoteleft" unicode="&#x2018;" horiz-adv-x="212" 
d="M164 455q-32 0 -42.5 23.5t-3.5 76.5q11 75 40 110t82 35l-6 -45q-25 0 -39 -20t-20 -64q29 0 40.5 -13t9.5 -41q-3 -32 -18 -47t-43 -15z" />
    <glyph glyph-name="quoteright" unicode="&#x2019;" horiz-adv-x="212" 
d="M202 710q31 0 42 -23.5t4 -76.5q-11 -75 -40.5 -110t-82.5 -35l7 45q12 0 21.5 5t17 15t12 26t7.5 38q-28 0 -39.5 13t-9.5 41q3 32 17.5 47t43.5 15z" />
    <glyph glyph-name="quotesinglbase" unicode="&#x201a;" horiz-adv-x="212" 
d="M117 106q31 0 42 -23.5t4 -76.5q-11 -75 -40 -110t-83 -35l7 45q25 0 38.5 20t20.5 64q-29 0 -40.5 13t-9.5 41q3 32 17.5 47t43.5 15z" />
    <glyph glyph-name="quotedblleft" unicode="&#x201c;" horiz-adv-x="379" 
d="M164 455q-32 0 -42.5 23.5t-3.5 76.5q11 75 40 110t82 35l-6 -45q-25 0 -39 -20t-20 -64q29 0 40.5 -13t9.5 -41q-3 -32 -18 -47t-43 -15zM331 455q-32 0 -42.5 23.5t-3.5 76.5q11 75 40 110t82 35l-6 -45q-25 0 -39 -20t-20 -64q29 0 40.5 -13t9.5 -41q-3 -32 -18 -47
t-43 -15z" />
    <glyph glyph-name="quotedblright" unicode="&#x201d;" horiz-adv-x="382" 
d="M202 710q31 0 42 -23.5t4 -76.5q-11 -75 -40.5 -110t-82.5 -35l7 45q12 0 21.5 5t17 15t12 26t7.5 38q-28 0 -39.5 13t-9.5 41q3 32 17.5 47t43.5 15zM372 710q31 0 42 -23.5t4 -76.5q-11 -75 -40.5 -110t-82.5 -35l7 45q16 0 27.5 9t19 27t11.5 48q-28 0 -39.5 13
t-9.5 41q3 32 17.5 47t43.5 15z" />
    <glyph glyph-name="quotedblbase" unicode="&#x201e;" horiz-adv-x="379" 
d="M117 106q31 0 42 -23.5t4 -76.5q-11 -75 -40 -110t-83 -35l7 45q25 0 38.5 20t20.5 64q-29 0 -40.5 13t-9.5 41q3 32 17.5 47t43.5 15zM284 106q31 0 42 -23.5t4 -76.5q-11 -75 -40 -110t-83 -35l7 45q16 0 27.5 9t19 27t12.5 48q-29 0 -40.5 13t-9.5 41q3 32 17.5 47
t43.5 15z" />
    <glyph glyph-name="ellipsis" unicode="&#x2026;" horiz-adv-x="584" 
d="M122 111q20 0 31.5 -6t15.5 -18.5t1 -33.5q-4 -30 -19.5 -43.5t-45 -13.5t-41 13.5t-7.5 43.5q5 31 20 44.5t45 13.5zM308 111q29 0 40.5 -13.5t6.5 -44.5q-4 -30 -19 -43.5t-45 -13.5t-41.5 13.5t-7.5 43.5q5 31 20.5 44.5t45.5 13.5zM492.5 111q29.5 0 41.5 -13.5
t7 -44.5q-4 -30 -19.5 -43.5t-45 -13.5t-41 13.5t-7.5 43.5q5 31 20 44.5t44.5 13.5z" />
    <glyph glyph-name="perthousand" unicode="&#x2030;" horiz-adv-x="1246" 
d="M704 390q85 0 117 -46t17.5 -148t-59.5 -148.5t-129.5 -46.5t-116.5 46.5t-17 148.5q9 68 32 110.5t61 63t95 20.5zM657 56q53 0 81 32.5t39 107.5q10 74 -9 107t-72 33t-81 -33t-38 -107q-11 -75 8 -107.5t72 -32.5zM1089 390q85 0 117 -46t17.5 -148t-59.5 -148.5
t-129.5 -46.5t-116.5 46.5t-17 148.5q9 68 32 110.5t61 63t95 20.5zM1042 56q53 0 81 32.5t39 107.5q10 74 -8.5 107t-71.5 33q-54 0 -82 -33t-38 -107q-11 -75 8 -107.5t72 -32.5zM311 710q85 0 117 -46t17.5 -148t-59.5 -148.5t-130 -46.5q-84 0 -116 46.5t-17.5 148.5
t59.5 148t129 46zM264 376q54 0 81.5 32.5t38.5 107.5q10 74 -8.5 107t-71.5 33q-54 0 -81.5 -32.5t-37.5 -107.5q-11 -75 7.5 -107.5t71.5 -32.5zM243 -30h-74l547 760h74z" />
    <glyph glyph-name="guilsinglleft" unicode="&#x2039;" horiz-adv-x="300" 
d="M235 450h78l-144 -190l89 -200h-78l-93 200z" />
    <glyph glyph-name="guilsinglright" unicode="&#x203a;" horiz-adv-x="300" 
d="M113 450h78l96 -190l-151 -200h-78l147 200z" />
    <glyph glyph-name="lira" unicode="&#x20a4;" horiz-adv-x="667" 
d="M625 71l1 1v-1l-10 -70h-556l12 86q45 16 72.5 38t41 50.5t19.5 72.5h-111l7 50h111l11 76h-111l7 50h111l10 77q17 115 74 167t166 52q108 0 150 -52t25 -167h-76q12 82 -12.5 119.5t-91.5 37.5q-46 0 -77.5 -16.5t-50.5 -51t-27 -89.5l-10 -77h276l-7 -50h-276l-11 -76
h276l-7 -50h-276q-10 -70 -40.5 -111t-99.5 -66h480z" />
    <glyph glyph-name="Euro" unicode="&#x20ac;" horiz-adv-x="889" 
d="M775 240h88q-48 -137 -135.5 -198.5t-235.5 -61.5q-162 0 -236.5 68t-70.5 215h-98l7 50h94q1 12 4 37q4 29 7 43h-94l7 50h98q26 97 76.5 158t126.5 90t183 29q158 0 228.5 -61.5t69.5 -198.5h-88q-2 98 -53 141t-167 43q-77 0 -132 -21t-92 -65t-58 -115h319l-7 -50
h-325q-3 -14 -7 -44q-3 -24 -4 -36h285l-7 -50h-281q0 -54 13.5 -93.5t42 -64.5t70.5 -37t100 -12q111 0 173.5 42.5t98.5 141.5z" />
    <glyph glyph-name="trademark" unicode="&#x2122;" horiz-adv-x="1234" 
d="M592 700l-10 -71h-184l-60 -429h-76l60 429h-184l10 71h444zM619 200l70 500h106l111 -406l225 406h101l-70 -500h-76l55 394l-221 -394h-58l-111 394l-55 -394h-77z" />
    <glyph glyph-name="minus" unicode="&#x2212;" horiz-adv-x="430" 
d="M413 234h-330l9 67h330z" />
    <glyph glyph-name="approxequal" unicode="&#x2248;" horiz-adv-x="700" 
d="M71 150l9 67q48 39 95.5 50t88.5 -0.5t82.5 -31.5t81.5 -40t80 -31t84.5 1t87.5 51l-9 -66q-47 -39 -95 -51t-89.5 -1t-82.5 30.5t-81.5 40t-80 31.5t-84 0t-87.5 -50zM98 339l9 66q47 39 95 50t89 0t82 -31t81.5 -40t80 -31t84.5 1t88 51l-9 -66q-48 -40 -96 -51.5
t-89 -1t-82.5 30.5t-81.5 40t-79.5 31.5t-84 0.5t-87.5 -50z" />
    <glyph glyph-name="notequal" unicode="&#x2260;" horiz-adv-x="650" 
d="M204 0l70 140h-204l9 67h228l58 116h-270l10 67h294l54 110h51l-54 -110h205l-10 -67h-229l-58 -116h271l-9 -67h-295l-70 -140h-51z" />
    <glyph glyph-name="lessequal" unicode="&#x2264;" horiz-adv-x="500" 
d="M50 0l10 71h400l-10 -71h-400zM120 496l428 204l-11 -82l-353 -168l306 -168l-12 -82l-371 204z" />
    <glyph glyph-name="greaterequal" unicode="&#x2265;" horiz-adv-x="500" 
d="M50 0l10 71h400l-10 -71h-400zM148 700l372 -204l-13 -92l-429 -204l12 82l352 168l-305 168z" />
    <glyph glyph-name="uniE132" unicode="&#xe132;" horiz-adv-x="470" 
d="M163 0h-81l70 500h81zM204 -113q88 0 99 79l75 534h80l-76 -543q-9 -64 -50 -100.5t-110 -36.5h-79l9 67h52zM147 550l132 150h84l-147 -150h-69zM372 550l132 150h84l-147 -150h-69z" />
    <glyph glyph-name="uniE133" unicode="&#xe133;" horiz-adv-x="851" 
d="M202 700h88l-98 -700h-88zM350 210l3 23h84l-3 -23q-12 -82 13 -118t93 -36q69 0 104 36t47 118l68 490h88l-68 -490q-12 -79 -41.5 -129t-80.5 -73.5t-127 -23.5q-112 0 -154.5 53.5t-25.5 172.5zM205 750l121 120h81l-133 -120h-69zM761 750l121 120h81l-133 -120h-69z
" />
    <glyph glyph-name="a.alt1" horiz-adv-x="594" 
d="M263 -10q-113 0 -155 61.5t-23 198.5t78.5 198.5t172.5 61.5q122 0 161 -76l22 66h65l-70 -500h-65l-4 66q-60 -76 -182 -76zM291 57q80 0 122.5 46t56.5 147t-15.5 147t-109.5 46t-123 -46t-57 -147t16 -147t110 -46z" />
    <glyph glyph-name="aacute.alt1" horiz-adv-x="594" 
d="M263 -10q-113 0 -155 61.5t-23 198.5t78.5 198.5t172.5 61.5q122 0 161 -76l22 66h65l-70 -500h-65l-4 66q-60 -76 -182 -76zM291 57q80 0 122.5 46t56.5 147t-15.5 147t-109.5 46t-123 -46t-57 -147t16 -147t110 -46zM455 700h84l-147 -150h-69z" />
    <glyph glyph-name="aacutering.alt1" horiz-adv-x="594" 
d="M263 -10q-113 0 -155 61.5t-23 198.5t78.5 198.5t172.5 61.5q122 0 161 -76l22 66h65l-70 -500h-65l-4 66q-60 -76 -182 -76zM291 57q80 0 122.5 46t56.5 147t-15.5 147t-109.5 46t-123 -46t-57 -147t16 -147t110 -46zM485 780h64l-87 -78q47 -21 38 -83
q-13 -95 -125 -95q-55 0 -80 24t-18 71q13 94 125 94h15zM383 566q35 0 51 12t20 41q4 28 -9 40t-48 12q-24 0 -39 -5t-22.5 -16.5t-10.5 -30.5t2 -30.5t18 -17t38 -5.5z" />
    <glyph glyph-name="abreve.alt1" horiz-adv-x="594" 
d="M263 -10q-113 0 -155 61.5t-23 198.5t78.5 198.5t172.5 61.5q122 0 161 -76l22 66h65l-70 -500h-65l-4 66q-60 -76 -182 -76zM291 57q80 0 122.5 46t56.5 147t-15.5 147t-109.5 46t-123 -46t-57 -147t16 -147t110 -46zM500 700h58q-11 -79 -53 -114.5t-125 -35.5
t-115.5 35.5t-21.5 114.5h58q-7 -53 13.5 -76.5t72.5 -23.5q35 0 58 10.5t36.5 32.5t18.5 57z" />
    <glyph glyph-name="acircumflex.alt1" horiz-adv-x="594" 
d="M263 -10q-113 0 -155 61.5t-23 198.5t78.5 198.5t172.5 61.5q122 0 161 -76l22 66h65l-70 -500h-65l-4 66q-60 -76 -182 -76zM291 57q80 0 122.5 46t56.5 147t-15.5 147t-109.5 46t-123 -46t-57 -147t16 -147t110 -46zM441 700l71 -150h-56l-61 104l-92 -104h-56l113 150
h81z" />
    <glyph glyph-name="acute.case" horiz-adv-x="285" 
d="M127 550l121 120h81l-132 -120h-70z" />
    <glyph glyph-name="adieresis.alt1" horiz-adv-x="594" 
d="M263 -10q-113 0 -155 61.5t-23 198.5t78.5 198.5t172.5 61.5q122 0 161 -76l22 66h65l-70 -500h-65l-4 66q-60 -76 -182 -76zM291 57q80 0 122.5 46t56.5 147t-15.5 147t-109.5 46t-123 -46t-57 -147t16 -147t110 -46zM311 687q29 0 40.5 -14t7 -44t-20 -44t-44.5 -14
q-30 0 -41.5 14t-7.5 44q5 31 20 44.5t46 13.5zM488 687q29 0 41 -14t7.5 -44t-20 -44t-45.5 -14q-29 0 -40.5 14t-7.5 44q5 31 20 44.5t45 13.5z" />
    <glyph glyph-name="agrave.alt1" horiz-adv-x="594" 
d="M263 -10q-113 0 -155 61.5t-23 198.5t78.5 198.5t172.5 61.5q122 0 161 -76l22 66h65l-70 -500h-65l-4 66q-60 -76 -182 -76zM291 57q80 0 122.5 46t56.5 147t-15.5 147t-109.5 46t-123 -46t-57 -147t16 -147t110 -46zM327 700l90 -150h-69l-105 150h84z" />
    <glyph glyph-name="amacron.alt1" horiz-adv-x="594" 
d="M263 -10q-113 0 -155 61.5t-23 198.5t78.5 198.5t172.5 61.5q122 0 161 -76l22 66h65l-70 -500h-65l-4 66q-60 -76 -182 -76zM291 57q80 0 122.5 46t56.5 147t-15.5 147t-109.5 46t-123 -46t-57 -147t16 -147t110 -46zM217 603l7 54h340l-7 -54h-340z" />
    <glyph glyph-name="aogonek.alt1" horiz-adv-x="603" 
d="M418 -250q-68 0 -83 57q-15 60 34 127q31 44 80 72l-4 60q-60 -76 -182 -76q-113 0 -155 61.5t-23 198.5t78.5 198.5t172.5 61.5q122 0 161 -76l22 66h65l-70 -500h-27q-70 -45 -91 -104q-18 -51 19 -66q10 -4 25 -4q14 0 29.5 4.5t23.5 9.5l8 4l-10 -74q-33 -20 -73 -20
zM290 58q80 0 122.5 46t57 147t-15.5 147t-110 46t-122.5 -46t-57 -147t15.5 -147t110 -46z" />
    <glyph glyph-name="aring.alt1" horiz-adv-x="594" 
d="M263 -10q-113 0 -155 61.5t-23 198.5t78.5 198.5t172.5 61.5q122 0 161 -76l22 66h65l-70 -500h-65l-4 66q-60 -76 -182 -76zM291 57q80 0 122.5 46t56.5 147t-15.5 147t-109.5 46t-123 -46t-57 -147t16 -147t110 -46zM407 739q58 0 81 -23.5t16 -75.5t-37 -75.5
t-89 -23.5q-58 0 -81 23.5t-16 75.5t37 75.5t89 23.5zM385 583q35 0 51.5 13t20.5 44t-8.5 44t-47.5 13q-36 0 -52.5 -13t-20.5 -44q-3 -21 1.5 -33t18 -18t37.5 -6z" />
    <glyph glyph-name="atilde.alt1" horiz-adv-x="594" 
d="M263 -10q-113 0 -155 61.5t-23 198.5t78.5 198.5t172.5 61.5q122 0 161 -76l22 66h65l-70 -500h-65l-4 66q-60 -76 -182 -76zM291 57q80 0 122.5 46t56.5 147t-15.5 147t-109.5 46t-123 -46t-57 -147t16 -147t110 -46zM226 575q3 26 13 48t23.5 37.5t30.5 24t34 8.5
q27 0 48 -14.5t32 -32t26 -32t30 -14.5q17 0 30 17.5t17 47.5h43q-7 -52 -36 -85.5t-65 -33.5q-27 0 -48 14.5t-32 32t-26 32t-30 14.5q-11 0 -20.5 -7.5t-16.5 -22t-10 -34.5h-43z" />
    <glyph glyph-name="breve.case" horiz-adv-x="415" 
d="M397 670h62q-4 -32 -16.5 -54.5t-34 -37t-52 -21.5t-72.5 -7q-55 0 -87.5 12.5t-45.5 39t-7 68.5h61q-5 -39 15 -56.5t70.5 -17.5t76 17.5t30.5 56.5z" />
    <glyph glyph-name="caron.case" horiz-adv-x="378" 
d="M422 670l-116 -120h-80l-82 120h61l67 -79l88 79h62z" />
    <glyph glyph-name="circumflex.case" horiz-adv-x="378" 
d="M323 670l82 -120h-62l-66 79l-89 -79h-61l116 120h80z" />
    <glyph glyph-name="commaaccent" horiz-adv-x="190" 
d="M86 -46h1q24 0 33 -17.5t3 -55.5q-7 -51 -29.5 -74t-63.5 -23l5 36q36 0 43 53q-17 0 -26 4t-12.5 12.5t-1.5 22.5q6 42 48 42z" />
    <glyph glyph-name="dieresis.case" horiz-adv-x="398" 
d="M205.5 709q29.5 0 41.5 -12.5t8 -39.5q-2 -18 -10 -29.5t-21 -16.5t-33 -5q-29 0 -40.5 12t-8 39t18.5 39.5t44.5 12.5zM391 709q20 0 31.5 -5.5t16 -17t1.5 -29.5q-3 -27 -18.5 -39t-45.5 -12q-29 0 -40.5 12t-8.5 39q3 18 10.5 29.5t20.5 17t33 5.5z" />
    <glyph glyph-name="dotaccent.case" horiz-adv-x="213" 
d="M198.5 659q29.5 0 41.5 -12.5t8 -39.5q-2 -18 -10 -29.5t-21 -16.5t-33 -5q-29 0 -40.5 12t-8 39t18.5 39.5t44.5 12.5z" />
    <glyph glyph-name="grave.case" horiz-adv-x="285" 
d="M221 670l91 -120h-66l-102 120h77z" />
    <glyph glyph-name="hungarumlaut.case" horiz-adv-x="436" 
d="M127 550l117 120h78l-129 -120h-66zM285 550l118 120h77l-129 -120h-66z" />
    <glyph glyph-name="tilde.case" horiz-adv-x="415" 
d="M132 580q7 51 34 77.5t65 26.5q26 0 47.5 -10.5t33.5 -23.5t28.5 -23.5t33.5 -10.5q11 0 20.5 5.5t16.5 18t9 30.5h39q-7 -50 -34.5 -77t-64.5 -27q-27 0 -48.5 10.5t-33.5 23.5t-28 23.5t-33.5 10.5t-30 -13.5t-15.5 -40.5h-39z" />
    </font>
</defs>
</svg>
