<?xml version="1.0" standalone="no"?>
<!DOCTYPE svg PUBLIC "-//W3C//DTD SVG 1.1//EN" "http://www.w3.org/Graphics/SVG/1.1/DTD/svg11.dtd" >
<svg xmlns="http://www.w3.org/2000/svg" xmlns:xlink="http://www.w3.org/1999/xlink" version="1.1">
<metadata>
Created by FontForge 20170731 at Thu Jun 29 23:47:49 2017
 By ,,,
Copyright (c) 2017 by Alexander Slobzheninov. All rights reserved.
</metadata>
<defs>
<font id="FivoSans-Black" horiz-adv-x="626" >
  <font-face 
    font-family="Fivo Sans Black"
    font-weight="900"
    font-stretch="normal"
    units-per-em="1000"
    panose-1="0 0 0 0 0 0 0 0 0 0"
    ascent="800"
    descent="-200"
    x-height="500"
    cap-height="700"
    bbox="-80 -254 1317 960"
    underline-thickness="50"
    underline-position="875"
    unicode-range="U+000D-E133"
  />
<missing-glyph horiz-adv-x="200" 
 />
    <glyph glyph-name=".notdef" horiz-adv-x="200" 
 />
    <glyph glyph-name=".null" horiz-adv-x="0" 
 />
    <glyph glyph-name="nonmarkingreturn" horiz-adv-x="333" 
 />
    <glyph glyph-name="NULL" horiz-adv-x="745" 
d="M60 700h625v-700h-625v700zM250 541v-382h245v382h-245z" />
    <glyph glyph-name="NULL" horiz-adv-x="745" 
d="M60 700h625v-700h-625v700zM250 541v-382h245v382h-245z" />
    <glyph glyph-name="CR" unicode="&#xd;" horiz-adv-x="250" 
 />
    <glyph glyph-name="space" unicode=" " horiz-adv-x="300" 
 />
    <glyph glyph-name="exclam" unicode="!" horiz-adv-x="318" 
d="M159 189q58 0 83.5 -23.5t25.5 -75.5t-26 -76t-83 -24q-58 0 -83.5 23.5t-25.5 76.5q0 52 25.5 75.5t83.5 23.5zM53 700h212v-190l-45 -249h-122l-45 249v190z" />
    <glyph glyph-name="quotedbl" unicode="&#x22;" horiz-adv-x="474" 
d="M208 700v-140l-22 -248h-134l-22 248v140h178zM444 700v-140l-22 -248h-134l-22 248v140h178z" />
    <glyph glyph-name="numbersign" unicode="#" horiz-adv-x="710" 
d="M344 0l24 166h-77l-24 -166h-145l24 166h-116v127h134l12 83h-116v127h134l28 197h145l-28 -197h77l28 197h144l-28 -197h120v-127h-138l-12 -83h120v-127h-138l-24 -166h-144zM398 376h-77l-12 -83h77z" />
    <glyph glyph-name="dollar" unicode="$" horiz-adv-x="676" 
d="M416 -100h-156v84q-120 11 -175 63t-55 153h202q0 -43 25.5 -62.5t80.5 -19.5q50 0 73 14.5t23 47.5q0 27 -21.5 45.5t-56.5 30t-77 22.5t-84 26t-77 36.5t-56.5 59t-21.5 88.5q0 105 53 160t167 68v84h156v-84q114 -12 167 -64t53 -152h-201q0 43 -23 62.5t-74 19.5
q-44 0 -64.5 -15t-20.5 -47q0 -20 21.5 -34.5t56.5 -24t77 -20t83.5 -27t76.5 -40.5t56.5 -65.5t21.5 -96.5q0 -106 -55 -161t-175 -67v-84z" />
    <glyph glyph-name="percent" unicode="%" horiz-adv-x="922" 
d="M204 710q97 0 140.5 -47.5t43.5 -153.5q0 -105 -43.5 -152.5t-140.5 -47.5q-96 0 -140 47.5t-44 152.5q0 106 44 153.5t140 47.5zM204 414q40 0 40 95t-39 95q-40 0 -40 -95t39 -95zM330 -30h-178l440 760h178zM718 390q96 0 140 -47.5t44 -153.5q0 -105 -44 -152.5
t-140 -47.5q-97 0 -140.5 47.5t-43.5 152.5q0 106 43.5 153.5t140.5 47.5zM718 94q39 0 39 95t-39 95q-40 0 -40 -95t40 -95z" />
    <glyph glyph-name="ampersand" unicode="&#x26;" horiz-adv-x="811" 
d="M811 0h-247l-30 30q-84 -50 -237 -50q-145 0 -209 46.5t-64 153.5q0 124 151 210q-61 77 -61 135q0 102 57.5 148.5t185.5 46.5q116 0 169.5 -39t53.5 -124q0 -60 -40 -102t-113 -82l100 -97q9 34 15 73h156q-14 -116 -49 -191zM429 135l-151 148q-41 -36 -41 -87
q0 -79 96 -79q59 0 96 18zM334 468q40 20 60 40t20 48q0 47 -63 47q-57 0 -57 -49q0 -41 40 -86z" />
    <glyph glyph-name="quotesingle" unicode="'" horiz-adv-x="238" 
d="M208 700v-140l-22 -248h-134l-22 248v140h178z" />
    <glyph glyph-name="parenleft" unicode="(" horiz-adv-x="316" 
d="M161 -200q-2 5 -28 56.5t-46 99.5t-38.5 133t-18.5 171t18.5 167.5t39 126.5t45.5 91.5t28 54.5h155q-2 -4 -26 -53.5t-41.5 -93t-34 -125.5t-16.5 -168q0 -70 10 -137t26.5 -120t31 -89.5t31.5 -72t19 -41.5h-155z" />
    <glyph glyph-name="parenright" unicode=")" horiz-adv-x="316" 
d="M156 -200h-156q3 6 20 41t31.5 72t31 90t26.5 120t10 137q0 86 -16.5 168t-34.5 125.5t-42 93t-26 53.5h156q3 -7 28 -54t45 -92t38.5 -126.5t18.5 -167.5t-18.5 -171t-38 -132.5t-45.5 -99.5t-28 -57z" />
    <glyph glyph-name="asterisk" unicode="*" horiz-adv-x="344" 
d="M128 400v60l8 29l-20 -21l-52 -30l-44 73l52 30l32 9l-33 8l-51 30l44 73l51 -30l21 -21l-8 30v60h88v-60l-9 -30l21 21l52 30l44 -73l-52 -30l-33 -8l32 -9l52 -30l-44 -73l-52 30l-19 20l8 -28v-60h-88z" />
    <glyph glyph-name="plus" unicode="+" horiz-adv-x="560" 
d="M540 324v-138h-182v-186h-156v186h-182v138h182v176h156v-176h182z" />
    <glyph glyph-name="comma" unicode="," horiz-adv-x="258" 
d="M116 189h-1h1zM116 189q36 0 61.5 -12t37.5 -35.5t17 -49t5 -59.5q0 -121 -49 -175t-159 -54v84q46 0 66.5 24t20.5 78q-51 0 -73.5 23.5t-22.5 76.5q0 51 22 75t74 24h-1h1z" />
    <glyph glyph-name="hyphen" unicode="-" horiz-adv-x="370" 
d="M350 196h-330v138h330v-138z" />
    <glyph glyph-name="period" unicode="." horiz-adv-x="258" 
d="M129 189q58 0 83.5 -23.5t25.5 -76.5q0 -52 -26 -75.5t-83 -23.5q-58 0 -83.5 23.5t-25.5 75.5q0 53 25.5 76.5t83.5 23.5z" />
    <glyph glyph-name="slash" unicode="/" horiz-adv-x="419" 
d="M240 700h179l-240 -700h-179z" />
    <glyph glyph-name="zero" unicode="0" horiz-adv-x="739" 
d="M370 720q178 0 258.5 -88t80.5 -282t-80.5 -282t-258.5 -88t-259 88t-81 282q0 195 80.5 282.5t259.5 87.5zM370 118q66 0 96 55t30 177t-30 177t-96 55t-96.5 -55t-30.5 -177t30 -177t97 -55z" />
    <glyph glyph-name="one" unicode="1" horiz-adv-x="391" 
d="M10 562v138h321v-700h-201v562h-120z" />
    <glyph glyph-name="two" unicode="2" horiz-adv-x="598" 
d="M307 138h251v-138h-528v117q50 45 114 99.5t96.5 82.5t66 63t46.5 64.5t13 62.5q0 49 -15 71t-47 22q-33 0 -48 -26.5t-15 -85.5h-201q0 131 62.5 190.5t201.5 59.5q138 0 201 -55t63 -176q0 -83 -48.5 -144.5t-193.5 -189.5q-13 -11 -19 -17z" />
    <glyph glyph-name="three" unicode="3" horiz-adv-x="651" 
d="M316 296h-54v127h54q50 0 73 17.5t23 56.5q0 45 -20.5 65t-65.5 20q-46 0 -66.5 -24.5t-20.5 -77.5h-179q0 126 63 183t203 57q139 0 202 -50.5t63 -161.5q0 -35 -9.5 -62.5t-22.5 -41t-26.5 -22t-22.5 -10.5l-10 -2q5 -1 13 -3.5t29 -13.5t37 -27t29 -46t13 -68
q0 -122 -70.5 -177t-224.5 -55q-155 0 -225.5 59.5t-70.5 190.5h190q0 -59 25.5 -85.5t80.5 -26.5q49 0 71.5 22.5t22.5 71.5q0 44 -25 64t-79 20z" />
    <glyph glyph-name="four" unicode="4" horiz-adv-x="644" 
d="M331 700h223v-406h70v-138h-70v-156h-202v156h-332v158zM192 294h160v198z" />
    <glyph glyph-name="five" unicode="5" horiz-adv-x="630" 
d="M265 562l-17 -97q42 15 100 15q133 0 192.5 -59.5t59.5 -190.5t-73 -190.5t-235 -59.5q-130 0 -192 52t-70 168h178q8 -43 31 -62.5t65 -19.5q50 0 72.5 27t22.5 85q0 59 -23 85.5t-74 26.5q-73 0 -86 -53h-168l71 411h431v-138h-285z" />
    <glyph glyph-name="six" unicode="6" horiz-adv-x="641" 
d="M30 340q0 199 70.5 289.5t225.5 90.5q118 0 181 -47.5t84 -152.5h-190q-17 73 -75 73q-49 0 -72 -39.5t-23 -125.5q1 2 3.5 5.5t13.5 12.5t26 16t43.5 12.5t63.5 5.5q115 0 172.5 -60.5t57.5 -189.5q0 -131 -68 -190.5t-217 -59.5q-153 0 -224.5 86t-71.5 274zM326 342
q-44 0 -64 -26.5t-20 -85.5t20 -85.5t64 -26.5t64 27t20 85t-20 85t-64 27z" />
    <glyph glyph-name="seven" unicode="7" horiz-adv-x="582" 
d="M552 583l-300 -583h-212l300 562h-310v138h522v-117z" />
    <glyph glyph-name="eight" unicode="8" horiz-adv-x="671" 
d="M129 368q-68 41 -68 140q0 111 65.5 161.5t210.5 50.5q144 0 209.5 -50.5t65.5 -161.5q0 -98 -70 -140q99 -45 99 -167q0 -116 -72.5 -168.5t-232.5 -52.5q-161 0 -233.5 52.5t-72.5 168.5q0 122 99 167zM335 118q54 0 79 21.5t25 67.5q0 47 -25 68t-79 21
q-55 0 -79.5 -20.5t-24.5 -68.5q0 -46 25 -67.5t79 -21.5zM337 582q-45 0 -65.5 -19t-20.5 -60q0 -43 20.5 -61.5t65.5 -18.5t65 18.5t20 61.5q0 41 -20.5 60t-64.5 19z" />
    <glyph glyph-name="nine" unicode="9" horiz-adv-x="641" 
d="M611 360q0 -199 -70.5 -289.5t-225.5 -90.5q-118 0 -181 47.5t-84 152.5h190q17 -73 75 -73q49 0 72 39.5t23 125.5q-1 -2 -3.5 -5.5t-13.5 -12.5t-26 -16t-43.5 -12.5t-63.5 -5.5q-115 0 -172.5 60.5t-57.5 189.5q0 131 68 190.5t217 59.5q153 0 224.5 -86t71.5 -274z
M315 358q44 0 64 26.5t20 85.5t-20 85.5t-64 26.5t-64 -27t-20 -85t20 -85t64 -27z" />
    <glyph glyph-name="colon" unicode=":" horiz-adv-x="318" 
d="M159 189q58 0 83.5 -23.5t25.5 -75.5t-26 -76t-83 -24q-58 0 -83.5 23.5t-25.5 76.5q0 52 25.5 75.5t83.5 23.5zM159 500q58 0 83.5 -23.5t25.5 -76.5q0 -52 -26 -75.5t-83 -23.5q-58 0 -83.5 23.5t-25.5 75.5q0 53 25.5 76.5t83.5 23.5z" />
    <glyph glyph-name="semicolon" unicode=";" horiz-adv-x="258" 
d="M129 500q58 0 83.5 -23.5t25.5 -76.5q0 -52 -26 -75.5t-83 -23.5q-58 0 -83.5 23.5t-25.5 75.5q0 53 25.5 76.5t83.5 23.5zM118 189q70 0 95 -41.5t25 -114.5q0 -121 -49 -175t-159 -54v84q46 0 66.5 24.5t20.5 77.5q-51 0 -74 23.5t-23 76.5q0 51 23 75t75 24z" />
    <glyph glyph-name="less" unicode="&#x3c;" horiz-adv-x="440" 
d="M20 345l400 155v-170l-208 -80l208 -80v-170l-400 155v190z" />
    <glyph glyph-name="equal" unicode="=" horiz-adv-x="651" 
d="M631 233v-138h-611v138h611zM631 435v-138h-611v138h611z" />
    <glyph glyph-name="greater" unicode="&#x3e;" horiz-adv-x="440" 
d="M20 500l400 -155v-190l-400 -155v170l208 80l-208 80v170z" />
    <glyph glyph-name="question" unicode="?" horiz-adv-x="578" 
d="M272 189q58 0 83.5 -23.5t25.5 -75.5t-26 -76t-83 -24q-58 0 -83.5 23.5t-25.5 76.5q0 52 25.5 75.5t83.5 23.5zM190 264q0 59 16 98t39 57t46 31.5t39 32t16 47.5q0 28 -16 40t-52 12t-52 -21.5t-16 -70.5h-190q0 121 63.5 175.5t205.5 54.5t205.5 -45t63.5 -145
q0 -50 -20.5 -83t-50 -49.5t-59.5 -31.5t-50.5 -40t-20.5 -62h-167z" />
    <glyph glyph-name="at" unicode="@" horiz-adv-x="937" 
d="M678 460v-270q0 -64 37 -64q47 0 47 124q0 155 -68.5 225.5t-220.5 70.5q-156 0 -227 -70.5t-71 -225.5q0 -150 58 -218t186 -68q48 0 87 11.5t55 22t19 16.5v-126q-4 -6 -23 -15t-57 -17t-80 -8q-205 0 -297.5 95t-92.5 307q0 216 105.5 314t337.5 98q228 0 331 -98
t103 -314q0 -119 -48 -174.5t-144 -55.5q-119 0 -163 58q-45 -38 -136 -38q-100 0 -145 50t-45 160q0 116 45.5 168t145.5 52q70 0 124 -49l26 39h111zM451 146q37 0 54 24.5t17 79.5t-17 79.5t-54 24.5q-36 0 -52.5 -25t-16.5 -79q0 -55 16.5 -79.5t52.5 -24.5z" />
    <glyph glyph-name="A" unicode="A" horiz-adv-x="719" 
d="M483 0l-30 125h-197l-32 -125h-224l214 700h314l191 -700h-236zM359 520l-67 -257h128z" />
    <glyph glyph-name="B" unicode="B" horiz-adv-x="696" 
d="M574 370l11 -5.5t24.5 -17t31 -30t24.5 -45.5t11 -61q0 -111 -68.5 -161t-218.5 -50h-329v700h318q140 0 204 -45.5t64 -145.5q0 -30 -7.5 -55.5t-18 -40t-21 -25t-17.5 -14.5zM355 138q44 0 64.5 17.5t20.5 55.5q0 44 -20 64.5t-65 20.5h-71v-158h71zM284 562v-139h60
q34 0 50 18t16 57q0 34 -15.5 49t-50.5 15h-60z" />
    <glyph glyph-name="C" unicode="C" horiz-adv-x="786" 
d="M532 241h224q-27 -137 -109.5 -199t-236.5 -62q-200 0 -290 88t-90 282t90 282t290 88q163 0 245.5 -62t100.5 -199h-224q-9 53 -38 77.5t-84 24.5q-76 0 -110 -50.5t-34 -160.5t34 -160.5t110 -50.5q56 0 85.5 24.5t36.5 77.5z" />
    <glyph glyph-name="D" unicode="D" horiz-adv-x="758" 
d="M728 350q0 -184 -87.5 -267t-280.5 -83h-300v700h300q193 0 280.5 -83t87.5 -267zM349 552h-65v-404h65q75 0 109.5 48t34.5 154t-34 154t-110 48z" />
    <glyph glyph-name="E" unicode="E" horiz-adv-x="610" 
d="M590 552h-306v-118h266v-149h-266v-137h306v-148h-530v700h530v-148z" />
    <glyph glyph-name="F" unicode="F" horiz-adv-x="600" 
d="M590 552h-306v-118h266v-149h-266v-285h-224v700h530v-148z" />
    <glyph glyph-name="G" unicode="G" horiz-adv-x="796" 
d="M408 275v138h358v-63q0 -194 -85 -282t-273 -88q-198 0 -288 88t-90 282t90 282t288 88q158 0 240.5 -57t107.5 -183h-212q-11 42 -43 61.5t-93 19.5q-75 0 -108.5 -50t-33.5 -161q0 -110 34 -160.5t108 -50.5q76 0 111 32.5t35 103.5h-146z" />
    <glyph glyph-name="H" unicode="H" horiz-adv-x="756" 
d="M472 700h224v-700h-224v296h-188v-296h-224v700h224v-245h188v245z" />
    <glyph glyph-name="I" unicode="I" horiz-adv-x="344" 
d="M60 700h224v-700h-224v700z" />
    <glyph glyph-name="J" unicode="J" horiz-adv-x="587" 
d="M10 210v42h213v-42q0 -71 45 -71t45 71v490h224v-490q0 -117 -64.5 -173.5t-204.5 -56.5q-134 0 -196 56.5t-62 173.5z" />
    <glyph glyph-name="K" unicode="K" horiz-adv-x="763" 
d="M284 700v-241l191 241h268l-269 -340l289 -360h-268l-211 263v-263h-224v700h224z" />
    <glyph glyph-name="L" unicode="L" horiz-adv-x="580" 
d="M550 159v-159h-490v700h224v-541h266z" />
    <glyph glyph-name="M" unicode="M" horiz-adv-x="938" 
d="M60 0v700h302l113 -412l113 412h290v-700h-212v441l-130 -441h-134l-130 441v-441h-212z" />
    <glyph glyph-name="N" unicode="N" horiz-adv-x="778" 
d="M506 700h212v-700h-256l-190 434v-434h-212v700h256l190 -434v434z" />
    <glyph glyph-name="O" unicode="O" horiz-adv-x="816" 
d="M408 720q199 0 288.5 -88t89.5 -282t-89.5 -282t-288.5 -88q-198 0 -288 88t-90 282t90 282t288 88zM408 561q-74 0 -108 -50.5t-34 -160.5t34 -160.5t108 -50.5q75 0 109 50.5t34 160.5t-34 160.5t-109 50.5z" />
    <glyph glyph-name="P" unicode="P" horiz-adv-x="686" 
d="M676 469q0 -98 -71.5 -165t-216.5 -67h-104v-237h-224v700h328q145 0 216.5 -66.5t71.5 -164.5zM452 469q0 35 -20.5 59t-55.5 24h-92v-166h92q35 0 55.5 24t20.5 59z" />
    <glyph glyph-name="Q" unicode="Q" horiz-adv-x="816" 
d="M786 -70h-200l-50 61q-60 -11 -128 -11q-198 0 -288 88t-90 282t90 282t288 88q199 0 288.5 -88t89.5 -282q0 -208 -103 -294zM408 139q143 0 143 211q0 110 -34 160.5t-109 50.5q-74 0 -108 -50.5t-34 -160.5t34 -160.5t108 -50.5z" />
    <glyph glyph-name="R" unicode="R" horiz-adv-x="739" 
d="M337 248h-53v-248h-224v700h336q145 0 216.5 -66.5t71.5 -164.5q0 -148 -135 -198l160 -271h-235zM285 386h101q35 0 55 24t20 59t-20 59t-55 24h-101v-166z" />
    <glyph glyph-name="S" unicode="S" horiz-adv-x="676" 
d="M253 520q0 -20 21.5 -34.5t56.5 -24t77 -20t83.5 -27t76.5 -40.5t56.5 -65.5t21.5 -96.5q0 -122 -73 -177t-235 -55q-161 0 -234.5 52.5t-73.5 167.5h202q0 -43 25.5 -62.5t80.5 -19.5q50 0 73 14.5t23 47.5q0 27 -21.5 45.5t-56.5 30t-77 22.5t-84 26t-77 36.5t-56.5 59
t-21.5 88.5q0 121 71 176.5t227 55.5q157 0 227.5 -52t70.5 -168h-201q0 43 -23 62.5t-74 19.5q-44 0 -64.5 -15t-20.5 -47z" />
    <glyph glyph-name="T" unicode="T" horiz-adv-x="656" 
d="M636 700v-159h-196v-541h-224v541h-196v159h616z" />
    <glyph glyph-name="U" unicode="U" horiz-adv-x="736" 
d="M50 261v439h224v-439q0 -64 22.5 -93t71.5 -29t71.5 29t22.5 93v439h224v-439q0 -148 -75.5 -214.5t-242.5 -66.5t-242.5 66.5t-75.5 214.5z" />
    <glyph glyph-name="V" unicode="V" horiz-adv-x="707" 
d="M223 700l130 -546l130 546h224l-191 -700h-325l-191 700h223z" />
    <glyph glyph-name="W" unicode="W" horiz-adv-x="1038" 
d="M375 700h288l60 -496l81 496h224l-142 -700h-302l-73 491l-57 -491h-302l-142 700h224l81 -496z" />
    <glyph glyph-name="X" unicode="X" horiz-adv-x="724" 
d="M256 700l108 -200l115 200h235l-208 -340l218 -360h-246l-119 220l-125 -220h-234l204 360l-194 340h246z" />
    <glyph glyph-name="Y" unicode="Y" horiz-adv-x="704" 
d="M464 257v-257h-213v257l-251 443h246l112 -229l111 229h235z" />
    <glyph glyph-name="Z" unicode="Z" horiz-adv-x="650" 
d="M286 148h334v-148h-590v128l324 424h-314v148h570v-128z" />
    <glyph glyph-name="bracketleft" unicode="[" horiz-adv-x="337" 
d="M60 700h277v-138h-110v-624h110v-138h-277v900z" />
    <glyph glyph-name="backslash" unicode="\" horiz-adv-x="419" 
d="M0 700h179l240 -700h-179z" />
    <glyph glyph-name="bracketright" unicode="]" horiz-adv-x="337" 
d="M0 700h277v-900h-277v138h110v624h-110v138z" />
    <glyph glyph-name="asciicircum" unicode="^" horiz-adv-x="515" 
d="M357 670l138 -350h-156l-82 209l-82 -209h-155l138 350h199z" />
    <glyph glyph-name="underscore" unicode="_" horiz-adv-x="520" 
d="M520 0v-138h-520v138h520z" />
    <glyph glyph-name="grave" unicode="`" horiz-adv-x="325" 
d="M220 700l85 -150h-155l-130 150h200z" />
    <glyph glyph-name="a" unicode="a" horiz-adv-x="576" 
d="M357 34q-48 -44 -146 -44q-101 0 -146 38t-45 123q0 89 60.5 129.5t194.5 40.5h59v19q0 34 -12 49t-40 15q-52 0 -52 -54h-190q0 84 59 122t189 38t189 -45t59 -146v-319h-156zM334 216h-40q-35 0 -54 -10.5t-19 -43.5q0 -25 11 -34.5t36 -9.5q66 0 66 80v18z" />
    <glyph glyph-name="b" unicode="b" 
d="M384 -10q-101 0 -154 47l-25 -37h-155v700h201v-221q50 31 133 31q116 0 169 -62t53 -198t-52.5 -198t-169.5 -62zM329 128q40 0 58 29t18 93t-18 93t-58 29q-41 0 -59 -29t-18 -93t18 -93t59 -29z" />
    <glyph glyph-name="c" unicode="c" horiz-adv-x="596" 
d="M374 192h201q-11 -106 -74.5 -154t-193.5 -48q-151 0 -219.5 61.5t-68.5 198.5t68.5 198.5t219.5 61.5q130 0 193.5 -48t74.5 -154h-202q-5 34 -21 49t-47 15q-44 0 -64 -29t-20 -93t20 -93t64 -29q31 0 47.5 15t21.5 49z" />
    <glyph glyph-name="d" unicode="d" 
d="M240 -10q-115 0 -167.5 62t-52.5 198q0 137 52.5 198.5t168.5 61.5q83 0 133 -31v221h202v-700h-156l-25 37q-53 -47 -155 -47zM298 128q40 0 58 29t18 93t-18 93t-58 29q-41 0 -59 -29t-18 -93t18 -93t59 -29z" />
    <glyph glyph-name="e" unicode="e" horiz-adv-x="596" 
d="M576 199h-357q0 -93 79 -93q58 0 68 55h190q-16 -90 -77 -130.5t-181 -40.5q-146 0 -212 61.5t-66 198.5t66 198.5t212 61.5t212 -61.5t66 -197.5v-52zM295 394q-35 0 -55 -24t-20 -65h153q0 46 -19 67.5t-59 21.5z" />
    <glyph glyph-name="f" unicode="f" horiz-adv-x="436" 
d="M308 562q-20 0 -20 -25v-37h138v-116h-138v-384h-201v384h-77v116h77v37q0 76 44 119.5t120 43.5h175v-138h-118z" />
    <glyph glyph-name="g" unicode="g" 
d="M241 -10q-116 0 -168.5 62t-52.5 199q0 136 52.5 197.5t168.5 61.5q102 0 154 -46l25 36h156v-450q0 -136 -66 -198t-212 -62q-123 0 -184 40.5t-74 130.5h190q9 -55 56 -55q46 0 67 26t21 84v5q-50 -31 -133 -31zM298 129q40 0 58 29t18 93t-18 93t-58 29t-58.5 -29
t-18.5 -93t18.5 -93t58.5 -29z" />
    <glyph glyph-name="h" unicode="h" horiz-adv-x="606" 
d="M50 0v700h201v-214q43 24 112 24q107 0 155 -57t48 -183v-270h-202v270q0 53 -13.5 77.5t-44.5 24.5q-55 0 -55 -102v-270h-201z" />
    <glyph glyph-name="i" unicode="i" horiz-adv-x="319" 
d="M260 0h-201v500h201v-500zM160 733q57 0 83 -22.5t26 -71.5q0 -50 -26 -72t-84 -22q-57 0 -83 22t-26 72q0 49 26 71.5t84 22.5z" />
    <glyph glyph-name="j" unicode="j" horiz-adv-x="320" 
d="M18 -42q18 0 30 12.5t12 33.5v496h201v-517q0 -76 -43.5 -119.5t-120.5 -43.5h-177v138h98zM161 733q57 0 83 -22.5t26 -71.5q0 -50 -26 -72t-84 -22q-57 0 -83 22t-26 72q0 49 26 71.5t84 22.5z" />
    <glyph glyph-name="k" unicode="k" horiz-adv-x="639" 
d="M251 700v-370l134 170h234l-189 -240l209 -260h-234l-154 192v-192h-201v700h201z" />
    <glyph glyph-name="l" unicode="l" horiz-adv-x="301" 
d="M50 0v700h201v-700h-201z" />
    <glyph glyph-name="m" unicode="m" horiz-adv-x="885" 
d="M297 372q-25 0 -35.5 -24t-10.5 -78v-270h-201v500h156l31 -47q41 57 129 57q97 0 139 -57q45 57 146 57t147.5 -57t46.5 -183v-270h-202v270q0 103 -49 103q-27 0 -37 -24t-10 -79v-270h-201v270q0 102 -49 102z" />
    <glyph glyph-name="n" unicode="n" horiz-adv-x="607" 
d="M226 469h1q47 41 137 41q107 0 155 -57t48 -183v-270h-202v270q0 54 -14 78t-44 24q-56 0 -56 -102v-270h-201v500h156z" />
    <glyph glyph-name="o" unicode="o" horiz-adv-x="616" 
d="M308 510q151 0 219.5 -62t68.5 -198t-68.5 -198t-219.5 -62t-219.5 61.5t-68.5 198.5t68.5 198.5t219.5 61.5zM221 250q0 -64 20.5 -93t66.5 -29q45 0 65.5 29t20.5 93t-20.5 93t-65.5 29q-46 0 -66.5 -29t-20.5 -93z" />
    <glyph glyph-name="p" unicode="p" 
d="M384 510q77 0 125.5 -27.5t72 -84.5t23.5 -148q0 -136 -53 -198t-169 -62q-83 0 -133 31v-221h-201v700h155l25 -37q53 47 155 47zM326 372q-41 0 -59 -29t-18 -93t18 -93t59 -29q40 0 58 29t18 93t-18 93t-58 29z" />
    <glyph glyph-name="q" unicode="q" 
d="M240 510q101 0 154 -47l25 37h156v-700h-202v221q-50 -31 -133 -31q-116 0 -168.5 61.5t-52.5 198.5q0 136 52.5 198t168.5 62zM295 372q-41 0 -59 -29t-18 -93t18 -93t59 -29q40 0 58 29t18 93t-18 93t-58 29z" />
    <glyph glyph-name="r" unicode="r" horiz-adv-x="440" 
d="M345 351q-56 0 -75 -19.5t-19 -81.5v-250h-201v500h156l26 -40q48 50 113 50h85v-159h-85z" />
    <glyph glyph-name="s" unicode="s" horiz-adv-x="526" 
d="M210 369q0 -19 30.5 -29.5t74 -18t87 -20.5t74 -48t30.5 -91q0 -90 -60.5 -131t-193.5 -41q-121 0 -175.5 38t-54.5 122h190q0 -54 46 -54q25 0 36 10.5t11 34.5q0 22 -29.5 33.5t-71 18t-83.5 19t-71.5 46.5t-29.5 90q0 85 56.5 123.5t181.5 38.5q119 0 173 -35.5
t54 -114.5h-179q0 23 -11.5 33.5t-36.5 10.5q-48 0 -48 -35z" />
    <glyph glyph-name="t" unicode="t" horiz-adv-x="469" 
d="M302 184q0 -21 12 -33.5t30 -12.5h95v-138h-175q-76 0 -120 43.5t-44 119.5v221h-80v116h80v131h202v-131h137v-116h-137v-200z" />
    <glyph glyph-name="u" unicode="u" horiz-adv-x="606" 
d="M379 31q-47 -41 -137 -41q-106 0 -154 57t-48 183v270h201v-270q0 -54 14 -78t44 -24t42.5 25t12.5 81v266h202v-500h-156z" />
    <glyph glyph-name="v" unicode="v" horiz-adv-x="565" 
d="M287 109l65 391h213l-121 -500h-323l-121 500h212z" />
    <glyph glyph-name="w" unicode="w" horiz-adv-x="887" 
d="M743 0h-247l-52 401l-53 -401h-246l-135 500h201l70 -347l45 347h247l35 -336l68 336h201z" />
    <glyph glyph-name="x" unicode="x" horiz-adv-x="559" 
d="M222 500l57 -132l58 132h212l-147 -240l157 -260h-212l-68 153l-67 -153h-212l157 260l-147 240h212z" />
    <glyph glyph-name="y" unicode="y" horiz-adv-x="556" 
d="M209 -1l5 14l-214 487h190l96 -256l80 256h190l-171 -493q-34 -98 -78 -142.5t-108 -44.5h-126v116h70q46 0 66 63z" />
    <glyph glyph-name="z" unicode="z" horiz-adv-x="511" 
d="M254 127h237v-127h-471v106l227 267h-217v127h451v-106z" />
    <glyph glyph-name="braceleft" unicode="{" horiz-adv-x="408" 
d="M270 144v-160q0 -25 11.5 -35.5t36.5 -10.5h90v-138h-136q-87 0 -128 38.5t-41 122.5v178q0 58 -73 58v116q73 0 73 58v168q0 84 41 122.5t128 38.5h136v-138h-89q-26 0 -37.5 -10.5t-11.5 -35.5v-150q0 -83 -50 -111q50 -28 50 -111z" />
    <glyph glyph-name="bar" unicode="|" horiz-adv-x="287" 
d="M60 700h167v-900h-167v900z" />
    <glyph glyph-name="braceright" unicode="}" horiz-adv-x="407" 
d="M137 -16v160q0 83 51 111q-51 28 -51 111v150q0 25 -10.5 35.5t-36.5 10.5h-90v138h135q89 0 129.5 -38t40.5 -123v-168q0 -58 72 -58v-116q-72 0 -72 -58v-178q0 -85 -40.5 -123t-129.5 -38h-135v138h90q25 0 36 10.5t11 35.5z" />
    <glyph glyph-name="asciitilde" unicode="~" horiz-adv-x="640" 
d="M20 197v126q40 41 86 54t89 3.5t88 -29t89 -40t85.5 -32t84 -2t78.5 45.5v-126q-40 -41 -86 -54t-89 -3t-88 29t-89 39t-85.5 32t-84 2.5t-78.5 -45.5z" />
    <glyph glyph-name="space_" unicode="&#xa0;" horiz-adv-x="300" 
 />
    <glyph glyph-name="exclamdown" unicode="&#xa1;" horiz-adv-x="320" 
d="M270 -200h-213v190l45 249h122l46 -249v-190zM159 311q-58 0 -83.5 23.5t-25.5 76.5q0 52 25.5 75.5t83.5 23.5q57 0 83 -23.5t26 -75.5q0 -53 -25.5 -76.5t-83.5 -23.5z" />
    <glyph glyph-name="cent" unicode="&#xa2;" horiz-adv-x="596" 
d="M230 -101h-1v94q-109 14 -159.5 76t-50.5 180t50.5 180t159.5 76v85h156v-85q90 -13 135.5 -60.5t54.5 -136.5h-202q-5 34 -21 49t-47 15q-44 0 -64 -29t-20 -93t20 -93t64 -29q31 0 47.5 15t21.5 49h202q-9 -89 -54.5 -136.5t-135.5 -60.5v-96h-156z" />
    <glyph glyph-name="sterling" unicode="&#xa3;" horiz-adv-x="670" 
d="M640 148v-148h-610v169q65 29 74 116h-73v138h74v76q0 116 61 167.5t196 51.5q125 0 187 -49t62 -170h-191q0 49 -13.5 71t-43.5 22q-32 0 -44.5 -21t-12.5 -72v-76h208v-138h-209q-6 -100 -95 -137h430z" />
    <glyph glyph-name="currency" unicode="&#xa4;" horiz-adv-x="665" 
d="M634 467l1 -2l-54 -52q40 -61 40 -165q0 -105 -40 -166l54 -52l-101 -95l-70 68q-56 -15 -132 -15t-132 15l-70 -68l-100 95l54 53q-40 61 -40 166t40 166l-54 52l100 96l70 -68q56 15 132 15q78 0 132 -16l70 69zM245 250q0 -64 20.5 -93t66.5 -29q45 0 65.5 29t20.5 93
t-20.5 93t-65.5 29q-46 0 -66.5 -29t-20.5 -93z" />
    <glyph glyph-name="yen" unicode="&#xa5;" horiz-adv-x="724" 
d="M474 257v-34h197v-127h-197v-96h-213v96h-208v127h208v34l-25 44h-183v127h111l-154 272h246l112 -229l111 229h235l-147 -272h104v-127h-173z" />
    <glyph glyph-name="section" unicode="&#xa7;" horiz-adv-x="651" 
d="M270 529q0 -27 28.5 -41t88.5 -28l46 -11.5t44 -14t45.5 -19.5t37.5 -25.5t33 -35.5t19.5 -46.5t8.5 -60.5q0 -103 -77 -148q27 -40 27 -97q0 -117 -63.5 -169.5t-204.5 -52.5q-122 0 -177.5 52.5t-55.5 167.5h168q0 -43 16.5 -62.5t54.5 -19.5q61 0 61 52q0 18 -8.5 31
t-29.5 22t-37.5 14t-49.5 12l-43.5 10.5t-41 12t-41.5 17.5t-34.5 24t-29.5 33t-17.5 44.5t-7.5 57.5q0 108 84 150q-34 44 -34 109q0 111 57.5 162t183.5 51q127 0 183.5 -52t56.5 -168h-167q0 43 -16.5 62.5t-51.5 19.5q-56 0 -56 -53zM431 225q0 18 -12 32t-35 23.5
t-42 15.5t-47 12.5t-37 9.5q-38 -12 -38 -46q0 -18 14 -32t38 -23t46.5 -15t51 -12t38.5 -9q23 16 23 44z" />
    <glyph glyph-name="dieresis" unicode="&#xa8;" horiz-adv-x="517" 
d="M129 750q58 0 83.5 -23.5t25.5 -76.5q0 -52 -26 -75.5t-83 -23.5q-58 0 -83.5 23.5t-25.5 75.5q0 53 25.5 76.5t83.5 23.5zM387 750q58 0 84 -24t26 -76t-26 -75.5t-84 -23.5t-83.5 23.5t-25.5 75.5t26 76t83 24z" />
    <glyph glyph-name="copyright" unicode="&#xa9;" horiz-adv-x="846" 
d="M423 720q206 0 299.5 -88t93.5 -282t-93.5 -282t-299.5 -88t-299.5 88t-93.5 282t93.5 282t299.5 88zM423 96q136 0 197.5 60.5t61.5 193.5q0 134 -61.5 194t-197.5 60t-197.5 -60.5t-61.5 -193.5q0 -134 61.5 -194t197.5 -60zM429 247q25 0 38 12.5t18 40.5h162
q-8 -88 -59 -128t-155 -40q-121 0 -176 51.5t-55 165.5t55 165.5t176 51.5q104 0 155 -40t59 -128h-162q-7 53 -55 53q-35 0 -51.5 -24t-16.5 -78t16 -78t51 -24z" />
    <glyph glyph-name="guillemotleft" unicode="&#xab;" horiz-adv-x="610" 
d="M151 450h190l-120 -190l120 -200h-190l-131 200zM400 450h190l-121 -190l121 -200h-190l-132 200z" />
    <glyph glyph-name="logicalnot" unicode="&#xac;" horiz-adv-x="560" 
d="M540 334v-268h-156v130h-364v138h520z" />
    <glyph glyph-name="registered" unicode="&#xae;" horiz-adv-x="846" 
d="M423 720q206 0 299.5 -88t93.5 -282t-93.5 -282t-299.5 -88t-299.5 88t-93.5 282t93.5 282t299.5 88zM423 96q136 0 197.5 60.5t61.5 193.5t-61.5 193.5t-197.5 60.5t-197.5 -60.5t-61.5 -193.5t61.5 -193.5t197.5 -60.5zM529 300h-1l86 -130h-132l-71 119h-30v-119h-121
v360h182q86 0 125 -28.5t39 -92.5q0 -86 -77 -109zM381 446v-73h60q22 0 31.5 8.5t9.5 27.5q0 37 -41 37h-60z" />
    <glyph glyph-name="macron" unicode="&#xaf;" horiz-adv-x="380" 
d="M20 595v105h340v-105h-340z" />
    <glyph glyph-name="degree" unicode="&#xb0;" horiz-adv-x="420" 
d="M20 520q0 100 45 145t145 45t145 -45t45 -145t-45 -145t-145 -45t-145 45t-45 145zM142 520q0 -44 16.5 -64t51.5 -20t51.5 20t16.5 64t-16.5 64t-51.5 20t-51.5 -20t-16.5 -64z" />
    <glyph glyph-name="plusminus" unicode="&#xb1;" horiz-adv-x="560" 
d="M20 0v138h520v-138h-520zM540 418v-138h-182v-92h-156v92h-182v138h182v82h156v-82h182z" />
    <glyph glyph-name="acute" unicode="&#xb4;" horiz-adv-x="345" 
d="M20 550l85 150h200l-130 -150h-155z" />
    <glyph glyph-name="paragraph" unicode="&#xb6;" horiz-adv-x="746" 
d="M656 562v-762h-167v762h-91v-762h-167v500q-109 0 -158.5 47.5t-49.5 152.5t59.5 152.5t190.5 47.5h470v-138h-87z" />
    <glyph glyph-name="periodcentered" unicode="&#xb7;" horiz-adv-x="258" 
d="M129 354q58 0 83.5 -23.5t25.5 -76.5q0 -52 -26 -75.5t-83 -23.5q-58 0 -83.5 23.5t-25.5 75.5q0 53 25.5 76.5t83.5 23.5z" />
    <glyph glyph-name="cedilla" unicode="&#xb8;" horiz-adv-x="252" 
d="M66 43h100l-21 -93q10 -2 24.5 -7.5t38.5 -28.5t24 -54q0 -51 -57.5 -80.5t-154.5 -29.5v73q68 0 68 37q0 27 -64 27z" />
    <glyph glyph-name="guillemotright" unicode="&#xbb;" horiz-adv-x="609" 
d="M20 450h189l131 -190l-131 -200h-189l119 200zM269 450h189l131 -190l-131 -200h-189l119 200z" />
    <glyph glyph-name="questiondown" unicode="&#xbf;" horiz-adv-x="578" 
d="M388 237q0 -59 -16 -98t-39 -57.5t-46 -31.5t-39 -32t-16 -48q0 -28 16 -40t52 -12t52 21.5t16 70.5h190q0 -121 -63.5 -175.5t-205.5 -54.5t-205.5 45t-63.5 145q0 42 15 72.5t37 46t48.5 30.5t48.5 27.5t37 35.5t15 55h167zM305 311q-58 0 -84 23.5t-26 76.5
q0 52 26 75.5t84 23.5t83.5 -23.5t25.5 -75.5t-26 -76t-83 -24z" />
    <glyph glyph-name="Agrave" unicode="&#xc0;" horiz-adv-x="719" 
d="M483 0l-30 125h-197l-32 -125h-224l214 700h314l191 -700h-236zM359 520l-67 -257h128zM459 750h-144l-132 120h177z" />
    <glyph glyph-name="Aacute" unicode="&#xc1;" horiz-adv-x="719" 
d="M483 0l-30 125h-197l-32 -125h-224l214 700h314l191 -700h-236zM359 520l-67 -257h128zM285 750l87 120h189l-120 -120h-156z" />
    <glyph glyph-name="Acircumflex" unicode="&#xc2;" horiz-adv-x="719" 
d="M483 0l-30 125h-197l-32 -125h-224l214 700h314l191 -700h-236zM359 520l-67 -257h128zM549 750h-133l-44 46l-44 -46h-133l76 120h202z" />
    <glyph glyph-name="Atilde" unicode="&#xc3;" horiz-adv-x="719" 
d="M483 0l-30 125h-197l-32 -125h-224l214 700h314l191 -700h-236zM359 520l-67 -257h128zM198 760q0 52 29 81.5t77 29.5q32 0 55.5 -7.5t34 -16t23 -16t24.5 -7.5q25 0 26 26h77q0 -52 -28.5 -81.5t-76.5 -29.5q-40 0 -66.5 11.5t-42 23.5t-29.5 12q-27 0 -26 -26h-77z
" />
    <glyph glyph-name="Adieresis" unicode="&#xc4;" horiz-adv-x="719" 
d="M483 0l-30 125h-197l-32 -125h-224l214 700h314l191 -700h-236zM359 520l-67 -257h128zM234 895q57 0 83 -20t26 -64q0 -43 -26 -63t-83 -20q-58 0 -83.5 19.5t-25.5 63.5t25.5 64t83.5 20zM510 895q57 0 83 -20t26 -64q0 -43 -26 -63t-83 -20q-58 0 -83.5 19.5
t-25.5 63.5t25.5 64t83.5 20z" />
    <glyph glyph-name="Aring" unicode="&#xc5;" horiz-adv-x="719" 
d="M483 0l-30 125h-197l-32 -125h-224l214 700h314l191 -700h-236zM359 520l-67 -257h128zM372 954q70 0 102 -26.5t32 -85.5q0 -58 -31.5 -84.5t-102.5 -26.5t-102.5 26.5t-31.5 84.5q0 59 32 85.5t102 26.5zM372 804q35 0 35 38t-35 38t-35 -38t35 -38z" />
    <glyph glyph-name="AE" unicode="&#xc6;" horiz-adv-x="969" 
d="M949 552h-280v-118h240v-149h-240v-137h280v-148h-481v125h-188l-56 -125h-224l333 700h616v-148zM468 544l-126 -281h126v281z" />
    <glyph glyph-name="Ccedilla" unicode="&#xc7;" horiz-adv-x="786" 
d="M349 -18l-1 -1q-166 13 -242 101t-76 267q0 194 90 282t290 88q163 0 245.5 -62t100.5 -199h-224q-9 53 -38 77.5t-82 24.5q-77 0 -111.5 -50t-34.5 -161t34.5 -161t112.5 -50q54 0 83 24.5t36 77.5h224q-26 -128 -99 -190t-206 -69l-7 -31q10 -2 24.5 -7.5t38.5 -28.5
t24 -54q0 -51 -57.5 -80.5t-155.5 -29.5v73q68 0 68 37q0 27 -63 27z" />
    <glyph glyph-name="Egrave" unicode="&#xc8;" horiz-adv-x="610" 
d="M590 552h-306v-118h266v-149h-266v-137h306v-148h-530v700h530v-148zM412 750h-144l-132 120h177z" />
    <glyph glyph-name="Eacute" unicode="&#xc9;" horiz-adv-x="610" 
d="M590 552h-306v-118h266v-149h-266v-137h306v-148h-530v700h530v-148zM238 750l87 120h189l-120 -120h-156z" />
    <glyph glyph-name="Ecircumflex" unicode="&#xca;" horiz-adv-x="610" 
d="M590 552h-306v-118h266v-149h-266v-137h306v-148h-530v700h530v-148zM502 750h-133l-44 46l-44 -46h-133l76 120h202z" />
    <glyph glyph-name="Edieresis" unicode="&#xcb;" horiz-adv-x="611" 
d="M591 552h-307v-118h267v-149h-267v-137h307v-148h-531v700h531v-148zM187 895q58 0 84 -20t26 -64t-26 -63.5t-84 -19.5q-57 0 -83 20t-26 63q0 44 26 64t83 20zM463 895q58 0 84 -20t26 -64t-26 -63.5t-84 -19.5q-57 0 -83 20t-26 63q0 44 26 64t83 20z" />
    <glyph glyph-name="Igrave" unicode="&#xcc;" horiz-adv-x="352" 
d="M68 700h224v-700h-224v700zM266 750h-143l-133 120h178z" />
    <glyph glyph-name="Iacute" unicode="&#xcd;" horiz-adv-x="351" 
d="M60 700h224v-700h-224v700zM85 750l87 120h189l-121 -120h-155z" />
    <glyph glyph-name="Icircumflex" unicode="&#xce;" horiz-adv-x="354" 
d="M65 700h224v-700h-224v700zM354 750h-133l-44 46l-44 -46h-133l76 120h202z" />
    <glyph glyph-name="Idieresis" unicode="&#xcf;" horiz-adv-x="358" 
d="M67 700h224v-700h-224v700zM40 896q57 0 83 -20t26 -64t-26 -63.5t-84 -19.5q-57 0 -83 20t-26 63q0 44 26 64t84 20zM318 896q58 0 84 -20t26 -64t-26 -63.5t-84 -19.5q-57 0 -83 20t-26 63q0 44 26 64t83 20z" />
    <glyph glyph-name="Ntilde" unicode="&#xd1;" horiz-adv-x="778" 
d="M506 700h212v-700h-256l-190 434v-434h-212v700h256l190 -434v434zM215 760q0 52 28.5 81.5t76.5 29.5q32 0 55.5 -7.5t34 -16t23 -16t24.5 -7.5q26 0 27 26h76q0 -52 -28.5 -81.5t-76.5 -29.5q-40 0 -66.5 11.5t-42 23.5t-29.5 12q-26 0 -25 -26h-77z" />
    <glyph glyph-name="Ograve" unicode="&#xd2;" horiz-adv-x="816" 
d="M408 720q199 0 288.5 -88t89.5 -282t-89.5 -282t-288.5 -88q-198 0 -288 88t-90 282t90 282t288 88zM408 561q-74 0 -108 -50.5t-34 -160.5t34 -160.5t108 -50.5q75 0 109 50.5t34 160.5t-34 160.5t-109 50.5zM495 750h-144l-132 120h178z" />
    <glyph glyph-name="Oacute" unicode="&#xd3;" horiz-adv-x="816" 
d="M408 720q199 0 288.5 -88t89.5 -282t-89.5 -282t-288.5 -88q-198 0 -288 88t-90 282t90 282t288 88zM408 561q-74 0 -108 -50.5t-34 -160.5t34 -160.5t108 -50.5q75 0 109 50.5t34 160.5t-34 160.5t-109 50.5zM322 750l87 120h189l-121 -120h-155z" />
    <glyph glyph-name="Ocircumflex" unicode="&#xd4;" horiz-adv-x="816" 
d="M408 720q199 0 288.5 -88t89.5 -282t-89.5 -282t-288.5 -88q-198 0 -288 88t-90 282t90 282t288 88zM408 561q-74 0 -108 -50.5t-34 -160.5t34 -160.5t108 -50.5q75 0 109 50.5t34 160.5t-34 160.5t-109 50.5zM585 750h-133l-44 46l-44 -46h-132l76 120h201z" />
    <glyph glyph-name="Otilde" unicode="&#xd5;" horiz-adv-x="816" 
d="M408 720q199 0 288.5 -88t89.5 -282t-89.5 -282t-288.5 -88q-198 0 -288 88t-90 282t90 282t288 88zM408 561q-74 0 -108 -50.5t-34 -160.5t34 -160.5t108 -50.5q75 0 109 50.5t34 160.5t-34 160.5t-109 50.5zM237 760q0 52 28.5 81.5t76.5 29.5q32 0 55.5 -7.5t34 -16
t23 -16t24.5 -7.5q26 0 27 26h76q0 -52 -28.5 -81.5t-76.5 -29.5q-40 0 -66.5 11.5t-42 23.5t-29.5 12q-26 0 -25 -26h-77z" />
    <glyph glyph-name="Odieresis" unicode="&#xd6;" horiz-adv-x="816" 
d="M408 720q198 0 288 -88t90 -282t-90 -282t-288 -88q-199 0 -288.5 88t-89.5 282t89.5 282t288.5 88zM408 561q-75 0 -109 -50.5t-34 -160.5t34 -160.5t109 -50.5q74 0 108 50.5t34 160.5t-34 160.5t-108 50.5zM270 896q57 0 83 -20t26 -64t-26 -63.5t-84 -19.5
q-57 0 -83 20t-26 63q0 44 26 64t84 20zM546 896q57 0 83 -20t26 -64t-26 -63.5t-84 -19.5q-57 0 -83 20t-26 63q0 44 26 64t84 20z" />
    <glyph glyph-name="multiply" unicode="&#xd7;" horiz-adv-x="552" 
d="M132 503l144 -144l144 144l112 -106l-147 -147l147 -147l-112 -106l-144 144l-144 -144l-112 106l147 147l-147 147z" />
    <glyph glyph-name="Oslash" unicode="&#xd8;" horiz-adv-x="816" 
d="M403 720q27 0 63 -2l22 62h133l-30 -85q101 -34 148 -118.5t47 -226.5q0 -194 -89.5 -282t-286.5 -88q-37 0 -67 3l-22 -63h-133l30 88q-97 35 -142.5 118.5t-45.5 223.5q0 194 89 282t284 88zM408 561q-75 0 -108.5 -51.5t-33.5 -166.5q0 -39 4.5 -69t17 -62t40 -51.5
t69.5 -21.5h11q75 0 109 51t34 166q0 41 -5 72.5t-18.5 64t-43 50.5t-73.5 18h-3z" />
    <glyph glyph-name="Ugrave" unicode="&#xd9;" horiz-adv-x="736" 
d="M50 261v439h224v-439q0 -64 22.5 -93t71.5 -29t71.5 29t22.5 93v439h224v-439q0 -148 -75.5 -214.5t-242.5 -66.5t-242.5 66.5t-75.5 214.5zM454 750h-143l-133 120h178z" />
    <glyph glyph-name="Uacute" unicode="&#xda;" horiz-adv-x="736" 
d="M50 261v439h224v-439q0 -64 22.5 -93t71.5 -29t71.5 29t22.5 93v439h224v-439q0 -148 -75.5 -214.5t-242.5 -66.5t-242.5 66.5t-75.5 214.5zM281 750l87 120h189l-121 -120h-155z" />
    <glyph glyph-name="Ucircumflex" unicode="&#xdb;" horiz-adv-x="736" 
d="M50 261v439h224v-439q0 -64 22.5 -93t71.5 -29t71.5 29t22.5 93v439h224v-439q0 -148 -75.5 -214.5t-242.5 -66.5t-242.5 66.5t-75.5 214.5zM544 750h-132l-44 46l-44 -46h-133l76 120h201z" />
    <glyph glyph-name="Udieresis" unicode="&#xdc;" horiz-adv-x="736" 
d="M50 261v439h224v-439q0 -64 22.5 -93t71.5 -29t71.5 29t22.5 93v439h224v-439q0 -148 -75.5 -214.5t-242.5 -66.5t-242.5 66.5t-75.5 214.5zM230 896q57 0 83 -20t26 -64q0 -43 -26 -63t-83 -20q-58 0 -83.5 19.5t-25.5 63.5t25.5 64t83.5 20zM506 896q57 0 83 -20
t26 -64q0 -43 -26 -63t-83 -20q-58 0 -83.5 19.5t-25.5 63.5t25.5 64t83.5 20z" />
    <glyph glyph-name="Yacute" unicode="&#xdd;" horiz-adv-x="704" 
d="M464 257v-257h-213v257l-251 443h246l112 -229l111 229h235zM278 750l87 120h189l-121 -120h-155z" />
    <glyph glyph-name="germandbls" unicode="&#xdf;" horiz-adv-x="694" 
d="M340 720q47 0 84 -3.5t78 -15t68.5 -31.5t45.5 -55.5t18 -84.5q0 -51 -18 -83t-59 -58q56 -27 81.5 -69.5t25.5 -108.5q0 -110 -54.5 -160.5t-172.5 -50.5q-36 0 -64 5t-37 10l-10 5v127q26 -9 54 -9q44 0 63.5 19t19.5 62q0 50 -28 73t-89 23v126q51 0 74.5 16t23.5 50
q0 40 -22 57.5t-70 17.5q-101 0 -101 -104v-478h-201v469q0 251 290 251z" />
    <glyph glyph-name="agrave" unicode="&#xe0;" horiz-adv-x="576" 
d="M357 34q-48 -44 -146 -44q-101 0 -146 38t-45 123q0 89 60.5 129.5t194.5 40.5h59v19q0 34 -12 49t-40 15q-52 0 -52 -54h-190q0 84 59 122t189 38t189 -45t59 -146v-319h-156zM334 216h-40q-35 0 -54 -10.5t-19 -43.5q0 -25 11 -34.5t36 -9.5q66 0 66 80v18zM289 700
l85 -150h-155l-131 150h201z" />
    <glyph glyph-name="aacute" unicode="&#xe1;" horiz-adv-x="576" 
d="M357 34q-48 -44 -146 -44q-101 0 -146 38t-45 123q0 89 60.5 129.5t194.5 40.5h59v19q0 34 -12 49t-40 15q-52 0 -52 -54h-190q0 84 59 122t189 38t189 -45t59 -146v-319h-156zM334 216h-40q-35 0 -54 -10.5t-19 -43.5q0 -25 11 -34.5t36 -9.5q66 0 66 80v18zM276 700
h200l-131 -150h-155z" />
    <glyph glyph-name="acircumflex" unicode="&#xe2;" horiz-adv-x="576" 
d="M357 34q-48 -44 -146 -44q-101 0 -146 38t-45 123q0 89 60.5 129.5t194.5 40.5h59v19q0 34 -12 49t-40 15q-52 0 -52 -54h-190q0 84 59 122t189 38t189 -45t59 -146v-319h-156zM334 216h-40q-35 0 -54 -10.5t-19 -43.5q0 -25 11 -34.5t36 -9.5q66 0 66 80v18zM388 700
l78 -150h-122l-56 66l-57 -66h-121l77 150h201z" />
    <glyph glyph-name="atilde" unicode="&#xe3;" horiz-adv-x="576" 
d="M357 34q-48 -44 -146 -44q-101 0 -146 38t-45 123q0 89 60.5 129.5t194.5 40.5h59v19q0 34 -12 49t-40 15q-52 0 -52 -54h-190q0 84 59 122t189 38t189 -45t59 -146v-319h-156zM334 216h-40q-35 0 -54 -10.5t-19 -43.5q0 -25 11 -34.5t36 -9.5q66 0 66 80v18zM115 580
q0 53 34.5 92t80.5 39q32 0 55 -10.5t33.5 -23t20.5 -23t18 -10.5q15 0 15 26h88q0 -53 -34 -92.5t-81 -39.5q-32 0 -55 10.5t-33 23.5t-20 23t-18 10q-6 0 -11 -6.5t-5 -18.5h-88z" />
    <glyph glyph-name="adieresis" unicode="&#xe4;" horiz-adv-x="576" 
d="M357 34q-48 -44 -146 -44q-101 0 -146 38t-45 123q0 89 60.5 129.5t194.5 40.5h59v19q0 34 -12 49t-40 15q-52 0 -52 -54h-190q0 84 59 122t189 38t189 -45t59 -146v-319h-156zM334 216h-40q-35 0 -54 -10.5t-19 -43.5q0 -25 11 -34.5t36 -9.5q66 0 66 80v18zM157 750
q58 0 83.5 -23.5t25.5 -76.5q0 -52 -26 -75.5t-83 -23.5q-58 0 -83.5 23.5t-25.5 75.5q0 53 25.5 76.5t83.5 23.5zM415 750q58 0 84 -24t26 -76t-26 -75.5t-84 -23.5t-83.5 23.5t-25.5 75.5t26 76t83 24z" />
    <glyph glyph-name="aring" unicode="&#xe5;" horiz-adv-x="576" 
d="M357 34q-48 -44 -146 -44q-101 0 -146 38t-45 123q0 89 60.5 129.5t194.5 40.5h59v19q0 34 -12 49t-40 15q-52 0 -52 -54h-190q0 84 59 122t189 38t189 -45t59 -146v-319h-156zM334 216h-40q-35 0 -54 -10.5t-19 -43.5q0 -25 11 -34.5t36 -9.5q66 0 66 80v18zM288 753
q70 0 102 -27t32 -85t-32 -84.5t-102 -26.5q-71 0 -102.5 26.5t-31.5 84.5q0 59 32 85.5t102 26.5zM288 603q34 0 34 38t-34 38q-35 0 -35 -38t35 -38z" />
    <glyph glyph-name="ae" unicode="&#xe6;" horiz-adv-x="904" 
d="M535 199q0 -49 18.5 -71t58.5 -22q56 0 68 55h190q-15 -90 -76.5 -130.5t-181.5 -40.5q-149 0 -195 104q-42 -104 -206 -104q-101 0 -146 38t-45 123q0 43 15 75t38 50t58 28.5t67 13.5t73 3h63v19q0 29 -12 41.5t-38 12.5q-30 0 -42 -10t-12 -34h-190q0 84 59 122
t189 38q115 0 162 -54q53 54 162 54q146 0 212 -61.5t66 -197.5v-52h-355zM334 215h-36q-41 0 -59 -13t-18 -41q0 -24 10.5 -34t36.5 -10q37 0 51.5 19.5t14.5 64.5v14zM690 305h1q0 47 -18.5 68t-58.5 21t-58.5 -21t-18.5 -68h153z" />
    <glyph glyph-name="ccedilla" unicode="&#xe7;" horiz-adv-x="596" 
d="M223 -113h-1l28 104q-120 10 -175.5 72.5t-55.5 185.5q0 137 68.5 199t219.5 62q130 0 193.5 -48.5t74.5 -154.5h-202q-5 34 -21 49t-47 15q-44 0 -64 -29t-20 -93t20 -93t64 -29q31 0 47.5 15t21.5 49h202q-10 -96 -63 -144.5t-160 -55.5l-9 -41q10 -2 24.5 -7.5
t38.5 -28.5t24 -54q0 -51 -57.5 -80.5t-154.5 -29.5v73q68 0 68 37q0 27 -64 27z" />
    <glyph glyph-name="egrave" unicode="&#xe8;" horiz-adv-x="596" 
d="M576 199h-357q0 -93 79 -93q58 0 68 55h190q-16 -90 -77 -130.5t-181 -40.5q-146 0 -212 61.5t-66 198.5t66 198.5t212 61.5t212 -61.5t66 -197.5v-52zM295 394q-35 0 -55 -24t-20 -65h153q0 46 -19 67.5t-59 21.5zM383 550h-155l-131 150h201z" />
    <glyph glyph-name="eacute" unicode="&#xe9;" horiz-adv-x="596" 
d="M576 199h-357q0 -93 79 -93q58 0 68 55h190q-16 -90 -77 -130.5t-181 -40.5q-146 0 -212 61.5t-66 198.5t66 198.5t212 61.5t212 -61.5t66 -197.5v-52zM295 394q-35 0 -55 -24t-20 -65h153q0 46 -19 67.5t-59 21.5zM210 550l86 150h200l-131 -150h-155z" />
    <glyph glyph-name="ecircumflex" unicode="&#xea;" horiz-adv-x="596" 
d="M576 199h-357q0 -93 79 -93q58 0 68 55h190q-16 -90 -77 -130.5t-181 -40.5q-146 0 -212 61.5t-66 198.5t66 198.5t212 61.5t212 -61.5t66 -197.5v-52zM295 394q-35 0 -55 -24t-20 -65h153q0 46 -19 67.5t-59 21.5zM475 550h-122l-56 66l-57 -66h-121l77 150h201z" />
    <glyph glyph-name="edieresis" unicode="&#xeb;" horiz-adv-x="596" 
d="M576 199h-357q0 -93 79 -93q58 0 68 55h190q-16 -90 -77 -130.5t-181 -40.5q-146 0 -212 61.5t-66 198.5t66 198.5t212 61.5t212 -61.5t66 -197.5v-52zM295 394q-35 0 -55 -24t-20 -65h153q0 46 -19 67.5t-59 21.5zM171 750q58 0 83.5 -23.5t25.5 -76.5q0 -52 -26 -75.5
t-83 -23.5q-58 0 -83.5 23.5t-25.5 75.5q0 53 25.5 76.5t83.5 23.5zM429 750q58 0 84 -24t26 -76t-26 -75.5t-84 -23.5t-83.5 23.5t-25.5 75.5t26 76t83 24z" />
    <glyph glyph-name="igrave" unicode="&#xec;" horiz-adv-x="310" 
d="M260 0h-202v500h202v-500zM245 550h-155l-130 150h200z" />
    <glyph glyph-name="iacute" unicode="&#xed;" horiz-adv-x="299" 
d="M251 0h-201v500h201v-500zM53 550l85 150h201l-131 -150h-155z" />
    <glyph glyph-name="icircumflex" unicode="&#xee;" horiz-adv-x="316" 
d="M259 0h-202v500h202v-500zM336 550h-121l-57 66l-57 -66h-121l77 150h202z" />
    <glyph glyph-name="idieresis" unicode="&#xef;" horiz-adv-x="314" 
d="M258 0h-202v500h202v-500zM29 750q58 0 83.5 -23.5t25.5 -76.5q0 -52 -26 -75.5t-83 -23.5q-58 0 -83.5 23.5t-25.5 75.5q0 53 25.5 76.5t83.5 23.5zM285 750q58 0 83.5 -23.5t25.5 -76.5q0 -52 -26 -75.5t-83 -23.5q-58 0 -83.5 23.5t-25.5 75.5q0 53 25.5 76.5
t83.5 23.5z" />
    <glyph glyph-name="ntilde" unicode="&#xf1;" horiz-adv-x="607" 
d="M226 469h1q47 41 137 41q107 0 155 -57t48 -183v-270h-202v270q0 54 -14 78t-44 24q-56 0 -56 -102v-270h-201v500h156zM136 581q0 53 34.5 92t80.5 39q32 0 55 -10.5t33.5 -23t20.5 -23t18 -10.5q15 0 15 26h88q0 -53 -34 -92.5t-81 -39.5q-32 0 -55 10.5t-33 23t-20 23
t-18 10.5q-6 0 -11 -6.5t-5 -18.5h-88z" />
    <glyph glyph-name="ograve" unicode="&#xf2;" horiz-adv-x="616" 
d="M308 510q151 0 219.5 -62t68.5 -198t-68.5 -198t-219.5 -62t-219.5 61.5t-68.5 198.5t68.5 198.5t219.5 61.5zM221 250q0 -64 20.5 -93t66.5 -29q45 0 65.5 29t20.5 93t-20.5 93t-65.5 29q-46 0 -66.5 -29t-20.5 -93zM394 550h-155l-131 150h201z" />
    <glyph glyph-name="oacute" unicode="&#xf3;" horiz-adv-x="616" 
d="M308 510q151 0 219.5 -62t68.5 -198t-68.5 -198t-219.5 -62t-219.5 61.5t-68.5 198.5t68.5 198.5t219.5 61.5zM221 250q0 -64 20.5 -93t66.5 -29q45 0 65.5 29t20.5 93t-20.5 93t-65.5 29q-46 0 -66.5 -29t-20.5 -93zM221 550l86 150h200l-131 -150h-155z" />
    <glyph glyph-name="ocircumflex" unicode="&#xf4;" horiz-adv-x="616" 
d="M308 510q151 0 219.5 -62t68.5 -198t-68.5 -198t-219.5 -62t-219.5 61.5t-68.5 198.5t68.5 198.5t219.5 61.5zM221 250q0 -64 20.5 -93t66.5 -29q45 0 65.5 29t20.5 93t-20.5 93t-65.5 29q-46 0 -66.5 -29t-20.5 -93zM486 550h-122l-56 66l-57 -66h-121l77 150h201z" />
    <glyph glyph-name="otilde" unicode="&#xf5;" horiz-adv-x="616" 
d="M308 510q151 0 219.5 -62t68.5 -198t-68.5 -198t-219.5 -62t-219.5 61.5t-68.5 198.5t68.5 198.5t219.5 61.5zM221 250q0 -64 20.5 -93t66.5 -29q45 0 65.5 29t20.5 93t-20.5 93t-65.5 29q-46 0 -66.5 -29t-20.5 -93zM135 581q0 53 34.5 92t80.5 39q32 0 55 -10.5
t33.5 -23t20.5 -23t18 -10.5q15 0 15 26h88q0 -53 -34 -92.5t-81 -39.5q-32 0 -55 10.5t-33 23t-20 23t-18 10.5q-6 0 -11 -6.5t-5 -18.5h-88z" />
    <glyph glyph-name="odieresis" unicode="&#xf6;" horiz-adv-x="616" 
d="M308 510q151 0 219.5 -62t68.5 -198t-68.5 -198t-219.5 -62t-219.5 61.5t-68.5 198.5t68.5 198.5t219.5 61.5zM221 250q0 -64 20.5 -93t66.5 -29q45 0 65.5 29t20.5 93t-20.5 93t-65.5 29q-46 0 -66.5 -29t-20.5 -93zM178 750q58 0 83.5 -23.5t25.5 -76.5
q0 -52 -26 -75.5t-83 -23.5q-58 0 -83.5 23.5t-25.5 75.5q0 53 25.5 76.5t83.5 23.5zM436 750q58 0 84 -24t26 -76t-26 -75.5t-84 -23.5t-83.5 23.5t-25.5 75.5t26 76t83 24z" />
    <glyph glyph-name="divide" unicode="&#xf7;" horiz-adv-x="560" 
d="M540 197h-520v137h520v-137zM183 77q0 40 27 64.5t70 24.5t70 -24.5t27 -64.5t-26.5 -64t-70.5 -24t-70.5 24t-26.5 64zM184 453q0 40 26.5 64t70.5 24t70.5 -24t26.5 -64t-26.5 -64t-70.5 -24t-70.5 24t-26.5 64z" />
    <glyph glyph-name="oslash" unicode="&#xf8;" horiz-adv-x="616" 
d="M353 509l21 61h88l-26 -75q83 -22 121.5 -82t38.5 -163q0 -136 -68.5 -198t-219.5 -62q-31 0 -46 1l-21 -61h-88l26 75q-82 22 -120.5 82t-38.5 163q0 137 68.5 198.5t219.5 61.5q30 0 45 -1zM394 250q0 64 -21 93t-67 29q-44 0 -64.5 -29t-20.5 -93t21 -93t67 -29
q44 0 64.5 29t20.5 93z" />
    <glyph glyph-name="ugrave" unicode="&#xf9;" horiz-adv-x="606" 
d="M379 31q-47 -41 -137 -41q-106 0 -154 57t-48 183v270h201v-270q0 -54 14 -78t44 -24t42.5 25t12.5 81v266h202v-500h-156zM321 700l86 -150h-155l-131 150h200z" />
    <glyph glyph-name="uacute" unicode="&#xfa;" horiz-adv-x="606" 
d="M379 31q-47 -41 -137 -41q-106 0 -154 57t-48 183v270h201v-270q0 -54 14 -78t44 -24t42.5 25t12.5 81v266h202v-500h-156zM279 700h200l-130 -150h-156z" />
    <glyph glyph-name="ucircumflex" unicode="&#xfb;" horiz-adv-x="606" 
d="M379 31q-47 -41 -137 -41q-106 0 -154 57t-48 183v270h201v-270q0 -54 14 -78t44 -24t42.5 25t12.5 81v266h202v-500h-156zM401 700l77 -150h-121l-57 66l-57 -66h-121l77 150h202z" />
    <glyph glyph-name="udieresis" unicode="&#xfc;" horiz-adv-x="606" 
d="M379 31q-47 -41 -137 -41q-106 0 -154 57t-48 183v270h201v-270q0 -54 14 -78t44 -24t42.5 25t12.5 81v266h202v-500h-156zM171 750q58 0 83.5 -23.5t25.5 -76.5q0 -52 -26 -75.5t-83 -23.5q-58 0 -83.5 23.5t-25.5 75.5q0 53 25.5 76.5t83.5 23.5zM429 750q58 0 84 -24
t26 -76t-26 -75.5t-84 -23.5t-83.5 23.5t-25.5 75.5t26 76t83 24z" />
    <glyph glyph-name="yacute" unicode="&#xfd;" horiz-adv-x="556" 
d="M209 -1l5 14l-214 487h190l96 -256l80 256h190l-171 -493q-34 -98 -78 -142.5t-108 -44.5h-126v116h70q46 0 66 63zM210 550l86 150h200l-131 -150h-155z" />
    <glyph glyph-name="ydieresis" unicode="&#xff;" horiz-adv-x="556" 
d="M209 -1l5 14l-214 487h190l96 -256l80 256h190l-171 -493q-34 -98 -78 -142.5t-108 -44.5h-126v116h70q46 0 66 63zM156 750q58 0 83.5 -23.5t25.5 -76.5q0 -52 -26 -75.5t-83 -23.5q-58 0 -83.5 23.5t-25.5 75.5q0 53 25.5 76.5t83.5 23.5zM414 750q58 0 84 -24t26 -76
t-26 -75.5t-84 -23.5t-83.5 23.5t-25.5 75.5t26 76t83 24z" />
    <glyph glyph-name="Amacron" unicode="&#x100;" horiz-adv-x="719" 
d="M483 0l-30 125h-197l-32 -125h-224l214 700h314l191 -700h-236zM359 520l-67 -257h128zM202 854h340v-106h-340v106z" />
    <glyph glyph-name="amacron" unicode="&#x101;" horiz-adv-x="576" 
d="M357 34q-48 -44 -146 -44q-101 0 -146 38t-45 123q0 89 60.5 129.5t194.5 40.5h59v19q0 34 -12 49t-40 15q-52 0 -52 -54h-190q0 84 59 122t189 38t189 -45t59 -146v-319h-156zM334 216h-40q-35 0 -54 -10.5t-19 -43.5q0 -25 11 -34.5t36 -9.5q66 0 66 80v18zM117 578
v106h340v-106h-340z" />
    <glyph glyph-name="Abreve" unicode="&#x102;" horiz-adv-x="719" 
d="M483 0l-30 125h-197l-32 -125h-224l214 700h314l191 -700h-236zM359 520l-67 -257h128zM545 870q0 -63 -41 -91.5t-132 -28.5t-132 28.5t-41 91.5h145q0 -35 30 -36q26 1 26 36h145z" />
    <glyph glyph-name="abreve" unicode="&#x103;" horiz-adv-x="576" 
d="M357 34q-48 -44 -146 -44q-101 0 -146 38t-45 123q0 89 60.5 129.5t194.5 40.5h59v19q0 34 -12 49t-40 15q-52 0 -52 -54h-190q0 84 59 122t189 38t189 -45t59 -146v-319h-156zM334 216h-40q-35 0 -54 -10.5t-19 -43.5q0 -25 11 -34.5t36 -9.5q66 0 66 80v18zM327 700
h133q0 -79 -40.5 -114.5t-131.5 -35.5t-132 35.5t-41 114.5h133q0 -30 9 -43t31 -12q39 0 39 55z" />
    <glyph glyph-name="Aogonek" unicode="&#x104;" horiz-adv-x="719" 
d="M719 0h-44q-29 -32 -32.5 -60t27.5 -31q8 0 17 2.5t14 4.5l5 3v-149q-30 -20 -70 -20q-59 0 -92 42.5t-25.5 102t54.5 105.5h-90l-30 125h-197l-32 -125h-224l214 700h314zM359 520l-67 -257h128z" />
    <glyph glyph-name="aogonek" unicode="&#x105;" horiz-adv-x="576" 
d="M377 3h-1l-20 30q-48 -44 -146 -44q-101 0 -146 38t-45 123q0 89 60.5 129.5t194.5 40.5h59v19q0 34 -12 49t-40 15q-52 0 -52 -54h-190q0 84 59 122t189 38t189 -45t59 -146v-319h-61q-28 -32 -32 -60t28 -30q7 0 16 2.5t14 4.5l6 3v-149q-30 -20 -70 -20q-59 0 -92 43
t-24.5 103.5t57.5 106.5zM334 215h-40q-35 0 -54 -10.5t-19 -43.5q0 -25 11 -34.5t36 -9.5q66 0 66 80v18z" />
    <glyph glyph-name="Cacute" unicode="&#x106;" horiz-adv-x="786" 
d="M532 241h224q-27 -137 -109.5 -199t-236.5 -62q-200 0 -290 88t-90 282t90 282t290 88q163 0 245.5 -62t100.5 -199h-224q-9 53 -38 77.5t-84 24.5q-76 0 -110 -50.5t-34 -160.5t34 -160.5t110 -50.5q56 0 85.5 24.5t36.5 77.5zM322 750l87 120h189l-121 -120h-155z" />
    <glyph glyph-name="cacute" unicode="&#x107;" horiz-adv-x="596" 
d="M374 192h201q-11 -106 -74.5 -154t-193.5 -48q-151 0 -219.5 61.5t-68.5 198.5t68.5 198.5t219.5 61.5q130 0 193.5 -48t74.5 -154h-202q-5 34 -21 49t-47 15q-44 0 -64 -29t-20 -93t20 -93t64 -29q31 0 47.5 15t21.5 49zM221 550l86 150h200l-131 -150h-155z" />
    <glyph glyph-name="Ccircumflex" unicode="&#x108;" horiz-adv-x="786" 
d="M532 241h224q-27 -137 -109.5 -199t-236.5 -62q-200 0 -290 88t-90 282t90 282t290 88q163 0 245.5 -62t100.5 -199h-224q-9 53 -38 77.5t-84 24.5q-76 0 -110 -50.5t-34 -160.5t34 -160.5t110 -50.5q56 0 85.5 24.5t36.5 77.5zM585 750h-133l-44 46l-44 -46h-132l76 120
h201z" />
    <glyph glyph-name="ccircumflex" unicode="&#x109;" horiz-adv-x="596" 
d="M374 192h201q-11 -106 -74.5 -154t-193.5 -48q-151 0 -219.5 61.5t-68.5 198.5t68.5 198.5t219.5 61.5q130 0 193.5 -48t74.5 -154h-202q-5 34 -21 49t-47 15q-44 0 -64 -29t-20 -93t20 -93t64 -29q31 0 47.5 15t21.5 49zM486 550h-122l-56 66l-57 -66h-121l77 150h201z
" />
    <glyph glyph-name="Cdotaccent" unicode="&#x10a;" horiz-adv-x="786" 
d="M532 241h224q-27 -137 -109.5 -199t-236.5 -62q-200 0 -290 88t-90 282t90 282t290 88q163 0 245.5 -62t100.5 -199h-224q-9 53 -38 77.5t-84 24.5q-76 0 -110 -50.5t-34 -160.5t34 -160.5t110 -50.5q56 0 85.5 24.5t36.5 77.5zM408 906q58 0 84 -20t26 -64t-26 -63.5
t-84 -19.5q-57 0 -83 20t-26 63q0 44 26 64t83 20z" />
    <glyph glyph-name="cdotaccent" unicode="&#x10b;" horiz-adv-x="596" 
d="M374 192h201q-11 -106 -74.5 -154t-193.5 -48q-151 0 -219.5 61.5t-68.5 198.5t68.5 198.5t219.5 61.5q130 0 193.5 -48t74.5 -154h-202q-5 34 -21 49t-47 15q-44 0 -64 -29t-20 -93t20 -93t64 -29q31 0 47.5 15t21.5 49zM308 758q57 0 83 -22.5t26 -71.5t-26 -71.5
t-84 -22.5q-57 0 -83 22.5t-26 71.5t26 71.5t84 22.5z" />
    <glyph glyph-name="Ccaron" unicode="&#x10c;" horiz-adv-x="786" 
d="M532 241h224q-27 -137 -109.5 -199t-236.5 -62q-200 0 -290 88t-90 282t90 282t290 88q163 0 245.5 -62t100.5 -199h-224q-9 53 -38 77.5t-84 24.5q-76 0 -110 -50.5t-34 -160.5t34 -160.5t110 -50.5q56 0 85.5 24.5t36.5 77.5zM574 870l-76 -120h-202l-76 120h133
l44 -46l44 46h133z" />
    <glyph glyph-name="ccaron" unicode="&#x10d;" horiz-adv-x="596" 
d="M374 192h201q-11 -106 -74.5 -154t-193.5 -48q-151 0 -219.5 61.5t-68.5 198.5t68.5 198.5t219.5 61.5q130 0 193.5 -48t74.5 -154h-202q-5 34 -21 49t-47 15q-44 0 -64 -29t-20 -93t20 -93t64 -29q31 0 47.5 15t21.5 49zM486 700l-78 -150h-201l-77 150h121l57 -66
l56 66h122z" />
    <glyph glyph-name="Dcaron" unicode="&#x10e;" horiz-adv-x="758" 
d="M728 350q0 -184 -87.5 -267t-280.5 -83h-300v700h300q193 0 280.5 -83t87.5 -267zM349 552h-65v-404h65q75 0 109.5 48t34.5 154t-34 154t-110 48zM516 870l-76 -120h-202l-76 120h133l44 -46l44 46h133z" />
    <glyph glyph-name="dcaron" unicode="&#x10f;" horiz-adv-x="784" 
d="M240 -10q-115 0 -167.5 62t-52.5 198q0 137 52.5 198.5t168.5 61.5q83 0 133 -31v221h202v-700h-156l-25 37q-53 -47 -155 -47zM298 128q40 0 58 29t18 93t-18 93t-58 29q-41 0 -59 -29t-18 -93t18 -93t59 -29zM689 710q43 0 59 -24t16 -68q0 -65 -33 -94t-107 -29v63
q53 0 53 38q-33 0 -48 12.5t-15 39.5q0 35 19 48.5t56 13.5z" />
    <glyph glyph-name="Dcroat" unicode="&#x110;" horiz-adv-x="788" 
d="M758 350q0 -184 -87.5 -267t-280.5 -83h-300v314h-90v127h90v259h300q193 0 280.5 -83t87.5 -267zM379 552h-65v-111h120v-127h-120v-166h65q75 0 109.5 48t34.5 154t-34 154t-110 48z" />
    <glyph glyph-name="dcroat" unicode="&#x111;" horiz-adv-x="667" 
d="M666 630h1v-84h-90v-546h-156l-25 37q-53 -47 -155 -47q-116 0 -168.5 61.5t-52.5 198.5t52.5 198.5t168.5 61.5q83 0 133 -31v67h-150v84h150v70h202v-70h90zM298 128q40 0 58 29t18 93t-18 93t-58 29q-41 0 -59 -29t-18 -93t18 -93t59 -29z" />
    <glyph glyph-name="Emacron" unicode="&#x112;" horiz-adv-x="610" 
d="M590 552h-306v-118h266v-149h-266v-137h306v-148h-530v700h530v-148zM155 854h340v-106h-340v106z" />
    <glyph glyph-name="emacron" unicode="&#x113;" horiz-adv-x="596" 
d="M576 199h-357q0 -93 79 -93q58 0 68 55h190q-16 -90 -77 -130.5t-181 -40.5q-146 0 -212 61.5t-66 198.5t66 198.5t212 61.5t212 -61.5t66 -197.5v-52zM295 394q-35 0 -55 -24t-20 -65h153q0 46 -19 67.5t-59 21.5zM126 685h340v-106h-340v106z" />
    <glyph glyph-name="Ebreve" unicode="&#x114;" horiz-adv-x="610" 
d="M590 552h-306v-118h266v-149h-266v-137h306v-148h-530v700h530v-148zM498 870q0 -63 -41 -91.5t-132 -28.5t-132 28.5t-41 91.5h145q0 -35 30 -36q26 1 26 36h145z" />
    <glyph glyph-name="ebreve" unicode="&#x115;" horiz-adv-x="596" 
d="M576 199h-357q0 -93 79 -93q58 0 68 55h190q-16 -90 -77 -130.5t-181 -40.5q-146 0 -212 61.5t-66 198.5t66 198.5t212 61.5t212 -61.5t66 -197.5v-52zM295 394q-35 0 -55 -24t-20 -65h153q0 46 -19 67.5t-59 21.5zM469 700q0 -79 -40.5 -114.5t-131.5 -35.5t-132 35.5
t-41 114.5h133q0 -30 9 -43t31 -12q39 0 39 55h133z" />
    <glyph glyph-name="Edotaccent" unicode="&#x116;" horiz-adv-x="610" 
d="M590 552h-306v-118h266v-149h-266v-137h306v-148h-530v700h530v-148zM325 906q57 0 83 -20t26 -64q0 -43 -26 -63t-83 -20q-58 0 -83.5 19.5t-25.5 63.5t25.5 64t83.5 20z" />
    <glyph glyph-name="edotaccent" unicode="&#x117;" horiz-adv-x="596" 
d="M576 199h-357q0 -93 79 -93q58 0 68 55h190q-16 -90 -77 -130.5t-181 -40.5q-146 0 -212 61.5t-66 198.5t66 198.5t212 61.5t212 -61.5t66 -197.5v-52zM295 394q-35 0 -55 -24t-20 -65h153q0 46 -19 67.5t-59 21.5zM297 758q57 0 83 -22.5t26 -71.5t-26 -71.5t-84 -22.5
q-57 0 -83 22.5t-26 71.5t26 71.5t84 22.5z" />
    <glyph glyph-name="Eogonek" unicode="&#x118;" horiz-adv-x="610" 
d="M590 0h-58q-29 -32 -32.5 -60t27.5 -31q8 0 17 2.5t14 4.5l5 3v-149q-30 -20 -70 -20q-59 0 -92 42.5t-25.5 102t54.5 105.5h-370v700h530v-148h-306v-118h266v-149h-266v-137h306v-148z" />
    <glyph glyph-name="eogonek" unicode="&#x119;" horiz-adv-x="596" 
d="M324 -10h-26q-146 0 -212 61.5t-66 198.5t66 198.5t212 61.5t212 -61.5t66 -197.5v-52h-357q0 -93 79 -93q58 0 68 55h190q-19 -107 -104 -145q-40 -33 -48 -72q-7 -35 27 -35q7 0 16 2.5t15 4.5l5 3v-149q-30 -20 -70 -20q-56 0 -89 39.5t-29 96.5t45 104zM295 394
q-35 0 -55 -24t-20 -65h153q0 46 -19 67.5t-59 21.5z" />
    <glyph glyph-name="Ecaron" unicode="&#x11a;" horiz-adv-x="610" 
d="M590 552h-306v-118h266v-149h-266v-137h306v-148h-530v700h530v-148zM490 870l-76 -120h-201l-76 120h133l44 -46l44 46h132z" />
    <glyph glyph-name="ecaron" unicode="&#x11b;" horiz-adv-x="596" 
d="M576 199h-357q0 -93 79 -93q58 0 68 55h190q-16 -90 -77 -130.5t-181 -40.5q-146 0 -212 61.5t-66 198.5t66 198.5t212 61.5t212 -61.5t66 -197.5v-52zM295 394q-35 0 -55 -24t-20 -65h153q0 46 -19 67.5t-59 21.5zM475 700l-78 -150h-201l-77 150h121l57 -66l56 66h122z
" />
    <glyph glyph-name="Gbreve" unicode="&#x11e;" horiz-adv-x="796" 
d="M408 275v138h358v-63q0 -194 -85 -282t-273 -88q-198 0 -288 88t-90 282t90 282t288 88q158 0 240.5 -57t107.5 -183h-212q-11 42 -43 61.5t-93 19.5q-75 0 -108.5 -50t-33.5 -161q0 -110 34 -160.5t108 -50.5q76 0 111 32.5t35 103.5h-146zM581 870q0 -63 -41 -91.5
t-132 -28.5t-131.5 28.5t-40.5 91.5h144q0 -35 30 -36q26 1 26 36h145z" />
    <glyph glyph-name="gbreve" unicode="&#x11f;" 
d="M241 -10q-116 0 -168.5 62t-52.5 199q0 136 52.5 197.5t168.5 61.5q102 0 154 -46l25 36h156v-450q0 -136 -66 -198t-212 -62q-123 0 -184 40.5t-74 130.5h190q9 -55 56 -55q46 0 67 26t21 84v5q-50 -31 -133 -31zM298 129q40 0 58 29t18 93t-18 93t-58 29t-58.5 -29
t-18.5 -93t18.5 -93t58.5 -29zM466 700q0 -79 -40.5 -114.5t-131.5 -35.5t-132 35.5t-41 114.5h133q0 -30 9 -43t31 -12q39 0 39 55h133z" />
    <glyph glyph-name="Gdotaccent" unicode="&#x120;" horiz-adv-x="796" 
d="M408 275v138h358v-63q0 -194 -85 -282t-273 -88q-198 0 -288 88t-90 282t90 282t288 88q158 0 240.5 -57t107.5 -183h-212q-11 42 -43 61.5t-93 19.5q-75 0 -108.5 -50t-33.5 -161q0 -110 34 -160.5t108 -50.5q76 0 111 32.5t35 103.5h-146zM408 906q58 0 84 -20t26 -64
t-26 -63.5t-84 -19.5q-57 0 -83 20t-26 63q0 44 26 64t83 20z" />
    <glyph glyph-name="gdotaccent" unicode="&#x121;" 
d="M241 -10q-116 0 -168.5 62t-52.5 199q0 136 52.5 197.5t168.5 61.5q102 0 154 -46l25 36h156v-450q0 -136 -66 -198t-212 -62q-123 0 -184 40.5t-74 130.5h190q9 -55 56 -55q46 0 67 26t21 84v5q-50 -31 -133 -31zM298 129q40 0 58 29t18 93t-18 93t-58 29t-58.5 -29
t-18.5 -93t18.5 -93t58.5 -29zM292 761q58 0 84 -22.5t26 -72.5q0 -49 -26 -71.5t-84 -22.5q-57 0 -83 22.5t-26 71.5q0 50 26 72.5t83 22.5z" />
    <glyph glyph-name="Gcedilla" unicode="&#x122;" horiz-adv-x="796" 
d="M408 275v138h358v-63q0 -194 -85 -282t-273 -88q-199 0 -288.5 88t-89.5 282t89.5 282t288.5 88q157 0 239.5 -57t108.5 -183h-213q-10 42 -42 61.5t-93 19.5q-75 0 -109 -50t-34 -161q0 -110 34 -160.5t109 -50.5q76 0 110.5 32.5t34.5 103.5h-145zM408 -39q43 0 59 -24
t16 -68q0 -65 -33 -94t-107 -29v63q53 0 53 38q-33 0 -48 12.5t-15 39.5q0 35 19 48.5t56 13.5z" />
    <glyph glyph-name="gcedilla" unicode="&#x123;" 
d="M241 -10q-116 0 -168.5 62t-52.5 199q0 136 52.5 197.5t168.5 61.5q102 0 154 -46l25 36h156v-450q0 -136 -66 -198t-212 -62q-123 0 -184 40.5t-74 130.5h190q9 -55 56 -55q46 0 67 26t21 84v5q-50 -31 -133 -31zM298 129q40 0 58 29t18 93t-18 93t-58 29t-58.5 -29
t-18.5 -93t18.5 -93t58.5 -29zM290 535q-43 0 -59 24t-16 68q0 65 33 94t107 29v-63q-53 0 -53 -38q33 0 48 -12.5t15 -39.5q0 -35 -19 -48.5t-56 -13.5z" />
    <glyph glyph-name="Itilde" unicode="&#x128;" horiz-adv-x="345" 
d="M61 700h224v-700h-224v700zM0 760q0 51 33.5 81t81.5 30q40 0 66.5 -9.5t42 -18.5t29.5 -9q5 0 10.5 5.5t5.5 10.5h76q0 -51 -33 -81t-82 -30q-40 0 -66.5 9.5t-41.5 18.5t-29 9q-6 0 -11 -5.5t-5 -10.5h-77z" />
    <glyph glyph-name="itilde" unicode="&#x129;" horiz-adv-x="305" 
d="M253 0h-201v500h201v-500zM-20 581q0 53 34 92t81 39q32 0 55 -10.5t33 -23t20 -23t18 -10.5q16 0 16 26h88q0 -53 -34.5 -92.5t-80.5 -39.5q-32 0 -55 10.5t-33 23.5t-20 23t-18 10q-16 0 -16 -25h-88z" />
    <glyph glyph-name="Imacron" unicode="&#x12a;" horiz-adv-x="360" 
d="M68 700h224v-700h-224v700zM10 854h340v-105h-340v105z" />
    <glyph glyph-name="imacron" unicode="&#x12b;" horiz-adv-x="320" 
d="M261 0h-201v500h201v-500zM-10 685h340v-106h-340v106z" />
    <glyph glyph-name="Iogonek" unicode="&#x12e;" horiz-adv-x="344" 
d="M284 0h-36q-29 -32 -32.5 -60t28.5 -31q7 0 16 2.5t14 4.5l6 3v-149q-31 -20 -71 -20q-59 0 -92 42.5t-25.5 102t55.5 105.5h-87v700h224v-700z" />
    <glyph glyph-name="iogonek" unicode="&#x12f;" horiz-adv-x="319" 
d="M260 0h-33q-29 -32 -33 -60t27 -31q8 0 17 2.5t14 4.5l5 3v-149q-30 -20 -70 -20q-59 0 -92 42.5t-25.5 102t54.5 105.5h-65v500h201v-500zM160 733q57 0 83 -22.5t26 -71.5q0 -50 -26 -72t-84 -22q-57 0 -83 22t-26 72q0 49 26 71.5t84 22.5z" />
    <glyph glyph-name="Idotaccent" unicode="&#x130;" horiz-adv-x="344" 
d="M60 700h224v-700h-224v700zM172 906q58 0 84 -20t26 -64t-26 -63.5t-84 -19.5q-57 0 -83 20t-26 63q0 44 26 64t83 20z" />
    <glyph glyph-name="dotlessi" unicode="&#x131;" horiz-adv-x="267" 
d="M234 0h-201v500h201v-500z" />
    <glyph glyph-name="IJ" unicode="&#x132;" horiz-adv-x="943" 
d="M60 700h224v-700h-224v700zM366 210v42h212v-42q0 -71 46 -71q45 0 45 71v490h224v-490q0 -117 -64.5 -173.5t-204.5 -56.5q-134 0 -196 56.5t-62 173.5z" />
    <glyph glyph-name="ij" unicode="&#x133;" horiz-adv-x="631" 
d="M260 0h-201v500h201v-500zM346 -42q18 0 30 12.5t12 33.5v496h201v-517q0 -76 -44 -119.5t-120 -43.5h-177v138h98zM160 733q57 0 83 -22.5t26 -71.5q0 -50 -26 -72.5t-84 -21.5q-57 -1 -83 21.5t-26 72.5q0 49 26 71.5t84 22.5zM488 733q58 0 84 -22.5t26 -71.5
q0 -50 -26 -72.5t-84 -21.5q-57 -1 -83 21.5t-26 72.5q0 49 26 71.5t83 22.5z" />
    <glyph glyph-name="Kcedilla" unicode="&#x136;" horiz-adv-x="763" 
d="M284 700v-241l191 241h268l-269 -340l289 -360h-268l-211 263v-263h-224v700h224zM374 -39q43 0 59 -24t16 -68q0 -65 -33 -94t-107 -29v63q53 0 53 38q-33 0 -48 12.5t-15 39.5q0 35 19 48.5t56 13.5z" />
    <glyph glyph-name="kcedilla" unicode="&#x137;" horiz-adv-x="639" 
d="M251 700v-370l134 170h234l-189 -240l209 -260h-234l-154 192v-192h-201v700h201zM314 -39q43 0 59 -24t16 -68q0 -65 -33 -94t-107 -29v63q53 0 53 38q-33 0 -48 12.5t-15 39.5q0 35 19 48.5t56 13.5z" />
    <glyph glyph-name="Lacute" unicode="&#x139;" horiz-adv-x="580" 
d="M550 159v-159h-490v700h224v-541h266zM96 750l87 120h189l-121 -120h-155z" />
    <glyph glyph-name="lacute" unicode="&#x13a;" horiz-adv-x="303" 
d="M50 0v700h202v-700h-202zM77 750l87 120h189l-121 -120h-155z" />
    <glyph glyph-name="Lcedilla" unicode="&#x13b;" horiz-adv-x="581" 
d="M551 159v-159h-491v700h224v-541h267zM304 -39q43 0 59 -24t16 -68q0 -65 -33 -94t-107 -29v63q53 0 53 38q-33 0 -48 12.5t-15 39.5q0 35 19 48.5t56 13.5z" />
    <glyph glyph-name="lcedilla" unicode="&#x13c;" horiz-adv-x="301" 
d="M50 0v700h201v-700h-201zM154 -39q43 0 59 -24t16 -68q0 -65 -33 -94t-107 -29v63q53 0 53 38q-33 0 -48 12.5t-15 39.5q0 35 19 48.5t56 13.5z" />
    <glyph glyph-name="Lcaron" unicode="&#x13d;" horiz-adv-x="580" 
d="M550 159v-159h-490v700h224v-541h266zM398 710q43 0 59 -24t16 -68q0 -65 -33 -94t-107 -29v63q53 0 53 38q-33 0 -48 12.5t-15 39.5q0 35 19 48.5t56 13.5z" />
    <glyph glyph-name="lcaron" unicode="&#x13e;" horiz-adv-x="460" 
d="M50 0v700h201v-700h-201zM365 710q43 0 59 -24t16 -68q0 -65 -33 -94t-107 -29v63q53 0 53 38q-33 0 -48 12.5t-15 39.5q0 35 19 48.5t56 13.5z" />
    <glyph glyph-name="Lslash" unicode="&#x141;" horiz-adv-x="609" 
d="M579 159v-159h-491v301l-88 -51v137l88 51v262h224v-132l154 90v-137l-154 -90v-272h267z" />
    <glyph glyph-name="lslash" unicode="&#x142;" horiz-adv-x="418" 
d="M20 243v137l88 50v270h202v-155l88 50v-138l-88 -50v-407h-202v293z" />
    <glyph glyph-name="Nacute" unicode="&#x143;" horiz-adv-x="778" 
d="M506 700h212v-700h-256l-190 434v-434h-212v700h256l190 -434v434zM302 750l87 120h189l-120 -120h-156z" />
    <glyph glyph-name="nacute" unicode="&#x144;" horiz-adv-x="607" 
d="M226 469h1q47 41 137 41q107 0 155 -57t48 -183v-270h-202v270q0 54 -14 78t-44 24q-56 0 -56 -102v-270h-201v500h156zM308 700h200l-131 -150h-155z" />
    <glyph glyph-name="Ncedilla" unicode="&#x145;" horiz-adv-x="779" 
d="M506 700h213v-700h-257l-189 434v-434h-213v700h257l189 -434v434zM374 -39q43 0 59 -24t16 -68q0 -65 -33 -94t-107 -29v63q53 0 53 38q-33 0 -48 12.5t-15 39.5q0 35 19 48.5t56 13.5z" />
    <glyph glyph-name="ncedilla" unicode="&#x146;" horiz-adv-x="607" 
d="M226 469h1q47 41 137 41q107 0 155 -57t48 -183v-270h-202v270q0 54 -14 78t-44 24q-56 0 -56 -102v-270h-201v500h156zM305 -39q43 0 59 -24t16 -68q0 -65 -33 -94t-107 -29v63q53 0 53 38q-33 0 -48 12.5t-15 39.5q0 35 19 48.5t56 13.5z" />
    <glyph glyph-name="Ncaron" unicode="&#x147;" horiz-adv-x="778" 
d="M506 700h212v-700h-256l-190 434v-434h-212v700h256l190 -434v434zM554 870l-76 -120h-201l-76 120h133l44 -46l44 46h132z" />
    <glyph glyph-name="ncaron" unicode="&#x148;" horiz-adv-x="607" 
d="M226 469h1q47 41 137 41q107 0 155 -57t48 -183v-270h-202v270q0 54 -14 78t-44 24q-56 0 -56 -102v-270h-201v500h156zM409 550h-201l-77 150h121l57 -66l56 66h122z" />
    <glyph glyph-name="Omacron" unicode="&#x14c;" horiz-adv-x="816" 
d="M408 720q199 0 288.5 -88t89.5 -282t-89.5 -282t-288.5 -88q-198 0 -288 88t-90 282t90 282t288 88zM408 561q-74 0 -108 -50.5t-34 -160.5t34 -160.5t108 -50.5q75 0 109 50.5t34 160.5t-34 160.5t-109 50.5zM238 853h340v-106h-340v106z" />
    <glyph glyph-name="omacron" unicode="&#x14d;" horiz-adv-x="616" 
d="M308 510q151 0 219.5 -62t68.5 -198t-68.5 -198t-219.5 -62t-219.5 61.5t-68.5 198.5t68.5 198.5t219.5 61.5zM221 250q0 -64 20.5 -93t66.5 -29q45 0 65.5 29t20.5 93t-20.5 93t-65.5 29q-46 0 -66.5 -29t-20.5 -93zM137 653h340v-106h-340v106z" />
    <glyph glyph-name="Obreve" unicode="&#x14e;" horiz-adv-x="816" 
d="M408 720q199 0 288.5 -88t89.5 -282t-89.5 -282t-288.5 -88q-198 0 -288 88t-90 282t90 282t288 88zM408 561q-74 0 -108 -50.5t-34 -160.5t34 -160.5t108 -50.5q75 0 109 50.5t34 160.5t-34 160.5t-109 50.5zM581 870q0 -63 -41 -91.5t-132 -28.5t-131.5 28.5
t-40.5 91.5h144q0 -36 28 -36t28 36h145z" />
    <glyph glyph-name="obreve" unicode="&#x14f;" horiz-adv-x="616" 
d="M308 510q151 0 219.5 -62t68.5 -198t-68.5 -198t-219.5 -62t-219.5 61.5t-68.5 198.5t68.5 198.5t219.5 61.5zM221 250q0 -64 20.5 -93t66.5 -29q45 0 65.5 29t20.5 93t-20.5 93t-65.5 29q-46 0 -66.5 -29t-20.5 -93zM480 700q0 -79 -40.5 -114.5t-131.5 -35.5t-132 35.5
t-41 114.5h133q0 -30 9 -43t31 -12q39 0 39 55h133z" />
    <glyph glyph-name="Ohungarumlaut" unicode="&#x150;" horiz-adv-x="816" 
d="M408 720q199 0 288.5 -88t89.5 -282t-89.5 -282t-288.5 -88q-198 0 -288 88t-90 282t90 282t288 88zM408 561q-74 0 -108 -50.5t-34 -160.5t34 -160.5t108 -50.5q75 0 109 50.5t34 160.5t-34 160.5t-109 50.5zM215 750l75 150h190l-121 -150h-144zM460 750l75 150h189
l-120 -150h-144z" />
    <glyph glyph-name="ohungarumlaut" unicode="&#x151;" horiz-adv-x="643" 
d="M308 510q151 0 219.5 -62t68.5 -198t-68.5 -198t-219.5 -62t-219.5 61.5t-68.5 198.5t68.5 198.5t219.5 61.5zM221 250q0 -64 20.5 -93t66.5 -29q45 0 65.5 29t20.5 93t-20.5 93t-65.5 29q-46 0 -66.5 -29t-20.5 -93zM114 550l76 150h189l-121 -150h-144zM359 550l75 150
h189l-120 -150h-144z" />
    <glyph glyph-name="OE" unicode="&#x152;" horiz-adv-x="1079" 
d="M1059 552v-1h-284v-118h244v-149h-244v-137h284v-148h-485v53q-65 -74 -197 -72q-42 0 -70 4q-144 16 -210.5 104t-66.5 262q0 194 84.5 282t271.5 88q124 0 188 -71v51h485v-148zM408 561q-74 0 -108 -50.5t-34 -160.5t34 -160.5t108 -50.5q75 0 109 50t34 161
q0 110 -34 160.5t-109 50.5z" />
    <glyph glyph-name="oe" unicode="&#x153;" horiz-adv-x="948" 
d="M572 199q0 -50 17.5 -72.5t55.5 -22.5q63 0 73 55h190q-13 -76 -85 -123.5t-173 -47.5q-95 0 -159 45q-57 -44 -183 -44q-151 0 -219.5 61.5t-68.5 198.5t68.5 198.5t219.5 61.5q126 0 183 -44q64 45 159 45q124 0 201 -71.5t77 -187.5v-52h-356zM222 250q0 -64 20.5 -93
t66.5 -29q45 0 65.5 29t20.5 93t-20.5 93t-65.5 29q-46 0 -66.5 -29t-20.5 -93zM650 392q-41 0 -60 -21.5t-19 -67.5h155q0 31 -8 50.5t-24.5 29t-43.5 9.5h1h-1z" />
    <glyph glyph-name="Racute" unicode="&#x154;" horiz-adv-x="739" 
d="M337 248h-1h-52v-248h-224v700h336q145 0 216.5 -66.5t71.5 -164.5q0 -148 -135 -198l160 -271h-235zM285 386h101q35 0 55 24t20 59t-20 59t-55 24h-101v-166zM251 750l87 120h189l-121 -120h-155z" />
    <glyph glyph-name="racute" unicode="&#x155;" horiz-adv-x="452" 
d="M345 351q-56 0 -75 -19.5t-19 -81.5v-250h-201v500h156l26 -40q48 50 113 50h85v-159h-85zM156 550l86 150h200l-130 -150h-156z" />
    <glyph glyph-name="Rcedilla" unicode="&#x156;" horiz-adv-x="739" 
d="M336 248h-52v-248h-224v700h337q145 0 216.5 -66.5t71.5 -164.5q0 -148 -137 -198l161 -271h-235zM284 386h101q35 0 55.5 24t20.5 59t-20.5 59t-55.5 24h-101v-166zM374 -39q43 0 59 -24t16 -68q0 -65 -33 -94t-107 -29v63q53 0 53 38q-33 0 -48 12.5t-15 39.5
q0 35 19 48.5t56 13.5z" />
    <glyph glyph-name="rcedilla" unicode="&#x157;" horiz-adv-x="440" 
d="M345 351q-56 0 -75 -19.5t-19 -81.5v-250h-201v500h156l26 -40q48 50 113 50h85v-159h-85zM154 -39q43 0 59 -24t16 -68q0 -65 -33 -94t-107 -29v63q53 0 53 38q-33 0 -48 12.5t-15 39.5q0 35 19 48.5t56 13.5z" />
    <glyph glyph-name="Rcaron" unicode="&#x158;" horiz-adv-x="738" 
d="M327 248h-43v-248h-224v700h336q145 0 216.5 -66t71.5 -165q0 -155 -145 -202l169 -267h-235zM284 386h112q64 0 64 83t-64 83h-112v-166zM503 870l-76 -120h-201l-76 120h132l44 -46l44 46h133z" />
    <glyph glyph-name="rcaron" unicode="&#x159;" horiz-adv-x="442" 
d="M252 250v-250h-202v500h156l27 -40q48 50 113 50h86v-159h-86q-55 0 -74.5 -19.5t-19.5 -81.5zM422 700l-78 -150h-201l-77 150h121l57 -66l56 66h122z" />
    <glyph glyph-name="Sacute" unicode="&#x15a;" horiz-adv-x="676" 
d="M253 520q0 -20 21.5 -34.5t56.5 -24t77 -20t83.5 -27t76.5 -40.5t56.5 -65.5t21.5 -96.5q0 -122 -73 -177t-235 -55q-161 0 -234.5 52.5t-73.5 167.5h202q0 -43 25.5 -62.5t80.5 -19.5q50 0 73 14.5t23 47.5q0 27 -21.5 45.5t-56.5 30t-77 22.5t-84 26t-77 36.5t-56.5 59
t-21.5 88.5q0 121 71 176.5t227 55.5q157 0 227.5 -52t70.5 -168h-201q0 43 -23 62.5t-74 19.5q-44 0 -64.5 -15t-20.5 -47zM252 750l87 120h189l-121 -120h-155z" />
    <glyph glyph-name="sacute" unicode="&#x15b;" horiz-adv-x="526" 
d="M210 369q0 -19 30.5 -29.5t74 -18t87 -20.5t74 -48t30.5 -91q0 -90 -60.5 -131t-193.5 -41q-121 0 -175.5 38t-54.5 122h190q0 -54 46 -54q25 0 36 10.5t11 34.5q0 22 -29.5 33.5t-71 18t-83.5 19t-71.5 46.5t-29.5 90q0 85 56.5 123.5t181.5 38.5q119 0 173 -35.5
t54 -114.5h-179q0 23 -11.5 33.5t-36.5 10.5q-48 0 -48 -35zM172 550l85 150h201l-131 -150h-155z" />
    <glyph glyph-name="Scircumflex" unicode="&#x15c;" horiz-adv-x="676" 
d="M253 520q0 -20 21.5 -34.5t56.5 -24t77 -20t83.5 -27t76.5 -40.5t56.5 -65.5t21.5 -96.5q0 -122 -73 -177t-235 -55q-161 0 -234.5 52.5t-73.5 167.5h202q0 -43 25.5 -62.5t80.5 -19.5q50 0 73 14.5t23 47.5q0 27 -21.5 45.5t-56.5 30t-77 22.5t-84 26t-77 36.5t-56.5 59
t-21.5 88.5q0 121 71 176.5t227 55.5q157 0 227.5 -52t70.5 -168h-201q0 43 -23 62.5t-74 19.5q-44 0 -64.5 -15t-20.5 -47zM515 750h-133l-44 46l-44 -46h-132l76 120h201z" />
    <glyph glyph-name="scircumflex" unicode="&#x15d;" horiz-adv-x="526" 
d="M210 369q0 -19 30.5 -29.5t74 -18t87 -20.5t74 -48t30.5 -91q0 -90 -60.5 -131t-193.5 -41q-121 0 -175.5 38t-54.5 122h190q0 -54 46 -54q25 0 36 10.5t11 34.5q0 22 -29.5 33.5t-71 18t-83.5 19t-71.5 46.5t-29.5 90q0 85 56.5 123.5t181.5 38.5q119 0 173 -35.5
t54 -114.5h-179q0 23 -11.5 33.5t-36.5 10.5q-48 0 -48 -35zM436 550h-121l-57 66l-56 -66h-122l78 150h201z" />
    <glyph glyph-name="Scedilla" unicode="&#x15e;" horiz-adv-x="676" 
d="M279 -18q-130 9 -189.5 61.5t-59.5 156.5h202q0 -43 25.5 -62.5t80.5 -19.5q50 0 73 14.5t23 47.5q0 27 -21.5 45.5t-56.5 30t-77 22.5t-84 26t-77 36.5t-56.5 59t-21.5 88.5q0 121 71 176.5t227 55.5q157 0 227.5 -52t70.5 -168h-201q0 43 -23 62.5t-74 19.5
q-44 0 -64.5 -15t-20.5 -47q0 -20 21.5 -34.5t56.5 -24t77 -20t83.5 -27t76.5 -40.5t56.5 -65.5t21.5 -96.5q0 -113 -63.5 -168.5t-201.5 -62.5l-7 -31q10 -2 24.5 -7.5t38.5 -28.5t24 -54q0 -51 -57.5 -80.5t-155.5 -29.5v73q68 0 68 37q0 27 -63 27z" />
    <glyph glyph-name="scedilla" unicode="&#x15f;" horiz-adv-x="526" 
d="M202 -8l-1 1q-93 7 -136 45t-43 113h190q0 -54 46 -54q25 0 36 10.5t11 34.5q0 22 -29.5 33.5t-71 18t-83.5 19t-71.5 46.5t-29.5 90q0 85 56.5 123.5t181.5 38.5q119 0 173 -35.5t54 -114.5h-179q0 23 -11.5 33.5t-36.5 10.5q-48 0 -48 -35q0 -19 30.5 -29.5t74 -18
t87 -20.5t74 -48t30.5 -91q0 -81 -48.5 -122.5t-153.5 -48.5l-9 -42q10 -2 24.5 -7.5t38.5 -28.5t24 -54q0 -51 -57.5 -80.5t-155.5 -29.5v73q68 0 68 37q0 27 -63 27z" />
    <glyph glyph-name="Scaron" unicode="&#x160;" horiz-adv-x="676" 
d="M253 520q0 -20 21.5 -34.5t56.5 -24t77 -20t83.5 -27t76.5 -40.5t56.5 -65.5t21.5 -96.5q0 -122 -73 -177t-235 -55q-161 0 -234.5 52.5t-73.5 167.5h202q0 -43 25.5 -62.5t80.5 -19.5q50 0 73 14.5t23 47.5q0 27 -21.5 45.5t-56.5 30t-77 22.5t-84 26t-77 36.5t-56.5 59
t-21.5 88.5q0 121 71 176.5t227 55.5q157 0 227.5 -52t70.5 -168h-201q0 43 -23 62.5t-74 19.5q-44 0 -64.5 -15t-20.5 -47zM504 870l-76 -120h-202l-76 120h133l44 -46l44 46h133z" />
    <glyph glyph-name="scaron" unicode="&#x161;" horiz-adv-x="526" 
d="M210 369q0 -19 30.5 -29.5t74 -18t87 -20.5t74 -48t30.5 -91q0 -90 -60.5 -131t-193.5 -41q-121 0 -175.5 38t-54.5 122h190q0 -54 46 -54q25 0 36 10.5t11 34.5q0 22 -29.5 33.5t-71 18t-83.5 19t-71.5 46.5t-29.5 90q0 85 56.5 123.5t181.5 38.5q119 0 173 -35.5
t54 -114.5h-179q0 23 -11.5 33.5t-36.5 10.5q-48 0 -48 -35zM436 700l-77 -150h-201l-78 150h122l56 -66l57 66h121z" />
    <glyph glyph-name="Tcedilla" unicode="&#x162;" horiz-adv-x="656" 
d="M273 0h-57v541h-196v159h616v-159h-196v-541h-65l-11 -50q10 -2 24.5 -7.5t38.5 -28.5t24 -54q0 -51 -57.5 -80.5t-155.5 -29.5v73q68 0 68 37q0 27 -63 27z" />
    <glyph glyph-name="tcedilla" unicode="&#x163;" horiz-adv-x="469" 
d="M215 5v1q-54 13 -84.5 53.5t-30.5 103.5v221h-80v116h80v131h202v-131h137v-116h-137v-200q0 -21 12 -33.5t30 -12.5h95v-138h-123l-11 -50q10 -2 24.5 -7.5t38.5 -28.5t24 -54q0 -51 -57.5 -80.5t-154.5 -29.5v73q68 0 68 37q0 27 -64 27z" />
    <glyph glyph-name="Tcaron" unicode="&#x164;" horiz-adv-x="656" 
d="M636 700v-159h-196v-541h-224v541h-196v159h616zM494 870l-76 -120h-202l-76 120h133l44 -46l44 46h133z" />
    <glyph glyph-name="tcaron" unicode="&#x165;" horiz-adv-x="479" 
d="M302 184q0 -21 12 -33.5t30 -12.5h95v-138h-175q-76 0 -120 43.5t-44 119.5v221h-80v116h80v131h202v-131h137v-116h-137v-200zM404 734q43 0 59 -24t16 -68q0 -65 -33 -94t-107 -29v63q53 0 53 38q-33 0 -48 12.5t-15 39.5q0 35 19 48.5t56 13.5z" />
    <glyph glyph-name="Utilde" unicode="&#x168;" horiz-adv-x="736" 
d="M50 261v439h224v-439q0 -64 22.5 -93t71.5 -29t71.5 29t22.5 93v439h224v-439q0 -148 -75.5 -214.5t-242.5 -66.5t-242.5 66.5t-75.5 214.5zM195 760q0 51 33.5 81t81.5 30q40 0 66.5 -9.5t42 -18.5t29.5 -9q5 0 10.5 5.5t5.5 10.5h76q0 -51 -33 -81t-82 -30
q-53 0 -89 18.5t-48 18.5q-6 0 -11 -5.5t-5 -10.5h-77z" />
    <glyph glyph-name="utilde" unicode="&#x169;" horiz-adv-x="606" 
d="M379 31q-47 -41 -137 -41q-106 0 -154 57t-48 183v270h201v-270q0 -54 14 -78t44 -24t42.5 25t12.5 81v266h202v-500h-156zM126 600q0 53 34.5 92t80.5 39q32 0 55 -10.5t33.5 -23t20.5 -23t18 -10.5q15 0 15 26h88q0 -53 -34 -92t-81 -39q-32 0 -55 10.5t-33 23t-20 23
t-18 10.5q-6 0 -11 -7t-5 -19h-88z" />
    <glyph glyph-name="Umacron" unicode="&#x16a;" horiz-adv-x="736" 
d="M50 261v439h224v-439q0 -64 22.5 -93t71.5 -29t71.5 29t22.5 93v439h224v-439q0 -148 -75.5 -214.5t-242.5 -66.5t-242.5 66.5t-75.5 214.5zM197 854h340v-106h-340v106z" />
    <glyph glyph-name="umacron" unicode="&#x16b;" horiz-adv-x="606" 
d="M379 31q-47 -41 -137 -41q-106 0 -154 57t-48 183v270h201v-270q0 -54 14 -78t44 -24t42.5 25t12.5 81v266h202v-500h-156zM129 579v106h340v-106h-340z" />
    <glyph glyph-name="Ubreve" unicode="&#x16c;" horiz-adv-x="736" 
d="M50 261v439h224v-439q0 -64 22.5 -93t71.5 -29t71.5 29t22.5 93v439h224v-439q0 -148 -75.5 -214.5t-242.5 -66.5t-242.5 66.5t-75.5 214.5zM540 870q0 -63 -40.5 -91.5t-131.5 -28.5t-132 28.5t-41 91.5h145q0 -36 28 -36t28 36h144z" />
    <glyph glyph-name="ubreve" unicode="&#x16d;" horiz-adv-x="606" 
d="M379 31q-47 -41 -137 -41q-106 0 -154 57t-48 183v270h201v-270q0 -54 14 -78t44 -24t42.5 25t12.5 81v266h202v-500h-156zM328 700h133q0 -79 -40.5 -114.5t-131.5 -35.5t-132 35.5t-41 114.5h133q0 -30 9 -42.5t31 -12.5q39 0 39 55z" />
    <glyph glyph-name="Uring" unicode="&#x16e;" horiz-adv-x="736" 
d="M50 261v439h224v-439q0 -64 22.5 -93t71.5 -29t71.5 29t22.5 93v439h224v-439q0 -148 -75.5 -214.5t-242.5 -66.5t-242.5 66.5t-75.5 214.5zM368 913q70 0 102 -27t32 -85t-32 -84.5t-102 -26.5q-71 0 -102.5 26.5t-31.5 84.5q0 59 32 85.5t102 26.5zM368 764q34 0 34 37
q0 38 -34 38q-35 0 -35 -38q0 -37 35 -37z" />
    <glyph glyph-name="uring" unicode="&#x16f;" horiz-adv-x="606" 
d="M379 31q-47 -41 -137 -41q-106 0 -154 57t-48 183v270h201v-270q0 -54 14 -78t44 -24t42.5 25t12.5 81v266h202v-500h-156zM277 751q71 0 102.5 -26.5t31.5 -84.5t-31.5 -84.5t-102.5 -26.5q-70 0 -102 26.5t-32 84.5t32 84.5t102 26.5zM277 602q35 0 35 38t-35 38
q-34 0 -34 -38t34 -38z" />
    <glyph glyph-name="Uhungarumlaut" unicode="&#x170;" horiz-adv-x="736" 
d="M50 261v439h224v-439q0 -64 22.5 -93t71.5 -29t71.5 29t22.5 93v439h224v-439q0 -148 -75.5 -214.5t-242.5 -66.5t-242.5 66.5t-75.5 214.5zM174 750l76 150h189l-121 -150h-144zM419 750l75 150h189l-120 -150h-144z" />
    <glyph glyph-name="uhungarumlaut" unicode="&#x171;" horiz-adv-x="643" 
d="M379 31q-47 -41 -137 -41q-106 0 -154 57t-48 183v270h201v-270q0 -54 14 -78t44 -24t42.5 25t12.5 81v266h202v-500h-156zM159 700h190l-121 -150h-144zM404 700h189l-120 -150h-144z" />
    <glyph glyph-name="Uogonek" unicode="&#x172;" horiz-adv-x="736" 
d="M686 262q0 -108 -40 -171.5t-125 -89.5q-28 -32 -32 -60t28 -30q8 0 17 2.5t14 4.5l5 3v-149q-30 -20 -70 -20q-55 0 -87.5 37.5t-31 92t38.5 100.5q-11 -1 -35 -1q-167 0 -242.5 66.5t-75.5 214.5v439h224v-439q0 -64 22.5 -93t71.5 -29t71.5 29t22.5 93v439h224v-439z
" />
    <glyph glyph-name="uogonek" unicode="&#x173;" horiz-adv-x="606" 
d="M398 3l-19 28q-47 -41 -137 -41q-106 0 -154 57t-48 183v270h201v-270q0 -54 14 -78t44 -24t42.5 25t12.5 81v266h202v-500h-60q-29 -32 -32.5 -60t27.5 -31q7 0 16 2.5t15 4.5l5 3v-149q-30 -20 -70 -20q-59 0 -92 43t-24.5 103.5t57.5 106.5z" />
    <glyph glyph-name="Wcircumflex" unicode="&#x174;" horiz-adv-x="1038" 
d="M385 700h268l69 -458l82 458h224l-152 -700h-292l-73 441l-57 -441h-292l-152 700h224l82 -458zM690 750h-133l-44 46l-44 -46h-132l76 120h201z" />
    <glyph glyph-name="wcircumflex" unicode="&#x175;" horiz-adv-x="887" 
d="M742 0h-247l-52 340l-52 -340h-247l-134 500h201l65 -323l50 323h246l41 -314l63 314h201zM608 550h-122l-56 66l-57 -66h-121l77 150h201z" />
    <glyph glyph-name="Ycircumflex" unicode="&#x176;" horiz-adv-x="704" 
d="M464 257v-257h-213v257l-251 443h246l112 -229l111 229h235zM541 750h-132l-44 46l-44 -46h-133l76 120h201z" />
    <glyph glyph-name="ycircumflex" unicode="&#x177;" horiz-adv-x="556" 
d="M209 -1l5 14l-214 487h190l96 -256l80 256h190l-171 -493q-34 -98 -78 -142.5t-108 -44.5h-126v116h70q46 0 66 63zM463 550h-121l-57 66l-56 -66h-122l78 150h201z" />
    <glyph glyph-name="Ydieresis" unicode="&#x178;" horiz-adv-x="704" 
d="M464 257v-257h-213v257l-251 443h246l112 -229l111 229h235zM227 896q57 0 83 -20t26 -64t-26 -63.5t-84 -19.5q-57 0 -83 20t-26 63q0 44 26 64t84 20zM503 896q57 0 83 -20t26 -64t-26 -63.5t-84 -19.5q-57 0 -83 20t-26 63q0 44 26 64t84 20z" />
    <glyph glyph-name="Zacute" unicode="&#x179;" horiz-adv-x="650" 
d="M286 148h334v-148h-590v128l324 424h-314v148h570v-128zM227 750l87 120h189l-121 -120h-155z" />
    <glyph glyph-name="zacute" unicode="&#x17a;" horiz-adv-x="511" 
d="M254 127h237v-127h-471v106l227 267h-217v127h451v-106zM169 550l86 150h200l-131 -150h-155z" />
    <glyph glyph-name="Zdotaccent" unicode="&#x17b;" horiz-adv-x="650" 
d="M286 148h334v-148h-590v128l324 424h-314v148h570v-128zM325 906q57 0 83 -20t26 -64q0 -43 -26 -63t-83 -20q-58 0 -83.5 19.5t-25.5 63.5t25.5 64t83.5 20z" />
    <glyph glyph-name="zdotaccent" unicode="&#x17c;" horiz-adv-x="511" 
d="M254 127h237v-127h-471v106l227 267h-217v127h451v-106zM256 758q57 0 83 -22.5t26 -71.5t-26 -71.5t-84 -22.5q-57 0 -83 22.5t-26 71.5t26 71.5t84 22.5z" />
    <glyph glyph-name="Zcaron" unicode="&#x17d;" horiz-adv-x="650" 
d="M286 148h334v-148h-590v128l324 424h-314v148h570v-128zM490 870l-76 -120h-201l-76 120h133l44 -46l44 46h132z" />
    <glyph glyph-name="zcaron" unicode="&#x17e;" horiz-adv-x="511" 
d="M254 127h237v-127h-471v106l227 267h-217v127h451v-106zM434 700l-78 -150h-201l-77 150h121l57 -66l56 66h122z" />
    <glyph glyph-name="Aacutering" unicode="&#x1fa;" horiz-adv-x="719" 
d="M482 0l-30 125h-197l-32 -125h-224l214 700h314l191 -700h-236zM358 520l-67 -257h128zM490 960l-58 -58q60 -22 60 -81q0 -44 -35.5 -67t-98.5 -23t-98.5 23t-35.5 67q0 41 30.5 64t84.5 26l31 49h120zM357 794q46 0 46 27q0 28 -46 28t-46 -28q0 -27 46 -27z" />
    <glyph glyph-name="aacutering" unicode="&#x1fb;" horiz-adv-x="576" 
d="M357 34q-48 -44 -146 -44q-101 0 -146 38t-45 123q0 89 60.5 129.5t194.5 40.5h59v19q0 34 -12 49t-40 15q-52 0 -52 -54h-190q0 84 59 122t189 38t189 -45t59 -146v-319h-156zM334 216h-40q-35 0 -54 -10.5t-19 -43.5q0 -25 11 -34.5t36 -9.5q66 0 66 80v18zM345 778
h145l-98 -80q31 -26 31 -69q0 -45 -36.5 -73t-97.5 -28t-97.5 28t-36.5 73t36.5 73t97.5 28h12zM288 602q34 0 34 27t-34 27q-35 0 -35 -27t35 -27z" />
    <glyph glyph-name="AEacute" unicode="&#x1fc;" horiz-adv-x="969" 
d="M949 552h-280v-118h240v-149h-240v-137h280v-148h-481v125h-188l-56 -125h-224l333 700h616v-148zM468 544l-126 -281h126v281zM474 750l87 120h189l-121 -120h-155z" />
    <glyph glyph-name="aeacute" unicode="&#x1fd;" horiz-adv-x="904" 
d="M535 199q0 -49 18.5 -71t58.5 -22q56 0 68 55h190q-15 -90 -76.5 -130.5t-181.5 -40.5q-149 0 -195 104q-42 -104 -206 -104q-101 0 -146 38t-45 123q0 43 15 75t38 50t58 28.5t67 13.5t73 3h63v19q0 29 -12 41.5t-38 12.5q-30 0 -42 -10t-12 -34h-190q0 84 59 122
t189 38q115 0 162 -54q53 54 162 54q146 0 212 -61.5t66 -197.5v-52h-355zM334 215h-36q-41 0 -59 -13t-18 -41q0 -24 10.5 -34t36.5 -10q37 0 51.5 19.5t14.5 64.5v14zM690 305h1q0 47 -18.5 68t-58.5 21t-58.5 -21t-18.5 -68h153zM374 550l85 150h200l-130 -150h-155z" />
    <glyph glyph-name="Oslashacute" unicode="&#x1fe;" horiz-adv-x="816" 
d="M403 720q27 0 63 -2l22 62h133l-30 -85q101 -34 148 -118.5t47 -226.5q0 -194 -89.5 -282t-286.5 -88q-37 0 -67 3l-22 -63h-133l30 88q-97 35 -142.5 118.5t-45.5 223.5q0 194 89 282t284 88zM408 561q-75 0 -108.5 -51.5t-33.5 -166.5q0 -39 4.5 -69t17 -62t40 -51.5
t69.5 -21.5h11q75 0 109 51t34 166q0 41 -5 72.5t-18.5 64t-43 50.5t-73.5 18h-3zM288 750l87 120h189l-121 -120h-155z" />
    <glyph glyph-name="oslashacute" unicode="&#x1ff;" horiz-adv-x="616" 
d="M353 509l21 61h88l-26 -75q83 -22 121.5 -82t38.5 -163q0 -136 -68.5 -198t-219.5 -62q-31 0 -46 1l-21 -61h-88l26 75q-82 22 -120.5 82t-38.5 163q0 137 68.5 198.5t219.5 61.5q30 0 45 -1zM394 250q0 64 -21 93t-67 29q-44 0 -64.5 -29t-20.5 -93t21 -93t67 -29
q44 0 64.5 29t20.5 93zM176 550l86 150h200l-131 -150h-155z" />
    <glyph glyph-name="Scommaaccent" unicode="&#x218;" horiz-adv-x="676" 
d="M253 520q0 -20 21.5 -34.5t56.5 -24t77 -20t83.5 -27t76.5 -40.5t56.5 -65.5t21.5 -96.5q0 -122 -73 -177t-235 -55q-161 0 -234.5 52.5t-73.5 167.5h202q0 -43 25.5 -62.5t80.5 -19.5q50 0 73 14.5t23 47.5q0 27 -21.5 45.5t-56.5 30t-77 22.5t-84 26t-77 36.5t-56.5 59
t-21.5 88.5q0 121 71 176.5t227 55.5q157 0 227.5 -52t70.5 -168h-201q0 43 -23 62.5t-74 19.5q-44 0 -64.5 -15t-20.5 -47zM337 -39q43 0 59 -24t16 -68q0 -65 -33 -94t-107 -29v63q53 0 53 38q-33 0 -48 12.5t-15 39.5q0 35 19 48.5t56 13.5z" />
    <glyph glyph-name="scommaaccent" unicode="&#x219;" horiz-adv-x="526" 
d="M210 369q0 -19 30.5 -29.5t74 -18t87 -20.5t74 -48t30.5 -91q0 -90 -61 -131t-194 -41q-121 0 -175.5 38t-54.5 122h190q0 -28 11 -41t36 -13q46 0 46 45q0 19 -21 30.5t-52.5 15.5t-68.5 13.5t-68.5 23t-52.5 45.5t-21 79q0 85 56.5 123.5t181.5 38.5q119 0 172.5 -35.5
t53.5 -114.5h-178q0 44 -48 44t-48 -35zM255 -39q43 0 59 -24t16 -68q0 -65 -33 -94t-107 -29v63q53 0 53 38q-33 0 -48 12.5t-15 39.5q0 35 19 48.5t56 13.5z" />
    <glyph glyph-name="uni021A" unicode="&#x21a;" horiz-adv-x="656" 
d="M636 700v-159h-196v-541h-224v541h-196v159h616zM335 -39q43 0 59 -24t16 -68q0 -65 -33 -94t-107 -29v63q53 0 53 38q-33 0 -48 12.5t-15 39.5q0 35 19 48.5t56 13.5z" />
    <glyph glyph-name="uni021B" unicode="&#x21b;" horiz-adv-x="469" 
d="M302 184q0 -21 12 -33.5t30 -12.5h95v-138h-175q-76 0 -120 43.5t-44 119.5v221h-80v116h80v131h202v-131h137v-116h-137v-200zM263 -39q43 0 59 -24t16 -68q0 -65 -33 -94t-107 -29v63q53 0 53 38q-33 0 -48 12.5t-15 39.5q0 35 19 48.5t56 13.5z" />
    <glyph glyph-name="circumflex" unicode="&#x2c6;" horiz-adv-x="396" 
d="M298 700l78 -150h-122l-56 66l-57 -66h-121l77 150h201z" />
    <glyph glyph-name="caron" unicode="&#x2c7;" horiz-adv-x="396" 
d="M376 700l-78 -150h-201l-77 150h121l57 -66l56 66h122z" />
    <glyph glyph-name="breve" unicode="&#x2d8;" horiz-adv-x="385" 
d="M232 700h133q0 -79 -41 -114.5t-132 -35.5t-131.5 35.5t-40.5 114.5h133q0 -30 9 -42.5t30 -12.5q40 0 40 55z" />
    <glyph glyph-name="dotaccent" unicode="&#x2d9;" horiz-adv-x="258" 
d="M129 754q57 0 83 -22.5t26 -72.5q0 -49 -26 -71.5t-83 -22.5t-83 22.5t-26 71.5q0 50 25.5 72.5t83.5 22.5z" />
    <glyph glyph-name="ring" unicode="&#x2da;" horiz-adv-x="308" 
d="M154 731q70 0 102 -26.5t32 -84.5t-32 -84.5t-102 -26.5q-71 0 -102.5 26.5t-31.5 84.5t31.5 84.5t102.5 26.5zM154 582q34 0 34 38t-34 38q-35 0 -35 -38t35 -38z" />
    <glyph glyph-name="ogonek" unicode="&#x2db;" horiz-adv-x="228" 
d="M101 21h99q-42 -31 -54 -72q-9 -39 26 -40q7 0 16 2.5t14 4.5l6 3v-149q-30 -20 -70 -20q-63 0 -96 48.5t-18 114t77 108.5z" />
    <glyph glyph-name="tilde" unicode="&#x2dc;" horiz-adv-x="385" 
d="M20 600q0 53 34 92t81 39q32 0 55 -10.5t33 -23t20 -23t18 -10.5q6 0 11 7t5 19h88q0 -53 -34.5 -92t-80.5 -39q-32 0 -55 10.5t-33 23t-20 23t-18 10.5q-16 0 -16 -26h-88z" />
    <glyph glyph-name="hungarumlaut" unicode="&#x2dd;" horiz-adv-x="549" 
d="M20 550l75 150h189l-120 -150h-144zM264 550l75 150h190l-121 -150h-144z" />
    <glyph glyph-name="Wgrave" unicode="&#x1e80;" horiz-adv-x="1038" 
d="M385 700h268l69 -458l82 458h224l-152 -700h-292l-73 441l-57 -441h-292l-152 700h224l82 -458zM600 750h-144l-132 120h178z" />
    <glyph glyph-name="wgrave" unicode="&#x1e81;" horiz-adv-x="887" 
d="M742 0h-247l-52 340l-52 -340h-247l-134 500h201l65 -323l50 323h246l41 -314l63 314h201zM516 550h-155l-131 150h201z" />
    <glyph glyph-name="Wacute" unicode="&#x1e82;" horiz-adv-x="1038" 
d="M385 700h268l69 -458l82 458h224l-152 -700h-292l-73 441l-57 -441h-292l-152 700h224l82 -458zM427 750l87 120h189l-121 -120h-155z" />
    <glyph glyph-name="wacute" unicode="&#x1e83;" horiz-adv-x="887" 
d="M742 0h-247l-52 340l-52 -340h-247l-134 500h201l65 -323l50 323h246l41 -314l63 314h201zM332 550l86 150h200l-131 -150h-155z" />
    <glyph glyph-name="Wdieresis" unicode="&#x1e84;" horiz-adv-x="1039" 
d="M385 700v-1h268h1l68 -458l83 458h224l-153 -700h-291l-73 445l-58 -444h-292l-152 700h224l82 -456zM376 895q57 0 83 -20t26 -64t-26 -63.5t-84 -19.5q-57 0 -83 20t-26 63q0 44 26 64t84 20zM652 895q57 0 83 -20t26 -64t-26 -63.5t-84 -19.5q-57 0 -83 20t-26 63
q0 44 26 64t84 20z" />
    <glyph glyph-name="wdieresis" unicode="&#x1e85;" horiz-adv-x="888" 
d="M743 0h-246l-53 343l-53 -343h-246l-135 500h202l65 -325l50 325h246l40 -315l63 315h202zM314 750q58 0 83.5 -23.5t25.5 -76.5q0 -52 -26 -75.5t-83 -23.5q-58 0 -83.5 23.5t-25.5 75.5q0 53 25.5 76.5t83.5 23.5zM572 750q58 0 84 -24t26 -76t-26 -75.5t-84 -23.5
t-83.5 23.5t-25.5 75.5t26 76t83 24z" />
    <glyph glyph-name="uni1E9E" unicode="&#x1e9e;" horiz-adv-x="694" 
d="M340 720q47 0 84 -3.5t78 -15t68.5 -31.5t45.5 -55.5t18 -84.5q0 -51 -18 -83t-59 -58q56 -27 81.5 -69.5t25.5 -108.5q0 -110 -54.5 -160.5t-172.5 -50.5q-36 0 -64 5t-37 10l-10 5v127q26 -9 54 -9q44 0 63.5 19t19.5 62q0 50 -28 73t-89 23v126q51 0 74.5 16t23.5 50
q0 40 -22 57.5t-70 17.5q-101 0 -101 -104v-478h-201v469q0 251 290 251z" />
    <glyph glyph-name="Ygrave" unicode="&#x1ef2;" horiz-adv-x="704" 
d="M464 257v-257h-213v257l-251 443h246l112 -229l111 229h235zM451 750h-143l-133 120h178z" />
    <glyph glyph-name="ygrave" unicode="&#x1ef3;" horiz-adv-x="556" 
d="M209 -1l5 14l-214 487h190l96 -256l80 256h190l-171 -493q-34 -98 -78 -142.5t-108 -44.5h-126v116h70q46 0 66 63zM372 550h-155l-131 150h201z" />
    <glyph glyph-name="endash" unicode="&#x2013;" horiz-adv-x="560" 
d="M540 334v-138h-520v138h520z" />
    <glyph glyph-name="emdash" unicode="&#x2014;" horiz-adv-x="780" 
d="M760 334v-138h-740v138h740z" />
    <glyph glyph-name="quoteleft" unicode="&#x2018;" horiz-adv-x="279" 
d="M153 315h-1q-71 0 -96.5 41.5t-25.5 114.5q0 121 49.5 175t159.5 54v-84q-46 0 -66 -24t-20 -78q51 0 73.5 -23.5t22.5 -76.5q0 -51 -22.5 -75t-73.5 -24z" />
    <glyph glyph-name="quoteright" unicode="&#x2019;" horiz-adv-x="277" 
d="M126 710h-1h1zM126 710q36 0 61.5 -12t37.5 -35.5t17 -49t5 -59.5q0 -121 -49 -175t-159 -54v84q46 0 66.5 24t20.5 78q-51 0 -73.5 23.5t-22.5 76.5q0 51 22 75t74 24h-1h1z" />
    <glyph glyph-name="quotesinglbase" unicode="&#x201a;" horiz-adv-x="258" 
d="M116 189h-1h1zM116 189q36 0 61.5 -12t37.5 -35.5t17 -49t5 -59.5q0 -121 -49 -175t-159 -54v84q46 0 66.5 24t20.5 78q-51 0 -73.5 23.5t-22.5 76.5q0 51 22 75t74 24h-1h1z" />
    <glyph glyph-name="quotedblleft" unicode="&#x201c;" horiz-adv-x="558" 
d="M153 315h-1q-71 0 -96.5 41.5t-25.5 114.5q0 121 49.5 175t159.5 54v-84q-46 0 -66 -24t-20 -78q51 0 73.5 -23.5t22.5 -76.5q0 -51 -22.5 -75t-73.5 -24zM432 315h-1q-71 0 -96.5 41.5t-25.5 114.5q0 121 49.5 175t159.5 54v-84q-46 0 -66 -24t-20 -78q51 0 73.5 -23.5
t22.5 -76.5q0 -51 -22.5 -75t-73.5 -24z" />
    <glyph glyph-name="quotedblright" unicode="&#x201d;" horiz-adv-x="556" 
d="M126 710h-1h1zM126 710q36 0 61.5 -12t37.5 -35.5t17 -49t5 -59.5q0 -121 -49 -175t-159 -54v84q46 0 66.5 24t20.5 78q-51 0 -73.5 23.5t-22.5 76.5q0 51 22 75t74 24h-1h1zM405 710h-1h1zM405 710h-1q37 0 62.5 -12t37.5 -35.5t17 -49t5 -59.5q0 -121 -49 -175
t-159 -54v84q46 0 66.5 24t20.5 78q-51 0 -73.5 23.5t-22.5 76.5q0 51 22 75t73 24h1z" />
    <glyph glyph-name="quotedblbase" unicode="&#x201e;" horiz-adv-x="538" 
d="M116 189h-1h1zM116 189q36 0 61.5 -12t37.5 -35.5t17 -49t5 -59.5q0 -121 -49 -175t-159 -54v84q46 0 66.5 24t20.5 78q-51 0 -73.5 23.5t-22.5 76.5q0 51 22 75t74 24h-1h1zM395 189h-1h1zM395 189h-1q37 0 62.5 -12t37.5 -35.5t17 -49t5 -59.5q0 -81 -21.5 -131
t-67.5 -74t-119 -24v84q46 0 66.5 24t20.5 78q-51 0 -73.5 23.5t-22.5 76.5q0 25 5 43t16.5 31t30 19t43.5 6h1z" />
    <glyph glyph-name="ellipsis" unicode="&#x2026;" horiz-adv-x="932" 
d="M129 188q58 0 83.5 -23.5t25.5 -75.5t-26 -76t-83 -24q-58 0 -83.5 23.5t-25.5 76.5q0 52 25.5 75.5t83.5 23.5zM466 188q57 0 83 -23.5t26 -75.5q0 -53 -26 -76.5t-84 -23.5q-57 0 -83 24t-26 76t26 75.5t84 23.5zM802 188q58 0 84 -23.5t26 -75.5q0 -53 -26 -76.5
t-84 -23.5t-83.5 23.5t-25.5 76.5q0 52 26 75.5t83 23.5z" />
    <glyph glyph-name="perthousand" unicode="&#x2030;" horiz-adv-x="1337" 
d="M718 390q96 0 140 -47.5t44 -153.5q0 -105 -44 -152.5t-140 -47.5q-97 0 -140.5 47.5t-43.5 152.5q0 106 43.5 153.5t140.5 47.5zM718 94q39 0 39 95t-39 95q-40 0 -40 -95t40 -95zM1133 390q97 0 140.5 -47.5t43.5 -153.5q0 -105 -43.5 -152.5t-140.5 -47.5t-140.5 47.5
t-43.5 152.5q0 106 43.5 153.5t140.5 47.5zM1133 94q39 0 39 95t-39 95t-39 -95t39 -95zM204 710q97 0 140.5 -47.5t43.5 -153.5q0 -105 -43.5 -152.5t-140.5 -47.5q-96 0 -140 47.5t-44 152.5q0 106 44 153.5t140 47.5zM204 414q40 0 40 95t-39 95q-40 0 -40 -95t39 -95z
M330 -30h-178l440 760h178z" />
    <glyph glyph-name="guilsinglleft" unicode="&#x2039;" horiz-adv-x="361" 
d="M152 450h189l-120 -190l120 -200h-189l-132 200z" />
    <glyph glyph-name="guilsinglright" unicode="&#x203a;" horiz-adv-x="361" 
d="M20 450h190l131 -190l-131 -200h-190l120 200z" />
    <glyph glyph-name="lira" unicode="&#x20a4;" horiz-adv-x="701" 
d="M661 148l-2 -1v-148h-609v169q42 20 60 60h-59v95h73v24h-73v95h73v58q0 116 61 167.5t196 51.5q125 0 187 -49t62 -170h-190q0 93 -58 93q-32 0 -44 -21t-12 -72v-58h208v-95h-208v-24h208v-95h-221q-22 -54 -83 -80h431z" />
    <glyph glyph-name="Euro" unicode="&#x20ac;" horiz-adv-x="824" 
d="M569 240h1h224q-29 -136 -110.5 -198t-230.5 -62q-166 0 -254.5 61.5t-111.5 195.5h-87v95h78v18v18h-78v95h87q22 134 110.5 196t254.5 62q159 0 240.5 -62t100.5 -198h-224q-10 52 -38.5 76.5t-78.5 24.5q-99 0 -127 -99h185v-95h-197v-18v-18h157v-95h-145
q28 -98 127 -98q52 0 80 24.5t37 76.5z" />
    <glyph glyph-name="trademark" unicode="&#x2122;" horiz-adv-x="1293" 
d="M472 700v-148h-131v-352h-190v352h-131v148h452zM524 200v500h256l104 -309l104 309h245v-500h-190v277l-98 -277h-133l-98 277v-277h-190z" />
    <glyph glyph-name="minus" unicode="&#x2212;" horiz-adv-x="370" 
d="M350 196h-330v138h330v-138z" />
    <glyph glyph-name="approxequal" unicode="&#x2248;" horiz-adv-x="640" 
d="M20 105v127q40 41 86 54t89 3t88 -29t89 -39.5t85.5 -32t84 -2t78.5 45.5v-127q-40 -41 -86 -53.5t-89 -3t-88 28.5t-89 39.5t-85.5 32t-84 2t-78.5 -45.5zM20 307v126q40 41 86 54t89 3.5t88 -29t89 -40t85.5 -32t84 -2t78.5 45.5v-126q-40 -41 -86 -54t-89 -3t-88 29
t-89 39t-85.5 32t-84 2.5t-78.5 -45.5z" />
    <glyph glyph-name="notequal" unicode="&#x2260;" horiz-adv-x="651" 
d="M182 0l34 95h-196v138h246l23 64h-269v138h319l23 65h110l-23 -65h182v-138h-232l-23 -64h255v-138h-305l-34 -95h-110z" />
    <glyph glyph-name="lessequal" unicode="&#x2264;" horiz-adv-x="440" 
d="M20 0v148h400v-148h-400zM20 545l400 155v-170l-208 -80l208 -80v-170l-400 155v190z" />
    <glyph glyph-name="greaterequal" unicode="&#x2265;" horiz-adv-x="440" 
d="M20 0v148h399v-148h-399zM20 700l400 -155v-190l-400 -155v170l208 80l-208 80v170z" />
    <glyph glyph-name="uniE132" unicode="&#xe132;" horiz-adv-x="624" 
d="M251 0h-201v500h201v-500zM324 -42q18 0 30 12.5t12 33.5v496h201v-517q0 -76 -43.5 -119.5t-120.5 -43.5h-177v138h98zM53 550l86 150h200l-131 -150h-155zM369 550l85 150h200l-130 -150h-155z" />
    <glyph glyph-name="uniE133" unicode="&#xe133;" horiz-adv-x="951" 
d="M60 700h224v-700h-224v700zM366 210v42h213v-42q0 -71 45 -71t45 71v490h224v-490q0 -117 -64.5 -173.5t-204.5 -56.5q-134 0 -196 56.5t-62 173.5zM85 750l87 120h189l-120 -120h-156zM695 750l87 120h189l-121 -120h-155z" />
    <glyph glyph-name="a.alt1" 
d="M241 -10q-116 0 -168.5 61.5t-52.5 198.5t52.5 198.5t168.5 61.5q102 0 155 -47l24 37h156v-500h-156l-24 37q-53 -47 -155 -47zM298 128q40 0 58 29t18 93t-18 93t-58 29q-41 0 -59 -29t-18 -93t18 -93t59 -29z" />
    <glyph glyph-name="aacute.alt1" 
d="M241 -10q-116 0 -168.5 61.5t-52.5 198.5t52.5 198.5t168.5 61.5q102 0 155 -47l24 37h156v-500h-156l-24 37q-53 -47 -155 -47zM298 128q40 0 58 29t18 93t-18 93t-58 29q-41 0 -59 -29t-18 -93t18 -93t59 -29zM294 700h201l-131 -150h-155z" />
    <glyph glyph-name="aacutering.alt1" 
d="M241 -10q-116 0 -168.5 61.5t-52.5 198.5t52.5 198.5t168.5 61.5q102 0 155 -47l24 37h156v-500h-156l-24 37q-53 -47 -155 -47zM298 128q40 0 58 29t18 93t-18 93t-58 29q-41 0 -59 -29t-18 -93t18 -93t59 -29zM330 732l46 48h144l-99 -80q31 -26 31 -69
q0 -45 -37 -72.5t-97 -27.5q-61 0 -97.5 27.5t-36.5 72.5t36.5 73t97.5 28h12zM318 604q34 0 34 27q0 28 -34 28q-35 0 -35 -28q0 -27 35 -27z" />
    <glyph glyph-name="abreve.alt1" 
d="M241 -10q-116 0 -168.5 61.5t-52.5 198.5t52.5 198.5t168.5 61.5q102 0 155 -47l24 37h156v-500h-156l-24 37q-53 -47 -155 -47zM298 128q40 0 58 29t18 93t-18 93t-58 29q-41 0 -59 -29t-18 -93t18 -93t59 -29zM357 700h133q0 -79 -40.5 -114.5t-131.5 -35.5t-132 35.5
t-41 114.5h133q0 -30 9 -42.5t31 -12.5q39 0 39 55z" />
    <glyph glyph-name="acircumflex.alt1" 
d="M241 -10q-116 0 -168.5 61.5t-52.5 198.5t52.5 198.5t168.5 61.5q102 0 155 -47l24 37h156v-500h-156l-24 37q-53 -47 -155 -47zM298 128q40 0 58 29t18 93t-18 93t-58 29q-41 0 -59 -29t-18 -93t18 -93t59 -29zM418 700l78 -150h-122l-56 66l-57 -66h-121l77 150h201z
" />
    <glyph glyph-name="acute.case" horiz-adv-x="316" 
d="M20 550l87 120h189l-121 -120h-155z" />
    <glyph glyph-name="adieresis.alt1" 
d="M241 -10q-116 0 -168.5 61.5t-52.5 198.5t52.5 198.5t168.5 61.5q102 0 155 -47l24 37h156v-500h-156l-24 37q-53 -47 -155 -47zM298 128q40 0 58 29t18 93t-18 93t-58 29q-41 0 -59 -29t-18 -93t18 -93t59 -29zM176 750q58 0 83.5 -23.5t25.5 -76.5q0 -52 -26 -75.5
t-83 -23.5q-58 0 -83.5 23.5t-25.5 75.5q0 53 25.5 76.5t83.5 23.5zM434 750q58 0 84 -24t26 -76t-26 -75.5t-84 -23.5t-83.5 23.5t-25.5 75.5t26 76t83 24z" />
    <glyph glyph-name="agrave.alt1" 
d="M241 -10q-116 0 -168.5 61.5t-52.5 198.5t52.5 198.5t168.5 61.5q102 0 155 -47l24 37h156v-500h-156l-24 37q-53 -47 -155 -47zM298 128q40 0 58 29t18 93t-18 93t-58 29q-41 0 -59 -29t-18 -93t18 -93t59 -29zM285 700l85 -150h-155l-131 150h201z" />
    <glyph glyph-name="amacron.alt1" 
d="M241 -10q-116 0 -168.5 61.5t-52.5 198.5t52.5 198.5t168.5 61.5q102 0 155 -47l24 37h156v-500h-156l-24 37q-53 -47 -155 -47zM298 128q40 0 58 29t18 93t-18 93t-58 29q-41 0 -59 -29t-18 -93t18 -93t59 -29zM147 577v106h340v-106h-340z" />
    <glyph glyph-name="aogonek.alt1" 
d="M416 6h1l-21 31q-53 -47 -155 -47q-116 0 -168.5 61.5t-52.5 198.5t52.5 198.5t168.5 61.5q102 0 155 -47l24 37h156v-500h-64q-29 -32 -33.5 -60.5t27.5 -30.5q8 0 17 2.5t14 4.5l5 3v-149q-30 -20 -70 -20q-60 0 -92.5 44t-23.5 105.5t60 106.5zM298 128q40 0 58 29
t18 93t-18 93t-58 29q-41 0 -59 -29t-18 -93t18 -93t59 -29z" />
    <glyph glyph-name="aring.alt1" 
d="M241 -10q-116 0 -168.5 61.5t-52.5 198.5t52.5 198.5t168.5 61.5q102 0 155 -47l24 37h156v-500h-156l-24 37q-53 -47 -155 -47zM298 128q40 0 58 29t18 93t-18 93t-58 29q-41 0 -59 -29t-18 -93t18 -93t59 -29zM318 751q70 0 102 -26.5t32 -84.5t-32 -84.5t-102 -26.5
q-71 0 -102.5 26.5t-31.5 84.5t31.5 84.5t102.5 26.5zM318 602q34 0 34 38t-34 38q-35 0 -35 -38t35 -38z" />
    <glyph glyph-name="atilde.alt1" 
d="M241 -10q-116 0 -168.5 61.5t-52.5 198.5t52.5 198.5t168.5 61.5q102 0 155 -47l24 37h156v-500h-156l-24 37q-53 -47 -155 -47zM298 128q40 0 58 29t18 93t-18 93t-58 29q-41 0 -59 -29t-18 -93t18 -93t59 -29zM145 581q0 53 34.5 92t80.5 39q32 0 55 -10.5t33.5 -23
t20.5 -23t18 -10.5q15 0 15 26h88q0 -53 -34 -92.5t-81 -39.5q-32 0 -55 10.5t-33 23.5t-20 23t-18 10q-6 0 -11 -6.5t-5 -18.5h-88z" />
    <glyph glyph-name="breve.case" horiz-adv-x="385" 
d="M220 670h145q0 -63 -41 -91.5t-132 -28.5t-131.5 28.5t-40.5 91.5h144q0 -35 30 -36q26 1 26 36z" />
    <glyph glyph-name="caron.case" horiz-adv-x="393" 
d="M373 670l-76 -120h-201l-76 120h132l44 -46l44 46h133z" />
    <glyph glyph-name="circumflex.case" horiz-adv-x="393" 
d="M297 670l76 -120h-133l-44 46l-44 -46h-132l76 120h201z" />
    <glyph glyph-name="commaaccent" horiz-adv-x="190" 
d="M95 -39q43 0 59 -24t16 -68q0 -65 -33 -94t-107 -29v63q53 0 53 38q-33 0 -48 12.5t-15 39.5q0 35 19 48.5t56 13.5z" />
    <glyph glyph-name="dieresis.case" horiz-adv-x="534" 
d="M129 721q57 0 83 -19.5t26 -63.5t-26 -64t-83 -20q-58 0 -83.5 20t-25.5 64t25.5 63.5t83.5 19.5zM405 721q57 0 83 -19.5t26 -63.5t-26 -64t-83 -20q-58 0 -83.5 20t-25.5 64t25.5 63.5t83.5 19.5z" />
    <glyph glyph-name="dotaccent.case" horiz-adv-x="258" 
d="M129 716q57 0 83 -19.5t26 -64.5q0 -43 -26 -63t-83 -20q-58 0 -83.5 19.5t-25.5 63.5t25.5 64t83.5 20z" />
    <glyph glyph-name="grave.case" horiz-adv-x="316" 
d="M197 670l99 -120h-144l-132 120h177z" />
    <glyph glyph-name="hungarumlaut.case" horiz-adv-x="526" 
d="M20 550l75 120h178l-110 -120h-143zM253 550l76 120h177l-109 -120h-144z" />
    <glyph glyph-name="tilde.case" horiz-adv-x="385" 
d="M20 580q0 52 28.5 81.5t76.5 29.5q32 0 55.5 -7.5t34 -16t23 -16t24.5 -7.5q25 0 26 26h77q0 -52 -28.5 -81.5t-76.5 -29.5q-40 0 -66.5 11.5t-42 23.5t-29.5 12q-27 0 -26 -26h-76z" />
    </font>
</defs>
</svg>
