<?xml version="1.0" standalone="no"?>
<!DOCTYPE svg PUBLIC "-//W3C//DTD SVG 1.1//EN" "http://www.w3.org/Graphics/SVG/1.1/DTD/svg11.dtd" >
<svg xmlns="http://www.w3.org/2000/svg" xmlns:xlink="http://www.w3.org/1999/xlink" version="1.1">
<metadata>
Created by FontForge 20170731 at Thu Jun 29 23:38:10 2017
 By ,,,
Copyright (c) 2017 by Alexander Slobzheninov. All rights reserved.
</metadata>
<defs>
<font id="FivoSans-BlackOblique" horiz-adv-x="626" >
  <font-face 
    font-family="Fivo Sans Black"
    font-weight="900"
    font-style="oblique"
    font-stretch="normal"
    units-per-em="1000"
    panose-1="0 0 0 0 0 0 0 0 0 0"
    ascent="800"
    descent="-200"
    x-height="500"
    cap-height="700"
    bbox="-105 -254 1348.26 960"
    underline-thickness="50"
    underline-position="875"
    unicode-range="U+000D-E133"
  />
<missing-glyph horiz-adv-x="200" 
 />
    <glyph glyph-name=".notdef" horiz-adv-x="200" 
 />
    <glyph glyph-name=".null" horiz-adv-x="0" 
 />
    <glyph glyph-name="nonmarkingreturn" horiz-adv-x="333" 
 />
    <glyph glyph-name="NULL" horiz-adv-x="745" 
d="M158 700h625l-98 -700h-625zM326 541l-54 -382h245l54 382h-245z" />
    <glyph glyph-name="NULL" horiz-adv-x="745" 
d="M158 700h625l-98 -700h-625zM326 541l-54 -382h245l54 382h-245z" />
    <glyph glyph-name="CR" unicode="&#xd;" horiz-adv-x="250" 
 />
    <glyph glyph-name="space" unicode=" " horiz-adv-x="300" 
 />
    <glyph glyph-name="exclam" unicode="!" horiz-adv-x="318" 
d="M185.5 189q57.5 0 80 -23.5t15.5 -75.5q-8 -52 -37 -76t-86 -24q-58 0 -80.5 23.5t-14.5 76.5q7 52 36 75.5t86.5 23.5zM151 700h212l-26 -190l-80 -249h-122l-10 249z" />
    <glyph glyph-name="quotedbl" unicode="&#x22;" horiz-adv-x="474" 
d="M306 700l-19 -140l-57 -248h-134l13 248l19 140h178zM542 700l-19 -140l-57 -248h-134l13 248l19 140h178z" />
    <glyph glyph-name="numbersign" unicode="#" horiz-adv-x="710" 
d="M344 0l47 166h-77l-47 -166h-145l47 166h-116l18 127h134l24 83h-116l18 127h134l55 197h145l-55 -197h77l55 197h144l-55 -197h120l-18 -127h-138l-24 -83h120l-18 -127h-138l-47 -166h-144zM451 376h-77l-24 -83h77z" />
    <glyph glyph-name="dollar" unicode="$" horiz-adv-x="676" 
d="M402 -100h-156l12 84q-118 11 -166 63t-34 153h202q-6 -43 16.5 -62.5t78.5 -19.5q50 0 75 14.5t29 47.5q4 24 -10.5 41.5t-41 27.5t-60.5 21t-69.5 20t-68.5 25.5t-58 37.5t-37 55.5t-5 79.5q14 105 74.5 160t177.5 68l11 84h156l-11 -84q112 -12 157.5 -64t31.5 -152
h-201q6 43 -14 62.5t-71 19.5q-44 0 -66.5 -15t-27.5 -47q-3 -20 17 -34.5t53 -24t73.5 -20t80 -27t71 -40.5t47.5 -65.5t8 -96.5q-15 -106 -78 -161t-184 -67z" />
    <glyph glyph-name="percent" unicode="%" horiz-adv-x="922" 
d="M304 710q97 0 133.5 -47.5t22.5 -153.5q-15 -105 -65.5 -152.5t-147.5 -47.5q-96 0 -133 47.5t-22 152.5q14 106 65 153.5t147 47.5zM262 414q21 0 34 22.5t20 72.5t0.5 72.5t-26.5 22.5q-21 0 -33.5 -22.5t-19.5 -72.5q-14 -95 25 -95zM326 -30h-178l547 760h178z
M773 390q96 0 133 -47.5t23 -153.5q-15 -105 -65.5 -152.5t-147.5 -47.5q-96 0 -133 47.5t-22 152.5q10 71 35 115t68.5 65t108.5 21zM731 94q39 0 53 95q7 50 0.5 72.5t-26.5 22.5q-21 0 -33.5 -22.5t-19.5 -72.5q-7 -49 -1 -72t27 -23z" />
    <glyph glyph-name="ampersand" unicode="&#x26;" horiz-adv-x="811" 
d="M811 0h-247l-26 30q-91 -50 -244 -50q-144 0 -202 46.5t-43 153.5q10 70 57.5 120t123.5 90q-50 77 -42 135q14 102 78 148.5t192 46.5q117 0 164.5 -39t35.5 -124q-4 -32 -20 -59.5t-43 -50t-52.5 -39t-63.5 -35.5l87 -97q14 34 25 73h156q-30 -116 -76 -191zM448 135
l-130 148q-46 -36 -53 -87q-6 -40 14.5 -59.5t69.5 -19.5q59 0 99 18zM400 468q20 10 35 18.5t27.5 19t20 23t9.5 27.5q7 47 -56 47q-15 0 -26 -2.5t-19 -8.5t-12.5 -15.5t-6.5 -22.5q-6 -41 28 -86z" />
    <glyph glyph-name="quotesingle" unicode="'" horiz-adv-x="238" 
d="M306 700l-19 -140l-57 -248h-134l13 248l19 140h178z" />
    <glyph glyph-name="parenleft" unicode="(" horiz-adv-x="316" 
d="M133 -200q-2 9 -12 34t-19 51.5t-20 69.5t-16.5 86t-7 101.5t8.5 117.5q12 86 41.5 167.5t56.5 126.5t58.5 91.5t35.5 54.5h155q-2 -4 -33 -53.5t-54.5 -93t-51.5 -125.5t-40 -168q-9 -59 -9.5 -117.5t4 -101.5t13.5 -86t17 -69t17 -52t11 -34h-155z" />
    <glyph glyph-name="parenright" unicode=")" horiz-adv-x="316" 
d="M128 -200h-156q3 6 25 41t42 72t44 90t43.5 120t29.5 137q8 59 8.5 116t-5 98t-14.5 81t-18 64.5t-17.5 48t-11.5 32.5h156q3 -9 12.5 -32.5t19 -48.5t21 -64t17 -80.5t7 -98.5t-7.5 -116q-13 -86 -43 -171t-56.5 -132.5t-60 -99.5t-35.5 -57z" />
    <glyph glyph-name="asterisk" unicode="*" horiz-adv-x="344" 
d="M184 400l9 60l12 29l-23 -21l-56 -30l-34 73l56 30l33 9l-32 8l-46 30l54 73l47 -30l18 -21l-4 30l8 60h88l-8 -60l-13 -30l24 21l56 30l34 -73l-57 -30l-34 -8l31 -9l48 -30l-54 -73l-48 30l-16 20l4 -28l-9 -60h-88z" />
    <glyph glyph-name="plus" unicode="+" horiz-adv-x="560" 
d="M586 324l-20 -138h-182l-26 -186h-156l26 186h-182l20 138h182l24 176h156l-24 -176h182z" />
    <glyph glyph-name="comma" unicode="," horiz-adv-x="258" 
d="M143 189h-1h1zM143 189h-1q37 0 60.5 -13t32 -34t10.5 -49.5t-3 -59.5q-17 -121 -74 -175t-167 -54l12 84q46 0 70 24t32 78q-51 0 -70.5 23.5t-11.5 76.5q7 51 32.5 75t76.5 24h1z" />
    <glyph glyph-name="hyphen" unicode="-" horiz-adv-x="370" 
d="M378 196h-330l19 138h330z" />
    <glyph glyph-name="period" unicode="." horiz-adv-x="258" 
d="M156 189q57 0 79.5 -23.5t14.5 -76.5q-7 -52 -36 -75.5t-86 -23.5q-58 0 -80.5 23.5t-15.5 75.5q5 35 19.5 57t40 32.5t64.5 10.5z" />
    <glyph glyph-name="slash" unicode="/" horiz-adv-x="419" 
d="M338 700h179l-338 -700h-179z" />
    <glyph glyph-name="zero" unicode="0" horiz-adv-x="739" 
d="M471 720q178 0 246 -88t41 -282t-120 -282t-271 -88t-246.5 88t-41.5 282q28 195 121 282.5t271 87.5zM387 118q66 0 103.5 55t54.5 177t-5 177t-88 55t-104.5 -55t-55.5 -177q-12 -81 -5.5 -132.5t31 -75.5t69.5 -24z" />
    <glyph glyph-name="one" unicode="1" horiz-adv-x="391" 
d="M89 562l19 138h321l-98 -700h-201l79 562h-120z" />
    <glyph glyph-name="two" unicode="2" horiz-adv-x="598" 
d="M326 138h251l-19 -138h-528l16 117q50 40 109.5 85t94.5 71.5t72.5 57.5t58 53.5t35.5 49.5t19 55q3 24 2 42t-7 29t-17 16.5t-27 5.5q-33 0 -52 -26.5t-27 -85.5h-201q19 131 89.5 190.5t209.5 59.5q138 0 193.5 -55t38.5 -176q-4 -26 -12.5 -49.5t-18.5 -43t-32 -44
t-38 -41t-52.5 -47.5t-60 -50t-75.5 -59l-7.5 -6t-6.5 -5z" />
    <glyph glyph-name="three" unicode="3" horiz-adv-x="651" 
d="M358 296h-54l17 127h54q51 0 76 17.5t31 56.5q6 45 -11.5 65t-62.5 20q-46 0 -70 -24.5t-32 -77.5h-179q18 126 89.5 183t210.5 57t195 -50.5t40 -161.5q-5 -35 -18 -62.5t-28.5 -41t-30 -22t-23.5 -10.5l-10 -2q5 -1 12.5 -3.5t27 -13.5t33 -27t22.5 -46t4 -68
q-17 -122 -95 -177t-233 -55t-217 59.5t-44 190.5h190q-5 -39 2.5 -63.5t29 -36.5t59.5 -12q49 0 74.5 22.5t32.5 71.5q4 30 -4.5 48.5t-30 27t-57.5 8.5z" />
    <glyph glyph-name="four" unicode="4" horiz-adv-x="644" 
d="M429 700h223l-57 -406h70l-19 -138h-70l-22 -156h-202l22 156h-332l22 158zM233 294h160l28 198z" />
    <glyph glyph-name="five" unicode="5" horiz-adv-x="630" 
d="M344 562l-31 -97q44 15 102 15q133 0 184.5 -59.5t33 -190.5t-100 -190.5t-243.5 -59.5q-129 0 -184 52t-47 168h178q2 -43 22.5 -62.5t62.5 -19.5q49 0 75.5 27t35 85.5t-11 85t-70.5 26.5q-38 0 -60.5 -12.5t-32.5 -40.5h-168l128 411h431l-19 -138h-285z" />
    <glyph glyph-name="six" unicode="6" horiz-adv-x="641" 
d="M78 340q28 199 111 289.5t238 90.5q118 0 174.5 -47.5t62.5 -152.5h-190q-4 38 -19.5 55.5t-45.5 17.5q-49 0 -77.5 -39.5t-40.5 -125.5q1 2 4 5.5t15.5 12.5t28 16t45 12.5t64.5 5.5q116 0 164.5 -60.5t30.5 -189.5q-18 -131 -94 -190.5t-226 -59.5q-153 0 -212.5 86
t-32.5 274zM374 342q-44 0 -67.5 -26.5t-32 -85.5t7.5 -85.5t61 -26.5q43 0 67 27t32.5 85t-8 85t-60.5 27z" />
    <glyph glyph-name="seven" unicode="7" horiz-adv-x="582" 
d="M634 583l-382 -583h-212l379 562h-310l19 138h522z" />
    <glyph glyph-name="eight" unicode="8" horiz-adv-x="671" 
d="M181 368q-63 41 -49 140q16 111 88.5 161.5t217.5 50.5q144 0 202.5 -50.5t42.5 -161.5q-13 -98 -89 -140q92 -45 75 -167q-16 -116 -96 -168.5t-240 -52.5t-225.5 52.5t-49.5 168.5q17 122 123 167zM352 118q53 0 81.5 21.5t34.5 67.5q7 47 -15 68t-76 21
q-56 0 -83 -20.5t-34 -68.5q-6 -46 15.5 -67.5t76.5 -21.5zM419 582q-30 0 -50.5 -8.5t-31.5 -26t-15 -44.5q-6 -43 11.5 -61.5t62.5 -18.5t68 18.5t29 61.5q5 41 -12.5 60t-61.5 19z" />
    <glyph glyph-name="nine" unicode="9" horiz-adv-x="641" 
d="M662 360q-28 -199 -111.5 -289.5t-238.5 -90.5q-118 0 -174 47.5t-63 152.5h190q4 -38 19.5 -55.5t45.5 -17.5q49 0 77.5 39.5t40.5 125.5q-1 -2 -4 -5.5t-15 -12.5t-28 -16t-45.5 -12.5t-64.5 -5.5q-115 0 -164 60.5t-31 189.5q18 131 94.5 190.5t225.5 59.5
q153 0 212.5 -86t33.5 -274zM365 358q30 0 50 11.5t32 36t18 64.5q8 59 -8 85.5t-60 26.5t-68 -27t-32 -85t8.5 -85t59.5 -27z" />
    <glyph glyph-name="colon" unicode=":" horiz-adv-x="318" 
d="M185.5 189q57.5 0 80 -23.5t15.5 -75.5q-8 -52 -37 -76t-86 -24q-58 0 -80.5 23.5t-14.5 76.5q7 52 36 75.5t86.5 23.5zM229.5 500q57.5 0 80 -23.5t14.5 -76.5q-7 -52 -36.5 -75.5t-86.5 -23.5t-79.5 23.5t-15 76t36.5 76t86.5 23.5z" />
    <glyph glyph-name="semicolon" unicode=";" horiz-adv-x="258" 
d="M199.5 500q57.5 0 80 -23.5t14.5 -76.5q-7 -52 -36.5 -75.5t-86.5 -23.5t-79.5 23.5t-15 76t36.5 76t86.5 23.5zM145 189q36 0 59.5 -12.5t32 -34t10 -50t-3.5 -59.5q-17 -121 -73.5 -175t-167.5 -54l12 84q46 0 70 24.5t32 77.5q-51 0 -71 23.5t-12 76.5q7 51 33 75
t79 24z" />
    <glyph glyph-name="less" unicode="&#x3c;" horiz-adv-x="440" 
d="M68 345l422 155l-24 -170l-219 -80l197 -80l-24 -170l-378 155z" />
    <glyph glyph-name="equal" unicode="=" horiz-adv-x="651" 
d="M664 233l-20 -138h-611l20 138h611zM692 435l-19 -138h-611l19 138h611z" />
    <glyph glyph-name="greater" unicode="&#x3e;" horiz-adv-x="440" 
d="M90 500l378 -155l-26 -190l-422 -155l24 170l219 80l-197 80z" />
    <glyph glyph-name="question" unicode="?" horiz-adv-x="578" 
d="M298.5 189q57.5 0 80 -23.5t15.5 -75.5q-8 -52 -37 -76t-86 -24q-58 0 -80.5 23.5t-14.5 76.5q7 52 36 75.5t86.5 23.5zM227 264q7 50 23.5 85.5t36.5 53.5t42.5 33t41 24.5t32.5 27.5t17 42q4 28 -10.5 40t-49.5 12q-36 0 -55 -21.5t-26 -70.5h-190q11 81 46 131.5
t97.5 74.5t157.5 24q142 0 199.5 -45t42.5 -145q-4 -32 -16 -57.5t-28.5 -41t-36.5 -28.5t-40 -22t-39.5 -20t-35.5 -23t-27 -31t-15 -43h-167z" />
    <glyph glyph-name="at" unicode="@" horiz-adv-x="937" 
d="M743 460l-38 -270q-4 -22 -2 -36.5t9.5 -21t20.5 -6.5q24 0 39.5 29.5t24.5 94.5q22 155 -37 225.5t-210 70.5q-156 0 -237 -70.5t-103 -225.5q-21 -150 27.5 -218t176.5 -68q48 0 88.5 11.5t58 22t21.5 16.5l-18 -126q-4 -6 -24.5 -15t-59.5 -17t-81 -8
q-205 0 -284.5 95t-49.5 307q21 145 80 235.5t162 133.5t259 43q228 0 317.5 -98t58.5 -314q-17 -119 -72.5 -174.5t-151.5 -55.5q-120 0 -155 58q-51 -38 -141 -38q-100 0 -138 50t-23 160q16 116 69 168t153 52q70 0 117 -49l32 39h111zM472 146q36 0 57 24.5t28 79.5
q4 27 2.5 47t-8.5 32.5t-19.5 18.5t-30.5 6q-36 0 -56 -25t-28 -79q-5 -36 -1 -59.5t17.5 -34t38.5 -10.5z" />
    <glyph glyph-name="A" unicode="A" horiz-adv-x="719" 
d="M483 0l-12 125h-197l-50 -125h-224l312 700h314l93 -700h-236zM432 520l-103 -257h128z" />
    <glyph glyph-name="B" unicode="B" horiz-adv-x="696" 
d="M626 370q4 -2 10.5 -5.5t22 -17t26.5 -30t18 -45.5t3 -61q-16 -111 -91.5 -161t-225.5 -50h-329l98 700h318q141 0 198.5 -45.5t43.5 -145.5q-5 -30 -16 -55.5t-23.5 -40t-24.5 -25t-20 -14.5zM374 138q45 0 67.5 17.5t28.5 55.5q6 44 -11.5 64.5t-61.5 20.5h-71
l-23 -158h71zM363 562l-20 -139h60q35 0 53 18t24 57q5 34 -8.5 49t-48.5 15h-60z" />
    <glyph glyph-name="C" unicode="C" horiz-adv-x="786" 
d="M566 241h224q-46 -137 -137.5 -199t-245.5 -62q-199 0 -277 88t-51 282t130 282t302 88q109 0 177.5 -27t100.5 -84.5t31 -149.5h-224q-1 53 -26.5 77.5t-80.5 24.5q-76 0 -117 -50.5t-57 -160.5q-11 -73 -2 -120t37.5 -69t79.5 -22q56 0 89 24.5t47 77.5z" />
    <glyph glyph-name="D" unicode="D" horiz-adv-x="758" 
d="M777 350q-26 -184 -125 -267t-292 -83h-300l98 700h300q194 0 269.5 -83t49.5 -267zM427 552h-65l-57 -404h65q38 0 66.5 11.5t49.5 36.5t35 63t21 91q15 106 -12.5 154t-102.5 48z" />
    <glyph glyph-name="E" unicode="E" horiz-adv-x="610" 
d="M668 552h-306l-17 -118h266l-21 -149h-266l-19 -137h306l-21 -148h-530l98 700h530z" />
    <glyph glyph-name="F" unicode="F" horiz-adv-x="600" 
d="M668 552h-306l-17 -118h266l-21 -149h-266l-40 -285h-224l98 700h530z" />
    <glyph glyph-name="G" unicode="G" horiz-adv-x="796" 
d="M447 275l19 138h358l-9 -63q-27 -194 -124.5 -282t-285.5 -88q-198 0 -275.5 88t-50.5 282t129.5 282t300.5 88q158 0 232.5 -57t81.5 -183h-212q-4 42 -33.5 61.5t-90.5 19.5q-75 0 -115.5 -50t-56.5 -161q-15 -110 11.5 -160.5t101.5 -50.5q76 0 115.5 32.5t49.5 103.5
h-146z" />
    <glyph glyph-name="H" unicode="H" horiz-adv-x="756" 
d="M570 700h224l-98 -700h-224l42 296h-188l-42 -296h-224l98 700h224l-34 -245h188z" />
    <glyph glyph-name="I" unicode="I" horiz-adv-x="344" 
d="M158 700h224l-98 -700h-224z" />
    <glyph glyph-name="J" unicode="J" horiz-adv-x="587" 
d="M40 210l5 42h213l-5 -42q-10 -71 35 -71t55 71l68 490h224l-68 -490q-17 -117 -89.5 -173.5t-212.5 -56.5q-134 0 -188 56.5t-37 173.5z" />
    <glyph glyph-name="K" unicode="K" horiz-adv-x="763" 
d="M382 700l-34 -241l225 241h268l-316 -340l238 -360h-268l-174 263l-37 -263h-224l98 700h224z" />
    <glyph glyph-name="L" unicode="L" horiz-adv-x="580" 
d="M572 159l-22 -159h-490l98 700h224l-76 -541h266z" />
    <glyph glyph-name="M" unicode="M" horiz-adv-x="938" 
d="M60 0l98 700h302l55 -412l171 412h290l-98 -700h-212l62 441l-192 -441h-134l-68 441l-62 -441h-212z" />
    <glyph glyph-name="N" unicode="N" horiz-adv-x="778" 
d="M604 700h212l-98 -700h-256l-129 434l-61 -434h-212l98 700h256l129 -434z" />
    <glyph glyph-name="O" unicode="O" horiz-adv-x="816" 
d="M509 720q199 0 276.5 -88t50 -282t-129.5 -282t-301 -88q-198 0 -275.5 88t-50.5 282t129.5 282t300.5 88zM487 561q-74 0 -115 -50.5t-56.5 -160.5t11 -160.5t101.5 -50.5q74 0 115.5 50.5t56.5 160.5q8 55 5.5 95t-16.5 65.5t-39 38t-63 12.5z" />
    <glyph glyph-name="P" unicode="P" horiz-adv-x="686" 
d="M742 469q-7 -46 -29 -86.5t-60 -74t-97.5 -52.5t-134.5 -19h-104l-33 -237h-224l98 700h328q75 0 129 -19t83 -52.5t39.5 -73.5t4.5 -86zM518 469q5 35 -12 59t-52 24h-92l-24 -166h92q36 0 59.5 24t28.5 59z" />
    <glyph glyph-name="Q" unicode="Q" horiz-adv-x="816" 
d="M776 -70h-200l-41 61q-62 -11 -130 -11q-198 0 -275.5 88t-50.5 282t129.5 282t300.5 88q199 0 276.5 -88t49.5 -282q-29 -208 -144 -294zM428 139q143 0 172 211q8 55 5.5 95t-16.5 65.5t-39 38t-63 12.5q-74 0 -115 -50.5t-56.5 -160.5t11 -160.5t101.5 -50.5z" />
    <glyph glyph-name="R" unicode="R" horiz-adv-x="739" 
d="M372 248h-53l-35 -248h-224l98 700h336q75 0 129 -19t83 -52.5t39.5 -73.5t4.5 -86q-21 -148 -163 -198l122 -271h-235zM339 386h101q35 0 58.5 24t28.5 59t-11.5 59t-51.5 24h-101z" />
    <glyph glyph-name="S" unicode="S" horiz-adv-x="676" 
d="M326 520q-3 -20 17 -34.5t53 -24t73.5 -20t80 -27t71 -40.5t47.5 -65.5t8 -96.5q-17 -122 -98 -177t-243 -55q-161 0 -227 52.5t-50 167.5h202q-6 -43 16.5 -62.5t78.5 -19.5q49 0 74.5 14.5t29.5 47.5q4 24 -10.5 41.5t-41 27.5t-60.5 21t-69.5 20t-68.5 25.5t-58 37.5
t-37 55.5t-5 79.5q17 121 95.5 176.5t234.5 55.5q157 0 220.5 -52t46.5 -168h-201q6 43 -14 62.5t-71 19.5q-44 0 -66.5 -15t-27.5 -47z" />
    <glyph glyph-name="T" unicode="T" horiz-adv-x="656" 
d="M734 700l-22 -159h-196l-76 -541h-224l76 541h-196l22 159h616z" />
    <glyph glyph-name="U" unicode="U" horiz-adv-x="736" 
d="M87 261l61 439h224l-61 -439q-9 -64 9 -93t68 -29q48 0 75 29t36 93l61 439h224l-61 -439q-14 -99 -56 -160.5t-116 -91t-186 -29.5q-167 0 -233 66.5t-45 214.5z" />
    <glyph glyph-name="V" unicode="V" horiz-adv-x="707" 
d="M321 700l54 -546l206 546h224l-289 -700h-325l-93 700h223z" />
    <glyph glyph-name="W" unicode="W" horiz-adv-x="1038" 
d="M473 700h288l-9 -496l150 496h224l-240 -700h-302l-4 491l-126 -491h-302l-44 700h224l12 -496z" />
    <glyph glyph-name="X" unicode="X" horiz-adv-x="724" 
d="M354 700l80 -200l143 200h235l-255 -340l167 -360h-246l-88 220l-156 -220h-234l255 360l-147 340h246z" />
    <glyph glyph-name="Y" unicode="Y" horiz-adv-x="704" 
d="M500 257l-36 -257h-213l36 257l-189 443h246l80 -229l143 229h235z" />
    <glyph glyph-name="Z" unicode="Z" horiz-adv-x="650" 
d="M307 148h334l-21 -148h-590l18 128l384 424h-314l20 148h570l-18 -128z" />
    <glyph glyph-name="bracketleft" unicode="[" horiz-adv-x="337" 
d="M158 700h277l-19 -138h-110l-88 -624h110l-19 -138h-277z" />
    <glyph glyph-name="backslash" unicode="\" horiz-adv-x="419" 
d="M98 700h179l142 -700h-179z" />
    <glyph glyph-name="bracketright" unicode="]" horiz-adv-x="337" 
d="M98 700h277l-126 -900h-277l19 138h110l88 624h-110z" />
    <glyph glyph-name="asciicircum" unicode="^" horiz-adv-x="515" 
d="M451 670l89 -350h-156l-53 209l-111 -209h-155l187 350h199z" />
    <glyph glyph-name="underscore" unicode="_" horiz-adv-x="520" 
d="M520 0l-19 -138h-520l19 138h520z" />
    <glyph glyph-name="grave" unicode="`" horiz-adv-x="325" 
d="M318 700l64 -150h-155l-109 150h200z" />
    <glyph glyph-name="a" unicode="a" horiz-adv-x="576" 
d="M362 34q-55 -44 -152 -44q-101 0 -141 38t-28 123q13 89 79 129.5t200 40.5h59l3 19q5 34 -5.5 49t-37.5 15t-41.5 -13t-18.5 -41h-190q12 84 76 122t194.5 38t183 -45t38.5 -146l-45 -319h-156zM364 216h-40q-35 0 -55.5 -10.5t-24.5 -43.5q-4 -25 5.5 -34.5t35.5 -9.5
q25 0 41.5 10.5t24 27.5t11.5 42z" />
    <glyph glyph-name="b" unicode="b" 
d="M383 -10q-102 0 -148 47l-30 -37h-155l98 700h201l-31 -221q55 31 138 31q116 0 160 -62t25 -198t-80.5 -198t-177.5 -62zM347 128q40 0 62 29t31 93q5 32 3.5 55t-8.5 38t-20.5 22t-33.5 7q-40 0 -62.5 -29t-31.5 -93q-4 -32 -3 -55t8.5 -38t21 -22t33.5 -7z" />
    <glyph glyph-name="c" unicode="c" horiz-adv-x="596" 
d="M401 192h201q-25 -106 -95.5 -154t-200.5 -48q-152 0 -211.5 61.5t-40.5 198.5t96 198.5t229 61.5q130 0 187 -48t52 -154h-202q1 34 -13 49t-46 15q-43 0 -67.5 -29t-33.5 -93q-4 -32 -2.5 -55t10 -38t23 -22t36.5 -7q31 0 49.5 15t28.5 49z" />
    <glyph glyph-name="d" unicode="d" 
d="M239 -10q-116 0 -159.5 62t-24.5 198.5t80 198t178 61.5q82 0 128 -31l31 221h202l-98 -700h-156l-20 37q-59 -47 -161 -47zM316 128q40 0 62 29t31 93q5 32 3.5 55t-8.5 38t-20.5 22t-33.5 7q-40 0 -62.5 -29t-31.5 -93q-4 -32 -3 -55t8.5 -38t21 -22t33.5 -7z" />
    <glyph glyph-name="e" unicode="e" horiz-adv-x="596" 
d="M604 199h-357q-13 -93 66 -93q58 0 76 55h190q-29 -90 -95.5 -130.5t-186.5 -40.5q-147 0 -204 61.5t-38 198.5t94 198.5t221 61.5q145 0 202.5 -61.5t38.5 -197.5zM350 394q-35 0 -58 -24t-29 -65h153q4 31 -1.5 50.5t-21.5 29t-43 9.5z" />
    <glyph glyph-name="f" unicode="f" horiz-adv-x="436" 
d="M387 562q-20 0 -24 -25l-5 -37h138l-16 -116h-138l-54 -384h-201l54 384h-77l16 116h77l5 37q11 76 61 119.5t126 43.5h175l-19 -138h-118z" />
    <glyph glyph-name="g" unicode="g" 
d="M240 -10q-116 0 -160 62t-25 199q19 136 80 197.5t178 61.5q102 0 147 -46l30 36h156l-63 -450q-13 -91 -50 -148.5t-102 -84.5t-163 -27q-123 0 -178 40.5t-55 130.5h190q0 -29 11.5 -42t36.5 -13q46 0 70.5 26t32.5 84l1 5q-55 -31 -137 -31zM316 129q40 0 62 29t31 93
t-5 93t-54 29t-62.5 -29t-31.5 -93t5.5 -93t54.5 -29z" />
    <glyph glyph-name="h" unicode="h" horiz-adv-x="606" 
d="M50 0l98 700h201l-30 -214q47 24 116 24q106 0 146.5 -57t22.5 -183l-38 -270h-202l38 270q7 53 -3 77.5t-41 24.5q-28 0 -45 -24.5t-24 -77.5l-38 -270h-201z" />
    <glyph glyph-name="i" unicode="i" horiz-adv-x="319" 
d="M260 0h-201l70 500h201zM263 733q57 0 80 -22.5t16 -71.5q-5 -34 -19.5 -54.5t-40 -30t-63.5 -9.5q-58 0 -80.5 22t-15.5 72q7 49 36 71.5t87 22.5z" />
    <glyph glyph-name="j" unicode="j" horiz-adv-x="320" 
d="M12 -42q18 0 32 12.5t17 33.5l69 496h201l-72 -517q-8 -51 -32.5 -87.5t-64.5 -56t-90 -19.5h-177l19 138h98zM264 733q57 0 80 -22.5t16 -71.5q-7 -50 -36 -72t-87 -22t-80.5 22t-15.5 72q7 49 36 71.5t87 22.5z" />
    <glyph glyph-name="k" unicode="k" horiz-adv-x="639" 
d="M349 700l-52 -370l158 170h234l-222 -240l172 -260h-234l-127 192l-27 -192h-201l98 700h201z" />
    <glyph glyph-name="l" unicode="l" horiz-adv-x="301" 
d="M50 0l98 700h201l-98 -700h-201z" />
    <glyph glyph-name="m" unicode="m" horiz-adv-x="885" 
d="M349 372q-24 0 -38.5 -24t-21.5 -78l-38 -270h-201l70 500h156l25 -47q49 57 137 57q96 0 131 -57q53 57 154 57t139.5 -57t20.5 -183l-38 -270h-202l38 270q8 54 -0.5 78.5t-34.5 24.5t-39.5 -24t-21.5 -79l-38 -270h-201l38 270q7 53 -1 77.5t-34 24.5z" />
    <glyph glyph-name="n" unicode="n" horiz-adv-x="607" 
d="M292 469h1q53 41 143 41q106 0 146.5 -57t22.5 -183l-38 -270h-202l38 270q7 54 -3.5 78t-40.5 24q-29 0 -46 -24.5t-24 -77.5l-38 -270h-201l70 500h156z" />
    <glyph glyph-name="o" unicode="o" horiz-adv-x="616" 
d="M380 510q151 0 210.5 -62t40.5 -198t-96.5 -198t-227.5 -62q-152 0 -211.5 61.5t-40.5 198.5t96 198.5t229 61.5zM256 250q-9 -64 7.5 -93t62.5 -29q45 0 69.5 29t33.5 93q6 42 0.5 69.5t-22.5 40t-47 12.5q-45 0 -70 -29t-34 -93z" />
    <glyph glyph-name="p" unicode="p" 
d="M455 510q116 0 160 -62t25 -198t-80.5 -198t-177.5 -62q-83 0 -129 31l-31 -221h-201l98 700h155l20 -37q59 47 161 47zM378 372q-27 0 -45.5 -12.5t-30.5 -39.5t-18 -70q-9 -64 5 -93t55 -29q40 0 62 29t31 93q4 32 3 55t-8 38t-20.5 22t-33.5 7z" />
    <glyph glyph-name="q" unicode="q" 
d="M311 510q102 0 148 -47l30 37h156l-98 -700h-202l31 221q-55 -31 -137 -31q-117 0 -160.5 61.5t-24.5 198t80 198.5t177 62zM347 372q-40 0 -62.5 -29t-31.5 -93q-4 -32 -3 -55t8.5 -38t21 -22t33.5 -7q40 0 62 29t31 93q5 32 3.5 55t-8.5 38t-20.5 22t-33.5 7z" />
    <glyph glyph-name="r" unicode="r" horiz-adv-x="440" 
d="M394 351q-56 0 -77.5 -19.5t-30.5 -81.5l-35 -250h-201l70 500h156l21 -40q55 50 120 50h85l-23 -159h-85z" />
    <glyph glyph-name="s" unicode="s" horiz-adv-x="526" 
d="M262 369q-2 -15 13 -24t40.5 -14t56 -10.5t60.5 -16t54 -26.5t36 -45.5t7 -70.5q-13 -90 -79 -131t-199 -41q-121 0 -170.5 38t-37.5 122h190q-4 -28 5 -41t33 -13q8 0 14 1t11 2.5t9 4t7.5 6t5.5 8.5t4 10.5t3 12.5q2 15 -9 24.5t-30.5 14.5t-44 10t-50.5 10t-50.5 16
t-42 26.5t-26 42.5t-3.5 63q12 85 74 123.5t187 38.5q119 0 168 -35.5t38 -114.5h-179q3 23 -7 33.5t-35 10.5q-48 0 -53 -35z" />
    <glyph glyph-name="t" unicode="t" horiz-adv-x="469" 
d="M328 184q-2 -14 2 -24.5t12.5 -16t20.5 -5.5h95l-19 -138h-175q-76 0 -114 43.5t-27 119.5l31 221h-80l16 116h80l19 131h202l-19 -131h137l-16 -116h-137z" />
    <glyph glyph-name="u" unicode="u" horiz-adv-x="606" 
d="M383 31q-52 -41 -142 -41q-107 0 -146.5 57t-22.5 183l38 270h201l-38 -270q-7 -54 3.5 -78t40.5 -24q20 0 34 11.5t22.5 34t13.5 60.5l37 266h202l-70 -500h-156z" />
    <glyph glyph-name="v" unicode="v" horiz-adv-x="565" 
d="M302 109l120 391h213l-191 -500h-323l-51 500h212z" />
    <glyph glyph-name="w" unicode="w" horiz-adv-x="887" 
d="M743 0h-247l4 401l-109 -401h-246l-65 500h201l21 -347l94 347h247l-12 -336l115 336h201z" />
    <glyph glyph-name="x" unicode="x" horiz-adv-x="559" 
d="M292 500l39 -132l76 132h212l-180 -240l120 -260h-212l-47 153l-88 -153h-212l194 260l-114 240h212z" />
    <glyph glyph-name="y" unicode="y" horiz-adv-x="556" 
d="M209 -1l7 14l-146 487h190l60 -256l116 256h190l-240 -493q-48 -98 -98 -142.5t-114 -44.5h-126l16 116h70q46 0 75 63z" />
    <glyph glyph-name="z" unicode="z" horiz-adv-x="511" 
d="M272 127h237l-18 -127h-471l15 106l264 267h-217l18 127h451l-15 -106z" />
    <glyph glyph-name="braceleft" unicode="{" horiz-adv-x="408" 
d="M290 144l-22 -160q-4 -25 6 -35.5t35 -10.5h90l-19 -138h-136q-87 0 -122.5 38.5t-23.5 122.5l25 178q4 32 -13.5 45t-51.5 13l16 116q73 0 81 58l24 168q8 56 31 91.5t62.5 52.5t97.5 17h136l-19 -138h-89q-26 0 -39 -10.5t-16 -35.5l-22 -150q-11 -83 -65 -111
q46 -28 34 -111z" />
    <glyph glyph-name="bar" unicode="|" horiz-adv-x="287" 
d="M158 700h167l-126 -900h-167z" />
    <glyph glyph-name="braceright" unicode="}" horiz-adv-x="407" 
d="M135 -16l22 160q12 83 67 111q-47 28 -36 111l22 150q3 25 -6 35.5t-35 10.5h-90l19 138h135q90 0 125 -38t23 -123l-24 -168q-4 -32 12.5 -45t51.5 -13l-16 -116q-23 0 -38.5 -4.5t-27 -18t-14.5 -35.5l-25 -178q-12 -85 -58 -123t-135 -38h-135l19 138h90
q25 0 37.5 10.5t16.5 35.5z" />
    <glyph glyph-name="asciitilde" unicode="~" horiz-adv-x="640" 
d="M48 197l17 126q46 41 94 54t89.5 3.5t83.5 -29t83.5 -40t81 -32t83.5 -2t85 45.5l-17 -126q-46 -41 -94 -54t-89.5 -3t-84 29t-83.5 39t-81 32t-83.5 2.5t-84.5 -45.5z" />
    <glyph glyph-name="space_" unicode="&#xa0;" horiz-adv-x="300" 
 />
    <glyph glyph-name="exclamdown" unicode="&#xa1;" horiz-adv-x="320" 
d="M242 -200h-213l27 190l80 249h122l11 -249zM202.5 311q-57.5 0 -80 23.5t-15 76t36.5 76t87 23.5q57 0 79.5 -23.5t15.5 -75.5q-8 -53 -37 -76.5t-86.5 -23.5z" />
    <glyph glyph-name="cent" unicode="&#xa2;" horiz-adv-x="596" 
d="M216 -101h-1l13 94q-107 14 -149 76t-25 180t76 180t170 76l12 85h156l-12 -85q88 -13 127 -60.5t35 -136.5h-202q1 34 -13 49t-46 15q-43 0 -67.5 -29t-33.5 -93q-4 -32 -2.5 -55t10 -38t23 -22t36.5 -7q31 0 49.5 15t28.5 49h202q-22 -89 -74 -136.5t-144 -60.5
l-13 -96h-156z" />
    <glyph glyph-name="sterling" unicode="&#xa3;" horiz-adv-x="670" 
d="M661 148l-21 -148h-610l24 169q69 29 90 116h-73l19 138h74l11 76q16 116 84.5 167.5t203.5 51.5q125 0 180 -49t38 -170h-191q7 49 -3.5 71t-40.5 22q-32 0 -47.5 -21t-22.5 -72l-11 -76h208l-19 -138h-209q-20 -100 -114 -137h430z" />
    <glyph glyph-name="currency" unicode="&#xa4;" horiz-adv-x="665" 
d="M700 467v-2l-61 -52q32 -61 17 -165q-15 -105 -63 -166l46 -52l-114 -95l-61 68q-57 -15 -133.5 -15t-130.5 15l-79 -68l-87 95l62 53q-32 61 -17 166t63 166l-46 52l113 96l61 -68q57 15 134 15q78 0 129 -16l80 69zM280 250q-9 -64 7.5 -93t62.5 -29q45 0 69.5 29
t33.5 93q6 42 0.5 69.5t-22.5 40t-47 12.5q-45 0 -70 -29t-34 -93z" />
    <glyph glyph-name="yen" unicode="&#xa5;" horiz-adv-x="724" 
d="M510 257l-5 -34h197l-18 -127h-197l-13 -96h-213l13 96h-208l18 127h208l5 34l-19 44h-183l18 127h111l-116 272h246l80 -229l143 229h235l-185 -272h104l-18 -127h-173z" />
    <glyph glyph-name="section" unicode="&#xa7;" horiz-adv-x="651" 
d="M344 529q-2 -14 5 -25t24.5 -19t33.5 -13t45 -12q1 0 4 -1q40 -10 61.5 -16.5t56 -23.5t51 -37.5t27 -55t4.5 -79.5q-15 -103 -98 -148q21 -40 13 -97q-16 -117 -87 -169.5t-212 -52.5q-122 0 -170 52.5t-32 167.5h168q-4 -29 0.5 -47t19 -26.5t39.5 -8.5q61 0 69 52
q2 15 -3.5 26.5t-14 19t-27 14t-31.5 10t-38 9.5h-2q-38 9 -58 15t-52 21.5t-47 34t-24.5 52t-3.5 76.5q15 108 105 150q-28 44 -19 109q11 75 43 121.5t88 69t140 22.5q127 0 176.5 -52t32.5 -168h-167q6 43 -7.5 62.5t-48.5 19.5q-56 0 -64 -53zM463 225q2 15 -6 27.5
t-20.5 21t-32.5 16t-36 11.5t-36.5 9t-28.5 8q-40 -12 -45 -46q-2 -18 9.5 -32t34.5 -23t44.5 -15t49 -12t37.5 -9q26 16 30 44z" />
    <glyph glyph-name="dieresis" unicode="&#xa8;" horiz-adv-x="517" 
d="M234.5 750q57.5 0 80 -23.5t14.5 -76.5q-7 -52 -36.5 -75.5t-86.5 -23.5t-79.5 23.5t-15 76t36.5 76t86.5 23.5zM492 750q58 0 81 -23.5t15 -76.5q-3 -26 -12 -44.5t-24.5 -31t-37 -18t-50.5 -5.5q-57 0 -79.5 23.5t-15 75.5t36.5 76t86 24z" />
    <glyph glyph-name="copyright" unicode="&#xa9;" horiz-adv-x="846" 
d="M524 720q206 0 287 -88t54 -282t-133 -282t-312 -88t-287 88t-54 282q18 130 71 211.5t144.5 120t229.5 38.5zM436 96q136 0 206 60.5t89 194t-34 193.5t-189 60q-91 0 -151.5 -27t-95.5 -82.5t-48 -144.5q-19 -134 34 -194t189 -60zM464 247q25 0 40 12.5t23 40.5h162
q-20 -88 -76.5 -128t-160.5 -40q-122 0 -169.5 51.5t-31.5 165.5t78 165.5t184 51.5q104 0 149 -40t41 -128h-162q0 28 -11 40.5t-37 12.5q-23 0 -39.5 -10.5t-27 -33t-15.5 -58.5t-1 -58.5t17 -33t37 -10.5z" />
    <glyph glyph-name="guillemotleft" unicode="&#xab;" horiz-adv-x="610" 
d="M214 450h190l-146 -190l91 -200h-190l-102 200zM463 450h190l-147 -190l92 -200h-190l-103 200z" />
    <glyph glyph-name="logicalnot" unicode="&#xac;" horiz-adv-x="560" 
d="M587 334l-38 -268h-156l19 130h-364l19 138h520z" />
    <glyph glyph-name="registered" unicode="&#xae;" horiz-adv-x="846" 
d="M524 720q206 0 287 -88t54 -282t-133 -282t-312 -88t-287 88t-54 282q18 130 71 211.5t144.5 120t229.5 38.5zM436.5 96q135.5 0 206 60.5t89 193.5t-34.5 193.5t-189 60.5q-91 0 -151.5 -27t-95.5 -82.5t-48 -144.5q-18 -133 35 -193.5t188.5 -60.5zM571 300h-1l68 -130
h-132l-54 119h-30l-17 -119h-121l50 360h182q58 0 92 -12.5t47.5 -39t7.5 -69.5q-12 -86 -92 -109zM444 446l-11 -73h60q15 0 24.5 3.5t15 11.5t6.5 21q3 20 -5.5 28.5t-29.5 8.5h-60z" />
    <glyph glyph-name="macron" unicode="&#xaf;" horiz-adv-x="380" 
d="M104 595l14 105h340l-14 -105h-340z" />
    <glyph glyph-name="degree" unicode="&#xb0;" horiz-adv-x="420" 
d="M93 520q14 100 65.5 145t151.5 45q67 0 105.5 -20t52.5 -61.5t5 -108.5q-14 -100 -65.5 -145t-151 -45t-138.5 45t-25 145zM215 520q-6 -44 7.5 -64t48.5 -20q24 0 40 8.5t26 27t14 48.5q6 44 -7.5 64t-49 20t-54.5 -20t-25 -64z" />
    <glyph glyph-name="plusminus" unicode="&#xb1;" horiz-adv-x="560" 
d="M20 0l19 138h520l-19 -138h-520zM599 418l-20 -138h-182l-13 -92h-156l13 92h-182l20 138h182l11 82h156l-11 -82h182z" />
    <glyph glyph-name="acute" unicode="&#xb4;" horiz-adv-x="345" 
d="M97 550l106 150h200l-151 -150h-155z" />
    <glyph glyph-name="paragraph" unicode="&#xb6;" horiz-adv-x="746" 
d="M735 562l-107 -762h-167l107 762h-91l-107 -762h-167l70 500q-109 0 -151.5 47.5t-28 152.5t80.5 152.5t197 47.5h470l-19 -138h-87z" />
    <glyph glyph-name="periodcentered" unicode="&#xb7;" horiz-adv-x="258" 
d="M178.5 354q57.5 0 80 -23.5t15.5 -76.5q-8 -52 -37 -75.5t-86 -23.5q-58 0 -80.5 23.5t-14.5 75.5q7 53 36 76.5t86.5 23.5z" />
    <glyph glyph-name="cedilla" unicode="&#xb8;" horiz-adv-x="252" 
d="M72 43h100l-34 -93l9 -3t20 -9t24 -16.5t17 -26t4 -35.5q-7 -51 -68.5 -80.5t-158.5 -29.5l10 73q68 0 73 37q4 27 -60 27z" />
    <glyph glyph-name="guillemotright" unicode="&#xbb;" horiz-adv-x="609" 
d="M83 450h189l105 -190l-160 -200h-189l148 200zM332 450h189l105 -190l-160 -200h-189l148 200z" />
    <glyph glyph-name="questiondown" unicode="&#xbf;" horiz-adv-x="578" 
d="M421 237q-7 -50 -23.5 -86t-36.5 -54t-42 -33t-41 -24.5t-33 -27t-17 -42.5q-3 -19 3 -30t20 -16.5t37 -5.5q36 0 55.5 21.5t25.5 70.5h190q-17 -121 -88 -175.5t-213 -54.5t-199 45t-43 145q6 42 25 72.5t43.5 46t52.5 30.5t52.5 27.5t42.5 35.5t22 55h167zM349 311
q-58 0 -81 23.5t-15 76.5q7 52 36.5 75.5t87.5 23.5q38 0 60.5 -10t31 -32t3.5 -57q-8 -52 -37 -76t-86 -24z" />
    <glyph glyph-name="Agrave" unicode="&#xc0;" horiz-adv-x="719" 
d="M483 0l-12 125h-197l-50 -125h-224l312 700h314l93 -700h-236zM432 520l-103 -257h128zM564 750h-144l-115 120h177z" />
    <glyph glyph-name="Aacute" unicode="&#xc1;" horiz-adv-x="719" 
d="M483 0l-12 125h-197l-50 -125h-224l312 700h314l93 -700h-236zM432 520l-103 -257h128zM390 750l104 120h189l-137 -120h-156z" />
    <glyph glyph-name="Acircumflex" unicode="&#xc2;" horiz-adv-x="719" 
d="M483 0l-12 125h-197l-50 -125h-224l312 700h314l93 -700h-236zM432 520l-103 -257h128zM654 750h-133l-37 46l-51 -46h-133l93 120h202z" />
    <glyph glyph-name="Atilde" unicode="&#xc3;" horiz-adv-x="719" 
d="M483 0l-12 125h-197l-50 -125h-224l312 700h314l93 -700h-236zM432 520l-103 -257h128zM305 760q5 34 22 59.5t42.5 38.5t57 13t54 -7.5t32 -16t21 -16t23.5 -7.5q24 0 29 26h77q-7 -52 -39.5 -81.5t-80.5 -29.5q-32 0 -54.5 7.5t-32.5 16t-21.5 16t-23.5 7.5
q-27 0 -29 -26h-77z" />
    <glyph glyph-name="Adieresis" unicode="&#xc4;" horiz-adv-x="719" 
d="M483 0l-12 125h-197l-50 -125h-224l312 700h314l93 -700h-236zM432 520l-103 -257h128zM360 895q57 0 80 -20t17 -64q-4 -29 -18 -47.5t-39 -27t-64 -8.5q-57 0 -80 19.5t-17 63.5t34.5 64t86.5 20zM636 895q57 0 80 -20t17 -64q-6 -43 -35 -63t-86 -20t-80 19.5
t-17 63.5t34.5 64t86.5 20z" />
    <glyph glyph-name="Aring" unicode="&#xc5;" horiz-adv-x="719" 
d="M483 0l-12 125h-197l-50 -125h-224l312 700h314l93 -700h-236zM432 520l-103 -257h128zM506 954q70 0 98.5 -26.5t19.5 -85.5q-5 -39 -22.5 -63.5t-48.5 -36t-78 -11.5q-71 0 -99 26.5t-19.5 85t44 85t105.5 26.5zM485 804q35 0 40.5 38t-29.5 38t-40.5 -38t29.5 -38z
" />
    <glyph glyph-name="AE" unicode="&#xc6;" horiz-adv-x="969" 
d="M1027 552h-280l-17 -118h240l-21 -149h-240l-19 -137h280l-21 -148h-481l18 125h-188l-74 -125h-224l431 700h616zM544 544l-165 -281h126z" />
    <glyph glyph-name="Ccedilla" unicode="&#xc7;" horiz-adv-x="786" 
d="M346 -18l-1 -1q-164 13 -227.5 101t-38.5 267q27 194 130 282t302 88q109 0 177 -27t100.5 -84.5t31.5 -149.5h-224q-1 53 -26.5 77.5t-78.5 24.5q-77 0 -118.5 -50t-57.5 -161t12 -161t105 -50q55 0 87.5 24.5t46.5 77.5h224q-44 -128 -125.5 -190t-216.5 -69l-11 -31
l9 -3t20 -9t24 -16.5t17 -26t4 -35.5q-7 -51 -68.5 -80.5t-159.5 -29.5l10 73q68 0 73 37q4 27 -59 27z" />
    <glyph glyph-name="Egrave" unicode="&#xc8;" horiz-adv-x="610" 
d="M668 552h-306l-17 -118h266l-21 -149h-266l-19 -137h306l-21 -148h-530l98 700h530zM517 750h-144l-115 120h177z" />
    <glyph glyph-name="Eacute" unicode="&#xc9;" horiz-adv-x="610" 
d="M668 552h-306l-17 -118h266l-21 -149h-266l-19 -137h306l-21 -148h-530l98 700h530zM343 750l104 120h189l-137 -120h-156z" />
    <glyph glyph-name="Ecircumflex" unicode="&#xca;" horiz-adv-x="610" 
d="M668 552h-306l-17 -118h266l-21 -149h-266l-19 -137h306l-21 -148h-530l98 700h530zM607 750h-133l-37 46l-51 -46h-133l93 120h202z" />
    <glyph glyph-name="Edieresis" unicode="&#xcb;" horiz-adv-x="611" 
d="M669 552h-307l-17 -118h267l-21 -149h-267l-19 -137h307l-21 -148h-531l98 700h531zM313 895q58 0 81 -20t17 -64t-35 -63.5t-87 -19.5q-57 0 -80 20t-17 63q4 30 18 48.5t39.5 27t63.5 8.5zM589 895q58 0 81 -20t17 -64t-35 -63.5t-87 -19.5q-57 0 -80 20t-17 63
q6 44 35 64t86 20z" />
    <glyph glyph-name="Igrave" unicode="&#xcc;" horiz-adv-x="352" 
d="M166 700h224l-98 -700h-224zM371 750h-143l-116 120h178z" />
    <glyph glyph-name="Iacute" unicode="&#xcd;" horiz-adv-x="351" 
d="M158 700h224l-98 -700h-224zM190 750l104 120h189l-138 -120h-155z" />
    <glyph glyph-name="Icircumflex" unicode="&#xce;" horiz-adv-x="354" 
d="M163 700h224l-98 -700h-224zM459 750h-133l-37 46l-51 -46h-133l93 120h202z" />
    <glyph glyph-name="Idieresis" unicode="&#xcf;" horiz-adv-x="358" 
d="M165 700h224l-98 -700h-224zM166 896q57 0 80 -20t17 -64t-35 -63.5t-87 -19.5q-57 0 -80 20t-17 63q6 44 35 64t87 20zM444 896q58 0 81 -20t17 -64t-35 -63.5t-87 -19.5q-57 0 -80 20t-17 63q4 30 18 48.5t39.5 27t63.5 8.5z" />
    <glyph glyph-name="Ntilde" unicode="&#xd1;" horiz-adv-x="778" 
d="M604 700h212l-98 -700h-256l-129 434l-61 -434h-212l98 700h256l129 -434zM322 760q7 52 40 81.5t80 29.5q32 0 54.5 -7.5t32 -16t21 -16t23.5 -7.5q25 0 30 26h76q-7 -52 -39.5 -81.5t-80.5 -29.5q-32 0 -54.5 7.5t-32.5 16t-21.5 16t-23.5 7.5q-26 0 -28 -26h-77z" />
    <glyph glyph-name="Ograve" unicode="&#xd2;" horiz-adv-x="816" 
d="M509 720q199 0 276.5 -88t50 -282t-129.5 -282t-301 -88q-198 0 -275.5 88t-50.5 282t129.5 282t300.5 88zM487 561q-74 0 -115 -50.5t-56.5 -160.5t11 -160.5t101.5 -50.5q74 0 115.5 50.5t56.5 160.5q8 55 5.5 95t-16.5 65.5t-39 38t-63 12.5zM600 750h-144l-115 120
h178z" />
    <glyph glyph-name="Oacute" unicode="&#xd3;" horiz-adv-x="816" 
d="M509 720q199 0 276.5 -88t50 -282t-129.5 -282t-301 -88q-198 0 -275.5 88t-50.5 282t129.5 282t300.5 88zM487 561q-74 0 -115 -50.5t-56.5 -160.5t11 -160.5t101.5 -50.5q74 0 115.5 50.5t56.5 160.5q8 55 5.5 95t-16.5 65.5t-39 38t-63 12.5zM427 750l104 120h189
l-138 -120h-155z" />
    <glyph glyph-name="Ocircumflex" unicode="&#xd4;" horiz-adv-x="816" 
d="M509 720q199 0 276.5 -88t50 -282t-129.5 -282t-301 -88q-198 0 -275.5 88t-50.5 282t129.5 282t300.5 88zM487 561q-74 0 -115 -50.5t-56.5 -160.5t11 -160.5t101.5 -50.5q74 0 115.5 50.5t56.5 160.5q8 55 5.5 95t-16.5 65.5t-39 38t-63 12.5zM690 750h-133l-37 46
l-51 -46h-132l93 120h201z" />
    <glyph glyph-name="Otilde" unicode="&#xd5;" horiz-adv-x="816" 
d="M509 720q199 0 276.5 -88t50 -282t-129.5 -282t-301 -88q-198 0 -275.5 88t-50.5 282t129.5 282t300.5 88zM487 561q-74 0 -115 -50.5t-56.5 -160.5t11 -160.5t101.5 -50.5q74 0 115.5 50.5t56.5 160.5q8 55 5.5 95t-16.5 65.5t-39 38t-63 12.5zM344 760q7 52 40 81.5
t80 29.5q32 0 54.5 -7.5t32 -16t21 -16t23.5 -7.5q25 0 30 26h76q-7 -52 -39.5 -81.5t-80.5 -29.5q-32 0 -54.5 7.5t-32.5 16t-21.5 16t-23.5 7.5q-26 0 -28 -26h-77z" />
    <glyph glyph-name="Odieresis" unicode="&#xd6;" horiz-adv-x="816" 
d="M509 720q198 0 275.5 -88t50.5 -282t-129.5 -282t-300.5 -88t-275.5 88t-50 282t129.5 282t300 88zM487 561q-75 0 -116 -50.5t-57 -160.5q-11 -73 -2 -120t37 -69t79 -22q74 0 115 50.5t56 160.5q8 55 5.5 95t-16.5 65.5t-39 38t-62 12.5zM396 896q57 0 80 -20t17 -64
t-35 -63.5t-87 -19.5q-57 0 -80 20t-17 63q6 44 35 64t87 20zM672 896q57 0 80 -20t17 -64t-35 -63.5t-87 -19.5q-57 0 -80 20t-17 63q6 44 35 64t87 20z" />
    <glyph glyph-name="multiply" unicode="&#xd7;" horiz-adv-x="552" 
d="M203 503l123 -144l165 144l97 -106l-168 -147l126 -147l-126 -106l-124 144l-164 -144l-98 106l168 147l-126 147z" />
    <glyph glyph-name="Oslash" unicode="&#xd8;" horiz-adv-x="816" 
d="M504 720q27 0 63 -2l31 62h133l-42 -85q96 -34 131 -118.5t15 -226.5q-27 -194 -129 -282t-299 -88q-37 0 -66 3l-31 -63h-133l42 88q-92 35 -125.5 118.5t-14.5 223.5q27 194 129 282t296 88zM487 561q-75 0 -116 -51.5t-57 -166.5q-4 -30 -5 -54.5t3 -52.5t15 -47.5
t33.5 -33.5t56.5 -16h11q75 0 116 51t57 166q7 35 5.5 71.5t-9.5 66t-35.5 48.5t-71.5 19h-3z" />
    <glyph glyph-name="Ugrave" unicode="&#xd9;" horiz-adv-x="736" 
d="M87 261l61 439h224l-61 -439q-9 -64 9 -93t68 -29q48 0 75 29t36 93l61 439h224l-61 -439q-14 -99 -56 -160.5t-116 -91t-186 -29.5q-167 0 -233 66.5t-45 214.5zM559 750h-143l-116 120h178z" />
    <glyph glyph-name="Uacute" unicode="&#xda;" horiz-adv-x="736" 
d="M87 261l61 439h224l-61 -439q-9 -64 9 -93t68 -29q48 0 75 29t36 93l61 439h224l-61 -439q-14 -99 -56 -160.5t-116 -91t-186 -29.5q-167 0 -233 66.5t-45 214.5zM386 750l104 120h189l-138 -120h-155z" />
    <glyph glyph-name="Ucircumflex" unicode="&#xdb;" horiz-adv-x="736" 
d="M87 261l61 439h224l-61 -439q-9 -64 9 -93t68 -29q48 0 75 29t36 93l61 439h224l-61 -439q-14 -99 -56 -160.5t-116 -91t-186 -29.5q-167 0 -233 66.5t-45 214.5zM649 750h-132l-37 46l-51 -46h-133l93 120h201z" />
    <glyph glyph-name="Udieresis" unicode="&#xdc;" horiz-adv-x="736" 
d="M87 261l61 439h224l-61 -439q-9 -64 9 -93t67.5 -29t76 29t35.5 93l61 439h224l-61 -439q-21 -148 -106 -214.5t-252 -66.5t-233 66.5t-45 214.5zM356 896q57 0 80 -20t17 -64q-6 -43 -35 -63t-86 -20t-80 19.5t-17 63.5q3 22 11.5 38t23.5 26t36 15t50 5zM632 896
q57 0 80 -20t17 -64q-6 -43 -35 -63t-86 -20t-80 19.5t-17 63.5q4 30 18 48t39 27t64 9z" />
    <glyph glyph-name="Yacute" unicode="&#xdd;" horiz-adv-x="704" 
d="M500 257l-36 -257h-213l36 257l-189 443h246l80 -229l143 229h235zM383 750l104 120h189l-138 -120h-155z" />
    <glyph glyph-name="germandbls" unicode="&#xdf;" horiz-adv-x="694" 
d="M441 720q47 0 83.5 -3.5t76 -15t64 -31.5t37.5 -55.5t6 -84.5q-7 -51 -29 -83t-67 -58q52 -27 71.5 -69.5t10.5 -108.5q-16 -110 -77.5 -160.5t-179.5 -50.5q-36 0 -63.5 5t-35.5 10l-9 5l18 127q24 -9 52 -9q44 0 66.5 19t28.5 62q7 50 -17.5 73t-86.5 23l18 126
q51 0 76.5 16t30.5 50q3 20 -0.5 34t-13.5 23t-26.5 13.5t-40.5 4.5q-101 0 -116 -104l-67 -478h-201l66 469q35 251 325 251z" />
    <glyph glyph-name="agrave" unicode="&#xe0;" horiz-adv-x="576" 
d="M362 34q-55 -44 -152 -44q-101 0 -141 38t-28 123q13 89 79 129.5t200 40.5h59l3 19q5 34 -5.5 49t-37.5 15t-41.5 -13t-18.5 -41h-190q12 84 76 122t194.5 38t183 -45t38.5 -146l-45 -319h-156zM364 216h-40q-35 0 -55.5 -10.5t-24.5 -43.5q-4 -25 5.5 -34.5t35.5 -9.5
q25 0 41.5 10.5t24 27.5t11.5 42zM387 700l64 -150h-155l-110 150h201z" />
    <glyph glyph-name="aacute" unicode="&#xe1;" horiz-adv-x="576" 
d="M362 34q-55 -44 -152 -44q-101 0 -141 38t-28 123q13 89 79 129.5t200 40.5h59l3 19q5 34 -5.5 49t-37.5 15t-41.5 -13t-18.5 -41h-190q12 84 76 122t194.5 38t183 -45t38.5 -146l-45 -319h-156zM364 216h-40q-35 0 -55.5 -10.5t-24.5 -43.5q-4 -25 5.5 -34.5t35.5 -9.5
q25 0 41.5 10.5t24 27.5t11.5 42zM374 700h200l-152 -150h-155z" />
    <glyph glyph-name="acircumflex" unicode="&#xe2;" horiz-adv-x="576" 
d="M362 34q-55 -44 -152 -44q-101 0 -141 38t-28 123q13 89 79 129.5t200 40.5h59l3 19q5 34 -5.5 49t-37.5 15t-41.5 -13t-18.5 -41h-190q12 84 76 122t194.5 38t183 -45t38.5 -146l-45 -319h-156zM364 216h-40q-35 0 -55.5 -10.5t-24.5 -43.5q-4 -25 5.5 -34.5t35.5 -9.5
q25 0 41.5 10.5t24 27.5t11.5 42zM486 700l57 -150h-122l-46 66l-67 -66h-121l98 150h201z" />
    <glyph glyph-name="atilde" unicode="&#xe3;" horiz-adv-x="576" 
d="M362 34q-55 -44 -152 -44q-101 0 -141 38t-28 123q13 89 79 129.5t200 40.5h59l3 19q5 34 -5.5 49t-37.5 15t-41.5 -13t-18.5 -41h-190q12 84 76 122t194.5 38t183 -45t38.5 -146l-45 -319h-156zM364 216h-40q-35 0 -55.5 -10.5t-24.5 -43.5q-4 -25 5.5 -34.5t35.5 -9.5
q25 0 41.5 10.5t24 27.5t11.5 42zM197 580q7 53 47 92t86 39q32 0 53.5 -10.5t30 -23t17 -23t17.5 -10.5q5 0 10.5 6.5t7.5 19.5h88q-3 -26 -16 -50t-31 -42t-40.5 -29t-45.5 -11q-32 0 -54 10.5t-30 23.5t-16.5 23t-16.5 10q-6 0 -12 -6.5t-7 -18.5h-88z" />
    <glyph glyph-name="adieresis" unicode="&#xe4;" horiz-adv-x="576" 
d="M362 34q-55 -44 -152 -44q-101 0 -141 38t-28 123q13 89 79 129.5t200 40.5h59l3 19q5 34 -5.5 49t-37.5 15t-41.5 -13t-18.5 -41h-190q12 84 76 122t194.5 38t183 -45t38.5 -146l-45 -319h-156zM364 216h-40q-35 0 -55.5 -10.5t-24.5 -43.5q-4 -25 5.5 -34.5t35.5 -9.5
q25 0 41.5 10.5t24 27.5t11.5 42zM262.5 750q57.5 0 80 -23.5t14.5 -76.5q-7 -52 -36.5 -75.5t-86.5 -23.5t-79.5 23.5t-15 76t36.5 76t86.5 23.5zM520 750q58 0 81 -23.5t15 -76.5q-3 -26 -12 -44.5t-24.5 -31t-37 -18t-50.5 -5.5q-57 0 -79.5 23.5t-15 75.5t36.5 76t86 24
z" />
    <glyph glyph-name="aring" unicode="&#xe5;" horiz-adv-x="576" 
d="M362 34q-55 -44 -152 -44q-101 0 -141 38t-28 123q13 89 79 129.5t200 40.5h59l3 19q5 34 -5.5 49t-37.5 15t-41.5 -13t-18.5 -41h-190q12 84 76 122t194.5 38t183 -45t38.5 -146l-45 -319h-156zM364 216h-40q-35 0 -55.5 -10.5t-24.5 -43.5q-4 -25 5.5 -34.5t35.5 -9.5
q25 0 41.5 10.5t24 27.5t11.5 42zM394 753q70 0 98 -27t20 -85t-44 -84.5t-106 -26.5t-98 26.5t-20 85t43.5 85t106.5 26.5zM373 603q34 0 39 38t-29 38q-35 0 -40 -38t30 -38z" />
    <glyph glyph-name="ae" unicode="&#xe6;" horiz-adv-x="904" 
d="M563 199q-3 -24 -1.5 -42t9.5 -29t22 -16.5t34 -5.5q56 0 76 55h190q-28 -90 -95 -130.5t-187 -40.5q-76 0 -120 25t-61 79q-29 -54 -83 -79t-137 -25q-101 0 -141 38t-28 123q5 36 19 64.5t35.5 46.5t45.5 30t55 18t58.5 8.5t61.5 2.5h63l3 19q4 29 -6.5 41.5
t-36.5 12.5q-29 0 -42.5 -10t-17.5 -34h-190q12 84 76 122t195 38q115 0 154 -54q60 54 170 54q146 0 203 -61.5t38 -197.5l-7 -52h-355zM364 215h-36q-40 0 -60 -13t-24 -41q-4 -24 5.5 -34t34.5 -10q37 0 54.5 19.5t23.5 64.5zM733 305h1q4 31 -1 50.5t-20.5 29t-43.5 9.5
q-40 0 -61.5 -21t-27.5 -68h153z" />
    <glyph glyph-name="ccedilla" unicode="&#xe7;" horiz-adv-x="596" 
d="M207 -113h-1l43 104q-119 10 -165.5 72.5t-29.5 185.5q19 137 96 199t229 62q130 0 187 -48.5t52 -154.5h-202q0 34 -13.5 49t-45.5 15q-44 0 -68 -29t-33 -93t7 -93t60 -29q31 0 49.5 15t28.5 49h202q-23 -96 -83 -144.5t-168 -55.5l-15 -41l9 -3t20 -9t24 -16.5t17 -26
t4 -35.5q-7 -51 -68.5 -80.5t-158.5 -29.5l10 73q68 0 73 37q4 27 -60 27z" />
    <glyph glyph-name="egrave" unicode="&#xe8;" horiz-adv-x="596" 
d="M604 199h-357q-13 -93 66 -93q58 0 76 55h190q-29 -90 -95.5 -130.5t-186.5 -40.5q-147 0 -204 61.5t-38 198.5t94 198.5t221 61.5q145 0 202.5 -61.5t38.5 -197.5zM350 394q-35 0 -58 -24t-29 -65h153q4 31 -1.5 50.5t-21.5 29t-43 9.5zM460 550h-155l-110 150h201z" />
    <glyph glyph-name="eacute" unicode="&#xe9;" horiz-adv-x="596" 
d="M604 199h-357q-13 -93 66 -93q58 0 76 55h190q-29 -90 -95.5 -130.5t-186.5 -40.5q-147 0 -204 61.5t-38 198.5t94 198.5t221 61.5q145 0 202.5 -61.5t38.5 -197.5zM350 394q-35 0 -58 -24t-29 -65h153q4 31 -1.5 50.5t-21.5 29t-43 9.5zM287 550l107 150h200l-152 -150
h-155z" />
    <glyph glyph-name="ecircumflex" unicode="&#xea;" horiz-adv-x="596" 
d="M604 199h-357q-13 -93 66 -93q58 0 76 55h190q-29 -90 -95.5 -130.5t-186.5 -40.5q-147 0 -204 61.5t-38 198.5t94 198.5t221 61.5q145 0 202.5 -61.5t38.5 -197.5zM350 394q-35 0 -58 -24t-29 -65h153q4 31 -1.5 50.5t-21.5 29t-43 9.5zM552 550h-122l-46 66l-67 -66
h-121l98 150h201z" />
    <glyph glyph-name="edieresis" unicode="&#xeb;" horiz-adv-x="596" 
d="M604 199h-357q-13 -93 66 -93q58 0 76 55h190q-29 -90 -95.5 -130.5t-186.5 -40.5q-147 0 -204 61.5t-38 198.5t94 198.5t221 61.5q145 0 202.5 -61.5t38.5 -197.5zM350 394q-35 0 -58 -24t-29 -65h153q4 31 -1.5 50.5t-21.5 29t-43 9.5zM276.5 750q57.5 0 80 -23.5
t14.5 -76.5q-7 -52 -36.5 -75.5t-86.5 -23.5t-79.5 23.5t-15 76t36.5 76t86.5 23.5zM534 750q58 0 81 -23.5t15 -76.5q-3 -26 -12 -44.5t-24.5 -31t-37 -18t-50.5 -5.5q-57 0 -79.5 23.5t-15 75.5t36.5 76t86 24z" />
    <glyph glyph-name="igrave" unicode="&#xec;" horiz-adv-x="310" 
d="M260 0h-202l70 500h202zM322 550h-155l-109 150h200z" />
    <glyph glyph-name="iacute" unicode="&#xed;" horiz-adv-x="299" 
d="M251 0h-201l70 500h201zM130 550l106 150h201l-152 -150h-155z" />
    <glyph glyph-name="icircumflex" unicode="&#xee;" horiz-adv-x="316" 
d="M259 0h-202l70 500h202zM413 550h-121l-47 66l-67 -66h-121l98 150h202z" />
    <glyph glyph-name="idieresis" unicode="&#xef;" horiz-adv-x="314" 
d="M258 0h-202l70 500h202zM134.5 750q57.5 0 80 -23.5t14.5 -76.5q-7 -52 -36.5 -75.5t-86.5 -23.5t-79.5 23.5t-15 76t36.5 76t86.5 23.5zM390.5 750q57.5 0 80 -23.5t14.5 -76.5q-7 -52 -36.5 -75.5t-86.5 -23.5t-79.5 23.5t-15 76t36.5 76t86.5 23.5z" />
    <glyph glyph-name="ntilde" unicode="&#xf1;" horiz-adv-x="607" 
d="M292 469h1q53 41 143 41q106 0 146.5 -57t22.5 -183l-38 -270h-202l38 270q7 54 -3.5 78t-40.5 24q-29 0 -46 -24.5t-24 -77.5l-38 -270h-201l70 500h156zM218 581q7 53 47 92t86 39q32 0 54 -10.5t30 -23t16.5 -23t17.5 -10.5q6 0 11.5 6.5t6.5 19.5h88
q-5 -35 -24.5 -65t-48.5 -48.5t-60 -18.5q-32 0 -54 10.5t-30 23t-16.5 23t-16.5 10.5q-6 0 -12 -6.5t-7 -18.5h-88z" />
    <glyph glyph-name="ograve" unicode="&#xf2;" horiz-adv-x="616" 
d="M380 510q151 0 210.5 -62t40.5 -198t-96.5 -198t-227.5 -62q-152 0 -211.5 61.5t-40.5 198.5t96 198.5t229 61.5zM256 250q-9 -64 7.5 -93t62.5 -29q45 0 69.5 29t33.5 93q6 42 0.5 69.5t-22.5 40t-47 12.5q-45 0 -70 -29t-34 -93zM471 550h-155l-110 150h201z" />
    <glyph glyph-name="oacute" unicode="&#xf3;" horiz-adv-x="616" 
d="M380 510q151 0 210.5 -62t40.5 -198t-96.5 -198t-227.5 -62q-152 0 -211.5 61.5t-40.5 198.5t96 198.5t229 61.5zM256 250q-9 -64 7.5 -93t62.5 -29q45 0 69.5 29t33.5 93q6 42 0.5 69.5t-22.5 40t-47 12.5q-45 0 -70 -29t-34 -93zM298 550l107 150h200l-152 -150h-155z
" />
    <glyph glyph-name="ocircumflex" unicode="&#xf4;" horiz-adv-x="616" 
d="M380 510q151 0 210.5 -62t40.5 -198t-96.5 -198t-227.5 -62q-152 0 -211.5 61.5t-40.5 198.5t96 198.5t229 61.5zM256 250q-9 -64 7.5 -93t62.5 -29q45 0 69.5 29t33.5 93q6 42 0.5 69.5t-22.5 40t-47 12.5q-45 0 -70 -29t-34 -93zM563 550h-122l-46 66l-67 -66h-121
l98 150h201z" />
    <glyph glyph-name="otilde" unicode="&#xf5;" horiz-adv-x="616" 
d="M380 510q151 0 210.5 -62t40.5 -198t-96.5 -198t-227.5 -62q-152 0 -211.5 61.5t-40.5 198.5t96 198.5t229 61.5zM256 250q-9 -64 7.5 -93t62.5 -29q45 0 69.5 29t33.5 93q6 42 0.5 69.5t-22.5 40t-47 12.5q-45 0 -70 -29t-34 -93zM217 581q7 53 47 92t86 39
q32 0 54 -10.5t30 -23t16.5 -23t17.5 -10.5q6 0 11.5 6.5t6.5 19.5h88q-5 -35 -24.5 -65t-48.5 -48.5t-60 -18.5q-32 0 -54 10.5t-30 23t-16.5 23t-16.5 10.5q-6 0 -12 -6.5t-7 -18.5h-88z" />
    <glyph glyph-name="odieresis" unicode="&#xf6;" horiz-adv-x="616" 
d="M380 510q151 0 210.5 -62t40.5 -198t-96.5 -198t-227.5 -62q-152 0 -211.5 61.5t-40.5 198.5t96 198.5t229 61.5zM256 250q-9 -64 7.5 -93t62.5 -29q45 0 69.5 29t33.5 93q6 42 0.5 69.5t-22.5 40t-47 12.5q-45 0 -70 -29t-34 -93zM283.5 750q57.5 0 80 -23.5t14.5 -76.5
q-7 -52 -36.5 -75.5t-86.5 -23.5t-79.5 23.5t-15 76t36.5 76t86.5 23.5zM541 750q58 0 81 -23.5t15 -76.5q-3 -26 -12 -44.5t-24.5 -31t-37 -18t-50.5 -5.5q-57 0 -79.5 23.5t-15 75.5t36.5 76t86 24z" />
    <glyph glyph-name="divide" unicode="&#xf7;" horiz-adv-x="560" 
d="M568 197h-520l19 137h520zM194 77q1 11 5 21.5t9.5 19.5t13 16.5t16.5 13.5t19.5 10t22 6t23.5 2q44 0 67 -24.5t17.5 -64.5t-35.5 -64t-73.5 -24t-67 24t-17.5 64zM247.5 453q5.5 40 35.5 64t74 24t67 -24t17.5 -64t-35.5 -64t-73.5 -24t-67 24t-18 64z" />
    <glyph glyph-name="oslash" unicode="&#xf8;" horiz-adv-x="616" 
d="M425 509l29 61h88l-36 -75q79 -22 109.5 -82t15.5 -163q-19 -136 -96.5 -198t-227.5 -62q-31 0 -46 1l-30 -61h-88l37 75q-79 22 -109 82t-16 163q19 137 96 198.5t229 61.5q30 0 45 -1zM429 250q9 64 -7.5 93t-63.5 29q-44 0 -68.5 -29t-33.5 -93t8 -93t63 -29
q44 0 68.5 29t33.5 93z" />
    <glyph glyph-name="ugrave" unicode="&#xf9;" horiz-adv-x="606" 
d="M383 31q-52 -41 -142 -41q-107 0 -146.5 57t-22.5 183l38 270h201l-38 -270q-7 -54 3.5 -78t40.5 -24q20 0 34 11.5t22.5 34t13.5 60.5l37 266h202l-70 -500h-156zM419 700l65 -150h-155l-110 150h200z" />
    <glyph glyph-name="uacute" unicode="&#xfa;" horiz-adv-x="606" 
d="M383 31q-52 -41 -142 -41q-107 0 -146.5 57t-22.5 183l38 270h201l-38 -270q-7 -54 3.5 -78t40.5 -24q20 0 34 11.5t22.5 34t13.5 60.5l37 266h202l-70 -500h-156zM377 700h200l-151 -150h-156z" />
    <glyph glyph-name="ucircumflex" unicode="&#xfb;" horiz-adv-x="606" 
d="M383 31q-52 -41 -142 -41q-107 0 -146.5 57t-22.5 183l38 270h201l-38 -270q-7 -54 3.5 -78t40.5 -24q20 0 34 11.5t22.5 34t13.5 60.5l37 266h202l-70 -500h-156zM499 700l56 -150h-121l-47 66l-67 -66h-121l98 150h202z" />
    <glyph glyph-name="udieresis" unicode="&#xfc;" horiz-adv-x="606" 
d="M383 31q-52 -41 -142 -41q-107 0 -146.5 57t-22.5 183l38 270h201l-38 -270q-7 -54 3.5 -78t40.5 -24q20 0 34 11.5t22.5 34t13.5 60.5l37 266h202l-70 -500h-156zM276.5 750q57.5 0 80 -23.5t14.5 -76.5q-7 -52 -36.5 -75.5t-86.5 -23.5t-79.5 23.5t-15 76t36.5 76
t86.5 23.5zM534 750q58 0 81 -23.5t15 -76.5q-3 -26 -12 -44.5t-24.5 -31t-37 -18t-50.5 -5.5q-57 0 -79.5 23.5t-15 75.5t36.5 76t86 24z" />
    <glyph glyph-name="yacute" unicode="&#xfd;" horiz-adv-x="556" 
d="M209 -1l7 14l-146 487h190l60 -256l116 256h190l-240 -493q-48 -98 -98 -142.5t-114 -44.5h-126l16 116h70q46 0 75 63zM287 550l107 150h200l-152 -150h-155z" />
    <glyph glyph-name="ydieresis" unicode="&#xff;" horiz-adv-x="556" 
d="M209 -1l7 14l-146 487h190l60 -256l116 256h190l-240 -493q-48 -98 -98 -142.5t-114 -44.5h-126l16 116h70q46 0 75 63zM261.5 750q57.5 0 80 -23.5t14.5 -76.5q-7 -52 -36.5 -75.5t-86.5 -23.5t-79.5 23.5t-15 76t36.5 76t86.5 23.5zM519 750q58 0 81 -23.5t15 -76.5
q-3 -26 -12 -44.5t-24.5 -31t-37 -18t-50.5 -5.5q-57 0 -79.5 23.5t-15 75.5t36.5 76t86 24z" />
    <glyph glyph-name="Amacron" unicode="&#x100;" horiz-adv-x="719" 
d="M483 0l-12 125h-197l-50 -125h-224l312 700h314l93 -700h-236zM432 520l-103 -257h128zM322 854h340l-15 -106h-340z" />
    <glyph glyph-name="amacron" unicode="&#x101;" horiz-adv-x="576" 
d="M362 34q-55 -44 -152 -44q-101 0 -141 38t-28 123q13 89 79 129.5t200 40.5h59l3 19q5 34 -5.5 49t-37.5 15t-41.5 -13t-18.5 -41h-190q12 84 76 122t194.5 38t183 -45t38.5 -146l-45 -319h-156zM364 216h-40q-35 0 -55.5 -10.5t-24.5 -43.5q-4 -25 5.5 -34.5t35.5 -9.5
q25 0 41.5 10.5t24 27.5t11.5 42zM198 578l15 106h340l-15 -106h-340z" />
    <glyph glyph-name="Abreve" unicode="&#x102;" horiz-adv-x="719" 
d="M483 0l-12 125h-197l-50 -125h-224l312 700h314l93 -700h-236zM432 520l-103 -257h128zM667 870q-9 -63 -54 -91.5t-135.5 -28.5t-128 28.5t-28.5 91.5h145q-5 -35 25 -36q26 1 31 36h145z" />
    <glyph glyph-name="abreve" unicode="&#x103;" horiz-adv-x="576" 
d="M362 34q-55 -44 -152 -44q-101 0 -141 38t-28 123q13 89 79 129.5t200 40.5h59l3 19q5 34 -5.5 49t-37.5 15t-41.5 -13t-18.5 -41h-190q12 84 76 122t194.5 38t183 -45t38.5 -146l-45 -319h-156zM364 216h-40q-35 0 -55.5 -10.5t-24.5 -43.5q-4 -25 5.5 -34.5t35.5 -9.5
q25 0 41.5 10.5t24 27.5t11.5 42zM425 700h133q-11 -79 -56.5 -114.5t-136 -35.5t-127 35.5t-25.5 114.5h133q-4 -30 3 -43t30 -12q39 0 46 55z" />
    <glyph glyph-name="Aogonek" unicode="&#x104;" horiz-adv-x="719" 
d="M719 0h-44q-44 -43 -43 -73q3 -17 25 -18q8 0 17 2.5t15 4.5l6 3l-21 -149q-33 -20 -73 -20q-44 0 -70.5 26t-31 63.5t14.5 82t59 78.5h-90l-12 125h-197l-50 -125h-224l312 700h314zM432 520l-103 -257h128z" />
    <glyph glyph-name="aogonek" unicode="&#x105;" horiz-adv-x="576" 
d="M377 3h-1l-15 30q-55 -44 -153 -44q-100 0 -140 38t-28 123q13 89 79 129.5t200 40.5h59l3 19q4 34 -6 49t-37 15t-41.5 -13t-18.5 -41h-190q12 84 76 122t194.5 38t183 -45t38.5 -146l-45 -319h-61q-44 -42 -42 -72q3 -17 25 -18q7 0 16.5 2.5t15.5 4.5l6 3l-21 -149
q-33 -20 -73 -20q-44 0 -71 26.5t-30.5 64.5t16.5 83t61 79zM364 215h-40q-35 0 -55.5 -10.5t-24.5 -43.5q-4 -25 5.5 -34.5t34.5 -9.5q37 0 54.5 20.5t23.5 59.5z" />
    <glyph glyph-name="Cacute" unicode="&#x106;" horiz-adv-x="786" 
d="M566 241h224q-46 -137 -137.5 -199t-245.5 -62q-199 0 -277 88t-51 282t130 282t302 88q109 0 177.5 -27t100.5 -84.5t31 -149.5h-224q-1 53 -26.5 77.5t-80.5 24.5q-76 0 -117 -50.5t-57 -160.5q-11 -73 -2 -120t37.5 -69t79.5 -22q56 0 89 24.5t47 77.5zM427 750
l104 120h189l-138 -120h-155z" />
    <glyph glyph-name="cacute" unicode="&#x107;" horiz-adv-x="596" 
d="M401 192h201q-25 -106 -95.5 -154t-200.5 -48q-152 0 -211.5 61.5t-40.5 198.5t96 198.5t229 61.5q130 0 187 -48t52 -154h-202q1 34 -13 49t-46 15q-43 0 -67.5 -29t-33.5 -93q-4 -32 -2.5 -55t10 -38t23 -22t36.5 -7q31 0 49.5 15t28.5 49zM298 550l107 150h200
l-152 -150h-155z" />
    <glyph glyph-name="Ccircumflex" unicode="&#x108;" horiz-adv-x="786" 
d="M566 241h224q-46 -137 -137.5 -199t-245.5 -62q-199 0 -277 88t-51 282t130 282t302 88q109 0 177.5 -27t100.5 -84.5t31 -149.5h-224q-1 53 -26.5 77.5t-80.5 24.5q-76 0 -117 -50.5t-57 -160.5q-11 -73 -2 -120t37.5 -69t79.5 -22q56 0 89 24.5t47 77.5zM690 750h-133
l-37 46l-51 -46h-132l93 120h201z" />
    <glyph glyph-name="ccircumflex" unicode="&#x109;" horiz-adv-x="596" 
d="M401 192h201q-25 -106 -95.5 -154t-200.5 -48q-152 0 -211.5 61.5t-40.5 198.5t96 198.5t229 61.5q130 0 187 -48t52 -154h-202q1 34 -13 49t-46 15q-43 0 -67.5 -29t-33.5 -93q-4 -32 -2.5 -55t10 -38t23 -22t36.5 -7q31 0 49.5 15t28.5 49zM563 550h-122l-46 66
l-67 -66h-121l98 150h201z" />
    <glyph glyph-name="Cdotaccent" unicode="&#x10a;" horiz-adv-x="786" 
d="M566 241h224q-46 -137 -137.5 -199t-245.5 -62q-199 0 -277 88t-51 282t130 282t302 88q109 0 177.5 -27t100.5 -84.5t31 -149.5h-224q-1 53 -26.5 77.5t-80.5 24.5q-76 0 -117 -50.5t-57 -160.5q-11 -73 -2 -120t37.5 -69t79.5 -22q56 0 89 24.5t47 77.5zM535 906
q58 0 81.5 -20t17.5 -64q-7 -44 -35.5 -63.5t-86.5 -19.5q-57 0 -80.5 20t-16.5 63q6 44 34.5 64t85.5 20z" />
    <glyph glyph-name="cdotaccent" unicode="&#x10b;" horiz-adv-x="596" 
d="M401 192h201q-25 -106 -95.5 -154t-200.5 -48q-152 0 -211.5 61.5t-40.5 198.5t96 198.5t229 61.5q130 0 187 -48t52 -154h-202q1 34 -13 49t-46 15q-43 0 -67.5 -29t-33.5 -93q-4 -32 -2.5 -55t10 -38t23 -22t36.5 -7q31 0 49.5 15t28.5 49zM415 758q57 0 79.5 -22.5
t15.5 -71.5t-36 -71.5t-87 -22.5q-57 0 -80 22.5t-16 71.5t36.5 71.5t87.5 22.5z" />
    <glyph glyph-name="Ccaron" unicode="&#x10c;" horiz-adv-x="786" 
d="M566 241h224q-46 -137 -137.5 -199t-245.5 -62q-199 0 -277 88t-51 282t130 282t302 88q109 0 177.5 -27t100.5 -84.5t31 -149.5h-224q-1 53 -26.5 77.5t-80.5 24.5q-76 0 -117 -50.5t-57 -160.5q-11 -73 -2 -120t37.5 -69t79.5 -22q56 0 89 24.5t47 77.5zM696 870
l-93 -120h-202l-59 120h133l38 -46l50 46h133z" />
    <glyph glyph-name="ccaron" unicode="&#x10d;" horiz-adv-x="596" 
d="M401 192h201q-25 -106 -95.5 -154t-200.5 -48q-152 0 -211.5 61.5t-40.5 198.5t96 198.5t229 61.5q130 0 187 -48t52 -154h-202q1 34 -13 49t-46 15q-43 0 -67.5 -29t-33.5 -93q-4 -32 -2.5 -55t10 -38t23 -22t36.5 -7q31 0 49.5 15t28.5 49zM584 700l-99 -150h-201
l-56 150h121l48 -66l65 66h122z" />
    <glyph glyph-name="Dcaron" unicode="&#x10e;" horiz-adv-x="758" 
d="M777 350q-26 -184 -125 -267t-292 -83h-300l98 700h300q194 0 269.5 -83t49.5 -267zM427 552h-65l-57 -404h65q38 0 66.5 11.5t49.5 36.5t35 63t21 91q15 106 -12.5 154t-102.5 48zM638 870l-93 -120h-202l-59 120h133l38 -46l50 46h133z" />
    <glyph glyph-name="dcaron" unicode="&#x10f;" horiz-adv-x="784" 
d="M239 -10q-116 0 -159.5 62t-24.5 198.5t80 198t178 61.5q82 0 128 -31l31 221h202l-98 -700h-156l-20 37q-59 -47 -161 -47zM316 128q40 0 62 29t31 93q5 32 3.5 55t-8.5 38t-20.5 22t-33.5 7q-40 0 -62.5 -29t-31.5 -93q-4 -32 -3 -55t8.5 -38t21 -22t33.5 -7zM789 710
q43 0 55.5 -24t6.5 -68q-9 -65 -46 -94t-111 -29l8 63q28 0 42 9t17 29q-34 0 -47 12.5t-9 39.5q3 24 14.5 38t28 19t41.5 5z" />
    <glyph glyph-name="Dcroat" unicode="&#x110;" horiz-adv-x="788" 
d="M807 350q-17 -123 -66.5 -200t-135 -113.5t-215.5 -36.5h-300l44 314h-90l18 127h90l36 259h300q194 0 269.5 -83t49.5 -267zM457 552h-65l-16 -111h120l-18 -127h-120l-23 -166h65q38 0 66.5 11.5t49.5 36.5t35 63t21 91q15 106 -12.5 154t-102.5 48z" />
    <glyph glyph-name="dcroat" unicode="&#x111;" horiz-adv-x="667" 
d="M755 630h1l-12 -84h-90l-77 -546h-156l-20 37q-59 -47 -161 -47q-117 0 -160.5 61.5t-24.5 198.5t80 198.5t178 61.5q82 0 128 -31l10 67h-150l12 84h150l9 70h202l-9 -70h90zM316 128q40 0 62 29t31 93q5 32 4 55t-8.5 38t-21 22t-33.5 7q-40 0 -62.5 -29t-31.5 -93
t5 -93t55 -29z" />
    <glyph glyph-name="Emacron" unicode="&#x112;" horiz-adv-x="610" 
d="M668 552h-306l-17 -118h266l-21 -149h-266l-19 -137h306l-21 -148h-530l98 700h530zM275 854h340l-15 -106h-340z" />
    <glyph glyph-name="emacron" unicode="&#x113;" horiz-adv-x="596" 
d="M604 199h-357q-13 -93 66 -93q58 0 76 55h190q-29 -90 -95.5 -130.5t-186.5 -40.5q-147 0 -204 61.5t-38 198.5t94 198.5t221 61.5q145 0 202.5 -61.5t38.5 -197.5zM350 394q-35 0 -58 -24t-29 -65h153q4 31 -1.5 50.5t-21.5 29t-43 9.5zM222 685h340l-15 -106h-340z" />
    <glyph glyph-name="Ebreve" unicode="&#x114;" horiz-adv-x="610" 
d="M668 552h-306l-17 -118h266l-21 -149h-266l-19 -137h306l-21 -148h-530l98 700h530zM620 870q-9 -63 -54 -91.5t-135.5 -28.5t-128 28.5t-28.5 91.5h145q-5 -35 25 -36q26 1 31 36h145z" />
    <glyph glyph-name="ebreve" unicode="&#x115;" horiz-adv-x="596" 
d="M604 199h-357q-13 -93 66 -93q58 0 76 55h190q-29 -90 -95.5 -130.5t-186.5 -40.5q-147 0 -204 61.5t-38 198.5t94 198.5t221 61.5q145 0 202.5 -61.5t38.5 -197.5zM350 394q-35 0 -58 -24t-29 -65h153q4 31 -1.5 50.5t-21.5 29t-43 9.5zM567 700q-11 -79 -56.5 -114.5
t-136 -35.5t-127 35.5t-25.5 114.5h133q-2 -15 -1.5 -25.5t4.5 -17t11 -9.5t19 -3q39 0 46 55h133z" />
    <glyph glyph-name="Edotaccent" unicode="&#x116;" horiz-adv-x="610" 
d="M668 552h-306l-17 -118h266l-21 -149h-266l-19 -137h306l-21 -148h-530l98 700h530zM452 906q57 0 80.5 -20t17.5 -64q-7 -43 -35.5 -63t-85.5 -20q-58 0 -81 19.5t-16 63.5q6 44 34.5 64t85.5 20z" />
    <glyph glyph-name="edotaccent" unicode="&#x117;" horiz-adv-x="596" 
d="M604 199h-357q-13 -93 66 -93q58 0 76 55h190q-29 -90 -95.5 -130.5t-186.5 -40.5q-147 0 -204 61.5t-38 198.5t94 198.5t221 61.5q145 0 202.5 -61.5t38.5 -197.5zM350 394q-35 0 -58 -24t-29 -65h153q4 31 -1.5 50.5t-21.5 29t-43 9.5zM404 758q57 0 79.5 -22.5
t15.5 -71.5t-36 -71.5t-87 -22.5q-57 0 -80 22.5t-16 71.5t36.5 71.5t87.5 22.5z" />
    <glyph glyph-name="Eogonek" unicode="&#x118;" horiz-adv-x="610" 
d="M590 0h-58q-44 -43 -43 -73q3 -17 25 -18q8 0 17 2.5t15 4.5l6 3l-21 -149q-33 -20 -73 -20q-44 0 -70.5 26t-31 63.5t14.5 82t59 78.5h-370l98 700h530l-20 -148h-306l-17 -118h266l-21 -149h-266l-19 -137h306z" />
    <glyph glyph-name="eogonek" unicode="&#x119;" horiz-adv-x="596" 
d="M323 -10h-26q-147 0 -204 61.5t-38 198.5t93.5 198.5t221.5 61.5q145 0 202.5 -61.5t38.5 -197.5l-7 -52h-357q-13 -93 66 -93q58 0 76 55h190q-35 -107 -125 -145q-45 -33 -58 -72q-12 -35 22 -35q7 0 16.5 2.5t15.5 4.5l6 3l-21 -149q-33 -20 -73 -20q-56 0 -83.5 39.5
t-15.5 96.5t60 104zM350 394q-35 0 -58 -24t-29 -65h153q4 31 -1.5 50.5t-21.5 29t-43 9.5z" />
    <glyph glyph-name="Ecaron" unicode="&#x11a;" horiz-adv-x="610" 
d="M668 552h-306l-17 -118h266l-21 -149h-266l-19 -137h306l-21 -148h-530l98 700h530zM612 870l-93 -120h-201l-59 120h133l38 -46l50 46h132z" />
    <glyph glyph-name="ecaron" unicode="&#x11b;" horiz-adv-x="596" 
d="M604 199h-357q-13 -93 66 -93q58 0 76 55h190q-29 -90 -95.5 -130.5t-186.5 -40.5q-147 0 -204 61.5t-38 198.5t94 198.5t221 61.5q145 0 202.5 -61.5t38.5 -197.5zM350 394q-35 0 -58 -24t-29 -65h153q4 31 -1.5 50.5t-21.5 29t-43 9.5zM573 700l-99 -150h-201l-56 150
h121l48 -66l65 66h122z" />
    <glyph glyph-name="Gbreve" unicode="&#x11e;" horiz-adv-x="796" 
d="M447 275l19 138h358l-9 -63q-27 -194 -124.5 -282t-285.5 -88q-198 0 -275.5 88t-50.5 282t129.5 282t300.5 88q158 0 232.5 -57t81.5 -183h-212q-4 42 -33.5 61.5t-90.5 19.5q-75 0 -115.5 -50t-56.5 -161q-15 -110 11.5 -160.5t101.5 -50.5q76 0 115.5 32.5t49.5 103.5
h-146zM703 870q-9 -63 -54 -91.5t-135.5 -28.5t-127.5 28.5t-28 91.5h144q-5 -35 25 -36q26 1 31 36h145z" />
    <glyph glyph-name="gbreve" unicode="&#x11f;" 
d="M240 -10q-116 0 -160 62t-25 199q19 136 80 197.5t178 61.5q102 0 147 -46l30 36h156l-63 -450q-13 -91 -50 -148.5t-102 -84.5t-163 -27q-123 0 -178 40.5t-55 130.5h190q0 -29 11.5 -42t36.5 -13q46 0 70.5 26t32.5 84l1 5q-55 -31 -137 -31zM316 129q40 0 62 29t31 93
t-5 93t-54 29t-62.5 -29t-31.5 -93t5.5 -93t54.5 -29zM564 700q-11 -79 -56.5 -114.5t-136 -35.5t-127 35.5t-25.5 114.5h133q-2 -15 -1.5 -25.5t4.5 -17t11 -9.5t19 -3q39 0 46 55h133z" />
    <glyph glyph-name="Gdotaccent" unicode="&#x120;" horiz-adv-x="796" 
d="M447 275l19 138h358l-9 -63q-27 -194 -124.5 -282t-285.5 -88q-198 0 -275.5 88t-50.5 282t129.5 282t300.5 88q158 0 232.5 -57t81.5 -183h-212q-4 42 -33.5 61.5t-90.5 19.5q-75 0 -115.5 -50t-56.5 -161q-15 -110 11.5 -160.5t101.5 -50.5q76 0 115.5 32.5t49.5 103.5
h-146zM535 906q58 0 81.5 -20t17.5 -64q-7 -44 -35.5 -63.5t-86.5 -19.5q-57 0 -80.5 20t-16.5 63q6 44 34.5 64t85.5 20z" />
    <glyph glyph-name="gdotaccent" unicode="&#x121;" 
d="M240 -10q-116 0 -160 62t-25 199q19 136 80 197.5t178 61.5q102 0 147 -46l30 36h156l-63 -450q-13 -91 -50 -148.5t-102 -84.5t-163 -27q-123 0 -178 40.5t-55 130.5h190q0 -29 11.5 -42t36.5 -13q46 0 70.5 26t32.5 84l1 5q-55 -31 -137 -31zM316 129q40 0 62 29t31 93
t-5 93t-54 29t-62.5 -29t-31.5 -93t5.5 -93t54.5 -29zM399 761q58 0 81 -22.5t16 -72.5q-7 -49 -36.5 -71.5t-87.5 -22.5q-56 0 -79 22.5t-16 71.5q7 50 36 72.5t86 22.5z" />
    <glyph glyph-name="Gcedilla" unicode="&#x122;" horiz-adv-x="796" 
d="M447 275l19 138h358l-9 -63q-27 -194 -124.5 -282t-285.5 -88q-198 0 -275.5 88t-50 282t129.5 282t300 88q158 0 232.5 -57t81.5 -183h-213q-3 42 -33 61.5t-90 19.5q-75 0 -116 -50t-57 -161q-15 -110 12 -160.5t102 -50.5q50 0 84 14.5t53.5 44t26.5 77.5h-145z
M403 -39q42 0 55 -24t7 -68q-10 -65 -47 -94t-111 -29l9 63q19 0 31 4t19 12t8 22q-33 0 -46 12.5t-9 39.5q3 24 14.5 38t28 19t41.5 5z" />
    <glyph glyph-name="gcedilla" unicode="&#x123;" 
d="M240 -10q-116 0 -160 62t-25 199q19 136 80 197.5t178 61.5q102 0 147 -46l30 36h156l-63 -450q-13 -91 -50 -148.5t-102 -84.5t-163 -27q-123 0 -178 40.5t-55 130.5h190q0 -29 11.5 -42t36.5 -13q46 0 70.5 26t32.5 84l1 5q-55 -31 -137 -31zM316 129q40 0 62 29t31 93
t-5 93t-54 29t-62.5 -29t-31.5 -93t5.5 -93t54.5 -29zM365 535q-43 0 -55.5 24t-6.5 68q9 65 46 94t111 29l-8 -63q-28 0 -42 -9t-17 -29q34 0 47 -12.5t9 -39.5q-3 -24 -14.5 -38t-28 -19t-41.5 -5z" />
    <glyph glyph-name="Itilde" unicode="&#x128;" horiz-adv-x="345" 
d="M159 700h224l-98 -700h-224zM107 760q7 51 44.5 81t85.5 30q32 0 55 -6t33 -12.5t21.5 -12.5t23.5 -6q5 0 11.5 5.5t6.5 10.5h76q-7 -51 -44 -81t-86 -30q-32 0 -54.5 6t-32.5 12.5t-21.5 12.5t-23.5 6q-6 0 -11.5 -5.5t-6.5 -10.5h-77z" />
    <glyph glyph-name="itilde" unicode="&#x129;" horiz-adv-x="305" 
d="M253 0h-201l70 500h201zM62 581q7 53 46.5 92t86.5 39q32 0 53.5 -10.5t30 -23t17 -23t16.5 -10.5q6 0 12 7t7 19h88q-7 -53 -47 -92.5t-86 -39.5q-32 0 -54 10.5t-30 23.5t-16.5 23t-16.5 10q-6 0 -12 -6.5t-7 -18.5h-88z" />
    <glyph glyph-name="Imacron" unicode="&#x12a;" horiz-adv-x="360" 
d="M166 700h224l-98 -700h-224zM130 854h340l-15 -105h-340z" />
    <glyph glyph-name="imacron" unicode="&#x12b;" horiz-adv-x="320" 
d="M261 0h-201l70 500h201zM86 685h340l-15 -106h-340z" />
    <glyph glyph-name="Iogonek" unicode="&#x12e;" horiz-adv-x="344" 
d="M284 0h-36q-44 -43 -42 -73q3 -17 25 -18q7 0 16.5 2.5t15.5 4.5l6 3l-21 -149q-34 -20 -74 -20q-44 0 -70.5 26t-31 63t14.5 82t60 79h-87l98 700h224z" />
    <glyph glyph-name="iogonek" unicode="&#x12f;" horiz-adv-x="319" 
d="M260 0h-33q-44 -43 -43 -73q2 -17 24 -18q8 0 17 2.5t15 4.5l6 3l-21 -149q-33 -20 -73 -20q-44 0 -70.5 26t-31 63.5t14.5 82t59 78.5h-65l70 500h201zM263 733q57 0 80 -22.5t16 -71.5q-5 -34 -19.5 -54.5t-40 -30t-63.5 -9.5q-58 0 -80.5 22t-15.5 72q7 49 36 71.5
t87 22.5z" />
    <glyph glyph-name="Idotaccent" unicode="&#x130;" horiz-adv-x="344" 
d="M158 700h224l-98 -700h-224zM299 906q58 0 81.5 -20t17.5 -64q-7 -44 -35.5 -63.5t-86.5 -19.5q-57 0 -80.5 20t-16.5 63q6 44 34.5 64t85.5 20z" />
    <glyph glyph-name="dotlessi" unicode="&#x131;" horiz-adv-x="267" 
d="M234 0h-201l70 500h201z" />
    <glyph glyph-name="IJ" unicode="&#x132;" horiz-adv-x="943" 
d="M158 700h224l-98 -700h-224zM396 210l5 42h212l-5 -42q-3 -18 -2.5 -31.5t5 -22.5t12.5 -13t21 -4q45 0 55 71l68 490h224l-68 -490q-17 -117 -89.5 -173.5t-212.5 -56.5q-134 0 -188 56.5t-37 173.5z" />
    <glyph glyph-name="ij" unicode="&#x133;" horiz-adv-x="631" 
d="M260 0h-201l70 500h201zM340 -42q18 0 32 12.5t17 33.5l69 496h201l-72 -517q-11 -76 -61 -119.5t-126 -43.5h-177l19 138h98zM263 733q57 0 80 -22.5t16 -71.5q-7 -50 -36.5 -72.5t-86.5 -21.5q-58 -1 -80.5 21.5t-15.5 72.5q7 49 36 71.5t87 22.5zM591 733
q58 0 81 -22.5t16 -71.5q-7 -50 -36.5 -72.5t-86.5 -21.5q-58 -1 -80.5 21.5t-15.5 72.5q7 49 36 71.5t86 22.5z" />
    <glyph glyph-name="Kcedilla" unicode="&#x136;" horiz-adv-x="763" 
d="M382 700l-34 -241l225 241h268l-316 -340l238 -360h-268l-174 263l-37 -263h-224l98 700h224zM369 -39q42 0 55 -24t7 -68q-10 -65 -47 -94t-111 -29l9 63q19 0 31 4t19 12t8 22q-33 0 -46 12.5t-9 39.5q3 24 14.5 38t28 19t41.5 5z" />
    <glyph glyph-name="kcedilla" unicode="&#x137;" horiz-adv-x="639" 
d="M349 700l-52 -370l158 170h234l-222 -240l172 -260h-234l-127 192l-27 -192h-201l98 700h201zM309 -39q42 0 55 -24t7 -68q-10 -65 -47 -94t-111 -29l9 63q19 0 31 4t19 12t8 22q-33 0 -46 12.5t-9 39.5q5 35 25.5 48.5t58.5 13.5z" />
    <glyph glyph-name="Lacute" unicode="&#x139;" horiz-adv-x="580" 
d="M572 159l-22 -159h-490l98 700h224l-76 -541h266zM201 750l104 120h189l-138 -120h-155z" />
    <glyph glyph-name="lacute" unicode="&#x13a;" horiz-adv-x="303" 
d="M50 0l98 700h202l-98 -700h-202zM182 750l104 120h189l-138 -120h-155z" />
    <glyph glyph-name="Lcedilla" unicode="&#x13b;" horiz-adv-x="581" 
d="M573 159l-22 -159h-491l98 700h224l-76 -541h267zM299 -39q42 0 55 -24t7 -68q-10 -65 -47 -94t-111 -29l9 63q19 0 31 4t19 12t8 22q-33 0 -46 12.5t-9 39.5q5 35 25.5 48.5t58.5 13.5z" />
    <glyph glyph-name="lcedilla" unicode="&#x13c;" horiz-adv-x="301" 
d="M50 0l98 700h201l-98 -700h-201zM149 -39q42 0 55 -24t7 -68q-10 -65 -47 -94t-111 -29l9 63q28 0 42 9t16 29q-33 0 -46 12.5t-9 39.5q5 35 25.5 48.5t58.5 13.5z" />
    <glyph glyph-name="Lcaron" unicode="&#x13d;" horiz-adv-x="580" 
d="M572 159l-22 -159h-490l98 700h224l-76 -541h266zM498 710q29 0 45 -12.5t18 -33t-1 -46.5q-9 -65 -46 -94t-111 -29l8 63q28 0 42 9t17 29q-34 0 -47 12.5t-9 39.5q3 24 14.5 38t28 19t41.5 5z" />
    <glyph glyph-name="lcaron" unicode="&#x13e;" horiz-adv-x="460" 
d="M50 0l98 700h201l-98 -700h-201zM465 710q29 0 45 -12.5t18 -33t-1 -46.5q-9 -65 -46 -94t-111 -29l8 63q28 0 42 9t17 29q-34 0 -47 12.5t-9 39.5q3 24 14.5 38t28 19t41.5 5z" />
    <glyph glyph-name="Lslash" unicode="&#x141;" horiz-adv-x="609" 
d="M601 159l-22 -159h-491l42 301l-95 -51l19 137l96 51l36 262h224l-18 -132l166 90l-19 -137l-166 -90l-39 -272h267z" />
    <glyph glyph-name="lslash" unicode="&#x142;" horiz-adv-x="418" 
d="M54 243l19 137l95 50l38 270h202l-21 -155l95 50l-20 -138l-95 -50l-57 -407h-202l41 293z" />
    <glyph glyph-name="Nacute" unicode="&#x143;" horiz-adv-x="778" 
d="M604 700h212l-98 -700h-256l-129 434l-61 -434h-212l98 700h256l129 -434zM407 750l104 120h189l-137 -120h-156z" />
    <glyph glyph-name="nacute" unicode="&#x144;" horiz-adv-x="607" 
d="M292 469h1q53 41 143 41q106 0 146.5 -57t22.5 -183l-38 -270h-202l38 270q7 54 -3.5 78t-40.5 24q-29 0 -46 -24.5t-24 -77.5l-38 -270h-201l70 500h156zM406 700h200l-152 -150h-155z" />
    <glyph glyph-name="Ncedilla" unicode="&#x145;" horiz-adv-x="779" 
d="M604 700h213l-98 -700h-257l-128 434l-61 -434h-213l98 700h257l128 -434zM369 -39q42 0 55 -24t7 -68q-10 -65 -47 -94t-111 -29l9 63q19 0 31 4t19 12t8 22q-33 0 -46 12.5t-9 39.5q3 24 14.5 38t28 19t41.5 5z" />
    <glyph glyph-name="ncedilla" unicode="&#x146;" horiz-adv-x="607" 
d="M292 469h1q53 41 143 41q106 0 146.5 -57t22.5 -183l-38 -270h-202l38 270q7 54 -3.5 78t-40.5 24q-29 0 -46 -24.5t-24 -77.5l-38 -270h-201l70 500h156zM300 -39q42 0 55 -24t7 -68q-10 -65 -47 -94t-111 -29l9 63q19 0 31 4t19 12t8 22q-33 0 -46 12.5t-9 39.5
q5 35 25.5 48.5t58.5 13.5z" />
    <glyph glyph-name="Ncaron" unicode="&#x147;" horiz-adv-x="778" 
d="M604 700h212l-98 -700h-256l-129 434l-61 -434h-212l98 700h256l129 -434zM676 870l-93 -120h-201l-59 120h133l38 -46l50 46h132z" />
    <glyph glyph-name="ncaron" unicode="&#x148;" horiz-adv-x="607" 
d="M292 469h1q53 41 143 41q106 0 146.5 -57t22.5 -183l-38 -270h-202l38 270q7 54 -3.5 78t-40.5 24q-29 0 -46 -24.5t-24 -77.5l-38 -270h-201l70 500h156zM486 550h-201l-56 150h121l48 -66l65 66h122z" />
    <glyph glyph-name="Omacron" unicode="&#x14c;" horiz-adv-x="816" 
d="M509 720q199 0 276.5 -88t50 -282t-129.5 -282t-301 -88q-198 0 -275.5 88t-50.5 282t129.5 282t300.5 88zM487 561q-74 0 -115 -50.5t-56.5 -160.5t11 -160.5t101.5 -50.5q74 0 115.5 50.5t56.5 160.5q8 55 5.5 95t-16.5 65.5t-39 38t-63 12.5zM358 853h340l-15 -106
h-340z" />
    <glyph glyph-name="omacron" unicode="&#x14d;" horiz-adv-x="616" 
d="M380 510q151 0 210.5 -62t40.5 -198t-96.5 -198t-227.5 -62q-152 0 -211.5 61.5t-40.5 198.5t96 198.5t229 61.5zM256 250q-9 -64 7.5 -93t62.5 -29q45 0 69.5 29t33.5 93q6 42 0.5 69.5t-22.5 40t-47 12.5q-45 0 -70 -29t-34 -93zM229 653h340l-15 -106h-340z" />
    <glyph glyph-name="Obreve" unicode="&#x14e;" horiz-adv-x="816" 
d="M509 720q199 0 276.5 -88t50 -282t-129.5 -282t-301 -88q-198 0 -275.5 88t-50.5 282t129.5 282t300.5 88zM487 561q-74 0 -115 -50.5t-56.5 -160.5t11 -160.5t101.5 -50.5q74 0 115.5 50.5t56.5 160.5q8 55 5.5 95t-16.5 65.5t-39 38t-63 12.5zM703 870
q-9 -63 -54 -91.5t-135.5 -28.5t-127.5 28.5t-28 91.5h144q-5 -36 23 -36t33 36h145z" />
    <glyph glyph-name="obreve" unicode="&#x14f;" horiz-adv-x="616" 
d="M380 510q151 0 210.5 -62t40.5 -198t-96.5 -198t-227.5 -62q-152 0 -211.5 61.5t-40.5 198.5t96 198.5t229 61.5zM256 250q-9 -64 7.5 -93t62.5 -29q45 0 69.5 29t33.5 93q6 42 0.5 69.5t-22.5 40t-47 12.5q-45 0 -70 -29t-34 -93zM578 700q-11 -79 -56.5 -114.5
t-136 -35.5t-127 35.5t-25.5 114.5h133q-4 -30 3 -43t30 -12q39 0 46 55h133z" />
    <glyph glyph-name="Ohungarumlaut" unicode="&#x150;" horiz-adv-x="816" 
d="M509 720q199 0 276.5 -88t50 -282t-129.5 -282t-301 -88q-198 0 -275.5 88t-50.5 282t129.5 282t300.5 88zM487 561q-74 0 -115 -50.5t-56.5 -160.5t11 -160.5t101.5 -50.5q74 0 115.5 50.5t56.5 160.5q8 55 5.5 95t-16.5 65.5t-39 38t-63 12.5zM320 750l96 150h190
l-142 -150h-144zM565 750l96 150h189l-141 -150h-144z" />
    <glyph glyph-name="ohungarumlaut" unicode="&#x151;" horiz-adv-x="643" 
d="M380 510q151 0 210.5 -62t40.5 -198t-96.5 -198t-227.5 -62q-152 0 -211.5 61.5t-40.5 198.5t96 198.5t229 61.5zM256 250q-9 -64 7.5 -93t62.5 -29q45 0 69.5 29t33.5 93q6 42 0.5 69.5t-22.5 40t-47 12.5q-45 0 -70 -29t-34 -93zM191 550l97 150h189l-142 -150h-144z
M436 550l96 150h189l-141 -150h-144z" />
    <glyph glyph-name="OE" unicode="&#x152;" horiz-adv-x="1079" 
d="M1137 552l-1 -1h-284l-16 -118h244l-21 -149h-244l-19 -137h284l-21 -148h-485l7 53q-75 -74 -207 -72q-42 0 -69 4q-142 16 -196 104t-30 262q27 194 124 282t284 88q125 0 178 -71l7 51h485zM487 561q-74 0 -115 -50.5t-56.5 -160.5t11 -160.5t101.5 -50.5t116 50
t56 161q8 55 5.5 95t-16.5 65.5t-39 38t-63 12.5z" />
    <glyph glyph-name="oe" unicode="&#x153;" horiz-adv-x="948" 
d="M600 199q-5 -33 0 -54t19.5 -31t40.5 -10q62 0 80 55h190q-23 -76 -102 -123.5t-180 -47.5q-95 0 -152 45q-64 -44 -190 -44q-151 0 -210.5 61.5t-40.5 198.5t96 198.5t229 61.5q125 0 176 -44q70 45 166 45q124 0 191 -71.5t50 -187.5l-7 -52h-356zM257 250
q-9 -64 7.5 -93t62.5 -29q45 0 69.5 29t33.5 93q6 42 0.5 69.5t-22.5 40t-47 12.5q-45 0 -70 -29t-34 -93zM705 392h1q-28 0 -47 -9.5t-30 -29t-15 -50.5h155q3 23 1 40t-10 28t-21.5 16t-32.5 5h-1z" />
    <glyph glyph-name="Racute" unicode="&#x154;" horiz-adv-x="739" 
d="M372 248h-1h-52l-35 -248h-224l98 700h336q75 0 129 -19t83 -52.5t39.5 -73.5t4.5 -86q-21 -148 -163 -198l122 -271h-235zM339 386h101q35 0 58.5 24t28.5 59t-11.5 59t-51.5 24h-101zM356 750l104 120h189l-138 -120h-155z" />
    <glyph glyph-name="racute" unicode="&#x155;" horiz-adv-x="452" 
d="M394 351q-56 0 -77.5 -19.5t-30.5 -81.5l-35 -250h-201l70 500h156l21 -40q55 50 120 50h85l-23 -159h-85zM233 550l107 150h200l-151 -150h-156z" />
    <glyph glyph-name="Rcedilla" unicode="&#x156;" horiz-adv-x="739" 
d="M371 248h-52l-35 -248h-224l98 700h337q75 0 129 -19t83 -52.5t39.5 -73.5t4.5 -86q-21 -148 -165 -198l123 -271h-235zM338 386h101q36 0 59.5 24t28.5 59t-12 59t-52 24h-101zM369 -39q42 0 55 -24t7 -68q-10 -65 -47 -94t-111 -29l9 63q19 0 31 4t19 12t8 22
q-33 0 -46 12.5t-9 39.5q3 24 14.5 38t28 19t41.5 5z" />
    <glyph glyph-name="rcedilla" unicode="&#x157;" horiz-adv-x="440" 
d="M394 351q-56 0 -77.5 -19.5t-30.5 -81.5l-35 -250h-201l70 500h156l21 -40q55 50 120 50h85l-23 -159h-85zM149 -39q42 0 55 -24t7 -68q-9 -65 -46.5 -94t-111.5 -29l9 63q28 0 42 9t17 29q-34 0 -47 12.5t-9 39.5q5 35 25.5 48.5t58.5 13.5z" />
    <glyph glyph-name="Rcaron" unicode="&#x158;" horiz-adv-x="738" 
d="M362 248h-43l-35 -248h-224l98 700h336q75 0 129 -19t83 -52t39.5 -73t4.5 -87q-22 -155 -173 -202l131 -267h-235zM338 386h112q64 0 76 83t-52 83h-112zM625 870l-93 -120h-201l-59 120h132l38 -46l50 46h133z" />
    <glyph glyph-name="rcaron" unicode="&#x159;" horiz-adv-x="442" 
d="M287 250l-35 -250h-202l70 500h156l22 -40q55 50 120 50h86l-23 -159h-86q-55 0 -77 -19.5t-31 -81.5zM520 700l-99 -150h-201l-56 150h121l48 -66l65 66h122z" />
    <glyph glyph-name="Sacute" unicode="&#x15a;" horiz-adv-x="676" 
d="M326 520q-3 -20 17 -34.5t53 -24t73.5 -20t80 -27t71 -40.5t47.5 -65.5t8 -96.5q-17 -122 -98 -177t-243 -55q-161 0 -227 52.5t-50 167.5h202q-6 -43 16.5 -62.5t78.5 -19.5q49 0 74.5 14.5t29.5 47.5q4 24 -10.5 41.5t-41 27.5t-60.5 21t-69.5 20t-68.5 25.5t-58 37.5
t-37 55.5t-5 79.5q17 121 95.5 176.5t234.5 55.5q157 0 220.5 -52t46.5 -168h-201q6 43 -14 62.5t-71 19.5q-44 0 -66.5 -15t-27.5 -47zM357 750l104 120h189l-138 -120h-155z" />
    <glyph glyph-name="sacute" unicode="&#x15b;" horiz-adv-x="526" 
d="M262 369q-2 -15 13 -24t40.5 -14t56 -10.5t60.5 -16t54 -26.5t36 -45.5t7 -70.5q-13 -90 -79 -131t-199 -41q-121 0 -170.5 38t-37.5 122h190q-4 -28 5 -41t33 -13q8 0 14 1t11 2.5t9 4t7.5 6t5.5 8.5t4 10.5t3 12.5q2 15 -9 24.5t-30.5 14.5t-44 10t-50.5 10t-50.5 16
t-42 26.5t-26 42.5t-3.5 63q12 85 74 123.5t187 38.5q119 0 168 -35.5t38 -114.5h-179q3 23 -7 33.5t-35 10.5q-48 0 -53 -35zM249 550l106 150h201l-152 -150h-155z" />
    <glyph glyph-name="Scircumflex" unicode="&#x15c;" horiz-adv-x="676" 
d="M326 520q-3 -20 17 -34.5t53 -24t73.5 -20t80 -27t71 -40.5t47.5 -65.5t8 -96.5q-17 -122 -98 -177t-243 -55q-161 0 -227 52.5t-50 167.5h202q-6 -43 16.5 -62.5t78.5 -19.5q49 0 74.5 14.5t29.5 47.5q4 24 -10.5 41.5t-41 27.5t-60.5 21t-69.5 20t-68.5 25.5t-58 37.5
t-37 55.5t-5 79.5q17 121 95.5 176.5t234.5 55.5q157 0 220.5 -52t46.5 -168h-201q6 43 -14 62.5t-71 19.5q-44 0 -66.5 -15t-27.5 -47zM620 750h-133l-37 46l-51 -46h-132l93 120h201z" />
    <glyph glyph-name="scircumflex" unicode="&#x15d;" horiz-adv-x="526" 
d="M262 369q-2 -15 13 -24t40.5 -14t56 -10.5t60.5 -16t54 -26.5t36 -45.5t7 -70.5q-13 -90 -79 -131t-199 -41q-121 0 -170.5 38t-37.5 122h190q-4 -28 5 -41t33 -13q8 0 14 1t11 2.5t9 4t7.5 6t5.5 8.5t4 10.5t3 12.5q2 15 -9 24.5t-30.5 14.5t-44 10t-50.5 10t-50.5 16
t-42 26.5t-26 42.5t-3.5 63q12 85 74 123.5t187 38.5q119 0 168 -35.5t38 -114.5h-179q3 23 -7 33.5t-35 10.5q-48 0 -53 -35zM513 550h-121l-47 66l-66 -66h-122l99 150h201z" />
    <glyph glyph-name="Scedilla" unicode="&#x15e;" horiz-adv-x="676" 
d="M276 -18q-128 9 -180.5 61.5t-37.5 156.5h202q-6 -43 16.5 -62.5t78.5 -19.5q49 0 74.5 14.5t29.5 47.5q4 24 -10.5 41.5t-41 27.5t-60.5 21t-69.5 20t-68.5 25.5t-58 37.5t-37 55.5t-5 79.5q17 121 95.5 176.5t234.5 55.5q157 0 220.5 -52t46.5 -168h-201q6 43 -14 62.5
t-71 19.5q-44 0 -66.5 -15t-27.5 -47q-3 -20 17 -34.5t53 -24t73.5 -20t80 -27t71 -40.5t47.5 -65.5t8 -96.5q-11 -76 -45.5 -125t-96.5 -75t-156 -31l-11 -31l9 -3t20 -9t24 -16.5t17 -26t4 -35.5q-7 -51 -68.5 -80.5t-159.5 -29.5l10 73q68 0 73 37q4 27 -59 27z" />
    <glyph glyph-name="scedilla" unicode="&#x15f;" horiz-adv-x="526" 
d="M201 -8l-1 1q-92 7 -129.5 45t-27.5 113h190q-4 -28 5.5 -41t33.5 -13q16 0 27 4.5t17.5 14.5t8.5 26q2 15 -9 24.5t-30 14.5t-44 10t-51 10t-50 16t-42 26.5t-26.5 42.5t-3.5 63q12 85 74 123.5t187 38.5q119 0 168 -35.5t38 -114.5h-179q3 23 -7 33.5t-35 10.5
q-48 0 -53 -35q-2 -15 13 -24t40.5 -14t56 -10.5t61 -16t54 -26.5t36 -45.5t6.5 -70.5q-12 -81 -66 -122.5t-160 -48.5l-15 -42l9 -3t20 -9t24 -16.5t17 -26t4 -35.5q-7 -51 -68.5 -80.5t-159.5 -29.5l10 73q68 0 73 37q4 27 -59 27z" />
    <glyph glyph-name="Scaron" unicode="&#x160;" horiz-adv-x="676" 
d="M326 520q-3 -20 17 -34.5t53 -24t73.5 -20t80 -27t71 -40.5t47.5 -65.5t8 -96.5q-17 -122 -98 -177t-243 -55q-161 0 -227 52.5t-50 167.5h202q-6 -43 16.5 -62.5t78.5 -19.5q49 0 74.5 14.5t29.5 47.5q4 24 -10.5 41.5t-41 27.5t-60.5 21t-69.5 20t-68.5 25.5t-58 37.5
t-37 55.5t-5 79.5q17 121 95.5 176.5t234.5 55.5q157 0 220.5 -52t46.5 -168h-201q6 43 -14 62.5t-71 19.5q-44 0 -66.5 -15t-27.5 -47zM626 870l-93 -120h-202l-59 120h133l38 -46l50 46h133z" />
    <glyph glyph-name="scaron" unicode="&#x161;" horiz-adv-x="526" 
d="M262 369q-2 -15 13 -24t40.5 -14t56 -10.5t60.5 -16t54 -26.5t36 -45.5t7 -70.5q-13 -90 -79 -131t-199 -41q-121 0 -170.5 38t-37.5 122h190q-4 -28 5 -41t33 -13q8 0 14 1t11 2.5t9 4t7.5 6t5.5 8.5t4 10.5t3 12.5q2 15 -9 24.5t-30.5 14.5t-44 10t-50.5 10t-50.5 16
t-42 26.5t-26 42.5t-3.5 63q12 85 74 123.5t187 38.5q119 0 168 -35.5t38 -114.5h-179q3 23 -7 33.5t-35 10.5q-48 0 -53 -35zM534 700l-98 -150h-201l-57 150h122l47 -66l66 66h121z" />
    <glyph glyph-name="Tcedilla" unicode="&#x162;" horiz-adv-x="656" 
d="M273 0h-57l76 541h-196l22 159h616l-22 -159h-196l-76 -541h-65l-18 -50l9 -3t20 -9t24 -16.5t17 -26t4 -35.5q-7 -51 -68.5 -80.5t-159.5 -29.5l10 73q68 0 73 37q4 27 -59 27z" />
    <glyph glyph-name="tcedilla" unicode="&#x163;" horiz-adv-x="469" 
d="M216 5v1q-53 13 -77.5 53.5t-15.5 103.5l31 221h-80l16 116h80l19 131h202l-19 -131h137l-16 -116h-137l-28 -200q-3 -21 7 -33.5t28 -12.5h95l-19 -138h-123l-18 -50l9 -3t20 -9t24 -16.5t17 -26t4 -35.5q-7 -51 -68.5 -80.5t-158.5 -29.5l10 73q68 0 73 37q4 27 -60 27
z" />
    <glyph glyph-name="Tcaron" unicode="&#x164;" horiz-adv-x="656" 
d="M734 700l-22 -159h-196l-76 -541h-224l76 541h-196l22 159h616zM616 870l-93 -120h-202l-59 120h133l38 -46l50 46h133z" />
    <glyph glyph-name="tcaron" unicode="&#x165;" horiz-adv-x="479" 
d="M328 184q-2 -14 2 -24.5t12.5 -16t20.5 -5.5h95l-19 -138h-175q-76 0 -114 43.5t-27 119.5l31 221h-80l16 116h80l19 131h202l-19 -131h137l-16 -116h-137zM507 734q30 0 45.5 -12.5t17.5 -33t-1 -46.5q-9 -65 -46 -94t-111 -29l9 63q28 0 41.5 9t16.5 29q-33 0 -46 12.5
t-10 39.5q5 35 26 48.5t58 13.5z" />
    <glyph glyph-name="Utilde" unicode="&#x168;" horiz-adv-x="736" 
d="M87 261l61 439h224l-61 -439q-9 -64 9 -93t68 -29q48 0 75 29t36 93l61 439h224l-61 -439q-14 -99 -56 -160.5t-116 -91t-186 -29.5q-167 0 -233 66.5t-45 214.5zM302 760q5 34 24.5 59.5t47 38.5t59 13t54.5 -6t33 -12.5t21.5 -12.5t23.5 -6q5 0 11.5 5.5t6.5 10.5h76
q-7 -51 -44 -81t-86 -30q-32 0 -54.5 6t-32.5 12.5t-21.5 12.5t-23.5 6q-6 0 -11.5 -5.5t-6.5 -10.5h-77z" />
    <glyph glyph-name="utilde" unicode="&#x169;" horiz-adv-x="606" 
d="M383 31q-52 -41 -142 -41q-107 0 -146.5 57t-22.5 183l38 270h201l-38 -270q-7 -54 3.5 -78t40.5 -24q20 0 34 11.5t22.5 34t13.5 60.5l37 266h202l-70 -500h-156zM210 600q5 34 25 64.5t49 48.5t60 18t53 -10.5t30.5 -23t17 -23t16.5 -10.5q6 0 11.5 7t7.5 19h88
q-7 -53 -46.5 -92t-86.5 -39q-32 0 -54 10.5t-30 23t-16.5 23t-16.5 10.5q-6 0 -12 -7t-8 -19h-88z" />
    <glyph glyph-name="Umacron" unicode="&#x16a;" horiz-adv-x="736" 
d="M87 261l61 439h224l-61 -439q-9 -64 9 -93t68 -29q48 0 75 29t36 93l61 439h224l-61 -439q-14 -99 -56 -160.5t-116 -91t-186 -29.5q-167 0 -233 66.5t-45 214.5zM317 854h340l-15 -106h-340z" />
    <glyph glyph-name="umacron" unicode="&#x16b;" horiz-adv-x="606" 
d="M383 31q-52 -41 -142 -41q-107 0 -146.5 57t-22.5 183l38 270h201l-38 -270q-7 -54 3.5 -78t40.5 -24q20 0 34 11.5t22.5 34t13.5 60.5l37 266h202l-70 -500h-156zM210 579l15 106h340l-15 -106h-340z" />
    <glyph glyph-name="Ubreve" unicode="&#x16c;" horiz-adv-x="736" 
d="M87 261l61 439h224l-61 -439q-9 -64 9 -93t68 -29q48 0 75 29t36 93l61 439h224l-61 -439q-14 -99 -56 -160.5t-116 -91t-186 -29.5q-167 0 -233 66.5t-45 214.5zM662 870q-9 -63 -53.5 -91.5t-135 -28.5t-128 28.5t-28.5 91.5h145q-5 -36 23 -36t33 36h144z" />
    <glyph glyph-name="ubreve" unicode="&#x16d;" horiz-adv-x="606" 
d="M383 31q-52 -41 -142 -41q-107 0 -146.5 57t-22.5 183l38 270h201l-38 -270q-7 -54 3.5 -78t40.5 -24q20 0 34 11.5t22.5 34t13.5 60.5l37 266h202l-70 -500h-156zM426 700h133q-11 -79 -56.5 -114.5t-136 -35.5t-127 35.5t-25.5 114.5h133q-4 -30 3 -42.5t30 -12.5
q39 0 46 55z" />
    <glyph glyph-name="Uring" unicode="&#x16e;" horiz-adv-x="736" 
d="M87 261l61 439h224l-61 -439q-9 -64 9 -93t68 -29q48 0 75 29t36 93l61 439h224l-61 -439q-14 -99 -56 -160.5t-116 -91t-186 -29.5q-167 0 -233 66.5t-45 214.5zM496 913q70 0 98.5 -27t20 -85t-44 -84.5t-105.5 -26.5q-71 0 -99 26.5t-19.5 85t44 85t105.5 26.5z
M475 764q34 0 40 37q1 14 -1 22t-9 12t-19 4q-35 0 -40 -38q-6 -37 29 -37z" />
    <glyph glyph-name="uring" unicode="&#x16f;" horiz-adv-x="606" 
d="M383 31q-52 -41 -142 -41q-107 0 -146.5 57t-22.5 183l38 270h201l-38 -270q-7 -54 3.5 -78t40.5 -24q20 0 34 11.5t22.5 34t13.5 60.5l37 266h202l-70 -500h-156zM383 751q70 0 98 -26.5t20 -84.5q-6 -39 -23 -63.5t-48 -36t-79 -11.5q-70 0 -98 26.5t-20 84.5t44 84.5
t106 26.5zM362 602q35 0 40 38t-30 38q-34 0 -39 -38t29 -38z" />
    <glyph glyph-name="Uhungarumlaut" unicode="&#x170;" horiz-adv-x="736" 
d="M87 261l61 439h224l-61 -439q-9 -64 9 -93t68 -29q48 0 75 29t36 93l61 439h224l-61 -439q-14 -99 -56 -160.5t-116 -91t-186 -29.5q-167 0 -233 66.5t-45 214.5zM279 750l97 150h189l-142 -150h-144zM524 750l96 150h189l-141 -150h-144z" />
    <glyph glyph-name="uhungarumlaut" unicode="&#x171;" horiz-adv-x="643" 
d="M383 31q-52 -41 -142 -41q-107 0 -146.5 57t-22.5 183l38 270h201l-38 -270q-7 -54 3.5 -78t40.5 -24q20 0 34 11.5t22.5 34t13.5 60.5l37 266h202l-70 -500h-156zM257 700h190l-142 -150h-144zM502 700h189l-141 -150h-144z" />
    <glyph glyph-name="Uogonek" unicode="&#x172;" horiz-adv-x="736" 
d="M723 262q-15 -108 -64 -171.5t-138 -89.5q-43 -42 -42 -72q3 -17 25 -18q8 0 17.5 2.5t14.5 4.5l6 3l-21 -149q-33 -20 -73 -20q-54 0 -81.5 37.5t-18.5 92t52 100.5q-11 -1 -35 -1q-167 0 -233 66.5t-45 214.5l62 439h224l-62 -439q-9 -64 9 -93t68 -29q49 0 75.5 29
t35.5 93l62 439h224z" />
    <glyph glyph-name="uogonek" unicode="&#x173;" horiz-adv-x="606" 
d="M398 3l-15 28q-52 -41 -142 -41q-107 0 -146.5 57t-22.5 183l38 270h201l-38 -270q-7 -54 3.5 -78t40.5 -24t46 25t24 81l37 266h202l-70 -500h-60q-44 -43 -43 -73q3 -17 25 -18q3 0 7 0.5t7.5 1.5l7 2t6.5 2t5 2t3 1l2 1l-21 -149q-33 -20 -73 -20q-44 0 -71 26.5
t-30.5 64.5t16.5 83t61 79z" />
    <glyph glyph-name="Wcircumflex" unicode="&#x174;" horiz-adv-x="1038" 
d="M483 700h268l5 -458l146 458h224l-250 -700h-292l-11 441l-119 -441h-292l-54 700h224l18 -458zM795 750h-133l-37 46l-51 -46h-132l93 120h201z" />
    <glyph glyph-name="wcircumflex" unicode="&#x175;" horiz-adv-x="887" 
d="M742 0h-247l-4 340l-100 -340h-247l-64 500h201l20 -323l95 323h246l-3 -314l107 314h201zM685 550h-122l-46 66l-67 -66h-121l98 150h201z" />
    <glyph glyph-name="Ycircumflex" unicode="&#x176;" horiz-adv-x="704" 
d="M500 257l-36 -257h-213l36 257l-189 443h246l80 -229l143 229h235zM646 750h-132l-37 46l-51 -46h-133l93 120h201z" />
    <glyph glyph-name="ycircumflex" unicode="&#x177;" horiz-adv-x="556" 
d="M209 -1l7 14l-146 487h190l60 -256l116 256h190l-240 -493q-48 -98 -98 -142.5t-114 -44.5h-126l16 116h70q46 0 75 63zM540 550h-121l-47 66l-66 -66h-122l99 150h201z" />
    <glyph glyph-name="Ydieresis" unicode="&#x178;" horiz-adv-x="704" 
d="M500 257l-36 -257h-213l36 257l-189 443h246l80 -229l143 229h235zM353 896q57 0 80 -20t17 -64t-35 -63.5t-87 -19.5q-57 0 -80 20t-17 63q6 44 35 64t87 20zM629 896q57 0 80 -20t17 -64q-3 -22 -11.5 -37.5t-23.5 -25.5t-36 -15t-51 -5q-57 0 -80 20t-17 63
q6 44 35 64t87 20z" />
    <glyph glyph-name="Zacute" unicode="&#x179;" horiz-adv-x="650" 
d="M307 148h334l-21 -148h-590l18 128l384 424h-314l20 148h570l-18 -128zM332 750l104 120h189l-138 -120h-155z" />
    <glyph glyph-name="zacute" unicode="&#x17a;" horiz-adv-x="511" 
d="M272 127h237l-18 -127h-471l15 106l264 267h-217l18 127h451l-15 -106zM246 550l107 150h200l-152 -150h-155z" />
    <glyph glyph-name="Zdotaccent" unicode="&#x17b;" horiz-adv-x="650" 
d="M307 148h334l-21 -148h-590l18 128l384 424h-314l20 148h570l-18 -128zM452 906q57 0 80.5 -20t17.5 -64q-7 -43 -35.5 -63t-85.5 -20q-58 0 -81 19.5t-16 63.5q6 44 34.5 64t85.5 20z" />
    <glyph glyph-name="zdotaccent" unicode="&#x17c;" horiz-adv-x="511" 
d="M272 127h237l-18 -127h-471l15 106l264 267h-217l18 127h451l-15 -106zM363 758q57 0 79.5 -22.5t15.5 -71.5t-36 -71.5t-87 -22.5q-57 0 -80 22.5t-16 71.5t36.5 71.5t87.5 22.5z" />
    <glyph glyph-name="Zcaron" unicode="&#x17d;" horiz-adv-x="650" 
d="M307 148h334l-21 -148h-590l18 128l384 424h-314l20 148h570l-18 -128zM612 870l-93 -120h-201l-59 120h133l38 -46l50 46h132z" />
    <glyph glyph-name="zcaron" unicode="&#x17e;" horiz-adv-x="511" 
d="M272 127h237l-18 -127h-471l15 106l264 267h-217l18 127h451l-15 -106zM532 700l-99 -150h-201l-56 150h121l48 -66l65 66h122z" />
    <glyph glyph-name="Aacutering" unicode="&#x1fa;" horiz-adv-x="719" 
d="M482 0l-12 125h-197l-50 -125h-224l312 700h314l93 -700h-236zM431 520l-103 -257h128zM625 960l-66 -58q57 -22 48 -81q-6 -44 -44.5 -67t-101.5 -23t-95.5 23t-26.5 67q6 41 39.5 64t88.5 26l38 49h120zM469 794q46 0 49 27q4 28 -42 28t-50 -28q-1 -7 2 -12t8.5 -8.5
t13.5 -5t19 -1.5z" />
    <glyph glyph-name="aacutering" unicode="&#x1fb;" horiz-adv-x="576" 
d="M362 34q-55 -44 -152 -44q-101 0 -141 38t-28 123q13 89 79 129.5t200 40.5h59l3 19q5 34 -5.5 49t-37.5 15t-41.5 -13t-18.5 -41h-190q12 84 76 122t194.5 38t183 -45t38.5 -146l-45 -319h-156zM364 216h-40q-35 0 -55.5 -10.5t-24.5 -43.5q-4 -25 5.5 -34.5t35.5 -9.5
q25 0 41.5 10.5t24 27.5t11.5 42zM454 778h145l-109 -80q27 -26 21 -69q-6 -45 -46.5 -73t-101.5 -28t-93.5 28t-26.5 73q5 30 24.5 53t51.5 35.5t73 12.5h12zM373 602q9 0 16 1.5t11.5 5t6.5 8.5t3 12q2 14 -4.5 20.5t-25.5 6.5t-28 -6.5t-11 -20.5t5 -20.5t27 -6.5z" />
    <glyph glyph-name="AEacute" unicode="&#x1fc;" horiz-adv-x="969" 
d="M1027 552h-280l-17 -118h240l-21 -149h-240l-19 -137h280l-21 -148h-481l18 125h-188l-74 -125h-224l431 700h616zM544 544l-165 -281h126zM579 750l104 120h189l-138 -120h-155z" />
    <glyph glyph-name="aeacute" unicode="&#x1fd;" horiz-adv-x="904" 
d="M563 199q-3 -24 -1.5 -42t9.5 -29t22 -16.5t34 -5.5q56 0 76 55h190q-28 -90 -95 -130.5t-187 -40.5q-76 0 -120 25t-61 79q-29 -54 -83 -79t-137 -25q-101 0 -141 38t-28 123q5 36 19 64.5t35.5 46.5t45.5 30t55 18t58.5 8.5t61.5 2.5h63l3 19q4 29 -6.5 41.5
t-36.5 12.5q-29 0 -42.5 -10t-17.5 -34h-190q12 84 76 122t195 38q115 0 154 -54q60 54 170 54q146 0 203 -61.5t38 -197.5l-7 -52h-355zM364 215h-36q-40 0 -60 -13t-24 -41q-4 -24 5.5 -34t34.5 -10q37 0 54.5 19.5t23.5 64.5zM733 305h1q4 31 -1 50.5t-20.5 29t-43.5 9.5
q-40 0 -61.5 -21t-27.5 -68h153zM451 550l106 150h200l-151 -150h-155z" />
    <glyph glyph-name="Oslashacute" unicode="&#x1fe;" horiz-adv-x="816" 
d="M504 720q27 0 63 -2l31 62h133l-42 -85q96 -34 131 -118.5t15 -226.5q-27 -194 -129 -282t-299 -88q-37 0 -66 3l-31 -63h-133l42 88q-92 35 -125.5 118.5t-14.5 223.5q27 194 129 282t296 88zM487 561q-75 0 -116 -51.5t-57 -166.5q-4 -30 -5 -54.5t3 -52.5t15 -47.5
t33.5 -33.5t56.5 -16h11q75 0 116 51t57 166q7 35 5.5 71.5t-9.5 66t-35.5 48.5t-71.5 19h-3zM393 750l104 120h189l-138 -120h-155z" />
    <glyph glyph-name="oslashacute" unicode="&#x1ff;" horiz-adv-x="616" 
d="M425 509l29 61h88l-36 -75q79 -22 109.5 -82t15.5 -163q-19 -136 -96.5 -198t-227.5 -62q-31 0 -46 1l-30 -61h-88l37 75q-79 22 -109 82t-16 163q19 137 96 198.5t229 61.5q30 0 45 -1zM429 250q9 64 -7.5 93t-63.5 29q-44 0 -68.5 -29t-33.5 -93t8 -93t63 -29
q44 0 68.5 29t33.5 93zM253 550l107 150h200l-152 -150h-155z" />
    <glyph glyph-name="Scommaaccent" unicode="&#x218;" horiz-adv-x="676" 
d="M326 520q-3 -20 17 -34.5t53 -24t73.5 -20t80 -27t71 -40.5t47.5 -65.5t8 -96.5q-17 -122 -98 -177t-243 -55q-161 0 -227 52.5t-50 167.5h202q-6 -43 16.5 -62.5t78.5 -19.5q49 0 74.5 14.5t29.5 47.5q4 24 -10.5 41.5t-41 27.5t-60.5 21t-69.5 20t-68.5 25.5t-58 37.5
t-37 55.5t-5 79.5q17 121 95.5 176.5t234.5 55.5q157 0 220.5 -52t46.5 -168h-201q6 43 -14 62.5t-71 19.5q-44 0 -66.5 -15t-27.5 -47zM332 -39q42 0 55 -24t7 -68q-10 -65 -47 -94t-111 -29l9 63q19 0 31 4t19 12t8 22q-33 0 -46 12.5t-9 39.5q3 24 14.5 38t28 19t41.5 5z
" />
    <glyph glyph-name="scommaaccent" unicode="&#x219;" horiz-adv-x="526" 
d="M262 369q-2 -15 13 -24t40.5 -14t56 -10.5t60.5 -16t54 -26.5t36 -45.5t7 -70.5q-13 -90 -79.5 -131t-199.5 -41q-121 0 -170.5 38t-37.5 122h190q-4 -28 5.5 -41t33.5 -13q25 0 37 10.5t16 34.5q2 17 -12 27t-38.5 15.5t-54 10.5t-58.5 14.5t-52 25t-34.5 44.5t-5.5 70
q12 85 74 123.5t187 38.5q118 0 167 -35.5t38 -114.5h-178q3 23 -7 33.5t-35 10.5q-17 0 -28 -3.5t-17 -11t-8 -20.5zM250 -39q42 0 55 -24t7 -68q-10 -65 -47 -94t-111 -29l9 63q19 0 31 4t19 12t8 22q-33 0 -46 12.5t-9 39.5q5 35 25.5 48.5t58.5 13.5z" />
    <glyph glyph-name="uni021A" unicode="&#x21a;" horiz-adv-x="656" 
d="M734 700l-22 -159h-196l-76 -541h-224l76 541h-196l22 159h616zM330 -39q42 0 55 -24t7 -68q-10 -65 -47 -94t-111 -29l9 63q19 0 31 4t19 12t8 22q-33 0 -46 12.5t-9 39.5q3 24 14.5 38t28 19t41.5 5z" />
    <glyph glyph-name="uni021B" unicode="&#x21b;" horiz-adv-x="469" 
d="M328 184q-2 -14 2 -24.5t12.5 -16t20.5 -5.5h95l-19 -138h-175q-76 0 -114 43.5t-27 119.5l31 221h-80l16 116h80l19 131h202l-19 -131h137l-16 -116h-137zM258 -39q42 0 55 -24t7 -68q-10 -65 -47 -94t-111 -29l9 63q28 0 42 9t16 29q-33 0 -46 12.5t-9 39.5
q5 35 25.5 48.5t58.5 13.5z" />
    <glyph glyph-name="circumflex" unicode="&#x2c6;" horiz-adv-x="396" 
d="M396 700l57 -150h-122l-46 66l-67 -66h-121l98 150h201z" />
    <glyph glyph-name="caron" unicode="&#x2c7;" horiz-adv-x="396" 
d="M474 700l-99 -150h-201l-56 150h121l48 -66l65 66h122z" />
    <glyph glyph-name="breve" unicode="&#x2d8;" horiz-adv-x="385" 
d="M330 700h133q-11 -79 -57 -114.5t-137 -35.5q-61 0 -96.5 15.5t-48.5 48.5t-6 86h133q-4 -30 3 -42.5t29 -12.5q21 0 32 13t15 42z" />
    <glyph glyph-name="dotaccent" unicode="&#x2d9;" horiz-adv-x="258" 
d="M235 754q57 0 80 -22.5t16 -72t-36.5 -72t-86.5 -22.5q-56 0 -79 22.5t-16 71.5q7 50 35.5 72.5t86.5 22.5z" />
    <glyph glyph-name="ring" unicode="&#x2da;" horiz-adv-x="308" 
d="M257 731q70 0 98 -26.5t20 -84.5t-43.5 -84.5t-105.5 -26.5q-71 0 -99 26.5t-20 84.5q6 39 23 63.5t48 36t79 11.5zM236 582q34 0 39 38t-29 38q-35 0 -40 -38t30 -38z" />
    <glyph glyph-name="ogonek" unicode="&#x2db;" horiz-adv-x="228" 
d="M104 21h99q-46 -31 -64 -72q-14 -39 20 -40q7 0 16.5 2.5t15.5 4.5l6 3l-21 -149q-33 -20 -73 -20q-38 0 -63.5 19t-33 50.5t-1.5 67t32 72t67 62.5z" />
    <glyph glyph-name="tilde" unicode="&#x2dc;" horiz-adv-x="385" 
d="M104 600q8 53 47.5 92t86.5 39q31 0 53 -10.5t30.5 -23t16.5 -23t16 -10.5q6 0 12 7t8 19h88q-5 -34 -25 -64.5t-49 -48.5t-59 -18q-32 0 -54 10.5t-30 23t-16.5 23t-16.5 10.5q-6 0 -12 -7t-8 -19h-88z" />
    <glyph glyph-name="hungarumlaut" unicode="&#x2dd;" horiz-adv-x="549" 
d="M97 550l96 150h189l-141 -150h-144zM341 550l96 150h190l-142 -150h-144z" />
    <glyph glyph-name="Wgrave" unicode="&#x1e80;" horiz-adv-x="1038" 
d="M483 700h268l5 -458l146 458h224l-250 -700h-292l-11 441l-119 -441h-292l-54 700h224l18 -458zM705 750h-144l-115 120h178z" />
    <glyph glyph-name="wgrave" unicode="&#x1e81;" horiz-adv-x="887" 
d="M742 0h-247l-4 340l-100 -340h-247l-64 500h201l20 -323l95 323h246l-3 -314l107 314h201zM593 550h-155l-110 150h201z" />
    <glyph glyph-name="Wacute" unicode="&#x1e82;" horiz-adv-x="1038" 
d="M483 700h268l5 -458l146 458h224l-250 -700h-292l-11 441l-119 -441h-292l-54 700h224l18 -458zM532 750l104 120h189l-138 -120h-155z" />
    <glyph glyph-name="wacute" unicode="&#x1e83;" horiz-adv-x="887" 
d="M742 0h-247l-4 340l-100 -340h-247l-64 500h201l20 -323l95 323h246l-3 -314l107 314h201zM409 550l107 150h200l-152 -150h-155z" />
    <glyph glyph-name="Wdieresis" unicode="&#x1e84;" horiz-adv-x="1039" 
d="M483 700v-1h268h1l4 -458l147 458h224l-251 -700h-291l-11 445l-120 -444h-292l-54 700h224l18 -456zM502 895q57 0 80 -20t17 -64q-4 -29 -18 -47.5t-39.5 -27t-64.5 -8.5q-57 0 -80 20t-17 63q6 44 35 64t87 20zM778 895q57 0 80 -20t17 -64t-35 -63.5t-87 -19.5
q-57 0 -80 20t-17 63q6 44 35 64t87 20z" />
    <glyph glyph-name="wdieresis" unicode="&#x1e85;" horiz-adv-x="888" 
d="M743 0h-246l-5 343l-101 -343h-246l-65 500h202l20 -325l95 325h246l-4 -315l107 315h202zM419.5 750q57.5 0 80 -23.5t14.5 -76.5q-7 -52 -36.5 -75.5t-86.5 -23.5t-79.5 23.5t-15 76t36.5 76t86.5 23.5zM677 750q58 0 81 -23.5t15 -76.5q-3 -26 -12 -44.5t-24.5 -31
t-37 -18t-50.5 -5.5q-57 0 -79.5 23.5t-15 75.5t36.5 76t86 24z" />
    <glyph glyph-name="uni1E9E" unicode="&#x1e9e;" horiz-adv-x="694" 
d="M441 720q47 0 83.5 -3.5t76 -15t64 -31.5t37.5 -55.5t6 -84.5q-7 -51 -29 -83t-67 -58q52 -27 71.5 -69.5t10.5 -108.5q-16 -110 -77.5 -160.5t-179.5 -50.5q-36 0 -63.5 5t-35.5 10l-9 5l18 127q24 -9 52 -9q44 0 66.5 19t28.5 62q7 50 -17.5 73t-86.5 23l18 126
q51 0 76.5 16t30.5 50q3 20 -0.5 34t-13.5 23t-26.5 13.5t-40.5 4.5q-101 0 -116 -104l-67 -478h-201l66 469q35 251 325 251z" />
    <glyph glyph-name="Ygrave" unicode="&#x1ef2;" horiz-adv-x="704" 
d="M500 257l-36 -257h-213l36 257l-189 443h246l80 -229l143 229h235zM556 750h-143l-116 120h178z" />
    <glyph glyph-name="ygrave" unicode="&#x1ef3;" horiz-adv-x="556" 
d="M209 -1l7 14l-146 487h190l60 -256l116 256h190l-240 -493q-48 -98 -98 -142.5t-114 -44.5h-126l16 116h70q46 0 75 63zM449 550h-155l-110 150h201z" />
    <glyph glyph-name="endash" unicode="&#x2013;" horiz-adv-x="560" 
d="M587 334l-19 -138h-520l19 138h520z" />
    <glyph glyph-name="emdash" unicode="&#x2014;" horiz-adv-x="780" 
d="M807 334l-19 -138h-740l19 138h740z" />
    <glyph glyph-name="quoteleft" unicode="&#x2018;" horiz-adv-x="279" 
d="M197 315h-1q-37 0 -60.5 12.5t-32 34t-11 50t3.5 59.5q17 121 74 175t167 54l-11 -84q-46 0 -69.5 -24t-31.5 -78q51 0 70.5 -23.5t11.5 -76.5q-7 -51 -32.5 -75t-77.5 -24z" />
    <glyph glyph-name="quoteright" unicode="&#x2019;" horiz-adv-x="277" 
d="M226 710h-1h1zM226 710h-1q37 0 60.5 -13t32.5 -34t11 -49.5t-4 -59.5q-17 -121 -74 -175t-166 -54l11 84q47 0 70.5 24t31.5 78q-34 0 -53.5 10.5t-26.5 32.5t-2 57q7 51 32.5 75t76.5 24h1z" />
    <glyph glyph-name="quotesinglbase" unicode="&#x201a;" horiz-adv-x="258" 
d="M143 189h-1h1zM143 189h-1q37 0 60.5 -13t32 -34t10.5 -49.5t-3 -59.5q-17 -121 -74 -175t-167 -54l12 84q46 0 70 24t32 78q-51 0 -70.5 23.5t-11.5 76.5q7 51 32.5 75t76.5 24h1z" />
    <glyph glyph-name="quotedblleft" unicode="&#x201c;" horiz-adv-x="558" 
d="M197 315h-1q-37 0 -60.5 12.5t-32 34t-11 50t3.5 59.5q17 121 74 175t167 54l-11 -84q-46 0 -69.5 -24t-31.5 -78q51 0 70.5 -23.5t11.5 -76.5q-7 -51 -32.5 -75t-77.5 -24zM476 315h-1q-37 0 -60.5 12.5t-32 34t-11 50t3.5 59.5q17 121 74 175t167 54l-11 -84
q-46 0 -69.5 -24t-31.5 -78q51 0 70.5 -23.5t11.5 -76.5q-7 -51 -32.5 -75t-77.5 -24z" />
    <glyph glyph-name="quotedblright" unicode="&#x201d;" horiz-adv-x="556" 
d="M226 710h-1h1zM226 710h-1q37 0 60.5 -13t32.5 -34t11 -49.5t-4 -59.5q-17 -121 -74 -175t-166 -54l11 84q47 0 70.5 24t31.5 78q-34 0 -53.5 10.5t-26.5 32.5t-2 57q7 51 32.5 75t76.5 24h1zM505 710h-1h1zM505 710h-1q37 0 60.5 -13t32.5 -34t11 -49.5t-4 -59.5
q-17 -121 -74 -175t-166 -54l12 84q46 0 69.5 24t31.5 78q-34 0 -53.5 10.5t-26.5 32.5t-2 57q7 51 32.5 75t76.5 24h1z" />
    <glyph glyph-name="quotedblbase" unicode="&#x201e;" horiz-adv-x="538" 
d="M143 189h-1h1zM143 189h-1q37 0 60.5 -13t32 -34t10.5 -49.5t-3 -59.5q-17 -121 -74 -175t-167 -54l12 84q46 0 70 24t32 78q-51 0 -70.5 23.5t-11.5 76.5q7 51 32.5 75t76.5 24h1zM422 189h-1h1zM422 189h-1q37 0 60.5 -13t32 -34t11 -49.5t-3.5 -59.5
q-17 -121 -74 -175t-167 -54l12 84q46 0 70 24t32 78q-51 0 -70.5 23.5t-11.5 76.5q3 25 11 43t21 31t32 19t45 6h1z" />
    <glyph glyph-name="ellipsis" unicode="&#x2026;" horiz-adv-x="932" 
d="M155.5 188q57.5 0 80 -23.5t14.5 -75.5q-3 -26 -12 -45t-24 -31t-36.5 -18t-50.5 -6q-57 0 -79.5 23.5t-15.5 76.5q8 52 37 75.5t86.5 23.5zM492 188q57 0 80 -23.5t16 -75.5q-8 -52 -37.5 -76t-87.5 -24q-57 0 -79.5 24t-15.5 76q8 52 37.5 75.5t86.5 23.5zM828 188
q58 0 81 -23.5t15 -75.5q-7 -52 -36.5 -76t-87 -24t-80 23.5t-14.5 76.5q4 35 18.5 56.5t40 32t63.5 10.5z" />
    <glyph glyph-name="perthousand" unicode="&#x2030;" horiz-adv-x="1337" 
d="M773 390q96 0 133 -47.5t23 -153.5q-15 -105 -65.5 -152.5t-147.5 -47.5q-96 0 -133 47.5t-22 152.5q10 71 35 115t68.5 65t108.5 21zM731 94q39 0 53 95q7 50 0.5 72.5t-26.5 22.5q-14 0 -24 -10t-17.5 -30.5t-11.5 -54.5q-7 -49 -1 -72t27 -23zM1188 390q65 0 102 -21
t50.5 -65t3.5 -115q-10 -70 -35.5 -114t-69 -65t-108.5 -21q-96 0 -133 47.5t-22 152.5q7 53 23 91t42 62.5t62 36t85 11.5zM1146 94q39 0 53 95q7 50 0.5 72.5t-26.5 22.5t-32.5 -22.5t-19.5 -72.5q-14 -95 25 -95zM304 710q97 0 133.5 -47.5t22.5 -153.5
q-15 -105 -65.5 -152.5t-147.5 -47.5q-96 0 -133 47.5t-22 152.5q14 106 65 153.5t147 47.5zM262 414q21 0 34 22.5t20 72.5t0.5 72.5t-26.5 22.5q-21 0 -33.5 -22.5t-19.5 -72.5q-14 -95 25 -95zM326 -30h-178l547 760h178z" />
    <glyph glyph-name="guilsinglleft" unicode="&#x2039;" horiz-adv-x="361" 
d="M215 450h189l-146 -190l91 -200h-189l-103 200z" />
    <glyph glyph-name="guilsinglright" unicode="&#x203a;" horiz-adv-x="361" 
d="M83 450h190l105 -190l-160 -200h-190l149 200z" />
    <glyph glyph-name="lira" unicode="&#x20a4;" horiz-adv-x="701" 
d="M682 148l-2 -1l-21 -148h-609l24 169q45 20 68 60h-59l13 95h73l4 24h-73l13 95h73l8 58q17 116 85 167.5t203 51.5q125 0 180 -49t38 -170h-190q7 49 -4 71t-41 22q-21 0 -34.5 -10t-21.5 -29.5t-13 -53.5l-8 -58h208l-13 -95h-208l-4 -24h208l-13 -95h-221
q-29 -54 -94 -80h431z" />
    <glyph glyph-name="Euro" unicode="&#x20ac;" horiz-adv-x="824" 
d="M603 240h1h224q-49 -136 -138.5 -198t-239.5 -62q-166 0 -245.5 61.5t-84.5 195.5h-87l14 95h78l2 18l3 18h-78l13 95h87q28 90 80 146.5t131 84t190 27.5q159 0 231.5 -62t73.5 -198h-224q-2 26 -8.5 45t-19.5 31.5t-31.5 18.5t-43.5 6q-99 0 -141 -99h185l-13 -95h-197
l-3 -18l-2 -18h157l-14 -95h-145q14 -98 114 -98q51 0 82.5 24.5t48.5 76.5z" />
    <glyph glyph-name="trademark" unicode="&#x2122;" horiz-adv-x="1293" 
d="M570 700l-20 -148h-131l-50 -352h-190l50 352h-131l20 148h452zM552 200l70 500h256l61 -309l147 309h245l-70 -500h-190l39 277l-137 -277h-133l-59 277l-39 -277h-190z" />
    <glyph glyph-name="minus" unicode="&#x2212;" horiz-adv-x="370" 
d="M378 196h-330l19 138h330z" />
    <glyph glyph-name="approxequal" unicode="&#x2248;" horiz-adv-x="640" 
d="M35 105l18 127q46 41 93.5 54t89 3t84 -29t83.5 -39.5t81 -32t83.5 -2t85.5 45.5l-18 -127q-46 -41 -94 -53.5t-89.5 -3t-84 28.5t-83.5 39.5t-81 32t-83.5 2t-84.5 -45.5zM63 307l18 126q36 32 73.5 47t70.5 14t67 -11t66 -25.5t63.5 -31.5t64 -27.5t63.5 -14.5t65 8.5
t67 40.5l-18 -126q-46 -41 -93.5 -54t-89.5 -3t-84 29t-83.5 39t-81 32t-83.5 2.5t-85 -45.5z" />
    <glyph glyph-name="notequal" unicode="&#x2260;" horiz-adv-x="651" 
d="M182 0l47 95h-196l20 138h246l32 64h-269l19 138h319l32 65h110l-32 -65h182l-19 -138h-232l-32 -64h255l-20 -138h-305l-47 -95h-110z" />
    <glyph glyph-name="lessequal" unicode="&#x2264;" horiz-adv-x="440" 
d="M20 0l21 148h400l-21 -148h-400zM97 545l421 155l-24 -170l-219 -80l197 -80l-24 -170l-378 155z" />
    <glyph glyph-name="greaterequal" unicode="&#x2265;" horiz-adv-x="440" 
d="M20 0l21 148h399l-21 -148h-399zM118 700l379 -155l-27 -190l-422 -155l24 170l219 80l-197 80z" />
    <glyph glyph-name="uniE132" unicode="&#xe132;" horiz-adv-x="624" 
d="M251 0h-201l70 500h201zM318 -42q18 0 32 12.5t17 33.5l69 496h201l-72 -517q-7 -51 -32 -87.5t-65 -56t-90 -19.5h-177l19 138h98zM130 550l107 150h200l-152 -150h-155zM446 550l106 150h200l-151 -150h-155z" />
    <glyph glyph-name="uniE133" unicode="&#xe133;" horiz-adv-x="951" 
d="M158 700h224l-98 -700h-224zM396 210l5 42h213l-5 -42q-10 -71 35 -71t55 71l68 490h224l-68 -490q-11 -78 -46 -128.5t-98.5 -76t-157.5 -25.5q-134 0 -188 56.5t-37 173.5zM190 750l104 120h189l-137 -120h-156zM800 750l104 120h189l-138 -120h-155z" />
    <glyph glyph-name="a.alt1" 
d="M240 -10q-117 0 -160.5 61.5t-24.5 198.5t80 198.5t178 61.5q102 0 148 -47l29 37h156l-70 -500h-156l-19 37q-59 -47 -161 -47zM316 128q40 0 62 29t31 93q5 32 3.5 55t-8.5 38t-20.5 22t-33.5 7q-40 0 -62.5 -29t-31.5 -93q-4 -32 -3 -55t8.5 -38t21 -22t33.5 -7z" />
    <glyph glyph-name="aacute.alt1" 
d="M240 -10q-117 0 -160.5 61.5t-24.5 198.5t80 198.5t178 61.5q102 0 148 -47l29 37h156l-70 -500h-156l-19 37q-59 -47 -161 -47zM316 128q40 0 62 29t31 93q5 32 3.5 55t-8.5 38t-20.5 22t-33.5 7q-40 0 -62.5 -29t-31.5 -93q-4 -32 -3 -55t8.5 -38t21 -22t33.5 -7z
M392 700h201l-152 -150h-155z" />
    <glyph glyph-name="aacutering.alt1" 
d="M240 -10q-117 0 -160.5 61.5t-24.5 198.5t80 198.5t178 61.5q102 0 148 -47l29 37h156l-70 -500h-156l-19 37q-59 -47 -161 -47zM316 128q40 0 62 29t31 93q5 32 3.5 55t-8.5 38t-20.5 22t-33.5 7q-40 0 -62.5 -29t-31.5 -93q-4 -32 -3 -55t8.5 -38t21 -22t33.5 -7z
M433 732l53 48h144l-111 -80q28 -26 22 -69q-3 -22 -15.5 -40.5t-31.5 -31.5t-45 -20.5t-56 -7.5q-61 0 -94 27.5t-26 72.5q4 30 23.5 53t51.5 35.5t73 12.5h12zM403 604q34 0 38 27q2 14 -5 21t-25 7q-35 0 -39 -28q-2 -14 5 -20.5t26 -6.5z" />
    <glyph glyph-name="abreve.alt1" 
d="M240 -10q-117 0 -160.5 61.5t-24.5 198.5t80 198.5t178 61.5q102 0 148 -47l29 37h156l-70 -500h-156l-19 37q-59 -47 -161 -47zM316 128q40 0 62 29t31 93q5 32 3.5 55t-8.5 38t-20.5 22t-33.5 7q-40 0 -62.5 -29t-31.5 -93q-4 -32 -3 -55t8.5 -38t21 -22t33.5 -7z
M455 700h133q-11 -79 -56.5 -114.5t-136 -35.5t-127 35.5t-25.5 114.5h133q-4 -30 3 -42.5t30 -12.5q39 0 46 55z" />
    <glyph glyph-name="acircumflex.alt1" 
d="M240 -10q-117 0 -160.5 61.5t-24.5 198.5t80 198.5t178 61.5q102 0 148 -47l29 37h156l-70 -500h-156l-19 37q-59 -47 -161 -47zM316 128q40 0 62 29t31 93q5 32 3.5 55t-8.5 38t-20.5 22t-33.5 7q-40 0 -62.5 -29t-31.5 -93q-4 -32 -3 -55t8.5 -38t21 -22t33.5 -7z
M516 700l57 -150h-122l-46 66l-67 -66h-121l98 150h201z" />
    <glyph glyph-name="acute.case" horiz-adv-x="316" 
d="M97 550l104 120h189l-138 -120h-155z" />
    <glyph glyph-name="adieresis.alt1" 
d="M240 -10q-117 0 -160.5 61.5t-24.5 198.5t80 198.5t178 61.5q102 0 148 -47l29 37h156l-70 -500h-156l-19 37q-59 -47 -161 -47zM316 128q40 0 62 29t31 93q5 32 3.5 55t-8.5 38t-20.5 22t-33.5 7q-40 0 -62.5 -29t-31.5 -93q-4 -32 -3 -55t8.5 -38t21 -22t33.5 -7z
M281.5 750q57.5 0 80 -23.5t14.5 -76.5q-7 -52 -36.5 -75.5t-86.5 -23.5t-79.5 23.5t-15 76t36.5 76t86.5 23.5zM539 750q58 0 81 -23.5t15 -76.5q-3 -26 -12 -44.5t-24.5 -31t-37 -18t-50.5 -5.5q-57 0 -79.5 23.5t-15 75.5t36.5 76t86 24z" />
    <glyph glyph-name="agrave.alt1" 
d="M240 -10q-117 0 -160.5 61.5t-24.5 198.5t80 198.5t178 61.5q102 0 148 -47l29 37h156l-70 -500h-156l-19 37q-59 -47 -161 -47zM316 128q40 0 62 29t31 93q5 32 3.5 55t-8.5 38t-20.5 22t-33.5 7q-40 0 -62.5 -29t-31.5 -93q-4 -32 -3 -55t8.5 -38t21 -22t33.5 -7z
M383 700l64 -150h-155l-110 150h201z" />
    <glyph glyph-name="amacron.alt1" 
d="M240 -10q-117 0 -160.5 61.5t-24.5 198.5t80 198.5t178 61.5q102 0 148 -47l29 37h156l-70 -500h-156l-19 37q-59 -47 -161 -47zM316 128q40 0 62 29t31 93q5 32 3.5 55t-8.5 38t-20.5 22t-33.5 7q-40 0 -62.5 -29t-31.5 -93q-4 -32 -3 -55t8.5 -38t21 -22t33.5 -7z
M228 577l15 106h340l-15 -106h-340z" />
    <glyph glyph-name="aogonek.alt1" 
d="M417 6h1l-17 31q-59 -47 -161 -47q-117 0 -160.5 61.5t-24.5 198.5t80 198.5t178 61.5q102 0 148 -47l29 37h156l-70 -500h-64q-44 -41 -44 -72q1 -19 25 -19q8 0 17 2.5t15 4.5l6 3l-21 -149q-33 -20 -73 -20q-45 0 -71.5 27t-30 65.5t17.5 84t64 79.5zM316 128
q40 0 62 29t31 93q5 32 4 55t-8.5 38t-21 22t-33.5 7q-40 0 -62.5 -29t-31.5 -93q-4 -32 -3 -55t8.5 -38t21 -22t33.5 -7z" />
    <glyph glyph-name="aring.alt1" 
d="M240 -10q-117 0 -160.5 61.5t-24.5 198.5t80 198.5t178 61.5q102 0 148 -47l29 37h156l-70 -500h-156l-19 37q-59 -47 -161 -47zM316 128q40 0 62 29t31 93q5 32 3.5 55t-8.5 38t-20.5 22t-33.5 7q-40 0 -62.5 -29t-31.5 -93q-4 -32 -3 -55t8.5 -38t21 -22t33.5 -7z
M424 751q70 0 98 -26.5t20 -84.5t-44 -84.5t-106 -26.5t-98 26.5t-20 84.5t43.5 84.5t106.5 26.5zM403 602q34 0 39 38t-29 38q-35 0 -40 -38t30 -38z" />
    <glyph glyph-name="atilde.alt1" 
d="M240 -10q-117 0 -160.5 61.5t-24.5 198.5t80 198.5t178 61.5q102 0 148 -47l29 37h156l-70 -500h-156l-19 37q-59 -47 -161 -47zM316 128q40 0 62 29t31 93q5 32 3.5 55t-8.5 38t-20.5 22t-33.5 7q-40 0 -62.5 -29t-31.5 -93q-4 -32 -3 -55t8.5 -38t21 -22t33.5 -7z
M227 581q7 53 47 92t86 39q32 0 54 -10.5t30 -23t16.5 -23t17.5 -10.5q6 0 11.5 6.5t6.5 19.5h88q-5 -35 -24.5 -65t-48.5 -48.5t-60 -18.5q-32 0 -54 10.5t-30 23.5t-16.5 23t-16.5 10q-6 0 -12 -6.5t-7 -18.5h-88z" />
    <glyph glyph-name="breve.case" horiz-adv-x="385" 
d="M314 670h145q-9 -63 -54 -91.5t-135.5 -28.5t-127.5 28.5t-28 91.5h144q-5 -35 25 -36q26 1 31 36z" />
    <glyph glyph-name="caron.case" horiz-adv-x="393" 
d="M467 670l-93 -120h-201l-59 120h132l38 -46l50 46h133z" />
    <glyph glyph-name="circumflex.case" horiz-adv-x="393" 
d="M391 670l59 -120h-133l-37 46l-51 -46h-132l93 120h201z" />
    <glyph glyph-name="commaaccent" horiz-adv-x="190" 
d="M90 -39q42 0 55 -24t7 -68q-10 -65 -47 -94t-111 -29l9 63q19 0 31 4t19 12t8 22q-33 0 -46 12.5t-9 39.5q5 35 25.5 48.5t58.5 13.5z" />
    <glyph glyph-name="dieresis.case" horiz-adv-x="534" 
d="M230 721q39 0 61.5 -8.5t31.5 -26.5t5 -48q-7 -44 -35.5 -64t-85.5 -20q-58 0 -81 20t-16.5 64t34.5 63.5t86 19.5zM506 721q39 0 61.5 -8.5t31.5 -26.5t5 -48q-7 -44 -35.5 -64t-85.5 -20q-58 0 -81 20t-16.5 64t34.5 63.5t86 19.5z" />
    <glyph glyph-name="dotaccent.case" horiz-adv-x="258" 
d="M230 716q38 0 60.5 -8.5t31.5 -27t5 -48.5q-6 -43 -35 -63t-86 -20t-80 19.5t-17 63.5t34.5 64t86.5 20z" />
    <glyph glyph-name="grave.case" horiz-adv-x="316" 
d="M291 670l82 -120h-144l-115 120h177z" />
    <glyph glyph-name="hungarumlaut.case" horiz-adv-x="526" 
d="M97 550l92 120h178l-127 -120h-143zM330 550l93 120h177l-126 -120h-144z" />
    <glyph glyph-name="tilde.case" horiz-adv-x="385" 
d="M102 580q7 52 39.5 81.5t80.5 29.5q32 0 54.5 -7.5t32 -16t21 -16t22.5 -7.5q25 0 30 26h77q-7 -52 -40 -81.5t-80 -29.5q-32 0 -55 7.5t-32.5 16t-21 16t-23.5 7.5q-27 0 -29 -26h-76z" />
    </font>
</defs>
</svg>
