<?xml version="1.0" standalone="no"?>
<!DOCTYPE svg PUBLIC "-//W3C//DTD SVG 1.1//EN" "http://www.w3.org/Graphics/SVG/1.1/DTD/svg11.dtd" >
<svg xmlns="http://www.w3.org/2000/svg" xmlns:xlink="http://www.w3.org/1999/xlink" version="1.1">
<metadata>
Created by FontForge 20170731 at Fri Jun 30 01:54:13 2017
 By ,,,
Copyright (c) 2017 by Alexander Slobzheninov. All rights reserved.
</metadata>
<defs>
<font id="FivoSans-BoldOblique" horiz-adv-x="576" >
  <font-face 
    font-family="Fivo Sans"
    font-weight="700"
    font-style="oblique"
    font-stretch="normal"
    units-per-em="1000"
    panose-1="0 0 0 0 0 0 0 0 0 0"
    ascent="800"
    descent="-200"
    x-height="500"
    cap-height="700"
    bbox="-105 -251 1292.46 960"
    underline-thickness="50"
    underline-position="875"
    unicode-range="U+000D-E133"
  />
<missing-glyph horiz-adv-x="200" 
 />
    <glyph glyph-name=".notdef" horiz-adv-x="200" 
 />
    <glyph glyph-name=".null" horiz-adv-x="0" 
 />
    <glyph glyph-name="nonmarkingreturn" horiz-adv-x="333" 
 />
    <glyph glyph-name="NULL" horiz-adv-x="772" 
d="M178 700h612l-98 -700h-612zM301 575l-63 -450h331l63 450h-331z" />
    <glyph glyph-name="NULL" horiz-adv-x="772" 
d="M178 700h612l-98 -700h-612zM301 575l-63 -450h331l63 450h-331z" />
    <glyph glyph-name="CR" unicode="&#xd;" horiz-adv-x="250" 
 />
    <glyph glyph-name="space" unicode=" " horiz-adv-x="300" 
 />
    <glyph glyph-name="exclam" unicode="!" horiz-adv-x="292" 
d="M168 155q45 0 62.5 -20t11.5 -63q-4 -29 -15.5 -47t-31.5 -26.5t-50 -8.5q-45 0 -63 19.5t-12 62.5t29.5 63t68.5 20zM166 700h156l-26 -190l-68 -254h-92l4 254z" />
    <glyph glyph-name="quotedbl" unicode="&#x22;" horiz-adv-x="389" 
d="M261 700l-19 -140l-48 -216h-100l15 216l19 140h133zM457 700l-19 -140l-47 -216h-100l14 216l19 140h133z" />
    <glyph glyph-name="numbersign" unicode="#" horiz-adv-x="730" 
d="M370 0l52 182h-110l-52 -182h-108l52 182h-138l14 100h152l31 110h-138l14 100h152l59 208h108l-59 -208h110l59 208h108l-59 -208h142l-14 -100h-156l-31 -110h142l-14 -100h-156l-52 -182h-108zM481 392h-110l-31 -110h110z" />
    <glyph glyph-name="dollar" unicode="$" horiz-adv-x="656" 
d="M256 -100l12 83q-119 9 -167 61t-33 156h148q-6 -40 5.5 -64.5t40.5 -36t78 -11.5q70 0 104.5 22t40.5 70q4 28 -10.5 49t-42 32.5t-62.5 23t-72 20t-72 24t-61 35t-39 53.5t-6 79q14 105 74 158t177 63l11 83h116l-11 -83q114 -10 159 -61.5t30 -155.5h-148
q6 39 -4.5 63.5t-37 36t-72.5 11.5q-65 0 -96.5 -21.5t-38.5 -70.5q-3 -24 12 -41t42.5 -27t63 -20.5t72.5 -19.5t71.5 -26t60 -38.5t38 -58.5t6.5 -85q-15 -106 -77.5 -159t-184.5 -62l-11 -82h-116z" />
    <glyph glyph-name="percent" unicode="%" horiz-adv-x="888" 
d="M303.5 710q91.5 0 126.5 -47t20 -151t-62.5 -151t-139 -47t-126.5 47t-20 151t62.5 151t139 47zM259.5 398q34.5 0 54.5 27t28 87t-3.5 87t-46.5 27t-54.5 -27t-27.5 -87t3.5 -87t46 -27zM287 -30h-134l547 760h134zM739 390q91 0 126 -47t20 -151q-10 -70 -34 -113.5
t-65 -64t-103 -20.5q-91 0 -126 47t-20 151q10 70 34 113.5t65 64t103 20.5zM695 78q35 0 54.5 27t27.5 87t-3.5 87t-45.5 27q-35 0 -54.5 -27t-27.5 -87q-6 -40 -2.5 -65t16 -37t35.5 -12z" />
    <glyph glyph-name="ampersand" unicode="&#x26;" horiz-adv-x="794" 
d="M784 0h-191l-45 51q-100 -71 -253 -71q-132 0 -188 48.5t-42 148.5q5 37 22.5 70t45 59t56.5 45.5t67 39.5q-59 82 -51 146q14 99 76.5 141t167.5 42q108 0 152.5 -38.5t33.5 -118.5q-4 -32 -20.5 -59t-45 -50t-55 -39.5t-66.5 -36.5l123 -139q25 47 42 111h116
q-29 -118 -83 -197zM326 88q83 0 151 46l-155 178q-91 -55 -99 -118q-3 -24 2 -44t18 -33.5t34 -21t49 -7.5zM384 452q59 28 90.5 52.5t36.5 56.5q5 34 -13 50.5t-62 16.5q-30 0 -50 -7.5t-31 -24t-15 -42.5q-6 -42 44 -102z" />
    <glyph glyph-name="quotesingle" unicode="'" horiz-adv-x="193" 
d="M261 700l-19 -140l-48 -216h-100l15 216l19 140h133z" />
    <glyph glyph-name="parenleft" unicode="(" horiz-adv-x="296" 
d="M141 -200q-10 22 -15.5 35.5t-19 49.5t-20 71.5t-13.5 83t-6 104t10 116.5q5 40 13.5 78.5t20.5 72.5t22.5 62.5t25.5 57t24.5 47t26 42t22.5 33t20.5 28t14.5 19.5h117q-1 -2 -5 -7q-25 -33 -42.5 -60.5t-48 -84t-53.5 -130.5t-34 -158q-37 -257 57 -460h-117z" />
    <glyph glyph-name="parenright" unicode=")" horiz-adv-x="296" 
d="M99 -200h-117q150 203 187 460q8 57 9.5 110t-4 97t-11.5 77.5t-17.5 65.5t-18 47t-15.5 36q-3 5 -4 7h117q1 -1 10 -19.5t12.5 -28t13 -33t14 -42t12 -47t10 -57t4.5 -62.5t-0.5 -72.5t-7.5 -78.5q-10 -71 -31 -140t-41 -114.5t-49 -95t-41 -66.5t-32 -44z" />
    <glyph glyph-name="asterisk" unicode="*" horiz-adv-x="354" 
d="M199 400l9 60l13 40l1 4l-4 -2l-35 -27l-56 -30l-26 59l56 30l41 13l4 2l-4 3l-37 13l-47 30l42 59l48 -30l26 -27l4 -3l1 6l-2 40l8 60h68l-8 -60l-14 -40v-5l4 2l35 27l56 30l26 -59l-57 -30l-39 -13l-6 -3l4 -2l37 -13l48 -30l-42 -59l-48 30l-27 27l-4 2l-1 -4l3 -40
l-9 -60h-68z" />
    <glyph glyph-name="plus" unicode="+" horiz-adv-x="580" 
d="M594 310l-16 -108h-202l-28 -202h-116l28 202h-202l16 108h202l26 190h116l-26 -190h202z" />
    <glyph glyph-name="comma" unicode="," horiz-adv-x="232" 
d="M130 155q24 0 41 -8t25 -19.5t11 -30.5t2 -35.5t-4 -39.5q-14 -102 -59 -148t-130 -46l9 67q37 0 56.5 22.5t26.5 72.5q-42 0 -58 19t-10 62q6 42 26.5 63t63.5 21z" />
    <glyph glyph-name="hyphen" unicode="-" horiz-adv-x="390" 
d="M390 212h-330l15 108h330z" />
    <glyph glyph-name="period" unicode="." horiz-adv-x="232" 
d="M138 155q45 0 62.5 -20t11.5 -63q-4 -29 -15.5 -47t-31.5 -26.5t-50 -8.5q-45 0 -63 19.5t-12 62.5t29.5 63t68.5 20z" />
    <glyph glyph-name="slash" unicode="/" horiz-adv-x="393" 
d="M348 700h133l-338 -700h-133z" />
    <glyph glyph-name="zero" unicode="0" horiz-adv-x="712" 
d="M457 720q166 0 228.5 -88t35.5 -282t-114.5 -282t-253.5 -88t-228.5 88t-35.5 282q28 195 115 282.5t253 87.5zM368 88q84 0 131 62t66.5 200t-10 200t-113.5 62t-130.5 -62t-66 -200t9.5 -200t113 -62z" />
    <glyph glyph-name="one" unicode="1" horiz-adv-x="378" 
d="M113 592l15 108h268l-98 -700h-148l83 592h-120z" />
    <glyph glyph-name="two" unicode="2" horiz-adv-x="578" 
d="M254 108h299l-15 -108h-508l13 90q49 40 111 85.5t101 73.5t81 62.5t67 60.5t43 57.5t22 64.5q5 31 2 53.5t-14 36.5t-29.5 21t-46.5 7q-56 0 -85.5 -33.5t-40.5 -108.5h-148q19 131 87.5 190.5t202 59.5t186 -53.5t35.5 -172.5q-4 -30 -14.5 -57.5t-31.5 -55.5t-40 -49
t-56.5 -52t-62.5 -50.5t-76 -58.5t-82 -63z" />
    <glyph glyph-name="three" unicode="3" horiz-adv-x="634" 
d="M346 312h-44l14 100h44q46 0 76 10t46.5 31t20.5 55q8 55 -17 79.5t-88 24.5t-96 -31t-43 -101h-132q18 126 86 183t200 57t185.5 -48.5t38.5 -155.5q-6 -39 -22 -69t-34.5 -44t-36.5 -22t-30 -10l-12 -1q6 -1 15.5 -2.5t32.5 -12t40 -26.5t28 -49t5 -76
q-17 -118 -91.5 -171t-222.5 -53t-206.5 59.5t-40.5 190.5h140q-10 -75 18.5 -108.5t103.5 -33.5q71 0 106 27.5t44 88.5q8 56 -22.5 82t-105.5 26z" />
    <glyph glyph-name="four" unicode="4" horiz-adv-x="660" 
d="M462 700h166l-59 -420h70l-15 -108h-70l-24 -172h-148l24 172h-352l18 126zM199 280h222l38 270z" />
    <glyph glyph-name="five" unicode="5" horiz-adv-x="604" 
d="M311 592v-1l-43 -136q51 25 127 25q87 0 137.5 -26t68.5 -81t5 -143q-18 -131 -94.5 -190.5t-228.5 -59.5q-126 0 -179.5 52.5t-45.5 167.5h132q0 -59 27.5 -85.5t88.5 -26.5q70 0 106 33.5t46.5 108.5t-15.5 108.5t-95 33.5q-54 0 -84.5 -18.5t-46.5 -59.5h-124l125 406
h404l-15 -108h-296z" />
    <glyph glyph-name="six" unicode="6" horiz-adv-x="634" 
d="M88 340q28 200 107.5 290t227.5 90q75 0 122.5 -21t72.5 -65t29 -114h-140q-3 36 -14.5 57.5t-32 32t-51.5 10.5q-71 0 -110 -52.5t-55 -171.5q1 3 3.5 9t16 20.5t32.5 25.5t55 20t81 9q116 0 164.5 -60t29.5 -190q-18 -131 -91 -190.5t-216 -59.5q-151 0 -204.5 85
t-26.5 275zM374 372q-32 0 -56.5 -8t-42 -25.5t-28.5 -44.5t-17 -64q-7 -50 1.5 -81t34 -46t68.5 -15q66 0 99.5 33.5t43.5 108.5q11 75 -13.5 108.5t-89.5 33.5z" />
    <glyph glyph-name="seven" unicode="7" horiz-adv-x="552" 
d="M608 610l-386 -610h-157l382 592h-334l15 108h492z" />
    <glyph glyph-name="eight" unicode="8" horiz-adv-x="664" 
d="M201 369q-73 42 -58 147q15 107 83.5 155.5t206.5 48.5t193.5 -48.5t40.5 -155.5q-15 -105 -100 -147q103 -44 85 -173q-16 -113 -93 -164.5t-230 -51.5t-215 51.5t-46 164.5q18 129 133 173zM345 88q76 0 113.5 27t45.5 85q6 40 -5.5 64.5t-41 36t-80.5 11.5
q-76 0 -114 -26t-46 -86q-5 -39 6.5 -63.5t41.5 -36.5t80 -12zM418 612q-64 0 -96.5 -24t-39.5 -76q-8 -54 17.5 -77t90.5 -23t96.5 23t39.5 77q7 52 -18.5 76t-89.5 24z" />
    <glyph glyph-name="nine" unicode="9" horiz-adv-x="634" 
d="M645 360q-28 -199 -108 -289.5t-228 -90.5q-111 0 -164 47.5t-60 152.5h140q6 -53 29 -76.5t69 -23.5q71 0 110 52.5t56 171.5q-1 -3 -4 -9t-16.5 -20.5t-32.5 -25.5t-55 -20t-81 -9q-116 0 -164 60t-30 190q19 131 91.5 190.5t215.5 59.5q152 0 205 -85t27 -275z
M358 328q65 0 99 34t44.5 108t-14.5 108t-89 34q-44 0 -73 -14.5t-46.5 -46t-24.5 -81.5q-10 -74 14.5 -108t89.5 -34z" />
    <glyph glyph-name="colon" unicode=":" horiz-adv-x="233" 
d="M138 155q46 0 63.5 -19.5t11.5 -63.5q-6 -43 -29.5 -62.5t-68.5 -19.5t-63 19.5t-12 62.5t29.5 63t68.5 20zM187 502q45 0 63 -19.5t12 -62.5t-29.5 -62.5t-69 -19.5t-63 19.5t-11.5 62.5t29.5 62.5t68.5 19.5z" />
    <glyph glyph-name="semicolon" unicode=";" horiz-adv-x="233" 
d="M187 502q45 0 63 -19.5t12 -62.5t-29.5 -62.5t-69 -19.5t-63 19.5t-11.5 62.5t29.5 62.5t68.5 19.5zM130 155q38 0 57.5 -20t20 -49.5t-2.5 -63.5q-14 -102 -59 -148t-130 -46l9 67q37 0 57 22.5t27 72.5q-42 0 -58 19t-11 62q6 42 26.5 63t63.5 21z" />
    <glyph glyph-name="less" unicode="&#x3c;" horiz-adv-x="460" 
d="M76 325l424 175l-18 -133l-284 -117l251 -117l-19 -133l-375 175z" />
    <glyph glyph-name="equal" unicode="=" horiz-adv-x="644" 
d="M645 222l-15 -108h-584l15 108h584zM672 416l-15 -108h-584l15 108h584z" />
    <glyph glyph-name="greater" unicode="&#x3e;" horiz-adv-x="460" 
d="M100 500l376 -175l-21 -150l-425 -175l19 133l283 117l-250 117z" />
    <glyph glyph-name="question" unicode="?" horiz-adv-x="552" 
d="M286 155q45 0 62.5 -20t11.5 -63q-4 -29 -15.5 -47t-31.5 -26.5t-50 -8.5q-46 0 -63.5 19.5t-11.5 62.5t29.5 63t68.5 20zM235 250q6 42 19.5 74t31 51t37 33.5t39 26t36 23.5t28 30t14.5 42q6 43 -14.5 62.5t-71.5 19.5t-78.5 -29t-36.5 -93h-140q17 121 83 175.5
t195 54.5q130 0 182 -45t37 -145q-5 -42 -24 -73t-43.5 -47t-52.5 -32t-52 -29.5t-42 -39t-23 -59.5h-124z" />
    <glyph glyph-name="at" unicode="@" horiz-adv-x="891" 
d="M708 460h1l-37 -270q-5 -30 -3.5 -49t10 -28t24.5 -9q19 0 33 15.5t24 47.5t17 83q23 164 -35 238t-211 74q-160 0 -242.5 -74t-104.5 -238q-23 -158 28 -230t187 -72q103 0 167 50l-15 -102q-18 -13 -63 -26.5t-102 -13.5q-192 -1 -266 92.5t-45 301.5q20 142 76 231
t152 131t241 42q209 0 290.5 -96t51.5 -308q-17 -119 -65 -174.5t-130 -55.5q-105 0 -131 67q-50 -47 -145 -47q-99 0 -136 50t-22 160q16 116 68 168t151 52q80 0 122 -55l26 45h84zM450 124q50 0 76.5 30t35.5 96q10 67 -8 97.5t-68 30.5t-77 -30.5t-37 -97.5
q-9 -67 9.5 -96.5t68.5 -29.5z" />
    <glyph glyph-name="A" unicode="A" horiz-adv-x="692" 
d="M510 0l-22 144h-249l-64 -144h-165l327 700h230l115 -700h-172zM425 564l-138 -312h185z" />
    <glyph glyph-name="B" unicode="B" horiz-adv-x="696" 
d="M587 370q5 -1 12.5 -4t26.5 -15.5t33 -29t22.5 -47t3.5 -68.5q-15 -108 -86 -157t-213 -49h-306l98 700h298q131 0 183.5 -44t38.5 -142q-4 -34 -17.5 -61t-29 -42t-30 -25t-24.5 -13zM377 108q64 0 96.5 23t39.5 75q5 37 -4.5 60.5t-34.5 34.5t-68 11h-117l-29 -204h117
zM328 592l-25 -180h109q52 0 79 22.5t34 71.5q4 30 -3.5 49t-28.5 28t-56 9h-109z" />
    <glyph glyph-name="C" unicode="C" horiz-adv-x="766" 
d="M595 236h164q-50 -134 -137 -195t-229 -61q-187 0 -259 88t-45 282t124 282t284 88q153 0 222.5 -61t71.5 -195h-164q-5 70 -39.5 100.5t-107.5 30.5q-96 0 -148 -58t-70 -187t17.5 -187t131.5 -58q70 0 113 30.5t71 100.5z" />
    <glyph glyph-name="D" unicode="D" horiz-adv-x="742" 
d="M751 350q-26 -184 -120 -267t-277 -83h-274l98 700h274q183 0 254 -83t45 -267zM428 584h-101l-66 -468h101q97 0 148.5 55.5t68.5 178.5t-18.5 178.5t-132.5 55.5z" />
    <glyph glyph-name="E" unicode="E" horiz-adv-x="614" 
d="M666 584h-339l-23 -164h299l-16 -116h-299l-27 -188h339l-16 -116h-504l98 700h504z" />
    <glyph glyph-name="F" unicode="F" horiz-adv-x="604" 
d="M666 584h-339l-23 -164h299l-16 -116h-299l-43 -304h-165l98 700h504z" />
    <glyph glyph-name="G" unicode="G" horiz-adv-x="776" 
d="M439 294l15 108h338l-7 -52q-27 -194 -119.5 -282t-270.5 -88q-188 0 -260.5 88t-45.5 282q19 130 67.5 211.5t132.5 120t210 38.5q147 0 217 -57t77 -183h-156q-6 61 -43 88t-112 27q-99 0 -150.5 -57.5t-69.5 -187.5q-18 -129 17.5 -187t133.5 -58q96 0 145 44.5
t63 144.5h-182z" />
    <glyph glyph-name="H" unicode="H" horiz-adv-x="756" 
d="M610 700h164l-98 -700h-164l44 312h-267l-44 -312h-165l98 700h165l-37 -264h267z" />
    <glyph glyph-name="I" unicode="I" horiz-adv-x="325" 
d="M178 700h165l-98 -700h-165z" />
    <glyph glyph-name="J" unicode="J" horiz-adv-x="574" 
d="M50 210l4 34h156l-4 -34q-8 -56 7.5 -80.5t59 -24.5t66.5 24.5t31 80.5l68 490h164l-68 -490q-17 -117 -84 -173.5t-195 -56.5q-124 0 -173 56.5t-32 173.5z" />
    <glyph glyph-name="K" unicode="K" horiz-adv-x="711" 
d="M343 700l-38 -272l275 272h199l-343 -340l265 -360h-199l-216 293l-41 -293h-165l98 700h165z" />
    <glyph glyph-name="L" unicode="L" horiz-adv-x="574" 
d="M562 125l-18 -125h-464l98 700h165l-80 -575h299z" />
    <glyph glyph-name="M" unicode="M" horiz-adv-x="932" 
d="M80 0l98 700h223l100 -477l234 477h215l-98 -700h-156l70 499l-250 -499h-100l-109 499l-70 -499h-157z" />
    <glyph glyph-name="N" unicode="N" horiz-adv-x="772" 
d="M634 700h156l-98 -700h-190l-195 495l-70 -495h-157l98 700h191l196 -495z" />
    <glyph glyph-name="O" unicode="O" horiz-adv-x="796" 
d="M499 720q188 0 261 -88t45.5 -282t-125 -282t-285.5 -88t-260.5 88t-45.5 282q19 130 67.5 211.5t132.5 120t210 38.5zM481.5 595q-97.5 0 -149.5 -58t-70 -187t17.5 -187t133 -58t150 58t70.5 187t-18 187t-133.5 58z" />
    <glyph glyph-name="P" unicode="P" horiz-adv-x="686" 
d="M723 474q-15 -101 -89.5 -163.5t-210.5 -62.5h-143l-35 -248h-165l98 700h308q56 0 100 -11.5t71.5 -32t45 -49t21 -62t-0.5 -71.5zM558.5 474q4.5 34 -4 58.5t-32 38t-60.5 13.5h-135l-31 -220h135q38 0 65 13.5t42.5 38t20 58.5z" />
    <glyph glyph-name="Q" unicode="Q" horiz-adv-x="795" 
d="M498.5 720q187.5 0 260 -88t45.5 -282q-29 -211 -143 -297l84 -123h-150l-46 68q-67 -18 -154 -18q-188 0 -260.5 88t-45.5 282t124.5 282t285 88zM632 350q18 129 -18.5 187t-134.5 58t-150 -58t-70 -187t17.5 -187t133.5 -58q33 0 61 6l-109 159h150l62 -91
q42 59 58 171z" />
    <glyph glyph-name="R" unicode="R" horiz-adv-x="722" 
d="M405 256h-124l-36 -256h-165l98 700h320q56 0 100 -11.5t71.5 -32t45 -49t21 -62t-0.5 -71.5q-23 -158 -172 -202l119 -272h-173zM296 364h147q56 0 88 29t40 81q4 34 -4.5 58.5t-32 38t-60.5 13.5h-147z" />
    <glyph glyph-name="S" unicode="S" horiz-adv-x="656" 
d="M279 520q-3 -24 12 -41t42.5 -27t63 -20.5t72.5 -19.5t71.5 -26t60.5 -38.5t38 -58.5t6 -85q-17 -118 -92.5 -171t-227 -53t-212.5 52t-45 168h148q-5 -40 6 -64.5t40 -36t78 -11.5q47 0 77.5 9.5t47 30t20.5 52.5q4 28 -10.5 49t-41.5 32.5t-62.5 23t-72.5 20t-72 24
t-61 35t-39 53.5t-6 79q16 118 89.5 171t219.5 53t205 -52t42 -168h-148q9 59 -18.5 85.5t-95.5 26.5q-65 0 -96.5 -21.5t-38.5 -70.5z" />
    <glyph glyph-name="T" unicode="T" horiz-adv-x="636" 
d="M704 700l-17 -125h-206l-81 -575h-164l81 575h-206l17 125h576z" />
    <glyph glyph-name="U" unicode="U" horiz-adv-x="736" 
d="M106 258l62 442h165l-62 -442q-11 -81 15 -117t96.5 -36t107.5 36t48 117l62 442h164l-62 -442q-20 -146 -100 -212t-237 -66t-218 66t-41 212z" />
    <glyph glyph-name="V" unicode="V" horiz-adv-x="684" 
d="M273 700l84 -592l250 592h165l-311 -700h-238l-115 700h165z" />
    <glyph glyph-name="W" unicode="W" horiz-adv-x="1012" 
d="M505 700h197h1l27 -542l195 542h165l-269 -700h-214l-31 540l-171 -540h-214l-73 700h165l43 -542z" />
    <glyph glyph-name="X" unicode="X" horiz-adv-x="684" 
d="M299 700l109 -243l181 243h173l-260 -340l172 -360h-181l-114 262l-196 -262h-173l269 360l-161 340h181z" />
    <glyph glyph-name="Y" unicode="Y" horiz-adv-x="664" 
d="M452 268l-38 -268h-156l38 268l-188 432h181l106 -279l184 279h173z" />
    <glyph glyph-name="Z" unicode="Z" horiz-adv-x="624" 
d="M237 116h373l-16 -116h-564l14 99l431 485h-353l16 116h544l-14 -99z" />
    <glyph glyph-name="bracketleft" unicode="[" horiz-adv-x="324" 
d="M178 700h234l-15 -108l-110 -1l-96 -683h110l-15 -108h-234z" />
    <glyph glyph-name="backslash" unicode="\" horiz-adv-x="393" 
d="M108 700h133l142 -700h-133z" />
    <glyph glyph-name="bracketright" unicode="]" horiz-adv-x="325" 
d="M108 700h235l-126 -900h-235l15 108h110l96 683l-110 1z" />
    <glyph glyph-name="asciicircum" unicode="^" horiz-adv-x="496" 
d="M417 670l94 -350h-117l-66 248l-136 -248h-117l192 350h150z" />
    <glyph glyph-name="underscore" unicode="_" horiz-adv-x="520" 
d="M520 0l-15 -108h-520l15 108h520z" />
    <glyph glyph-name="grave" unicode="`" horiz-adv-x="306" 
d="M278 700l75 -150h-117l-108 150h150z" />
    <glyph glyph-name="a" unicode="a" horiz-adv-x="556" 
d="M379 42q-54 -52 -162 -52q-99 0 -138.5 37.5t-27.5 120.5q12 89 75 129.5t191 40.5h86l3 22q6 45 -11 65.5t-61 20.5t-66.5 -18t-27.5 -58h-141q12 84 71.5 122t179.5 38q119 0 167 -44.5t35 -141.5l-46 -324h-116zM391 234h-65q-26 0 -43.5 -2.5t-37 -9.5t-30.5 -23.5
t-15 -42.5q-5 -36 11.5 -51t59.5 -15q29 0 50.5 8.5t34.5 25t20 37t11 48.5z" />
    <glyph glyph-name="b" unicode="b" horiz-adv-x="605" 
d="M356 -10q-109 0 -153 57l-27 -47h-116l98 700h148l-33 -235q57 45 156 45q77 0 121 -27t58.5 -84t1.5 -149q-19 -136 -79 -198t-175 -62zM331.5 98q57.5 0 89 36t42.5 116t-10 116t-78.5 36t-89 -36t-42.5 -116t10 -116t78.5 -36z" />
    <glyph glyph-name="c" unicode="c" 
d="M424 184h148q-26 -102 -91 -148t-184 -46q-141 0 -196 61.5t-36 198.5t91.5 198.5t213.5 61.5q119 0 171.5 -46t48.5 -148h-148q-1 30 -10.5 49t-28.5 28t-48 9q-63 0 -97 -36t-45 -116t12.5 -116t86.5 -36q43 0 70 20.5t42 65.5z" />
    <glyph glyph-name="d" unicode="d" horiz-adv-x="606" 
d="M247 -10q-115 0 -158 61.5t-24 198.5q13 92 43.5 149t82.5 84t129 27q99 0 143 -45l33 235h148l-98 -700h-116l-13 47q-60 -57 -170 -57zM301.5 98q57.5 0 89 36t42.5 116t-10 116t-78.5 36t-89 -36t-42.5 -116t10 -116t78.5 -36z" />
    <glyph glyph-name="e" unicode="e" 
d="M207 202q-2 -62 20 -91t73 -29q42 0 67.5 17.5t40.5 56.5h140q-29 -87 -91 -126.5t-170 -39.5q-136 0 -188.5 61.5t-33.5 198.5t89 198.5t206 61.5q68 0 114 -15t73.5 -47.5t35 -82.5t-1.5 -119l-7 -44h-367zM348 418q-53 0 -84 -31.5t-46 -100.5h221q10 70 -11.5 101
t-79.5 31z" />
    <glyph glyph-name="f" unicode="f" horiz-adv-x="436" 
d="M391 592q-46 0 -52 -44l-7 -48h144l-13 -92h-144l-57 -408h-148l57 408h-84l13 92h84l7 48q7 47 29.5 81t60 52.5t85.5 18.5h138l-15 -108h-98z" />
    <glyph glyph-name="g" unicode="g" horiz-adv-x="607" 
d="M248 -10q-115 0 -158.5 62t-24.5 198q13 92 43.5 149t82.5 84t129 27q111 0 156 -58l25 48h116l-63 -450q-19 -137 -89 -198.5t-206 -61.5q-111 0 -162 39.5t-52 126.5h140q3 -39 21.5 -56.5t57.5 -17.5q63 0 95.5 34t43.5 109l1 10q-57 -45 -156 -45zM302 98q39 0 65 16
t42.5 49t23.5 87q6 40 3.5 69t-13.5 47.5t-30 27t-49 8.5q-57 0 -88.5 -36t-42.5 -116t10 -116t79 -36z" />
    <glyph glyph-name="h" unicode="h" horiz-adv-x="587" 
d="M61 0h-1l98 700h148l-32 -227q53 37 139 37q102 0 141 -57t21 -183l-38 -270h-148l38 270q10 70 -6.5 101t-62.5 31q-49 0 -75 -31t-36 -101l-37 -270v4l-1 -4h-148z" />
    <glyph glyph-name="i" unicode="i" horiz-adv-x="272" 
d="M210 0h-148l70 500h148zM237 722q45 0 63 -18.5t13 -59.5q-6 -41 -29 -59.5t-68.5 -18.5t-63 18.5t-12 59.5t28.5 59.5t68 18.5z" />
    <glyph glyph-name="j" unicode="j" horiz-adv-x="270" 
d="M-12 -72q29 0 47.5 16t22.5 44l72 512h149l-74 -528q-10 -71 -56.5 -111.5t-119.5 -40.5h-134l15 108h78zM235 722q45 0 63 -18.5t13 -59.5q-6 -41 -29 -59.5t-68.5 -18.5t-63 18.5t-12 59.5t28.5 59.5t68 18.5z" />
    <glyph glyph-name="k" unicode="k" horiz-adv-x="587" 
d="M306 700l-55 -393l201 193h175l-249 -240l199 -260h-175l-164 214l-30 -214h-148l98 700h148z" />
    <glyph glyph-name="l" unicode="l" horiz-adv-x="268" 
d="M60 0l98 700h148l-98 -700h-148z" />
    <glyph glyph-name="m" unicode="m" horiz-adv-x="867" 
d="M246 271l-38 -271h-148l70 500h116l15 -56q49 67 147 67q103 0 134 -70q54 70 163 70q97 0 132.5 -57t17.5 -183l-38 -270h-148l38 270q10 69 -4 100.5t-53 31.5q-42 0 -65.5 -31.5t-33.5 -100.5l-38 -270h-148l38 270q10 70 -4 101t-53 31q-42 0 -66 -31.5t-34 -100.5z
" />
    <glyph glyph-name="n" unicode="n" horiz-adv-x="586" 
d="M246 500l-1 -1l13 -39q55 50 154 50q102 0 141 -57t21 -183l-38 -270h-148l38 270q10 70 -6.5 101t-63.5 31q-48 0 -74 -28.5t-34 -91.5l-40 -282h-148l70 500h116z" />
    <glyph glyph-name="o" unicode="o" horiz-adv-x="596" 
d="M370 510q141 0 195.5 -61.5t35.5 -198.5t-91 -198.5t-213 -61.5t-196 61.5t-36 198.5t91.5 198.5t213.5 61.5zM213 250q-7 -54 0.5 -87t31.5 -49t67 -16q63 0 96.5 36t44.5 116t-12 116t-87 36q-31 0 -55 -8.5t-41 -27.5t-28 -47.5t-17 -68.5z" />
    <glyph glyph-name="p" unicode="p" horiz-adv-x="605" 
d="M428 510q115 0 157.5 -62t23.5 -198.5t-79.5 -198t-174.5 -61.5q-99 0 -143 45l-33 -235h-148l98 700h116l14 -47q60 57 169 57zM371.5 401q-57.5 0 -89 -36t-42.5 -115.5t10 -115.5t78.5 -36t89 36t42.5 115.5t-10 115.5t-78.5 36z" />
    <glyph glyph-name="q" unicode="q" horiz-adv-x="606" 
d="M320 510q111 0 154 -57l26 47h116l-98 -700h-148l33 235q-57 -45 -156 -45q-115 0 -158 61.5t-24 198.5q13 92 43.5 149t82.5 84t129 27zM344 401q-57 0 -88.5 -36t-42.5 -115.5t10 -115.5t78.5 -36t89 36t42.5 116q8 53 1 86.5t-29 49t-61 15.5z" />
    <glyph glyph-name="r" unicode="r" horiz-adv-x="407" 
d="M369 385h-1q-56 0 -86 -32t-40 -102l-35 -250h-148l70 500h116l14 -47q54 56 128 56h72l-18 -125h-72z" />
    <glyph glyph-name="s" unicode="s" horiz-adv-x="508" 
d="M224 372q-2 -20 13 -32.5t41 -19t58 -12.5t63 -15.5t56 -24.5t37.5 -44t7.5 -70q-12 -86 -73 -125t-183 -39q-113 0 -159 38t-34 122h140q-6 -40 10.5 -58t58.5 -18q29 0 47.5 6.5t28.5 20.5t13 37q3 22 -11.5 35.5t-39.5 20.5t-56 12.5t-61.5 14.5t-55 23.5t-37 43
t-6.5 68.5q11 81 68 117.5t172 36.5q74 0 117.5 -15.5t61 -48.5t10.5 -86h-132q4 35 -12 50.5t-57 15.5t-61.5 -12.5t-24.5 -41.5z" />
    <glyph glyph-name="t" unicode="t" horiz-adv-x="442" 
d="M293 168q-2 -9 -1 -17t3.5 -14.5t7 -12t10.5 -9t14.5 -5.5t17.5 -2h82l-15 -108h-138q-73 0 -108 40.5t-25 111.5l36 256h-80l13 92h80l18 126h149l-18 -126h143l-13 -92h-143z" />
    <glyph glyph-name="u" unicode="u" horiz-adv-x="586" 
d="M410 0l1 1l-12 39q-56 -50 -154 -50q-103 0 -141.5 57t-21.5 183l38 270h148l-38 -270q-9 -70 7 -101t63 -31q31 0 52.5 12.5t36 39t20.5 68.5l40 282h147l-70 -500h-116z" />
    <glyph glyph-name="v" unicode="v" horiz-adv-x="548" 
d="M291 98l160 402h157l-223 -500h-222l-83 500h157z" />
    <glyph glyph-name="w" unicode="w" horiz-adv-x="864" 
d="M697 0h-182l-27 396l-139 -396h-181l-78 500h149l43 -382l133 382h182l20 -381l149 381h148z" />
    <glyph glyph-name="x" unicode="x" horiz-adv-x="532" 
d="M247 500l68 -154l110 154h157l-188 -240l128 -260h-157l-75 173l-123 -173h-157l202 260l-122 240h157z" />
    <glyph glyph-name="y" unicode="y" horiz-adv-x="536" 
d="M222 2h-1l6 11l-148 487h141l87 -316l148 316h140l-235 -482q-53 -104 -109.5 -151t-128.5 -47h-72l13 92h64q27 0 50 21.5t45 68.5z" />
    <glyph glyph-name="z" unicode="z" horiz-adv-x="504" 
d="M219 100h269l-14 -100h-444l12 83l304 317h-250l14 100h424l-11 -83z" />
    <glyph glyph-name="braceleft" unicode="{" horiz-adv-x="384" 
d="M248 128l-22 -160q-5 -32 6 -46t39 -14h90l-15 -108h-122q-77 0 -106.5 37.5t-17.5 119.5l26 186q3 23 -1.5 37.5t-18.5 21.5t-37 7l13 92q35 0 53 16t23 50l24 176q12 82 52 119.5t116 37.5h122l-15 -108h-90q-28 0 -43 -14t-19 -46l-21 -151q-8 -53 -27 -83t-54 -43
q31 -14 41.5 -44t3.5 -83z" />
    <glyph glyph-name="bar" unicode="|" horiz-adv-x="284" 
d="M178 700h124l-126 -900h-124z" />
    <glyph glyph-name="braceright" unicode="}" horiz-adv-x="384" 
d="M172 128q7 53 26.5 83t54.5 44q-31 14 -42 44t-3 82l21 151q4 32 -6.5 46t-39.5 14h-90l15 108h122q77 0 106.5 -37.5t17.5 -119.5l-24 -176q-4 -23 1 -37.5t18.5 -21.5t36.5 -7l-13 -92q-23 0 -38.5 -7t-24.5 -21.5t-12 -37.5l-26 -186q-6 -42 -18.5 -71t-33 -48.5
t-49.5 -28.5t-67 -9h-122l15 108h90q29 0 43.5 14t19.5 46z" />
    <glyph glyph-name="asciitilde" unicode="~" horiz-adv-x="660" 
d="M60 210h-1l15 102q46 40 94 52t89.5 1.5t83 -30t82.5 -39.5t80.5 -31.5t84 -1t86.5 47.5l-14 -101q-47 -40 -95 -52.5t-89.5 -2.5t-83 29.5t-82.5 39.5t-81 31.5t-84 1.5t-85 -47z" />
    <glyph glyph-name="space_" unicode="&#xa0;" horiz-adv-x="300" 
 />
    <glyph glyph-name="exclamdown" unicode="&#xa1;" horiz-adv-x="292" 
d="M202 -200h-156l27 190l67 254h92l-3 -254zM194 343q-45 0 -62.5 20t-11.5 63t29 62.5t68 19.5t63 -19.5t12 -62.5t-29.5 -63t-68.5 -20z" />
    <glyph glyph-name="cent" unicode="&#xa2;" 
d="M226 -98l12 87q-108 12 -149 74t-24 184t75.5 184t170.5 74l12 83h116l-12 -83q88 -10 127 -55.5t36 -134.5h-148q-2 45 -23 65.5t-67 20.5q-61 0 -94.5 -36.5t-44.5 -115.5q-7 -53 0.5 -86.5t31 -49.5t64.5 -16q45 0 72 20.5t43 65.5h148q-23 -89 -75 -134.5t-142 -55.5
l-13 -91h-116z" />
    <glyph glyph-name="sterling" unicode="&#xa3;" horiz-adv-x="656" 
d="M642 116v-1l-16 -116h-586l19 135q54 20 78 56.5t32 94.5l2 16h-89l15 108h89l13 90q16 114 78.5 167t183.5 53t171.5 -49t33.5 -171h-141q9 63 -7.5 91.5t-62.5 28.5q-52 0 -75.5 -31.5t-31.5 -88.5l-13 -90h238l-15 -108h-238l-2 -16q-9 -65 -38 -105.5t-91 -63.5h453z
" />
    <glyph glyph-name="currency" unicode="&#xa4;" horiz-adv-x="627" 
d="M654 477l-57 -50q36 -61 20 -177q-16 -117 -70 -178l43 -50l-85 -75l-54 63q-56 -19 -138 -19t-134 19l-70 -63l-66 75l57 50q-36 61 -20 178q16 116 70 177l-43 50l86 76l54 -63q57 19 138.5 19t133.5 -19l71 63zM229 250q-7 -54 0.5 -87t31.5 -49t67 -16q63 0 96.5 36
t44.5 116t-12 116t-87 36q-31 0 -55 -8.5t-41 -27.5t-28 -47.5t-17 -68.5z" />
    <glyph glyph-name="yen" unicode="&#xa5;" horiz-adv-x="684" 
d="M462 268l-8 -58h204l-15 -100h-204l-15 -110h-156l15 110h-212l15 100h212l8 58l-13 30h-195l14 100h137l-131 302h181l106 -279l184 279h173l-210 -302h132l-14 -100h-187z" />
    <glyph glyph-name="section" unicode="&#xa7;" horiz-adv-x="644" 
d="M406 612q-47 0 -71 -18.5t-30 -59.5q-4 -26 14 -44.5t49.5 -29t70 -20.5t76.5 -24t68.5 -34.5t46 -56.5t8.5 -86q-16 -109 -99 -151q22 -40 14 -96q-16 -111 -82 -161.5t-196 -50.5q-118 0 -164.5 52.5t-30.5 167.5h124q-8 -59 12 -85.5t74 -26.5q53 0 79 19t31 61
q4 26 -9 45t-37 29t-55.5 19.5t-65 17t-64 22t-53.5 33t-34 51.5t-5 77q15 109 107 147q-30 43 -21 109q15 106 76.5 154t181.5 48q118 0 164 -52t29 -168h-124q9 59 -11 85.5t-73 26.5zM279 343q-53 -15 -60 -66q-3 -22 9.5 -38t39 -26.5t54.5 -18t66.5 -18t64.5 -21.5
q35 19 42 66q3 21 -8 37t-35.5 27t-49.5 19t-62 18.5t-61 20.5z" />
    <glyph glyph-name="dieresis" unicode="&#xa8;" horiz-adv-x="453" 
d="M220 742q45 0 63 -19.5t12 -62.5q-4 -29 -15.5 -47t-32 -26.5t-50.5 -8.5q-45 0 -62.5 19.5t-11.5 62.5q4 29 15.5 47t31.5 26.5t50 8.5zM440 742q46 0 64 -19.5t12 -62.5t-29.5 -62.5t-69.5 -19.5q-45 0 -62.5 19.5t-11.5 62.5q4 29 15.5 47t31.5 26.5t50 8.5z" />
    <glyph glyph-name="copyright" unicode="&#xa9;" horiz-adv-x="852" 
d="M527.5 720q202.5 0 281.5 -88t52 -282t-131 -282t-306.5 -88t-282 88t-52.5 282t131.5 282t307 88zM436 72q150 0 227.5 66t97.5 212q14 98 -7.5 159t-80 90t-159.5 29q-150 0 -227 -66t-98 -212q-20 -146 38.5 -212t208.5 -66zM503 550q98 0 141.5 -38t41.5 -122h-116
q-3 40 -21 58t-58 18q-24 0 -42.5 -6.5t-31.5 -21t-21.5 -36t-12.5 -52.5q-16 -116 76 -116q39 0 62.5 17.5t38.5 58.5h116q-23 -84 -77 -122t-152 -38q-109 0 -152 47.5t-28 152.5q10 70 38 114t76.5 65t121.5 21z" />
    <glyph glyph-name="guillemotleft" unicode="&#xab;" horiz-adv-x="531" 
d="M220 450h141l-145 -190l90 -200h-141l-98 200zM423 450h141l-145 -190l90 -200h-141l-99 200z" />
    <glyph glyph-name="logicalnot" unicode="&#xac;" horiz-adv-x="590" 
d="M595 320l-33 -238h-117l18 130h-403l15 108h520z" />
    <glyph glyph-name="registered" unicode="&#xae;" horiz-adv-x="852" 
d="M527.5 720q202.5 0 281.5 -88t52 -282t-131 -282t-306.5 -88t-282 88t-52.5 282t131.5 282t307 88zM436 72q151 0 228 66t97.5 212t-38 212t-209 66t-227.5 -66t-97.5 -212t37.5 -212t209 -66zM567 303l69 -133h-101l-59 124h-73l-17 -124h-91l49 360h178q82 0 114.5 -28
t23.5 -90q-12 -87 -93 -109zM427 462l-14 -100h86q33 0 49 11.5t19 38.5q4 26 -8.5 38t-45.5 12h-86z" />
    <glyph glyph-name="macron" unicode="&#xaf;" horiz-adv-x="400" 
d="M115 604l12 84h340l-12 -84h-340z" />
    <glyph glyph-name="degree" unicode="&#xb0;" horiz-adv-x="440" 
d="M103 520q14 100 65.5 145t151.5 45q67 0 105.5 -20t52.5 -61.5t5 -108.5q-14 -100 -65.5 -145t-151 -45t-138.5 45t-25 145zM195 520q-8 -56 11.5 -81t71.5 -25t78 25t34 81q5 38 -1.5 61t-26 34t-54.5 11t-58 -11t-36.5 -34t-18.5 -61z" />
    <glyph glyph-name="plusminus" unicode="&#xb1;" horiz-adv-x="580" 
d="M30 0l15 108h520l-15 -108h-520zM605 388l-16 -108h-202l-17 -124h-116l17 124h-202l16 108h202l15 112h116l-15 -112h202z" />
    <glyph glyph-name="acute" unicode="&#xb4;" horiz-adv-x="306" 
d="M107 550l117 150h150l-150 -150h-117z" />
    <glyph glyph-name="paragraph" unicode="&#xb6;" horiz-adv-x="810" 
d="M739 592l-111 -792h-125l111 792h-163l-111 -792h-124l70 500q-112 0 -156 47.5t-29.5 152.5t80.5 152.5t197 47.5h470l-15 -108h-94z" />
    <glyph glyph-name="periodcentered" unicode="&#xb7;" horiz-adv-x="232" 
d="M163.5 338q44.5 0 62.5 -19.5t12 -62.5t-29.5 -62.5t-68.5 -19.5t-62.5 19.5t-11.5 62.5t29.5 62.5t68 19.5z" />
    <glyph glyph-name="cedilla" unicode="&#xb8;" horiz-adv-x="266" 
d="M89 32h78l-32 -82l10 -2.5t21 -8.5t26.5 -16t19 -26t4.5 -37q-7 -52 -65.5 -81t-155.5 -29l8 60q97 0 104 50q3 19 -19 28.5t-54 9.5z" />
    <glyph glyph-name="guillemotright" unicode="&#xbb;" horiz-adv-x="533" 
d="M93 450h141l103 -190l-158 -200h-141l150 200zM295 450h142l103 -190l-158 -200h-142l151 200z" />
    <glyph glyph-name="questiondown" unicode="&#xbf;" horiz-adv-x="552" 
d="M387 250q-7 -48 -24 -83.5t-38 -54t-44.5 -35t-43.5 -27.5t-35 -31.5t-19 -48.5q-4 -29 3.5 -47t27.5 -26.5t54 -8.5q52 0 79 29t36 93h140q-17 -121 -82.5 -175.5t-195.5 -54.5q-129 0 -181 45t-38 145q6 42 25 73t43 47t52 32t52 29.5t42 39t23 59.5h124zM338 343
q-45 0 -62.5 20t-11.5 63t29 62.5t68 19.5q31 0 48.5 -8.5t24 -26.5t2.5 -47q-6 -44 -29 -63.5t-69 -19.5z" />
    <glyph glyph-name="Agrave" unicode="&#xc0;" horiz-adv-x="692" 
d="M510 0l-22 144h-249l-64 -144h-165l327 700h230l115 -700h-172zM426 564l-139 -312h185zM528 750h-109l-110 120h134z" />
    <glyph glyph-name="Aacute" unicode="&#xc1;" horiz-adv-x="692" 
d="M510 0l-22 144h-249l-64 -144h-165l327 700h230l115 -700h-172zM426 564l-139 -312h185zM388 750l112 120h142l-136 -120h-118z" />
    <glyph glyph-name="Acircumflex" unicode="&#xc2;" horiz-adv-x="692" 
d="M510 0l-22 144h-249l-64 -144h-165l327 700h230l115 -700h-172zM426 564l-139 -312h185zM618 750h-101l-50 60l-68 -60h-101l103 120h148z" />
    <glyph glyph-name="Atilde" unicode="&#xc3;" horiz-adv-x="692" 
d="M510 0l-22 144h-249l-64 -144h-165l327 700h230l115 -700h-172zM426 564l-139 -312h185zM294 760q7 51 40 79.5t77 28.5q29 0 51.5 -8t33 -17t24.5 -17t28 -8q11 0 20 9t10 23h60q-7 -51 -40 -79.5t-77 -28.5q-29 0 -51 8t-33 17t-24.5 17t-28.5 8q-10 0 -19 -9t-11 -23
h-60z" />
    <glyph glyph-name="Adieresis" unicode="&#xc4;" horiz-adv-x="692" 
d="M510 0l-22 144h-249l-64 -144h-165l327 700h230l115 -700h-172zM426 564l-139 -312h185zM358 876q45 0 63 -16.5t13 -53.5t-28 -53.5t-68 -16.5t-63 16.5t-13 53.5t28 53.5t68 16.5zM594 876q45 0 63.5 -16.5t13.5 -53.5t-28 -53.5t-69 -16.5q-45 0 -63 16.5t-13 53.5
t28 53.5t68 16.5z" />
    <glyph glyph-name="Aring" unicode="&#xc5;" horiz-adv-x="692" 
d="M510 0l-22 144h-249l-64 -144h-165l327 700h230l115 -700h-172zM426 564l-139 -312h185zM485 940q65 0 91 -25t18 -81t-41 -81t-98 -25t-91 25t-18 81q5 37 21.5 60.5t45 34.5t72.5 11zM464 788q26 0 38.5 11t15.5 35q4 25 -6 35.5t-35.5 10.5t-38 -10.5t-16.5 -35.5
q-3 -24 6.5 -35t35.5 -11z" />
    <glyph glyph-name="AE" unicode="&#xc6;" horiz-adv-x="942" 
d="M994 584h-305l-23 -164h265l-16 -116h-265l-27 -188h305l-16 -116h-454l20 144h-214l-89 -144h-165l448 700h552zM540 587l-208 -335h161z" />
    <glyph glyph-name="Ccedilla" unicode="&#xc7;" horiz-adv-x="766" 
d="M347 -19q-160 10 -221.5 98.5t-36.5 270.5q27 194 124 282t284 88q153 0 222.5 -61t71.5 -195h-164q-5 70 -39.5 100.5t-107.5 30.5q-96 0 -148 -58t-70 -187t17.5 -187t131.5 -58q70 0 113 30.5t71 100.5h164q-32 -85 -77.5 -139.5t-108.5 -83t-148 -32.5l-12 -31
l10 -2.5t21 -8.5t26.5 -16t19 -26t4.5 -37q-7 -52 -65.5 -81t-155.5 -29l8 60q98 0 105 50q3 19 -19.5 28.5t-54.5 9.5z" />
    <glyph glyph-name="Egrave" unicode="&#xc8;" horiz-adv-x="614" 
d="M666 584h-339l-23 -164h299l-16 -116h-299l-27 -188h339l-16 -116h-504l98 700h504zM507 750h-110l-109 120h134z" />
    <glyph glyph-name="Eacute" unicode="&#xc9;" horiz-adv-x="614" 
d="M666 584h-339l-23 -164h299l-16 -116h-299l-27 -188h339l-16 -116h-504l98 700h504zM367 750l111 120h142l-135 -120h-118z" />
    <glyph glyph-name="Ecircumflex" unicode="&#xca;" horiz-adv-x="614" 
d="M666 584h-339l-23 -164h299l-16 -116h-299l-27 -188h339l-16 -116h-504l98 700h504zM597 750h-101l-50 60l-68 -60h-101l103 120h148z" />
    <glyph glyph-name="Edieresis" unicode="&#xcb;" horiz-adv-x="614" 
d="M666 584h-339l-23 -164h299l-16 -116h-299l-27 -188h339l-16 -116h-504l98 700h504zM337 876q45 0 63 -16.5t13 -53.5t-28 -53.5t-69 -16.5q-44 0 -62 16.5t-13 53.5t28 53.5t68 16.5zM573 876q45 0 63.5 -16.5t13.5 -53.5t-28 -53.5t-68.5 -16.5t-63.5 16.5t-13 53.5
t28 53.5t68 16.5z" />
    <glyph glyph-name="Igrave" unicode="&#xcc;" horiz-adv-x="329" 
d="M182 700h165l-98 -700h-165zM341 750h-109l-110 120h134z" />
    <glyph glyph-name="Iacute" unicode="&#xcd;" horiz-adv-x="329" 
d="M178 700h165l-98 -700h-165zM197 750l112 120h142l-136 -120h-118z" />
    <glyph glyph-name="Icircumflex" unicode="&#xce;" horiz-adv-x="320" 
d="M176 700h165l-98 -700h-165zM425 750h-101l-50 60l-67 -60h-102l103 120h149z" />
    <glyph glyph-name="Idieresis" unicode="&#xcf;" horiz-adv-x="325" 
d="M178 700h165l-98 -700h-165zM169 874q45 0 63 -16.5t13 -53.5t-28 -53.5t-68 -16.5t-63 16.5t-13 53.5t27.5 53.5t68.5 16.5zM401 874q46 0 64 -16.5t13 -53.5t-28 -53.5t-69 -16.5q-45 0 -63 16.5t-13 53.5t28 53.5t68 16.5z" />
    <glyph glyph-name="Ntilde" unicode="&#xd1;" horiz-adv-x="772" 
d="M634 700h156l-98 -700h-190l-195 495l-70 -495h-157l98 700h191l196 -495zM327 760q5 34 22 59t42 37t53 12q29 0 51.5 -8t33 -17t24.5 -17t28 -8q11 0 19.5 9t10.5 23h60q-7 -51 -40 -79.5t-77 -28.5q-29 0 -51 8t-33 17t-24.5 17t-28.5 8q-10 0 -19 -9t-11 -23h-60z
" />
    <glyph glyph-name="Ograve" unicode="&#xd2;" horiz-adv-x="796" 
d="M499 720q188 0 261 -88t45.5 -282t-125 -282t-285.5 -88t-260.5 88t-45.5 282q19 130 67.5 211.5t132.5 120t210 38.5zM481.5 595q-97.5 0 -149.5 -58t-70 -187t17.5 -187t133 -58t150 58t70.5 187t-18 187t-133.5 58zM573 750h-110l-109 120h134z" />
    <glyph glyph-name="Oacute" unicode="&#xd3;" horiz-adv-x="796" 
d="M499 720q188 0 261 -88t45.5 -282t-125 -282t-285.5 -88t-260.5 88t-45.5 282q19 130 67.5 211.5t132.5 120t210 38.5zM481.5 595q-97.5 0 -149.5 -58t-70 -187t17.5 -187t133 -58t150 58t70.5 187t-18 187t-133.5 58zM433 750l111 120h142l-135 -120h-118z" />
    <glyph glyph-name="Ocircumflex" unicode="&#xd4;" horiz-adv-x="796" 
d="M499 720q188 0 261 -88t45.5 -282t-125 -282t-285.5 -88t-260.5 88t-45.5 282q19 130 67.5 211.5t132.5 120t210 38.5zM481.5 595q-97.5 0 -149.5 -58t-70 -187t17.5 -187t133 -58t150 58t70.5 187t-18 187t-133.5 58zM663 750h-101l-50 60l-68 -60h-101l103 120h148z
" />
    <glyph glyph-name="Otilde" unicode="&#xd5;" horiz-adv-x="796" 
d="M499 720q188 0 261 -88t45.5 -282t-125 -282t-285.5 -88t-260.5 88t-45.5 282q19 130 67.5 211.5t132.5 120t210 38.5zM481.5 595q-97.5 0 -149.5 -58t-70 -187t17.5 -187t133 -58t150 58t70.5 187t-18 187t-133.5 58zM339 760q5 34 22 59t42 37t53 12q29 0 51.5 -8
t33 -17t24.5 -17t28 -8q11 0 20 9t10 23h60q-7 -51 -40 -79.5t-77 -28.5q-29 0 -51 8t-33 17t-24.5 17t-28.5 8q-5 0 -10 -2.5t-9 -6.5t-7 -10t-4 -13h-60z" />
    <glyph glyph-name="Odieresis" unicode="&#xd6;" horiz-adv-x="796" 
d="M499 720q188 0 261 -88t45.5 -282t-125 -282t-285.5 -88t-260.5 88t-45.5 282q19 130 67.5 211.5t132.5 120t210 38.5zM481.5 595q-97.5 0 -149.5 -58t-70 -187t17.5 -187t133 -58t150 58t70.5 187t-18 187t-133.5 58zM403 874q45 0 63 -16.5t13 -53.5t-28 -53.5
t-68 -16.5t-63 16.5t-13 53.5t27.5 53.5t68.5 16.5zM639 874q45 0 63.5 -16.5t13.5 -53.5t-28 -53.5t-69 -16.5q-45 0 -63 16.5t-13 53.5t28 53.5t68 16.5z" />
    <glyph glyph-name="multiply" unicode="&#xd7;" horiz-adv-x="542" 
d="M180 491l137 -158l181 159l71 -84l-180 -158l136 -158l-95 -84l-136 159l-180 -158l-71 84l180 158l-136 158z" />
    <glyph glyph-name="Oslash" unicode="&#xd8;" horiz-adv-x="795" 
d="M582 714l32 64h98l-42 -86q89 -34 121.5 -118t12.5 -225q-27 -194 -124.5 -282t-285.5 -88q-38 0 -71 3l-30 -63h-100l40 82q-95 33 -129.5 117.5t-14.5 230.5q18 130 67 211.5t133 120t210 38.5q41 0 83 -5zM523 591q-19 3 -40 3q-97 0 -149 -58t-70 -187
q-22 -157 37 -211zM385 106q9 -1 29 -1q97 0 149.5 58t70.5 187q21 147 -30 203z" />
    <glyph glyph-name="Ugrave" unicode="&#xd9;" horiz-adv-x="736" 
d="M106 258l62 442h165l-62 -442q-11 -81 15 -117t96.5 -36t107.5 36t48 117l62 442h164l-62 -442q-20 -146 -100 -212t-237 -66t-218 66t-41 212zM543 750h-110l-109 120h134z" />
    <glyph glyph-name="Uacute" unicode="&#xda;" horiz-adv-x="736" 
d="M106 258l62 442h165l-62 -442q-11 -81 15 -117t96.5 -36t107.5 36t48 117l62 442h164l-62 -442q-20 -146 -100 -212t-237 -66t-218 66t-41 212zM403 750l111 120h142l-135 -120h-118z" />
    <glyph glyph-name="Ucircumflex" unicode="&#xdb;" horiz-adv-x="736" 
d="M106 258l62 442h165l-62 -442q-11 -81 15 -117t96.5 -36t107.5 36t48 117l62 442h164l-62 -442q-20 -146 -100 -212t-237 -66t-218 66t-41 212zM633 750h-101l-50 60l-68 -60h-101l103 120h148z" />
    <glyph glyph-name="Udieresis" unicode="&#xdc;" horiz-adv-x="736" 
d="M106 258l62 442h165l-62 -442q-11 -81 15 -117t96.5 -36t107.5 36t48 117l62 442h164l-62 -442q-20 -146 -100 -212t-237 -66t-218 66t-41 212zM373 874q45 0 63 -16.5t13 -53.5t-28 -53.5t-68 -16.5t-63 16.5t-13 53.5t27.5 53.5t68.5 16.5zM609 874q45 0 63.5 -16.5
t13.5 -53.5t-28 -53.5t-69 -16.5q-45 0 -63 16.5t-13 53.5t28 53.5t68 16.5z" />
    <glyph glyph-name="Yacute" unicode="&#xdd;" horiz-adv-x="664" 
d="M452 268l-38 -268h-156l38 268l-188 432h181l106 -279l184 279h173zM373 750l112 120h142l-136 -120h-118z" />
    <glyph glyph-name="germandbls" unicode="&#xdf;" horiz-adv-x="665" 
d="M435 720q45 0 80 -4t68 -16.5t53 -33t29.5 -55t2.5 -81.5q-3 -27 -12.5 -48.5t-26 -38t-38 -28.5t-51.5 -22q48 -14 75 -37.5t37 -59.5t2 -88q-15 -109 -72.5 -158.5t-167.5 -49.5q-16 0 -32.5 2t-29 5t-23 6t-15.5 5l-5 2l14 100q34 -12 66 -12q53 0 81 26t36 82
q9 59 -23.5 88.5t-109.5 29.5l14 102q69 0 101.5 19.5t38.5 64.5q7 48 -16.5 70t-82.5 22q-44 0 -74 -15t-46 -43t-22 -70l-68 -484h-148l66 472q18 128 93 188t206 60z" />
    <glyph glyph-name="agrave" unicode="&#xe0;" horiz-adv-x="556" 
d="M379 42q-54 -52 -162 -52q-99 0 -138.5 37.5t-27.5 120.5q12 89 75 129.5t191 40.5h86l3 22q6 45 -11 65.5t-61 20.5t-66.5 -18t-27.5 -58h-141q12 84 71.5 122t179.5 38q119 0 167 -44.5t35 -141.5l-46 -324h-116zM391 234h-65q-26 0 -43.5 -2.5t-37 -9.5t-30.5 -23.5
t-15 -42.5q-5 -36 11.5 -51t59.5 -15q29 0 50.5 8.5t34.5 25t20 37t11 48.5zM350 700l75 -150h-117l-108 150h150z" />
    <glyph glyph-name="aacute" unicode="&#xe1;" horiz-adv-x="556" 
d="M379 42q-54 -52 -162 -52q-99 0 -138.5 37.5t-27.5 120.5q12 89 75 129.5t191 40.5h86l3 22q6 45 -11 65.5t-61 20.5t-66.5 -18t-27.5 -58h-141q12 84 71.5 122t179.5 38q119 0 167 -44.5t35 -141.5l-46 -324h-116zM391 234h-65q-26 0 -43.5 -2.5t-37 -9.5t-30.5 -23.5
t-15 -42.5q-5 -36 11.5 -51t59.5 -15q29 0 50.5 8.5t34.5 25t20 37t11 48.5zM395 700h149l-149 -150h-118z" />
    <glyph glyph-name="acircumflex" unicode="&#xe2;" horiz-adv-x="556" 
d="M379 42q-54 -52 -162 -52q-99 0 -138.5 37.5t-27.5 120.5q12 89 75 129.5t191 40.5h86l3 22q6 45 -11 65.5t-61 20.5t-66.5 -18t-27.5 -58h-141q12 84 71.5 122t179.5 38q119 0 167 -44.5t35 -141.5l-46 -324h-116zM391 234h-65q-26 0 -43.5 -2.5t-37 -9.5t-30.5 -23.5
t-15 -42.5q-5 -36 11.5 -51t59.5 -15q29 0 50.5 8.5t34.5 25t20 37t11 48.5zM450 700l63 -150h-93l-53 82l-77 -82h-93l105 150h148z" />
    <glyph glyph-name="atilde" unicode="&#xe3;" horiz-adv-x="556" 
d="M379 42q-54 -52 -162 -52q-99 0 -138.5 37.5t-27.5 120.5q12 89 75 129.5t191 40.5h86l3 22q6 45 -11 65.5t-61 20.5t-66.5 -18t-27.5 -58h-141q12 84 71.5 122t179.5 38q119 0 167 -44.5t35 -141.5l-46 -324h-116zM391 234h-65q-26 0 -43.5 -2.5t-37 -9.5t-30.5 -23.5
t-15 -42.5q-5 -36 11.5 -51t59.5 -15q29 0 50.5 8.5t34.5 25t20 37t11 48.5zM193 578q8 52 43 89t77 37q24 0 42.5 -8t29 -19.5t19 -22.5t17 -19.5t17.5 -8.5q11 0 20 11.5t12 30.5h68q-7 -52 -42.5 -89t-77.5 -37q-24 0 -42 8t-28.5 19.5t-19 23t-17 19.5t-18.5 8
q-11 0 -20 -11.5t-12 -30.5h-68z" />
    <glyph glyph-name="adieresis" unicode="&#xe4;" horiz-adv-x="556" 
d="M379 42q-54 -52 -162 -52q-99 0 -138.5 37.5t-27.5 120.5q12 89 75 129.5t191 40.5h86l3 22q6 45 -11 65.5t-61 20.5t-66.5 -18t-27.5 -58h-141q12 84 71.5 122t179.5 38q119 0 167 -44.5t35 -141.5l-46 -324h-116zM391 234h-65q-26 0 -43.5 -2.5t-37 -9.5t-30.5 -23.5
t-15 -42.5q-5 -36 11.5 -51t59.5 -15q29 0 50.5 8.5t34.5 25t20 37t11 48.5zM270 728q45 0 63 -19.5t12 -62.5t-29.5 -62.5t-68.5 -19.5t-62.5 19t-11.5 63t29 63t68 19zM490 728q31 0 49 -8.5t24.5 -26.5t2.5 -47t-16 -47t-32.5 -26.5t-50.5 -8.5q-45 0 -62.5 19.5
t-11.5 62.5t29 62.5t68 19.5z" />
    <glyph glyph-name="aring" unicode="&#xe5;" horiz-adv-x="556" 
d="M379 42q-54 -52 -162 -52q-99 0 -138.5 37.5t-27.5 120.5q12 89 75 129.5t191 40.5h86l3 22q6 45 -11 65.5t-61 20.5t-66.5 -18t-27.5 -58h-141q12 84 71.5 122t179.5 38q119 0 167 -44.5t35 -141.5l-46 -324h-116zM391 234h-65q-26 0 -43.5 -2.5t-37 -9.5t-30.5 -23.5
t-15 -42.5q-5 -36 11.5 -51t59.5 -15q29 0 50.5 8.5t34.5 25t20 37t11 48.5zM382 740q65 0 91 -25t18 -81t-41 -81t-98 -25q-44 0 -69.5 11t-35 34.5t-4.5 60.5t21.5 60.5t45 34.5t72.5 11zM361 588q26 0 38.5 11t15.5 35q4 25 -6 35.5t-35.5 10.5t-38 -10.5t-16.5 -35.5
q-2 -12 -0.5 -20.5t7 -14.5t14 -8.5t21.5 -2.5z" />
    <glyph glyph-name="ae" unicode="&#xe6;" horiz-adv-x="924" 
d="M535 202q-1 -21 1 -38t6.5 -30t12 -23t18.5 -16.5t24.5 -9.5t31.5 -3q41 0 66.5 17.5t40.5 56.5h141q-29 -87 -91 -126.5t-170 -39.5q-77 0 -121.5 27t-59.5 84q-27 -57 -80.5 -84t-137.5 -27q-99 0 -138.5 37.5t-27.5 120.5q12 85 69 125.5t172 44.5h111l3 22
q6 41 -12.5 59.5t-64.5 18.5q-43 0 -64 -16t-25 -52h-141q12 84 71.5 122t179.5 38q124 0 158 -67q61 67 180 67q68 0 114 -15t73.5 -47.5t35 -82.5t-1.5 -119l-7 -44h-367zM391 234h-70q-58 0 -86.5 -18.5t-34.5 -59.5q-5 -35 13.5 -50.5t64.5 -15.5q48 0 74 25t34 81z
M676 418q-53 0 -84 -31.5t-46 -100.5h220q11 70 -10.5 101t-79.5 31z" />
    <glyph glyph-name="ccedilla" unicode="&#xe7;" 
d="M252 -8q-116 9 -160.5 70.5t-26.5 187.5q19 137 91.5 198.5t213.5 61.5q119 0 171 -46t49 -148h-148q-1 30 -10.5 49t-28.5 28t-49 9q-62 0 -96 -36t-45 -116t12.5 -116t86.5 -36q43 0 70 20.5t42 65.5h148q-24 -95 -82 -141t-161 -52l-16 -41l10 -2.5t21 -8.5t26.5 -16
t19 -26t4.5 -37q-7 -52 -65.5 -81t-155.5 -29l8 60q98 0 105 50q3 19 -19.5 28.5t-54.5 9.5z" />
    <glyph glyph-name="egrave" unicode="&#xe8;" 
d="M207 202q-2 -62 20 -91t73 -29q42 0 67.5 17.5t40.5 56.5h140q-29 -87 -91 -126.5t-170 -39.5q-136 0 -188.5 61.5t-33.5 198.5t89 198.5t206 61.5q68 0 114 -15t73.5 -47.5t35 -82.5t-1.5 -119l-7 -44h-367zM348 418q-53 0 -84 -31.5t-46 -100.5h221q10 70 -11.5 101
t-79.5 31zM436 550h-117l-108 150h150z" />
    <glyph glyph-name="eacute" unicode="&#xe9;" 
d="M207 202q-2 -62 20 -91t73 -29q42 0 67.5 17.5t40.5 56.5h140q-29 -87 -91 -126.5t-170 -39.5q-136 0 -188.5 61.5t-33.5 198.5t89 198.5t206 61.5q68 0 114 -15t73.5 -47.5t35 -82.5t-1.5 -119l-7 -44h-367zM348 418q-53 0 -84 -31.5t-46 -100.5h221q10 70 -11.5 101
t-79.5 31zM296 550l118 150h149l-149 -150h-118z" />
    <glyph glyph-name="ecircumflex" unicode="&#xea;" 
d="M207 202q-2 -62 20 -91t73 -29q42 0 67.5 17.5t40.5 56.5h140q-29 -87 -91 -126.5t-170 -39.5q-136 0 -188.5 61.5t-33.5 198.5t89 198.5t206 61.5q68 0 114 -15t73.5 -47.5t35 -82.5t-1.5 -119l-7 -44h-367zM348 418q-53 0 -84 -31.5t-46 -100.5h221q10 70 -11.5 101
t-79.5 31zM524 550h-93l-53 82l-77 -82h-93l105 150h148z" />
    <glyph glyph-name="edieresis" unicode="&#xeb;" 
d="M207 202q-2 -62 20 -91t73 -29q42 0 67.5 17.5t40.5 56.5h140q-29 -87 -91 -126.5t-170 -39.5q-136 0 -188.5 61.5t-33.5 198.5t89 198.5t206 61.5q68 0 114 -15t73.5 -47.5t35 -82.5t-1.5 -119l-7 -44h-367zM348 418q-53 0 -84 -31.5t-46 -100.5h221q10 70 -11.5 101
t-79.5 31zM281 728q45 0 63 -19.5t12 -62.5t-29.5 -62.5t-68.5 -19.5t-62.5 19t-11.5 63t29 63t68 19zM501 728q31 0 49 -8.5t24.5 -26.5t2.5 -47t-16 -47t-32.5 -26.5t-50.5 -8.5q-45 0 -62.5 19.5t-11.5 62.5q4 29 15.5 47t31.5 26.5t50 8.5z" />
    <glyph glyph-name="igrave" unicode="&#xec;" horiz-adv-x="250" 
d="M200 0h-148l70 500h148zM273 550h-117l-108 150h150z" />
    <glyph glyph-name="iacute" unicode="&#xed;" horiz-adv-x="257" 
d="M202 0h-148l70 500h148zM127 550l118 150h150l-150 -150h-118z" />
    <glyph glyph-name="icircumflex" unicode="&#xee;" horiz-adv-x="256" 
d="M202 0h-148l70 500h148zM363 550h-93l-53 82l-77 -82h-93l105 150h148z" />
    <glyph glyph-name="idieresis" unicode="&#xef;" horiz-adv-x="249" 
d="M198 0h-148l70 500h148zM118 723q45 0 62.5 -20t11.5 -63t-29.5 -62.5t-68.5 -19.5q-30 0 -48 8.5t-24 26.5t-2 47q6 44 29 63.5t69 19.5zM334 723q45 0 63 -19.5t12 -63.5q-6 -43 -29.5 -62.5t-69.5 -19.5q-30 0 -47.5 8.5t-24 26.5t-2.5 47q6 43 29.5 63t68.5 20z" />
    <glyph glyph-name="ntilde" unicode="&#xf1;" horiz-adv-x="586" 
d="M246 500l-1 -1l13 -39q55 50 154 50q102 0 141 -57t21 -183l-38 -270h-148l38 270q10 70 -6.5 101t-63.5 31q-48 0 -74 -28.5t-34 -91.5l-40 -282h-148l70 500h116zM212 578q8 52 43 89t77 37q29 0 50.5 -12t31 -26.5t21 -27t22.5 -12.5t20 11.5t12 30.5h68
q-7 -52 -42.5 -89t-77.5 -37q-24 0 -42 8t-28.5 19.5t-19 23t-17 19.5t-18.5 8q-11 0 -20 -11.5t-12 -30.5h-68z" />
    <glyph glyph-name="ograve" unicode="&#xf2;" horiz-adv-x="596" 
d="M370 510q141 0 195.5 -61.5t35.5 -198.5t-91 -198.5t-213 -61.5t-196 61.5t-36 198.5t91.5 198.5t213.5 61.5zM213 250q-7 -54 0.5 -87t31.5 -49t67 -16q63 0 96.5 36t44.5 116t-12 116t-87 36q-31 0 -55 -8.5t-41 -27.5t-28 -47.5t-17 -68.5zM445 550h-117l-108 150h150
z" />
    <glyph glyph-name="oacute" unicode="&#xf3;" horiz-adv-x="596" 
d="M370 510q141 0 195.5 -61.5t35.5 -198.5t-91 -198.5t-213 -61.5t-196 61.5t-36 198.5t91.5 198.5t213.5 61.5zM213 250q-7 -54 0.5 -87t31.5 -49t67 -16q63 0 96.5 36t44.5 116t-12 116t-87 36q-31 0 -55 -8.5t-41 -27.5t-28 -47.5t-17 -68.5zM305 550l118 150h149
l-149 -150h-118z" />
    <glyph glyph-name="ocircumflex" unicode="&#xf4;" horiz-adv-x="596" 
d="M370 510q141 0 195.5 -61.5t35.5 -198.5t-91 -198.5t-213 -61.5t-196 61.5t-36 198.5t91.5 198.5t213.5 61.5zM213 250q-7 -54 0.5 -87t31.5 -49t67 -16q63 0 96.5 36t44.5 116t-12 116t-87 36q-31 0 -55 -8.5t-41 -27.5t-28 -47.5t-17 -68.5zM533 550h-93l-53 82
l-77 -82h-93l105 150h148z" />
    <glyph glyph-name="otilde" unicode="&#xf5;" horiz-adv-x="596" 
d="M370 510q141 0 195.5 -61.5t35.5 -198.5t-91 -198.5t-213 -61.5t-196 61.5t-36 198.5t91.5 198.5t213.5 61.5zM213 250q-7 -54 0.5 -87t31.5 -49t67 -16q63 0 96.5 36t44.5 116t-12 116t-87 36q-31 0 -55 -8.5t-41 -27.5t-28 -47.5t-17 -68.5zM213 578q8 52 43 89t77 37
q24 0 42.5 -8t29 -19.5t19 -22.5t17 -19.5t17.5 -8.5q11 0 20 11.5t12 30.5h68q-7 -52 -42.5 -89t-77.5 -37q-24 0 -42 8t-28.5 19.5t-19 23t-17 19.5t-18.5 8q-11 0 -20 -11.5t-12 -30.5h-68z" />
    <glyph glyph-name="odieresis" unicode="&#xf6;" horiz-adv-x="596" 
d="M370 510q141 0 195.5 -61.5t35.5 -198.5t-91 -198.5t-213 -61.5t-196 61.5t-36 198.5t91.5 198.5t213.5 61.5zM213 250q-7 -54 0.5 -87t31.5 -49t67 -16q63 0 96.5 36t44.5 116t-12 116t-87 36q-31 0 -55 -8.5t-41 -27.5t-28 -47.5t-17 -68.5zM290 728q45 0 63 -19.5
t12 -62.5t-29.5 -62.5t-68.5 -19.5t-62.5 19t-11.5 63q3 22 10 37.5t19 25.5t28.5 14.5t39.5 4.5zM510 728q31 0 49 -8.5t24.5 -26.5t2.5 -47t-16 -47t-32.5 -26.5t-50.5 -8.5q-45 0 -62.5 19.5t-11.5 62.5q4 29 15.5 47t31.5 26.5t50 8.5z" />
    <glyph glyph-name="divide" unicode="&#xf7;" horiz-adv-x="580" 
d="M219.5 68q4.5 34 29.5 55t61 21t55 -21t14.5 -55t-29.5 -55t-61 -21t-55 21t-14.5 55zM580 210h-520l15 108h520zM274.5 460q4.5 34 30 55t61.5 21t55 -21t14.5 -55t-29.5 -55t-61 -21q-37 0 -56 21t-14.5 55z" />
    <glyph glyph-name="oslash" unicode="&#xf8;" horiz-adv-x="595" 
d="M370 510q28 0 53 -3l30 62h68l-36 -74q74 -22 102 -82t13 -164q-19 -137 -91.5 -198.5t-213.5 -61.5q-28 0 -53 3l-30 -62h-68l37 74q-75 22 -102.5 82t-13.5 164q19 137 91.5 198.5t213.5 61.5zM213 250q-13 -97 24 -130l135 281q-5 1 -18 1q-31 0 -55 -8.5t-41 -27.5
t-28 -47.5t-17 -68.5zM429 379l-135 -280q6 -1 18 -1q63 0 96.5 36t44.5 116q14 96 -24 129z" />
    <glyph glyph-name="ugrave" unicode="&#xf9;" horiz-adv-x="586" 
d="M410 0l1 1l-12 39q-56 -50 -154 -50q-103 0 -141.5 57t-21.5 183l38 270h148l-38 -270q-9 -70 7 -101t63 -31q31 0 52.5 12.5t36 39t20.5 68.5l40 282h147l-70 -500h-116zM379 700l75 -150h-117l-108 150h150z" />
    <glyph glyph-name="uacute" unicode="&#xfa;" horiz-adv-x="586" 
d="M410 0l1 1l-12 39q-56 -50 -154 -50q-103 0 -141.5 57t-21.5 183l38 270h148l-38 -270q-9 -70 7 -101t63 -31q31 0 52.5 12.5t36 39t20.5 68.5l40 282h147l-70 -500h-116zM392 700h149l-149 -150h-118z" />
    <glyph glyph-name="ucircumflex" unicode="&#xfb;" horiz-adv-x="586" 
d="M410 0l1 1l-12 39q-56 -50 -154 -50q-103 0 -141.5 57t-21.5 183l38 270h148l-38 -270q-9 -70 7 -101t63 -31q31 0 52.5 12.5t36 39t20.5 68.5l40 282h147l-70 -500h-116zM459 700l63 -150h-93l-53 82l-77 -82h-93l105 150h148z" />
    <glyph glyph-name="udieresis" unicode="&#xfc;" horiz-adv-x="586" 
d="M410 0l1 1l-12 39q-56 -50 -154 -50q-103 0 -141.5 57t-21.5 183l38 270h148l-38 -270q-9 -70 7 -101t63 -31q31 0 52.5 12.5t36 39t20.5 68.5l40 282h147l-70 -500h-116zM273 728q45 0 63 -19.5t12 -62.5q-4 -29 -15.5 -47t-32 -26.5t-50.5 -8.5q-45 0 -62.5 19
t-11.5 63t29 63t68 19zM493 728q31 0 49 -8.5t24.5 -26.5t2.5 -47t-16 -47t-32.5 -26.5t-50.5 -8.5q-45 0 -62.5 19.5t-11.5 62.5t29 62.5t68 19.5z" />
    <glyph glyph-name="yacute" unicode="&#xfd;" horiz-adv-x="536" 
d="M222 2h-1l6 11l-148 487h141l87 -316l148 316h140l-235 -482q-53 -104 -109.5 -151t-128.5 -47h-72l13 92h64q27 0 50 21.5t45 68.5zM291 550l118 150h149l-149 -150h-118z" />
    <glyph glyph-name="ydieresis" unicode="&#xff;" horiz-adv-x="536" 
d="M222 2h-1l6 11l-148 487h141l87 -316l148 316h140l-235 -482q-53 -104 -109.5 -151t-128.5 -47h-72l13 92h64q27 0 50 21.5t45 68.5zM268 728q45 0 63 -19.5t12 -62.5t-29.5 -62.5t-68.5 -19.5t-62.5 19t-11.5 62.5t29 63t68 19.5zM488 728q31 0 49 -8.5t24.5 -26.5
t2.5 -47q-6 -43 -29.5 -62.5t-69.5 -19.5q-45 0 -62.5 19.5t-11.5 62.5t29 62.5t68 19.5z" />
    <glyph glyph-name="Amacron" unicode="&#x100;" horiz-adv-x="692" 
d="M510 0l-22 144h-249l-64 -144h-165l327 700h230l115 -700h-172zM426 564l-139 -312h185zM301 840h340l-12 -84h-340z" />
    <glyph glyph-name="amacron" unicode="&#x101;" horiz-adv-x="556" 
d="M379 42q-54 -52 -162 -52q-99 0 -138.5 37.5t-27.5 120.5q12 89 75 129.5t191 40.5h86l3 22q6 45 -11 65.5t-61 20.5t-66.5 -18t-27.5 -58h-141q12 84 71.5 122t179.5 38q119 0 167 -44.5t35 -141.5l-46 -324h-116zM391 234h-65q-26 0 -43.5 -2.5t-37 -9.5t-30.5 -23.5
t-15 -42.5q-5 -36 11.5 -51t59.5 -15q29 0 50.5 8.5t34.5 25t20 37t11 48.5zM190 582l12 84h340l-12 -84h-340z" />
    <glyph glyph-name="Abreve" unicode="&#x102;" horiz-adv-x="692" 
d="M510 0l-22 144h-249l-64 -144h-165l327 700h230l115 -700h-172zM426 564l-139 -312h185zM641 870q-9 -63 -52.5 -91.5t-130.5 -28.5t-122.5 28.5t-26.5 91.5h108q-3 -26 7.5 -38.5t38.5 -13.5h5q21 0 34 5.5t21 16.5t10 30h108z" />
    <glyph glyph-name="abreve" unicode="&#x103;" horiz-adv-x="556" 
d="M379 42q-54 -52 -162 -52q-99 0 -138.5 37.5t-27.5 120.5q12 89 75 129.5t191 40.5h86l3 22q6 45 -11 65.5t-61 20.5t-66.5 -18t-27.5 -58h-141q12 84 71.5 122t179.5 38q119 0 167 -44.5t35 -141.5l-46 -324h-116zM391 234h-65q-26 0 -43.5 -2.5t-37 -9.5t-30.5 -23.5
t-15 -42.5q-5 -36 11.5 -51t59.5 -15q29 0 50.5 8.5t34.5 25t20 37t11 48.5zM442 700h100q-11 -79 -55.5 -114.5t-131.5 -35.5t-121.5 35.5t-23.5 114.5h100q-5 -39 8 -56.5t48 -17.5t53 17.5t23 56.5z" />
    <glyph glyph-name="Aogonek" unicode="&#x104;" horiz-adv-x="692" 
d="M682 0h-38q-53 -42 -63 -85q-5 -39 34 -40q11 0 23 3t19 7l6 3l-16 -118q-33 -20 -73 -20q-36 0 -59.5 17t-30 45t-1 60.5t27.5 67t57 60.5h-58l-22 144h-249l-64 -144h-165l327 700h230zM426 564l-139 -312h185z" />
    <glyph glyph-name="aogonek" unicode="&#x105;" horiz-adv-x="556" 
d="M389 2l-1 1l-10 40q-53 -52 -162 -52q-99 0 -138.5 37.5t-27.5 120.5q12 89 75 129.5t191 40.5h86l3 22q6 45 -11 65.5t-61 20.5t-66.5 -18t-27.5 -58h-141q12 84 71.5 122t179.5 38q119 0 167 -44.5t35 -141.5l-46 -324h-42q-53 -42 -62 -85q-6 -39 34 -40q6 0 13.5 1
t13.5 3t10.5 4t7.5 4l2 1l-16 -118q-33 -20 -73 -20q-36 0 -59.5 17t-30 45.5t-1 61t28.5 67t58 60.5zM391 234h-65q-26 0 -43.5 -2.5t-37 -9.5t-30.5 -23.5t-15 -42.5q-5 -36 11.5 -51t59.5 -15q29 0 50.5 8.5t34.5 25t20 37t11 48.5z" />
    <glyph glyph-name="Cacute" unicode="&#x106;" horiz-adv-x="766" 
d="M595 236h164q-50 -134 -137 -195t-229 -61q-187 0 -259 88t-45 282t124 282t284 88q153 0 222.5 -61t71.5 -195h-164q-5 70 -39.5 100.5t-107.5 30.5q-96 0 -148 -58t-70 -187t17.5 -187t131.5 -58q70 0 113 30.5t71 100.5zM433 750l111 120h142l-135 -120h-118z" />
    <glyph glyph-name="cacute" unicode="&#x107;" 
d="M424 184h148q-26 -102 -91 -148t-184 -46q-141 0 -196 61.5t-36 198.5t91.5 198.5t213.5 61.5q119 0 171.5 -46t48.5 -148h-148q-1 30 -10.5 49t-28.5 28t-48 9q-63 0 -97 -36t-45 -116t12.5 -116t86.5 -36q43 0 70 20.5t42 65.5zM305 550l118 150h149l-149 -150h-118z
" />
    <glyph glyph-name="Ccircumflex" unicode="&#x108;" horiz-adv-x="766" 
d="M595 236h164q-50 -134 -137 -195t-229 -61q-187 0 -259 88t-45 282t124 282t284 88q153 0 222.5 -61t71.5 -195h-164q-5 70 -39.5 100.5t-107.5 30.5q-96 0 -148 -58t-70 -187t17.5 -187t131.5 -58q70 0 113 30.5t71 100.5zM663 750h-101l-50 60l-68 -60h-101l103 120
h148z" />
    <glyph glyph-name="ccircumflex" unicode="&#x109;" 
d="M424 184h148q-26 -102 -91 -148t-184 -46q-141 0 -196 61.5t-36 198.5t91.5 198.5t213.5 61.5q119 0 171.5 -46t48.5 -148h-148q-1 30 -10.5 49t-28.5 28t-48 9q-63 0 -97 -36t-45 -116t12.5 -116t86.5 -36q43 0 70 20.5t42 65.5zM533 550h-93l-53 82l-77 -82h-93
l105 150h148z" />
    <glyph glyph-name="Cdotaccent" unicode="&#x10a;" horiz-adv-x="766" 
d="M595 236h164q-50 -134 -137 -195t-229 -61q-187 0 -259 88t-45 282t124 282t284 88q153 0 222.5 -61t71.5 -195h-164q-5 70 -39.5 100.5t-107.5 30.5q-96 0 -148 -58t-70 -187t17.5 -187t131.5 -58q70 0 113 30.5t71 100.5zM522 884q45 0 63.5 -16.5t13 -53.5t-28 -53.5
t-67.5 -16.5t-63.5 16.5t-13 53.5t28 53.5t67.5 16.5z" />
    <glyph glyph-name="cdotaccent" unicode="&#x10b;" 
d="M424 184h148q-26 -102 -91 -148t-184 -46q-141 0 -196 61.5t-36 198.5t91.5 198.5t213.5 61.5q119 0 171.5 -46t48.5 -148h-148q-1 30 -10.5 49t-28.5 28t-48 9q-63 0 -97 -36t-45 -116t12.5 -116t86.5 -36q43 0 70 20.5t42 65.5zM400 726q45 0 63 -18.5t12 -59.5
t-29 -59.5t-68 -18.5q-30 0 -48 8.5t-24.5 25.5t-2.5 44q6 41 29 59.5t68 18.5z" />
    <glyph glyph-name="Ccaron" unicode="&#x10c;" horiz-adv-x="766" 
d="M595 236h164q-50 -134 -137 -195t-229 -61q-187 0 -259 88t-45 282t124 282t284 88q153 0 222.5 -61t71.5 -195h-164q-5 70 -39.5 100.5t-107.5 30.5q-96 0 -148 -58t-70 -187t17.5 -187t131.5 -58q70 0 113 30.5t71 100.5zM672 870l-103 -120h-148l-69 120h101l51 -60
l67 60h101z" />
    <glyph glyph-name="ccaron" unicode="&#x10d;" 
d="M424 184h148q-26 -102 -91 -148t-184 -46q-141 0 -196 61.5t-36 198.5t91.5 198.5t213.5 61.5q119 0 171.5 -46t48.5 -148h-148q-1 30 -10.5 49t-28.5 28t-48 9q-63 0 -97 -36t-45 -116t12.5 -116t86.5 -36q43 0 70 20.5t42 65.5zM554 700l-105 -150h-148l-63 150h93
l54 -82l76 82h93z" />
    <glyph glyph-name="Dcaron" unicode="&#x10e;" horiz-adv-x="742" 
d="M751 350q-26 -184 -120 -267t-277 -83h-274l98 700h274q183 0 254 -83t45 -267zM428 584h-101l-66 -468h101q97 0 148.5 55.5t68.5 178.5t-18.5 178.5t-132.5 55.5zM618 870l-103 -120h-148l-69 120h101l51 -60l67 60h101z" />
    <glyph glyph-name="dcaron" unicode="&#x10f;" horiz-adv-x="743" 
d="M247 -10q-115 0 -158 61.5t-24 198.5q13 92 43.5 149t82.5 84t129 27q99 0 143 -45l33 235h148l-98 -700h-116l-13 47q-60 -57 -170 -57zM301.5 98q57.5 0 89 36t42.5 116t-10 116t-78.5 36t-89 -36t-42.5 -116t10 -116t78.5 -36zM750 708q37 0 46.5 -22t4.5 -62
q-9 -58 -40 -85t-91 -27l8 52q45 0 51 44q-28 0 -40 11t-9 34q3 20 12 32.5t23 17.5t34 5h1z" />
    <glyph glyph-name="Dcroat" unicode="&#x110;" horiz-adv-x="762" 
d="M771 350q-26 -184 -120 -267t-277 -83h-274l47 336h-90l14 100h90l37 264h274q183 0 254 -83t45 -267zM448 584h-101l-21 -148h149l-14 -100h-149l-31 -220h101q97 0 148.5 55.5t68.5 178.5q12 82 0 133.5t-49 76t-102 24.5z" />
    <glyph glyph-name="dcroat" unicode="&#x111;" horiz-adv-x="646" 
d="M725 630l-10 -68h-90l-79 -562h-116l-13 47q-60 -57 -170 -57q-115 0 -158 61.5t-24 198.5q13 92 43.5 149t82.5 84t129 27q99 0 143 -45l14 97h-174l10 68h174l9 70h148l-9 -70h90zM301.5 98q57.5 0 89 36t42.5 116t-10 116t-78.5 36t-89 -36t-42.5 -116t10 -116
t78.5 -36z" />
    <glyph glyph-name="Emacron" unicode="&#x112;" horiz-adv-x="614" 
d="M666 584h-339l-23 -164h299l-16 -116h-299l-27 -188h339l-16 -116h-504l98 700h504zM280 840h340l-12 -84h-340z" />
    <glyph glyph-name="emacron" unicode="&#x113;" 
d="M207 202q-2 -62 20 -91t73 -29q42 0 67.5 17.5t40.5 56.5h140q-29 -87 -91 -126.5t-170 -39.5q-136 0 -188.5 61.5t-33.5 198.5t89 198.5t206 61.5q68 0 114 -15t73.5 -47.5t35 -82.5t-1.5 -119l-7 -44h-367zM348 418q-53 0 -84 -31.5t-46 -100.5h221q10 70 -11.5 101
t-79.5 31zM213 666h340l-12 -84h-340z" />
    <glyph glyph-name="Ebreve" unicode="&#x114;" horiz-adv-x="614" 
d="M666 584h-339l-23 -164h299l-16 -116h-299l-27 -188h339l-16 -116h-504l98 700h504zM620 870q-9 -63 -52.5 -91.5t-130.5 -28.5t-122.5 28.5t-26.5 91.5h108q-3 -26 7.5 -38.5t38.5 -13.5h5q31 0 46 12t19 40h108z" />
    <glyph glyph-name="ebreve" unicode="&#x115;" 
d="M207 202q-2 -62 20 -91t73 -29q42 0 67.5 17.5t40.5 56.5h140q-29 -87 -91 -126.5t-170 -39.5q-136 0 -188.5 61.5t-33.5 198.5t89 198.5t206 61.5q68 0 114 -15t73.5 -47.5t35 -82.5t-1.5 -119l-7 -44h-367zM348 418q-53 0 -84 -31.5t-46 -100.5h221q10 70 -11.5 101
t-79.5 31zM553 700q-7 -53 -29 -86t-60.5 -48.5t-97.5 -15.5q-87 0 -121.5 35.5t-23.5 114.5h100q-5 -38 7 -55.5t44 -18.5h5q35 0 53 17.5t23 56.5h100z" />
    <glyph glyph-name="Edotaccent" unicode="&#x116;" horiz-adv-x="614" 
d="M666 584h-339l-23 -164h299l-16 -116h-299l-27 -188h339l-16 -116h-504l98 700h504zM456 884q45 0 63.5 -16.5t13 -53.5t-28 -53.5t-67.5 -16.5t-63.5 16.5t-13 53.5t28 53.5t67.5 16.5z" />
    <glyph glyph-name="edotaccent" unicode="&#x117;" 
d="M207 202q-2 -62 20 -91t73 -29q42 0 67.5 17.5t40.5 56.5h140q-29 -87 -91 -126.5t-170 -39.5q-136 0 -188.5 61.5t-33.5 198.5t89 198.5t206 61.5q68 0 114 -15t73.5 -47.5t35 -82.5t-1.5 -119l-7 -44h-367zM348 418q-53 0 -84 -31.5t-46 -100.5h221q10 70 -11.5 101
t-79.5 31zM391 726q45 0 63 -18.5t12 -59.5t-29 -59.5t-68 -18.5q-30 0 -48 8.5t-24.5 25.5t-2.5 44q6 41 29 59.5t68 18.5z" />
    <glyph glyph-name="Eogonek" unicode="&#x118;" horiz-adv-x="614" 
d="M584 0h-50q-53 -42 -62 -85q-6 -39 34 -40q11 0 22.5 3t18.5 7l7 3l-16 -118q-33 -20 -73 -20q-44 0 -69 26.5t-26 64.5t22 82t66 77h-378l98 700h504l-16 -116h-339l-23 -164h299l-16 -116h-299l-27 -188h339z" />
    <glyph glyph-name="eogonek" unicode="&#x119;" 
d="M547 155q-23 -66 -62 -104.5t-102 -52.5q-54 -42 -62 -85q-5 -38 34 -39q7 0 14.5 1t13 3t10.5 4t7 4l3 1l-16 -118q-33 -20 -73 -20q-43 0 -67.5 24.5t-26.5 60.5t17.5 79t57.5 76h-9q-135 0 -187.5 61.5t-33.5 198.5t89 198.5t206 61.5q91 0 143.5 -27.5t71.5 -85.5
t5 -151l-6 -44h-368q-2 -42 7.5 -68t30 -39t54.5 -13q43 0 68 17.5t41 56.5h140zM346 418q-53 0 -84 -31.5t-46 -100.5h221q5 35 2.5 60t-14 41t-31 23.5t-48.5 7.5z" />
    <glyph glyph-name="Ecaron" unicode="&#x11a;" horiz-adv-x="614" 
d="M666 584h-339l-23 -164h299l-16 -116h-299l-27 -188h339l-16 -116h-504l98 700h504zM606 870l-103 -120h-148l-69 120h101l51 -60l67 60h101z" />
    <glyph glyph-name="ecaron" unicode="&#x11b;" 
d="M207 202q-2 -62 20 -91t73 -29q42 0 67.5 17.5t40.5 56.5h140q-29 -87 -91 -126.5t-170 -39.5q-136 0 -188.5 61.5t-33.5 198.5t89 198.5t206 61.5q68 0 114 -15t73.5 -47.5t35 -82.5t-1.5 -119l-7 -44h-367zM348 418q-53 0 -84 -31.5t-46 -100.5h221q10 70 -11.5 101
t-79.5 31zM545 700l-105 -150h-148l-63 150h93l54 -82l76 82h93z" />
    <glyph glyph-name="Gbreve" unicode="&#x11e;" horiz-adv-x="776" 
d="M439 294l15 108h338l-7 -52q-27 -194 -119.5 -282t-270.5 -88q-188 0 -260.5 88t-45.5 282q19 130 67.5 211.5t132.5 120t210 38.5q147 0 217 -57t77 -183h-156q-6 61 -43 88t-112 27q-99 0 -150.5 -57.5t-69.5 -187.5q-18 -129 17.5 -187t133.5 -58q96 0 145 44.5
t63 144.5h-182zM686 870q-9 -63 -52.5 -91.5t-130.5 -28.5t-122.5 28.5t-26.5 91.5h108q-3 -26 7.5 -38.5t38.5 -13.5h5q31 0 46 12t19 40h108z" />
    <glyph glyph-name="gbreve" unicode="&#x11f;" horiz-adv-x="607" 
d="M248 -10q-115 0 -158.5 62t-24.5 198q13 92 43.5 149t82.5 84t129 27q111 0 156 -58l25 48h116l-63 -450q-19 -137 -89 -198.5t-206 -61.5q-111 0 -162 39.5t-52 126.5h140q3 -39 21.5 -56.5t57.5 -17.5q63 0 95.5 34t43.5 109l1 10q-57 -45 -156 -45zM302 98q39 0 65 16
t42.5 49t23.5 87q6 40 3.5 69t-13.5 47.5t-30 27t-49 8.5q-57 0 -88.5 -36t-42.5 -116t10 -116t79 -36zM558 700q-11 -79 -55.5 -114.5t-131.5 -35.5t-121.5 35.5t-23.5 114.5h100q-5 -39 8 -56.5t48 -17.5t53 17.5t23 56.5h100z" />
    <glyph glyph-name="Gdotaccent" unicode="&#x120;" horiz-adv-x="776" 
d="M439 294l15 108h338l-7 -52q-27 -194 -119.5 -282t-270.5 -88q-188 0 -260.5 88t-45.5 282q19 130 67.5 211.5t132.5 120t210 38.5q147 0 217 -57t77 -183h-156q-6 61 -43 88t-112 27q-99 0 -150.5 -57.5t-69.5 -187.5q-18 -129 17.5 -187t133.5 -58q96 0 145 44.5
t63 144.5h-182zM522 884q45 0 63.5 -16.5t13 -53.5t-28 -53.5t-67.5 -16.5t-63.5 16.5t-13 53.5t28 53.5t67.5 16.5z" />
    <glyph glyph-name="gdotaccent" unicode="&#x121;" horiz-adv-x="607" 
d="M248 -10q-115 0 -158.5 62t-24.5 198q13 92 43.5 149t82.5 84t129 27q111 0 156 -58l25 48h116l-63 -450q-19 -137 -89 -198.5t-206 -61.5q-111 0 -162 39.5t-52 126.5h140q3 -39 21.5 -56.5t57.5 -17.5q63 0 95.5 34t43.5 109l1 10q-57 -45 -156 -45zM302 98q39 0 65 16
t42.5 49t23.5 87q6 40 3.5 69t-13.5 47.5t-30 27t-49 8.5q-57 0 -88.5 -36t-42.5 -116t10 -116t79 -36zM398 723q45 0 62.5 -19t12.5 -60q-6 -41 -29.5 -59.5t-67.5 -18.5q-31 0 -48.5 8.5t-24 25.5t-2.5 44q5 41 28.5 60t68.5 19z" />
    <glyph glyph-name="Gcedilla" unicode="&#x122;" horiz-adv-x="776" 
d="M439 294l15 108h338l-7 -52q-27 -194 -119.5 -282t-270.5 -88q-188 0 -260.5 88t-45.5 282q19 130 67.5 211.5t132.5 120t210 38.5q147 0 217 -57t77 -183h-156q-6 61 -43 88t-112 27q-99 0 -150.5 -57.5t-69.5 -187.5q-18 -129 17.5 -187t133.5 -58q96 0 145 44.5
t63 144.5h-182zM392 -42q26 0 39 -12t13.5 -30.5t-2.5 -41.5q-8 -59 -39 -85.5t-90 -26.5l7 52q24 0 36.5 10.5t15.5 33.5q-29 0 -41 10.5t-9 34.5q3 20 12 32.5t23 17.5t35 5z" />
    <glyph glyph-name="gcedilla" unicode="&#x123;" horiz-adv-x="607" 
d="M248 -10q-115 0 -158.5 62t-24.5 198q13 92 43.5 149t82.5 84t129 27q111 0 156 -58l25 48h116l-63 -450q-19 -137 -89 -198.5t-206 -61.5q-111 0 -162 39.5t-52 126.5h140q3 -39 21.5 -56.5t57.5 -17.5q63 0 95.5 34t43.5 109l1 10q-57 -45 -156 -45zM302 98q39 0 65 16
t42.5 49t23.5 87q6 40 3.5 69t-13.5 47.5t-30 27t-49 8.5q-57 0 -88.5 -36t-42.5 -116t10 -116t79 -36zM362 552q-26 0 -39 12t-13.5 30.5t1.5 41.5q9 59 40 85.5t90 26.5l-7 -52q-24 0 -36.5 -10.5t-15.5 -33.5q29 0 41 -10.5t8 -34.5q-4 -30 -21 -42.5t-48 -12.5z" />
    <glyph glyph-name="Itilde" unicode="&#x128;" horiz-adv-x="332" 
d="M182 700h165l-98 -700h-165zM107 760q7 51 40 79.5t77 28.5q29 0 51.5 -8t33 -17t24.5 -17t28 -8q7 0 13.5 4t11 11.5t5.5 16.5h60q-7 -51 -40 -79.5t-77 -28.5q-29 0 -51 8t-33 17t-24.5 17t-28.5 8q-10 0 -19 -9t-11 -23h-60z" />
    <glyph glyph-name="itilde" unicode="&#x129;" horiz-adv-x="252" 
d="M200 0h-148l70 500h148zM41 578q8 52 43 89t77 37q24 0 42.5 -8t29 -19.5t19 -22.5t17 -19.5t17.5 -8.5q11 0 20 11.5t12 30.5h68q-7 -52 -42.5 -89t-77.5 -37q-24 0 -42 8t-28.5 19.5t-19 23t-17 19.5t-18.5 8q-11 0 -20 -11.5t-12 -30.5h-68z" />
    <glyph glyph-name="Imacron" unicode="&#x12a;" horiz-adv-x="320" 
d="M176 700h165l-98 -700h-165zM108 838h340l-12 -84h-340z" />
    <glyph glyph-name="imacron" unicode="&#x12b;" horiz-adv-x="240" 
d="M195 0h-149l70 500h149zM44 666h340l-12 -84h-340z" />
    <glyph glyph-name="Iogonek" unicode="&#x12e;" horiz-adv-x="339" 
d="M223 0h-1q-53 -42 -63 -85q-5 -39 34 -40q7 0 14.5 1.5t13.5 3.5l10.5 3.5t7.5 3l3 1.5l-16 -118l-29 -13q-23 -7 -44 -7q-36 0 -59.5 17t-30 45t-1 60.5t27.5 67t57 60.5h-59l98 700h165l-98 -700h-30z" />
    <glyph glyph-name="iogonek" unicode="&#x12f;" horiz-adv-x="275" 
d="M183 0q-53 -42 -63 -85q-5 -39 34 -40q11 0 23 3t19 7l6 3l-16 -118q-33 -20 -73 -20q-36 0 -59.5 17t-30 45t-1 60.5t27.5 67t57 60.5h-43l70 500h149l-70 -500h-30zM239 722q46 0 64 -18.5t12 -59.5q-5 -41 -28.5 -59.5t-69 -18.5t-63 18.5t-12 59.5t28.5 59.5t68 18.5
z" />
    <glyph glyph-name="Idotaccent" unicode="&#x130;" horiz-adv-x="332" 
d="M182 700h165l-98 -700h-165zM290 884q45 0 63.5 -16.5t13 -53.5t-28 -53.5t-67.5 -16.5t-63.5 16.5t-13.5 53.5q4 25 15 40t31 22.5t50 7.5z" />
    <glyph glyph-name="dotlessi" unicode="&#x131;" horiz-adv-x="248" 
d="M198 0h-148l70 500h148z" />
    <glyph glyph-name="IJ" unicode="&#x132;" horiz-adv-x="901" 
d="M178 700h165l-98 -700h-165zM376 210l4 34h157l-4 -34q-8 -56 7.5 -80.5t59.5 -24.5q43 0 65.5 24.5t30.5 80.5l68 490h165l-68 -490q-17 -116 -83 -169t-195 -53q-125 0 -174.5 53t-32.5 169z" />
    <glyph glyph-name="ij" unicode="&#x133;" horiz-adv-x="555" 
d="M210 0h-148l70 500h148zM273 -72q29 0 47 16.5t22 43.5l72 512h149l-74 -528q-10 -71 -56 -111.5t-119 -40.5h-135l15 108h79zM237 722q45 0 63 -18.5t13 -59.5q-6 -41 -29 -59.5t-68.5 -18.5t-63 18.5t-12 59.5t28.5 59.5t68 18.5zM520 722q45 0 63 -18.5t13 -59.5
q-6 -41 -29.5 -59.5t-68.5 -18.5q-46 0 -63.5 18.5t-12 59.5t29 59.5t68.5 18.5z" />
    <glyph glyph-name="Kcedilla" unicode="&#x136;" horiz-adv-x="711" 
d="M343 700l-38 -272l275 272h199l-343 -340l265 -360h-199l-216 293l-41 -293h-165l98 700h165zM340 -42q26 0 39 -12t13.5 -30.5t-2.5 -41.5q-8 -59 -39 -85.5t-90 -26.5l7 52q24 0 36.5 10.5t15.5 33.5q-29 0 -41 10.5t-9 34.5q3 20 12 32.5t23 17.5t35 5z" />
    <glyph glyph-name="kcedilla" unicode="&#x137;" horiz-adv-x="587" 
d="M307 700l-55 -392l200 192h175l-249 -240l199 -260h-175l-163 213l-30 -213h-149l98 700h149zM282 -42q26 0 39 -12t13.5 -30.5t-2.5 -41.5q-8 -59 -39 -85.5t-90 -26.5l7 51q46 0 52 45q-29 0 -41 10.5t-9 34.5q3 20 12 32.5t23 17.5t35 5z" />
    <glyph glyph-name="Lacute" unicode="&#x139;" horiz-adv-x="574" 
d="M562 125l-18 -125h-464l98 700h165l-80 -575h299zM205 750l112 120h142l-136 -120h-118z" />
    <glyph glyph-name="lacute" unicode="&#x13a;" horiz-adv-x="267" 
d="M60 0l98 700h149l-98 -700h-149zM175 750l112 120h142l-136 -120h-118z" />
    <glyph glyph-name="Lcedilla" unicode="&#x13b;" horiz-adv-x="574" 
d="M562 125l-18 -125h-464l98 700h165l-80 -575h299zM306 -42q26 0 39 -12t13.5 -30.5t-2.5 -41.5q-8 -59 -39 -85.5t-90 -26.5l7 52q24 0 36.5 10.5t15.5 33.5q-29 0 -41 10.5t-9 34.5q3 20 12 32.5t23 17.5t35 5z" />
    <glyph glyph-name="lcedilla" unicode="&#x13c;" horiz-adv-x="269" 
d="M60 0l98 700h149l-98 -700h-149zM128 -42q26 0 39 -12t13.5 -30.5t-2.5 -41.5q-8 -59 -39 -85.5t-90 -26.5l7 52q24 0 36.5 10.5t15.5 33.5q-29 0 -41 10.5t-9 34.5q5 30 22 42.5t48 12.5z" />
    <glyph glyph-name="Lcaron" unicode="&#x13d;" horiz-adv-x="574" 
d="M562 125l-18 -125h-464l98 700h165l-80 -575h299zM449 708q36 0 45.5 -22.5t4.5 -61.5q-9 -59 -40 -85.5t-90 -26.5l7 52q24 0 36 10.5t15 33.5q-28 0 -40 10.5t-8 34.5q4 30 21 42.5t48 12.5h1z" />
    <glyph glyph-name="lcaron" unicode="&#x13e;" horiz-adv-x="405" 
d="M60 0l98 700h148l-98 -700h-148zM412 708q26 0 39 -12.5t13.5 -31.5t-1.5 -41q-9 -58 -40 -85t-91 -27l8 52q24 0 36 10.5t15 34.5q-28 0 -40 10.5t-8 33.5q2 15 8.5 26t16.5 17.5t21 9.5t23 3z" />
    <glyph glyph-name="Lslash" unicode="&#x141;" horiz-adv-x="616" 
d="M604 125l-18 -125h-464l43 305l-100 -55l15 109l100 55l40 286h165l-26 -188l209 115l-15 -109l-209 -115l-39 -278h299z" />
    <glyph glyph-name="lslash" unicode="&#x142;" horiz-adv-x="392" 
d="M68 271l15 109l100 54l37 266h148l-25 -178l100 54l-15 -109l-100 -54l-58 -413h-148l46 325z" />
    <glyph glyph-name="Nacute" unicode="&#x143;" horiz-adv-x="772" 
d="M634 700h156l-98 -700h-190l-195 495l-70 -495h-157l98 700h191l196 -495zM421 750l112 120h142l-136 -120h-118z" />
    <glyph glyph-name="nacute" unicode="&#x144;" horiz-adv-x="586" 
d="M246 500l-1 -1l13 -39q55 50 154 50q102 0 141 -57t21 -183l-38 -270h-148l38 270q10 70 -6.5 101t-63.5 31q-48 0 -74 -28.5t-34 -91.5l-40 -282h-148l70 500h116zM422 700h149l-149 -150h-118z" />
    <glyph glyph-name="Ncedilla" unicode="&#x145;" horiz-adv-x="772" 
d="M634 700h156l-98 -700h-190l-195 495l-70 -495h-157l98 700h191l196 -495zM380 -42q26 0 39 -12t13.5 -30.5t-2.5 -41.5q-8 -59 -39 -85.5t-90 -26.5l7 52q24 0 36.5 10.5t15.5 33.5q-29 0 -41 10.5t-9 34.5q3 20 12 32.5t23 17.5t35 5z" />
    <glyph glyph-name="ncedilla" unicode="&#x146;" horiz-adv-x="586" 
d="M246 500l-1 -1l13 -39q55 50 154 50q102 0 141 -57t21 -183l-38 -270h-148l38 270q10 70 -6.5 101t-63.5 31q-48 0 -74 -28.5t-34 -91.5l-40 -282h-148l70 500h116zM291 -42q26 0 39 -12t13.5 -30.5t-2.5 -41.5q-8 -59 -39 -85.5t-90 -26.5l7 52q24 0 36.5 10.5
t15.5 33.5q-29 0 -41 10.5t-9 34.5q3 20 12 32.5t23 17.5t35 5z" />
    <glyph glyph-name="Ncaron" unicode="&#x147;" horiz-adv-x="772" 
d="M634 700h156l-98 -700h-190l-195 495l-70 -495h-157l98 700h191l196 -495zM660 870l-103 -120h-148l-69 120h101l51 -60l67 60h101z" />
    <glyph glyph-name="ncaron" unicode="&#x148;" horiz-adv-x="586" 
d="M246 500l-1 -1l13 -39q55 50 154 50q102 0 141 -57t21 -183l-38 -270h-148l38 270q10 70 -6.5 101t-63.5 31q-48 0 -74 -28.5t-34 -91.5l-40 -282h-148l70 500h116zM448 550h-148l-63 150h93l54 -82l76 82h93z" />
    <glyph glyph-name="Omacron" unicode="&#x14c;" horiz-adv-x="796" 
d="M499 720q188 0 261 -88t45.5 -282t-125 -282t-285.5 -88t-260.5 88t-45.5 282q19 130 67.5 211.5t132.5 120t210 38.5zM481.5 595q-97.5 0 -149.5 -58t-70 -187t17.5 -187t133 -58t150 58t70.5 187t-18 187t-133.5 58zM346 842h340l-11 -84h-340z" />
    <glyph glyph-name="omacron" unicode="&#x14d;" horiz-adv-x="596" 
d="M370 510q141 0 195.5 -61.5t35.5 -198.5t-91 -198.5t-213 -61.5t-196 61.5t-36 198.5t91.5 198.5t213.5 61.5zM213 250q-7 -54 0.5 -87t31.5 -49t67 -16q63 0 96.5 36t44.5 116t-12 116t-87 36q-31 0 -55 -8.5t-41 -27.5t-28 -47.5t-17 -68.5zM218 642h340l-12 -84h-340z
" />
    <glyph glyph-name="Obreve" unicode="&#x14e;" horiz-adv-x="796" 
d="M499 720q188 0 261 -88t45.5 -282t-125 -282t-285.5 -88t-260.5 88t-45.5 282q19 130 67.5 211.5t132.5 120t210 38.5zM481.5 595q-97.5 0 -149.5 -58t-70 -187t17.5 -187t133 -58t150 58t70.5 187t-18 187t-133.5 58zM686 870q-9 -63 -52.5 -91.5t-130.5 -28.5
t-122.5 28.5t-26.5 91.5h108q-3 -26 7.5 -38.5t38.5 -13.5h5q21 0 34 5.5t21 16.5t10 30h108z" />
    <glyph glyph-name="obreve" unicode="&#x14f;" horiz-adv-x="596" 
d="M370 510q141 0 195.5 -61.5t35.5 -198.5t-91 -198.5t-213 -61.5t-196 61.5t-36 198.5t91.5 198.5t213.5 61.5zM213 250q-7 -54 0.5 -87t31.5 -49t67 -16q63 0 96.5 36t44.5 116t-12 116t-87 36q-31 0 -55 -8.5t-41 -27.5t-28 -47.5t-17 -68.5zM562 700q-7 -53 -29 -86
t-60.5 -48.5t-97.5 -15.5q-87 0 -121.5 35.5t-23.5 114.5h100q-5 -38 7 -55.5t44 -18.5h5q35 0 53 17.5t23 56.5h100z" />
    <glyph glyph-name="Ohungarumlaut" unicode="&#x150;" horiz-adv-x="796" 
d="M499 720q188 0 261 -88t45.5 -282t-125 -282t-285.5 -88t-260.5 88t-45.5 282q19 130 67.5 211.5t132.5 120t210 38.5zM481.5 595q-97.5 0 -149.5 -58t-70 -187t17.5 -187t133 -58t150 58t70.5 187t-18 187t-133.5 58zM343 750l108 150h141l-140 -150h-109zM551 750
l108 150h141l-139 -150h-110z" />
    <glyph glyph-name="ohungarumlaut" unicode="&#x151;" horiz-adv-x="604" 
d="M370 510q141 0 195.5 -61.5t35.5 -198.5t-91 -198.5t-213 -61.5t-196 61.5t-36 198.5t91.5 198.5t213.5 61.5zM213 250q-7 -54 0.5 -87t31.5 -49t67 -16q63 0 96.5 36t44.5 116t-12 116t-87 36q-31 0 -55 -8.5t-41 -27.5t-28 -47.5t-17 -68.5zM215 550l108 150h141
l-140 -150h-109zM423 550l108 150h141l-139 -150h-110z" />
    <glyph glyph-name="OE" unicode="&#x152;" horiz-adv-x="1102" 
d="M1154 584l-1 1l-1 -1h-324l-23 -164h284l-16 -116h-284l-27 -188h324l-16 -116h-472l11 76q-40 -49 -98.5 -72t-148.5 -23q-170 1 -235 89t-38 281t117 280.5t261 87.5q88 0 141 -23t80 -73l10 77h472zM480.5 596q-97.5 0 -149.5 -58t-70 -187t17.5 -187t133.5 -58
q65 0 109.5 25.5t71.5 79t39 140.5q18 129 -18 187t-133.5 58z" />
    <glyph glyph-name="oe" unicode="&#x153;" horiz-adv-x="947" 
d="M578 202q-2 -56 18 -88t75 -32q37 0 65 19.5t42 54.5h141q-26 -76 -96.5 -121t-164.5 -45q-110 0 -163 60q-64 -60 -198 -60q-141 0 -196 61.5t-36 198.5t91.5 198.5t213.5 61.5q134 0 181 -60q70 60 180 60q120 0 179 -70t42 -194l-7 -44h-367zM212 250q-7 -54 0.5 -87
t31.5 -49t67 -16q63 0 96.5 36t44.5 116t-12 116t-87 36q-31 0 -55 -8.5t-41 -27.5t-28 -47.5t-17 -68.5zM719 418q-58 0 -87.5 -35t-42.5 -97h220q9 64 -14.5 98t-75.5 34z" />
    <glyph glyph-name="Racute" unicode="&#x154;" horiz-adv-x="722" 
d="M405 256h-124l-36 -256h-165l98 700h320q56 0 100 -11.5t71.5 -32t45 -49t21 -62t-0.5 -71.5q-23 -158 -172 -202l119 -272h-173zM296 364h147q56 0 88 29t40 81q4 34 -4.5 58.5t-32 38t-60.5 13.5h-147zM373 750l111 120h142l-135 -120h-118z" />
    <glyph glyph-name="racute" unicode="&#x155;" horiz-adv-x="416" 
d="M369 385h-1q-56 0 -86 -32t-40 -102l-35 -250h-148l70 500h116l14 -47q54 56 128 56h72l-18 -125h-72zM227 551l119 150h149l-150 -150h-118z" />
    <glyph glyph-name="Rcedilla" unicode="&#x156;" horiz-adv-x="722" 
d="M405 256h-124l-36 -256h-165l98 700h320q56 0 100 -11.5t71.5 -32t45 -49t21 -62t-0.5 -71.5q-23 -158 -172 -202l119 -272h-173zM296 364h147q56 0 88 29t40 81q4 34 -4.5 58.5t-32 38t-60.5 13.5h-147zM354 -42q26 0 39 -12t13.5 -30.5t-2.5 -41.5q-8 -59 -39 -85.5
t-90 -26.5l7 52q24 0 36.5 10.5t15.5 33.5q-29 0 -41 10.5t-9 34.5q3 20 12 32.5t23 17.5t35 5z" />
    <glyph glyph-name="rcedilla" unicode="&#x157;" horiz-adv-x="407" 
d="M369 385h-1q-56 0 -86 -32t-40 -102l-35 -250h-148l70 500h116l14 -47q54 56 128 56h72l-18 -125h-72zM126 -41q27 0 39.5 -12t13 -30.5t-2.5 -41.5q-8 -59 -39 -85.5t-90 -26.5l7 52q24 0 36.5 10.5t15.5 33.5q-29 0 -41 10.5t-8 34.5q4 30 21 42.5t48 12.5z" />
    <glyph glyph-name="Rcaron" unicode="&#x158;" horiz-adv-x="722" 
d="M398 255h-117l-36 -255h-165l98 700h320q70 0 120.5 -18.5t77 -50.5t36 -71.5t3.5 -85.5q-7 -48 -27.5 -87t-59 -69.5t-91.5 -46.5l125 -271h-173zM296 364h155q55 0 84 31t36 79q4 32 -2 55.5t-28 39t-59 15.5h-155zM612 870l-103 -120h-148l-69 120h101l51 -60l67 60
h101z" />
    <glyph glyph-name="rcaron" unicode="&#x159;" horiz-adv-x="407" 
d="M369 385h-1q-56 0 -86 -32t-40 -102l-35 -250h-148l70 500h116l14 -47q54 56 128 56h72l-18 -125h-72zM479 701l-105 -150h-149l-62 150h93l53 -82l77 82h93z" />
    <glyph glyph-name="Sacute" unicode="&#x15a;" horiz-adv-x="656" 
d="M279 520q-3 -24 12 -41t42.5 -27t63 -20.5t72.5 -19.5t71.5 -26t60.5 -38.5t38 -58.5t6 -85q-17 -118 -92.5 -171t-227 -53t-212.5 52t-45 168h148q-5 -40 6 -64.5t40 -36t78 -11.5q47 0 77.5 9.5t47 30t20.5 52.5q4 28 -10.5 49t-41.5 32.5t-62.5 23t-72.5 20t-72 24
t-61 35t-39 53.5t-6 79q16 118 89.5 171t219.5 53t205 -52t42 -168h-148q9 59 -18.5 85.5t-95.5 26.5q-65 0 -96.5 -21.5t-38.5 -70.5zM363 750l111 120h142l-135 -120h-118z" />
    <glyph glyph-name="sacute" unicode="&#x15b;" horiz-adv-x="508" 
d="M224 372q-2 -20 13 -32.5t41 -19t58 -12.5t63 -15.5t56 -24.5t37.5 -44t7.5 -70q-12 -86 -73 -125t-183 -39q-113 0 -159 38t-34 122h140q-6 -40 10.5 -58t58.5 -18q29 0 47.5 6.5t28.5 20.5t13 37q3 22 -11.5 35.5t-39.5 20.5t-56 12.5t-61.5 14.5t-55 23.5t-37 43
t-6.5 68.5q11 81 68 117.5t172 36.5q74 0 117.5 -15.5t61 -48.5t10.5 -86h-132q4 35 -12 50.5t-57 15.5t-61.5 -12.5t-24.5 -41.5zM257 550l118 150h149l-149 -150h-118z" />
    <glyph glyph-name="Scircumflex" unicode="&#x15c;" horiz-adv-x="656" 
d="M279 520q-3 -24 12 -41t42.5 -27t63 -20.5t72.5 -19.5t71.5 -26t60.5 -38.5t38 -58.5t6 -85q-17 -118 -92.5 -171t-227 -53t-212.5 52t-45 168h148q-5 -40 6 -64.5t40 -36t78 -11.5q47 0 77.5 9.5t47 30t20.5 52.5q4 28 -10.5 49t-41.5 32.5t-62.5 23t-72.5 20t-72 24
t-61 35t-39 53.5t-6 79q16 118 89.5 171t219.5 53t205 -52t42 -168h-148q9 59 -18.5 85.5t-95.5 26.5q-65 0 -96.5 -21.5t-38.5 -70.5zM593 750h-101l-50 60l-68 -60h-101l103 120h148z" />
    <glyph glyph-name="scircumflex" unicode="&#x15d;" horiz-adv-x="508" 
d="M224 372q-2 -20 13 -32.5t41 -19t58 -12.5t63 -15.5t56 -24.5t37.5 -44t7.5 -70q-12 -86 -73 -125t-183 -39q-113 0 -159 38t-34 122h140q-6 -40 10.5 -58t58.5 -18q29 0 47.5 6.5t28.5 20.5t13 37q3 22 -11.5 35.5t-39.5 20.5t-56 12.5t-61.5 14.5t-55 23.5t-37 43
t-6.5 68.5q11 81 68 117.5t172 36.5q74 0 117.5 -15.5t61 -48.5t10.5 -86h-132q4 35 -12 50.5t-57 15.5t-61.5 -12.5t-24.5 -41.5zM485 550h-93l-53 82l-77 -82h-93l105 150h148z" />
    <glyph glyph-name="Scedilla" unicode="&#x15e;" horiz-adv-x="656" 
d="M276 -19v1q-123 7 -173 59.5t-35 158.5h148q-6 -40 5.5 -64.5t40.5 -36t78 -11.5q47 0 77.5 9.5t47 30t20.5 52.5q4 28 -10.5 49t-42 32.5t-62.5 23t-72 20t-72 24t-61 35t-39 53.5t-6 79q16 118 89.5 171t219.5 53t204.5 -52t42.5 -168h-148q8 59 -19 85.5t-95 26.5
q-65 0 -96.5 -21.5t-38.5 -70.5q-3 -24 12 -41t42.5 -27t63 -20.5t72.5 -19.5t71.5 -26t60.5 -38.5t38 -58.5t6 -85q-16 -112 -85 -165.5t-206 -57.5l-12 -31l10 -2.5t21 -8.5t26.5 -16t19 -26t4.5 -37q-7 -52 -65.5 -81t-155.5 -29l8 60q98 0 105 50q3 19 -19.5 28.5
t-54.5 9.5z" />
    <glyph glyph-name="scedilla" unicode="&#x15f;" horiz-adv-x="508" 
d="M204 -9l-1 1q-90 6 -126.5 44t-25.5 114h140q-6 -40 10.5 -58t58.5 -18t63.5 15t25.5 49q3 22 -11.5 35.5t-39.5 20.5t-56 12.5t-61.5 14.5t-55 23.5t-37 43t-6.5 68.5q11 81 68 117.5t172 36.5q74 0 117.5 -15.5t61 -48.5t10.5 -86h-132q4 35 -12 50.5t-57 15.5
t-61.5 -12.5t-24.5 -41.5q-2 -20 13 -32.5t41 -19t58 -12.5t63 -15.5t56 -24.5t37.5 -44t7.5 -70q-12 -80 -64 -119t-154 -44l-16 -41l10 -2.5t21 -8.5t26.5 -16t19 -26t4.5 -37q-7 -52 -65.5 -81t-155.5 -29l8 60q98 0 105 50q3 19 -19.5 28.5t-54.5 9.5z" />
    <glyph glyph-name="Scaron" unicode="&#x160;" horiz-adv-x="656" 
d="M279 520q-3 -24 12 -41t42.5 -27t63 -20.5t72.5 -19.5t71.5 -26t60.5 -38.5t38 -58.5t6 -85q-17 -118 -92.5 -171t-227 -53t-212.5 52t-45 168h148q-5 -40 6 -64.5t40 -36t78 -11.5q47 0 77.5 9.5t47 30t20.5 52.5q4 28 -10.5 49t-41.5 32.5t-62.5 23t-72.5 20t-72 24
t-61 35t-39 53.5t-6 79q16 118 89.5 171t219.5 53t205 -52t42 -168h-148q9 59 -18.5 85.5t-95.5 26.5q-65 0 -96.5 -21.5t-38.5 -70.5zM602 870l-103 -120h-148l-69 120h101l51 -60l67 60h101z" />
    <glyph glyph-name="scaron" unicode="&#x161;" horiz-adv-x="508" 
d="M224 372q-2 -20 13 -32.5t41 -19t58 -12.5t63 -15.5t56 -24.5t37.5 -44t7.5 -70q-12 -86 -73 -125t-183 -39q-113 0 -159 38t-34 122h140q-6 -40 10.5 -58t58.5 -18q29 0 47.5 6.5t28.5 20.5t13 37q3 22 -11.5 35.5t-39.5 20.5t-56 12.5t-61.5 14.5t-55 23.5t-37 43
t-6.5 68.5q11 81 68 117.5t172 36.5q74 0 117.5 -15.5t61 -48.5t10.5 -86h-132q4 35 -12 50.5t-57 15.5t-61.5 -12.5t-24.5 -41.5zM506 700l-105 -150h-148l-63 150h93l54 -82l76 82h93z" />
    <glyph glyph-name="Tcedilla" unicode="&#x162;" horiz-adv-x="636" 
d="M275 0h-39l81 575h-206l17 125h576l-17 -125h-206l-81 -575h-47l-20 -50l10 -2.5t21 -8.5t26.5 -16t19 -26t4.5 -37q-7 -52 -65.5 -81t-155.5 -29l8 60q98 0 105 50q3 19 -19.5 28.5t-54.5 9.5z" />
    <glyph glyph-name="tcedilla" unicode="&#x163;" horiz-adv-x="442" 
d="M226 5q-49 13 -71 51t-14 96l36 256h-80l13 92h80l18 126h149l-18 -126h143l-13 -92h-143l-33 -240q-4 -27 9.5 -43.5t42.5 -16.5h82l-15 -108h-111l-20 -50l10 -2.5t21 -8.5t26.5 -16t19 -26t4.5 -37q-7 -52 -65.5 -81t-155.5 -29l8 60q98 0 105 50q3 19 -19.5 28.5
t-54.5 9.5z" />
    <glyph glyph-name="Tcaron" unicode="&#x164;" horiz-adv-x="636" 
d="M704 700l-17 -125h-206l-81 -575h-164l81 575h-206l17 125h576zM592 870l-103 -120h-148l-69 120h101l51 -60l67 60h101z" />
    <glyph glyph-name="tcaron" unicode="&#x165;" horiz-adv-x="457" 
d="M293 168q-2 -9 -1 -17t3.5 -14.5t7 -12t10.5 -9t14.5 -5.5t17.5 -2h82l-15 -108h-138q-73 0 -108 40.5t-25 111.5l36 256h-80l13 92h80l18 126h149l-18 -126h143l-13 -92h-143zM466 722q37 0 46.5 -22.5t4.5 -61.5q-6 -40 -21.5 -65t-42.5 -37t-66 -12l7 52q24 0 36 10.5
t15 35.5q-28 0 -40 10.5t-8 34.5q4 30 21 42.5t48 12.5z" />
    <glyph glyph-name="Utilde" unicode="&#x168;" horiz-adv-x="736" 
d="M106 258l62 442h165l-62 -442q-11 -81 15 -117t96.5 -36t107.5 36t48 117l62 442h164l-62 -442q-20 -146 -100 -212t-237 -66t-218 66t-41 212zM309 760q5 34 22 59t42 37t53 12q29 0 51.5 -8t33 -17t24.5 -17t28 -8q11 0 19.5 9t10.5 23h60q-7 -51 -40 -79.5t-77 -28.5
q-29 0 -51 8t-33 17t-24.5 17t-28.5 8q-10 0 -19 -9t-11 -23h-60z" />
    <glyph glyph-name="utilde" unicode="&#x169;" horiz-adv-x="586" 
d="M410 0l1 1l-12 39q-56 -50 -154 -50q-103 0 -141.5 57t-21.5 183l38 270h148l-38 -270q-9 -70 7 -101t63 -31q31 0 52.5 12.5t36 39t20.5 68.5l40 282h147l-70 -500h-116zM207 600q8 52 43 89t77 37q24 0 42.5 -8t29 -19.5t19 -22.5t17 -19.5t17.5 -8.5q11 0 20 11.5
t12 30.5h68q-7 -52 -42.5 -89t-77.5 -37q-24 0 -42 8t-28.5 19.5t-19 23t-17 19.5t-18.5 8q-11 0 -20 -11.5t-12 -30.5h-68z" />
    <glyph glyph-name="Umacron" unicode="&#x16a;" horiz-adv-x="736" 
d="M106 258l62 442h165l-62 -442q-11 -81 15 -117t96.5 -36t107.5 36t48 117l62 442h164l-62 -442q-20 -146 -100 -212t-237 -66t-218 66t-41 212zM316 840h340l-12 -84h-340z" />
    <glyph glyph-name="umacron" unicode="&#x16b;" horiz-adv-x="586" 
d="M410 0l1 1l-12 39q-56 -50 -154 -50q-103 0 -141.5 57t-21.5 183l38 270h148l-38 -270q-9 -70 7 -101t63 -31q31 0 52.5 12.5t36 39t20.5 68.5l40 282h147l-70 -500h-116zM201 582l12 84h340l-12 -84h-340z" />
    <glyph glyph-name="Ubreve" unicode="&#x16c;" horiz-adv-x="736" 
d="M106 258l62 442h165l-62 -442q-11 -81 15 -117t96.5 -36t107.5 36t48 117l62 442h164l-62 -442q-20 -146 -100 -212t-237 -66t-218 66t-41 212zM656 870q-9 -63 -52.5 -91.5t-130.5 -28.5t-122.5 28.5t-26.5 91.5h108q-3 -26 7.5 -38.5t38.5 -13.5h5q31 0 46 12t19 40
h108z" />
    <glyph glyph-name="ubreve" unicode="&#x16d;" horiz-adv-x="586" 
d="M410 0l1 1l-12 39q-56 -50 -154 -50q-103 0 -141.5 57t-21.5 183l38 270h148l-38 -270q-9 -70 7 -101t63 -31q31 0 52.5 12.5t36 39t20.5 68.5l40 282h147l-70 -500h-116zM443 700h100q-11 -79 -55.5 -114.5t-131.5 -35.5t-121.5 35.5t-23.5 114.5h100q-5 -39 8 -56.5
t48 -17.5t53 17.5t23 56.5z" />
    <glyph glyph-name="Uring" unicode="&#x16e;" horiz-adv-x="736" 
d="M106 258l62 442h165l-62 -442q-11 -81 15 -117t96.5 -36t107.5 36t48 117l62 442h164l-62 -442q-20 -146 -100 -212t-237 -66t-218 66t-41 212zM494.5 902q43.5 0 69.5 -11t35.5 -34.5t4.5 -60.5q-8 -56 -41 -81t-98 -25q-44 0 -69.5 11t-35 34.5t-4.5 60.5t21 60.5
t45 34.5t72.5 11zM473 750q27 0 39 10.5t15.5 35.5t-6 35.5t-35 10.5t-38.5 -10.5t-16 -35.5q-2 -12 -0.5 -20.5t6.5 -14.5t14 -8.5t21 -2.5z" />
    <glyph glyph-name="uring" unicode="&#x16f;" horiz-adv-x="586" 
d="M410 0l1 1l-12 39q-56 -50 -154 -50q-103 0 -141.5 57t-21.5 183l38 270h148l-38 -270q-9 -70 7 -101t63 -31q31 0 52.5 12.5t36 39t20.5 68.5l40 282h147l-70 -500h-116zM376 746q44 0 69.5 -11t35 -34.5t4.5 -60.5q-8 -56 -41 -81t-98 -25q-44 0 -69.5 11t-35 34.5
t-4.5 60.5t21.5 60.5t45 34.5t72.5 11zM354 594q26 0 38.5 10.5t16.5 35.5q2 12 0.5 21t-7 14.5t-14 8t-21.5 2.5q-25 0 -38 -10.5t-16 -35.5q-2 -17 1.5 -27t13 -14.5t26.5 -4.5z" />
    <glyph glyph-name="Uhungarumlaut" unicode="&#x170;" horiz-adv-x="736" 
d="M106 258l62 442h165l-62 -442q-11 -81 15 -117t96.5 -36t107.5 36t48 117l62 442h164l-62 -442q-20 -146 -100 -212t-237 -66t-218 66t-41 212zM313 750l108 150h141l-140 -150h-109zM521 750l108 150h141l-139 -150h-110z" />
    <glyph glyph-name="uhungarumlaut" unicode="&#x171;" horiz-adv-x="607" 
d="M410 0l1 1l-12 39q-56 -50 -154 -50q-103 0 -141.5 57t-21.5 183l38 270h148l-38 -270q-9 -70 7 -101t63 -31q31 0 52.5 12.5t36 39t20.5 68.5l40 282h147l-70 -500h-116zM296 700h141l-140 -150h-109zM504 700h141l-139 -150h-110z" />
    <glyph glyph-name="Uogonek" unicode="&#x172;" horiz-adv-x="736" 
d="M702 257q-15 -111 -65 -175t-139 -88q-51 -43 -57 -85q-4 -35 35 -35q11 0 23 3t18 7l7 3l-16 -118q-33 -20 -73 -20q-55 0 -79.5 38.5t-10.5 93t61 99.5q-13 -1 -41 -1q-157 0 -218 66t-41 212l62 442h165l-62 -442q-11 -81 15 -117t96.5 -36t107.5 36t48 117l62 442
h164z" />
    <glyph glyph-name="uogonek" unicode="&#x173;" horiz-adv-x="586" 
d="M409 1v1l-11 38q-56 -50 -154 -50q-103 0 -141.5 57t-21.5 183l38 270h148l-38 -270q-9 -70 7 -101t63 -31q31 0 52.5 12.5t36 39t20.5 68.5l40 282h147l-70 -500h-42q-53 -42 -63 -85q-5 -39 34 -40q7 0 14.5 1t13 3t10.5 4t8 4l2 1l-16 -118q-33 -20 -73 -20
q-36 0 -59.5 17t-30 45.5t-1 61t28.5 67t58 60.5z" />
    <glyph glyph-name="Wcircumflex" unicode="&#x174;" horiz-adv-x="1012" 
d="M505 700h197h1l27 -542l195 542h165l-269 -700h-214l-31 540l-171 -540h-214l-73 700h165l43 -542zM767 750h-101l-50 60l-68 -60h-101l103 120h148z" />
    <glyph glyph-name="wcircumflex" unicode="&#x175;" horiz-adv-x="864" 
d="M697 0h-182l-27 396l-139 -396h-181l-78 500h149l43 -382l133 382h182l20 -381l149 381h148zM661 550h-93l-53 82l-77 -82h-93l105 150h148z" />
    <glyph glyph-name="Ycircumflex" unicode="&#x176;" horiz-adv-x="664" 
d="M452 268l-38 -268h-156l38 268l-188 432h181l106 -279l184 279h173zM603 750h-101l-50 60l-67 -60h-102l103 120h149z" />
    <glyph glyph-name="ycircumflex" unicode="&#x177;" horiz-adv-x="536" 
d="M222 2h-1l6 11l-148 487h141l87 -316l148 316h140l-235 -482q-53 -104 -109.5 -151t-128.5 -47h-72l13 92h64q27 0 50 21.5t45 68.5zM511 550h-93l-53 82l-77 -82h-93l105 150h149z" />
    <glyph glyph-name="Ydieresis" unicode="&#x178;" horiz-adv-x="664" 
d="M452 268l-38 -268h-156l38 268l-188 432h181l106 -279l184 279h173zM343 874q45 0 63 -16.5t13 -53.5t-28 -53.5t-68 -16.5t-63 16.5t-13 53.5t27.5 53.5t68.5 16.5zM579 874q46 0 64 -16.5t13 -53.5t-28 -53.5t-69 -16.5q-45 0 -63 16.5t-13 53.5t28 53.5t68 16.5z" />
    <glyph glyph-name="Zacute" unicode="&#x179;" horiz-adv-x="624" 
d="M237 116h373l-16 -116h-564l14 99l431 485h-353l16 116h544l-14 -99zM339 750l111 120h142l-136 -120h-117z" />
    <glyph glyph-name="zacute" unicode="&#x17a;" horiz-adv-x="504" 
d="M219 100h269l-14 -100h-444l12 83l304 317h-250l14 100h424l-11 -83zM259 550l118 150h149l-149 -150h-118z" />
    <glyph glyph-name="Zdotaccent" unicode="&#x17b;" horiz-adv-x="624" 
d="M237 116h373l-16 -116h-564l14 99l431 485h-353l16 116h544l-14 -99zM436 884q45 0 63.5 -16.5t13 -53.5t-28 -53.5t-67.5 -16.5q-46 0 -64 16.5t-12.5 53.5t28 53.5t67.5 16.5z" />
    <glyph glyph-name="zdotaccent" unicode="&#x17c;" horiz-adv-x="504" 
d="M219 100h269l-14 -100h-444l12 83l304 317h-250l14 100h424l-11 -83zM354 726q45 0 63 -18.5t12 -59.5q-2 -14 -5.5 -25t-9.5 -19.5t-14 -15t-18 -10.5t-22.5 -6t-27.5 -2q-30 0 -48 8.5t-24.5 25.5t-2.5 44q6 41 29 59.5t68 18.5z" />
    <glyph glyph-name="Zcaron" unicode="&#x17d;" horiz-adv-x="624" 
d="M237 116h373l-16 -116h-564l14 99l431 485h-353l16 116h544l-14 -99zM586 870l-103 -120h-148l-69 120h101l51 -60l66 60h102z" />
    <glyph glyph-name="zcaron" unicode="&#x17e;" horiz-adv-x="504" 
d="M219 100h269l-14 -100h-444l12 83l304 317h-250l14 100h424l-11 -83zM508 700l-105 -150h-148l-63 150h93l54 -82l76 82h93z" />
    <glyph glyph-name="Aacutering" unicode="&#x1fa;" horiz-adv-x="692" 
d="M10 0l328 700h72h68h89l115 -700h-173l-21 144h-251l-62 -144h-165zM283 252h1h189l-46 330zM607 960l1 -1l-72 -64q57 -21 49 -79q-6 -43 -42.5 -65.5t-94.5 -22.5q-38 0 -64 10t-38.5 29.5t-8.5 48.5q5 41 39.5 63.5t88.5 24.5l48 56h94zM456 779q56 0 62 36
q2 18 -11.5 27t-39.5 9q-56 0 -61 -36q-3 -18 10.5 -27t39.5 -9z" />
    <glyph glyph-name="aacutering" unicode="&#x1fb;" horiz-adv-x="556" 
d="M379 42q-54 -52 -162 -52q-99 0 -138.5 37.5t-27.5 120.5q12 89 75 129.5t191 40.5h86l3 22q6 45 -11 65.5t-61 20.5t-66.5 -18t-27.5 -58h-141q12 84 71.5 122t179.5 38q119 0 167 -44.5t35 -141.5l-46 -324h-116zM391 234h-65q-26 0 -43.5 -2.5t-37 -9.5t-30.5 -23.5
t-15 -42.5q-5 -36 11.5 -51t59.5 -15q29 0 50.5 8.5t34.5 25t20 37t11 48.5zM452 784h109l-99 -78q36 -27 29 -76q-7 -46 -43.5 -72t-95 -26t-87.5 26t-22.5 72t43 72t94.5 26h13zM361.5 592q26.5 0 38.5 9t14.5 29t-7 29t-36 9t-38.5 -9t-14.5 -29t7 -29t36 -9z" />
    <glyph glyph-name="AEacute" unicode="&#x1fc;" horiz-adv-x="942" 
d="M994 584h-305l-23 -164h265l-16 -116h-265l-27 -188h305l-16 -116h-454l20 144h-214l-89 -144h-165l448 700h552zM540 587l-208 -335h161zM579 750l111 120h142l-135 -120h-118z" />
    <glyph glyph-name="aeacute" unicode="&#x1fd;" horiz-adv-x="924" 
d="M535 202q-1 -21 1 -38t6.5 -30t12 -23t18.5 -16.5t24.5 -9.5t31.5 -3q41 0 66.5 17.5t40.5 56.5h141q-29 -87 -91 -126.5t-170 -39.5q-77 0 -121.5 27t-59.5 84q-27 -57 -80.5 -84t-137.5 -27q-99 0 -138.5 37.5t-27.5 120.5q12 85 69 125.5t172 44.5h111l3 22
q6 41 -12.5 59.5t-64.5 18.5q-43 0 -64 -16t-25 -52h-141q12 84 71.5 122t179.5 38q124 0 158 -67q61 67 180 67q68 0 114 -15t73.5 -47.5t35 -82.5t-1.5 -119l-7 -44h-367zM391 234h-70q-58 0 -86.5 -18.5t-34.5 -59.5q-5 -35 13.5 -50.5t64.5 -15.5q48 0 74 25t34 81z
M676 418q-53 0 -84 -31.5t-46 -100.5h220q11 70 -10.5 101t-79.5 31zM456 550l118 150h149l-149 -150h-118z" />
    <glyph glyph-name="Oslashacute" unicode="&#x1fe;" horiz-adv-x="795" 
d="M582 714l32 64h98l-42 -86q89 -34 121.5 -118t12.5 -225q-27 -194 -124.5 -282t-285.5 -88q-38 0 -71 3l-30 -63h-100l40 82q-95 33 -129.5 117.5t-14.5 230.5q18 130 67 211.5t133 120t210 38.5q41 0 83 -5zM523 591q-19 3 -40 3q-97 0 -149 -58t-70 -187
q-22 -157 37 -211zM385 106q9 -1 29 -1q97 0 149.5 58t70.5 187q21 147 -30 203zM408 750l111 120h142l-135 -120h-118z" />
    <glyph glyph-name="oslashacute" unicode="&#x1ff;" horiz-adv-x="595" 
d="M370 510q28 0 53 -3l30 62h68l-36 -74q74 -22 102 -82t13 -164q-19 -136 -91 -197.5t-213 -61.5q-37 0 -54 2l-30 -62h-68l37 74q-75 22 -102.5 82t-13.5 164q19 137 91.5 198.5t213.5 61.5zM213 250q-13 -97 24 -130l135 281q-5 1 -18 1q-31 0 -55 -8.5t-41 -27.5
t-28 -47.5t-17 -68.5zM429 379l-135 -280q6 -1 18 -1q63 0 96.5 36t44.5 116q14 96 -24 129zM273 550l118 150h149l-149 -150h-118z" />
    <glyph glyph-name="Scommaaccent" unicode="&#x218;" horiz-adv-x="656" 
d="M279 520q-3 -24 12 -41t42.5 -27t63 -20.5t72.5 -19.5t71.5 -26t60.5 -38.5t38 -58.5t6 -85q-17 -118 -92.5 -171t-227 -53t-212.5 52t-45 168h148q-5 -40 6 -64.5t40 -36t78 -11.5q47 0 77.5 9.5t47 30t20.5 52.5q4 28 -10.5 49t-41.5 32.5t-62.5 23t-72.5 20t-72 24
t-61 35t-39 53.5t-6 79q16 118 89.5 171t219.5 53t205 -52t42 -168h-148q9 59 -18.5 85.5t-95.5 26.5q-65 0 -96.5 -21.5t-38.5 -70.5zM322 -42q26 0 39 -12t13.5 -30.5t-2.5 -41.5q-8 -59 -39 -85.5t-90 -26.5l7 52q24 0 36.5 10.5t15.5 33.5q-29 0 -41 10.5t-9 34.5
q3 20 12 32.5t23 17.5t35 5z" />
    <glyph glyph-name="scommaaccent" unicode="&#x219;" horiz-adv-x="508" 
d="M224 372q-2 -20 13 -32.5t41 -19t58 -12.5t63 -15.5t56 -24.5t37.5 -44t7.5 -70q-12 -86 -73 -125t-183 -39q-113 0 -159 38t-34 122h140q-6 -40 10.5 -58t58.5 -18q29 0 47.5 6.5t28.5 20.5t13 37q3 22 -11.5 35.5t-39.5 20.5t-56 12.5t-61.5 14.5t-55 23.5t-37 43
t-6.5 68.5q11 81 68 117.5t172 36.5q74 0 117.5 -15.5t61 -48.5t10.5 -86h-132q4 35 -12 50.5t-57 15.5t-61.5 -12.5t-24.5 -41.5zM244 -42q26 0 39 -12t13.5 -30.5t-2.5 -41.5q-8 -59 -39 -85.5t-90 -26.5l7 52q24 0 36.5 10.5t15.5 33.5q-29 0 -41 10.5t-9 34.5q3 15 8 26
t14 17t21 9t27 3z" />
    <glyph glyph-name="uni021A" unicode="&#x21a;" horiz-adv-x="636" 
d="M704 700l-17 -125h-206l-81 -575h-164l81 575h-206l17 125h576zM312 -42q26 0 39 -12t13.5 -30.5t-2.5 -41.5q-8 -59 -39 -85.5t-90 -26.5l7 52q24 0 36.5 10.5t15.5 33.5q-29 0 -41 10.5t-9 34.5q3 20 12 32.5t23 17.5t35 5z" />
    <glyph glyph-name="uni021B" unicode="&#x21b;" horiz-adv-x="442" 
d="M293 168q-2 -9 -1 -17t3.5 -14.5t7 -12t10.5 -9t14.5 -5.5t17.5 -2h82l-15 -108h-138q-73 0 -108 40.5t-25 111.5l36 256h-80l13 92h80l18 126h149l-18 -126h143l-13 -92h-143zM244 -42q26 0 39 -12t13.5 -30.5t-2.5 -41.5q-8 -59 -39 -85.5t-90 -26.5l7 52
q24 0 36.5 10.5t15.5 33.5q-29 0 -41 10.5t-9 34.5q3 20 12 32.5t23 17.5t35 5z" />
    <glyph glyph-name="circumflex" unicode="&#x2c6;" horiz-adv-x="376" 
d="M360 700l63 -150h-93l-53 82l-77 -82h-93l105 150h148z" />
    <glyph glyph-name="caron" unicode="&#x2c7;" horiz-adv-x="376" 
d="M444 700l-105 -150h-148l-63 150h93l54 -82l76 82h93z" />
    <glyph glyph-name="breve" unicode="&#x2d8;" horiz-adv-x="392" 
d="M360 700h100q-11 -79 -55.5 -114.5t-131.5 -35.5t-121.5 35.5t-23.5 114.5h100q-5 -39 8 -56.5t48 -17.5t53 17.5t23 56.5z" />
    <glyph glyph-name="dotaccent" unicode="&#x2d9;" horiz-adv-x="232" 
d="M220 740q30 0 48 -8.5t24.5 -25.5t2.5 -44q-6 -41 -29 -59.5t-68 -18.5t-63 18.5t-12 59.5t29 59.5t68 18.5z" />
    <glyph glyph-name="ring" unicode="&#x2da;" horiz-adv-x="308" 
d="M256 726q44 0 69.5 -11t35 -34.5t4.5 -60.5q-8 -56 -41 -81t-98 -25q-43 0 -69 11t-35.5 34.5t-4.5 60.5t21.5 60.5t45 34.5t72.5 11zM235 574q25 0 38 10.5t16.5 35.5t-6.5 35.5t-35.5 10.5t-38 -10.5t-16.5 -35.5q-2 -17 1.5 -27t13 -14.5t27.5 -4.5z" />
    <glyph glyph-name="ogonek" unicode="&#x2db;" horiz-adv-x="238" 
d="M120 16h76q-58 -35 -80 -85q-19 -45 13 -54q7 -2 15 -2q11 0 23 3t19 7l6 3l-16 -118q-33 -20 -73 -20q-63 0 -85.5 48t6 112.5t96.5 105.5z" />
    <glyph glyph-name="tilde" unicode="&#x2dc;" horiz-adv-x="392" 
d="M114 600q8 52 43 89t77 37q24 0 42.5 -8t29 -19.5t18.5 -22.5t16.5 -19.5t18.5 -8.5q11 0 20 11.5t12 30.5h68q-7 -52 -42.5 -89t-77.5 -37q-29 0 -50.5 12t-31 27t-21 27t-22.5 12t-20 -11.5t-12 -30.5h-68z" />
    <glyph glyph-name="hungarumlaut" unicode="&#x2dd;" horiz-adv-x="497" 
d="M107 550l108 150h141l-140 -150h-109zM315 550l108 150h142l-140 -150h-110z" />
    <glyph glyph-name="Wgrave" unicode="&#x1e80;" horiz-adv-x="1012" 
d="M505 700h197h1l27 -542l195 542h165l-269 -700h-214l-31 540l-171 -540h-214l-73 700h165l43 -542zM677 750h-110l-109 120h134z" />
    <glyph glyph-name="wgrave" unicode="&#x1e81;" horiz-adv-x="864" 
d="M697 0h-182l-27 396l-139 -396h-181l-78 500h149l43 -382l133 382h182l20 -381l149 381h148zM573 550h-117l-108 150h150z" />
    <glyph glyph-name="Wacute" unicode="&#x1e82;" horiz-adv-x="1012" 
d="M505 700h197h1l27 -542l195 542h165l-269 -700h-214l-31 540l-171 -540h-214l-73 700h165l43 -542zM537 750l111 120h142l-135 -120h-118z" />
    <glyph glyph-name="wacute" unicode="&#x1e83;" horiz-adv-x="864" 
d="M697 0h-182l-27 396l-139 -396h-181l-78 500h149l43 -382l133 382h182l20 -381l149 381h148zM425 550l118 150h150l-150 -150h-118z" />
    <glyph glyph-name="Wdieresis" unicode="&#x1e84;" horiz-adv-x="1012" 
d="M505 700h197h1l27 -542l195 542h165l-269 -700h-214l-31 540l-171 -540h-214l-73 700h165l43 -542zM507 874q45 0 63 -16.5t13 -53.5t-28 -53.5t-69 -16.5q-45 0 -63 16.5t-13 53.5t28 53.5t69 16.5zM743 874q45 0 63.5 -16.5t13.5 -53.5t-28.5 -53.5t-68.5 -16.5
t-63 16.5t-13 53.5t28 53.5t68 16.5z" />
    <glyph glyph-name="wdieresis" unicode="&#x1e85;" horiz-adv-x="864" 
d="M697 0h-182l-27 396l-139 -396h-181l-78 500h149l43 -382l133 382h182l20 -381l149 381h148zM416 728q45 0 63 -19.5t12 -62.5t-29.5 -62.5t-68.5 -19.5t-62.5 19t-11.5 63q4 29 15.5 47t31.5 26.5t50 8.5zM636 728q31 0 49 -8.5t24.5 -26.5t2.5 -47q-6 -43 -29.5 -62.5
t-69.5 -19.5q-45 0 -62.5 19.5t-11.5 62.5t29 62.5t68 19.5z" />
    <glyph glyph-name="uni1E9E" unicode="&#x1e9e;" horiz-adv-x="665" 
d="M435 720q45 0 80 -4t68 -16.5t53 -33t29.5 -55t2.5 -81.5q-3 -27 -12.5 -48.5t-26 -38t-38 -28.5t-51.5 -22q48 -14 75 -37.5t37 -59.5t2 -88q-15 -109 -72.5 -158.5t-167.5 -49.5q-16 0 -32.5 2t-29 5t-23 6t-15.5 5l-5 2l14 100q34 -12 66 -12q53 0 81 26t36 82
q9 59 -23.5 88.5t-109.5 29.5l14 102q69 0 101.5 19.5t38.5 64.5q7 48 -16.5 70t-82.5 22q-44 0 -74 -15t-46 -43t-22 -70l-68 -484h-148l66 472q18 128 93 188t206 60z" />
    <glyph glyph-name="Ygrave" unicode="&#x1ef2;" horiz-adv-x="664" 
d="M452 268l-38 -268h-156l38 268l-188 432h181l106 -279l184 279h173zM513 750h-109l-110 120h134z" />
    <glyph glyph-name="ygrave" unicode="&#x1ef3;" horiz-adv-x="536" 
d="M222 2h-1l6 11l-148 487h141l87 -316l148 316h140l-235 -482q-53 -104 -109.5 -151t-128.5 -47h-72l13 92h64q27 0 50 21.5t45 68.5zM423 550h-117l-108 150h150z" />
    <glyph glyph-name="endash" unicode="&#x2013;" horiz-adv-x="580" 
d="M595 320l-15 -108h-520l15 108h520z" />
    <glyph glyph-name="emdash" unicode="&#x2014;" horiz-adv-x="800" 
d="M815 320l-15 -108h-740l15 108h740z" />
    <glyph glyph-name="quoteleft" unicode="&#x2018;" horiz-adv-x="232" 
d="M176 373q-24 0 -40.5 8t-25 19.5t-11.5 30.5t-2 35.5t4 39.5q14 102 59.5 148t129.5 46l-9 -68q-25 0 -42 -10t-26.5 -30.5t-13.5 -53.5q41 0 57 -19.5t10 -61.5q-6 -43 -26 -63.5t-64 -20.5z" />
    <glyph glyph-name="quoteright" unicode="&#x2019;" horiz-adv-x="232" 
d="M208 710q24 0 41 -8t25 -19.5t11 -30.5t2 -35.5t-4 -39.5q-14 -101 -59 -147.5t-130 -46.5l9 68q37 0 56.5 22.5t26.5 72.5q-42 0 -58 19t-10 61q6 43 26.5 63.5t63.5 20.5z" />
    <glyph glyph-name="quotesinglbase" unicode="&#x201a;" horiz-adv-x="232" 
d="M130 155q24 0 41 -8t25 -19.5t11 -30.5t2 -35.5t-4 -39.5q-14 -102 -59 -148t-130 -46l9 67q37 0 56.5 22.5t26.5 72.5q-42 0 -58 19t-10 62q6 42 26.5 63t63.5 21z" />
    <glyph glyph-name="quotedblleft" unicode="&#x201c;" horiz-adv-x="463" 
d="M176 373q-24 0 -40.5 8t-25 19.5t-11.5 30.5t-2 35.5t4 39.5q14 102 59.5 148t129.5 46l-9 -68q-25 0 -42 -10t-26.5 -30.5t-13.5 -53.5q41 0 57 -19.5t10 -61.5q-6 -43 -26 -63.5t-64 -20.5zM407 373q-24 0 -40.5 8t-25 19.5t-11.5 30.5t-2 35.5t4 39.5q14 102 59.5 148
t129.5 46l-10 -68q-25 0 -41.5 -10t-26.5 -30.5t-14 -53.5q41 0 57.5 -19.5t10.5 -61.5t-26.5 -63t-63.5 -21z" />
    <glyph glyph-name="quotedblright" unicode="&#x201d;" horiz-adv-x="463" 
d="M208 710q24 0 41 -8t25 -19.5t11 -30.5t2 -35.5t-4 -39.5q-14 -101 -59 -147.5t-130 -46.5l9 68q37 0 56.5 22.5t26.5 72.5q-41 0 -57 19t-11 61q6 43 26.5 63.5t63.5 20.5zM438 710q39 0 59 -19.5t20.5 -49t-3.5 -64.5q-14 -101 -59.5 -147.5t-130.5 -46.5l9 68
q37 0 57 22.5t27 72.5q-42 0 -58 19t-10 61q6 43 26 63.5t63 20.5z" />
    <glyph glyph-name="quotedblbase" unicode="&#x201e;" horiz-adv-x="463" 
d="M130 155q24 0 41 -8t25 -19.5t11 -30.5t2 -35.5t-4 -39.5q-14 -102 -59 -148t-130 -46l9 67q37 0 56.5 22.5t26.5 72.5q-42 0 -57.5 19t-10.5 62q6 42 26.5 63t63.5 21zM360 155q39 0 59 -20t20 -49.5t-3 -63.5q-14 -102 -59.5 -148t-130.5 -46l9 67q37 0 57 22.5
t27 72.5q-42 0 -58 19t-10 62q6 42 26 63t63 21z" />
    <glyph glyph-name="ellipsis" unicode="&#x2026;" horiz-adv-x="774" 
d="M138 156q45 0 62.5 -19.5t11.5 -62.5q-4 -29 -15.5 -47t-31.5 -26.5t-50 -8.5q-45 0 -63 19.5t-11.5 62.5t29.5 62.5t68 19.5zM409 156q45 0 62.5 -19.5t11.5 -62.5t-29 -62.5t-68 -19.5q-46 0 -63.5 19t-11.5 62.5t29.5 63t68.5 19.5zM680 156q45 0 62.5 -19.5
t11.5 -62.5t-29 -62.5t-69 -19.5q-45 0 -63 19.5t-11.5 62.5t29.5 62.5t69 19.5z" />
    <glyph glyph-name="perthousand" unicode="&#x2030;" horiz-adv-x="1291" 
d="M739 390q91 0 126 -47t20 -151t-62.5 -151t-139 -47t-126.5 47t-20 151q10 70 34 113.5t65 64t103 20.5zM695 78q35 0 54.5 27t27.5 87t-3.5 87t-45.5 27q-24 0 -40 -12t-26 -37t-16 -65t-2.5 -65t16 -37t35.5 -12zM1141 390q91 0 126.5 -47t20.5 -151t-63 -151t-140 -47
q-91 0 -126 47t-20 151t63 151t139 47zM1097 78q35 0 54.5 27t27.5 87t-3.5 87t-45.5 27q-24 0 -40 -12t-26 -37t-16 -65t-2.5 -65t16 -37t35.5 -12zM303.5 710q91.5 0 126.5 -47t20 -151t-62.5 -151t-139 -47t-126.5 47t-20 151t62.5 151t139 47zM259.5 398q34.5 0 54.5 27
t28 87t-3.5 87t-46.5 27t-54.5 -27t-27.5 -87t3.5 -87t46 -27zM287 -30h-134l547 760h134z" />
    <glyph glyph-name="guilsinglleft" unicode="&#x2039;" horiz-adv-x="329" 
d="M220 450h142l-146 -190l91 -200h-142l-98 200z" />
    <glyph glyph-name="guilsinglright" unicode="&#x203a;" horiz-adv-x="329" 
d="M93 450h141l102 -190l-157 -200h-141l148 200z" />
    <glyph glyph-name="lira" unicode="&#x20a4;" horiz-adv-x="656" 
d="M190 116h452l-16 -116h-586l19 134q37 13 61 37t39 65h-86l11 76h90l6 46h-90l11 76h90l9 66q11 77 41.5 125.5t84.5 71.5t135 23q124 0 172.5 -52.5t32.5 -167.5h-141q10 63 -6.5 91.5t-63.5 28.5t-72.5 -28.5t-34.5 -91.5l-9 -66h238l-11 -76h-238l-6 -46h238l-11 -76
h-241q-13 -45 -41 -73.5t-77 -46.5z" />
    <glyph glyph-name="Euro" unicode="&#x20ac;" horiz-adv-x="857" 
d="M686 240v-1h165q-33 -92 -82.5 -148.5t-121 -83.5t-171.5 -27q-164 0 -241.5 64t-78.5 203h-91l10 76h84l4 27l4 28h-84l11 76h91q40 138 135.5 202t258.5 64q159 0 230.5 -61.5t71.5 -198.5h-165q-2 71 -38.5 103t-115.5 32q-78 0 -127 -34t-75 -107h244l-11 -76h-253
l-4 -28l-3 -26h214l-11 -76h-205q3 -50 22 -81.5t53.5 -46.5t87.5 -15q77 0 122 32t70 103z" />
    <glyph glyph-name="trademark" unicode="&#x2122;" horiz-adv-x="1266" 
d="M576 700l-16 -116h-154l-54 -384h-140l54 384h-154l16 116h448zM578 200l70 500h190l83 -349l181 349h182l-70 -500h-140l46 325l-174 -325h-100l-82 325l-46 -325h-140z" />
    <glyph glyph-name="minus" unicode="&#x2212;" horiz-adv-x="390" 
d="M390 212h-330l15 108h330z" />
    <glyph glyph-name="approxequal" unicode="&#x2248;" horiz-adv-x="660" 
d="M47 124l15 101q46 40 94 52.5t89.5 2t83 -30t82.5 -39.5t80.5 -31.5t84 -1t86.5 47.5l-15 -101q-46 -40 -94 -52.5t-89.5 -2.5t-83.5 29.5t-82.5 39.5t-80.5 31.5t-84 1.5t-86 -47zM75 320l14 102q47 40 94.5 52t89 1.5t83.5 -30t82.5 -39.5t80.5 -31.5t84 -1t86 47.5
l-14 -101q-47 -40 -94.5 -52.5t-89 -2.5t-83.5 29.5t-83 39.5t-80.5 31.5t-83.5 1.5t-86 -47z" />
    <glyph glyph-name="notequal" unicode="&#x2260;" horiz-adv-x="644" 
d="M188 0l57 114h-199l15 108h238l43 86h-269l15 108h308l42 84h84l-42 -84h192l-15 -108h-231l-43 -86h262l-15 -108h-301l-57 -114h-84z" />
    <glyph glyph-name="lessequal" unicode="&#x2264;" horiz-adv-x="460" 
d="M30 0l16 116h400l-16 -116h-400zM104 525l424 175l-18 -133l-284 -117l251 -117l-19 -133l-375 175z" />
    <glyph glyph-name="greaterequal" unicode="&#x2265;" horiz-adv-x="460" 
d="M30 0l16 116h400l-16 -116h-400zM128 700l376 -175l-21 -150l-425 -175l19 133l283 117l-250 117z" />
    <glyph glyph-name="uniE132" unicode="&#xe132;" horiz-adv-x="533" 
d="M202 0h-148l70 500h148zM259 -72q29 0 47 16.5t22 43.5l72 512h149l-74 -528q-10 -71 -56 -111.5t-119 -40.5h-135l15 108h79zM127 550l118 150h149l-149 -150h-118zM403 550l118 150h150l-150 -150h-118z" />
    <glyph glyph-name="uniE133" unicode="&#xe133;" horiz-adv-x="905" 
d="M178 700h164l-98 -700h-164zM376 210l4 34h157l-4 -34q-8 -55 7.5 -80t58.5 -25q29 0 48.5 10.5t31 33.5t17.5 61l68 490h165l-68 -490q-11 -78 -44 -128.5t-91.5 -76t-144.5 -25.5q-123 0 -172.5 56.5t-32.5 173.5zM197 750l112 120h142l-136 -120h-118zM783 750
l112 120h142l-136 -120h-118z" />
    <glyph glyph-name="a.alt1" horiz-adv-x="606" 
d="M247 -10q-115 0 -158 61.5t-24 198.5q13 92 44 149t82.5 84t128.5 27q109 0 153 -56l27 46h116l-70 -500h-116l-15 46q-59 -56 -168 -56zM301.5 98q57.5 0 89 36t42.5 116t-10 116t-78.5 36t-89 -36t-42.5 -116t10 -116t78.5 -36z" />
    <glyph glyph-name="aacute.alt1" horiz-adv-x="606" 
d="M247 -10q-115 0 -158 61.5t-24 198.5q13 92 44 149t82.5 84t128.5 27q109 0 153 -56l27 46h116l-70 -500h-116l-15 46q-59 -56 -168 -56zM301.5 98q57.5 0 89 36t42.5 116t-10 116t-78.5 36t-89 -36t-42.5 -116t10 -116t78.5 -36zM417 700h149l-149 -150h-118z" />
    <glyph glyph-name="aacutering.alt1" horiz-adv-x="606" 
d="M247 -10q-115 0 -158 61.5t-24 198.5q13 92 44 149t82.5 84t128.5 27q109 0 153 -56l27 46h116l-70 -500h-116l-15 46q-59 -56 -168 -56zM301.5 98q57.5 0 89 36t42.5 116t-10 116t-78.5 36t-89 -36t-42.5 -116t10 -116t78.5 -36zM482 780h109l-99 -78q35 -27 28 -76
q-6 -45 -43 -71.5t-95 -26.5t-87 26.5t-23 71.5q6 46 42.5 72t95.5 26h13zM390.5 588q26.5 0 38.5 9t15 29t-6.5 29t-36 9t-38.5 -9t-15 -29t6.5 -29t36 -9z" />
    <glyph glyph-name="abreve.alt1" horiz-adv-x="606" 
d="M247 -10q-115 0 -158 61.5t-24 198.5q13 92 44 149t82.5 84t128.5 27q109 0 153 -56l27 46h116l-70 -500h-116l-15 46q-59 -56 -168 -56zM301.5 98q57.5 0 89 36t42.5 116t-10 116t-78.5 36t-89 -36t-42.5 -116t10 -116t78.5 -36zM472 700h100q-11 -79 -55.5 -114.5
t-131.5 -35.5t-121.5 35.5t-23.5 114.5h100q-5 -39 8 -56.5t48 -17.5t53 17.5t23 56.5z" />
    <glyph glyph-name="acircumflex.alt1" horiz-adv-x="606" 
d="M247 -10q-115 0 -158 61.5t-24 198.5q13 92 44 149t82.5 84t128.5 27q109 0 153 -56l27 46h116l-70 -500h-116l-15 46q-59 -56 -168 -56zM301.5 98q57.5 0 89 36t42.5 116t-10 116t-78.5 36t-89 -36t-42.5 -116t10 -116t78.5 -36zM480 700l63 -150h-93l-53 82l-77 -82
h-93l105 150h148z" />
    <glyph glyph-name="acute.case" horiz-adv-x="296" 
d="M107 550l111 120h142l-135 -120h-118z" />
    <glyph glyph-name="adieresis.alt1" horiz-adv-x="606" 
d="M247 -10q-115 0 -158 61.5t-24 198.5q13 92 44 149t82.5 84t128.5 27q109 0 153 -56l27 46h116l-70 -500h-116l-15 46q-59 -56 -168 -56zM301.5 98q57.5 0 89 36t42.5 116t-10 116t-78.5 36t-89 -36t-42.5 -116t10 -116t78.5 -36zM300 728q46 0 63.5 -19.5t11.5 -62.5
t-29.5 -62.5t-68.5 -19.5t-62.5 19t-11.5 63q3 22 10 37.5t19 25.5t28.5 14.5t39.5 4.5zM520 728q31 0 49 -8.5t24.5 -26.5t2.5 -47t-16 -47t-32.5 -26.5t-50.5 -8.5q-45 0 -62.5 19.5t-11.5 62.5t29 62.5t68 19.5z" />
    <glyph glyph-name="agrave.alt1" horiz-adv-x="606" 
d="M247 -10q-115 0 -158 61.5t-24 198.5q13 92 44 149t82.5 84t128.5 27q109 0 153 -56l27 46h116l-70 -500h-116l-15 46q-59 -56 -168 -56zM301.5 98q57.5 0 89 36t42.5 116t-10 116t-78.5 36t-89 -36t-42.5 -116t10 -116t78.5 -36zM355 700l76 -150h-118l-107 150h149z
" />
    <glyph glyph-name="amacron.alt1" horiz-adv-x="606" 
d="M247 -10q-115 0 -158 61.5t-24 198.5q13 92 44 149t82.5 84t128.5 27q109 0 153 -56l27 46h116l-70 -500h-116l-15 46q-59 -56 -168 -56zM301.5 98q57.5 0 89 36t42.5 116t-10 116t-78.5 36t-89 -36t-42.5 -116t10 -116t78.5 -36zM221 588l11 84h340l-11 -84h-340z" />
    <glyph glyph-name="aogonek.alt1" horiz-adv-x="606" 
d="M429 6h-1l-13 40q-59 -56 -168 -56q-115 0 -158 61.5t-24 198.5q13 92 43.5 149t82.5 84t129 27q109 0 153 -56l27 46h116l-70 -500h-50q-53 -42 -63 -85q-5 -39 34 -40q7 0 14.5 1t13 3t10.5 4t8 4l2 1l-16 -118q-33 -20 -73 -20q-36 0 -60 18t-30 47t0.5 62.5t31 68
t61.5 60.5zM302.5 98q57.5 0 89 36t42.5 116t-10 116t-78.5 36t-89 -36t-42.5 -116t10 -116t78.5 -36z" />
    <glyph glyph-name="aring.alt1" horiz-adv-x="606" 
d="M247 -10q-115 0 -158 61.5t-24 198.5q13 92 44 149t82.5 84t128.5 27q109 0 153 -56l27 46h116l-70 -500h-116l-15 46q-59 -56 -168 -56zM301.5 98q57.5 0 89 36t42.5 116t-10 116t-78.5 36t-89 -36t-42.5 -116t10 -116t78.5 -36zM413 746q44 0 69.5 -11t35 -34.5
t4.5 -60.5q-8 -56 -41 -81t-98 -25q-44 0 -69.5 11t-35 34.5t-4.5 60.5t21.5 60.5t45 34.5t72.5 11zM392 594q17 0 28 4.5t17.5 14.5t8.5 27q2 12 0.5 21t-6.5 14.5t-14 8t-22 2.5q-25 0 -38 -10.5t-16 -35.5q-2 -17 1.5 -27t13 -14.5t27.5 -4.5z" />
    <glyph glyph-name="atilde.alt1" horiz-adv-x="606" 
d="M247 -10q-115 0 -158 61.5t-24 198.5q13 92 44 149t82.5 84t128.5 27q109 0 153 -56l27 46h116l-70 -500h-116l-15 46q-59 -56 -168 -56zM301.5 98q57.5 0 89 36t42.5 116t-10 116t-78.5 36t-89 -36t-42.5 -116t10 -116t78.5 -36zM223 578q8 52 43 89t77 37
q29 0 50.5 -12t31 -27t21 -27t22.5 -12t20 11.5t12 30.5h68q-7 -52 -42.5 -89t-77.5 -37q-24 0 -42 8t-28.5 19.5t-19 23t-17 19.5t-18.5 8q-11 0 -20 -11.5t-12 -30.5h-68z" />
    <glyph glyph-name="breve.case" horiz-adv-x="392" 
d="M348 670h108q-9 -63 -52.5 -91.5t-130.5 -28.5t-122.5 28.5t-26.5 91.5h108q-2 -18 2 -29.5t16 -17t33 -5.5q30 0 45.5 12.5t19.5 39.5z" />
    <glyph glyph-name="caron.case" horiz-adv-x="380" 
d="M444 670l-103 -120h-148l-69 120h101l51 -60l67 60h101z" />
    <glyph glyph-name="circumflex.case" horiz-adv-x="380" 
d="M358 670l69 -120h-101l-50 60l-68 -60h-101l103 120h148z" />
    <glyph glyph-name="commaaccent" horiz-adv-x="184" 
d="M86 -42q37 0 46.5 -22.5t3.5 -61.5q-8 -59 -39 -85.5t-90 -26.5l7 52q24 0 36.5 10.5t15.5 33.5q-29 0 -41 10.5t-9 34.5q5 30 22 42.5t48 12.5z" />
    <glyph glyph-name="dieresis.case" horiz-adv-x="469" 
d="M217 716q45 0 63 -16.5t13 -53.5q-4 -25 -15 -40t-31 -22.5t-50 -7.5q-45 0 -63 16.5t-13 53.5t28 53.5t68 16.5zM454 716q45 0 63 -16.5t13 -53.5t-28 -53.5t-69 -16.5q-45 0 -63 16.5t-13 53.5t28 53.5t69 16.5z" />
    <glyph glyph-name="dotaccent.case" horiz-adv-x="232" 
d="M213 692q45 0 63.5 -16.5t12.5 -53.5q-3 -25 -14 -40t-31 -22.5t-50 -7.5q-45 0 -63.5 16.5t-13 53.5t28 53.5t67.5 16.5z" />
    <glyph glyph-name="grave.case" horiz-adv-x="296" 
d="M258 670l85 -120h-109l-110 120h134z" />
    <glyph glyph-name="hungarumlaut.case" horiz-adv-x="481" 
d="M107 550l103 120h134l-127 -120h-110zM307 550l104 120h134l-128 -120h-110z" />
    <glyph glyph-name="tilde.case" horiz-adv-x="392" 
d="M112 580q7 51 40 79.5t77 28.5q29 0 51 -8t33 -17t24.5 -17t28.5 -8q7 0 13.5 4t11 11.5t5.5 16.5h60q-5 -34 -22.5 -59t-42 -37t-52.5 -12q-29 0 -51.5 8t-33 17t-24.5 17t-28 8q-11 0 -20 -9t-10 -23h-60z" />
    </font>
</defs>
</svg>
